<svg width="20" height="20" viewBox="0 0 20 20" fill="none" xmlns="http://www.w3.org/2000/svg">
<path d="M13.6842 11.6667C14.1404 11.6667 14.5175 11.5093 14.8158 11.1944C15.114 10.8796 15.2632 10.4815 15.2632 10C15.2632 9.51852 15.114 9.12037 14.8158 8.80556C14.5175 8.49074 14.1404 8.33333 13.6842 8.33333C13.2281 8.33333 12.8509 8.49074 12.5526 8.80556C12.2544 9.12037 12.1053 9.51852 12.1053 10C12.1053 10.4815 12.2544 10.8796 12.5526 11.1944C12.8509 11.5093 13.2281 11.6667 13.6842 11.6667ZM2.10526 20C1.52632 20 1.0307 19.7824 0.618421 19.3472C0.20614 18.912 0 18.3889 0 17.7778V2.22222C0 1.61111 0.20614 1.08796 0.618421 0.652778C1.0307 0.217593 1.52632 0 2.10526 0H16.8421C17.4211 0 17.9167 0.217593 18.3289 0.652778C18.7412 1.08796 18.9474 1.61111 18.9474 2.22222V5H16.8421V2.22222H2.10526V17.7778H16.8421V15H18.9474V17.7778C18.9474 18.3889 18.7412 18.912 18.3289 19.3472C17.9167 19.7824 17.4211 20 16.8421 20H2.10526ZM10.5263 15.5556C9.94737 15.5556 9.45176 15.338 9.03947 14.9028C8.62719 14.4676 8.42105 13.9444 8.42105 13.3333V6.66667C8.42105 6.05556 8.62719 5.53241 9.03947 5.09722C9.45176 4.66204 9.94737 4.44444 10.5263 4.44444H17.8947C18.4737 4.44444 18.9693 4.66204 19.3816 5.09722C19.7939 5.53241 20 6.05556 20 6.66667V13.3333C20 13.9444 19.7939 14.4676 19.3816 14.9028C18.9693 15.338 18.4737 15.5556 17.8947 15.5556H10.5263ZM17.8947 13.3333V6.66667H10.5263V13.3333H17.8947Z" fill="#182F8F"/>
</svg>
