<svg width="333" height="111" viewBox="0 0 333 111" fill="none" xmlns="http://www.w3.org/2000/svg">
<g filter="url(#filter0_d_295_18199)">
<rect x="2.83594" y="0.644043" width="328" height="104" rx="8" fill="#F6FAFB"/>
<rect x="3.08594" y="0.894043" width="327.5" height="103.5" rx="7.75" stroke="#ECF3F5" stroke-width="0.5"/>
</g>
<path d="M23.8359 34.644H29.8359C34.8359 34.644 36.8359 32.644 36.8359 27.644V21.644C36.8359 16.644 34.8359 14.644 29.8359 14.644H23.8359C18.8359 14.644 16.8359 16.644 16.8359 21.644V27.644C16.8359 32.644 18.8359 34.644 23.8359 34.644Z" stroke="#606A7B" stroke-width="1.5" stroke-linecap="round" stroke-linejoin="round"/>
<path d="M23.8359 22.644C24.9405 22.644 25.8359 21.7486 25.8359 20.644C25.8359 19.5395 24.9405 18.644 23.8359 18.644C22.7314 18.644 21.8359 19.5395 21.8359 20.644C21.8359 21.7486 22.7314 22.644 23.8359 22.644Z" stroke="#606A7B" stroke-width="1.5" stroke-linecap="round" stroke-linejoin="round"/>
<path d="M17.5059 31.5941L22.4359 28.2841C23.2259 27.7541 24.3659 27.8141 25.0759 28.4241L25.4059 28.7141C26.1859 29.3841 27.4459 29.3841 28.2259 28.7141L32.3859 25.1441C33.1659 24.4741 34.4259 24.4741 35.2059 25.1441L36.8359 26.5441" stroke="#606A7B" stroke-width="1.5" stroke-linecap="round" stroke-linejoin="round"/>
<path d="M18.8701 86.9338V80.2122H20.2075V86.9338H18.8701ZM16.1805 84.2392V82.9068H22.9021V84.2392H16.1805ZM29.8859 88.644H28.2552L31.9193 78.4622H33.6942L37.3582 88.644H35.7275L32.849 80.3117H32.7694L29.8859 88.644ZM30.1594 84.6568H35.4491V85.9494H30.1594V84.6568ZM41.4449 88.7932C40.8284 88.7932 40.2782 88.6358 39.7943 88.3209C39.3137 88.0027 38.9359 87.5503 38.6608 86.9636C38.389 86.3737 38.2531 85.6661 38.2531 84.8408C38.2531 84.0155 38.3907 83.3095 38.6657 82.7229C38.9442 82.1362 39.3253 81.6871 39.8092 81.3756C40.2931 81.064 40.8416 80.9082 41.4548 80.9082C41.9288 80.9082 42.3099 80.9878 42.5983 81.1469C42.8899 81.3027 43.1153 81.485 43.2744 81.6938C43.4368 81.9026 43.5628 82.0865 43.6523 82.2456H43.7417V78.4622H45.2282V88.644H43.7765V87.4558H43.6523C43.5628 87.6182 43.4335 87.8038 43.2645 88.0127C43.0988 88.2215 42.8701 88.4037 42.5784 88.5595C42.2867 88.7153 41.9089 88.7932 41.4449 88.7932ZM41.773 87.5254C42.2006 87.5254 42.5618 87.4127 42.8568 87.1874C43.1551 86.9587 43.3805 86.6421 43.5329 86.2378C43.6887 85.8334 43.7666 85.3628 43.7666 84.8259C43.7666 84.2956 43.6904 83.8315 43.5379 83.4338C43.3854 83.0361 43.1617 82.7262 42.8667 82.5041C42.5718 82.2821 42.2072 82.171 41.773 82.171C41.3256 82.171 40.9527 82.287 40.6544 82.519C40.3561 82.7511 40.1307 83.0676 39.9782 83.4686C39.8291 83.8697 39.7545 84.3221 39.7545 84.8259C39.7545 85.3363 39.8308 85.7953 39.9832 86.203C40.1357 86.6107 40.3611 86.9338 40.6594 87.1725C40.961 87.4078 41.3322 87.5254 41.773 87.5254ZM50.2085 88.7932C49.5921 88.7932 49.0419 88.6358 48.558 88.3209C48.0774 88.0027 47.6995 87.5503 47.4244 86.9636C47.1527 86.3737 47.0168 85.6661 47.0168 84.8408C47.0168 84.0155 47.1543 83.3095 47.4294 82.7229C47.7078 82.1362 48.089 81.6871 48.5729 81.3756C49.0568 81.064 49.6053 80.9082 50.2185 80.9082C50.6924 80.9082 51.0736 80.9878 51.3619 81.1469C51.6536 81.3027 51.879 81.485 52.0381 81.6938C52.2005 81.9026 52.3264 82.0865 52.4159 82.2456H52.5054V78.4622H53.9919V88.644H52.5402V87.4558H52.4159C52.3264 87.6182 52.1972 87.8038 52.0281 88.0127C51.8624 88.2215 51.6337 88.4037 51.3421 88.5595C51.0504 88.7153 50.6726 88.7932 50.2085 88.7932ZM50.5367 87.5254C50.9642 87.5254 51.3255 87.4127 51.6205 87.1874C51.9188 86.9587 52.1441 86.6421 52.2966 86.2378C52.4524 85.8334 52.5303 85.3628 52.5303 84.8259C52.5303 84.2956 52.454 83.8315 52.3016 83.4338C52.1491 83.0361 51.9254 82.7262 51.6304 82.5041C51.3354 82.2821 50.9709 82.171 50.5367 82.171C50.0892 82.171 49.7164 82.287 49.4181 82.519C49.1198 82.7511 48.8944 83.0676 48.7419 83.4686C48.5928 83.8697 48.5182 84.3221 48.5182 84.8259C48.5182 85.3363 48.5944 85.7953 48.7469 86.203C48.8994 86.6107 49.1247 86.9338 49.423 87.1725C49.7246 87.4078 50.0959 87.5254 50.5367 87.5254ZM61.4742 78.4622V88.644H59.9379V78.4622H61.4742ZM63.5921 88.644V81.0077H65.0189V82.2506H65.1134C65.2725 81.8296 65.5326 81.5015 65.8939 81.2662C66.2552 81.0276 66.6877 80.9082 67.1915 80.9082C67.7019 80.9082 68.1295 81.0276 68.4742 81.2662C68.8222 81.5048 69.079 81.833 69.2448 82.2506H69.3243C69.5066 81.8429 69.7966 81.5181 70.1943 81.2761C70.5921 81.0309 71.066 80.9082 71.6162 80.9082C72.3089 80.9082 72.874 81.1253 73.3115 81.5595C73.7523 81.9937 73.9727 82.6483 73.9727 83.5233V88.644H72.4862V83.6625C72.4862 83.1455 72.3454 82.7709 72.0637 82.5389C71.7819 82.3069 71.4455 82.1909 71.0544 82.1909C70.5705 82.1909 70.1943 82.3401 69.9259 82.6384C69.6574 82.9333 69.5232 83.3128 69.5232 83.7769V88.644H68.0416V83.568C68.0416 83.1537 67.9124 82.8207 67.6539 82.5688C67.3953 82.3169 67.0589 82.1909 66.6446 82.1909C66.3629 82.1909 66.1027 82.2655 65.8641 82.4146C65.6288 82.5605 65.4382 82.7643 65.2923 83.0261C65.1498 83.288 65.0786 83.5912 65.0786 83.9359V88.644H63.5921ZM78.1874 88.8131C77.7035 88.8131 77.266 88.7236 76.8749 88.5446C76.4838 88.3623 76.1739 88.0988 75.9452 87.7541C75.7198 87.4094 75.6072 86.9868 75.6072 86.4864C75.6072 86.0555 75.69 85.7009 75.8557 85.4225C76.0215 85.144 76.2452 84.9236 76.5269 84.7612C76.8086 84.5988 77.1235 84.4762 77.4715 84.3933C77.8195 84.3105 78.1742 84.2475 78.5354 84.2044C78.9928 84.1514 79.364 84.1083 79.6491 84.0752C79.9341 84.0387 80.1412 83.9807 80.2705 83.9011C80.3998 83.8216 80.4644 83.6923 80.4644 83.5134V83.4786C80.4644 83.0444 80.3418 82.708 80.0965 82.4693C79.8546 82.2307 79.4933 82.1114 79.0127 82.1114C78.5122 82.1114 78.1178 82.2224 77.8295 82.4445C77.5444 82.6632 77.3472 82.9068 77.2378 83.1753L75.8408 82.8571C76.0065 82.3931 76.2485 82.0186 76.5667 81.7335C76.8882 81.4452 77.2577 81.2364 77.6753 81.1071C78.093 80.9745 78.5321 80.9082 78.9928 80.9082C79.2977 80.9082 79.6209 80.9447 79.9623 81.0176C80.307 81.0872 80.6285 81.2165 80.9268 81.4054C81.2284 81.5943 81.4753 81.8644 81.6675 82.2158C81.8598 82.5638 81.9559 83.0162 81.9559 83.573V88.644H80.5042V87.6H80.4445C80.3484 87.7922 80.2042 87.9812 80.012 88.1668C79.8198 88.3524 79.5728 88.5065 79.2712 88.6291C78.9696 88.7518 78.6083 88.8131 78.1874 88.8131ZM78.5106 87.6199C78.9215 87.6199 79.2729 87.5387 79.5645 87.3763C79.8595 87.2139 80.0832 87.0018 80.2357 86.7399C80.3915 86.4748 80.4694 86.1914 80.4694 85.8898V84.9054C80.4163 84.9584 80.3136 85.0082 80.1611 85.0546C80.012 85.0976 79.8413 85.1358 79.6491 85.1689C79.4568 85.1987 79.2696 85.2269 79.0873 85.2534C78.905 85.2766 78.7525 85.2965 78.6299 85.3131C78.3415 85.3495 78.078 85.4109 77.8394 85.497C77.6041 85.5832 77.4152 85.7075 77.2726 85.8699C77.1334 86.029 77.0638 86.2411 77.0638 86.5063C77.0638 86.8742 77.1997 87.1526 77.4715 87.3415C77.7433 87.5271 78.0896 87.6199 78.5106 87.6199ZM87.1375 91.6668C86.531 91.6668 86.009 91.5872 85.5715 91.4281C85.1373 91.269 84.7826 91.0586 84.5075 90.7967C84.2325 90.5349 84.027 90.2482 83.8911 89.9367L85.1688 89.4097C85.2583 89.5555 85.3776 89.7096 85.5267 89.872C85.6792 90.0377 85.8847 90.1786 86.1432 90.2946C86.405 90.4106 86.7414 90.4686 87.1524 90.4686C87.7159 90.4686 88.1816 90.3311 88.5494 90.056C88.9173 89.7842 89.1013 89.35 89.1013 88.7534V87.252H89.0068C88.9173 87.4144 88.7881 87.595 88.6191 87.7939C88.4533 87.9928 88.2246 88.1651 87.933 88.3109C87.6413 88.4568 87.2618 88.5297 86.7945 88.5297C86.1913 88.5297 85.6477 88.3888 85.1638 88.1071C84.6832 87.8221 84.3021 87.4028 84.0203 86.8493C83.7419 86.2925 83.6027 85.6081 83.6027 84.796C83.6027 83.984 83.7403 83.288 84.0154 82.708C84.2938 82.1279 84.6749 81.6838 85.1588 81.3756C85.6427 81.064 86.1913 80.9082 86.8044 80.9082C87.2784 80.9082 87.6612 80.9878 87.9529 81.1469C88.2445 81.3027 88.4716 81.485 88.634 81.6938C88.7997 81.9026 88.9273 82.0865 89.0168 82.2456H89.1262V81.0077H90.5828V88.8131C90.5828 89.4693 90.4304 90.0079 90.1254 90.4288C89.8205 90.8498 89.4079 91.1613 88.8875 91.3635C88.3705 91.5657 87.7871 91.6668 87.1375 91.6668ZM87.1226 87.2967C87.5502 87.2967 87.9114 87.1973 88.2064 86.9984C88.5047 86.7963 88.7301 86.5079 88.8825 86.1334C89.0383 85.7555 89.1162 85.3031 89.1162 84.7761C89.1162 84.2624 89.04 83.81 88.8875 83.4189C88.7351 83.0278 88.5113 82.7229 88.2164 82.5041C87.9214 82.2821 87.5568 82.171 87.1226 82.171C86.6752 82.171 86.3023 82.287 86.004 82.519C85.7057 82.7477 85.4803 83.0593 85.3279 83.4537C85.1787 83.8481 85.1041 84.2889 85.1041 84.7761C85.1041 85.2766 85.1804 85.7158 85.3328 86.0936C85.4853 86.4715 85.7107 86.7664 86.009 86.9786C86.3106 87.1907 86.6818 87.2967 87.1226 87.2967ZM95.8676 88.7982C95.1153 88.7982 94.4673 88.6374 93.9237 88.3159C93.3835 87.9911 92.9659 87.5354 92.6709 86.9487C92.3792 86.3588 92.2334 85.6677 92.2334 84.8756C92.2334 84.0934 92.3792 83.404 92.6709 82.8074C92.9659 82.2108 93.3769 81.7451 93.9039 81.4104C94.4342 81.0756 95.0539 80.9082 95.7632 80.9082C96.1941 80.9082 96.6117 80.9795 97.0161 81.122C97.4204 81.2645 97.7834 81.4883 98.1048 81.7932C98.4263 82.0981 98.6799 82.4942 98.8655 82.9814C99.0511 83.4653 99.1439 84.0536 99.1439 84.7463V85.2733H93.0736V84.1597H97.6872C97.6872 83.7686 97.6077 83.4222 97.4486 83.1206C97.2895 82.8157 97.0658 82.5754 96.7774 82.3997C96.4924 82.2241 96.1576 82.1362 95.7732 82.1362C95.3556 82.1362 94.991 82.239 94.6794 82.4445C94.3712 82.6466 94.1325 82.9118 93.9635 83.2399C93.7978 83.5647 93.7149 83.9177 93.7149 84.2989V85.1689C93.7149 85.6793 93.8044 86.1135 93.9834 86.4715C94.1657 86.8294 94.4192 87.1028 94.7441 87.2918C95.0689 87.4774 95.4484 87.5702 95.8825 87.5702C96.1643 87.5702 96.4211 87.5304 96.6531 87.4509C96.8852 87.368 97.0857 87.2454 97.2547 87.083C97.4237 86.9206 97.553 86.72 97.6425 86.4814L99.0494 86.735C98.9368 87.1493 98.7346 87.5122 98.4429 87.8237C98.1546 88.132 97.7916 88.3723 97.3541 88.5446C96.92 88.7136 96.4244 88.7982 95.8676 88.7982Z" fill="#606A7B"/>
<defs>
<filter id="filter0_d_295_18199" x="0.835938" y="0.644043" width="332" height="110" filterUnits="userSpaceOnUse" color-interpolation-filters="sRGB">
<feFlood flood-opacity="0" result="BackgroundImageFix"/>
<feColorMatrix in="SourceAlpha" type="matrix" values="0 0 0 0 0 0 0 0 0 0 0 0 0 0 0 0 0 0 127 0" result="hardAlpha"/>
<feMorphology radius="4" operator="erode" in="SourceAlpha" result="effect1_dropShadow_295_18199"/>
<feOffset dy="4"/>
<feGaussianBlur stdDeviation="3"/>
<feColorMatrix type="matrix" values="0 0 0 0 0.0941176 0 0 0 0 0.152941 0 0 0 0 0.294118 0 0 0 0.12 0"/>
<feBlend mode="normal" in2="BackgroundImageFix" result="effect1_dropShadow_295_18199"/>
<feBlend mode="normal" in="SourceGraphic" in2="effect1_dropShadow_295_18199" result="shape"/>
</filter>
</defs>
</svg>
