<svg width="266" height="260" viewBox="0 0 266 260" fill="none" xmlns="http://www.w3.org/2000/svg">
<path d="M115.31 4.53981H186.977L191.071 0.446289H234.646C236.06 0.446289 237.416 1.00795 238.416 2.00773C239.415 3.0075 239.977 4.3635 239.977 5.7774V12.9778H110.507L110.352 9.78437C110.318 9.1107 110.421 8.43714 110.654 7.80434C110.888 7.17154 111.247 6.59261 111.71 6.10249C112.174 5.61237 112.732 5.22123 113.35 4.95266C113.969 4.68408 114.636 4.54363 115.31 4.53981Z" fill="#E9EDED"/>
<path d="M14.4434 118.492L15.4041 23.06C15.4292 20.3864 16.5089 17.8309 18.4083 15.9493C20.3078 14.0676 22.8734 13.0121 25.547 13.0122H244.841C247.517 13.0121 250.085 14.07 251.985 15.9554C253.885 17.8408 254.963 20.4007 254.984 23.0773L255.702 118.492L265.793 160.171V175.066H258.644V217.723C258.64 225.21 255.663 232.388 250.367 237.68C245.072 242.972 237.892 245.945 230.405 245.945H35.4649C27.9754 245.945 20.7927 242.97 15.4968 237.674C10.2009 232.378 7.22568 225.195 7.22568 217.706V173.248H0.0771484V160.171L14.4434 118.492Z" fill="#F6F9FA"/>
<path d="M63.1654 102.371C70.019 94.9336 69.5456 83.3483 62.108 76.4947C54.6704 69.6411 43.0851 70.1145 36.2316 77.5521C29.378 84.9897 29.8514 96.575 37.289 103.429C44.7265 110.282 56.3118 109.809 63.1654 102.371Z" fill="#F0F2F2"/>
<g opacity="0.3">
<path d="M0.0771484 160.171H265.793L255.702 118.5H14.4521L0.0771484 160.171Z" fill="#E9EDED"/>
</g>
<path d="M78.1225 32.6836H35.0929C31.8379 32.6836 29.1992 35.3223 29.1992 38.5772V48.8759C29.1992 52.1309 31.8379 54.7696 35.0929 54.7696H78.1225C81.3774 54.7696 84.0161 52.1309 84.0161 48.8759V38.5772C84.0161 35.3223 81.3774 32.6836 78.1225 32.6836Z" fill="white"/>
<path d="M59.7661 99.2156C64.8659 93.6521 64.49 85.0079 58.9265 79.9082C53.3631 74.8085 44.7189 75.1844 39.6191 80.7478C34.5194 86.3112 34.8953 94.9554 40.4588 100.055C46.0222 105.155 54.6664 104.779 59.7661 99.2156Z" fill="#E9EDED"/>
<path d="M33.8726 218.554L18.7014 259.836H249.228L231.721 218.554H33.8726Z" fill="white"/>
<g opacity="0.3">
<path d="M141.983 44.2284C141.985 44.9463 141.774 45.6486 141.376 46.2462C140.978 46.8439 140.412 47.31 139.749 47.5855C139.086 47.8611 138.356 47.9336 137.652 47.794C136.948 47.6543 136.301 47.3088 135.793 46.8011C135.285 46.2935 134.94 45.6466 134.8 44.9423C134.661 44.2381 134.733 43.5083 135.009 42.8453C135.284 42.1824 135.75 41.6162 136.348 41.2184C136.946 40.8206 137.648 40.6091 138.366 40.6109C139.325 40.6109 140.245 40.992 140.924 41.6704C141.602 42.3488 141.983 43.2689 141.983 44.2284Z" fill="white"/>
</g>
<path d="M140.945 102.178C139.732 102.332 138.505 102.332 137.293 102.178C136.068 102.183 134.848 102.041 133.658 101.754C134.873 101.6 136.103 101.6 137.319 101.754C138.54 101.75 139.757 101.893 140.945 102.178Z" fill="white"/>
<g opacity="0.3">
<path d="M7.22559 173.283V185.105H258.644V175.066L7.22559 173.283Z" fill="#E9EDED"/>
</g>
<path d="M40.6317 218.554L28.7925 254.704H239.137L225.429 218.554H40.6317Z" fill="#E9EDED"/>
<path d="M230.518 38.6466L245.853 42.8786L234.525 45.648C228.735 46.574 226.147 49.0578 225.1 52.2859L221.56 80.8454L217.233 52.2859C216.7 50.9555 215.891 49.7528 214.861 48.7566C213.83 47.7603 212.601 46.993 211.253 46.5048L196.541 42.9132L212.067 38.5168C213.348 37.9899 214.509 37.2069 215.478 36.2159C216.447 35.2248 217.203 34.0465 217.7 32.753L221.569 0.4375L224.347 32.052C224.798 33.5522 225.59 34.928 226.66 36.0719C227.73 37.2158 229.051 38.097 230.518 38.6466Z" fill="white"/>
<path d="M238.419 77.8856L241.993 78.8722L239.354 79.5213C238.004 79.7376 237.407 80.3175 237.156 81.0617L236.333 87.7083L235.321 81.0531C235.197 80.7433 235.009 80.4633 234.769 80.232C234.529 80.0007 234.242 79.8233 233.928 79.7117L230.509 78.8462L234.127 77.825C234.423 77.7005 234.692 77.5176 234.916 77.2872C235.141 77.0567 235.317 76.7834 235.433 76.4836L236.299 68.9629L236.948 76.3191C237.052 76.6779 237.239 77.007 237.495 77.2793C237.751 77.5516 238.068 77.7594 238.419 77.8856Z" fill="white"/>
</svg>
