<svg width="333" height="111" viewBox="0 0 333 111" fill="none" xmlns="http://www.w3.org/2000/svg">
<g filter="url(#filter0_d_244_31005)">
<rect x="2.83594" y="0.315918" width="328" height="104" rx="8" fill="#F6FAFB"/>
<rect x="3.08594" y="0.565918" width="327.5" height="103.5" rx="7.75" stroke="#ECF3F5" stroke-width="0.5"/>
</g>
<path d="M23.8359 34.3159H29.8359C34.8359 34.3159 36.8359 32.3159 36.8359 27.3159V21.3159C36.8359 16.3159 34.8359 14.3159 29.8359 14.3159H23.8359C18.8359 14.3159 16.8359 16.3159 16.8359 21.3159V27.3159C16.8359 32.3159 18.8359 34.3159 23.8359 34.3159Z" stroke="#606A7B" stroke-width="1.5" stroke-linecap="round" stroke-linejoin="round"/>
<path d="M23.8359 22.3159C24.9405 22.3159 25.8359 21.4205 25.8359 20.3159C25.8359 19.2113 24.9405 18.3159 23.8359 18.3159C22.7314 18.3159 21.8359 19.2113 21.8359 20.3159C21.8359 21.4205 22.7314 22.3159 23.8359 22.3159Z" stroke="#606A7B" stroke-width="1.5" stroke-linecap="round" stroke-linejoin="round"/>
<path d="M17.506 31.266L22.436 27.956C23.226 27.426 24.366 27.486 25.076 28.096L25.406 28.386C26.186 29.056 27.446 29.056 28.226 28.386L32.386 24.816C33.166 24.146 34.426 24.146 35.206 24.816L36.836 26.216" stroke="#606A7B" stroke-width="1.5" stroke-linecap="round" stroke-linejoin="round"/>
<path d="M18.8281 86.6057V79.8841H20.1655V86.6057H18.8281ZM16.1385 83.9111V82.5787H22.8601V83.9111H16.1385ZM37.4405 81.4452H35.8894C35.8297 81.1137 35.7187 80.8221 35.5563 80.5702C35.3939 80.3183 35.195 80.1045 34.9597 79.9288C34.7244 79.7532 34.4609 79.6206 34.1692 79.5311C33.8809 79.4416 33.5743 79.3969 33.2495 79.3969C32.6628 79.3969 32.1375 79.5444 31.6735 79.8394C31.2128 80.1343 30.8482 80.5669 30.5797 81.1369C30.3146 81.707 30.182 82.403 30.182 83.225C30.182 84.0536 30.3146 84.7529 30.5797 85.323C30.8482 85.8931 31.2144 86.324 31.6784 86.6156C32.1425 86.9073 32.6645 87.0531 33.2445 87.0531C33.566 87.0531 33.8709 87.01 34.1593 86.9239C34.4509 86.8344 34.7144 86.7035 34.9498 86.5311C35.1851 86.3588 35.3839 86.1483 35.5463 85.8997C35.7121 85.6478 35.8264 85.3595 35.8894 85.0347L37.4405 85.0396C37.3577 85.5401 37.1969 86.0008 36.9583 86.4217C36.723 86.8394 36.4197 87.2006 36.0485 87.5055C35.6806 87.8072 35.2596 88.0408 34.7857 88.2065C34.3117 88.3723 33.7947 88.4551 33.2346 88.4551C32.3529 88.4551 31.5674 88.2463 30.878 87.8287C30.1886 87.4078 29.6451 86.8062 29.2473 86.024C28.8529 85.2418 28.6557 84.3088 28.6557 83.225C28.6557 82.1379 28.8546 81.2049 29.2523 80.426C29.65 79.6438 30.1936 79.0439 30.883 78.6263C31.5724 78.2054 32.3562 77.9949 33.2346 77.9949C33.7748 77.9949 34.2786 78.0728 34.7459 78.2286C35.2166 78.381 35.6391 78.6064 36.0137 78.9047C36.3882 79.1997 36.6981 79.5609 36.9434 79.9885C37.1886 80.4127 37.3543 80.8983 37.4405 81.4452ZM41.3817 88.485C40.8978 88.485 40.4603 88.3955 40.0692 88.2165C39.6781 88.0342 39.3683 87.7707 39.1396 87.426C38.9142 87.0813 38.8015 86.6587 38.8015 86.1582C38.8015 85.7274 38.8844 85.3727 39.0501 85.0943C39.2158 84.8159 39.4395 84.5955 39.7212 84.4331C40.003 84.2707 40.3178 84.1481 40.6658 84.0652C41.0138 83.9823 41.3685 83.9194 41.7298 83.8763C42.1871 83.8233 42.5584 83.7802 42.8434 83.747C43.1284 83.7106 43.3356 83.6526 43.4648 83.573C43.5941 83.4935 43.6587 83.3642 43.6587 83.1852V83.1504C43.6587 82.7162 43.5361 82.3798 43.2908 82.1412C43.0489 81.9026 42.6876 81.7832 42.207 81.7832C41.7066 81.7832 41.3121 81.8943 41.0238 82.1163C40.7388 82.3351 40.5415 82.5787 40.4322 82.8472L39.0352 82.529C39.2009 82.065 39.4428 81.6904 39.761 81.4054C40.0825 81.1171 40.4521 80.9082 40.8697 80.779C41.2873 80.6464 41.7264 80.5801 42.1871 80.5801C42.4921 80.5801 42.8152 80.6166 43.1566 80.6895C43.5013 80.7591 43.8228 80.8884 44.1211 81.0773C44.4227 81.2662 44.6696 81.5363 44.8619 81.8877C45.0541 82.2357 45.1502 82.6881 45.1502 83.2449V88.3159H43.6985V87.2719H43.6388C43.5427 87.4641 43.3986 87.653 43.2063 87.8386C43.0141 88.0243 42.7672 88.1784 42.4656 88.301C42.1639 88.4236 41.8027 88.485 41.3817 88.485ZM41.7049 87.2918C42.1159 87.2918 42.4672 87.2106 42.7589 87.0482C43.0539 86.8858 43.2776 86.6736 43.43 86.4118C43.5858 86.1466 43.6637 85.8633 43.6637 85.5617V84.5773C43.6107 84.6303 43.5079 84.68 43.3555 84.7264C43.2063 84.7695 43.0356 84.8076 42.8434 84.8408C42.6512 84.8706 42.4639 84.8988 42.2816 84.9253C42.0993 84.9485 41.9469 84.9684 41.8242 84.985C41.5359 85.0214 41.2724 85.0827 41.0337 85.1689C40.7984 85.2551 40.6095 85.3794 40.467 85.5418C40.3278 85.7009 40.2582 85.913 40.2582 86.1781C40.2582 86.546 40.3941 86.8244 40.6658 87.0134C40.9376 87.199 41.284 87.2918 41.7049 87.2918ZM47.1301 91.1796V80.6796H48.5819V81.9175H48.7061C48.7923 81.7584 48.9166 81.5744 49.079 81.3656C49.2414 81.1568 49.4668 80.9745 49.7551 80.8188C50.0435 80.6597 50.4247 80.5801 50.8986 80.5801C51.5151 80.5801 52.0653 80.7359 52.5492 81.0475C53.0331 81.359 53.4126 81.8081 53.6877 82.3948C53.9661 82.9814 54.1053 83.6874 54.1053 84.5127C54.1053 85.3379 53.9677 86.0456 53.6926 86.6355C53.4176 87.2222 53.0397 87.6746 52.5591 87.9928C52.0785 88.3076 51.53 88.4651 50.9135 88.4651C50.4495 88.4651 50.07 88.3872 49.775 88.2314C49.4834 88.0756 49.2547 87.8933 49.089 87.6845C48.9232 87.4757 48.7956 87.2901 48.7061 87.1277H48.6167V91.1796H47.1301ZM48.5868 84.4977C48.5868 85.0347 48.6647 85.5053 48.8205 85.9097C48.9763 86.314 49.2016 86.6305 49.4966 86.8592C49.7916 87.0846 50.1529 87.1973 50.5804 87.1973C51.0246 87.1973 51.3958 87.0796 51.6941 86.8443C51.9924 86.6057 52.2177 86.2825 52.3702 85.8749C52.526 85.4672 52.6039 85.0082 52.6039 84.4977C52.6039 83.9939 52.5276 83.5415 52.3752 83.1405C52.226 82.7394 52.0007 82.4229 51.699 82.1909C51.4007 81.9589 51.0279 81.8429 50.5804 81.8429C50.1496 81.8429 49.785 81.9539 49.4867 82.176C49.1917 82.3981 48.968 82.708 48.8155 83.1057C48.6631 83.5034 48.5868 83.9674 48.5868 84.4977ZM59.3354 80.6796V81.8727H55.1642V80.6796H59.3354ZM56.2828 78.85H57.7694V86.0737C57.7694 86.3621 57.8124 86.5792 57.8986 86.725C57.9848 86.8675 58.0958 86.9653 58.2317 87.0183C58.3709 87.068 58.5217 87.0929 58.6841 87.0929C58.8034 87.0929 58.9078 87.0846 58.9973 87.068C59.0868 87.0515 59.1564 87.0382 59.2061 87.0283L59.4746 88.2563C59.3884 88.2894 59.2658 88.3225 59.1067 88.3557C58.9476 88.3921 58.7488 88.412 58.5101 88.4153C58.119 88.422 57.7544 88.3524 57.4164 88.2065C57.0783 88.0607 56.8049 87.8353 56.5961 87.5304C56.3873 87.2255 56.2828 86.8427 56.2828 86.382V78.85ZM65.8171 85.149V80.6796H67.3086V88.3159H65.8469V86.9935H65.7674C65.5917 87.4011 65.31 87.7409 64.9222 88.0127C64.5378 88.2811 64.0588 88.4153 63.4854 88.4153C62.9949 88.4153 62.5607 88.3076 62.1829 88.0922C61.8084 87.8734 61.5134 87.5503 61.2979 87.1227C61.0858 86.6952 60.9798 86.1665 60.9798 85.5368V80.6796H62.4663V85.3578C62.4663 85.8782 62.6104 86.2925 62.8988 86.6007C63.1871 86.909 63.5617 87.0631 64.0224 87.0631C64.3008 87.0631 64.5775 86.9935 64.8526 86.8543C65.131 86.7151 65.3614 86.5046 65.5437 86.2229C65.7293 85.9412 65.8204 85.5832 65.8171 85.149ZM69.3059 88.3159V80.6796H70.7427V81.8926H70.8223C70.9615 81.4816 71.2067 81.1585 71.5581 80.9232C71.9127 80.6845 72.3137 80.5652 72.7612 80.5652C72.854 80.5652 72.9634 80.5685 73.0893 80.5752C73.2186 80.5818 73.3197 80.5901 73.3926 80.6V82.0219C73.3329 82.0053 73.2269 81.9871 73.0744 81.9672C72.9219 81.944 72.7695 81.9324 72.617 81.9324C72.2657 81.9324 71.9525 82.007 71.6774 82.1561C71.4056 82.3019 71.1902 82.5058 71.0311 82.7676C70.872 83.0261 70.7924 83.3211 70.7924 83.6526V88.3159H69.3059ZM77.6967 88.47C76.9444 88.47 76.2964 88.3093 75.7528 87.9878C75.2126 87.663 74.795 87.2073 74.5 86.6206C74.2083 86.0306 74.0625 85.3396 74.0625 84.5475C74.0625 83.7653 74.2083 83.0759 74.5 82.4793C74.795 81.8827 75.206 81.417 75.733 81.0823C76.2633 80.7475 76.883 80.5801 77.5923 80.5801C78.0232 80.5801 78.4408 80.6514 78.8452 80.7939C79.2495 80.9364 79.6125 81.1601 79.9339 81.4651C80.2554 81.77 80.509 82.1661 80.6946 82.6533C80.8802 83.1372 80.973 83.7255 80.973 84.4182V84.9452H74.9027V83.8315H79.5163C79.5163 83.4404 79.4368 83.0941 79.2777 82.7925C79.1186 82.4876 78.8949 82.2473 78.6065 82.0716C78.3215 81.8959 77.9867 81.8081 77.6023 81.8081C77.1847 81.8081 76.8201 81.9109 76.5085 82.1163C76.2003 82.3185 75.9616 82.5837 75.7926 82.9118C75.6269 83.2366 75.544 83.5896 75.544 83.9707V84.8408C75.544 85.3512 75.6335 85.7854 75.8125 86.1433C75.9948 86.5013 76.2483 86.7747 76.5732 86.9636C76.898 87.1493 77.2775 87.2421 77.7116 87.2421C77.9934 87.2421 78.2502 87.2023 78.4822 87.1227C78.7143 87.0399 78.9148 86.9172 79.0838 86.7548C79.2528 86.5924 79.3821 86.3919 79.4716 86.1533L80.8786 86.4068C80.7659 86.8211 80.5637 87.1841 80.272 87.4956C79.9837 87.8038 79.6207 88.0441 79.1832 88.2165C78.7491 88.3855 78.2536 88.47 77.6967 88.47ZM87.983 78.1341V88.3159H86.4467V78.1341H87.983ZM90.1009 88.3159V80.6796H91.5277V81.9225H91.6222C91.7813 81.5015 92.0414 81.1734 92.4027 80.9381C92.764 80.6994 93.1965 80.5801 93.7003 80.5801C94.2107 80.5801 94.6383 80.6994 94.983 80.9381C95.331 81.1767 95.5878 81.5048 95.7536 81.9225H95.8331C96.0154 81.5148 96.3054 81.19 96.7031 80.948C97.1009 80.7028 97.5748 80.5801 98.125 80.5801C98.8177 80.5801 99.3828 80.7972 99.8203 81.2314C100.261 81.6656 100.482 82.3202 100.482 83.1952V88.3159H98.995V83.3344C98.995 82.8173 98.8542 82.4428 98.5724 82.2108C98.2907 81.9788 97.9543 81.8628 97.5632 81.8628C97.0793 81.8628 96.7031 82.0119 96.4347 82.3102C96.1662 82.6052 96.032 82.9847 96.032 83.4487V88.3159H94.5504V83.2399C94.5504 82.8256 94.4212 82.4925 94.1626 82.2406C93.9041 81.9887 93.5677 81.8628 93.1534 81.8628C92.8717 81.8628 92.6115 81.9374 92.3729 82.0865C92.1375 82.2323 91.947 82.4362 91.8011 82.698C91.6586 82.9599 91.5874 83.2631 91.5874 83.6078V88.3159H90.1009ZM104.696 88.485C104.212 88.485 103.775 88.3955 103.384 88.2165C102.993 88.0342 102.683 87.7707 102.454 87.426C102.229 87.0813 102.116 86.6587 102.116 86.1582C102.116 85.7274 102.199 85.3727 102.365 85.0943C102.53 84.8159 102.754 84.5955 103.036 84.4331C103.317 84.2707 103.632 84.1481 103.98 84.0652C104.328 83.9823 104.683 83.9194 105.044 83.8763C105.502 83.8233 105.873 83.7802 106.158 83.747C106.443 83.7106 106.65 83.6526 106.779 83.573C106.909 83.4935 106.973 83.3642 106.973 83.1852V83.1504C106.973 82.7162 106.851 82.3798 106.605 82.1412C106.363 81.9026 106.002 81.7832 105.521 81.7832C105.021 81.7832 104.627 81.8943 104.338 82.1163C104.053 82.3351 103.856 82.5787 103.747 82.8472L102.35 82.529C102.515 82.065 102.757 81.6904 103.075 81.4054C103.397 81.1171 103.767 80.9082 104.184 80.779C104.602 80.6464 105.041 80.5801 105.502 80.5801C105.807 80.5801 106.13 80.6166 106.471 80.6895C106.816 80.7591 107.137 80.8884 107.436 81.0773C107.737 81.2662 107.984 81.5363 108.176 81.8877C108.369 82.2357 108.465 82.6881 108.465 83.2449V88.3159H107.013V87.2719H106.953C106.857 87.4641 106.713 87.653 106.521 87.8386C106.329 88.0243 106.082 88.1784 105.78 88.301C105.478 88.4236 105.117 88.485 104.696 88.485ZM105.019 87.2918C105.43 87.2918 105.782 87.2106 106.073 87.0482C106.368 86.8858 106.592 86.6736 106.744 86.4118C106.9 86.1466 106.978 85.8633 106.978 85.5617V84.5773C106.925 84.6303 106.822 84.68 106.67 84.7264C106.521 84.7695 106.35 84.8076 106.158 84.8408C105.966 84.8706 105.778 84.8988 105.596 84.9253C105.414 84.9485 105.261 84.9684 105.139 84.985C104.85 85.0214 104.587 85.0827 104.348 85.1689C104.113 85.2551 103.924 85.3794 103.781 85.5418C103.642 85.7009 103.573 85.913 103.573 86.1781C103.573 86.546 103.709 86.8244 103.98 87.0134C104.252 87.199 104.598 87.2918 105.019 87.2918ZM113.646 91.3386C113.04 91.3386 112.518 91.2591 112.08 91.1C111.646 90.9409 111.291 90.7305 111.016 90.4686C110.741 90.2068 110.536 89.9201 110.4 89.6085L111.678 89.0815C111.767 89.2274 111.886 89.3815 112.036 89.5439C112.188 89.7096 112.393 89.8505 112.652 89.9665C112.914 90.0825 113.25 90.1405 113.661 90.1405C114.225 90.1405 114.69 90.0029 115.058 89.7278C115.426 89.4561 115.61 89.0219 115.61 88.4253V86.9239H115.516C115.426 87.0863 115.297 87.2669 115.128 87.4658C114.962 87.6646 114.733 87.837 114.442 87.9828C114.15 88.1287 113.771 88.2016 113.303 88.2016C112.7 88.2016 112.156 88.0607 111.673 87.779C111.192 87.4939 110.811 87.0747 110.529 86.5212C110.251 85.9644 110.112 85.2799 110.112 84.4679C110.112 83.6559 110.249 82.9599 110.524 82.3798C110.803 81.7998 111.184 81.3557 111.668 81.0475C112.152 80.7359 112.7 80.5801 113.313 80.5801C113.787 80.5801 114.17 80.6597 114.462 80.8188C114.753 80.9745 114.98 81.1568 115.143 81.3656C115.308 81.5744 115.436 81.7584 115.526 81.9175H115.635V80.6796H117.092V88.485C117.092 89.1412 116.939 89.6798 116.634 90.1007C116.329 90.5216 115.917 90.8332 115.396 91.0354C114.879 91.2376 114.296 91.3386 113.646 91.3386ZM113.631 86.9686C114.059 86.9686 114.42 86.8692 114.715 86.6703C115.013 86.4681 115.239 86.1798 115.391 85.8053C115.547 85.4274 115.625 84.975 115.625 84.448C115.625 83.9343 115.549 83.4819 115.396 83.0908C115.244 82.6997 115.02 82.3948 114.725 82.176C114.43 81.9539 114.066 81.8429 113.631 81.8429C113.184 81.8429 112.811 81.9589 112.513 82.1909C112.214 82.4196 111.989 82.7312 111.837 83.1256C111.688 83.52 111.613 83.9608 111.613 84.448C111.613 84.9485 111.689 85.3877 111.842 85.7655C111.994 86.1433 112.219 86.4383 112.518 86.6504C112.819 86.8626 113.191 86.9686 113.631 86.9686ZM122.376 88.47C121.624 88.47 120.976 88.3093 120.433 87.9878C119.892 87.663 119.475 87.2073 119.18 86.6206C118.888 86.0306 118.742 85.3396 118.742 84.5475C118.742 83.7653 118.888 83.0759 119.18 82.4793C119.475 81.8827 119.886 81.417 120.413 81.0823C120.943 80.7475 121.563 80.5801 122.272 80.5801C122.703 80.5801 123.121 80.6514 123.525 80.7939C123.929 80.9364 124.292 81.1601 124.614 81.4651C124.935 81.77 125.189 82.1661 125.374 82.6533C125.56 83.1372 125.653 83.7255 125.653 84.4182V84.9452H119.582V83.8315H124.196C124.196 83.4404 124.116 83.0941 123.957 82.7925C123.798 82.4876 123.575 82.2473 123.286 82.0716C123.001 81.8959 122.666 81.8081 122.282 81.8081C121.864 81.8081 121.5 81.9109 121.188 82.1163C120.88 82.3185 120.641 82.5837 120.472 82.9118C120.307 83.2366 120.224 83.5896 120.224 83.9707V84.8408C120.224 85.3512 120.313 85.7854 120.492 86.1433C120.674 86.5013 120.928 86.7747 121.253 86.9636C121.578 87.1493 121.957 87.2421 122.391 87.2421C122.673 87.2421 122.93 87.2023 123.162 87.1227C123.394 87.0399 123.594 86.9172 123.763 86.7548C123.933 86.5924 124.062 86.3919 124.151 86.1533L125.558 86.4068C125.446 86.8211 125.243 87.1841 124.952 87.4956C124.663 87.8038 124.3 88.0441 123.863 88.2165C123.429 88.3855 122.933 88.47 122.376 88.47Z" fill="#606A7B"/>
<defs>
<filter id="filter0_d_244_31005" x="0.835938" y="0.315918" width="332" height="110" filterUnits="userSpaceOnUse" color-interpolation-filters="sRGB">
<feFlood flood-opacity="0" result="BackgroundImageFix"/>
<feColorMatrix in="SourceAlpha" type="matrix" values="0 0 0 0 0 0 0 0 0 0 0 0 0 0 0 0 0 0 127 0" result="hardAlpha"/>
<feMorphology radius="4" operator="erode" in="SourceAlpha" result="effect1_dropShadow_244_31005"/>
<feOffset dy="4"/>
<feGaussianBlur stdDeviation="3"/>
<feColorMatrix type="matrix" values="0 0 0 0 0.0941176 0 0 0 0 0.152941 0 0 0 0 0.294118 0 0 0 0.12 0"/>
<feBlend mode="normal" in2="BackgroundImageFix" result="effect1_dropShadow_244_31005"/>
<feBlend mode="normal" in="SourceGraphic" in2="effect1_dropShadow_244_31005" result="shape"/>
</filter>
</defs>
</svg>
