<svg width="53" height="55" viewBox="0 0 53 55" fill="none" xmlns="http://www.w3.org/2000/svg">
<g filter="url(#filter0_d_19_1553)">
<path d="M21.6665 11.6258V19.5573C21.6665 20.2588 21.7449 20.9214 21.9215 21.5255C22.6476 24.3902 25.0415 26.1831 28.338 26.1831H33.6753L39.6012 30.1002C40.4842 30.7043 41.6615 30.0612 41.6615 29.0088V26.1831C43.663 26.1831 45.3309 25.5205 46.4886 24.3708C47.666 23.2015 48.3331 21.545 48.3331 19.5573V11.6258C48.3331 7.9231 46.0177 5.37021 42.4464 5.03892C42.1913 5.01943 41.9363 4.99994 41.6615 4.99994H28.338C24.3351 4.99994 21.6665 7.65027 21.6665 11.6258Z" fill="#5F7CE7"/>
</g>
<g filter="url(#filter1_d_19_1553)">
<path d="M32.3333 27.6258V35.5573C32.3333 36.2589 32.2548 36.9215 32.0782 37.5256C31.3522 40.3903 28.9583 42.1832 25.6617 42.1832H20.3245L14.3985 46.1002C13.5155 46.7043 12.3382 46.0612 12.3382 45.0089V42.1832C10.3367 42.1832 8.66883 41.5206 7.51112 40.3708C6.33378 39.2015 5.66663 37.5451 5.66663 35.5573V27.6258C5.66663 23.9231 7.98205 21.3702 11.5533 21.0389C11.8084 21.0195 12.0635 21 12.3382 21H25.6617C29.6647 21 32.3333 23.6503 32.3333 27.6258Z" fill="#2EA5FF"/>
</g>
<path d="M16.6399 36.6851H14.3331L17.848 26.5032H20.6222L24.1321 36.6851H21.8253L19.2749 28.8299H19.1953L16.6399 36.6851ZM16.4957 32.6829H21.9446V34.3633H16.4957V32.6829Z" fill="white"/>
<path d="M41.746 12.8591H36.65V14.3851C37.0607 14.0211 37.5553 13.8391 38.134 13.8391C38.9647 13.8391 39.632 14.1004 40.136 14.6231C40.6493 15.1364 40.906 15.7944 40.906 16.5971C40.906 17.4651 40.6167 18.1604 40.038 18.6831C39.4593 19.1964 38.7173 19.4531 37.812 19.4531C37.672 19.4531 37.5647 19.4484 37.49 19.4391V17.8571C37.546 17.8664 37.6207 17.8711 37.714 17.8711C38.0967 17.8711 38.3907 17.7544 38.596 17.5211C38.8107 17.2877 38.918 16.9891 38.918 16.6251C38.918 16.2891 38.82 16.0044 38.624 15.7711C38.428 15.5284 38.1433 15.4071 37.77 15.4071C37.4433 15.4071 37.1727 15.5284 36.958 15.7711C36.7527 16.0044 36.65 16.3171 36.65 16.7091V20.6851H34.662V19.0611C34.2607 19.4157 33.766 19.5931 33.178 19.5931C32.3473 19.5931 31.6753 19.3364 31.162 18.8231C30.658 18.3004 30.406 17.6377 30.406 16.8351C30.406 15.9671 30.6953 15.2764 31.274 14.7631C31.8527 14.2404 32.5947 13.9791 33.5 13.9791C33.6307 13.9791 33.738 13.9837 33.822 13.9931V15.5751C33.766 15.5657 33.6913 15.5611 33.598 15.5611C33.2153 15.5611 32.9167 15.6777 32.702 15.9111C32.4967 16.1444 32.394 16.4431 32.394 16.8071C32.394 17.1431 32.492 17.4324 32.688 17.6751C32.884 17.9084 33.1687 18.0251 33.542 18.0251C33.8687 18.0251 34.1347 17.9084 34.34 17.6751C34.5547 17.4324 34.662 17.1151 34.662 16.7231V12.8591H29.58V11.2911H41.746V12.8591Z" fill="white"/>
<path d="M47.6667 32.5C47.6667 40.885 40.885 47.6667 32.5 47.6667L34.775 43.875" stroke="#B7C3F4" stroke-width="1.5" stroke-linecap="round" stroke-linejoin="round"/>
<path d="M4.33333 19.5C4.33333 11.115 11.115 4.33334 19.5 4.33334L17.225 8.12501" stroke="#B7C3F4" stroke-width="1.5" stroke-linecap="round" stroke-linejoin="round"/>
<defs>
<filter id="filter0_d_19_1553" x="17.6665" y="4.99994" width="34.6667" height="33.3333" filterUnits="userSpaceOnUse" color-interpolation-filters="sRGB">
<feFlood flood-opacity="0" result="BackgroundImageFix"/>
<feColorMatrix in="SourceAlpha" type="matrix" values="0 0 0 0 0 0 0 0 0 0 0 0 0 0 0 0 0 0 127 0" result="hardAlpha"/>
<feOffset dy="4"/>
<feGaussianBlur stdDeviation="2"/>
<feComposite in2="hardAlpha" operator="out"/>
<feColorMatrix type="matrix" values="0 0 0 0 0 0 0 0 0 0 0 0 0 0 0 0 0 0 0.1 0"/>
<feBlend mode="normal" in2="BackgroundImageFix" result="effect1_dropShadow_19_1553"/>
<feBlend mode="normal" in="SourceGraphic" in2="effect1_dropShadow_19_1553" result="shape"/>
</filter>
<filter id="filter1_d_19_1553" x="1.66663" y="21" width="34.6667" height="33.3333" filterUnits="userSpaceOnUse" color-interpolation-filters="sRGB">
<feFlood flood-opacity="0" result="BackgroundImageFix"/>
<feColorMatrix in="SourceAlpha" type="matrix" values="0 0 0 0 0 0 0 0 0 0 0 0 0 0 0 0 0 0 127 0" result="hardAlpha"/>
<feOffset dy="4"/>
<feGaussianBlur stdDeviation="2"/>
<feComposite in2="hardAlpha" operator="out"/>
<feColorMatrix type="matrix" values="0 0 0 0 0 0 0 0 0 0 0 0 0 0 0 0 0 0 0.1 0"/>
<feBlend mode="normal" in2="BackgroundImageFix" result="effect1_dropShadow_19_1553"/>
<feBlend mode="normal" in="SourceGraphic" in2="effect1_dropShadow_19_1553" result="shape"/>
</filter>
</defs>
</svg>
