<svg width="17" height="16" viewBox="0 0 17 16" fill="none" xmlns="http://www.w3.org/2000/svg">
<path d="M8.49967 15.1668C4.54634 15.1668 1.33301 11.9535 1.33301 8.00016C1.33301 4.04683 4.54634 0.833496 8.49967 0.833496C12.453 0.833496 15.6663 4.04683 15.6663 8.00016C15.6663 11.9535 12.453 15.1668 8.49967 15.1668ZM8.49967 1.8335C5.09967 1.8335 2.33301 4.60016 2.33301 8.00016C2.33301 11.4002 5.09967 14.1668 8.49967 14.1668C11.8997 14.1668 14.6663 11.4002 14.6663 8.00016C14.6663 4.60016 11.8997 1.8335 8.49967 1.8335Z" fill="#606A7B"/>
<path d="M10.9731 10.6202C10.8864 10.6202 10.7998 10.6002 10.7198 10.5468L8.6531 9.3135C8.13977 9.00684 7.75977 8.3335 7.75977 7.74017V5.00684C7.75977 4.7335 7.98643 4.50684 8.25977 4.50684C8.5331 4.50684 8.75977 4.7335 8.75977 5.00684V7.74017C8.75977 7.98017 8.95977 8.3335 9.16643 8.4535L11.2331 9.68684C11.4731 9.82684 11.5464 10.1335 11.4064 10.3735C11.3064 10.5335 11.1398 10.6202 10.9731 10.6202Z" fill="#606A7B"/>
</svg>
