<svg width="28" height="28" viewBox="0 0 28 28" fill="none" xmlns="http://www.w3.org/2000/svg">
<circle cx="14" cy="14" r="12" fill="white"/>
<path d="M14.0002 2.33331C7.57183 2.33331 2.3335 7.57165 2.3335 14C2.3335 20.4283 7.57183 25.6666 14.0002 25.6666C20.4285 25.6666 25.6668 20.4283 25.6668 14C25.6668 7.57165 20.4285 2.33331 14.0002 2.33331ZM19.5768 11.3166L12.9618 17.9316C12.7985 18.095 12.5768 18.1883 12.3435 18.1883C12.1102 18.1883 11.8885 18.095 11.7252 17.9316L8.4235 14.63C8.08516 14.2916 8.08516 13.7316 8.4235 13.3933C8.76183 13.055 9.32183 13.055 9.66016 13.3933L12.3435 16.0766L18.3402 10.08C18.6785 9.74165 19.2385 9.74165 19.5768 10.08C19.9152 10.4183 19.9152 10.9666 19.5768 11.3166Z" fill="#28C269"/>
</svg>
