<svg width="360" height="260" viewBox="0 0 360 260" fill="none" xmlns="http://www.w3.org/2000/svg">
<mask id="mask0_295_17359" style="mask-type:alpha" maskUnits="userSpaceOnUse" x="-1" y="0" width="361" height="260">
<rect x="-0.00195312" y="0.752441" width="360" height="259.001" fill="#D9D9D9"/>
</mask>
<g mask="url(#mask0_295_17359)">
<g opacity="0.2">
<path d="M343.985 164.732C344.055 199.368 333.103 233.128 312.713 261.126C296.223 283.831 274.183 301.925 248.701 313.678C223.22 325.43 195.149 330.447 167.174 328.25C139.199 326.053 112.255 316.714 88.921 301.127C65.5868 285.54 46.6424 264.227 33.8998 239.226C21.1572 214.224 15.0427 186.372 16.1414 158.332C17.24 130.292 25.515 103.004 40.1747 79.0761C54.8344 55.1486 75.3884 35.3829 99.8706 21.6696C124.353 7.95632 151.944 0.754291 180.005 0.752441C184.5 0.752441 188.956 0.930811 193.372 1.28755C218.763 3.32734 243.322 11.2925 265.077 24.5434C281.881 34.7656 296.716 47.916 308.881 63.371C331.654 92.2456 344.022 127.957 343.985 164.732Z" fill="#D9E9ED"/>
<path d="M215.42 242.13C213.355 247.642 216.79 247.867 217.026 250.168C217.261 252.469 217.026 256.824 210.369 263.492C203.712 270.159 192.678 268.768 190.388 271.529C188.098 274.29 184.18 285.999 178.669 289.894C173.157 293.79 172.247 291.51 164.435 293.105C156.622 294.699 150.65 304.813 148.382 309.64C146.113 314.466 148.842 322.482 143.33 322.729C137.819 322.975 135.293 311.02 130.241 304.588C125.19 298.156 123.585 292.42 121.979 284.832C120.374 277.244 122.889 261.405 121.979 255.208C121.07 249.012 104.524 237.988 98.5521 230.401C92.5803 222.813 84.3075 207.669 84.7677 202.575C85.4663 197.672 87.9142 193.187 91.6599 189.946C94.4104 187.87 93.2652 186.736 93.7254 184.884C94.1856 183.033 96.4866 182.594 96.9361 180.293C97.3856 177.992 95.5662 171.11 93.2652 169.965C90.9642 168.82 89.3589 172.716 87.989 172.031C86.6192 171.346 82.4774 166.519 80.8614 166.059C79.2453 165.599 79.7162 169.045 77.4152 164.678C75.1143 160.312 73.9798 149.289 72.1391 147.459C70.2983 145.628 68.9284 150.669 64.5619 147.459C60.1954 144.248 58.3546 138.041 56.5245 137.12C54.6945 136.2 52.158 137.345 50.2638 133.674C48.3695 130.003 51.9226 123.336 50.2638 124.042C48.6049 124.748 45.0411 130.014 44.1207 124.952C43.2003 119.89 48.7119 102.905 47.7915 93.7228C46.8712 84.5403 50.0925 74.8869 56.5245 67.085C56.5245 67.085 57.4342 62.0335 58.3546 58.8122C59.275 55.5908 79.0313 42.7589 81.3215 39.0666C82.2847 37.5255 82.6058 35.1175 82.9483 32.5276C111.069 11.8264 145.088 0.689413 180.007 0.75271C184.502 0.75271 188.957 0.93108 193.374 1.28782C193.523 1.50186 193.673 1.70521 193.823 1.89785C195.814 4.42357 197.965 6.0289 203.787 8.18004C209.609 10.3312 210.979 13.071 209.748 15.3719C208.517 17.6729 206.537 18.1224 204.236 18.2829C201.935 18.4435 199.795 17.2127 197.355 18.7431C194.915 20.2735 192.453 28.5356 189.232 28.9958C186.011 29.456 180.36 21.6541 179.129 19.3638C177.898 17.0736 181.89 12.172 180.007 9.87099C178.123 7.57002 174.848 8.03021 169.636 7.57002C164.424 7.10982 152.341 9.11113 152.791 11.1017C153.24 13.0924 170.557 10.7914 170.985 14.7726C171.413 18.7538 158.281 25.4748 156.002 24.8755C153.722 24.2762 150.65 20.2842 147.269 19.824C143.887 19.3638 141.147 22.125 139.028 22.4247C136.909 22.7243 134.415 20.1344 131.194 20.7444C127.972 21.3545 127.213 24.1049 125.532 25.1858C123.852 26.2668 119.86 26.2561 119.411 28.7069C118.961 31.1577 124.462 32.5383 125.832 34.058C127.202 35.5777 124.152 40.7897 125.532 41.8599C126.913 42.9301 135.485 35.4386 137.626 33.5978C139.766 31.757 141.607 23.7946 146.188 23.9658C150.768 24.137 152.32 31.9282 153.84 32.6988C155.359 33.4693 158.741 30.858 163.803 31.9282C168.866 32.9985 172.365 44.0324 173.286 47.3929C174.206 50.7534 176.357 54.1353 174.516 55.5159C172.676 56.8965 164.413 54.5955 163.343 52.4444C162.273 50.2932 168.855 47.0933 168.395 46.3227C167.935 45.5521 164.114 44.4819 162.113 45.6806C160.111 46.8792 159.202 49.3835 157.061 49.9614C154.921 50.5394 149.248 44.1395 147.718 45.9695C146.188 47.7996 149.248 53.6323 150.779 55.0129C152.309 56.3935 157.981 57.1533 158.442 58.6838C158.902 60.2142 154.61 63.5747 149.398 63.275C144.186 62.9753 139.916 58.9941 137.915 60.6744C135.914 62.3546 137.005 66.796 135.625 68.3264C134.244 69.8569 126.742 68.7866 123.071 72.7679C119.4 76.7491 117.72 82.7209 114.038 86.0921C110.357 89.4633 108.687 85.1717 103.775 89.9128C98.8625 94.6539 98.1133 105.228 97.9635 108.899C97.8137 112.569 97.9635 115.48 96.7327 115.02C95.502 114.56 93.8217 111.349 93.3615 109.359C92.9013 107.368 94.4318 104.008 94.4318 102.777C94.4318 101.546 87.379 95.2853 83.2479 94.6646C79.1169 94.0438 75.4353 97.415 72.3852 99.8658C69.3351 102.317 63.8235 101.856 61.8221 103.847C59.8208 105.838 58.2904 123.453 59.8208 127.585C61.3512 131.716 63.3419 131.716 68.2435 129.575C73.1451 127.435 70.3839 123.293 73.2949 124.224C74.602 124.713 75.7281 125.591 76.522 126.739C77.316 127.886 77.7397 129.25 77.7363 130.645C77.7363 133.096 71.925 138.907 72.6849 140.598C73.4447 142.289 78.5069 140.288 80.9577 141.059C83.4085 141.829 84.6285 143.349 83.8687 149.62C83.1088 155.892 83.5583 160.793 87.2292 162.859C90.9 164.925 92.9762 159.873 94.5816 160.569C96.1869 161.264 98.4879 164.925 100.778 164.7C103.068 164.475 101.934 162.399 106.29 161.029C110.646 159.659 109.051 158.728 109.971 155.978C110.892 153.227 113.642 150.915 116.628 152.296C119.614 153.677 117.549 155.742 117.773 158.043C117.998 160.344 123.285 160.569 127.405 161.939C131.526 163.309 133.827 161.939 142.099 164.7C150.372 167.461 150.822 175.723 154.268 177.104C157.714 178.484 169.197 176.183 177.47 182.155C185.743 188.127 183.442 199.15 187.573 202.361C191.704 205.572 207.094 209.949 213.066 211.094C219.038 212.239 219.958 208.108 224.774 209.253C229.59 210.398 232.362 211.779 233.967 218.446C235.433 224.332 217.464 236.619 215.42 242.13Z" fill="#8FA3A5"/>
<path d="M92.0127 124.694C92.1626 125.989 95.994 126.535 100.574 129.136C105.155 131.736 106.846 139.388 109.297 139.238C111.748 139.089 110.988 135.568 111.908 134.647C112.829 133.727 114.348 131.736 111.908 129.746C109.468 127.755 107.071 123.463 102.597 122.853C98.1237 122.243 97.3531 120.403 95.3625 120.563C94.8548 120.569 94.3547 120.687 93.8977 120.908C93.4406 121.129 93.0379 121.448 92.7181 121.842C92.3983 122.237 92.1693 122.697 92.0474 123.19C91.9255 123.683 91.9137 124.196 92.0127 124.694Z" fill="#8FA3A5"/>
<path d="M117.27 137.558C116.596 139.431 117.27 140.768 122.172 141.999C127.074 143.23 131.665 140.768 130.134 139.773C128.604 138.778 126.303 139.238 127.223 137.558C128.144 135.877 127.833 133.416 123.852 133.876C119.871 134.336 117.934 135.835 117.27 137.558Z" fill="#8FA3A5"/>
<path d="M134.428 138.073C132.747 138.319 131.816 141.23 133.507 143.07C135.198 144.911 135.188 144.601 137.178 143.07C139.169 141.54 142.23 140.77 141.459 139.239C140.688 137.709 136.129 137.837 134.428 138.073Z" fill="#8FA3A5"/>
<path d="M147.74 144.333C148.489 142.032 152.331 144.333 154.022 146.741C155.713 149.149 154.942 152.713 154.022 155.303C153.101 157.893 152.491 160.964 150.34 159.744C148.189 158.524 150.501 154.843 150.19 152.702C149.88 150.562 147.13 146.206 147.74 144.333Z" fill="#8FA3A5"/>
<path d="M213.73 16.601C212.927 18.5167 216.641 19.2017 218.781 20.4217C220.922 21.6418 222.612 22.4123 223.833 20.4217C225.053 18.4311 223.383 16.1409 221.692 15.6807C220.001 15.2205 214.5 14.7603 213.73 16.601Z" fill="#8FA3A5"/>
<path d="M242.668 34.5063C244.08 36.0046 246.499 35.737 248.179 37.8775C249.86 40.0179 249.25 43.6995 251.39 44.7697C253.53 45.8399 255.061 44.7697 255.211 43.2393C255.361 41.7089 252.15 37.8882 252.46 37.1176C252.771 36.3471 256.902 38.1878 257.811 40.4781C258.721 42.7684 256.891 45.9898 259.031 46.6105C261.172 47.2312 260.712 44.47 261.632 43.8493C262.552 43.2286 264.543 43.5496 264.393 41.7089C264.243 39.8681 261.782 35.8869 259.802 34.5063C257.822 33.1257 256.27 31.606 252.91 30.8354C249.549 30.0649 246.328 30.6856 244.637 32.0662C242.946 33.4468 241.801 33.5966 242.668 34.5063Z" fill="#8FA3A5"/>
<path d="M308.914 63.3711C308.817 63.9898 308.511 64.5566 308.047 64.9764C304.836 67.2774 301.005 59.315 296.563 57.7846C292.122 56.2541 290.142 50.5927 289.211 51.8127C288.28 53.0328 288.601 54.7237 287.22 56.7143C285.84 58.7049 283.86 58.2448 282.939 62.0654C282.019 65.8861 287.22 72.9282 286 75.2291C284.78 77.5301 283.25 76.7596 280.788 76.6097C278.327 76.4599 278.797 78.6003 275.587 77.68C272.376 76.7596 275.127 72.7783 270.075 68.048C265.024 63.3176 263.333 62.3758 264.414 60.2354C265.495 58.0949 263.954 55.0341 266.244 54.7237C268.534 54.4134 270.386 57.7845 271.916 58.7049C273.446 59.6253 275.437 56.8642 275.587 54.4241C275.737 51.9839 270.236 48.6128 268.234 46.7078C266.233 44.8028 266.094 37.8892 266.865 36.5086C267.635 35.128 269.925 35.5882 270.535 32.2277C270.889 30.2478 267.763 26.9408 265.109 24.5542C281.912 34.7732 296.748 47.9198 308.914 63.3711Z" fill="#8FA3A5"/>
<path d="M331.775 200.64C332.235 195.738 329.795 195.428 332.235 186.395C334.675 177.362 329.635 167.72 327.805 165.729C325.975 163.738 321.983 164.348 318.761 166.339C315.54 168.33 317.852 169.86 315.7 170.62C313.549 171.38 311.42 170.16 309.429 170.31C307.438 170.459 305.598 175.521 301.317 175.361C297.036 175.2 294.275 169.089 291.053 164.723C287.832 160.356 281.25 157.606 279.11 152.244C276.969 146.882 281.1 138.62 280.18 132.338C279.259 126.056 275.128 127.436 274.358 123.915C273.587 120.394 274.979 122.085 276.049 118.714C277.119 115.343 274.818 113.513 276.969 107.691C279.12 101.869 282.941 98.9579 282.021 96.3573C281.1 93.7566 278.189 89.4758 278.039 86.4149C277.89 83.3541 280.95 83.5039 286.762 79.2123C292.573 74.9208 294.114 75.2311 298.534 76.7615C301.718 77.943 304.993 78.8628 308.327 79.512C310.938 79.9722 314.459 86.7146 315.529 86.4042C316.599 86.0939 316.76 84.1139 317.22 81.2029C317.507 79.9369 318.172 78.7876 319.125 77.9067C336.414 105.616 345.04 137.855 343.898 170.496C342.756 203.137 331.898 234.695 312.715 261.128C328.286 237.295 331.315 205.541 331.775 200.64Z" fill="#8FA3A5"/>
<path opacity="0.1" d="M307.041 268.425C289.547 289.863 266.913 306.525 241.247 316.861C215.58 327.197 187.715 330.871 160.247 327.54C132.779 324.209 106.6 313.982 84.1475 297.811C61.6952 281.64 43.6996 260.051 31.8361 235.054C19.9727 210.057 14.6271 182.464 16.297 154.845C17.967 127.226 26.5982 100.478 41.3871 77.0925C56.176 53.7068 76.6417 34.4433 100.879 21.0954C125.116 7.74756 152.337 0.749394 180.006 0.752442C184.501 0.752442 188.957 0.930813 193.373 1.28755C194.593 1.38387 195.813 1.49089 197.023 1.63002C173.846 4.15288 151.575 12.0339 131.971 24.6497C112.366 37.2655 95.966 54.27 84.0676 74.3181C72.1692 94.3662 65.0989 116.908 63.4161 140.16C61.7332 163.412 65.4839 186.737 74.3715 208.29C83.2591 229.842 97.0398 249.031 114.624 264.338C132.207 279.645 153.111 290.651 175.683 296.485C198.254 302.319 221.873 302.82 244.672 297.95C267.471 293.08 288.823 282.972 307.041 268.425Z" fill="#8FA3A5"/>
<path opacity="0.3" d="M343.985 164.732C344.056 199.368 333.104 233.128 312.713 261.126C297.337 282.244 277.162 299.403 253.851 311.191C274.172 299.575 291.8 283.785 305.575 264.861C324.878 238.283 335.809 206.548 336.968 173.72C338.128 140.892 329.462 108.465 312.082 80.5909C308.922 75.5248 305.485 70.6371 301.786 65.9503C289.554 50.4098 274.639 37.1838 257.747 26.8979C235.847 13.5674 211.127 5.55824 185.571 3.51363C181.151 3.14975 176.656 2.96781 172.14 2.96781C158.795 2.95806 145.499 4.56803 132.542 7.7624C147.933 3.10791 163.926 0.745908 180.006 0.752455C184.501 0.752455 188.957 0.930825 193.373 1.28757C234.419 4.63219 272.701 23.3033 300.608 53.5875C328.515 83.8717 344 123.55 343.985 164.732Z" fill="white"/>
</g>
</g>
</svg>
