<svg width="44" height="44" viewBox="0 0 44 44" fill="none" xmlns="http://www.w3.org/2000/svg">
<rect width="44" height="44" rx="5.5" fill="#ECF3F5"/>
<path opacity="0.4" d="M29.7916 19.3408H27.1425C24.97 19.3408 23.2008 17.5716 23.2008 15.3991V12.7499C23.2008 12.2458 22.7883 11.8333 22.2841 11.8333H18.3975C15.5741 11.8333 13.2916 13.6666 13.2916 16.9391V25.0608C13.2916 28.3333 15.5741 30.1666 18.3975 30.1666H25.6025C28.4258 30.1666 30.7083 28.3333 30.7083 25.0608V20.2574C30.7083 19.7533 30.2958 19.3408 29.7916 19.3408Z" fill="#1F2D3D"/>
<path d="M25.4833 12.0258C25.1075 11.65 24.4567 11.9066 24.4567 12.4291V15.6283C24.4567 16.9666 25.5933 18.0758 26.9775 18.0758C27.8483 18.085 29.0583 18.085 30.0942 18.085C30.6167 18.085 30.8917 17.4708 30.525 17.1041C29.205 15.775 26.84 13.3825 25.4833 12.0258Z" fill="#1F2D3D"/>
<path d="M23.375 22.6042H17.875C17.4992 22.6042 17.1875 22.2926 17.1875 21.9167C17.1875 21.5409 17.4992 21.2292 17.875 21.2292H23.375C23.7508 21.2292 24.0625 21.5409 24.0625 21.9167C24.0625 22.2926 23.7508 22.6042 23.375 22.6042Z" fill="#1F2D3D"/>
<path d="M21.5417 26.2708H17.875C17.4992 26.2708 17.1875 25.9591 17.1875 25.5833C17.1875 25.2074 17.4992 24.8958 17.875 24.8958H21.5417C21.9175 24.8958 22.2292 25.2074 22.2292 25.5833C22.2292 25.9591 21.9175 26.2708 21.5417 26.2708Z" fill="#1F2D3D"/>
</svg>
