<svg width="20" height="20" viewBox="0 0 20 20" fill="none" xmlns="http://www.w3.org/2000/svg">
<path d="M15.017 10.2748L14.0003 9.25817C13.7587 9.04984 13.617 8.7415 13.6087 8.39984C13.592 8.02484 13.742 7.64984 14.017 7.37484L15.017 6.37484C15.8837 5.50817 16.2087 4.67484 15.9337 4.0165C15.667 3.3665 14.842 3.00817 13.6253 3.00817H4.91699V2.2915C4.91699 1.94984 4.63366 1.6665 4.29199 1.6665C3.95033 1.6665 3.66699 1.94984 3.66699 2.2915V17.7082C3.66699 18.0498 3.95033 18.3332 4.29199 18.3332C4.63366 18.3332 4.91699 18.0498 4.91699 17.7082V13.6415H13.6253C14.8253 13.6415 15.6337 13.2748 15.9087 12.6165C16.1837 11.9582 15.867 11.1332 15.017 10.2748Z" fill="#3C4858"/>
</svg>
