<svg width="16" height="16" viewBox="0 0 16 16" fill="none" xmlns="http://www.w3.org/2000/svg">
<path d="M6.21394 8.85331H8.27394V13.6533C8.27394 14.36 9.15394 14.6933 9.62061 14.16L14.6673 8.42665C15.1073 7.92665 14.7539 7.14665 14.0873 7.14665H12.0273V2.34665C12.0273 1.63998 11.1473 1.30665 10.6806 1.83998L5.63394 7.57331C5.20061 8.07331 5.55394 8.85331 6.21394 8.85331Z" fill="#DC6803"/>
<path d="M5.66667 3.16675H1C0.726667 3.16675 0.5 2.94008 0.5 2.66675C0.5 2.39341 0.726667 2.16675 1 2.16675H5.66667C5.94 2.16675 6.16667 2.39341 6.16667 2.66675C6.16667 2.94008 5.94 3.16675 5.66667 3.16675Z" fill="#DC6803"/>
<path d="M5 13.8333H1C0.726667 13.8333 0.5 13.6066 0.5 13.3333C0.5 13.0599 0.726667 12.8333 1 12.8333H5C5.27333 12.8333 5.5 13.0599 5.5 13.3333C5.5 13.6066 5.27333 13.8333 5 13.8333Z" fill="#DC6803"/>
<path d="M3 8.5H1C0.726667 8.5 0.5 8.27333 0.5 8C0.5 7.72667 0.726667 7.5 1 7.5H3C3.27333 7.5 3.5 7.72667 3.5 8C3.5 8.27333 3.27333 8.5 3 8.5Z" fill="#DC6803"/>
</svg>
