<svg width="44" height="45" viewBox="0 0 44 45" fill="none" xmlns="http://www.w3.org/2000/svg">
<path d="M4.72997 35.5397L4.6933 35.5763C4.1983 34.4947 3.88663 33.2663 3.7583 31.9097C3.88663 33.248 4.23497 34.458 4.72997 35.5397Z" fill="#2EA5FF"/>
<path d="M16.5001 19.7179C18.9099 19.7179 20.8634 17.7643 20.8634 15.3545C20.8634 12.9447 18.9099 10.9912 16.5001 10.9912C14.0902 10.9912 12.1367 12.9447 12.1367 15.3545C12.1367 17.7643 14.0902 19.7179 16.5001 19.7179Z" fill="#2EA5FF"/>
<path d="M29.6817 4.35449H14.3184C7.64508 4.35449 3.66675 8.33282 3.66675 15.0062V30.3695C3.66675 32.3678 4.01508 34.1095 4.69341 35.5762C6.27008 39.0595 9.64341 41.0212 14.3184 41.0212H29.6817C36.3551 41.0212 40.3334 37.0428 40.3334 30.3695V26.1712V15.0062C40.3334 8.33282 36.3551 4.35449 29.6817 4.35449ZM37.3451 23.6045C35.9151 22.3762 33.6051 22.3762 32.1751 23.6045L24.5484 30.1495C23.1184 31.3778 20.8084 31.3778 19.3784 30.1495L18.7551 29.6362C17.4534 28.4995 15.3817 28.3895 13.9151 29.3795L7.05841 33.9812C6.65508 32.9545 6.41675 31.7628 6.41675 30.3695V15.0062C6.41675 9.83616 9.14841 7.10449 14.3184 7.10449H29.6817C34.8517 7.10449 37.5834 9.83616 37.5834 15.0062V23.8062L37.3451 23.6045Z" fill="#2EA5FF"/>
</svg>
