<svg width="44" height="45" viewBox="0 0 44 45" fill="none" xmlns="http://www.w3.org/2000/svg">
<g clip-path="url(#clip0_244_32544)">
<path d="M37.8038 16.0035C35.8788 7.53355 28.4904 3.72021 22.0004 3.72021C22.0004 3.72021 22.0004 3.72021 21.9821 3.72021C15.5104 3.72021 8.10375 7.51521 6.17875 15.9852C4.03375 25.4452 9.82709 33.4569 15.0704 38.4986C17.0138 40.3685 19.5071 41.3036 22.0004 41.3036C24.4938 41.3036 26.9871 40.3685 28.9121 38.4986C34.1554 33.4569 39.9488 25.4635 37.8038 16.0035ZM22.0004 25.1886C18.8104 25.1886 16.2254 22.6035 16.2254 19.4136C16.2254 16.2235 18.8104 13.6385 22.0004 13.6385C25.1904 13.6385 27.7754 16.2235 27.7754 19.4136C27.7754 22.6035 25.1904 25.1886 22.0004 25.1886Z" fill="#2EA5FF"/>
</g>
<defs>
<clipPath id="clip0_244_32544">
<rect width="44" height="44" fill="white" transform="translate(0.000488281 0.511719)"/>
</clipPath>
</defs>
</svg>
