<svg width="14" height="15" viewBox="0 0 14 15" fill="none" xmlns="http://www.w3.org/2000/svg">
<path d="M11.867 2.64162L11.7503 2.58328L10.617 1.93328L8.26699 0.574951C7.55033 0.158285 6.45033 0.158285 5.73366 0.574951L3.38366 1.92495L2.25033 2.59162L2.10033 2.66662C0.641992 3.64995 0.541992 3.83328 0.541992 5.40829V9.17495C0.541992 10.75 0.641992 10.9333 2.13366 11.9416L5.73366 14.0166C6.09199 14.2333 6.54199 14.325 7.00033 14.325C7.45033 14.325 7.90866 14.225 8.26699 14.0166L11.9003 11.9166C13.367 10.9333 13.4587 10.7583 13.4587 9.17495V5.40829C13.4587 3.83328 13.3587 3.64995 11.867 2.64162ZM9.32533 7.24995L8.81699 7.87495C8.73366 7.96662 8.67533 8.14162 8.68366 8.26662L8.73366 9.06662C8.76699 9.55829 8.41699 9.80829 7.95866 9.63329L7.21699 9.33329C7.10033 9.29162 6.90866 9.29162 6.79199 9.33329L6.05033 9.62495C5.59199 9.80829 5.24199 9.54995 5.27533 9.05828L5.32533 8.25829C5.33366 8.13329 5.27533 7.95828 5.19199 7.86662L4.67533 7.24995C4.35866 6.87495 4.50033 6.45828 4.97533 6.33328L5.75033 6.13329C5.87533 6.09995 6.01699 5.98328 6.08366 5.88328L6.51699 5.21662C6.78366 4.79995 7.20866 4.79995 7.48366 5.21662L7.91699 5.88328C7.98366 5.99162 8.13366 6.09995 8.25033 6.13329L9.02533 6.33328C9.50033 6.45828 9.64199 6.87495 9.32533 7.24995Z" fill="#3C4858"/>
</svg>
