<svg xmlns="http://www.w3.org/2000/svg" width="127" height="123.629" viewBox="0 0 127 123.629">
    <defs>
        <style>
            .cls-1{fill:#ddebef}.cls-2{fill:#97b2b8}.cls-3{fill:#fff}.cls-7{fill:#a8cc43}.cls-8{fill:#f4b9b2}.cls-9{fill:#ff9783}.cls-10{fill:#ffc7c0}.cls-11{fill:#5c5eb7}
        </style>
    </defs>
    <g id="Group_17948" transform="translate(-110 -269.738)">
        <g id="Error" transform="translate(110.142 331.484)">
            <path id="Fill" d="M126.482 6.807A6.81 6.81 0 0 0 119.675 0H6.807A6.81 6.81 0 0 0 0 6.807v48.269a6.81 6.81 0 0 0 6.807 6.807h112.868a6.81 6.81 0 0 0 6.807-6.807z" class="cls-1"/>
            <path id="Rectangle" d="M2.537 0h84.58c1.4 0 2.537.636 2.537 1.421v3.158C89.655 5.364 88.519 6 87.118 6H2.537C1.136 6 0 5.364 0 4.579V1.421C0 .636 1.136 0 2.537 0z" class="cls-2" transform="translate(19.957 23.943)"/>
            <path id="Rectangle-2" d="M2.165 0h72.17C75.53 0 76.5.636 76.5 1.421v3.158C76.5 5.364 75.53 6 74.335 6H2.165C.969 6 0 5.364 0 4.579V1.421C0 .636.969 0 2.165 0z" class="cls-2" transform="translate(19.957 34.943)"/>
            <path id="Rectangle-3" d="M1.443 0h44.264c.8 0 1.443.343 1.443.766v4.468c0 .423-.646.766-1.443.766H1.443C.646 6 0 5.657 0 5.234V.766C0 .343.646 0 1.443 0z" class="cls-2" transform="translate(19.957 46.166)"/>
            <path id="Rectangle_8755" d="M0 0H127V2H0z" class="cls-3" transform="translate(-.142 11.516)"/>
        </g>
        <g id="_5._Illustrations_1._Characters_Thinking" transform="translate(168.207 269.738)">
            <g id="Character">
                <path id="Fill-2" fill="#f85843" d="M3.165 0s11.222 17.234 13.593 30.1c0 0-.427 3.517-3.866 1.533C6.408 27.893 2.476 22.567.224 11.866A15.97 15.97 0 0 1 3.165 0z" transform="translate(34.981 19.56)"/>
                <path id="Fill-3" fill="#ff6554" d="M.041 40c5.412 4.622 23.861 3.04 29.1-5.19 0 0-5.509-15.348.22-31.078 0 0-4.318-5.014-15.075-3.421C14.29.313-.886 19.768.041 40z" transform="translate(9.025 16.231)"/>
                <g id="Cup" transform="translate(27.436 29.219)">
                    <path id="Fill-4" d="M6.907 13.718a.658.658 0 0 0 .064-.072L9.417.053 4.787 0H4.63L0 .053l2.4 13.361v.01a.562.562 0 0 0 .038.2v.019l.01.013a2.525 2.525 0 0 0 2.252.874 2.654 2.654 0 0 0 2.207-.812z" class="cls-1" transform="translate(2.217 6.209)"/>
                    <path id="Fill-5" fill="#ffeb8f" d="M4.693 0C2.1 0 0 .512 0 1.143s2.1 1.142 4.693 1.142 4.694-.512 4.694-1.142S7.284 0 4.693 0z" transform="translate(2.223 5.185)"/>
                    <path id="Fill-6" d="M6.544 6.38h.887L5.179.274A.44.44 0 0 0 4.791 0H.075C.044.005.02.009 0 .014v.819l.042.009a.385.385 0 0 0 .066.006H4.5z" class="cls-7"/>
                    <path id="Fill-7" d="M2.525 0A2.525 2.525 0 1 1 0 2.525 2.526 2.526 0 0 1 2.525 0z" class="cls-3" transform="translate(4.439 8.735)"/>
                </g>
                <path id="Fill-8" d="M14.845 2.172c.355-.159.746-.347.889-.228.847.7-.629 1.932-.629 1.932 1.064-.249.7 1.146-.1 1.8C9.358 10.207 0 9.476 0 9.476l.009-4.794C6.865 4.824 15.67 0 15.67 0a1.6 1.6 0 0 1-.825 2.172z" class="cls-8" transform="translate(22.219 42.171)"/>
                <path id="Fill-9" d="M23.316 0a15.931 15.931 0 0 1-2.793 14.49c-.359.463-8.225 7.771-11.229 12.376 4.115 2.8 11.991 3.564 17.057 2.556 1.1 1.161.9 5.173-.267 5.837 0 0-19.4 4.051-25.154-3.551C-4.214 24.916 13.208 3.873 23.316 0z" class="cls-9" transform="translate(0 16.596)"/>
                <path id="Fill-10" d="M9.994 0A50.76 50.76 0 0 0 0 11.573s.226 3.778 5.279 3.878a4.842 4.842 0 0 0 4.17-2.676s.672-5.646 4.433-9.1z" class="cls-8" transform="translate(26.353 5.698)"/>
                <path id="Fill-11" d="M0 0a16.111 16.111 0 0 0 .537 3.47l2.639-.281a12.657 12.657 0 0 1-.415-2.8z" class="cls-8" transform="translate(41.659 24.248)"/>
                <path id="Fill-12" d="M.193 0s3.659 2.939 7.06.176a23.792 23.792 0 0 0 3.514 11.69S9.636 17 3.315 14.16c0 0-4.26-4.815-3.122-14.16z" class="cls-10" transform="translate(35.427 3.081)"/>
                <path id="Combined_Shape" d="M0 9.631a27.68 27.68 0 0 0 2.408-8.4c-.02-.067-.028-.1-.028-.1 6.837-3.112 10.594 1.19 10.594 1.19C13 5.246 8.917 6.216 5.568 4.778a5.54 5.54 0 0 1-.932-.51A8.986 8.986 0 0 1 1 10.5a.7.7 0 0 1-.1.006.886.886 0 0 1-.9-.875z" class="cls-11" transform="translate(30.721)"/>
                <path id="Fill-13" d="M.061 2.664S-.664-.768 2.877.159a3.264 3.264 0 0 0-.136 2.447 2.494 2.494 0 0 1-2.68.058z" class="cls-8" transform="translate(41.648 22.332)"/>
                <path id="Fill-14" d="M5.293 5.3S6.715 1 7.384 1.056 6.7 5.611 6.7 5.611l.216-.027S8.679-.174 9.523 0 8.1 7.2 8.1 7.2 3.524 9 .345 7.745a1.694 1.694 0 0 1 .372-2.388A37.208 37.208 0 0 0 5.293 5.3z" class="cls-8" transform="translate(43.808 17.134)"/>
                <path id="Fill-15" d="M.7 12.8A21.65 21.65 0 0 1 1.293 0l1.625.5S.97 7.509 4.147 11.554a6.071 6.071 0 0 0 7.936-2.343 13.125 13.125 0 0 1 2.45 5.12 5.215 5.215 0 0 1-1.283 4.5A4.982 4.982 0 0 1 8.92 20.4C4.2 19.769 1.279 15.176.7 12.8z" class="cls-11" transform="translate(33.338 3.402)"/>
                <path id="Fill-16" d="M1.035.077L7.237 0l11.939 5.582a2.043 2.043 0 0 1-.31 2.481L1.035 6.822a5.36 5.36 0 0 1-1.03-2.839A7.486 7.486 0 0 1 1.035.077z" class="cls-3" transform="translate(31.792 99.979)"/>
                <path id="Fill-17" d="M.086 2.164L5.4 0l12.182.773a1.891 1.891 0 0 1 .572 2.243L2.367 7.977a4.961 4.961 0 0 1-1.847-2.1 6.93 6.93 0 0 1-.434-3.713z" class="cls-3" transform="translate(48.78 96.053)"/>
                <path id="Fill-18" d="M.133.384A2.917 2.917 0 0 0 3.318 0S15.748 23.523 8.8 25.713c0 0-5.715.872-8.111-11.248C-.407 8.919.133.384.133.384z" class="cls-9" transform="translate(41.267 25.243)"/>
                <path id="Fill-19" d="M37.448.182C18.947-.821 9.2 2.5 3.778 5.68 1.259 7.156.039 8.415.014 8.835c-.175 2.867 1.2 8.021 7.428 8.549 9.465.8 20.478-5.5 20.478-5.5s-5.82 15.908-4.528 37.775c1.913.533 3.2.265 5.158-1.666l11.117-39.3s2.46-6.105-2.219-8.511z" class="cls-7" transform="translate(25.728 48.706)"/>
                <path id="Fill-20" fill="#d9f58a" d="M38.946.106C22.664-.96.814 6.28.077 10.026c-.555 2.816 1.864 8.4 8.258 8.917 10.548.852 20.338-5.949 20.338-5.949s-6.865 15.93-5.9 39.432c0 0 1.234 2.71 4.791.416C30.86 36.918 36.5 23 41.553 8.867c.986-3.367 1.413-6.759-2.607-8.761z" transform="translate(10.634 47.38)"/>
                <path id="Fill-21" d="M2.391.343a1.575 1.575 0 0 1 .646 2.106 1.575 1.575 0 0 1-2.194.2A1.575 1.575 0 0 1 .2.542 1.575 1.575 0 0 1 2.391.343z" class="cls-10" transform="translate(33.355 8.066)"/>
            </g>
        </g>
    </g>
</svg>
