<svg xmlns="http://www.w3.org/2000/svg" width="16" height="16" viewBox="0 0 16 16">
    <defs>
        <style>
            .cls-1{fill:#1f2d3d}
        </style>
    </defs>
    <path id="ic_afternoon" d="M8 0a.63.63 0 0 0-.667.667v.667a.667.667 0 0 0 1.333 0V.667A.63.63 0 0 0 8 0zM2.8 2.133a.658.658 0 0 0-.466.2.645.645 0 0 0 0 .934l.466.466a.66.66 0 0 0 .933-.933l-.466-.466a.66.66 0 0 0-.467-.201zm10.4 0a.66.66 0 0 0-.467.2l-.466.466a.66.66 0 0 0 .934.934l.466-.466a.645.645 0 0 0 0-.934.658.658 0 0 0-.467-.2zM8 3.333A4.667 4.667 0 1 0 12.667 8 4.667 4.667 0 0 0 8 3.333zm-7.333 4a.667.667 0 0 0 0 1.333h.667a.667.667 0 0 0 0-1.333zm14 0a.667.667 0 1 0 0 1.333h.667a.667.667 0 0 0 0-1.333zm-11.4 4.733a.66.66 0 0 0-.467.2l-.466.466a.66.66 0 0 0 .934.934l.466-.466a.645.645 0 0 0 0-.934.658.658 0 0 0-.467-.2zm9.466 0a.658.658 0 0 0-.466.2.645.645 0 0 0 0 .934l.466.466a.66.66 0 0 0 .934-.934l-.466-.466a.66.66 0 0 0-.468-.2zM8 14a.63.63 0 0 0-.667.667v.667a.667.667 0 0 0 1.333 0v-.667A.63.63 0 0 0 8 14z" class="cls-1"/>
</svg>
