<svg xmlns="http://www.w3.org/2000/svg" width="45.622" height="45.523" viewBox="0 0 45.622 45.523">
    <defs>
        <style>
            .cls-1{fill:#fff;stroke:#0238da;stroke-width:.4px}
        </style>
    </defs>
    <g id="awign_logo" transform="translate(-78.769 -37.807)">
        <g id="Group" transform="translate(78.982 38.009)">
            <path id="Fill-3" d="M21.172.814l-21 41.937A1.563 1.563 0 0 0 1.368 45c.056 0 .135.015.242.023a18.47 18.47 0 0 0 7.125-1.318 45.411 45.411 0 0 0 14.876-9.585c4.937-4.52 8.012-7.461 9.586-9.135a10.4 10.4 0 0 0 1.257-1.509 1.628 1.628 0 0 0-1.613-2.552 1.677 1.677 0 0 0-.277.076 1.6 1.6 0 0 0-.2.084 1.56 1.56 0 0 0-.835 1.095q-.214.254-.6.662c-1.511 1.6-4.54 4.5-9.416 8.973a42.344 42.344 0 0 1-13.83 8.953 20.844 20.844 0 0 1-3.512.951L23.96 2.214a1.56 1.56 0 1 0-2.787-1.4z" class="cls-1" transform="translate(-.001 .093)"/>
            <path id="Fill-4" d="M11.506.166a1.563 1.563 0 0 0-.7 2.1L30.6 41.767a20.823 20.823 0 0 1-3.509-.952 42.339 42.339 0 0 1-13.828-8.953c-4.886-4.468-7.914-7.38-9.416-8.972q-.387-.41-.6-.662a1.56 1.56 0 0 0-.847-1.109 1.745 1.745 0 0 0-.2-.084 1.7 1.7 0 0 0-.277-.076 1.628 1.628 0 0 0-1.611 2.552 10.345 10.345 0 0 0 1.257 1.509c1.578 1.672 4.652 4.616 9.589 9.135a45.408 45.408 0 0 0 14.876 9.587 18.474 18.474 0 0 0 7.125 1.318 1.585 1.585 0 0 0 .242-.023 1.563 1.563 0 0 0 1.2-2.252L13.6.86a1.557 1.557 0 0 0-2.094-.7z" class="cls-1" transform="translate(10.428 .048)"/>
        </g>
    </g>
</svg>
