<svg xmlns="http://www.w3.org/2000/svg" width="16.853" height="15.331" viewBox="0 0 16.853 15.331">
    <path fill="#9cafb1" d="M4.3 3a.766.766 0 0 0-.766.766v8.426h-.768a.766.766 0 0 0-.766.766v1.532a2.3 2.3 0 0 0 2.3 2.3h5.745a.766.766 0 0 0 .766-.766v-.385a.92.92 0 0 1 .269-.651l.863-.863a.565.565 0 0 0 0-.8l-.967-.967a.567.567 0 0 0-.4-.166H5.064v-7.66h9.958v2.3a.766.766 0 1 0 1.532 0V3.766A.766.766 0 0 0 15.788 3zm2.679 3.064a.383.383 0 0 0-.383.383v.766a.383.383 0 0 0 .383.383h.766a.383.383 0 0 0 .383-.383v-.766a.383.383 0 0 0-.383-.383zm3.064 0a.383.383 0 0 0-.383.383v.766a.383.383 0 0 0 .383.383h3.064a.383.383 0 0 0 .383-.383v-.766a.383.383 0 0 0-.383-.383zm3.435 3.054a.766.766 0 0 0-.111.01h-.643a.766.766 0 1 0 0 1.532v.648a1.977 1.977 0 0 0 .578 1.4l1.019 1.019-1.021 1.016a1.977 1.977 0 0 0-.578 1.4v.648a.766.766 0 1 0 0 1.532h.637a.766.766 0 0 0 .25 0h3.58a.766.766 0 0 0 .25 0h.645a.766.766 0 1 0 0-1.532v-.648a1.976 1.976 0 0 0-.579-1.4l-1.019-1.019 1.019-1.019a1.976 1.976 0 0 0 .579-1.4v-.645a.766.766 0 1 0 0-1.532h-.637a.766.766 0 0 0-.25 0h-3.588a.766.766 0 0 0-.131-.01zm-6.5.01a.383.383 0 0 0-.383.383v.766a.383.383 0 0 0 .383.383h.766a.383.383 0 0 0 .383-.383v-.766a.383.383 0 0 0-.383-.383zm7.277 1.532h2.3v.648a.446.446 0 0 1-.13.314l-1.019 1.019-1.017-1.017a.448.448 0 0 1-.13-.314zm1.149 4.147l1.019 1.019a.446.446 0 0 1 .13.314v.648h-2.3v-.648a.448.448 0 0 1 .13-.314z" transform="translate(-2 -3)"/>
</svg>
