<svg id="vector" xmlns="http://www.w3.org/2000/svg" width="24" height="24"
    viewBox="0 0 18.865 19.532">
    <path fill="#0038da"
        d="M3.773,19.533a2.83,2.83 0,1 1,2.669 -3.774h8.179a2.358,2.358 0,1 0,0 -4.716L4.245,11.043a4.245,4.245 0,1 1,0 -8.49h2.911l-1.22,-1.22L7.27,0l3.5,3.5L7.27,7 5.936,5.66l1.22,-1.22L4.245,4.44a2.358,2.358 0,1 0,0 4.717h10.376a4.245,4.245 0,1 1,0 8.49L6.442,17.647a2.834,2.834 0,0 1,-2.669 1.886zM3.773,15.759a0.944,0.944 0,1 0,0.944 0.944,0.945 0.945,0 0,0 -0.944,-0.944zM15.093,6.326a2.83,2.83 0,1 1,2.83 -2.83,2.833 2.833,0 0,1 -2.83,2.83zM15.093,2.553a0.943,0.943 0,1 0,0.943 0.943,0.944 0.944,0 0,0 -0.943,-0.942z"
        id="path_0" />
</svg>