<svg id="vector" xmlns="http://www.w3.org/2000/svg" width="24" height="24"
    viewBox="0 0 17.494 17.49">
    <path fill="#0038da"
        d="M8.46,16.383a16.452,16.452 0,0 1,-4.248 -3.1A14.851,14.851 0,0 1,0.29 6.893c-0.592,-2.205 -0.272,-4.066 0.9,-5.24 0.438,-0.445 0.582,-0.589 1.014,-1.015A2.335,2.335 0,0 1,3.843 0a2.256,2.256 0,0 1,1.6 0.638,27.876 27.876,0 0,1 2.41,3.083c0.455,0.5 0.42,1.118 -0.1,1.822a4.714,4.714 0,0 1,-0.381 0.445,10.2 10.2,0 0,1 -0.245,0.249l-0.671,0.671a5.936,5.936 0,0 0,1.673 2.451,6.566 6.566,0 0,0 2.419,1.685 0.043,0.043 0,0 0,0.031 -0.009l0.671,-0.671a5.057,5.057 0,0 1,0.833 -0.724,1.685 1.685,0 0,1 0.911,-0.314 1.132,1.132 0,0 1,0.769 0.308,26.05 26.05,0 0,1 3.091,2.419 2.362,2.362 0,0 1,0.006 3.22c-0.272,0.286 -0.615,0.63 -1.022,1.022a4.4,4.4 0,0 1,-3.2 1.2,9.617 9.617,0 0,1 -4.178,-1.112zM3.433,1.883c-0.426,0.419 -0.566,0.56 -1,1 -0.767,0.767 -0.895,2.188 -0.353,3.9a13.523,13.523 0,0 0,3.369 5.257c2.245,2.247 5.062,3.7 7.177,3.7a2.735,2.735 0,0 0,1.986 -0.693c0.4,-0.385 0.727,-0.714 0.977,-0.977a0.623,0.623 0,0 0,0 -0.8,24.5 24.5,0 0,0 -2.666,-2.079 5.923,5.923 0,0 0,-0.442 0.414l-0.67,0.671a1.636,1.636 0,0 1,-1.2 0.49c-1.007,0 -2.33,-0.77 -3.725,-2.166a8.473,8.473 0,0 1,-1.949 -2.732,1.913 1.913,0 0,1 0.281,-2.2L5.887,5l0.216,-0.219a4.37,4.37 0,0 0,0.2 -0.224,26.272 26.272,0 0,0 -2.087,-2.674 0.544,0.544 0,0 0,-0.382 -0.13,0.6 0.6,0 0,0 -0.401,0.13zM9.88,6.378l4.628,-4.628h-3.135L11.373,0h6.121v6.122h-1.75L15.744,2.987l-4.628,4.628z"
        id="path_0" />
</svg>