<svg xmlns="http://www.w3.org/2000/svg" width="63" height="46.47" viewBox="0 0 63 46.47">
    <defs>
        <style>
            .cls-1{fill:#b7c2cc}.cls-2{fill:#f1f1f1}.cls-7{fill:#c5ced6}
        </style>
    </defs>
    <g id="ic_congrats">
        <g id="Group_14790" transform="translate(0 11.483)">
            <path id="Path_70138" d="M443.286-681.093a8.355 8.355 0 0 1-5.375 6.349 8.355 8.355 0 0 1 5.375 6.349 8.355 8.355 0 0 1 5.375-6.349 8.355 8.355 0 0 1-5.375-6.349z" class="cls-1" transform="translate(-437.911 681.093)"/>
            <path id="Path_70139" d="M443.286-681.093a8.355 8.355 0 0 1-5.375 6.349s5.713.792 5.375-6.349z" class="cls-2" transform="translate(-437.911 681.093)"/>
        </g>
        <g id="Group_14791" transform="translate(14.146 17.683)">
            <path id="Path_70186" fill="#ffcb26" d="M777.976-229.7c0-7.95 6.81-14.395 15.211-14.395S808.4-237.647 808.4-229.7s-6.81 14.393-15.211 14.393-15.213-6.441-15.213-14.393z" transform="translate(-777.976 244.091)"/>
            <path id="Path_70187" fill="#f9bf20" d="M812.162-231.6a13.773 13.773 0 0 1 2.393 7.753c0 7.949-6.81 14.393-15.211 14.393a15.785 15.785 0 0 1-7.958-2.124 15.42 15.42 0 0 0 12.818 6.64c8.4 0 15.211-6.444 15.211-14.394a14.238 14.238 0 0 0-7.253-12.268z" transform="translate(-788.993 233.713)"/>
            <path id="Path_70188" fill="#ffd95e" d="M784.721-222.947c0-7.381 6.323-13.364 14.122-13.364a14.388 14.388 0 0 1 11.195 5.218 14.275 14.275 0 0 0-12.246-6.7c-7.8 0-14.123 5.983-14.123 13.364a12.85 12.85 0 0 0 2.928 8.146 12.757 12.757 0 0 1-1.876-6.664z" transform="translate(-782.654 238.86)"/>
            <path id="Path_70189" fill="#fff" d="M828.974-204.133a.7.7 0 0 0-.575-.458l-5.7-.784-2.547-4.883a.713.713 0 0 0-.639-.376.713.713 0 0 0-.639.376l-2.547 4.883-5.695.784a.7.7 0 0 0-.576.458.647.647 0 0 0 .18.692l4.121 3.8-.973 5.367a.655.655 0 0 0 .284.66.742.742 0 0 0 .75.051l5.094-2.533 5.094 2.533a.745.745 0 0 0 .332.078.734.734 0 0 0 .418-.128.655.655 0 0 0 .284-.66l-.973-5.367 4.121-3.8a.647.647 0 0 0 .186-.693z" transform="translate(-804.306 216.283)"/>
        </g>
        <g id="Group_14793" transform="translate(48.165)">
            <path id="Path_70138-2" d="M445.329-681.093a11.531 11.531 0 0 1-7.418 8.762 11.53 11.53 0 0 1 7.418 8.762 11.53 11.53 0 0 1 7.418-8.762 11.531 11.531 0 0 1-7.418-8.762z" class="cls-7" transform="translate(-437.911 681.093)"/>
            <path id="Path_70139-2" d="M445.329-681.093a11.531 11.531 0 0 1-7.418 8.762s7.889 1.092 7.418-8.762z" class="cls-2" transform="translate(-437.911 681.093)"/>
        </g>
        <g id="Group_14794" transform="translate(46.541 32.262)">
            <path id="Path_70138-3" d="M440.868-681.093a4.6 4.6 0 0 1-2.957 3.493 4.6 4.6 0 0 1 2.957 3.492 4.6 4.6 0 0 1 2.957-3.492 4.6 4.6 0 0 1-2.957-3.493z" class="cls-7" transform="translate(-437.911 681.093)"/>
            <path id="Path_70139-3" d="M440.868-681.093a4.6 4.6 0 0 1-2.957 3.493s3.143.435 2.957-3.493z" class="cls-2" transform="translate(-437.911 681.093)"/>
        </g>
        <g id="Group_14795" transform="translate(12.373 42.541)">
            <path id="Path_70138-4" d="M439.551-681.093a2.55 2.55 0 0 1-1.64 1.938 2.55 2.55 0 0 1 1.64 1.938 2.55 2.55 0 0 1 1.64-1.938 2.55 2.55 0 0 1-1.64-1.938z" class="cls-1" transform="translate(-437.911 681.093)"/>
            <path id="Path_70139-4" d="M439.551-681.093a2.55 2.55 0 0 1-1.64 1.938s1.744.241 1.64-1.938z" class="cls-2" transform="translate(-437.911 681.093)"/>
        </g>
    </g>
</svg>
