<svg id="vector" xmlns="http://www.w3.org/2000/svg" width="50" height="54" viewBox="0 0 50 54"><path fill="#1f2d3d" d="M25,29m-25,0a25,25 0,1 1,50 0a25,25 0,1 1,-50 0" id="path_0"/><path fill="#fff9e8" d="M25.15,19.631a1.426,1.426 0,0 0,-0.6 0.131L8.755,27.054a1.128,1.128 0,0 0,-0.039 2.03l5.044,2.561v4.927a1.424,1.424 0,0 0,1.424 1.424L35.116,37.996a1.424,1.424 0,0 0,1.424 -1.424v-4.927l2.847,-1.446v6.373a1.424,1.424 0,1 0,2.847 0L42.234,28.031h-0.039a1.111,1.111 0,0 0,-0.651 -0.976l-15.8,-7.291a1.426,1.426 0,0 0,-0.594 -0.133z" id="path_1"/><path fill="#ffc82c" d="M42,8m-8,0a8,8 0,1 1,16 0a8,8 0,1 1,-16 0" id="path_2"/><path fill="#fff" d="M46.515,7.178l-1.485,-0.228 -0.59,-0.09c-0.032,0 -0.064,-0.011 -0.1,-0.019l-0.025,-0.007 -0.073,-0.021 -0.024,-0.008 -0.075,-0.027 -0.02,-0.008 -0.081,-0.035 -0.014,-0.007c-0.029,-0.014 -0.058,-0.028 -0.087,-0.044h-0.008q-0.046,-0.025 -0.091,-0.053c-0.031,-0.019 -0.062,-0.04 -0.093,-0.061q-0.047,-0.032 -0.091,-0.067a1.747,1.747 0,0 1,-0.508 -0.59l-0.26,-0.538 -0.26,-0.538 -0.395,-0.815 -0.407,0.809 -0.269,0.534 -0.269,0.534a1.934,1.934 0,0 1,-1.3 0.932l-0.592,0.081 -0.592,0.081 -0.9,0.123 1.068,1.058 0.425,0.42c0.022,0.021 0.043,0.044 0.063,0.068l0.028,0.035 0.031,0.039 0.036,0.051 0.019,0.028 0.04,0.064 0.011,0.019 0.041,0.076 0.006,0.011 0.041,0.085v0.005l0.039,0.092c0.012,0.032 0.024,0.064 0.035,0.1a1.8,1.8 0,0 1,0.09 0.857l-0.106,0.588 -0.106,0.588 -0.16,0.891 0.8,-0.415 0.531,-0.274 0.531,-0.274q0.041,-0.021 0.084,-0.039l0.054,-0.021 0.035,-0.013 0.074,-0.022 0.019,-0.006 0.088,-0.021h0.008l0.1,-0.018a2.12,2.12 0,0 1,0.31 -0.025,1.791 1.791,0 0,1 0.833,0.18l0.526,0.282 1.325,0.71 -0.243,-1.483 -0.1,-0.589c-0.005,-0.031 -0.009,-0.064 -0.012,-0.1v-0.024,-0.077 -0.023,-0.081 -0.018c0,-0.03 0,-0.06 0.008,-0.09v-0.011c0,-0.033 0.009,-0.066 0.015,-0.1a2.136,2.136 0,0 1,0.086 -0.323,1.752 1.752,0 0,1 0.407,-0.675l0.431,-0.414 1.084,-1.041z" id="path_3"/></svg>