<svg width="18" height="17" viewBox="0 0 18 17" fill="none" xmlns="http://www.w3.org/2000/svg">
<path d="M10.827 0.0019535H7.037C6.7896 0.00206613 6.54491 0.0534906 6.3184 0.152978C6.09189 0.252465 5.88847 0.397852 5.721 0.579954L4.613 1.78795H1.787C1.31346 1.78927 0.8597 1.97797 0.524858 2.31281C0.190016 2.64765 0.00131942 3.10142 0 3.57495V14.295C0.00131942 14.7685 0.190016 15.2223 0.524858 15.5571C0.8597 15.8919 1.31346 16.0806 1.787 16.082H16.08C16.5535 16.0806 17.0073 15.8919 17.3421 15.5571C17.677 15.2223 17.8657 14.7685 17.867 14.295V3.57495C17.8657 3.10142 17.677 2.64765 17.3421 2.31281C17.0073 1.97797 16.5535 1.78927 16.08 1.78795H13.259L12.144 0.577953C11.9762 0.396188 11.7725 0.251166 11.5458 0.15203C11.3192 0.0528937 11.0744 0.00179441 10.827 0.0019535ZM8.933 4.46895C9.81649 4.46895 10.6801 4.73094 11.4147 5.22178C12.1493 5.71262 12.7219 6.41027 13.06 7.22651C13.3981 8.04274 13.4865 8.94091 13.3142 9.80742C13.1418 10.6739 12.7164 11.4699 12.0916 12.0946C11.4669 12.7193 10.671 13.1448 9.80447 13.3171C8.93795 13.4895 8.03979 13.401 7.22355 13.0629C6.40732 12.7248 5.70967 12.1523 5.21883 11.4177C4.72798 10.6831 4.466 9.81944 4.466 8.93595C4.46012 8.3477 4.57164 7.76419 4.79405 7.21957C5.01645 6.67495 5.34527 6.18018 5.76125 5.7642C6.17722 5.34822 6.672 5.01941 7.21662 4.797C7.76124 4.5746 8.34475 4.46307 8.933 4.46895ZM8.933 6.25595C8.40295 6.25595 7.8848 6.41313 7.44407 6.70762C7.00335 7.0021 6.65985 7.42066 6.457 7.91036C6.25416 8.40007 6.20109 8.93893 6.3045 9.4588C6.4079 9.97866 6.66315 10.4562 7.03795 10.831C7.41276 11.2058 7.89029 11.461 8.41016 11.5645C8.93003 11.6679 9.46889 11.6148 9.95859 11.412C10.4483 11.2091 10.8669 10.8656 11.1613 10.4249C11.4558 9.98416 11.613 9.46601 11.613 8.93595C11.613 8.22517 11.3306 7.5435 10.828 7.04091C10.3254 6.53831 9.64378 6.25595 8.933 6.25595Z" fill="#AABFC3"/>
</svg>
