<svg id="vector" xmlns="http://www.w3.org/2000/svg" width="30" height="30" viewBox="0 0 30 30"><path fill="#f8843b" d="M15,15m-15,0a15,15 0,1 1,30 0a15,15 0,1 1,-30 0" id="path_0"/><path fill="#f8843b" d="M9.388,8.554A1.393,1.393 0,0 0,8 9.942L8,21.054a1.393,1.393 0,0 0,1.388 1.388h5.554a0.694,0.694 0,0 0,0.694 -0.694v-3.475a1.388,1.388 0,0 1,1.388 -1.388h1.388a0.694,0.694 0,0 0,0.694 -0.694L19.106,9.942A1.388,1.388 0,0 0,17.719 8.554zM12.165,10.637a1.388,1.388 0,1 1,-1.388 1.388,1.388 1.388,0 0,1 1.388,-1.388zM12.165,14.108c0.695,0 2.083,0.436 2.083,1.3v0.434a0.347,0.347 0,0 1,-0.347 0.347L10.43,16.189a0.347,0.347 0,0 1,-0.347 -0.347v-0.433c0,-0.865 1.387,-1.301 2.082,-1.301zM17.719,18.273a0.694,0.694 0,0 0,0 1.388h3.471a0.694,0.694 0,0 0,0 -1.388zM17.719,20.356a0.694,0.694 0,1 0,0 1.388h3.471a0.694,0.694 0,0 0,0 -1.388zM17.719,22.439a0.694,0.694 0,0 0,0 1.388h3.471a0.694,0.694 0,0 0,0 -1.388z" id="path_1"/></svg>