<svg width="28" height="28" viewBox="0 0 28 28" fill="none" xmlns="http://www.w3.org/2000/svg">
<path d="M14 2.3335C7.57165 2.3335 2.33331 7.57183 2.33331 14.0002C2.33331 20.4285 7.57165 25.6668 14 25.6668C20.4283 25.6668 25.6666 20.4285 25.6666 14.0002C25.6666 7.57183 20.4283 2.3335 14 2.3335ZM19.075 18.1652C18.9116 18.4452 18.62 18.5968 18.3166 18.5968C18.165 18.5968 18.0133 18.5618 17.8733 18.4685L14.2566 16.3102C13.3583 15.7735 12.6933 14.5952 12.6933 13.5568V8.7735C12.6933 8.29516 13.09 7.8985 13.5683 7.8985C14.0466 7.8985 14.4433 8.29516 14.4433 8.7735V13.5568C14.4433 13.9768 14.7933 14.5952 15.155 14.8052L18.7716 16.9635C19.1916 17.2085 19.3316 17.7452 19.075 18.1652Z" fill="#F9A63A"/>
</svg>
