<svg width="32" height="32" viewBox="0 0 32 32" fill="none" xmlns="http://www.w3.org/2000/svg">
<g id="vuesax/bold/tick-square">
<g id="tick-square">
<path id="Vector" d="M28.5693 10.4111V10.4132V21.5865C28.5693 23.864 27.8934 25.5918 26.7357 26.7495C25.578 27.9072 23.8502 28.5832 21.5727 28.5832H10.4127C8.13518 28.5832 6.4076 27.9072 5.25001 26.7482C4.09231 25.589 3.41602 23.8579 3.41602 21.5732V10.4132C3.41602 8.13566 4.09199 6.40786 5.24968 5.25017C6.40737 4.09248 8.13517 3.4165 10.4127 3.4165H21.586C23.8637 3.4165 25.5912 4.09254 26.747 5.24983C27.9027 6.40697 28.5756 8.13407 28.5693 10.4111ZM22.903 13.4635L22.9031 13.4636L22.9119 13.4544C23.5747 12.7688 23.5874 11.6739 22.903 10.9895C22.2235 10.3099 21.1086 10.3099 20.429 10.9895L14.106 17.3125L11.5697 14.7762C10.8901 14.0966 9.77525 14.0966 9.09569 14.7762C8.41613 15.4557 8.41613 16.5706 9.09569 17.2502L12.869 21.0235C13.1947 21.3492 13.6382 21.5365 14.106 21.5365C14.5739 21.5365 15.0173 21.3492 15.343 21.0235L22.903 13.4635Z" fill="#1F9A53" stroke="#1F9A53" stroke-width="1.5"/>
</g>
</g>
</svg>
