<svg width="64" height="64" viewBox="0 0 64 64" fill="none" xmlns="http://www.w3.org/2000/svg">
<rect width="64" height="64" rx="16" fill="#ECF1FD"/>
<path d="M13.0142 19.2643C12.9746 18.8678 13.0179 18.4677 13.1414 18.0874C13.2649 17.7072 13.4661 17.3545 13.7334 17.05C14.0006 16.7455 14.3284 16.4953 14.6976 16.3141C15.0668 16.133 15.47 16.0245 15.8834 15.995L39.5796 14.2979L39.5185 14.3707L39.7449 14.3544C40.1547 14.3243 40.5665 14.3721 40.957 14.4951C41.3475 14.6181 41.7089 14.8139 42.0205 15.0713C42.3322 15.3287 42.5879 15.6426 42.7731 15.9951C42.9583 16.3475 43.0693 16.7316 43.0998 17.1254L45.4153 46.9793C45.4153 47 45.4572 47.2295 45.6056 49.2172C45.6629 49.9768 45.4042 50.7272 44.8862 51.3036C44.3682 51.8801 43.6333 52.2354 42.8428 52.2917L19.1613 53.991C18.7163 54.0231 18.269 53.9705 17.845 53.8364C17.4211 53.7023 17.0288 53.4892 16.6907 53.2093C16.3525 52.9294 16.075 52.5883 15.8742 52.2053C15.6733 51.8224 15.5529 51.4051 15.5199 50.9775L13.2237 21.3857C13.2237 21.3857 13.2237 21.3607 13.2237 21.3161L13.0142 19.2643Z" fill="#5C65C6"/>
<path d="M42.4757 14.9176L25.0553 15.6221L25.117 17.0308L42.5374 16.3263L42.4757 14.9176Z" fill="#43B1CB"/>
<path d="M14.8882 14.9221C14.8882 14.9221 15.2516 10.5356 17.8004 10.5236C22.3985 10.5029 26.1882 10.3289 34.2863 10.2092C34.3746 10.2092 43.6649 10.0286 43.7192 10.0308C43.863 10.0308 44.9523 10.0308 45.6113 10.071C46.08 10.0993 47.1364 10.5943 47.5022 11.2308C47.826 11.7943 48.0253 12.2099 48.1079 13.4066L14.8882 14.9221Z" fill="#86C3FF"/>
<path d="M24.474 46.8464L50.0531 45.3766L48.0241 12.7876C47.9267 11.2232 46.3936 9.91115 44.7654 10.0047L19.8135 10.6053C19.8135 10.6053 17.2093 10.6053 17.2682 10.7521C19.0923 10.6814 19.3063 15.539 19.3063 15.539L21.0749 43.9416C21.0994 44.3469 21.2069 44.7435 21.391 45.1088C21.5751 45.4741 21.8324 45.801 22.148 46.0707C22.4637 46.3405 22.8316 46.5478 23.2307 46.6809C23.6298 46.814 24.0522 46.8703 24.474 46.8464Z" fill="#9BD7E9"/>
<path d="M24.7763 46.8517C25.9188 46.806 52.2056 45.556 52.2056 45.556L52.226 45.5223C53.3583 43.5575 53.2371 40.7745 51.9361 38.9076L51.9135 38.875L23.8727 40.0075L24.0199 40.1979C25.4013 41.981 25.7591 45.1056 24.1649 46.6885C24.1649 46.6853 23.6338 46.8974 24.7763 46.8517Z" fill="#86C3FF"/>
<path d="M28.2671 19.1365L44.3125 18.1302C44.3397 18.1303 44.3667 18.1253 44.3919 18.1155C44.4171 18.1056 44.44 18.091 44.4593 18.0727C44.4787 18.0543 44.4941 18.0324 44.5046 18.0083C44.5152 17.9842 44.5207 17.9583 44.5208 17.9322C44.513 17.8802 44.4841 17.8333 44.4404 17.8017C44.3967 17.7701 44.3418 17.7564 44.2876 17.7636L28.2421 18.7699C28.1887 18.7716 28.1379 18.793 28.1004 18.8296C28.0628 18.8663 28.0414 18.9154 28.0406 18.9668C28.0487 19.0175 28.0767 19.0633 28.1188 19.0948C28.1609 19.1264 28.2139 19.1413 28.2671 19.1365Z" fill="#004686" stroke="#004686" stroke-width="0.211545" stroke-miterlimit="10"/>
<path d="M28.3237 20.0319L44.3691 19.0256C44.4239 19.0258 44.4765 19.0053 44.5156 18.9684C44.5546 18.9315 44.5768 18.8813 44.5774 18.8286C44.5696 18.7766 44.5407 18.7296 44.497 18.6978C44.4534 18.6661 44.3985 18.6521 44.3442 18.6589L28.2988 19.6631C28.2717 19.6629 28.2449 19.6679 28.2198 19.6777C28.1948 19.6876 28.172 19.702 28.1527 19.7203C28.1335 19.7386 28.1182 19.7603 28.1077 19.7843C28.0972 19.8083 28.0917 19.834 28.0916 19.86C28.095 19.8859 28.1038 19.9109 28.1174 19.9336C28.1309 19.9563 28.149 19.9762 28.1706 19.9921C28.1921 20.0081 28.2167 20.0198 28.243 20.0267C28.2693 20.0335 28.2967 20.0353 28.3237 20.0319Z" fill="#004686" stroke="#004686" stroke-width="0.211545" stroke-miterlimit="10"/>
<path d="M28.3803 21.0384L44.4258 20.0321C44.453 20.0322 44.4799 20.0272 44.5051 20.0173C44.5303 20.0074 44.5533 19.9929 44.5726 19.9745C44.5919 19.9561 44.6073 19.9343 44.6179 19.9102C44.6284 19.8861 44.6339 19.8602 44.6341 19.8341C44.6262 19.7821 44.5973 19.7352 44.5536 19.7036C44.5099 19.672 44.455 19.6583 44.4008 19.6654L28.3554 20.6718C28.3006 20.6715 28.248 20.692 28.209 20.7289C28.1699 20.7658 28.1477 20.8161 28.1471 20.8687C28.1549 20.9207 28.1838 20.9677 28.2275 20.9995C28.2711 21.0313 28.326 21.0452 28.3803 21.0384Z" fill="#004686" stroke="#004686" stroke-width="0.211545" stroke-miterlimit="10"/>
<path d="M23.6621 22.2647L26.2947 22.0993C26.5879 22.0808 26.8064 21.786 26.7827 21.44L26.6162 18.9932C26.5936 18.6473 26.3365 18.3818 26.0433 18.4003L23.4108 18.5657C23.1175 18.5831 22.899 18.879 22.9227 19.225L23.0892 21.6717C23.113 22.0177 23.3689 22.2832 23.6621 22.2647Z" fill="#4DC3FF"/>
<path d="M24.0415 20.3978L24.6789 20.846L25.664 19.6025" fill="#4DC3FF"/>
<path d="M23.9565 20.5334L24.5928 20.9827C24.632 21.0033 24.6779 21.0087 24.7211 20.9978C24.7642 20.9869 24.8014 20.9604 24.8249 20.9239L25.6866 19.836L25.8111 19.6793C25.8335 19.6419 25.8396 19.5975 25.8281 19.5558C25.8167 19.514 25.7886 19.4783 25.75 19.4563C25.7115 19.437 25.6668 19.4324 25.6248 19.4433C25.5829 19.4541 25.5467 19.4798 25.5235 19.5151L24.6619 20.603L24.5373 20.7596L24.7694 20.7009L24.1331 20.2527C24.0943 20.2327 24.049 20.228 24.0067 20.2395C23.9644 20.251 23.9284 20.2778 23.9062 20.3143C23.8841 20.3508 23.8775 20.3942 23.8879 20.4352C23.8984 20.4763 23.925 20.5119 23.9621 20.5344L23.9565 20.5334Z" fill="#DBFEFF"/>
<path d="M28.7925 24.8626L44.8379 23.8551C44.8927 23.8554 44.9453 23.8349 44.9844 23.798C45.0234 23.7611 45.0457 23.7108 45.0463 23.6582C45.0384 23.6062 45.0095 23.5592 44.9659 23.5274C44.9222 23.4957 44.8673 23.4817 44.813 23.4885L28.7676 24.4949C28.7128 24.4949 28.6603 24.5157 28.6215 24.5528C28.5826 24.5899 28.5607 24.6402 28.5604 24.6929C28.568 24.7448 28.5966 24.7918 28.6401 24.8236C28.6835 24.8554 28.7383 24.8694 28.7925 24.8626Z" fill="#004686" stroke="#004686" stroke-width="0.211545" stroke-miterlimit="10"/>
<path d="M28.8446 25.7557L44.89 24.7493C44.9449 24.7493 44.9975 24.7286 45.0366 24.6915C45.0756 24.6544 45.0978 24.6041 45.0984 24.5513C45.0905 24.4993 45.0616 24.4524 45.0179 24.4209C44.9742 24.3893 44.9193 24.3756 44.8651 24.3827L28.8197 25.389C28.7651 25.389 28.7128 25.4097 28.674 25.4466C28.6352 25.4835 28.6131 25.5335 28.6125 25.586C28.6201 25.6379 28.6487 25.6849 28.6922 25.7167C28.7357 25.7485 28.7904 25.7625 28.8446 25.7557Z" fill="#004686" stroke="#004686" stroke-width="0.211545" stroke-miterlimit="10"/>
<path d="M28.9046 26.7635L44.95 25.756C45.0048 25.7563 45.0574 25.7358 45.0965 25.6989C45.1355 25.662 45.1577 25.6117 45.1583 25.5591C45.1505 25.507 45.1216 25.4601 45.0779 25.4283C45.0343 25.3965 44.9794 25.3826 44.9251 25.3894L28.8797 26.3957C28.8248 26.3957 28.7721 26.4165 28.7331 26.4536C28.6941 26.4907 28.6719 26.541 28.6713 26.5937C28.6749 26.6196 28.6839 26.6446 28.6976 26.6672C28.7113 26.6897 28.7295 26.7095 28.7512 26.7253C28.7728 26.741 28.7976 26.7525 28.8239 26.7591C28.8502 26.7656 28.8776 26.7671 28.9046 26.7635Z" fill="#004686" stroke="#004686" stroke-width="0.211545" stroke-miterlimit="10"/>
<path d="M24.2282 27.9895L26.8607 27.823C27.154 27.8045 27.3725 27.5086 27.3488 27.1627L27.1823 24.7159C27.1597 24.3699 26.9026 24.1045 26.6094 24.123L23.9768 24.2883C23.6836 24.3068 23.4651 24.6017 23.4888 24.9476L23.6553 27.3944C23.6791 27.7414 23.9349 28.0069 24.2282 27.9895Z" fill="#4DC3FF"/>
<path d="M24.6075 26.1214L25.245 26.5697L26.2301 25.3262" fill="#4DC3FF"/>
<path d="M24.5227 26.2629L25.159 26.7111C25.1981 26.732 25.2441 26.7376 25.2874 26.7266C25.3306 26.7157 25.3678 26.6891 25.3911 26.6524L26.2528 25.5644L26.3773 25.4078C26.3997 25.3703 26.4058 25.326 26.3943 25.2842C26.3829 25.2425 26.3548 25.2068 26.3162 25.1848C26.2777 25.1656 26.2332 25.1609 26.1914 25.1716C26.1495 25.1823 26.1133 25.2075 26.0897 25.2424L25.2281 26.3304L25.1035 26.487L25.3356 26.4283L24.6993 25.98C24.6603 25.9586 24.6141 25.9527 24.5707 25.9637C24.5273 25.9747 24.4901 26.0017 24.4672 26.0388C24.4451 26.0763 24.4392 26.1206 24.4506 26.1622C24.462 26.2039 24.4899 26.2396 24.5283 26.2618L24.5227 26.2629Z" fill="#DBFEFF"/>
<path d="M29.3925 30.5847L45.438 29.5784C45.4928 29.5784 45.5455 29.5576 45.5845 29.5205C45.6235 29.4835 45.6457 29.4331 45.6463 29.3804C45.6384 29.3283 45.6096 29.2813 45.5659 29.2496C45.5223 29.2178 45.4673 29.2038 45.4131 29.2107L29.3676 30.2159C29.3129 30.2156 29.2602 30.2362 29.2212 30.2731C29.1821 30.31 29.1599 30.3602 29.1593 30.4128C29.1666 30.4653 29.1953 30.5128 29.239 30.5451C29.2827 30.5773 29.3379 30.5915 29.3925 30.5847Z" fill="#004686" stroke="#004686" stroke-width="0.211545" stroke-miterlimit="10"/>
<path d="M29.4446 31.4803L45.4901 30.4739C45.5448 30.4742 45.5975 30.4537 45.6365 30.4168C45.6756 30.3799 45.6978 30.3296 45.6984 30.277C45.6908 30.2248 45.662 30.1777 45.6183 30.1458C45.5746 30.114 45.5195 30.1002 45.4652 30.1073L29.4197 31.1136C29.365 31.1133 29.3123 31.1339 29.2733 31.1708C29.2342 31.2077 29.212 31.2579 29.2114 31.3106C29.2193 31.3626 29.2481 31.4096 29.2918 31.4414C29.3354 31.4731 29.3904 31.4871 29.4446 31.4803Z" fill="#004686" stroke="#004686" stroke-width="0.211545" stroke-miterlimit="10"/>
<path d="M29.5046 32.4866L45.5501 31.4792C45.5771 31.4793 45.604 31.4743 45.629 31.4645C45.6541 31.4547 45.6769 31.4402 45.6961 31.4219C45.7154 31.4037 45.7307 31.3819 45.7412 31.3579C45.7517 31.334 45.7571 31.3082 45.7573 31.2822C45.7497 31.2303 45.721 31.1833 45.6776 31.1515C45.6341 31.1197 45.5793 31.1057 45.5252 31.1125L29.4797 32.12C29.425 32.1197 29.3723 32.1402 29.3333 32.1771C29.2942 32.214 29.272 32.2643 29.2714 32.3169C29.2793 32.3689 29.3081 32.4159 29.3518 32.4477C29.3954 32.4794 29.4504 32.4934 29.5046 32.4866Z" fill="#004686" stroke="#004686" stroke-width="0.211545" stroke-miterlimit="10"/>
<path d="M24.4547 33.7129L27.0872 33.5475C27.3805 33.529 27.599 33.2342 27.5752 32.8882L27.4088 30.4415C27.3861 30.0955 27.1291 29.8301 26.8358 29.8486L24.2033 30.0128C23.9101 30.0313 23.6915 30.3273 23.7153 30.6732L23.8817 33.12C23.9055 33.4659 24.1614 33.7314 24.4547 33.7129Z" fill="#4DC3FF"/>
<path d="M24.834 31.8461L25.4715 32.2943L26.4566 31.0508" fill="#4DC3FF"/>
<path d="M24.7491 31.9865L25.3854 32.4347C25.4244 32.4557 25.4703 32.4614 25.5135 32.4507C25.5568 32.4399 25.594 32.4136 25.6175 32.377L26.4792 31.2891L26.6037 31.1325C26.6261 31.095 26.6322 31.0506 26.6207 31.0089C26.6093 30.9672 26.5812 30.9314 26.5426 30.9094C26.504 30.8902 26.4594 30.8855 26.4174 30.8964C26.3755 30.9073 26.3393 30.9329 26.3161 30.9682L25.4545 32.0561L25.3299 32.2128L25.562 32.154L24.9257 31.7058C24.8867 31.6843 24.8405 31.6785 24.7971 31.6895C24.7537 31.7004 24.7165 31.7274 24.6936 31.7645C24.6732 31.8015 24.6683 31.8445 24.6796 31.8849C24.6909 31.9253 24.7178 31.96 24.7547 31.9821L24.7491 31.9865Z" fill="#DBFEFF"/>
<path d="M29.825 36.2L45.8705 35.1937C45.9252 35.1939 45.9779 35.1734 46.0169 35.1365C46.056 35.0996 46.0782 35.0494 46.0788 34.9967C46.0712 34.9446 46.0424 34.8974 45.9987 34.8656C45.955 34.8338 45.8999 34.8199 45.8456 34.827L29.8001 35.8334C29.7454 35.8331 29.6927 35.8536 29.6537 35.8905C29.6146 35.9274 29.5924 35.9777 29.5918 36.0303C29.5997 36.0823 29.6285 36.1293 29.6722 36.1611C29.7158 36.1929 29.7708 36.2068 29.825 36.2Z" fill="#004686" stroke="#004686" stroke-width="0.211545" stroke-miterlimit="10"/>
<path d="M29.8772 37.0941L45.9226 36.091C45.9774 36.0913 46.03 36.0707 46.069 36.0338C46.1081 35.9969 46.1303 35.9467 46.1309 35.8941C46.1231 35.842 46.0942 35.795 46.0505 35.7633C46.0069 35.7315 45.952 35.7175 45.8977 35.7244L29.8522 36.7274C29.7976 36.7274 29.7451 36.7481 29.7061 36.7849C29.6671 36.8217 29.6448 36.8718 29.6439 36.9243C29.6518 36.9764 29.6807 37.0234 29.7243 37.0552C29.768 37.0869 29.8229 37.1009 29.8772 37.0941Z" fill="#004686" stroke="#004686" stroke-width="0.211545" stroke-miterlimit="10"/>
<path d="M29.9372 38.1004L45.9827 37.0941C46.0375 37.0941 46.0902 37.0733 46.1292 37.0362C46.1682 36.9991 46.1904 36.9488 46.191 36.8961C46.1831 36.8441 46.1542 36.7972 46.1105 36.7656C46.0668 36.734 46.0119 36.7203 45.9578 36.7274L29.9123 37.7338C29.8576 37.7335 29.8049 37.754 29.7659 37.7909C29.7268 37.8278 29.7046 37.8781 29.704 37.9307C29.7118 37.9828 29.7407 38.0297 29.7844 38.0615C29.828 38.0933 29.8829 38.1072 29.9372 38.1004Z" fill="#004686" stroke="#004686" stroke-width="0.211545" stroke-miterlimit="10"/>
<path d="M25.0209 39.4365L27.6534 39.2723C27.9467 39.2538 28.1652 38.9578 28.1414 38.6119L27.975 36.1651C27.9524 35.8192 27.6953 35.5537 27.4021 35.5722L24.7695 35.7376C24.4763 35.7561 24.2577 36.0509 24.2815 36.3969L24.448 38.8436C24.4717 39.1896 24.7276 39.455 25.0209 39.4365Z" fill="#4DC3FF"/>
<path d="M25.4002 37.5697L26.0376 38.0179L27.0227 36.7744" fill="#4DC3FF"/>
<path d="M25.3153 37.711L25.9516 38.1592C25.9907 38.1801 26.0367 38.1857 26.08 38.1747C26.1233 38.1638 26.1604 38.1372 26.1837 38.1005L27.0454 37.0125L27.17 36.8559C27.1923 36.8183 27.1985 36.7737 27.1871 36.7318C27.1756 36.6899 27.1475 36.654 27.1088 36.6318C27.0702 36.6127 27.0256 36.6082 26.9838 36.6191C26.9419 36.6299 26.9057 36.6554 26.8824 36.6905L26.0207 37.7784L25.8894 37.9405L26.1215 37.8818L25.4851 37.4336C25.4463 37.412 25.4002 37.406 25.3568 37.4167C25.3134 37.4275 25.2761 37.4543 25.253 37.4912C25.2309 37.5289 25.2249 37.5733 25.2363 37.6152C25.2478 37.657 25.2757 37.6929 25.3142 37.7153L25.3153 37.711Z" fill="#DBFEFF"/>
</svg>
