<svg width="12" height="12" viewBox="0 0 12 12" fill="none" xmlns="http://www.w3.org/2000/svg">
<path d="M0.769175 0.0265509C0.620643 0.0264208 0.475442 0.0705568 0.35212 0.153322C0.228797 0.236087 0.13295 0.353724 0.0768198 0.491208C0.0206897 0.628693 0.00682485 0.779784 0.0369958 0.925184C0.0671668 1.07058 0.140004 1.20369 0.246205 1.30751L4.94173 6.00187L0.249194 10.6962C0.173424 10.7639 0.11227 10.8464 0.0694729 10.9386C0.0266759 11.0307 0.00313553 11.1306 0.000292421 11.2322C-0.00255069 11.3338 0.0153632 11.4348 0.0529378 11.5292C0.0905125 11.6236 0.146958 11.7094 0.218821 11.7812C0.290683 11.8531 0.376453 11.9095 0.470881 11.9471C0.56531 11.9846 0.666411 12.0026 0.768001 11.9997C0.869591 11.9969 0.969532 11.9733 1.06171 11.9305C1.15389 11.8878 1.23637 11.8266 1.3041 11.7509L5.99963 7.05502L10.6952 11.7494C10.7629 11.8251 10.8454 11.8863 10.9375 11.9291C11.0297 11.9718 11.1297 11.9954 11.2313 11.9982C11.3328 12.0011 11.4339 11.9831 11.5284 11.9456C11.6228 11.908 11.7086 11.8516 11.7804 11.7797C11.8523 11.7079 11.9087 11.6221 11.9463 11.5277C11.9839 11.4333 12.0018 11.3323 11.999 11.2307C11.9961 11.1291 11.9726 11.0292 11.9298 10.9371C11.887 10.8449 11.8258 10.7624 11.7501 10.6947L7.05304 6.00187L11.7508 1.30377C11.8266 1.23606 11.8877 1.1536 11.9305 1.06145C11.9733 0.969291 11.9969 0.869374 11.9997 0.767809C12.0026 0.666245 11.9846 0.565169 11.9471 0.470764C11.9095 0.376359 11.853 0.290611 11.7812 0.218766C11.7093 0.146921 11.6235 0.0904897 11.5291 0.0529245C11.4347 0.0153592 11.3336 -0.00255005 11.232 0.000292351C11.1304 0.00313475 11.0305 0.0266691 10.9383 0.0694555C10.8461 0.112242 10.7636 0.173381 10.6959 0.249131L5.99963 4.94722L1.30036 0.252866C1.23127 0.181797 1.14872 0.125185 1.05752 0.0863305C0.966326 0.0474757 0.868306 0.0271544 0.769175 0.0265509Z" fill="#606A7B"/>
</svg>
