<svg id="vector" xmlns="http://www.w3.org/2000/svg" width="18" height="18" viewBox="0 0 18 18"><path fill="#ff4949" d="M9,9m-9,0a9,9 0,1 1,18 0a9,9 0,1 1,-18 0" id="path_0"/><path fill="#fff" d="M9.12,12.129a0.818,0.818 0,0 0,0.837 -0.719l0.568,-6.332a1.264,1.264 0,0 0,-0.364 -1,1.478 1.478,0 0,0 -2.075,0 1.264,1.264 0,0 0,-0.364 1l0.568,6.332a0.818,0.818 0,0 0,0.829 0.719z" id="path_1"/><path fill="#fff" d="M9.119,13.227a0.914,0.914 0,1 0,0.914 0.914,0.914 0.914,0 0,0 -0.914,-0.914z" id="path_2"/></svg>