<svg id="vector" xmlns="http://www.w3.org/2000/svg" width="11.12" height="9.551" viewBox="0 0 11.12 9.551"><path fill="#ea3f3d" d="M10.993,8.2L6.325,0.433a0.892,0.892 0,0 0,-1.53 0L0.127,8.2a0.893,0.893 0,0 0,0.765 1.352h9.336a0.892,0.892 0,0 0,0.765 -1.352zM5.825,7.961h-0.53a0.265,0.265 0,0 1,-0.265 -0.265v-0.531a0.265,0.265 0,0 1,0.265 -0.265h0.531a0.265,0.265 0,0 1,0.265 0.265v0.531a0.265,0.265 0,0 1,-0.266 0.263zM5.56,5.837a0.531,0.531 0,0 1,-0.531 -0.531L5.029,3.714a0.531,0.531 0,0 1,0.531 -0.531,0.531 0.531,0 0,1 0.531,0.531v1.592a0.531,0.531 0,0 1,-0.531 0.531z" id="path_0"/></svg>