<svg width="16" height="15" viewBox="0 0 16 15" fill="none" xmlns="http://www.w3.org/2000/svg">
<path d="M7.66 0C6.03573 0.00340486 4.47889 0.697656 3.33035 1.93075C2.18182 3.16384 1.53517 4.83529 1.532 6.57914V7.40154C1.12609 7.40295 0.73719 7.57669 0.450169 7.88485C0.163148 8.193 0.00131832 8.61053 0 9.04632V10.6911C0.00131832 11.1269 0.163148 11.5444 0.450169 11.8526C0.73719 12.1607 1.12609 12.3345 1.532 12.3359H3.064V6.57914C3.03814 5.91383 3.13787 5.24978 3.35718 4.62691C3.5765 4.00404 3.91087 3.43522 4.34019 2.95465C4.76952 2.47408 5.28493 2.09169 5.85544 1.83047C6.42595 1.56924 7.03978 1.43458 7.66 1.43458C8.28023 1.43458 8.89405 1.56924 9.46456 1.83047C10.0351 2.09169 10.5505 2.47408 10.9798 2.95465C11.4091 3.43522 11.7435 4.00404 11.9628 4.62691C12.1821 5.24978 12.2819 5.91383 12.256 6.57914V13.1583H9.125C9.05597 12.9488 8.93546 12.7632 8.77623 12.6213C8.61701 12.4793 8.42499 12.3861 8.2205 12.3517C8.01602 12.3173 7.80667 12.3429 7.61462 12.4258C7.42257 12.5087 7.25496 12.6457 7.12954 12.8225C7.00411 12.9993 6.92553 13.2092 6.90212 13.43C6.8787 13.6508 6.91132 13.8742 6.99653 14.0768C7.08173 14.2793 7.21635 14.4533 7.38613 14.5804C7.55592 14.7075 7.75455 14.783 7.961 14.7988C7.98832 14.8004 8.01569 14.8004 8.043 14.7988H12.256C12.6614 14.7957 13.0494 14.6214 13.3361 14.3136C13.6228 14.0058 13.7851 13.5893 13.788 13.154V12.3359C14.1939 12.3345 14.5828 12.1607 14.8698 11.8526C15.1569 11.5444 15.3187 11.1269 15.32 10.6911V9.04632C15.3187 8.61053 15.1569 8.193 14.8698 7.88485C14.5828 7.57669 14.1939 7.40295 13.788 7.40154V6.57914C13.7848 4.83529 13.1382 3.16384 11.9897 1.93075C10.8411 0.697656 9.28428 0.00340486 7.66 0Z" fill="#9CAFB1"/>
</svg>
