<svg id="vector" xmlns="http://www.w3.org/2000/svg" width="43.512" height="32.937" viewBox="0 0 43.512 32.937"><path fill="#fff" d="M1.674,16.87a1.674,1.674 0,1 0,1.674 1.674,1.674 1.674,0 0,0 -1.674,-1.674zM42.508,5.49a1,1 0,1 0,1 1,1 1,0 0,0 -1,-1z" id="path_0"/><path fill="#472b29" d="M11.781,26.509v5.489h-4.15v-5.489h4.15m0.937,-0.937L6.693,25.572v7.364h6.025L12.718,25.572z" id="path_1"/><path fill="#472b29" d="M20.484,21.154v10.845h-4.15L16.334,21.154h4.15m0.937,-0.937L15.396,20.217v12.719h6.025L21.421,20.217z" id="path_2"/><path fill="#472b29" d="M29.186,15.128v16.87h-4.15v-16.87h4.15m0.937,-0.937L24.098,14.191v18.744h6.025L30.123,14.191z" id="path_3"/><path fill="#472b29" d="M37.888,9.105v22.894h-4.15L33.738,9.105h4.15m0.937,-0.937L32.8,8.168v24.769h6.025L38.825,8.168z" id="path_4"/><path fill="#472b29" d="M19.078,32.936a0.335,0.335 0,0 1,-0.335 -0.335v-7.7a0.335,0.335 0,0 1,0.669 0v7.7a0.335,0.335 0,0 1,-0.334 0.335z" id="path_5"/><path fill="#472b29" d="M35.144,24.236a0.335,0.335 0,0 1,-0.335 -0.338L34.809,9.171a0.335,0.335 0,0 1,0.669 0v14.727a0.335,0.335 0,0 1,-0.334 0.338z" id="path_6"/><path fill="#472b29" d="M35.144,28.25a0.335,0.335 0,0 1,-0.335 -0.335v-2.008a0.335,0.335 0,0 1,0.669 0v2.008a0.335,0.335 0,0 1,-0.334 0.335z" id="path_7"/><path fill="#472b29" d="M35.144,30.928a0.335,0.335 0,0 1,-0.335 -0.334v-1.339a0.335,0.335 0,1 1,0.669 0v1.339a0.335,0.335 0,0 1,-0.334 0.334z" id="path_8"/><path fill="#472b29" d="M19.078,23.565a0.335,0.335 0,0 1,-0.335 -0.335v-2.008a0.335,0.335 0,0 1,0.669 0v2.008a0.335,0.335 0,0 1,-0.334 0.335z" id="path_9"/><path fill="#472b29" d="M9.37,19.261a0.468,0.468 0,0 1,-0.313 -0.817l20.418,-18.323a0.468,0.468 0,0 1,0.626 0.7l-20.418,18.32a0.465,0.465 0,0 1,-0.313 0.12z" id="path_10"/><path fill="#472b29" d="M29.788,6.293a0.468,0.468 0,0 1,-0.469 -0.469v-4.887h-4.593a0.469,0.469 0,1 1,0 -0.937h5.062a0.468,0.468 0,0 1,0.469 0.469v5.355a0.468,0.468 0,0 1,-0.469 0.469z" id="path_11"/></svg>