<svg id="vector" xmlns="http://www.w3.org/2000/svg" width="43.779" height="32.881" viewBox="0 0 43.779 32.881"><path fill="#fff" d="M1.684,17.39a1.684,1.684 0,1 0,1.684 1.684A1.684,1.684 0,0 0,1.684 17.39z" id="path_0"/><path fill="#fff" d="M43.106,5.267a0.674,0.674 0,1 0,0.674 0.674,0.674 0.674,0 0,0 -0.674,-0.674z" id="path_1"/><path fill="#472b29" d="M18.924,7.554c-1.871,0 -4.383,-0.291 -5.715,-1.678a3.588,3.588 0,0 1,-0.833 -3.318,3.384 3.384,0 0,1 3.677,-2.553c2.343,0.117 5.163,1.949 5.627,4.49l0.008,0.085v2.766l-0.4,0.059a17.922,17.922 0,0 1,-2.364 0.149zM15.818,0.942a2.43,2.43 0,0 0,-2.526 1.832,2.638 2.638,0 0,0 0.6,2.449c1.6,1.668 5.575,1.422 6.855,1.295L20.747,4.619c-0.4,-2.051 -2.809,-3.582 -4.738,-3.677h-0.191z" id="path_2"/><path fill="#472b29" d="M26.875,7.554a17.724,17.724 0,0 1,-2.359 -0.151l-0.4,-0.057 0.008,-2.85c0.463,-2.542 3.283,-4.374 5.627,-4.49A3.371,3.371 0,0 1,33.412 2.519a3.609,3.609 0,0 1,-0.823 3.362c-1.331,1.383 -3.842,1.673 -5.714,1.673zM25.055,6.519c1.28,0.127 5.256,0.372 6.856,-1.3a2.662,2.662 0,0 0,0.585 -2.492,2.463 2.463,0 0,0 -2.7,-1.783c-1.929,0.1 -4.336,1.627 -4.738,3.677z" id="path_3"/><path fill="#472b29" d="M33.139,8.23a4.313,4.313 0,0 1,4.309 4.309v15.09a4.313,4.313 0,0 1,-4.309 4.309h-20.48a4.313,4.313 0,0 1,-4.309 -4.309L8.35,12.538a4.313,4.313 0,0 1,4.309 -4.309h20.48m0,-0.943h-20.48A5.267,5.267 0,0 0,7.408 12.538v15.09a5.267,5.267 0,0 0,5.251 5.252L33.138,32.88a5.267,5.267 0,0 0,5.252 -5.251L38.39,12.538A5.267,5.267 0,0 0,33.139 7.287z" id="path_4"/><path fill="#472b29" d="M23.19,4.863a1.461,1.461 0,0 1,1.46 1.46v1.93a1.462,1.462 0,0 1,-1.46 1.46L22.605,9.713a1.461,1.461 0,0 1,-1.46 -1.46L21.145,6.32a1.462,1.462 0,0 1,1.46 -1.46h0.583m0,-0.943L22.605,3.917A2.41,2.41 0,0 0,20.205 6.32v1.93a2.41,2.41 0,0 0,2.4 2.4h0.583a2.41,2.41 0,0 0,2.4 -2.4L25.588,6.32a2.41,2.41 0,0 0,-2.4 -2.4z" id="path_5"/><path fill="#472b29" d="M33.859,7.557a4.267,4.267 0,0 1,4.263 4.263v2.922a0.359,0.359 0,0 1,-0.358 0.358L8.035,15.1a0.359,0.359 0,0 1,-0.358 -0.358v-2.922a4.267,4.267 0,0 1,4.263 -4.263h21.919m0,-0.943L11.941,6.614A5.205,5.205 0,0 0,6.735 11.82v2.922a1.3,1.3 0,0 0,1.3 1.3h29.728a1.3,1.3 0,0 0,1.3 -1.3v-2.922A5.205,5.205 0,0 0,33.859 6.614z" id="path_6"/><path fill="#fde751" d="M29.345,2.533a2.533,2.533 0,0 1,1.75 0.188" id="path_7"/><path fill="#472b29" d="M31.094,2.89a0.177,0.177 0,0 1,-0.075 -0.018,2.377 2.377,0 0,0 -1.637,-0.175 0.165,0.165 0,0 1,-0.2 -0.126,0.168 0.168,0 0,1 0.126,-0.2 2.7,2.7 0,0 1,1.864 0.2,0.169 0.169,0 0,1 -0.076,0.319z" id="path_8"/><path fill="#fde751" d="M26.267,4.706a7.827,7.827 0,0 1,1.884 -1.667" id="path_9"/><path fill="#472b29" d="M26.267,4.875a0.169,0.169 0,0 1,-0.133 -0.272,7.93 7.93,0 0,1 1.93,-1.708 0.168,0.168 0,0 1,0.174 0.288,7.733 7.733,0 0,0 -1.838,1.627 0.168,0.168 0,0 1,-0.133 0.065z" id="path_10"/><path fill="#472b29" d="M19.321,4.888a0.168,0.168 0,0 1,-0.141 -0.077,4.279 4.279,0 0,0 -4.41,-2.158 0.168,0.168 0,0 1,-0.075 -0.328,4.69 4.69,0 0,1 4.768,2.3 0.169,0.169 0,0 1,-0.05 0.233,0.177 0.177,0 0,1 -0.092,0.03z" id="path_11"/><path fill="#472b29" d="M32.074,30.187h-9.511a0.337,0.337 0,1 1,0 -0.674h9.512a2.952,2.952 0,0 0,2.951 -2.948v-1.429a0.337,0.337 0,0 1,0.674 0v1.429a3.626,3.626 0,0 1,-3.626 3.622z" id="path_12"/><path fill="#472b29" d="M35.36,22.722a0.337,0.337 0,0 1,-0.337 -0.337v-4.49a0.337,0.337 0,1 1,0.674 0v4.49a0.337,0.337 0,0 1,-0.337 0.337z" id="path_13"/><path fill="#472b29" d="M18.522,30.187h-4.8A3.626,3.626 0,0 1,10.103 26.565v-1.429a0.337,0.337 0,0 1,0.674 0v1.429a2.952,2.952 0,0 0,2.949 2.949h4.8a0.337,0.337 0,1 1,0 0.674z" id="path_14"/><path fill="#472b29" d="M10.44,23.452a0.337,0.337 0,0 1,-0.337 -0.337v-2.694a0.337,0.337 0,1 1,0.674 0v2.694a0.337,0.337 0,0 1,-0.337 0.337z" id="path_15"/><path fill="#472b29" d="M10.44,19.074a0.337,0.337 0,0 1,-0.337 -0.337v-1.347a0.337,0.337 0,1 1,0.674 0v1.347a0.337,0.337 0,0 1,-0.337 0.337z" id="path_16"/><path fill="#472b29" d="M25.324,7.557v24.382h-4.849L20.475,7.557h4.849m0.943,-0.943L19.532,6.614v26.268h6.735L26.267,6.614z" id="path_17"/><path fill="#472b29" d="M23.909,12.507a0.168,0.168 0,0 1,-0.168 -0.168v-3.368a0.168,0.168 0,0 1,0.337 0v3.368a0.168,0.168 0,0 1,-0.169 0.168z" id="path_18"/><path fill="#472b29" d="M23.909,30.019a0.168,0.168 0,0 1,-0.168 -0.168L23.741,14.359a0.168,0.168 0,0 1,0.337 0L24.078,29.851a0.168,0.168 0,0 1,-0.169 0.168z" id="path_19"/></svg>