<svg width="20" height="16" viewBox="0 0 20 16" fill="none" xmlns="http://www.w3.org/2000/svg">
<path d="M18 0H2C1.46957 0 0.960859 0.210714 0.585786 0.585786C0.210714 0.960859 0 1.46957 0 2V14C0 14.5304 0.210714 15.0391 0.585786 15.4142C0.960859 15.7893 1.46957 16 2 16H18C18.5304 16 19.0391 15.7893 19.4142 15.4142C19.7893 15.0391 20 14.5304 20 14V2C20 1.46957 19.7893 0.960859 19.4142 0.585786C19.0391 0.210714 18.5304 0 18 0ZM8 4C8.19778 4 8.39112 4.05865 8.55557 4.16853C8.72002 4.27841 8.84819 4.43459 8.92388 4.61732C8.99957 4.80004 9.01937 5.00111 8.98079 5.19509C8.9422 5.38907 8.84696 5.56725 8.70711 5.70711C8.56725 5.84696 8.38907 5.9422 8.19509 5.98079C8.00111 6.01937 7.80004 5.99957 7.61732 5.92388C7.43459 5.84819 7.27841 5.72002 7.16853 5.55557C7.05865 5.39112 7 5.19778 7 5C7 4.73478 7.10536 4.48043 7.29289 4.29289C7.48043 4.10536 7.73478 4 8 4ZM16 13H4.022C3.92845 12.9999 3.83681 12.9735 3.7575 12.9239C3.67819 12.8743 3.61439 12.8034 3.57334 12.7194C3.5323 12.6353 3.51566 12.5414 3.52533 12.4484C3.53499 12.3553 3.57056 12.2668 3.628 12.193L6.118 8.993C6.16396 8.93405 6.22254 8.88616 6.28945 8.85284C6.35636 8.81952 6.42989 8.80163 6.50463 8.80048C6.57936 8.79933 6.65341 8.81494 6.72131 8.84619C6.78921 8.87743 6.84925 8.9235 6.897 8.981L9 11.51L12.1 7.518C12.1471 7.45631 12.2079 7.40643 12.2777 7.37232C12.3474 7.33821 12.4241 7.32081 12.5017 7.32149C12.5794 7.32217 12.6558 7.34091 12.7249 7.37623C12.794 7.41156 12.854 7.46249 12.9 7.525L16.4 12.2C16.4557 12.2743 16.4896 12.3626 16.498 12.4551C16.5063 12.5476 16.4887 12.6406 16.4472 12.7236C16.4057 12.8067 16.3419 12.8765 16.2629 12.9253C16.1839 12.9741 16.0929 13 16 13Z" fill="#AABFC3"/>
</svg>
