<svg id="vector" xmlns="http://www.w3.org/2000/svg" width="23.6" height="20.6" viewBox="0 0 23.6 20.6"><path fill="#1f2d3d" d="M6.3,0.3a3,3 0,1 0,3 3,3.015 3.015,0 0,0 -3,-3zM16.3,0.3a3,3 0,1 0,3 3,3.015 3.015,0 0,0 -3,-3zM6.3,2.3a1,1 0,1 1,-1 1,0.985 0.985,0 0,1 1,-1zM16.3,2.3a1,1 0,1 1,-1 1,0.985 0.985,0 0,1 1,-1zM6.3,8.3a10.074,10.074 0,0 0,-3.92 0.7,4.159 4.159,0 0,0 -1.408,0.932A2.345,2.345 0,0 0,0.3 11.517L0.3,14.3h16v-2h-4v-0.783C12.3,11.164 13.7,10.3 16.3,10.3h5.613a3.249,3.249 0,0 0,-1.113 -1.008A9.324,9.324 0,0 0,16.3 8.3a8.172,8.172 0,0 0,-4.99 1.34,4.588 4.588,0 0,0 -1.09,-0.641A10.074,10.074 0,0 0,6.3 8.3zM6.3,10.3a8.4,8.4 0,0 1,3.129 0.537,2.376 2.376,0 0,1 0.748,0.471c0.125,0.132 0.123,0.171 0.123,0.209L10.3,12.3L2.3,12.3v-0.783c0,-0.038 0,-0.077 0.123,-0.209a2.376,2.376 0,0 1,0.748 -0.471A8.4,8.4 0,0 1,6.3 10.3zM18.3,12.3v3h-3v2h3v3h2v-3h3v-2h-3v-3z" stroke-width=".6" stroke="#f6fafb" id="path_0"/></svg>