<svg width="25" height="24" viewBox="0 0 25 24" fill="none" xmlns="http://www.w3.org/2000/svg">
<path d="M3.24982 18.65C2.83982 18.65 2.49982 18.31 2.49982 17.9V12.2C2.44982 9.48999 3.45982 6.92999 5.33982 5.00999C7.21982 3.09999 9.73982 2.04999 12.4498 2.04999C17.9898 2.04999 22.4998 6.55999 22.4998 12.1V17.8C22.4998 18.21 22.1598 18.55 21.7498 18.55C21.3398 18.55 20.9998 18.21 20.9998 17.8V12.1C20.9998 7.38999 17.1698 3.54999 12.4498 3.54999C10.1398 3.54999 7.99982 4.43999 6.40982 6.05999C4.80982 7.68999 3.95982 9.85999 3.99982 12.18V17.89C3.99982 18.31 3.66982 18.65 3.24982 18.65Z" fill="#113DBC"/>
<path d="M6.44 12.45H6.31C4.21 12.45 2.5 14.16 2.5 16.26V18.14C2.5 20.24 4.21 21.95 6.31 21.95H6.44C8.54 21.95 10.25 20.24 10.25 18.14V16.26C10.25 14.16 8.54 12.45 6.44 12.45Z" fill="#113DBC"/>
<path d="M18.69 12.45H18.56C16.46 12.45 14.75 14.16 14.75 16.26V18.14C14.75 20.24 16.46 21.95 18.56 21.95H18.69C20.79 21.95 22.5 20.24 22.5 18.14V16.26C22.5 14.16 20.79 12.45 18.69 12.45Z" fill="#113DBC"/>
</svg>
