<svg xmlns="http://www.w3.org/2000/svg" width="15.32" height="13.788" viewBox="0 0 15.32 13.788">
    <path fill="#9cafb1" d="M9.66 3a6.14 6.14 0 0 0-6.128 6.128v.766A1.537 1.537 0 0 0 2 11.426v1.532a1.537 1.537 0 0 0 1.532 1.532h1.532V9.128a4.6 4.6 0 1 1 9.192 0v6.128h-3.131a1.148 1.148 0 1 0-1.164 1.528.766.766 0 0 0 .082 0h4.213a1.543 1.543 0 0 0 1.532-1.532v-.762a1.537 1.537 0 0 0 1.532-1.532v-1.532a1.537 1.537 0 0 0-1.532-1.532v-.766A6.14 6.14 0 0 0 9.66 3z" transform="translate(-2 -3)"/>
</svg>
