<svg id="vector" xmlns="http://www.w3.org/2000/svg" width="33.407" height="38.544" viewBox="0 0 33.407 38.544"><path fill="#472b29" d="M22.031,38.544a0.468,0.468 0,0 1,-0.469 -0.469L21.562,31.378a0.47,0.47 0,0 1,0.143 -0.337,0.437 0.437,0 0,1 0.341,-0.131c0.033,0 3.352,0.1 5.317,0a2.017,2.017 0,0 0,1.489 -0.64,3.949 3.949,0 0,0 0.633,-2.791l-0.557,-6.1a0.469,0.469 0,0 1,0.414 -0.501,20.467 20.467,0 0,0 2.69,-0.516 0.518,0.518 0,0 0,0.378 -0.374,1.916 1.916,0 0,0 -0.236,-1.457L28.611,12.917a0.466,0.466 0,0 1,-0.016 -0.474c0.042,-0.078 0.088,-0.157 0.136,-0.24a2.832,2.832 0,0 0,0.222 -2.764c-2.368,-6.512 -7.589,-9.1 -16.924,-8.383 -8.62,0.663 -10.379,9.454 -10.956,12.343 -0.649,3.241 1.227,7.271 3.244,9.646a12.374,12.374 0,0 1,2.789 7.667v4.686a0.469,0.469 0,0 1,-0.937 0v-4.686a11.5,11.5 0,0 0,-2.566 -7.06c-2.231,-2.625 -4.163,-6.871 -3.45,-10.437 1.643,-8.212 5.614,-12.618 11.8,-13.095 9.826,-0.753 15.34,2.022 17.882,9.01a3.752,3.752 0,0 1,-0.285 3.522l3.391,5.341a2.793,2.793 0,0 1,0.355 2.292,1.463 1.463,0 0,1 -1.018,0.977 20.48,20.48 0,0 1,-2.378 0.484l0.517,5.661a4.694,4.694 0,0 1,-0.866 3.488,2.947 2.947,0 0,1 -2.143,0.955c-1.568,0.08 -3.906,0.038 -4.911,0.013L22.497,38.078a0.467,0.467 0,0 1,-0.466 0.466z" id="path_0"/><path fill="#472b29" d="M18.176,7.315a7.7,7.7 0,0 1,0.951 0.393,2.885 2.885,0 0,0 0.844,2.764 2.927,2.927 0,0 0,2.081 0.894,3.121 3.121,0 0,0 0.665,-0.074c0.137,0.292 0.282,0.649 0.391,0.954a3.041,3.041 0,0 0,-0.013 5.035,7.668 7.668,0 0,1 -0.4,0.967 3.217,3.217 0,0 0,-0.612 -0.06,2.942 2.942,0 0,0 -2.269,1.1 2.885,2.885 0,0 0,-0.665 2.5,7.733 7.733,0 0,1 -0.981,0.406 3.028,3.028 0,0 0,-2.517 -1.307h-0.042a3.011,3.011 0,0 0,-2.431 1.319,7.615 7.615,0 0,1 -0.983,-0.4 2.894,2.894 0,0 0,-0.88 -2.712,2.925 2.925,0 0,0 -2.064,-0.874 3.157,3.157 0,0 0,-0.621 0.064,7.6 7.6,0 0,1 -0.407,-0.961 3.042,3.042 0,0 0,-0.035 -5.037,7.785 7.785,0 0,1 0.388,-0.957 3.146,3.146 0,0 0,0.649 0.07,2.926 2.926,0 0,0 2.111,-0.926 2.882,2.882 0,0 0,0.809 -2.745,7.818 7.818,0 0,1 0.951,-0.4 2.87,2.87 0,0 0,2.514 1.362c0.09,0 0.182,0 0.276,-0.011a2.863,2.863 0,0 0,2.3 -1.36m-2.547,9.876a2.44,2.44 0,1 0,-0.009 0m2.036,-10.993a2.055,2.055 0,0 1,-1.863 1.544c-0.071,0.005 -0.14,0.008 -0.208,0.008A2.077,2.077 0,0 1,13.577 6.215a8.724,8.724 0,0 0,-2.576 1.08,2.06 2.06,0 0,1 -0.339,2.52 1.976,1.976 0,0 1,-1.443 0.646,2.63 2.63,0 0,1 -1.1,-0.266 8.652,8.652 0,0 0,-1.049 2.583,2.126 2.126,0 0,1 0.029,4.071 8.621,8.621 0,0 0,1.081 2.559,2.621 2.621,0 0,1 1.062,-0.25 1.976,1.976 0,0 1,1.411 0.608,2.063 2.063,0 0,1 0.414,2.494 8.659,8.659 0,0 0,2.573 1.049c0.013,-0.027 0.024,-0.044 0.031,-0.061a2.12,2.12 0,0 1,1.946 -1.426h0.03a2.1,2.1 0,0 1,2 1.376c0.026,0.064 0.054,0.084 0.094,0.084a0.3,0.3 0,0 0,0.07 -0.011,8.724 8.724,0 0,0 2.342,-0.969c0.04,-0.024 0.078,-0.052 0.11,-0.072a2.058,2.058 0,0 1,0.257 -2.332,2 2,0 0,1 1.557,-0.771 2.726,2.726 0,0 1,1.061 0.24,8.633 8.633,0 0,0 1.067,-2.562 2.129,2.129 0,0 1,0 -4.069,7.848 7.848,0 0,0 -1.068,-2.571 2.573,2.573 0,0 1,-1.086 0.266,1.98 1.98,0 0,1 -1.423,-0.623 2.072,2.072 0,0 1,-0.369 -2.54,8.563 8.563,0 0,0 -2.584,-1.066zM15.639,16.257a1.5,1.5 0,1 1,0.007 -3.006h0.015a1.5,1.5 0,0 1,-0.021 3.006z" id="path_1"/><path fill="#472b29" d="M11.235,14.922a0.167,0.167 0,0 1,-0.167 -0.167,4.573 4.573,0 0,1 6.514,-4.14 0.168,0.168 0,0 1,-0.143 0.3,4.238 4.238,0 0,0 -6.037,3.836 0.167,0.167 0,0 1,-0.167 0.171zM15.635,19.322a4.553,4.553 0,0 1,-4.363 -3.2,0.167 0.167,0 0,1 0.319,-0.1 4.238,4.238 0,0 0,6.655 2.067,0.168 0.168,0 1,1 0.207,0.264 4.533,4.533 0,0 1,-2.809 0.973zM19.078,17.666a0.166,0.166 0,0 1,-0.1 -0.037,0.168 0.168,0 0,1 -0.026,-0.236 4.244,4.244 0,0 0,0.636 -4.187,0.166 0.166,0 0,1 0.1,-0.216 0.168,0.168 0,0 1,0.216 0.1,4.576 4.576,0 0,1 -0.685,4.518 0.171,0.171 0,0 1,-0.136 0.062z" id="path_2"/><path fill="#472b29" d="M19.27,12.425a0.168,0.168 0,0 1,-0.138 -0.072,4.282 4.282,0 0,0 -0.819,-0.886 0.167,0.167 0,1 1,0.212 -0.259,4.6 4.6,0 0,1 0.882,0.955 0.168,0.168 0,0 1,-0.043 0.233,0.176 0.176,0 0,1 -0.094,0.029z" id="path_3"/><path fill="#fed5b3" d="M17.178,29.728a10.482,10.482 0,0 0,3.235 1.1" id="path_4"/><path fill="#472b29" d="M20.414,31.163a0.31,0.31 0,0 1,-0.056 0,10.788 10.788,0 0,1 -3.338,-1.131 0.335,0.335 0,0 1,0.317 -0.59,10.129 10.129,0 0,0 3.132,1.06 0.335,0.335 0,0 1,-0.055 0.665z" id="path_5"/><path fill="#fed5b3" d="M15.281,28.368a6.062,6.062 0,0 0,0.741 0.629" id="path_6"/><path fill="#472b29" d="M16.022,29.334a0.334,0.334 0,0 1,-0.2 -0.066,6.3 6.3,0 0,1 -0.786,-0.669 0.335,0.335 0,0 1,0.487 -0.459,5.806 5.806,0 0,0 0.7,0.59 0.335,0.335 0,0 1,-0.2 0.6z" id="path_7"/><path fill="#fed5b3" d="M10.248,3.294a8.523,8.523 0,0 0,-3.236 2.063" id="path_8"/><path fill="#472b29" d="M7.011,5.524a0.163,0.163 0,0 1,-0.115 -0.046,0.168 0.168,0 0,1 -0.006,-0.237 8.623,8.623 0,0 1,3.3 -2.1,0.167 0.167,0 1,1 0.116,0.313 8.276,8.276 0,0 0,-3.175 2.018,0.168 0.168,0 0,1 -0.12,0.052z" id="path_9"/><path fill="#fed5b3" d="M12.994,2.679a8.678,8.678 0,0 0,-1.285 0.19c-0.212,0.046 -0.444,0.1 -0.689,0.172" id="path_10"/><path fill="#472b29" d="M11.019,3.209a0.168,0.168 0,0 1,-0.046 -0.329c0.249,-0.071 0.484,-0.129 0.7,-0.175a8.821,8.821 0,0 1,1.313 -0.194,0.172 0.172,0 0,1 0.175,0.159 0.168,0.168 0,0 1,-0.159 0.175,8.553 8.553,0 0,0 -1.258,0.186c-0.209,0.045 -0.436,0.1 -0.679,0.17a0.132,0.132 0,0 1,-0.046 0.008z" id="path_11"/></svg>