<svg width="360" height="516" viewBox="0 0 360 516" fill="none" xmlns="http://www.w3.org/2000/svg">
<mask id="mask0_631_36437" style="mask-type:alpha" maskUnits="userSpaceOnUse" x="0" y="0" width="360" height="516">
<rect width="360" height="516" fill="#D9D9D9"/>
</mask>
<g mask="url(#mask0_631_36437)">
<g opacity="0.3">
<path d="M407.485 478.82H-1V492.203H407.485V478.82Z" fill="#D7E8F7"/>
<path d="M407.485 474.711H-1V478.873H407.485V474.711Z" fill="#C3D9ED"/>
</g>
<g opacity="0.6">
<path d="M74.2811 36.5518C76.2342 24.3696 67.9418 12.9106 55.7595 10.9576C43.5772 9.00449 32.1183 17.2969 30.1652 29.4792C28.2122 41.6614 36.5046 53.1204 48.6868 55.0734C60.8691 57.0265 72.3281 48.7341 74.2811 36.5518Z" fill="#C3D9ED"/>
<path d="M68.5198 45.5485C75.4376 35.3329 72.7641 21.4435 62.5485 14.5258C52.3328 7.60802 38.4435 10.2815 31.5257 20.4971C24.608 30.7127 27.2814 44.6021 37.497 51.5199C47.7127 58.4376 61.602 55.7642 68.5198 45.5485Z" fill="#E8F3F7"/>
<path d="M61.0855 48.8562C69.7687 42.7913 71.8912 30.8357 65.8264 22.1525C59.7615 13.4693 47.8058 11.3468 39.1227 17.4116C30.4395 23.4765 28.3169 35.4322 34.3818 44.1153C40.4467 52.7985 52.4023 54.9211 61.0855 48.8562Z" fill="white"/>
<path d="M33.0742 33.1386C33.0742 22.9173 41.0827 14.54 51.146 14.0131C50.7772 14.0131 50.4611 13.9604 50.0922 13.9604C39.5021 13.9604 30.9141 22.5485 30.9141 33.1386C30.9141 43.7288 39.5021 52.3168 50.0922 52.3168C50.4611 52.3168 50.8299 52.3168 51.146 52.2641C41.0827 51.6846 33.0742 43.36 33.0742 33.1386Z" fill="#C3D9ED"/>
<path d="M60.366 33.4021H50.092C49.6178 33.4021 49.249 33.0333 49.249 32.5591C49.249 32.0849 49.6178 31.7161 50.092 31.7161H60.366C60.8402 31.7161 61.209 32.0849 61.209 32.5591C61.2617 33.0333 60.8929 33.4021 60.366 33.4021Z" fill="#C3D9ED"/>
<path d="M58.6806 35.5617C58.4698 35.5617 58.2064 35.4563 58.0483 35.2982C57.7322 34.9294 57.7322 34.4026 58.101 34.0864L59.5763 32.6639L57.9956 31.4521C57.6268 31.1886 57.5214 30.6091 57.8376 30.2403C58.101 29.8715 58.6806 29.7661 59.0494 30.0822L61.473 31.8736C61.6837 32.0316 61.7891 32.2424 61.8418 32.5058C61.8418 32.7693 61.7364 33.0327 61.5784 33.1908L59.3655 35.2982C59.1021 35.4563 58.8913 35.5617 58.6806 35.5617Z" fill="#C3D9ED"/>
<path d="M50.092 33.4019C49.6178 33.4019 49.249 33.0331 49.249 32.5589V16.2258C49.249 15.7516 49.6178 15.3828 50.092 15.3828C50.5662 15.3828 50.935 15.7516 50.935 16.2258V32.5589C50.9877 33.0331 50.5662 33.4019 50.092 33.4019Z" fill="#C3D9ED"/>
<path d="M48.3008 19.5451C48.1428 19.5451 47.932 19.4924 47.774 19.387C47.4051 19.1236 47.2998 18.5441 47.6159 18.1752L49.4073 15.7516C49.5653 15.5409 49.7761 15.4355 50.0395 15.3828C50.3029 15.3828 50.5664 15.4882 50.7244 15.6462L52.8319 17.8591C53.1481 18.2279 53.1481 18.7548 52.7793 19.0709C52.4104 19.387 51.8836 19.387 51.5674 19.0182L50.1449 17.543L48.9331 19.1236C48.8277 19.387 48.5643 19.5451 48.3008 19.5451Z" fill="#C3D9ED"/>
</g>
<path d="M69.1743 384.082L53.3985 492.007H46.2529L55.7184 379.906L69.1743 384.082Z" fill="#383838"/>
<path d="M189.535 492.008H182.389L166.613 384.083L180.069 379.814L189.535 492.008Z" fill="#383838"/>
<path d="M108.986 492.008H101.84L86.0645 384.083L99.5203 379.814L108.986 492.008Z" fill="#383838"/>
<path d="M58.3171 238.667L83.3728 384.547H-25.9443L-51 238.667H58.3171V238.667Z" fill="#B5B5B5"/>
<path d="M87.7348 238.667L112.79 384.547H4.77251L-20.2832 238.667H87.7348V238.667Z" fill="#8C8C8C"/>
<path d="M114.553 384.642H-14.0661C-20.6548 384.642 -25.9443 379.259 -25.9443 372.671V345.109C-25.9443 338.52 -20.6548 333.138 -14.0661 333.138H114.553C121.142 333.138 126.432 338.52 126.432 345.109V372.671C126.432 379.259 121.142 384.642 114.553 384.642Z" fill="#B5B5B5"/>
<path d="M181.183 384.642H67.3184V333.138H181.275V384.642H181.183Z" fill="#8C8C8C"/>
<path d="M151.116 256.946C147.961 257.132 145.27 254.812 145.084 251.657C144.898 248.502 147.126 245.81 150.281 245.532V245.439C161.695 244.511 169.026 235.417 169.583 224.281L185.08 223.075C186.844 244.79 170.325 255.554 151.209 257.039L151.116 256.946Z" fill="#A05B4B"/>
<path d="M23.9812 286.643C25.8371 292.303 31.8691 295.459 37.5298 293.603L152.136 257.04H152.229C155.292 256.112 156.869 252.864 155.941 249.802C155.013 246.739 151.765 245.162 148.703 246.09C148.703 246.09 148.61 246.09 148.61 246.182V246.09C148.61 246.09 31.4979 273.001 31.0339 273.094C25.3731 274.857 22.218 280.982 23.9812 286.643Z" fill="#A05B4B"/>
<path d="M84.3005 213.703H44.5826H44.4898C33.6323 213.703 24.8164 222.519 24.8164 233.376V293.232H124.018V253.235C123.926 231.427 106.201 213.703 84.3005 213.703Z" fill="#D8D8D8"/>
<path d="M47.6455 213.703L86.0643 230.314V213.703H47.6455Z" fill="#383838"/>
<path d="M94.137 243.676V233.746L86.0635 229.849V239.778L94.137 243.676Z" fill="#304E9C"/>
<path d="M94.1367 243.679V282.933H103.973L94.1367 243.679Z" fill="#304E9C"/>
<path d="M72.3298 215.837C72.3298 215.837 79.9393 225.581 79.9393 225.395L83.8368 197.834L105.459 200.896L100.912 168.602C99.6127 162.292 94.5087 157.095 87.7344 156.167C79.1969 154.961 71.2162 160.9 70.0098 169.438L66.2979 195.328L75.0209 196.535L72.3298 215.837Z" fill="#CC7A5A"/>
<path d="M90.7967 174.171C89.7759 173.986 88.8479 174.728 88.6623 175.749C88.4767 176.769 89.2191 177.697 90.2399 177.883C91.2607 178.069 92.1887 177.326 92.3743 176.305C92.5599 175.285 91.8175 174.357 90.7967 174.171Z" fill="#000851"/>
<path d="M100.726 188.647L99.1485 177.789C99.0557 177.232 98.5917 176.861 98.0349 176.954C97.4781 177.047 97.107 177.511 97.1998 178.068L98.7773 188.925C98.8701 189.389 99.2413 189.667 99.6125 189.76C99.7053 189.76 99.7981 189.76 99.8909 189.76C100.448 189.667 100.819 189.203 100.726 188.647Z" fill="#000851"/>
<path d="M157.24 478.552H104.252V492.101C104.252 492.101 157.055 492.101 157.147 492.101C160.952 492.101 163.922 489.039 163.922 485.327C164.014 481.615 160.952 478.552 157.24 478.552Z" fill="black"/>
<path d="M264.331 375.173L226.933 412.664L236.584 422.315L273.982 384.917C276.673 382.226 276.673 377.957 273.982 375.266C271.29 372.575 267.022 372.575 264.331 375.173Z" fill="black"/>
<path d="M104.345 293.233H24.8164V313.092C24.8164 324.042 33.7251 332.951 44.6754 332.951H104.345V478.46H144.156V293.233H104.345Z" fill="#191919"/>
<path d="M255.051 384.454L124.019 253.515L66.2979 293.233H107.501L226.933 412.572L255.051 384.454Z" fill="#030612"/>
<path d="M49.2229 233.097C50.5221 226.416 46.2533 220.012 39.6646 218.62C32.9831 217.321 26.5799 221.59 25.1879 228.179L15.2585 277.084C14.0521 282.93 17.8568 288.591 23.7032 289.797C29.5495 291.004 35.2102 287.199 36.4166 281.353C36.4166 281.26 36.4166 281.26 36.4166 281.167C36.5094 281.26 49.1301 233.561 49.2229 233.097Z" fill="#CC7A5A"/>
<path d="M41.5208 262.143C45.0471 248.78 49.1303 233.376 49.2231 233.097C50.5223 226.416 46.2535 220.013 39.6648 218.621C32.9833 217.322 26.5801 221.59 25.1881 228.179L19.249 257.596L41.5208 262.143Z" fill="#D8D8D8"/>
<path d="M21.8474 244.884L19.249 257.597L41.6136 262.145C42.7271 257.969 43.8407 253.607 44.9543 249.617L21.8474 244.884Z" fill="#383838"/>
<path d="M197.516 207.58L181.833 207.116C181.554 207.116 181.276 207.116 180.997 207.209C180.812 207.116 180.533 207.116 180.255 207.116C178.306 207.023 175.801 208.229 174.687 209.807L146.198 247.855C145.084 249.339 145.734 250.639 147.59 250.731C147.868 250.731 148.147 250.731 148.425 250.639C148.611 250.731 148.889 250.731 149.167 250.731L164.85 251.195C166.799 251.288 169.305 250.082 170.418 248.504L198.908 210.457C200.021 208.879 199.372 207.58 197.516 207.58Z" fill="black"/>
<path d="M142.022 253.699C138.867 253.885 136.176 251.565 135.99 248.409C135.712 245.254 138.032 242.563 141.187 242.285V242.192C152.601 241.264 159.933 232.17 160.489 221.034L175.987 219.827C177.75 241.542 161.232 252.307 142.115 253.792L142.022 253.699Z" fill="#CC7A5A"/>
<path d="M14.888 283.301C16.744 288.962 22.7759 292.117 28.4367 290.261L142.951 253.698H143.043C146.106 252.77 147.683 249.522 146.755 246.46C145.827 243.397 142.579 241.82 139.517 242.748C139.517 242.748 139.424 242.748 139.424 242.841V242.748C139.424 242.748 22.3119 269.66 21.8479 269.752C16.28 271.608 13.1248 277.64 14.888 283.301Z" fill="#CC7A5A"/>
<path d="M92.3462 147C88.2115 147 84.6539 150.033 83.8846 154.045H80.1346C74.4615 154.045 69.3654 156.589 65.9039 160.6H65.8077C62.8269 164.025 61 168.526 61 173.516V206L74.5 196L76.4808 168.428C76.4808 166.96 76.0962 165.688 75.4231 164.514H92.3462C97.0577 164.514 101 160.6 101 155.708C101 150.816 97.1538 147 92.3462 147Z" fill="#030612"/>
<g style="mix-blend-mode:luminosity" opacity="0.7" clip-path="url(#clip0_631_36437)">
<rect x="200" y="83" width="134" height="40" rx="8" fill="white"/>
<g clip-path="url(#clip1_631_36437)">
<path d="M219.819 115.001C223.136 115.001 225.826 114.616 225.826 114.142C225.826 113.668 223.136 113.284 219.819 113.284C216.502 113.284 213.812 113.668 213.812 114.142C213.812 114.616 216.502 115.001 219.819 115.001Z" fill="url(#paint0_linear_631_36437)"/>
<path d="M226.762 107.762L220.499 114.02C220.318 114.201 220.073 114.303 219.817 114.303C219.561 114.303 219.315 114.201 219.134 114.02L212.874 107.76C211.962 106.848 211.239 105.766 210.745 104.575C210.252 103.383 209.998 102.106 209.998 100.817C209.998 99.5275 210.252 98.2506 210.745 97.0593C211.239 95.868 211.962 94.7856 212.874 93.8738C213.786 92.962 214.868 92.2387 216.06 91.7452C217.251 91.2518 218.528 90.9978 219.817 90.9978C221.107 90.9978 222.384 91.2518 223.575 91.7452C224.766 92.2387 225.849 92.962 226.76 93.8738C227.673 94.7855 228.396 95.8679 228.89 97.0594C229.384 98.2508 229.638 99.5278 229.638 100.818C229.638 102.107 229.385 103.384 228.891 104.576C228.398 105.767 227.674 106.85 226.762 107.762Z" fill="url(#paint1_linear_631_36437)"/>
<path d="M219.819 105.249C222.634 105.249 224.915 102.968 224.915 100.153C224.915 97.3384 222.634 95.0566 219.819 95.0566C217.004 95.0566 214.723 97.3384 214.723 100.153C214.723 102.968 217.004 105.249 219.819 105.249Z" fill="url(#paint2_linear_631_36437)"/>
<path d="M219.819 101.625C219.077 101.625 218.344 101.786 217.672 102.099C216.999 102.412 216.403 102.869 215.926 103.437C216.404 104.004 217 104.461 217.672 104.774C218.345 105.087 219.078 105.249 219.819 105.249C220.561 105.249 221.294 105.087 221.967 104.774C222.639 104.461 223.235 104.004 223.713 103.437C223.236 102.869 222.64 102.412 221.967 102.099C221.294 101.786 220.561 101.625 219.819 101.625V101.625Z" fill="url(#paint3_linear_631_36437)"/>
<path d="M219.817 101.625C219.176 101.626 218.541 101.75 217.945 101.989C218.103 102.355 218.364 102.666 218.697 102.885C219.03 103.104 219.419 103.221 219.817 103.221C220.216 103.221 220.605 103.104 220.938 102.885C221.271 102.666 221.532 102.355 221.689 101.989C221.094 101.75 220.459 101.626 219.817 101.625V101.625Z" fill="url(#paint4_linear_631_36437)"/>
<path d="M221.86 99.1395C221.86 99.543 221.74 99.9375 221.516 100.273C221.292 100.608 220.973 100.87 220.6 101.024C220.227 101.179 219.817 101.219 219.421 101.14C219.026 101.062 218.662 100.867 218.377 100.582C218.092 100.297 217.897 99.9333 217.818 99.5375C217.74 99.1418 217.78 98.7316 217.935 98.3588C218.089 97.986 218.351 97.6674 218.686 97.4432C219.022 97.219 219.416 97.0994 219.819 97.0994C220.361 97.0994 220.879 97.3143 221.262 97.6969C221.645 98.0795 221.86 98.5984 221.86 99.1395V99.1395Z" fill="url(#paint5_linear_631_36437)"/>
</g>
<rect x="237.639" y="96.5" width="83" height="13" rx="2" fill="#DCE1FA"/>
<path d="M200 150C200 145.582 203.582 142 208 142H326C330.418 142 334 145.582 334 150V174C334 178.418 330.418 182 326 182H208C203.582 182 200 178.418 200 174V150Z" fill="white"/>
<g clip-path="url(#clip2_631_36437)">
<path d="M226.734 171.141C226.487 171.141 226.251 171.043 226.076 170.868C225.902 170.694 225.804 170.458 225.804 170.211V167.034H220.225V170.211C220.225 170.458 220.127 170.694 219.952 170.868C219.778 171.043 219.542 171.141 219.295 171.141C219.049 171.141 218.812 171.239 218.638 171.413C218.463 171.588 218.365 171.824 218.365 172.071C218.365 172.317 218.463 172.554 218.638 172.728C218.812 172.903 219.049 173.001 219.295 173.001H226.734C226.98 173.001 227.217 172.903 227.391 172.728C227.566 172.554 227.664 172.317 227.664 172.071C227.664 171.824 227.566 171.588 227.391 171.413C227.217 171.239 226.98 171.141 226.734 171.141V171.141Z" fill="url(#paint6_linear_631_36437)"/>
<path d="M220.229 167.73H225.808V170.21H220.229V167.73Z" fill="url(#paint7_linear_631_36437)"/>
<path d="M211.719 151H234.116C234.545 151 234.957 151.171 235.261 151.474C235.565 151.778 235.735 152.19 235.735 152.619V167.596C235.735 167.846 235.636 168.086 235.459 168.263C235.281 168.441 235.041 168.54 234.791 168.54H211.719C211.289 168.54 210.877 168.37 210.574 168.066C210.27 167.762 210.1 167.35 210.1 166.921V152.619C210.1 152.19 210.27 151.778 210.574 151.474C210.877 151.171 211.289 151 211.719 151V151Z" fill="url(#paint8_linear_631_36437)"/>
<path d="M210 165.561V167.794C210 168.188 210.156 168.565 210.435 168.844C210.713 169.122 211.091 169.278 211.484 169.278H234.549C234.943 169.278 235.321 169.122 235.599 168.844C235.877 168.565 236.034 168.188 236.034 167.794V165.561H210Z" fill="url(#paint9_linear_631_36437)"/>
<path d="M223.017 163.082C224.135 163.086 225.25 162.976 226.346 162.754C226.427 162.737 226.501 162.699 226.562 162.644C226.624 162.588 226.668 162.517 226.692 162.438C226.716 162.359 226.718 162.275 226.698 162.195C226.678 162.114 226.637 162.041 226.578 161.983L223.017 158.421L219.456 161.983C219.397 162.041 219.356 162.114 219.336 162.195C219.316 162.275 219.318 162.359 219.342 162.438C219.366 162.517 219.41 162.588 219.472 162.644C219.533 162.699 219.608 162.737 219.688 162.754C220.784 162.976 221.899 163.086 223.017 163.082V163.082Z" fill="url(#paint10_linear_631_36437)"/>
<path d="M223.018 158.421L220.075 161.364C220.856 162.144 221.914 162.583 223.018 162.583C224.122 162.583 225.18 162.144 225.961 161.364L223.018 158.421Z" fill="url(#paint11_linear_631_36437)"/>
<path d="M223.017 162.083C225.316 162.083 227.179 160.22 227.179 157.922C227.179 155.624 225.316 153.761 223.017 153.761C220.719 153.761 218.856 155.624 218.856 157.922C218.856 160.22 220.719 162.083 223.017 162.083Z" fill="url(#paint12_linear_631_36437)"/>
<path opacity="0.44" d="M226.013 157.922H220.021V160.806C220.409 161.21 220.874 161.532 221.389 161.751C221.904 161.971 222.458 162.084 223.017 162.084C223.577 162.084 224.131 161.971 224.646 161.751C225.161 161.532 225.626 161.21 226.013 160.806V157.922Z" fill="url(#paint13_linear_631_36437)"/>
<path d="M226.013 157.921C226.013 158.514 225.838 159.093 225.509 159.586C225.179 160.078 224.711 160.462 224.164 160.689C223.617 160.916 223.014 160.975 222.433 160.859C221.852 160.744 221.318 160.459 220.899 160.04C220.48 159.621 220.195 159.087 220.079 158.506C219.963 157.924 220.023 157.322 220.25 156.775C220.476 156.227 220.86 155.759 221.353 155.43C221.846 155.101 222.425 154.925 223.017 154.925C223.812 154.925 224.574 155.241 225.136 155.803C225.698 156.364 226.013 157.126 226.013 157.921V157.921Z" fill="url(#paint14_linear_631_36437)"/>
<path d="M225.487 157.922C225.487 158.411 225.342 158.888 225.071 159.294C224.8 159.7 224.414 160.017 223.963 160.204C223.512 160.391 223.016 160.44 222.537 160.345C222.058 160.25 221.618 160.014 221.272 159.669C220.927 159.324 220.692 158.884 220.596 158.405C220.501 157.926 220.55 157.429 220.737 156.978C220.924 156.527 221.24 156.141 221.646 155.87C222.052 155.599 222.53 155.454 223.018 155.454C223.673 155.454 224.301 155.714 224.764 156.177C225.227 156.64 225.487 157.268 225.487 157.922V157.922Z" fill="url(#paint15_linear_631_36437)"/>
<path d="M221.692 160.004C222.088 160.257 222.548 160.392 223.017 160.392C223.486 160.392 223.946 160.257 224.342 160.004V157.922H221.692V160.004Z" fill="url(#paint16_linear_631_36437)"/>
<path d="M223.017 159.248C223.749 159.248 224.342 158.655 224.342 157.923C224.342 157.191 223.749 156.598 223.017 156.598C222.286 156.598 221.692 157.191 221.692 157.923C221.692 158.655 222.286 159.248 223.017 159.248Z" fill="url(#paint17_linear_631_36437)"/>
<path d="M223.812 157.922C223.813 158.08 223.766 158.234 223.679 158.364C223.591 158.495 223.467 158.597 223.322 158.658C223.177 158.718 223.017 158.734 222.862 158.703C222.708 158.673 222.566 158.597 222.455 158.486C222.344 158.375 222.268 158.233 222.237 158.078C222.206 157.924 222.222 157.764 222.282 157.619C222.342 157.473 222.444 157.349 222.575 157.262C222.706 157.174 222.86 157.128 223.017 157.128C223.228 157.128 223.43 157.211 223.579 157.36C223.728 157.509 223.812 157.712 223.812 157.922V157.922Z" fill="url(#paint18_linear_631_36437)"/>
<path d="M222.454 157.719C222.633 157.719 222.778 157.574 222.778 157.396C222.778 157.217 222.633 157.072 222.454 157.072C222.275 157.072 222.13 157.217 222.13 157.396C222.13 157.574 222.275 157.719 222.454 157.719Z" fill="url(#paint19_linear_631_36437)"/>
<path d="M222.348 157.962C222.348 157.987 222.341 158.012 222.327 158.033C222.313 158.054 222.293 158.07 222.27 158.079C222.247 158.089 222.221 158.092 222.197 158.087C222.172 158.082 222.15 158.07 222.132 158.052C222.114 158.034 222.102 158.012 222.097 157.987C222.092 157.962 222.095 157.937 222.104 157.914C222.114 157.891 222.13 157.871 222.151 157.857C222.172 157.843 222.196 157.835 222.222 157.835C222.255 157.836 222.287 157.849 222.311 157.873C222.335 157.897 222.348 157.929 222.348 157.962V157.962Z" fill="url(#paint20_linear_631_36437)"/>
</g>
<rect x="244.035" y="155.5" width="77" height="13" rx="2" fill="#DCE1FA"/>
<path d="M200 32C200 27.5817 203.582 24 208 24H326C330.418 24 334 27.5817 334 32V56C334 60.4183 330.418 64 326 64H208C203.582 64 200 60.4183 200 56V32Z" fill="white"/>
<path d="M231.325 31H214.675C213.197 31 212 32.1308 212 33.5257V52.3963C212 53.7912 213.197 54.9219 214.675 54.9219H231.325C232.803 54.9219 234 53.7912 234 52.3963V33.5257C234 32.1308 232.803 31 231.325 31Z" fill="url(#paint21_linear_631_36437)"/>
<path d="M216.714 40.3408V54.9999H229.015V45.7931L223.431 46.6115L216.714 40.3408Z" fill="url(#paint22_linear_631_36437)"/>
<path d="M211.838 37.2122H214.595V38.3082C214.595 38.5928 214.475 38.8658 214.262 39.0671C214.048 39.2684 213.759 39.3815 213.458 39.3815H211.838V37.2122Z" fill="url(#paint23_linear_631_36437)"/>
<path d="M213.216 38.5145H211.378C211.197 38.5145 211.018 38.4808 210.851 38.4154C210.683 38.3499 210.531 38.254 210.403 38.1331C210.275 38.0122 210.174 37.8687 210.105 37.7108C210.035 37.5528 210 37.3835 210 37.2126V37.2126C210 36.8675 210.145 36.5365 210.404 36.2925C210.662 36.0485 211.013 35.9114 211.378 35.9114H213.216C213.581 35.9114 213.932 36.0485 214.19 36.2925C214.449 36.5365 214.594 36.8675 214.594 37.2126C214.594 37.3835 214.559 37.5528 214.489 37.7108C214.42 37.8687 214.319 38.0122 214.191 38.1331C214.063 38.254 213.911 38.3499 213.743 38.4154C213.576 38.4808 213.397 38.5145 213.216 38.5145V38.5145Z" fill="url(#paint24_linear_631_36437)"/>
<path d="M211.838 42.8879H214.595V43.9839C214.595 44.2686 214.475 44.5416 214.262 44.7429C214.048 44.9442 213.759 45.0573 213.458 45.0573H211.838V42.8879Z" fill="url(#paint25_linear_631_36437)"/>
<path d="M213.216 44.1902H211.378C211.012 44.1901 210.662 44.0528 210.404 43.8087C210.145 43.5646 210 43.2336 210 42.8884C210 42.5433 210.145 42.2123 210.404 41.9683C210.662 41.7243 211.013 41.5872 211.378 41.5872H213.216C213.581 41.5872 213.932 41.7243 214.19 41.9683C214.449 42.2123 214.594 42.5433 214.594 42.8884C214.594 43.2336 214.449 43.5646 214.19 43.8087C213.932 44.0528 213.582 44.1901 213.216 44.1902V44.1902Z" fill="url(#paint26_linear_631_36437)"/>
<path d="M211.838 48.5635H214.595V49.6595C214.595 49.9441 214.475 50.2172 214.262 50.4184C214.048 50.6197 213.759 50.7328 213.458 50.7328H211.838V48.5635Z" fill="url(#paint27_linear_631_36437)"/>
<path d="M213.216 49.8658H211.378C211.197 49.8658 211.018 49.8321 210.851 49.7667C210.683 49.7012 210.531 49.6053 210.403 49.4844C210.275 49.3635 210.174 49.22 210.105 49.0621C210.035 48.9041 210 48.7349 210 48.5639C210 48.2188 210.145 47.8878 210.404 47.6438C210.662 47.3998 211.013 47.2627 211.378 47.2627H213.216C213.581 47.2627 213.932 47.3998 214.19 47.6438C214.449 47.8878 214.594 48.2188 214.594 48.5639C214.594 48.7349 214.559 48.9041 214.489 49.0621C214.42 49.22 214.319 49.3635 214.191 49.4844C214.063 49.6053 213.911 49.7012 213.743 49.7667C213.576 49.8321 213.397 49.8658 213.216 49.8658V49.8658Z" fill="url(#paint28_linear_631_36437)"/>
<path d="M228.91 44.9707C228.765 44.7889 228.566 44.6518 228.338 44.5766L228.193 44.5099C228.177 44.5029 226.549 43.7456 226.225 43.6361C226.031 43.5398 225.805 43.5163 225.592 43.5702C225.38 43.6241 225.197 43.7514 225.08 43.9269L224.423 44.6861C224.365 44.7523 224.287 44.7988 224.199 44.8187C224.111 44.8386 224.018 44.8307 223.935 44.7963V44.7963C223.217 44.5183 222.555 44.1266 221.977 43.638C221.479 43.2114 221.043 42.7245 220.68 42.1901C220.631 42.1188 220.608 42.0342 220.614 41.9494C220.621 41.8646 220.657 41.7842 220.717 41.7204C220.769 41.6638 220.82 41.6065 220.863 41.558C220.907 41.5095 220.956 41.4529 220.997 41.405C221.12 41.2694 221.222 41.1175 221.3 40.9543L221.341 40.8788C221.41 40.7488 221.444 40.6046 221.44 40.4592C221.436 40.3137 221.394 40.1715 221.317 40.0453C221.271 39.9559 220.955 39.2363 220.747 38.7604C220.637 38.5124 220.536 38.2807 220.465 38.1202C220.244 37.6266 219.731 37.3874 218.931 37.4044H218.885C218.494 37.4338 218.126 37.5876 217.84 37.8407C217.474 38.1574 217.184 38.5443 216.99 38.9754C216.795 39.4066 216.7 39.872 216.712 40.3405C216.801 41.4239 217.231 42.4573 217.948 43.3075L217.978 43.3465C218.665 44.2467 220.536 46.4438 223.079 47.412C224.879 48.0956 225.794 48.3015 226.401 48.3015C226.671 48.3014 226.939 48.2564 227.193 48.1687C227.556 48.0156 227.884 47.796 228.157 47.5225C228.43 47.249 228.642 46.927 228.783 46.5753C229.023 46.0711 229.068 45.5031 228.91 44.9707V44.9707Z" fill="url(#paint29_linear_631_36437)"/>
<rect x="243" y="37" width="77" height="13" rx="2" fill="#DCE1FA"/>
</g>
<g opacity="0.6">
<path d="M353.184 367.966C353.184 374.263 349.621 379.317 345.271 379.317C340.88 379.317 337.358 374.221 337.358 367.966C337.358 361.668 340.921 356.614 345.271 356.614C349.663 356.573 353.184 361.668 353.184 367.966Z" fill="#C3D9ED"/>
<path d="M358.154 359.39H332.345L336.985 333H353.514L358.154 359.39Z" fill="#E8F3F7"/>
<path d="M293.196 400.072H334.541V375.712H293.154V400.072H293.196Z" fill="#D7E8F7"/>
<path d="M296.841 395.557H331.06V379.524H296.841V395.557Z" fill="#E8F3F7"/>
<path d="M294.48 478.702H291L299.037 400.072H305.21L294.48 478.702Z" fill="#C3D9ED"/>
<path d="M321.201 478.702H317.721L323.065 400.072H329.238L321.201 478.702Z" fill="#C3D9ED"/>
<path d="M350.284 478.702H346.804L338.767 400.072H344.939L350.284 478.702Z" fill="#D7E8F7"/>
<path d="M334.541 400.072H374.85V375.712H334.541V400.072Z" fill="#C3D9ED"/>
<path d="M323.272 379.524C323.272 381.968 321.283 383.957 318.839 383.957H309.104C306.659 383.957 304.671 381.968 304.671 379.524H323.272Z" fill="#C3D9ED"/>
<path d="M332.014 372.315V372.439C332.014 374.221 330.564 375.712 328.741 375.712H301.979V369.042H328.741C330.522 369.084 332.014 370.534 332.014 372.315Z" fill="#C3D9ED"/>
<path d="M313.827 372.356V372.439C313.827 373.475 312.999 374.345 311.922 374.345H301.979C301.938 374.345 301.938 374.345 301.938 374.304V370.534C301.938 370.492 301.938 370.492 301.979 370.492H311.922C312.957 370.451 313.827 371.321 313.827 372.356Z" fill="#E8F3F7"/>
</g>
</g>
<defs>
<linearGradient id="paint0_linear_631_36437" x1="219.819" y1="116.074" x2="219.819" y2="111.256" gradientUnits="userSpaceOnUse">
<stop stop-color="white"/>
<stop offset="0.516" stop-color="#CCE2E6"/>
<stop offset="1" stop-color="#8FA1BB"/>
</linearGradient>
<linearGradient id="paint1_linear_631_36437" x1="221.193" y1="107.055" x2="221.055" y2="94.3542" gradientUnits="userSpaceOnUse">
<stop stop-color="#21C7E4"/>
<stop offset="0.56" stop-color="#1EB7E8"/>
<stop offset="1" stop-color="#1BA7EB"/>
</linearGradient>
<linearGradient id="paint2_linear_631_36437" x1="218.586" y1="98.3896" x2="220.115" y2="103.975" gradientUnits="userSpaceOnUse">
<stop stop-color="#1F377D"/>
<stop offset="1" stop-color="#0C1738"/>
</linearGradient>
<linearGradient id="paint3_linear_631_36437" x1="215.926" y1="106.267" x2="217.632" y2="76.7858" gradientUnits="userSpaceOnUse">
<stop stop-color="white"/>
<stop offset="0.516" stop-color="#CCE2E6"/>
<stop offset="1" stop-color="#8FA1BB"/>
</linearGradient>
<linearGradient id="paint4_linear_631_36437" x1="217.945" y1="104.486" x2="218.671" y2="98.5637" gradientUnits="userSpaceOnUse">
<stop stop-color="white"/>
<stop offset="0.516" stop-color="#CCE2E6"/>
<stop offset="1" stop-color="#8FA1BB"/>
</linearGradient>
<linearGradient id="paint5_linear_631_36437" x1="217.779" y1="106.268" x2="221.86" y2="77.1426" gradientUnits="userSpaceOnUse">
<stop stop-color="white"/>
<stop offset="0.516" stop-color="#CCE2E6"/>
<stop offset="1" stop-color="#8FA1BB"/>
</linearGradient>
<linearGradient id="paint6_linear_631_36437" x1="223.014" y1="173.735" x2="223.014" y2="165.406" gradientUnits="userSpaceOnUse">
<stop stop-color="#273A9B"/>
<stop offset="0.56" stop-color="#202F65"/>
<stop offset="1" stop-color="#021E2F"/>
</linearGradient>
<linearGradient id="paint7_linear_631_36437" x1="220.229" y1="172.948" x2="221.606" y2="167.563" gradientUnits="userSpaceOnUse">
<stop stop-color="#273A9B"/>
<stop offset="0.56" stop-color="#202F65"/>
<stop offset="1" stop-color="#021E2F"/>
</linearGradient>
<linearGradient id="paint8_linear_631_36437" x1="222.917" y1="157.806" x2="222.917" y2="149.211" gradientUnits="userSpaceOnUse">
<stop stop-color="#1DB4E8"/>
<stop offset="0.607" stop-color="#1790DE"/>
<stop offset="1" stop-color="#1481D2"/>
</linearGradient>
<linearGradient id="paint9_linear_631_36437" x1="210" y1="168.709" x2="210.584" y2="155.9" gradientUnits="userSpaceOnUse">
<stop stop-color="#273A9B"/>
<stop offset="0.56" stop-color="#202F65"/>
<stop offset="1" stop-color="#021E2F"/>
</linearGradient>
<linearGradient id="paint10_linear_631_36437" x1="223.017" y1="165.71" x2="223.017" y2="159.433" gradientUnits="userSpaceOnUse">
<stop stop-color="white"/>
<stop offset="0.516" stop-color="#CCE2E6"/>
<stop offset="1" stop-color="#8FA1BB"/>
</linearGradient>
<linearGradient id="paint11_linear_631_36437" x1="223.018" y1="166.724" x2="223.018" y2="159.753" gradientUnits="userSpaceOnUse">
<stop stop-color="white"/>
<stop offset="0.516" stop-color="#CCE2E6"/>
<stop offset="1" stop-color="#8FA1BB"/>
</linearGradient>
<linearGradient id="paint12_linear_631_36437" x1="223.017" y1="168.966" x2="223.017" y2="151.19" gradientUnits="userSpaceOnUse">
<stop stop-color="white"/>
<stop offset="0.855" stop-color="#CCE2E6"/>
<stop offset="1" stop-color="#8FA1BB"/>
</linearGradient>
<linearGradient id="paint13_linear_631_36437" x1="223.017" y1="168.447" x2="223.017" y2="155.937" gradientUnits="userSpaceOnUse">
<stop stop-color="white"/>
<stop offset="0.516" stop-color="#CCE2E6"/>
<stop offset="1" stop-color="#8FA1BB"/>
</linearGradient>
<linearGradient id="paint14_linear_631_36437" x1="223.017" y1="164.105" x2="223.017" y2="157.747" gradientUnits="userSpaceOnUse">
<stop offset="0.004" stop-color="#27E9DE"/>
<stop offset="0.524" stop-color="#03A4EC"/>
<stop offset="1" stop-color="#2547A8"/>
</linearGradient>
<linearGradient id="paint15_linear_631_36437" x1="223.018" y1="166.046" x2="223.018" y2="152.53" gradientUnits="userSpaceOnUse">
<stop offset="0.004" stop-color="#27E9DE"/>
<stop offset="0.524" stop-color="#03A4EC"/>
<stop offset="1" stop-color="#2547A8"/>
</linearGradient>
<linearGradient id="paint16_linear_631_36437" x1="223.017" y1="163.812" x2="223.017" y2="157.493" gradientUnits="userSpaceOnUse">
<stop offset="0.004" stop-color="#27E9DE"/>
<stop offset="0.524" stop-color="#03A4EC"/>
<stop offset="1" stop-color="#2547A8"/>
</linearGradient>
<linearGradient id="paint17_linear_631_36437" x1="223.017" y1="162.918" x2="223.017" y2="156.137" gradientUnits="userSpaceOnUse">
<stop offset="0.004" stop-color="#27E9DE"/>
<stop offset="0.524" stop-color="#03A4EC"/>
<stop offset="1" stop-color="#2547A8"/>
</linearGradient>
<linearGradient id="paint18_linear_631_36437" x1="223.017" y1="163.375" x2="223.017" y2="156.584" gradientUnits="userSpaceOnUse">
<stop offset="0.004" stop-color="#27E9DE"/>
<stop offset="0.524" stop-color="#03A4EC"/>
<stop offset="1" stop-color="#2547A8"/>
</linearGradient>
<linearGradient id="paint19_linear_631_36437" x1="224.145" y1="158.297" x2="220.675" y2="156.447" gradientUnits="userSpaceOnUse">
<stop offset="0.004" stop-color="#27E9DE"/>
<stop offset="0.524" stop-color="#03A4EC"/>
<stop offset="1" stop-color="#2547A8"/>
</linearGradient>
<linearGradient id="paint20_linear_631_36437" x1="223.853" y1="158.832" x2="220.392" y2="156.986" gradientUnits="userSpaceOnUse">
<stop offset="0.004" stop-color="#27E9DE"/>
<stop offset="0.524" stop-color="#03A4EC"/>
<stop offset="1" stop-color="#2547A8"/>
</linearGradient>
<linearGradient id="paint21_linear_631_36437" x1="223" y1="78.6525" x2="223" y2="-16.509" gradientUnits="userSpaceOnUse">
<stop offset="0.004" stop-color="#27E9DE"/>
<stop offset="0.524" stop-color="#03A4EC"/>
<stop offset="1" stop-color="#2547A8"/>
</linearGradient>
<linearGradient id="paint22_linear_631_36437" x1="216.714" y1="63.0918" x2="232.538" y2="39.9341" gradientUnits="userSpaceOnUse">
<stop offset="0.004" stop-color="#27E9DE"/>
<stop offset="0.524" stop-color="#03A4EC"/>
<stop offset="1" stop-color="#2547A8"/>
</linearGradient>
<linearGradient id="paint23_linear_631_36437" x1="231.645" y1="44.358" x2="205.053" y2="30.2357" gradientUnits="userSpaceOnUse">
<stop offset="0.004" stop-color="#27E9DE"/>
<stop offset="0.524" stop-color="#03A4EC"/>
<stop offset="1" stop-color="#2547A8"/>
</linearGradient>
<linearGradient id="paint24_linear_631_36437" x1="212.297" y1="41.0967" x2="212.297" y2="30.7417" gradientUnits="userSpaceOnUse">
<stop stop-color="#273A9B"/>
<stop offset="0.56" stop-color="#202F65"/>
<stop offset="1" stop-color="#021E2F"/>
</linearGradient>
<linearGradient id="paint25_linear_631_36437" x1="229.776" y1="49.4198" x2="203.187" y2="35.2978" gradientUnits="userSpaceOnUse">
<stop offset="0.004" stop-color="#27E9DE"/>
<stop offset="0.524" stop-color="#03A4EC"/>
<stop offset="1" stop-color="#2547A8"/>
</linearGradient>
<linearGradient id="paint26_linear_631_36437" x1="210" y1="46.7725" x2="211.537" y2="35.982" gradientUnits="userSpaceOnUse">
<stop stop-color="#273A9B"/>
<stop offset="0.56" stop-color="#202F65"/>
<stop offset="1" stop-color="#021E2F"/>
</linearGradient>
<linearGradient id="paint27_linear_631_36437" x1="227.909" y1="54.4814" x2="201.318" y2="40.3592" gradientUnits="userSpaceOnUse">
<stop offset="0.004" stop-color="#27E9DE"/>
<stop offset="0.524" stop-color="#03A4EC"/>
<stop offset="1" stop-color="#2547A8"/>
</linearGradient>
<linearGradient id="paint28_linear_631_36437" x1="212.297" y1="52.448" x2="212.297" y2="42.093" gradientUnits="userSpaceOnUse">
<stop stop-color="#273A9B"/>
<stop offset="0.56" stop-color="#202F65"/>
<stop offset="1" stop-color="#021E2F"/>
</linearGradient>
<linearGradient id="paint29_linear_631_36437" x1="222.857" y1="55.7339" x2="222.857" y2="9.88632" gradientUnits="userSpaceOnUse">
<stop stop-color="white"/>
<stop offset="0.516" stop-color="#CCE2E6"/>
<stop offset="1" stop-color="#8FA1BB"/>
</linearGradient>
<clipPath id="clip0_631_36437">
<rect width="134" height="158" fill="white" transform="translate(200 24)"/>
</clipPath>
<clipPath id="clip1_631_36437">
<rect width="19.6383" height="24" fill="white" transform="translate(210 91)"/>
</clipPath>
<clipPath id="clip2_631_36437">
<rect width="26.0356" height="22" fill="white" transform="translate(210 151)"/>
</clipPath>
</defs>
</svg>
