<svg id="vector" xmlns="http://www.w3.org/2000/svg" width="49" height="49" viewBox="0 0 49 49"><path fill="#f1bc19" d="M41.461,0.628a0.628,0.628 0,1 0,0.628 0.628,0.628 0.628,0 0,0 -0.628,-0.628z" id="path_0"/><path fill="#ecf3f5" d="M24.5,1.256a23.244,23.244 0,1 0,23.243 23.244A23.244,23.244 0,0 0,24.5 1.256z" id="path_1"/><path fill="#f1bc19" d="M45.231,0a2.513,2.513 0,1 0,2.513 2.513A2.513,2.513 0,0 0,45.231 0z" id="path_2"/><path fill="#8889b9" d="M47.743,6.91a1.256,1.256 0,1 0,1.256 1.256A1.256,1.256 0,0 0,47.743 6.91z" id="path_3"/><path fill="#fbcd59" d="M43.974,39.577a1.256,1.256 0,1 0,1.256 1.256,1.256 1.256,0 0,0 -1.256,-1.256zM2.513,30.154a2.513,2.513 0,1 0,2.513 2.513A2.513,2.513 0,0 0,2.513 30.154z" id="path_4"/><path fill="#8889b9" d="M8.794,46.487a1.256,1.256 0,1 0,1.256 1.256A1.256,1.256 0,0 0,8.794 46.487z" id="path_5"/><path fill="#fff" d="M4.712,23.871a1.571,1.571 0,1 0,1.571 1.571,1.571 1.571,0 0,0 -1.571,-1.571zM43.032,13.192a0.942,0.942 0,1 0,0.942 0.942,0.942 0.942,0 0,0 -0.942,-0.942z" id="path_6"/><path fill="#fed5b3" d="M18.814,42.212a0.651,0.651 0,0 1,-0.726 -0.731v-4.635l-0.1,-0.122c-0.359,-0.437 -0.978,-1.182 -1.738,-2.1 -1.868,-2.248 -4.69,-5.646 -6.484,-7.888a0.988,0.988 0,0 1,-0.01 -1.059,2.737 2.737,0 0,1 2.3,-1.253 1.978,1.978 0,0 1,1.425 0.569l3.922,3.37L17.403,11.936a2.073,2.073 0,1 1,4.146 0v8.014l0.64,-0.327a3.1,3.1 0,0 1,1.383 -0.327,2.817 2.817,0 0,1 2.1,0.911l0.255,0.272 0.31,-0.207a3.385,3.385 0,0 1,4.639 0.7l0.222,0.261 0.307,-0.151a2.28,2.28 0,0 1,1.018 -0.247,2.246 2.246,0 0,1 0.258,0.015 2.406,2.406 0,0 1,2.033 2.404v18.1a0.864,0.864 0,0 1,-0.869 0.856L18.814,42.21z" id="path_7"/><path fill="#472b29" d="M19.473,10.302a1.635,1.635 0,0 1,1.633 1.633v8.732l1.28,-0.653A2.644,2.644 0,0 1,23.573 19.735a2.387,2.387 0,0 1,1.78 0.773l0.509,0.543 0.62,-0.413a3.058,3.058 0,0 1,1.713 -0.549,3.094 3.094,0 0,1 2.346,1.167l0.444,0.521 0.614,-0.3a1.858,1.858 0,0 1,0.823 -0.2,1.638 1.638,0 0,1 0.205,0.013 1.962,1.962 0,0 1,1.646 1.964v18.1a0.424,0.424 0,0 1,-0.43 0.417L18.814,41.771c-0.218,0 -0.286,-0.04 -0.286,-0.291v-4.792l-0.2,-0.243c-0.356,-0.433 -0.969,-1.171 -1.721,-2.077 -1.863,-2.242 -4.672,-5.624 -6.471,-7.871a0.551,0.551 0,0 1,0.007 -0.611,2.331 2.331,0 0,1 1.914,-1.021 1.516,1.516 0,0 1,1.114 0.44l0.023,0.024 0.025,0.021 3.167,2.722 1.456,1.251L17.842,11.936a1.634,1.634 0,0 1,1.631 -1.634m0,-0.879a2.513,2.513 0,0 0,-2.513 2.513v15.47l-3.166,-2.723a2.4,2.4 0,0 0,-1.736 -0.7c-1.763,0 -3.563,1.635 -2.635,3.027 2.513,3.141 6.969,8.46 8.226,9.99v4.478a1.085,1.085 0,0 0,1.165 1.17L33.843,42.648a1.3,1.3 0,0 0,1.309 -1.3v-18.1a2.833,2.833 0,0 0,-2.421 -2.843,2.611 2.611,0 0,0 -0.31,-0.019 2.724,2.724 0,0 0,-1.212 0.292,3.823 3.823,0 0,0 -5.217,-0.78A3.269,3.269 0,0 0,23.573 18.855a3.507,3.507 0,0 0,-1.582 0.376v-7.3A2.513,2.513 0,0 0,19.473 9.423z" id="path_8"/><path fill="#fff" d="M34.277,41.208v-4.259L18.493,36.949v4.259a0.606,0.606 0,0 0,0.607 0.607h14.57a0.606,0.606 0,0 0,0.607 -0.607z" fill-rule="evenodd" id="path_9"/><path fill="#472b29" d="M21.727,32.987a0.314,0.314 0,0 1,-0.314 -0.314v-7.978a0.314,0.314 0,0 1,0.628 0L22.041,32.671a0.314,0.314 0,0 1,-0.314 0.316zM26.07,30.154a0.314,0.314 0,0 1,-0.314 -0.314v-5.026a0.314,0.314 0,1 1,0.628 0v5.026a0.314,0.314 0,0 1,-0.313 0.314z" id="path_10"/><path fill="#472b29" d="M29.364,37.23L18.437,37.23a0.314,0.314 0,0 1,0 -0.628L29.364,36.602a0.314,0.314 0,0 1,0 0.628z" id="path_11"/><path fill="#472b29" d="M31.789,37.23h-1.211a0.314,0.314 0,1 1,0 -0.628L31.789,36.602a0.314,0.314 0,0 1,0 0.628z" id="path_12"/><path fill="#472b29" d="M34.22,37.23h-1.214a0.314,0.314 0,1 1,0 -0.628h1.214a0.314,0.314 0,0 1,0 0.628z" id="path_13"/><path fill="#472b29" d="M30.468,30.154A0.314,0.314 0,0 1,30.154 29.84v-5.026a0.314,0.314 0,0 1,0.628 0v5.026a0.314,0.314 0,0 1,-0.314 0.314z" id="path_14"/><path fill="#472b29" d="M26.07,33.295a0.314,0.314 0,0 1,-0.314 -0.314v-1.257a0.314,0.314 0,0 1,0.628 0v1.256a0.314,0.314 0,0 1,-0.314 0.315z" id="path_15"/><path fill="#472b29" d="M31.488,40.235a1.216,1.216 0,1 1,1.225 -1.216,1.221 1.221,0 0,1 -1.225,1.216zM31.488,38.435a0.587,0.587 0,1 0,0.6 0.587,0.592 0.592,0 0,0 -0.6,-0.589z" id="path_16"/><path fill="#472b29" d="M17.426,30.481a0.314,0.314 0,0 1,-0.314 -0.314L17.112,27.633a0.314,0.314 0,0 1,0.628 0v2.535a0.314,0.314 0,0 1,-0.314 0.313z" id="path_17"/><path fill="#472b29" d="M24.814,11.936h-0.628a4.712,4.712 0,1 0,-9.423 0L14.135,11.936a5.34,5.34 0,0 1,10.679 0z" id="path_18"/><path fill="#472b29" d="M26.699,11.936h-0.628a6.6,6.6 0,0 0,-13.192 0L12.25,11.936a7.224,7.224 0,0 1,14.449 0z" id="path_19"/></svg>