<svg id="vector" xmlns="http://www.w3.org/2000/svg" width="20.6" height="18.6" viewBox="0 0 20.6 18.6"><path fill="#1f2d3d" d="M4.3,0.3a2,2 0,1 0,2 2,2 2,0 0,0 -2,-2zM16.3,0.3a2,2 0,1 0,2 2,2 2,0 0,0 -2,-2zM10.3,4.3a2,2 0,1 0,2 2,2 2,0 0,0 -2,-2zM4.3,8.3a2,2 0,1 0,2 2,2 2,0 0,0 -2,-2zM16.3,8.3a2,2 0,1 0,2 2,2 2,0 0,0 -2,-2zM4.3,14.3c-1.335,0 -4,0.721 -4,2.051L0.3,18.3h8v-1.949C8.3,15.021 5.635,14.3 4.3,14.3zM16.3,14.3c-1.335,0 -4,0.721 -4,2.051L12.3,18.3h8v-1.949C20.3,15.021 17.635,14.3 16.3,14.3z" stroke-width=".6" stroke="#f6fafb" id="path_0"/></svg>