<svg id="vector" xmlns="http://www.w3.org/2000/svg" width="360" height="516" viewBox="0 0 360 516"><defs><clipPath id="clip_path_0"><path d="M0,0h360v516h-360z"/></clipPath></defs><g id="g_0"><path fill="#E8F3F7" d="M-64.24,113.37C-70.36,113.37 -75.35,108.38 -75.35,102.27C-75.35,96.15 -70.36,91.16 -64.24,91.16C-62.7,91.16 -61.29,91.44 -59.95,92C-57.92,85.04 -51.52,79.91 -43.85,79.91C-42.8,79.91 -41.82,79.98 -40.83,80.19C-40.83,80.12 -40.83,79.98 -40.83,79.91C-40.83,61.42 -25.86,46.44 -7.37,46.44C6.98,46.44 19.21,55.44 23.99,68.17C26.17,67.54 28.42,67.18 30.81,67.18C43.61,67.18 53.94,77.52 53.94,90.31C53.94,103.11 43.61,113.44 30.81,113.44H-64.24V113.37Z" clip-path="url(#clip_path_0)"/><path fill="#D7E8F7" d="M72.92,121.32C78.34,121.32 82.77,116.89 82.77,111.48C82.77,106.06 78.34,101.63 72.92,101.63C71.59,101.63 70.32,101.91 69.13,102.41C67.37,96.22 61.6,91.65 54.85,91.65C53.94,91.65 53.03,91.72 52.18,91.93C52.18,91.86 52.18,91.79 52.18,91.65C52.18,75.27 38.9,61.98 22.51,61.98C9.79,61.98 -1.04,70 -5.26,81.24C-7.15,80.68 -9.19,80.33 -11.3,80.33C-22.62,80.33 -31.83,89.54 -31.83,100.86C-31.83,112.18 -22.62,121.39 -11.3,121.39H72.92V121.32Z"/><path fill="#E8F3F7" d="M274.7,231.21C269.78,231.21 265.77,227.2 265.77,222.28C265.77,217.36 269.78,213.35 274.7,213.35C275.9,213.35 277.09,213.56 278.14,214.05C279.76,208.43 284.96,204.35 291.08,204.35C291.92,204.35 292.7,204.42 293.54,204.56C293.54,204.49 293.54,204.42 293.54,204.35C293.54,189.45 305.57,177.42 320.47,177.42C332,177.42 341.84,184.66 345.71,194.86C347.47,194.3 349.3,194.02 351.19,194.02C361.46,194.02 369.82,202.31 369.82,212.65C369.82,222.98 361.53,231.28 351.19,231.28H274.7V231.21Z"/><path fill="#D7E8F7" d="M384.94,237.53C389.3,237.53 392.89,234.02 392.89,229.59C392.89,225.16 389.37,221.65 384.94,221.65C383.89,221.65 382.83,221.86 381.92,222.28C380.51,217.29 375.87,213.63 370.46,213.63C369.68,213.63 368.98,213.7 368.28,213.84C368.28,213.77 368.28,213.7 368.28,213.63C368.28,200.48 357.59,189.8 344.44,189.8C334.25,189.8 325.46,196.26 322.09,205.26C320.54,204.77 318.92,204.56 317.24,204.56C308.17,204.56 300.78,211.94 300.78,221.01C300.78,230.08 308.17,237.46 317.24,237.46H384.94V237.53Z"/><path fill="#E8F3F7" d="M217.54,83.42C212.2,83.42 207.84,79.07 207.84,73.72C207.84,68.38 212.2,64.02 217.54,64.02C218.88,64.02 220.14,64.3 221.27,64.79C223.03,58.68 228.65,54.25 235.33,54.25C236.24,54.25 237.09,54.32 238,54.46C238,54.39 238,54.32 238,54.25C238,38.08 251.08,25 267.25,25C279.76,25 290.52,32.87 294.67,43.98C296.57,43.42 298.53,43.07 300.57,43.07C311.75,43.07 320.82,52.14 320.82,63.32C320.82,74.5 311.75,83.56 300.57,83.56H217.54V83.42Z"/><path fill="#D7E8F7" d="M249.81,91.65C243.77,91.65 238.85,86.73 238.85,80.68C238.85,74.64 243.77,69.71 249.81,69.71C251.29,69.71 252.7,70 254.03,70.56C256,63.67 262.33,58.61 269.85,58.61C270.9,58.61 271.89,58.68 272.87,58.89C272.87,58.82 272.87,58.68 272.87,58.61C272.87,40.4 287.64,25.63 305.85,25.63C319.98,25.63 332.07,34.56 336.71,47.01C338.82,46.37 341.07,46.02 343.39,46.02C355.97,46.02 366.17,56.22 366.17,68.8C366.17,81.39 355.97,91.58 343.39,91.58H249.81V91.65Z"/><path fill="#E8F3F7" d="M-79.78,501.04C-85.12,501.04 -89.48,496.68 -89.48,491.34C-89.48,485.99 -85.12,481.64 -79.78,481.64C-78.45,481.64 -77.18,481.92 -76.06,482.41C-74.3,476.29 -68.67,471.86 -61.99,471.86C-61.08,471.86 -60.24,471.93 -59.32,472.07C-59.32,472 -59.32,471.93 -59.32,471.86C-59.32,455.69 -46.25,442.61 -30.08,442.61C-17.56,442.61 -6.8,450.49 -2.66,461.6C-0.76,461.04 1.21,460.68 3.25,460.68C14.43,460.68 23.5,469.75 23.5,480.93C23.5,492.11 14.43,501.18 3.25,501.18H-79.78V501.04Z"/><path fill="#D7E8F7" d="M40.16,508C44.94,508 48.81,504.13 48.81,499.35C48.81,494.57 44.94,490.71 40.16,490.71C38.96,490.71 37.84,490.92 36.86,491.34C35.31,485.92 30.32,481.99 24.41,481.99C23.64,481.99 22.79,482.06 22.09,482.2C22.09,482.13 22.09,482.06 22.09,481.99C22.09,467.64 10.49,456.05 -3.85,456.05C-14.96,456.05 -24.45,463.08 -28.18,472.85C-29.86,472.36 -31.62,472.08 -33.45,472.08C-43.36,472.08 -51.38,480.09 -51.38,490C-51.38,499.92 -43.36,507.93 -33.45,507.93H40.16V508Z"/><path fill="#D7E8F7" d="M298.82,432.77C303.17,432.77 306.76,429.26 306.76,424.83C306.76,420.47 303.24,416.88 298.82,416.88C297.76,416.88 296.71,417.1 295.79,417.52C294.39,412.52 289.75,408.87 284.33,408.87C283.56,408.87 282.86,408.94 282.15,409.08C282.15,409.01 282.15,408.94 282.15,408.87C282.15,395.72 271.47,385.04 258.32,385.04C248.13,385.04 239.34,391.5 235.96,400.5C234.41,400.01 232.8,399.8 231.11,399.8C222.04,399.8 214.66,407.18 214.66,416.25C214.66,425.32 222.04,432.7 231.11,432.7H298.82V432.77Z"/><path fill="#E8F3F7" d="M164.18,453.23C157.99,453.23 152.93,448.17 152.93,441.98C152.93,435.8 157.99,430.73 164.18,430.73C165.73,430.73 167.2,431.02 168.47,431.58C170.51,424.48 177.05,419.34 184.78,419.34C185.83,419.34 186.89,419.42 187.87,419.63C187.87,419.55 187.87,419.42 187.87,419.34C187.87,400.64 203.06,385.46 221.76,385.46C236.31,385.46 248.69,394.6 253.47,407.46C255.65,406.83 257.97,406.41 260.36,406.41C273.29,406.41 283.77,416.88 283.77,429.82C283.77,442.76 273.29,453.23 260.36,453.23H164.18Z"/><path fill="#2C772C" d="M298.6,394.67C298.6,394.67 248.26,363.38 151.88,362.19C55.42,360.99 39.46,339.76 38.05,316.56C36.15,285.62 -58.62,289.49 -58.62,289.49L48.39,220.31C48.39,220.31 129.73,215.88 140.13,254.76C145.83,275.85 175.64,280.07 228.58,279.58C281.45,279.08 397.03,304.54 408,329.77L298.6,394.67Z"/><path fill="#D1D1D1" d="M297.62,376.11C297.62,376.11 248.83,350.45 134.79,350.45C61.32,350.45 50.85,329 50.85,310.65C50.85,276.55 -25.65,278.87 -25.65,278.87L52.46,229.38C52.46,229.38 120.52,229.38 129.24,254.48C134.72,270.23 152.93,287.52 193.22,287.52C273.65,287.52 371.51,310.72 385.15,327.39L297.62,376.11Z"/><path fill="#2C772C" d="M188.15,320.49C172.05,335.61 148.5,344.68 132.12,344.68C121.86,344.68 118.62,328.02 134.72,312.97C150.82,297.86 172.83,290.05 190.33,290.05C200.53,290.05 204.25,305.38 188.15,320.49Z"/><path fill="#030612" d="M192.77,207.58C189.81,202.59 183.42,200.9 178.35,203.86C173.36,206.81 171.68,213.21 174.63,218.27L196.28,255.11C198.88,259.54 204.51,261.02 208.94,258.41C213.37,255.81 214.84,250.19 212.24,245.76C212.24,245.69 212.17,245.69 212.17,245.62C212.17,245.62 192.98,207.93 192.77,207.58Z"/><path fill="#CC7A5A" d="M263.07,311.42C260.61,312.41 259.28,315.15 260.19,317.68C261.1,320.21 263.85,321.48 266.38,320.63V320.7C275.59,317.4 284.52,321.97 288.88,330.41L301.39,325.84C295.13,308.26 278.4,305.66 262.93,311.28L263.07,311.42Z"/><path fill="#CC7A5A" d="M198.25,243.23C202.26,240.06 208.09,240.7 211.26,244.7L269.33,313.39L269.4,313.46C271.09,315.57 270.74,318.67 268.63,320.35C266.52,322.04 263.42,321.69 261.74,319.58C261.74,319.58 261.74,319.51 261.67,319.51L261.6,319.58C261.6,319.58 197.13,256.65 196.85,256.23C193.61,252.23 194.31,246.39 198.25,243.23Z"/><path fill="#D8D8D8" d="M165.7,193.45H131.39C131.32,193.45 131.32,193.45 131.32,193.45C121.9,193.45 114.31,201.04 114.31,210.47V262.28H200.08V227.69C200.01,208.78 184.61,193.45 165.7,193.45Z"/><path fill="#030612" d="M133.99,193.45L167.25,207.79V193.45H133.99Z"/><path fill="#D1D1D1" d="M174.21,219.4V210.82L167.25,207.44V216.02L174.21,219.4Z"/><path fill="#D1D1D1" d="M174.21,218.48V252.37H182.71L174.21,218.48Z"/><path fill="#383838" d="M135.96,200.76C133.01,195.77 126.61,194.08 121.55,197.04C116.56,199.99 114.87,206.39 117.82,211.45L139.48,248.29C142.08,252.72 147.7,254.2 152.13,251.59C156.56,248.99 158.04,243.37 155.43,238.94C155.43,238.87 155.36,238.87 155.36,238.8C155.36,238.8 136.17,201.12 135.96,200.76Z"/><path fill="#CC7A5A" d="M180.32,175.52L172.03,148.53C170.06,143.32 165,139.6 159.09,139.67C151.64,139.81 145.66,145.93 145.73,153.45L146.08,176.02L153.68,175.88L153.96,192.75C153.96,192.75 161.76,200.06 161.76,199.85L161.34,175.74L180.32,175.52Z"/><path fill="#000851" d="M166.19,154.01C165.28,154.01 164.57,154.78 164.57,155.7C164.57,156.61 165.35,157.31 166.26,157.31C167.18,157.31 167.88,156.54 167.88,155.63C167.88,154.71 167.1,154.01 166.19,154.01Z"/><path fill="#000851" d="M175.54,164.7L172.66,155.63C172.52,155.13 172.03,154.92 171.54,155.06C171.04,155.2 170.83,155.7 170.97,156.19L173.85,165.26C174,165.61 174.35,165.89 174.7,165.89C174.77,165.89 174.84,165.89 174.98,165.82C175.4,165.68 175.68,165.19 175.54,164.7Z"/><path fill="#030612" d="M177.23,132.78C177.23,132.78 174.21,139.24 159.16,139.67C155.15,139.74 151.57,141.57 149.11,144.38C149.04,144.45 149.04,144.52 148.97,144.59C148.83,144.73 148.68,144.94 148.54,145.08C148.26,145.5 147.98,145.93 147.7,146.35C147.63,146.49 147.56,146.63 147.49,146.7C147.28,147.12 147.07,147.54 146.86,147.96C146.79,148.03 146.79,148.1 146.72,148.17C146.08,149.79 145.73,151.55 145.73,153.38L146.01,170.46L151.85,170.39L151.71,161.67C149.95,161.25 148.62,159.7 148.62,157.81C148.54,155.56 150.37,153.73 152.62,153.66H153.32L153.4,158.58L156.77,158.51L156.63,151.13C157.82,151.2 159.02,151.27 160.21,151.27C164.86,151.2 169.07,150.21 172.03,148.74C172.03,148.74 179.97,145.15 179.83,137.91L179.76,135.59C179.76,135.59 177.09,138.61 175.61,138.96C175.68,138.96 178,137.7 177.23,132.78Z"/><path fill="#030612" d="M267.5,332.66L214.14,325.14L169.49,278.38C169.49,278.38 163.03,272.12 163.03,262.14H199.24L267.5,332.66Z"/><path fill="#030612" d="M234.39,298.42L267.5,332.59L104.67,317.12V286.11L234.39,298.42Z"/><path fill="#000000" d="M92.72,332.66L92.79,286.11H104.74V332.59C104.74,335.89 102.07,338.56 98.77,338.56C95.39,338.56 92.72,335.89 92.72,332.66Z"/><path fill="#191919" d="M218.78,332.66L165.42,325.14L124.01,282.32C124.01,282.32 113.95,275.36 114.38,262.14H150.58L218.78,332.66Z"/><path fill="#191919" d="M185.67,298.42L218.78,332.59L55.95,317.12V286.11L185.67,298.42Z"/><path fill="#000000" d="M44,332.66L44.07,286.11H56.02V332.59C56.02,335.89 53.35,338.56 50.05,338.56C46.74,338.56 44.07,335.89 44,332.66Z"/><path fill="#8C8C8C" d="M175.61,287.66H143.34L141.37,262.14L200.01,262.21L175.61,287.66Z"/><path fill="#CC7A5A" d="M194.1,330.2C191.78,331.53 191.01,334.48 192.35,336.8C193.68,339.13 196.56,339.97 198.95,338.7L199.02,338.77C207.6,333.99 217.16,337.02 222.86,344.68L234.46,338.14C225.39,321.83 208.45,322.04 194.17,330.13L194.1,330.2Z"/><path fill="#CC7A5A" d="M143.41,235.92C147.98,233.67 153.54,235.57 155.79,240.13L201.27,332.52L201.34,332.59C202.54,335.05 201.55,338 199.09,339.2C196.63,340.39 193.68,339.41 192.49,336.95C192.49,336.95 192.49,336.88 192.41,336.88L192.35,336.95C192.35,336.95 139.33,248.71 139.12,248.29C136.94,243.72 138.84,238.17 143.41,235.92Z"/><path fill="#00000000" d="M43.89,220.1H-5.89" stroke-width="2" stroke="#3B5BA3" stroke-linecap="round"/><path fill="#00000000" d="M9.44,238.87H-32.32" stroke-width="2" stroke="#3B5BA3" stroke-linecap="round"/><g><path fill="none" d="M242.27,210.04h244.87v163.57h-244.87z"/></g><g><path fill="none" d="M266.27,200.64h244.87v163.57h-244.87z"/></g></g></svg>