<svg id="vector" xmlns="http://www.w3.org/2000/svg" width="18.6" height="21.635" viewBox="0 0 18.6 21.635"><path fill="#1f2d3d" d="M11.936,3.919A10.974,10.974 0,0 1,16.3 12.528,6.834 6.834,0 0,1 9.3,19.335c-5.167,0 -7,-3.7 -7,-6.871a6.132,6.132 0,0 1,1.184 -3.457,5.683 5.683,0 0,0 0.539,0.911l0.09,0.123 0.108,0.108 0.064,0.064 0.86,0.86L6.3,10.705a7.8,7.8 0,0 0,5.632 -6.786M9.96,0.3c-0.081,0 -0.081,0.142 -0.081,0.142 0.514,3.343 -0.129,7.072 -4.179,8.357L5.636,8.735a6.447,6.447 0,0 1,-0.965 -3.214c0,-0.129 -0.193,-0.129 -0.193,-0.129A8.68,8.68 0,0 0,0.3 12.464C0.3,17.285 3.514,21.335 9.3,21.335a8.822,8.822 0,0 0,9 -8.807C18.3,6.292 13.929,2.242 10.007,0.314a0.1,0.1 0,0 0,-0.047 -0.014z" stroke-width=".6" stroke="#f6fafb" id="path_0"/></svg>