<svg id="vector" xmlns="http://www.w3.org/2000/svg" width="360" height="516" viewBox="0 0 360 516"><defs><clipPath id="clip_path_0"><path d="M0,0h360v516h-360z"/></clipPath></defs><g id="g_0"><path fill="#F2F8F9" d="M252.44,403.26C253.53,397.82 253.43,392.21 252.14,386.81C249.53,375.92 244.35,346.8 262.44,343.56C262.44,343.56 280.74,343.47 273.06,386.3C272.21,391 272.51,395.84 273.93,400.41C274.65,402.89 275.83,405.21 277.39,407.27C280.77,411.55 282.99,416.62 283.84,421.99C285.06,429.65 283.99,439.8 274.92,449.8C273.45,451.43 271.64,452.72 269.63,453.61C267.61,454.49 265.42,454.94 263.22,454.93C261.01,454.92 258.83,454.44 256.83,453.54C254.82,452.63 253.03,451.32 251.57,449.68C245.28,442.58 241.11,430.05 250.84,408.66C251.57,406.92 252.11,405.11 252.44,403.26Z" clip-path="url(#clip_path_0)"/><path fill="#00000000" d="M165.47,456.87C208.62,456.87 243.59,421.74 243.59,378.42C243.59,335.1 208.62,299.97 165.47,299.97C122.32,299.97 87.35,335.1 87.35,378.42C87.35,421.74 122.32,456.87 165.47,456.87Z" stroke-width="0.932" stroke="#DDEBEF"/><path fill="#00000000" d="M165.23,421.04C189.3,421.04 208.82,401.41 208.82,377.21C208.82,353.01 189.3,333.39 165.23,333.39C141.15,333.39 121.64,353.01 121.64,377.21C121.64,401.41 141.15,421.04 165.23,421.04Z" stroke-width="0.846" stroke="#DDEBEF"/><path fill="#DDEBEF" d="M143.68,471.4L160.65,377.07L164.29,377V376.97L165.22,376.99L166.17,376.97V377L169.8,377.07L186.78,471.39L143.68,471.4Z"/><path fill="#00000000" d="M165.47,298.52V458.32" stroke-width="0.705" stroke="#DDEBEF"/><path fill="#00000000" d="M243.11,377.21H87.35" stroke-width="0.705" stroke="#DDEBEF"/><path fill="#00000000" d="M221.18,322.7L110.17,432.34" stroke-width="0.705" stroke="#DDEBEF"/><path fill="#00000000" d="M223.04,431.37L112.03,321.73" stroke-width="0.705" stroke="#DDEBEF"/><path fill="#DDEBEF" d="M163.83,303.23C163.36,302.93 163,302.49 162.8,301.97C162.6,301.45 162.58,300.88 162.73,300.35C162.89,299.81 163.22,299.34 163.67,299.01C164.12,298.67 164.66,298.49 165.23,298.49C165.79,298.49 166.34,298.67 166.79,299.01C167.24,299.34 167.56,299.81 167.72,300.35C167.88,300.88 167.85,301.45 167.66,301.97C167.46,302.49 167.09,302.93 166.62,303.23L175.03,309.16L171.65,319.82H158.8L155.43,309.16L163.83,303.23Z"/><path fill="#DDEBEF" d="M242.2,381.67C241.73,381.38 241.37,380.93 241.17,380.42C240.97,379.89 240.95,379.33 241.1,378.79C241.26,378.26 241.59,377.79 242.04,377.45C242.49,377.12 243.03,376.94 243.6,376.94C244.16,376.94 244.71,377.12 245.15,377.45C245.6,377.79 245.93,378.26 246.09,378.79C246.25,379.33 246.22,379.89 246.02,380.42C245.83,380.93 245.46,381.38 244.99,381.67L253.4,387.61L250.02,398.27H237.17L233.8,387.61L242.2,381.67Z"/><path fill="#DDEBEF" d="M85.96,381.67C85.48,381.38 85.12,380.93 84.92,380.42C84.72,379.89 84.7,379.33 84.85,378.79C85.01,378.26 85.34,377.79 85.79,377.45C86.24,377.12 86.79,376.94 87.35,376.94C87.91,376.94 88.46,377.12 88.91,377.45C89.36,377.79 89.68,378.26 89.84,378.79C90,379.33 89.98,379.89 89.78,380.42C89.58,380.93 89.21,381.38 88.74,381.67L97.15,387.61L93.77,398.27H80.92L77.55,387.61L85.96,381.67Z"/><path fill="#C2D5DA" d="M163.83,459.64C163.36,459.34 163,458.9 162.8,458.38C162.6,457.86 162.58,457.29 162.73,456.75C162.89,456.22 163.22,455.75 163.67,455.42C164.12,455.08 164.66,454.9 165.23,454.9C165.79,454.9 166.34,455.08 166.79,455.42C167.24,455.75 167.56,456.22 167.72,456.75C167.88,457.29 167.85,457.86 167.66,458.38C167.46,458.9 167.09,459.34 166.62,459.64L175.03,465.57L171.65,476.23H158.8L155.43,465.57L163.83,459.64Z"/><path fill="#DDEBEF" d="M165.47,390.52C172.37,390.52 177.96,385.11 177.96,378.42C177.96,371.73 172.37,366.31 165.47,366.31C158.57,366.31 152.98,371.73 152.98,378.42C152.98,385.11 158.57,390.52 165.47,390.52Z"/><path fill="#DDEBEF" d="M109.47,325.99C108.99,325.69 108.63,325.25 108.43,324.73C108.23,324.21 108.21,323.64 108.36,323.11C108.52,322.57 108.85,322.1 109.3,321.77C109.75,321.43 110.3,321.25 110.86,321.25C111.42,321.25 111.97,321.43 112.42,321.77C112.87,322.1 113.19,322.57 113.35,323.11C113.51,323.64 113.49,324.21 113.29,324.73C113.09,325.25 112.72,325.69 112.25,325.99L120.66,331.92L117.29,342.58H104.43L101.06,331.92L109.47,325.99Z"/><path fill="#DDEBEF" d="M219.18,325.99C218.71,325.69 218.34,325.25 218.15,324.73C217.95,324.21 217.92,323.64 218.08,323.11C218.24,322.57 218.57,322.1 219.01,321.77C219.46,321.43 220.01,321.25 220.57,321.25C221.14,321.25 221.68,321.43 222.13,321.77C222.58,322.1 222.91,322.57 223.07,323.11C223.23,323.64 223.2,324.21 223,324.73C222.8,325.25 222.44,325.69 221.97,325.99L230.38,331.92L227,342.58H214.15L210.78,331.92L219.18,325.99Z"/><path fill="#DDEBEF" d="M107.51,435.91C107.03,435.61 106.67,435.17 106.47,434.65C106.27,434.13 106.25,433.56 106.4,433.03C106.56,432.49 106.89,432.02 107.34,431.69C107.79,431.36 108.34,431.18 108.9,431.18C109.46,431.18 110.01,431.36 110.46,431.69C110.91,432.02 111.24,432.49 111.39,433.03C111.55,433.56 111.53,434.13 111.33,434.65C111.13,435.17 110.76,435.61 110.29,435.91L118.7,441.84L115.32,452.5H102.47L99.1,441.84L107.51,435.91Z"/><path fill="#DDEBEF" d="M219.18,435.91C218.71,435.61 218.34,435.17 218.15,434.65C217.95,434.13 217.92,433.56 218.08,433.03C218.24,432.49 218.57,432.02 219.01,431.69C219.46,431.36 220.01,431.18 220.57,431.18C221.14,431.18 221.68,431.36 222.13,431.69C222.58,432.02 222.91,432.49 223.07,433.03C223.23,433.56 223.2,434.13 223,434.65C222.8,435.17 222.44,435.61 221.97,435.91L230.38,441.84L227,452.5H214.15L210.78,441.84L219.18,435.91Z"/><path fill="#DDEBEF" d="M261.23,454.93H266.62V492.7H261.23V454.93Z"/><path fill="#DDEBEF" d="M297.96,455.9H303.35V492.7H297.96V455.9Z"/><path fill="#DDEBEF" d="M320.98,455.9H326.37V492.7H320.98V455.9Z"/><path fill="#DDEBEF" d="M63.84,455.9H71.18V492.7H63.84V455.9Z"/><path fill="#DDEBEF" d="M41.31,455.9H48.65V492.7H41.31V455.9Z"/><path fill="#DDEBEF" d="M190.08,460.74H186.78L189.47,476.24H192.65L190.08,460.74Z"/><path fill="#C2D5DA" d="M143.68,475.75H153.96V493.19H143.68V475.75Z"/><path fill="#C2D5DA" d="M200.98,475.75H211.27V493.19H200.98V475.75Z"/><path fill="#DDEBEF" d="M211.27,475.75H215.19V493.19H211.27V475.75Z"/><path fill="#DDEBEF" d="M153.96,475.75H157.88V493.19H153.96V475.75Z"/><path fill="#DDEBEF" d="M153.96,475.75H214.21V479.63H153.96V475.75Z"/><path fill="#DDEBEF" d="M140.74,460.74H195.24L196.09,466.07L141.8,465.94L140.74,460.74Z"/><path fill="#DDEBEF" d="M148.44,460.74H145.15L147.84,476.24H151.02L148.44,460.74Z"/><path fill="#DDEBEF" d="M142.21,468.49H196.26L197.06,473.82H143.18L142.21,468.49Z"/><path fill="#C2D5DA" d="M142.28,468.49L143.19,473.82H140.71L139.76,468.49H142.28Z"/><path fill="#C2D5DA" d="M141.72,466.07H139.21L138.29,460.74H140.84L141.72,466.07Z"/><path fill="#F2F8F9" d="M47.78,394.16C50.46,389.3 52.7,384.21 54.47,378.96C58.11,368.18 65.79,348.92 73.95,349.89C82.42,350.89 80.66,358.47 78.64,378.32C76.32,401.01 93.56,400.74 98,420.73C102.68,441.81 92.24,459.59 70.9,461.14C43.69,463.12 29.91,429.77 39.4,410.39C43.29,402.43 45.77,397.79 47.78,394.16Z"/><path fill="#F2F8F9" d="M317.01,382.22C317.01,382.22 318.37,375.2 325.13,375.53C331.9,375.86 333.35,382.77 334.95,391.91C336.23,397.07 338.77,401.84 342.34,405.81C348.75,413.37 352.13,423 351.82,432.87C351.81,437.36 350.78,441.8 348.8,445.85C346.81,449.9 343.93,453.45 340.37,456.25C340.37,456.25 320.39,471.14 303.81,451.75C303.81,451.75 287.44,429.77 311.93,402.65C311.93,402.65 316.67,395.92 317.01,382.22Z"/><path fill="#DDEBEF" d="M295.09,344.36C295.09,344.36 282.14,353.92 285.2,374.11C288.27,394.3 293.55,394.98 286.39,413C281.34,425.73 277.31,440.96 285.51,452.92C287.24,455.44 289.55,457.51 292.26,458.95C294.97,460.4 297.99,461.18 301.06,461.23C304.14,461.28 307.18,460.61 309.94,459.25C312.7,457.9 315.08,455.91 316.9,453.46C322.51,445.82 327.15,434.27 324.74,417.87C324.74,417.87 322.91,405.64 308.26,384.75C307.84,384.16 307.47,383.53 307.16,382.88C303.45,374.4 302.16,365.07 303.44,355.92C303.44,355.92 305.99,339.83 295.09,344.36Z"/><path fill="#DDEBEF" d="M29.56,375.4C29.56,375.4 43.16,369.12 43.39,383.83C43.39,383.83 36.37,401.41 51.74,404.77C51.77,404.77 51.79,404.77 51.81,404.77C52.74,404.66 73.58,402.55 76.41,427.58C76.78,430.81 76.52,434.07 75.66,437.2C73.18,446.22 65.21,464.1 41.17,462.6C34.83,462.2 28.76,459.91 23.77,456.03C14.58,448.86 2.83,433.64 10.45,405.1C11.32,401.83 12.54,398.66 14.09,395.65C16.96,390.06 22.45,380.78 29.56,375.4Z"/><path fill="#F2F8F9" d="M90.55,474.7C89.14,470.53 88.15,466.06 89.93,465.24C89.93,465.24 92.29,463.08 98.63,475.82C102,471.24 108.27,463.97 113.12,465.43C113.12,465.43 118.18,468.73 106.14,479.21C106.14,479.21 118.79,470.52 126.38,469.52C126.38,469.52 132.95,468.32 131.04,472.62C131.04,472.62 127.69,479.91 116.26,485.9C116.26,485.9 131.74,478.42 132.86,484.6C132.86,484.6 134.38,488.14 118.88,493.19H83.98C83.98,493.19 71.97,490.65 72.85,487.2C72.85,487.2 73.56,484.4 84.18,486.5C84.18,486.5 71.98,482.35 70.32,477.83C70.23,477.58 70.19,477.31 70.21,477.04C70.23,476.77 70.31,476.51 70.44,476.27C70.57,476.04 70.75,475.83 70.97,475.67C71.19,475.51 71.44,475.4 71.7,475.34C73.59,474.95 77.72,475.45 86.49,480.65C87.25,481.1 87.73,481.36 87.73,481.36C87.3,481.1 86.89,480.86 86.49,480.65C83.15,478.67 74.37,473.02 76.59,469.52C76.59,469.52 79.34,466.36 90.55,474.7Z"/><path fill="#DDEBEF" d="M80.74,408.93C83.03,408.93 84.9,407.08 84.9,404.81C84.9,402.54 83.03,400.7 80.74,400.7C78.44,400.7 76.57,402.54 76.57,404.81C76.57,407.08 78.44,408.93 80.74,408.93Z"/><path fill="#C2D5DA" d="M84.9,408.93C84.89,408.66 84.78,408.41 84.58,408.23C84.39,408.05 84.13,407.95 83.86,407.96H77.61C77.34,407.95 77.08,408.05 76.89,408.23C76.7,408.41 76.58,408.66 76.57,408.93C76.58,409.19 76.7,409.44 76.89,409.62C77.09,409.8 77.35,409.89 77.61,409.89H83.86C84.12,409.89 84.38,409.8 84.58,409.62C84.77,409.44 84.89,409.19 84.9,408.93Z"/><path fill="#DDEBEF" d="M79.54,408.93H81.93L84.41,493.19H77.06L79.54,408.93Z"/><path fill="#DDEBEF" d="M268.82,408.45C271.12,408.45 272.98,406.6 272.98,404.33C272.98,402.06 271.12,400.21 268.82,400.21C266.52,400.21 264.65,402.06 264.65,404.33C264.65,406.6 266.52,408.45 268.82,408.45Z"/><path fill="#C2D5DA" d="M272.98,408.45C272.97,408.18 272.86,407.93 272.66,407.75C272.47,407.57 272.21,407.47 271.94,407.48H265.7C265.43,407.47 265.17,407.57 264.97,407.75C264.78,407.93 264.66,408.18 264.65,408.45C264.67,408.71 264.78,408.96 264.98,409.14C265.17,409.32 265.43,409.41 265.7,409.41H271.94C272.21,409.41 272.47,409.32 272.66,409.14C272.86,408.96 272.97,408.71 272.98,408.45Z"/><path fill="#DDEBEF" d="M267.63,408.44H270.01L272.49,492.7H265.15L267.63,408.44Z"/><path fill="#F2F8F9" d="M227.43,296.59H270.53C270.12,294.14 269.08,291.83 267.52,289.88C265.95,287.94 263.91,286.42 261.59,285.47C259.39,284.46 256.99,283.96 254.57,284C252.14,284.05 249.76,284.63 247.6,285.72C244.3,287.28 241.5,289.69 239.48,292.7C239.48,292.7 230.32,288.13 227.43,296.59Z"/><path fill="#F2F8F9" d="M292.58,334.36H338.13C337.66,331.85 336.55,329.51 334.89,327.57C333.23,325.62 331.09,324.13 328.67,323.25C326.34,322.23 323.8,321.73 321.25,321.77C318.7,321.82 316.19,322.4 313.89,323.49C310.45,325.02 307.48,327.42 305.31,330.47C305.31,330.47 295.62,325.91 292.58,334.36Z"/><path fill="#F2F8F9" d="M90.29,300.46H123.1C123.1,300.46 123.1,295.3 116.61,294.01C115.01,293.8 113.39,294.06 111.94,294.77C110.5,295.48 109.31,296.6 108.52,297.98C108.07,297.1 107.52,296.27 106.87,295.52C105.67,294.13 104.08,293.12 102.3,292.61C100.53,292.09 98.64,292.1 96.87,292.63C95.11,293.14 93.54,294.16 92.37,295.55C91.2,296.95 90.47,298.65 90.29,300.46V300.46Z"/><path fill="#F2F8F9" d="M22.2,332.41C22.57,329.81 23.88,327.42 25.89,325.7C27.89,323.97 30.46,323.01 33.12,323.01C34.76,323.01 36.39,323.37 37.88,324.08C39.27,322.97 40.88,322.16 42.61,321.7C44.33,321.25 46.14,321.16 47.9,321.44C49.67,321.73 51.35,322.37 52.85,323.34C54.34,324.31 55.61,325.58 56.57,327.07C57.59,326.06 58.83,325.3 60.19,324.85C61.56,324.4 63.01,324.27 64.43,324.47C72.15,326.04 72.16,332.34 72.16,332.37H58.52V332.42L22.2,332.41Z"/><path fill="#F2F8F9" d="M246.74,493.18C246.74,493.18 238.41,481.71 243.03,479.61C243.03,479.61 246.29,477.74 248.77,486.45C248.77,486.45 257.55,468.47 266.1,467.04C266.1,467.04 273.31,467.8 259.8,485.24C259.8,485.24 271.57,475.97 277.56,477.08C277.56,477.08 283.55,480.28 269.37,488.11C269.37,488.11 285.58,481.16 289.96,483.04C289.96,483.04 294.02,483.37 280.96,489.21C280.96,489.21 294.13,487.01 296.49,489.55C296.49,489.55 296.26,491.64 287.59,493.19L246.74,493.18Z"/><path fill="#DDEBEF" d="M283.95,476.24C284.01,476.24 284.07,476.27 284.11,476.3C284.16,476.34 284.2,476.39 284.22,476.44C284.24,476.49 284.25,476.55 284.24,476.61C284.24,476.67 284.21,476.73 284.18,476.77C280.39,481.05 277.67,486.15 276.24,491.65C276.16,491.98 276.06,492.46 276.06,492.46C275.93,492.77 275.74,492.71 275.63,492.66C275.36,492.56 275.43,492.2 275.51,491.84C276.91,486.14 279.68,480.86 283.58,476.45C283.61,476.38 283.67,476.32 283.73,476.28C283.8,476.24 283.88,476.23 283.95,476.24Z"/><path fill="#DDEBEF" d="M243.51,474.3C243.58,474.31 243.63,474.34 243.68,474.39C248.27,479.05 251.41,484.93 252.71,491.31C252.78,491.64 252.85,491.97 252.9,492.3C252.92,492.39 252.9,492.48 252.86,492.56C252.7,492.82 252.28,492.7 252.23,492.32C251.84,490.19 251.23,488.1 250.42,486.08C248.84,481.89 246.38,478.06 243.21,474.87C243.17,474.83 243.14,474.78 243.12,474.72C243.1,474.67 243.1,474.61 243.11,474.56C243.13,474.47 243.18,474.4 243.26,474.35C243.33,474.3 243.42,474.28 243.51,474.3Z"/><path fill="#DDEBEF" d="M276.65,468.98C276.8,469.02 276.8,469.04 276.84,469.08C277,469.26 276.84,469.53 276.68,469.77C272.67,475.7 270.44,482.63 270.24,489.77C270.22,490.62 270.26,491.47 270.36,492.32C270.36,492.38 270.35,492.45 270.32,492.5C270.3,492.56 270.26,492.61 270.21,492.65C270.01,492.77 269.74,492.68 269.69,492.35C269.48,490.26 269.53,488.16 269.83,486.08C270.65,480.07 272.83,474.33 276.21,469.27C276.35,469.07 276.36,468.95 276.65,468.98Z"/><path fill="#C2D5DA" d="M282.59,478.53C283.38,479.16 285.63,477.68 287.64,475.23C289.64,472.78 290.64,470.29 289.86,469.67C289.08,469.04 286.82,470.52 284.81,472.97C282.8,475.42 281.81,477.91 282.59,478.53Z"/><path fill="#C2D5DA" d="M246.62,478.49C247.4,477.87 246.41,475.38 244.4,472.93C242.4,470.48 240.14,469 239.36,469.63C238.57,470.25 239.57,472.74 241.57,475.19C243.58,477.64 245.84,479.12 246.62,478.49Z"/><path fill="#C2D5DA" d="M273.48,474.71C274.37,475.18 276.55,472.85 278.36,469.5C280.17,466.15 280.91,463.06 280.02,462.59C279.14,462.12 276.95,464.46 275.15,467.8C273.34,471.15 272.6,474.24 273.48,474.71Z"/><path fill="#A05B4B" d="M234.12,140.51C237.51,145.67 236.07,152.54 230.9,155.92L127.04,224.21L126.95,224.29C124.24,226.07 120.51,225.31 118.73,222.6C116.95,219.89 117.72,216.16 120.43,214.38C120.43,214.38 120.51,214.38 120.51,214.29L120.43,214.21C120.43,214.21 218.11,137.63 218.62,137.29C223.78,133.9 230.73,135.34 234.12,140.51Z"/><path fill="#D8D8D8" d="M255.21,98.99H295.96H296.05C307.23,98.99 316.3,108.06 316.3,119.16V180.66H214.46V139.66C214.46,117.21 232.68,98.99 255.21,98.99Z"/><path fill="#191919" d="M292.83,98.99L245.05,129.83L253.35,98.99H292.83Z"/><path fill="#D1D1D1" d="M245.05,129.83V119.58L253.35,115.6V125.76L245.05,129.83Z"/><path fill="#191919" d="M289.44,117.21C288,110.35 292.32,103.65 299.18,102.13C306.05,100.69 312.74,105.01 314.26,111.87L325.02,162.28C326.29,168.29 322.48,174.22 316.46,175.49C310.45,176.76 304.52,172.95 303.25,166.94C303.25,166.85 303.25,166.85 303.25,166.77C303.16,166.85 289.52,117.63 289.44,117.21Z"/><path fill="#CC7A5A" d="M246.23,45.37C248.6,38.84 254.79,34.1 262.16,34.1C271.48,34.1 279.02,41.64 279.02,50.96V79.09H269.61V100.1C269.61,100.1 260.04,109.33 260.04,109.08V79.09H236.57L246.23,45.37Z"/><path fill="#000851" d="M253.69,52.57C254.79,52.57 255.72,53.5 255.72,54.6C255.72,55.7 254.79,56.63 253.69,56.63C252.59,56.63 251.65,55.7 251.65,54.6C251.65,53.5 252.5,52.57 253.69,52.57Z"/><path fill="#000851" d="M242.34,66.04L245.73,54.69C245.89,54.09 246.49,53.76 247.08,53.92C247.67,54.09 248.01,54.69 247.84,55.28L244.45,66.63C244.29,67.14 243.86,67.39 243.44,67.39C243.35,67.39 243.27,67.39 243.1,67.31C242.42,67.23 242.17,66.63 242.34,66.04Z"/><path fill="#030612" d="M251.4,28C255.04,28 258.18,30.63 258.86,34.1H262.16C267.16,34.1 271.65,36.3 274.7,39.78H274.78C277.41,42.74 279.02,46.64 279.02,50.96V79.08H265.38V46.55C265.38,45.28 265.72,44.18 266.31,43.16H251.4C247.25,43.16 243.78,39.78 243.78,35.54C243.78,31.3 247.16,28 251.4,28Z"/><path fill="#CC7A5A" d="M269.53,51.38H270.38C273.17,51.38 275.46,53.67 275.46,56.46C275.46,59.26 273.17,61.55 270.38,61.55H269.53V51.38Z"/><path fill="#000000" d="M199.81,481.5L255.04,481.58V497H199.98C195.74,497 192.27,493.53 192.27,489.29C192.18,484.97 195.57,481.5 199.81,481.5Z"/><path fill="#030612" d="M316.38,180.75V293.42L338.92,481.5H293.76L271.23,293.42L271.14,225.9H255.47L214.8,180.75H316.38Z"/><path fill="#000000" d="M278.85,481.5L339,481.58V497H279.02C274.78,497 271.31,493.53 271.31,489.29C271.23,484.97 274.61,481.5 278.85,481.5Z"/><path fill="#191919" d="M255.47,225.9L255.04,481.5H214.8V180.75L255.47,225.9Z"/><path fill="#CC7A5A" d="M320.28,154.15C325.53,157.45 326.97,165.75 324.85,169.06L255.38,256.74V256.82C254.28,258.6 249.45,260.38 246.66,258.6C243.86,256.91 244.2,252.33 245.3,250.55C245.3,250.55 245.3,250.55 245.39,250.47L245.3,250.38C245.3,250.38 305.54,158.89 305.7,158.63C307.74,155.25 315.02,150.93 320.28,154.15Z"/><path fill="#8C8C8C" d="M214.55,253.86C262.23,253.86 300.88,215.21 300.88,167.53C300.88,119.85 262.23,81.2 214.55,81.2C166.87,81.2 128.22,119.85 128.22,167.53C128.22,215.21 166.87,253.86 214.55,253.86Z"/><path fill="#D1D1D1" d="M204.72,251.74C252.4,251.74 291.05,213.09 291.05,165.41C291.05,117.74 252.4,79.08 204.72,79.08C157.04,79.08 118.39,117.74 118.39,165.41C118.39,213.09 157.04,251.74 204.72,251.74Z"/><path fill="#8C8C8C" d="M204.72,239.71C245.76,239.71 279.02,206.45 279.02,165.41C279.02,124.38 245.76,91.12 204.72,91.12C163.69,91.12 130.42,124.38 130.42,165.41C130.42,206.45 163.69,239.71 204.72,239.71Z"/><path fill="#6FECA4" d="M208.28,240.47C249.31,240.47 282.58,207.21 282.58,166.17C282.58,125.14 249.31,91.88 208.28,91.88C167.25,91.88 133.98,125.14 133.98,166.17C133.98,207.21 167.25,240.47 208.28,240.47Z"/><path fill="#304E9C" d="M268.09,176.17L211.16,163.8C210.65,161.77 209.21,160.07 207.26,159.23L218.36,108.06C218.45,107.72 218.19,107.38 217.85,107.29L216.75,107.04C216.41,106.96 216.07,107.21 215.99,107.55L204.89,158.72C201.76,158.63 198.79,160.75 198.11,163.97C197.35,167.62 199.64,171.17 203.2,171.93C206.25,172.61 209.3,171 210.65,168.29L267.07,180.49C267.67,180.66 268.35,180.24 268.43,179.56L268.85,177.53C269.11,176.93 268.68,176.26 268.09,176.17Z"/><path fill="#A05B4B" d="M120.43,224.88C117.8,222.94 117.21,219.29 119.07,216.67C120.93,214.04 124.58,213.36 127.2,215.23L127.29,215.14C136.95,221.92 148.81,219.46 156.6,211.08L169.73,220.4C156.85,238.78 136.52,236.49 120.34,225.05L120.43,224.88Z"/><path fill="#CC7A5A" d="M251.15,259.2C254.11,257.84 255.38,254.45 254.11,251.49C252.84,248.52 249.37,247.16 246.4,248.35V248.27C235.56,252.93 224.46,248.1 218.53,238.27L203.79,244.71C212.68,265.38 232.93,267.33 251.15,259.36V259.2Z"/></g></svg>