<svg id="vector" xmlns="http://www.w3.org/2000/svg" width="24.6" height="23.6" viewBox="0 0 24.6 23.6"><path fill="#1f2d3d" d="M11.3,0.3v3h2L13.3,0.3zM4.523,3.109L3.109,4.523 5.23,6.644 6.644,5.23zM20.078,3.109L17.956,5.23l1.414,1.414 2.121,-2.121zM12.3,5.3a7.015,7.015 0,0 0,-7 7,6.939 6.939,0 0,0 4,6.234L9.3,21.3a2.015,2.015 0,0 0,2 2h2a2.015,2.015 0,0 0,2 -2v-2.766A6.939,6.939 0,0 0,19.3 12.3a7.015,7.015 0,0 0,-7 -7zM12.3,7.3a5,5 0,0 1,1.666 9.709l-0.666,0.234L13.3,21.3h-2v-4.057l-0.666,-0.234A5,5 0,0 1,12.3 7.3zM0.3,11.3v2h3v-2zM21.3,11.3v2h3v-2zM5.23,17.956l-2.121,2.121 1.414,1.414 2.121,-2.121zM19.371,17.956l-1.415,1.414 2.121,2.121 1.414,-1.414z" stroke-width=".6" stroke="#f6fafb" id="path_0"/></svg>