<svg id="vector" xmlns="http://www.w3.org/2000/svg" width="49" height="49" viewBox="0 0 49 49"><path fill="#f1bc19" d="M41,1.5a1,0.5 0,1 0,2 0a1,0.5 0,1 0,-2 0z" id="path_0"/><path fill="#ecf3f5" d="M24.5,24.5m-24.5,0a24.5,24.5 0,1 1,49 0a24.5,24.5 0,1 1,-49 0" id="path_1"/><path fill="#f1bc19" d="M46.5,2.5m-2.5,0a2.5,2.5 0,1 1,5 0a2.5,2.5 0,1 1,-5 0" id="path_2"/><path fill="#ee3e54" d="M1.5,9.33m-1.5,0a1.5,1.5 0,1 1,3 0a1.5,1.5 0,1 1,-3 0" id="path_3"/><path fill="#fbcd59" d="M42.5,41.5m-1.5,0a1.5,1.5 0,1 1,3 0a1.5,1.5 0,1 1,-3 0" id="path_4"/><path fill="#fbcd59" d="M1,42a2.5,3 0,1 0,5 0a2.5,3 0,1 0,-5 0z" id="path_5"/><path fill="#ee3e54" d="M8.5,45.5m-1.5,0a1.5,1.5 0,1 1,3 0a1.5,1.5 0,1 1,-3 0" id="path_6"/><path fill="#fff" d="M33.681,42.472m-1.608,0a1.608,1.608 0,1 1,3.216 0a1.608,1.608 0,1 1,-3.216 0" id="path_7"/><path fill="#fff" d="M2.5,23.031m-0.5,0a0.5,0.5 0,1 1,1 0a0.5,0.5 0,1 1,-1 0" id="path_8"/><path fill="#f1bc19" d="M47,12.75a0.5,1 0,1 0,1 0a0.5,1 0,1 0,-1 0z" id="path_9"/><path fill="#fff" d="M46.5,21.075m-1.5,0a1.5,1.5 0,1 1,3 0a1.5,1.5 0,1 1,-3 0" id="path_10"/><path fill="#ce9065" d="M36.184,35.852a2.655,2.655 0,0 0,-1.98 -2.386c-0.053,-0.016 -0.124,-0.042 -0.2,-0.073s-0.21,-0.088 -0.347,-0.141c-0.74,-0.313 -5.14,-1.936 -5.14,-1.936a1.116,1.116 0,0 1,-0.735 -0.641,5.163 5.163,0 0,1 -0.138,-1.727 28.037,28.037 0,0 1,-2.987 0.844c-1.129,0.11 -3.551,-1.35 -3.551,-1.35s-0.057,1.8 -0.133,2.2a1,1 0,0 1,-0.761 0.671l-4.222,1.531a4.8,4.8 0,0 0,-1.309 0.54,4.489 4.489,0 0,0 -1.874,2.465s-0.278,1.965 -0.267,2.036c-0.026,0.275 -0.053,0.578 -0.081,0.9 4.6,3.115 8.3,3.988 14.637,3.711a28.157,28.157 0,0 0,9.417 -2.683c-0.119,-2.504 -0.329,-3.961 -0.329,-3.961z" id="path_11"/><path fill="#fdfcef" d="M34.204,33.488c-0.053,-0.016 -0.124,-0.042 -0.2,-0.073s-0.21,-0.088 -0.347,-0.141c-0.458,-0.194 -2.314,-0.888 -3.665,-1.39l-0.063,-0.017c-1.491,0.764 -3.613,1.912 -5.561,1.912s-3.9,-1.037 -5.561,-1.912l-0.186,0.049 -2.626,0.952a4.8,4.8 0,0 0,-1.309 0.54,4.489 4.489,0 0,0 -1.874,2.465s-0.278,1.965 -0.267,2.036c-0.026,0.275 -0.053,3.226 -0.081,3.544 4.6,3.115 8.3,3.988 14.637,3.711a28.157,28.157 0,0 0,9.412 -2.676c-0.119,-2.5 -0.328,-6.608 -0.328,-6.608a2.655,2.655 0,0 0,-1.981 -2.392z" id="path_12"/><path fill="#f1bc19" d="M35.805,34.93a1.868,1.868 0,0 0,-1.311 -1.252l-0.859,-0.319 -1.4,-0.538 0.012,-0.02 -1.633,-0.6 -0.411,-0.158v0.005l-1.767,-0.654 -4.381,9.195 -3.786,-9.371 -2.224,0.9 -1.561,0.6 -0.859,0.319a6.113,6.113 0,0 0,-2.525 1.902c-0.785,1.86 -0.64,6.155 -0.736,6.631a30.881,30.881 0,0 0,6.013 3.108,16.994 16.994,0 0,0 4.167,0.641c0.024,0.043 0.049,0.088 0.071,0.124h2.245a20.187,20.187 0,0 0,6.622 -0.79c3.73,-1.052 5.136,-1.938 5.127,-1.98 -0.097,-0.475 -0.191,-5.645 -0.804,-7.743z" id="path_13"/><path fill="#ce942b" d="M16.586,43.98a0.208,0.208 0,0 1,-0.207 -0.207v-2.32a0.207,0.207 0,1 1,0.415 0v2.32a0.207,0.207 0,0 1,-0.208 0.207z" id="path_14"/><path fill="#ce942b" d="M32.093,44.388a0.208,0.208 0,0 1,-0.207 -0.207L31.886,41.453a0.207,0.207 0,1 1,0.415 0v2.727a0.207,0.207 0,0 1,-0.208 0.208z" id="path_15"/><path fill="#db9e71" d="M31.619,20.721c-0.069,0 -0.14,-0.005 -0.213,-0.005 -0.572,-0.028 -0.735,0.2 -0.709,-0.153 0.046,-0.628 -0.041,-3.177 -0.041,-3.306 0,-2.641 -2.757,-4.795 -6.2,-4.914v-0.008h-0.138v0.008c-3.445,0.12 -6.2,2.273 -6.2,4.914 0,0.129 -0.088,2.677 -0.041,3.306 0.026,0.354 -0.137,0.126 -0.709,0.153 -0.073,0 -0.144,0 -0.213,0.005a1.319,1.319 0,0 0,-1.243 0.935,19.783 19.783,0 0,0 0.824,3.064c0.258,0.476 0.661,0.542 1.076,0.85a0.918,0.918 0,0 1,0.337 0.617A5.3,5.3 0,0 0,19.727 28.61c0.349,0.338 2.666,2.808 4.657,2.683 2,-0.075 4.308,-2.345 4.657,-2.683a5.3,5.3 0,0 0,1.585 -2.427,0.914 0.914,0 0,1 0.337,-0.617c0.414,-0.308 0.817,-0.373 1.076,-0.85a19.713,19.713 0,0 0,0.824 -3.064,1.319 1.319,0 0,0 -1.244,-0.931z" id="path_16"/><path fill="#512c2b" d="M24.42,24.785a1.391,1.391 0,0 0,1.05 -0.472,0.071 0.071,0 0,0 -0.008,-0.1 0.071,0.071 0,0 0,-0.1 0.007,1.382 1.382,0 0,1 -1.883,0 0.072,0.072 0,0 0,-0.054 -0.024,0.071 0.071,0 0,0 -0.054,0.117 1.391,1.391 0,0 0,1.049 0.472z" id="path_17"/><path fill="#512c2b" d="M23.131,18.858l0.257,-0.493a6.679,6.679 0,0 0,-3.367 0.106l0.324,0.481a5.251,5.251 0,0 1,2.786 -0.094z" id="path_18"/><path fill="#512c2b" d="M28.565,18.858l0.257,-0.493a6.679,6.679 0,0 0,-3.367 0.106l0.324,0.481a5.251,5.251 0,0 1,2.786 -0.094z" id="path_19"/><path fill="#512c2b" d="M21.566,20.094a0.719,0.719 0,0 0,-0.622 0.433,0.351 0.351,0 0,1 0.1,-0.017 0.435,0.435 0,0 1,0 0.864,0.355 0.355,0 0,1 -0.189,-0.063 0.791,0.791 0,0 0,0.711 0.677,0.978 0.978,0 0,0 0,-1.9z" id="path_20"/><path fill="#512c2b" d="M27.242,20.094a0.684,0.684 0,0 0,-0.558 0.325,0.353 0.353,0 0,1 0.136,-0.029 0.435,0.435 0,0 1,0 0.864,0.377 0.377,0 0,1 -0.319,-0.188 0.766,0.766 0,1 0,0.741 -0.971z" id="path_21"/><path fill="#512c2b" d="M18.557,18.658a13.909,13.909 0,0 1,1.354 -3.68,0.805 0.805,0 0,0 -0.895,-0.288A10,10 0,0 0,17.768 19.695a9.265,9.265 0,0 0,0.418 2.352c0.192,-1.113 0.127,-2.262 0.371,-3.389z" id="path_22"/><path fill="#512c2b" d="M30.283,18.658a13.909,13.909 0,0 0,-1.354 -3.68,0.805 0.805,0 0,1 0.895,-0.288 9.995,9.995 0,0 1,1.247 5.005,9.265 9.265,0 0,1 -0.418,2.352c-0.196,-1.113 -0.127,-2.262 -0.37,-3.389z" id="path_23"/><path fill="#472b29" d="M25.044,45.592A20.327,20.327 0,0 1,12.292 41.783a0.3,0.3 0,0 1,-0.129 -0.271c0.005,-0.064 0.008,-0.281 0.012,-0.6a30.144,30.144 0,0 1,0.344 -5.035,3.839 3.839,0 0,1 2,-2.64 5.1,5.1 0,0 1,1.39 -0.574l4.2,-1.522a0.755,0.755 0,0 0,0.571 -0.449,11.287 11.287,0 0,0 0.091,-1.208 14.344,14.344 0,0 1,-1.252 -0.962,5.515 5.515,0 0,1 -1.666,-2.6c-0.065,-0.265 -0.092,-0.357 -0.226,-0.457a3.174,3.174 0,0 0,-0.362 -0.226,1.764 1.764,0 0,1 -0.8,-0.729 9.661,9.661 0,0 1,-0.86 -3.239,0.318 0.318,0 0,1 0.007,-0.063 1.608,1.608 0,0 1,1.52 -1.172c0.076,0 0.153,-0.006 0.233,-0.006a2.154,2.154 0,0 1,0.406 0.018c-0.021,-0.715 0.021,-2.228 0.04,-2.912 0,-0.171 0.008,-0.284 0.008,-0.308 0,-2.809 2.817,-5.111 6.424,-5.263a0.4,0.4 0,0 1,0.078 -0.011l0.066,0.3 0.011,-0.294a0.36,0.36 0,0 1,0.069 0.006c3.638,0.127 6.488,2.44 6.488,5.265 0,0.025 0,0.138 0.008,0.31 0.02,0.7 0.063,2.258 0.04,2.91a2.386,2.386 0,0 1,0.421 -0.018c0.063,0 0.142,0 0.218,0.006a1.608,1.608 0,0 1,1.512 1.178,0.28 0.28,0 0,1 0.007,0.063 9.439,9.439 0,0 1,-0.86 3.239,1.761 1.761,0 0,1 -0.8,0.729 3.172,3.172 0,0 0,-0.362 0.226c-0.134,0.1 -0.162,0.193 -0.223,0.444a5.52,5.52 0,0 1,-1.669 2.609,15.809 15.809,0 0,1 -1.329,1.048 3.119,3.119 0,0 0,0.127 1.082,0.834 0.834,0 0,0 0.539,0.48c0.21,0.075 4.444,1.638 5.182,1.95 0.133,0.052 0.254,0.1 0.349,0.142 0.062,0.024 0.127,0.047 0.175,0.062a2.949,2.949 0,0 1,2.185 2.614,0.3 0.3,0 0,1 0,0.04s0.21,4.1 0.328,6.609a0.3,0.3 0,0 1,-0.162 0.279,28.478 28.478,0 0,1 -9.538,2.714c-0.715,0.028 -1.402,0.045 -2.059,0.045zM12.761,41.384c4.391,2.942 8.03,3.844 14.322,3.568a27.777,27.777 0,0 0,9.124 -2.566c-0.115,-2.409 -0.3,-6.088 -0.318,-6.394a2.361,2.361 0,0 0,-1.771 -2.139c-0.059,-0.018 -0.138,-0.046 -0.226,-0.08s-0.214,-0.089 -0.348,-0.141c-0.734,-0.31 -5.091,-1.918 -5.135,-1.934a1.4,1.4 0,0 1,-0.9 -0.793,3.712 3.712,0 0,1 -0.181,-1.493 0.3,0.3 0,0 1,0.124 -0.235,16.058 16.058,0 0,0 1.38,-1.076 4.972,4.972 0,0 0,1.5 -2.312,1.209 1.209,0 0,1 0.446,-0.791 3.662,3.662 0,0 1,0.426 -0.268,1.219 1.219,0 0,0 0.566,-0.494 8.9,8.9 0,0 0,0.789 -2.926,1.042 1.042,0 0,0 -0.965,-0.683h-0.193a1.977,1.977 0,0 0,-0.429 0.028,0.426 0.426,0 0,1 -0.576,-0.5c0.036,-0.5 -0.015,-2.312 -0.034,-3 0,-0.181 -0.008,-0.3 -0.008,-0.327 0,-2.5 -2.6,-4.557 -5.917,-4.673a0.227,0.227 0,0 1,-0.044 0h-0.022a0.292,0.292 0,0 1,-0.051 0.007c-3.318,0.116 -5.917,2.169 -5.917,4.673 0,0.025 0,0.145 -0.008,0.325 -0.019,0.683 -0.07,2.5 -0.034,3a0.426,0.426 0,0 1,-0.575 0.5,1.858 1.858,0 0,0 -0.414,-0.028c-0.081,0 -0.145,0 -0.208,0.005a1.042,1.042 0,0 0,-0.965 0.683,9.289 9.289,0 0,0 0.789,2.926 1.219,1.219 0,0 0,0.566 0.494,3.855 3.855,0 0,1 0.427,0.268 1.194,1.194 0,0 1,0.443 0.777,4.969 4.969,0 0,0 1.508,2.316 15.587,15.587 0,0 0,1.31 0.993,0.3 0.3,0 0,1 0.126,0.257 14.366,14.366 0,0 1,-0.108 1.455,1.288 1.288,0 0,1 -0.979,0.9l-4.194,1.522a4.621,4.621 0,0 0,-1.255 0.513,3.264 3.264,0 0,0 -1.744,2.291 30.772,30.772 0,0 0,-0.324 4.889c0.002,0.193 0,0.35 -0.003,0.463z" id="path_24"/><path fill="#895d3d" d="M31.656,23.535l-0.353,-0.04 0.119,-1.054 -0.6,0.26 -0.141,-0.327 0.881,-0.382a0.18,0.18 0,0 1,0.177 0.02,0.176 0.176,0 0,1 0.071,0.163z" id="path_25"/><path fill="#895d3d" d="M17.303,23.336l-0.153,-1.359a0.179,0.179 0,0 1,0.071 -0.163,0.176 0.176,0 0,1 0.176,-0.02l0.881,0.382 -0.141,0.327 -0.6,-0.26 0.119,1.054z" id="path_26"/><path fill="#472b29" d="M18.099,25.955a0.119,0.119 0,0 1,-0.116 -0.121l0.1,-5.124a0.118,0.118 0,0 1,0.119 -0.116,0.119 0.119,0 0,1 0.116,0.121l-0.1,5.124a0.118,0.118 0,0 1,-0.119 0.116z" id="path_27"/><path fill="#472b29" d="M30.768,25.955a0.119,0.119 0,0 1,-0.119 -0.116l-0.1,-5.124a0.119,0.119 0,0 1,0.116 -0.121,0.123 0.123,0 0,1 0.121,0.116l0.1,5.124a0.119,0.119 0,0 1,-0.116 0.121z" id="path_28"/><path fill="#512c2b" d="M31.151,18.983a6.973,6.973 0,0 0,-1.167 -5.17,9.022 9.022,0 0,0 -5.645,-1.919 9.145,9.145 0,0 0,-4.861 1.366,5.914 5.914,0 0,0 -1.826,5.723 22.794,22.794 0,0 0,0.584 3.68c0.113,-1.157 0.126,-3.6 0.368,-4.68a13.213,13.213 0,0 1,0.747 -2.318c1.62,-1.725 8.35,-1.647 10.1,0a13.214,13.214 0,0 1,0.747 2.318c0.242,1.083 0.257,3.551 0.451,4.626a22.163,22.163 0,0 0,0.502 -3.626z" id="path_29"/><path fill="#5e2e2e" d="M32.851,15.648a1.354,1.354 0,0 1,-0.814 0.654,1.461 1.461,0 0,0 -0.17,-0.377 1.439,1.439 0,0 0,-1.38 -2.282h-0.017a1.847,1.847 0,0 0,-2.607 -1.953c0,-0.024 0,-0.047 -0.008,-0.072a2.253,2.253 0,0 0,-2.624 -1.8,2.349 2.349,0 0,0 -1.661,1.114 3.119,3.119 0,0 0,-1.761 -0.219,2.571 2.571,0 0,0 -2.373,2.714c0.009,0.056 0.023,0.109 0.036,0.163a1.455,1.455 0,0 0,-0.616 0.958,1.811 1.811,0 0,0 1.682,1.9 2.181,2.181 0,0 0,1.378 -0.222,3.266 3.266,0 0,0 3.545,1.61 3.84,3.84 0,0 0,1.671 -0.689,1.945 1.945,0 0,0 2.454,0.673 1.5,1.5 0,0 0,2.04 0c0.635,-0.183 1.216,-0.775 1.225,-2.172z" id="path_30"/><path fill="#472b29" d="M24.377,31.31c-1.208,0 -3.236,-1.548 -3.326,-1.617a0.148,0.148 0,1 1,0.181 -0.235c0.022,0.017 2.2,1.67 3.258,1.549a8.57,8.57 0,0 0,2.839 -1.422,0.148 0.148,0 1,1 0.176,0.238 8.635,8.635 0,0 1,-2.979 1.478,1.353 1.353,0 0,1 -0.149,0.009z" id="path_31"/><path fill="#472b29" d="M13.982,20.037L8.65,20.037a0.148,0.148 0,1 1,0 -0.3h5.333a0.148,0.148 0,1 1,0 0.3z" id="path_32"/><path fill="#472b29" d="M40.057,20.037L34.725,20.037a0.148,0.148 0,1 1,0 -0.3h5.333a0.148,0.148 0,1 1,0 0.3z" id="path_33"/><path fill="#472b29" d="M24.354,8.53a0.148,0.148 0,0 1,-0.148 -0.148L24.206,4.53a0.148,0.148 0,1 1,0.3 0v3.85a0.148,0.148 0,0 1,-0.152 0.15z" id="path_34"/><path fill="#472b29" d="M31.685,13.046a0.148,0.148 0,0 1,-0.1 -0.253l3.771,-3.771a0.148,0.148 0,0 1,0.21 0.21l-3.771,3.771a0.148,0.148 0,0 1,-0.11 0.043z" id="path_35"/><path fill="#472b29" d="M17.018,13.046a0.148,0.148 0,0 1,-0.1 -0.043l-3.771,-3.771a0.148,0.148 0,0 1,0.21 -0.21l3.771,3.771a0.148,0.148 0,0 1,-0.1 0.253z" id="path_36"/><path fill="#6d1b18" d="M21.389,25.939h5.926a3.181,3.181 0,0 1,-3.057 2.9A3.138,3.138 0,0 1,21.389 25.939z" id="path_37"/><path fill="#ee3e54" d="M25.989,28.417a3.115,3.115 0,0 0,-3.213 0,4.607 4.607,0 0,0 3.213,0z" id="path_38"/><path fill="#fdfcef" d="M22.27,25.939a0.148,0.148 0,0 0,-0.007 0.023v0.22c0,0.193 0.434,0.35 0.965,0.35h2.31c0.531,0 0.965,-0.158 0.965,-0.35v-0.22a0.112,0.112 0,0 0,-0.006 -0.023z" id="path_39"/><path fill="#472b29" d="M24.191,28.989a2.849,2.849 0,0 1,-1.91 -0.87,3.171 3.171,0 0,1 -1.04,-2.178 0.148,0.148 0,0 1,0.148 -0.148h5.926a0.148,0.148 0,0 1,0.148 0.148,3.343 3.343,0 0,1 -3.2,3.05zM21.546,26.089a2.956,2.956 0,0 0,0.94 1.819,2.51 2.51,0 0,0 1.77,0.786 3.057,3.057 0,0 0,2.909 -2.605h-5.622z" id="path_40"/></svg>