<svg xmlns="http://www.w3.org/2000/svg" width="12.542" height="15.198" viewBox="0 0 12.542 15.198">
    <path fill="#9cafb1" d="M8.705 1.309L3.828 3.476A1.393 1.393 0 0 0 3 4.75v3.275a8.654 8.654 0 0 0 6.271 8.361 8.654 8.654 0 0 0 6.271-8.361V4.75a1.394 1.394 0 0 0-.828-1.274L9.837 1.309a1.392 1.392 0 0 0-1.132 0zm-.624 10l-1.93-1.93a.7.7 0 0 1 0-.985.7.7 0 0 1 .985 0l1.438 1.433 3.543-3.543a.7.7 0 0 1 .985 0 .7.7 0 0 1 0 .985L9.067 11.3a.7.7 0 0 1-.985 0z" transform="translate(-3 -1.188)"/>
</svg>
