<svg id="vector" xmlns="http://www.w3.org/2000/svg" width="24" height="24"
    viewBox="0 0 17.605 17.604">
    <path fill="#0038da"
        d="M8.8,17.6a18.325,18.325 0,0 1,-6.224 -0.933C0.892,16.032 0,15.137 0,14.084 0,12.9 1.152,11.9 3.244,11.27c0.358,0.491 0.764,1 1.207,1.51 -1.61,0.363 -2.691,0.886 -2.691,1.3 0,0.356 0.79,0.8 2.061,1.146a19.361,19.361 0,0 0,4.981 0.614,19.348 19.348,0 0,0 4.98,-0.614c1.272,-0.351 2.062,-0.79 2.062,-1.146 0,-0.417 -1.081,-0.941 -2.691,-1.3 0.439,-0.506 0.845,-1.013 1.207,-1.51 2.093,0.63 3.24,1.63 3.24,2.814 0,1.053 -0.892,1.948 -2.579,2.587A18.325,18.325 0,0 1,8.8 17.6zM8.8,15.146l-0.964,-0.841c-3.5,-3.054 -5.2,-5.719 -5.2,-8.147a6.162,6.162 0,1 1,12.324 0c0,2.429 -1.7,5.094 -5.2,8.147l-0.96,0.845zM8.8,1.76a4.322,4.322 0,0 0,-4.4 4.4c0,1.824 1.481,4.062 4.4,6.651 2.92,-2.588 4.4,-4.826 4.4,-6.651a4.323,4.323 0,0 0,-4.4 -4.4zM8.8,8.8a2.641,2.641 0,1 1,2.64 -2.64A2.643,2.643 0,0 1,8.8 8.8zM8.8,5.279a0.88,0.88 0,1 0,0.88 0.88,0.881 0.881,0 0,0 -0.88,-0.877z"
        id="path_0" />
</svg>