<svg width="16" height="16" viewBox="0 0 16 16" fill="none" xmlns="http://www.w3.org/2000/svg">
<path d="M6.88462 3.69231C6.88462 5.45537 5.45537 6.88462 3.69231 6.88462C1.92924 6.88462 0.5 5.45537 0.5 3.69231C0.5 1.92924 1.92924 0.5 3.69231 0.5C5.45537 0.5 6.88462 1.92924 6.88462 3.69231Z" stroke="#8FA3A5"/>
<path d="M3.69233 6.46153C5.22173 6.46153 6.46156 5.2217 6.46156 3.6923C6.46156 2.16289 5.22173 0.923065 3.69233 0.923065C2.16292 0.923065 0.923096 2.16289 0.923096 3.6923C0.923096 5.2217 2.16292 6.46153 3.69233 6.46153Z" stroke="#8FA3A5" stroke-width="1.5"/>
<path d="M6.88462 12.3077C6.88462 14.0708 5.45537 15.5 3.69231 15.5C1.92924 15.5 0.5 14.0708 0.5 12.3077C0.5 10.5446 1.92924 9.11539 3.69231 9.11539C5.45537 9.11539 6.88462 10.5446 6.88462 12.3077Z" stroke="#8FA3A5"/>
<path d="M3.69233 15.0769C5.22173 15.0769 6.46156 13.8371 6.46156 12.3077C6.46156 10.7783 5.22173 9.53845 3.69233 9.53845C2.16292 9.53845 0.923096 10.7783 0.923096 12.3077C0.923096 13.8371 2.16292 15.0769 3.69233 15.0769Z" stroke="#8FA3A5" stroke-width="1.5"/>
<path d="M15.5001 3.69231C15.5001 5.45537 14.0708 6.88462 12.3078 6.88462C10.5447 6.88462 9.11548 5.45537 9.11548 3.69231C9.11548 1.92924 10.5447 0.5 12.3078 0.5C14.0708 0.5 15.5001 1.92924 15.5001 3.69231Z" stroke="#8FA3A5"/>
<path d="M12.308 6.46153C13.8375 6.46153 15.0773 5.2217 15.0773 3.6923C15.0773 2.16289 13.8375 0.923065 12.308 0.923065C10.7786 0.923065 9.53882 2.16289 9.53882 3.6923C9.53882 5.2217 10.7786 6.46153 12.308 6.46153Z" stroke="#8FA3A5" stroke-width="1.5"/>
<path d="M15.5001 12.3077C15.5001 14.0708 14.0708 15.5 12.3078 15.5C10.5447 15.5 9.11548 14.0708 9.11548 12.3077C9.11548 10.5446 10.5447 9.11539 12.3078 9.11539C14.0708 9.11539 15.5001 10.5446 15.5001 12.3077Z" stroke="#8FA3A5"/>
<path d="M12.308 15.0769C13.8375 15.0769 15.0773 13.8371 15.0773 12.3077C15.0773 10.7783 13.8375 9.53845 12.308 9.53845C10.7786 9.53845 9.53882 10.7783 9.53882 12.3077C9.53882 13.8371 10.7786 15.0769 12.308 15.0769Z" stroke="#8FA3A5" stroke-width="1.5"/>
</svg>
