<svg id="vector" xmlns="http://www.w3.org/2000/svg" width="72" height="24" viewBox="0 0 140.247 35.538"><path fill="#0238da" d="M108.998,35.538a13.459,13.459 0,0 1,-7.116 -1.923l0.683,-2.721a11.791,11.791 0,0 0,6.289 1.853,6.249 6.249,0 0,0 4.429,-1.519 4.938,4.938 0,0 0,1.465 -3.67L114.748,25.087h-0.072a7.408,7.408 0,0 1,-5.93 2.721,8.41 8.41,0 0,1 -5.992,-2.4 8.835,8.835 0,0 1,-2.489 -6.345,9.079 9.079,0 0,1 2.39,-6.287A8.092,8.092 0,0 1,108.603 10.247a7.952,7.952 0,0 1,6.036 2.685h0.071L114.71,10.465h2.875v16.328a9.154,9.154 0,0 1,-2 6.292c-1.459,1.627 -3.675,2.453 -6.587,2.453zM108.962,13.005a5.645,5.645 0,0 0,-5.714 5.951,6.19 6.19,0 0,0 1.685,4.463 5.6,5.6 0,0 0,4.029 1.628c3.448,0 5.857,-2.521 5.857,-6.132a5.86,5.86 0,0 0,-1.689 -4.287,5.881 5.881,0 0,0 -4.168,-1.623zM92.328,29.431l-1.354,-1.294L90.974,10.465h2.911v17.671l-1.554,1.294zM45.398,28.354a8.5,8.5 0,0 1,-6.113 -2.437A8.983,8.983 0,0 1,36.81 19.427a9.568,9.568 0,0 1,2.417 -6.55A8.243,8.243 0,0 1,45.362 10.247a7.56,7.56 0,0 1,6.038 2.867h0.036L51.436,10.465h2.91v17.671h-2.8v-2.794L51.51,25.342a7.417,7.417 0,0 1,-6.112 3.012zM45.686,12.968a5.726,5.726 0,0 0,-4.2 1.76,6.654 6.654,0 0,0 -1.726,4.7 6.515,6.515 0,0 0,1.613 4.454,5.647 5.647,0 0,0 4.28,1.787 5.759,5.759 0,0 0,4.129 -1.722,6.366 6.366,0 0,0 1.761,-4.52c0,-3.68 -2.518,-6.459 -5.857,-6.459zM127.562,28.137h-2.911L124.651,10.465h2.911L127.562,13.547h0.036a7.662,7.662 0,0 1,6.36 -3.3,5.85 5.85,0 0,1 4.559,1.81 8.125,8.125 0,0 1,1.73 5.59v10.487h-2.911L137.336,18.483a6.417,6.417 0,0 0,-1.181 -4.308,3.851 3.851,0 0,0 -3.095,-1.207c-3.391,0 -5.5,2.433 -5.5,6.35v8.818zM68.418,28.137L65.76,28.137L59.686,10.465h2.947l4.456,13.208h0.072L71.15,10.465h2.515l4.061,13.208h0.073L82.253,10.465h2.947l-6.072,17.67h-2.732L72.443,15.254L72.41,15.254l-3.991,12.882z" id="path_0"/><path fill="#FF000000" d="M13.754,0.752L0.315,27.583a1,1 0,0 0,0.769 1.44c0.036,0 0.087,0.01 0.154,0.014a11.816,11.816 0,0 0,4.563 -0.843,29.054 29.054,0 0,0 9.518,-6.132c3.158,-2.891 5.125,-4.774 6.133,-5.845a6.655,6.655 0,0 0,0.8 -0.965,1.031 1.031,0 0,0 0.162,-0.868 1.027,1.027 0,0 0,-1.2 -0.766,1.073 1.073,0 0,0 -0.178,0.049 1.024,1.024 0,0 0,-0.126 0.054,1 1,0 0,0 -0.534,0.7q-0.137,0.16 -0.384,0.423c-0.967,1.025 -2.9,2.881 -6.029,5.741a27.09,27.09 0,0 1,-8.847 5.727,13.336 13.336,0 0,1 -2.246,0.609L15.537,1.648a1,1 0,1 0,-1.784 -0.9z" stroke="#0238da" stroke-width="1" id="path_1"/><path fill="#FF000000" d="M14.242,0.307a1,1 0,0 0,-0.444 1.341l12.658,25.274a13.323,13.323 0,0 1,-2.246 -0.609,27.087 27.087,0 0,1 -8.848,-5.727c-3.125,-2.859 -5.063,-4.715 -6.029,-5.741q-0.247,-0.263 -0.384,-0.423a1,1 0,0 0,-0.534 -0.7,1.118 1.118,0 0,0 -0.126,-0.054 1.084,1.084 0,0 0,-0.178 -0.049,1.027 1.027,0 0,0 -1.195,0.766 1.027,1.027 0,0 0,0.162 0.868,6.617 6.617,0 0,0 0.8,0.965c1.009,1.07 2.976,2.954 6.134,5.845a29.052,29.052 0,0 0,9.518 6.132,11.819 11.819,0 0,0 4.563,0.843c0.067,0 0.119,-0.01 0.154,-0.014a1,1 0,0 0,0.769 -1.44L15.582,0.752A1,1 0,0 0,14.242 0.307z" stroke="#0238da" stroke-width="1" id="path_2"/></svg>