<svg width="13" height="15" viewBox="0 0 13 15" fill="none" xmlns="http://www.w3.org/2000/svg">
<path d="M8.86655 1.12067L3.10053 3.75505C-0.775159 5.52232 -0.607639 7.88232 3.47177 8.98505L4.70559 9.31956C5.0651 9.42029 5.35797 9.69258 5.50477 10.0626L5.99342 11.3295C7.62249 15.534 9.79368 15.3576 10.8144 10.9267L12.3313 4.34193C13.0118 1.388 11.4532 -0.0610997 8.86655 1.12067ZM9.59718 4.81679L7.29998 7.7247C7.12557 7.94549 6.81216 7.97167 6.60864 7.78245C6.40512 7.59324 6.38098 7.25324 6.5554 7.03245L8.85259 4.12454C9.02701 3.90375 9.34042 3.87757 9.54394 4.06679C9.74746 4.256 9.77159 4.596 9.59718 4.81679Z" fill="#113DBC"/>
</svg>
