<svg width="16" height="16" viewBox="0 0 16 16" fill="none" xmlns="http://www.w3.org/2000/svg">
<path d="M6.88462 3.69231C6.88462 5.45537 5.45537 6.88462 3.69231 6.88462C1.92924 6.88462 0.5 5.45537 0.5 3.69231C0.5 1.92924 1.92924 0.5 3.69231 0.5C5.45537 0.5 6.88462 1.92924 6.88462 3.69231Z" stroke="#8FA3A5"/>
<path d="M3.69233 6.46131C5.22173 6.46131 6.46156 5.22149 6.46156 3.69208C6.46156 2.16268 5.22173 0.922852 3.69233 0.922852C2.16292 0.922852 0.923096 2.16268 0.923096 3.69208C0.923096 5.22149 2.16292 6.46131 3.69233 6.46131Z" stroke="#8FA3A5" stroke-width="1.5"/>
<path d="M6.88462 12.3075C6.88462 14.0706 5.45537 15.4999 3.69231 15.4999C1.92924 15.4999 0.5 14.0706 0.5 12.3075C0.5 10.5445 1.92924 9.11523 3.69231 9.11523C5.45537 9.11523 6.88462 10.5445 6.88462 12.3075Z" stroke="#8FA3A5"/>
<path d="M3.69233 15.0765C5.22173 15.0765 6.46156 13.8367 6.46156 12.3073C6.46156 10.7779 5.22173 9.53809 3.69233 9.53809C2.16292 9.53809 0.923096 10.7779 0.923096 12.3073C0.923096 13.8367 2.16292 15.0765 3.69233 15.0765Z" stroke="#8FA3A5" stroke-width="1.5"/>
<path d="M15.5001 3.69231C15.5001 5.45537 14.0708 6.88462 12.3078 6.88462C10.5447 6.88462 9.11548 5.45537 9.11548 3.69231C9.11548 1.92924 10.5447 0.5 12.3078 0.5C14.0708 0.5 15.5001 1.92924 15.5001 3.69231Z" stroke="#8FA3A5"/>
<path d="M12.308 6.46131C13.8375 6.46131 15.0773 5.22149 15.0773 3.69208C15.0773 2.16268 13.8375 0.922852 12.308 0.922852C10.7786 0.922852 9.53882 2.16268 9.53882 3.69208C9.53882 5.22149 10.7786 6.46131 12.308 6.46131Z" stroke="#8FA3A5" stroke-width="1.5"/>
<path d="M15.5001 12.3075C15.5001 14.0706 14.0708 15.4999 12.3078 15.4999C10.5447 15.4999 9.11548 14.0706 9.11548 12.3075C9.11548 10.5445 10.5447 9.11523 12.3078 9.11523C14.0708 9.11523 15.5001 10.5445 15.5001 12.3075Z" stroke="#8FA3A5"/>
<path d="M12.308 15.0765C13.8375 15.0765 15.0773 13.8367 15.0773 12.3073C15.0773 10.7779 13.8375 9.53809 12.308 9.53809C10.7786 9.53809 9.53882 10.7779 9.53882 12.3073C9.53882 13.8367 10.7786 15.0765 12.308 15.0765Z" stroke="#8FA3A5" stroke-width="1.5"/>
</svg>
