<svg width="4" height="17" viewBox="0 0 4 17" fill="none" xmlns="http://www.w3.org/2000/svg">
<path d="M4 2.23778C4 1.83981 3.8827 1.45077 3.66294 1.11987C3.44318 0.788962 3.13082 0.531054 2.76537 0.378756C2.39992 0.226458 1.99778 0.18661 1.60982 0.26425C1.22186 0.341891 0.865493 0.533534 0.585788 0.814945C0.306083 1.09636 0.115601 1.45489 0.0384311 1.84522C-0.0387393 2.23555 0.000867262 2.64013 0.152243 3.00782C0.303618 3.3755 0.559963 3.68976 0.888861 3.91086C1.21776 4.13196 1.60444 4.24998 2 4.24998C2.53043 4.24998 3.03914 4.03798 3.41421 3.66062C3.78929 3.28326 4 2.77145 4 2.23778ZM4 8.27437C4 7.87639 3.8827 7.48735 3.66294 7.15645C3.44318 6.82555 3.13082 6.56764 2.76537 6.41534C2.39992 6.26304 1.99778 6.22319 1.60982 6.30083C1.22186 6.37848 0.865492 6.57012 0.585787 6.85153C0.306083 7.13294 0.115601 7.49148 0.0384308 7.88181C-0.0387396 8.27213 0.000867 8.67672 0.152242 9.0444C0.303618 9.41208 0.559962 9.72634 0.888861 9.94744C1.21776 10.1685 1.60444 10.2866 2 10.2866C2.53043 10.2866 3.03914 10.0746 3.41421 9.6972C3.78929 9.31984 4 8.80803 4 8.27437ZM4 14.311C4 13.913 3.8827 13.5239 3.66294 13.193C3.44318 12.8621 3.13082 12.6042 2.76537 12.4519C2.39991 12.2996 1.99778 12.2598 1.60982 12.3374C1.22186 12.4151 0.865492 12.6067 0.585787 12.8881C0.306082 13.1695 0.115601 13.5281 0.0384306 13.9184C-0.0387398 14.3087 0.000866737 14.7133 0.152242 15.081C0.303617 15.4487 0.559962 15.7629 0.88886 15.984C1.21776 16.2051 1.60444 16.3231 2 16.3231C2.53043 16.3231 3.03914 16.1111 3.41421 15.7338C3.78929 15.3564 4 14.8446 4 14.311Z" fill="#8FA3A5"/>
</svg>
