<svg id="vector" xmlns="http://www.w3.org/2000/svg" width="25.138" height="23.81" viewBox="0 0 25.138 23.81"><path fill="#1f2d3d" d="M17.5881,0.9594l-0.5806,1.5212L5.954,10.7904l1.7542,5.7378l2.6038,0.1336 -0.0367,0.8478a1.153,1.153 118,0 0,1.1001 1.204l2.3083,0.1005a1.156,1.156 118,0 0,1.2044 -1.1054l0.0348,-0.8096L21.5188,17.2364 22.8508,18.1729l1.9126,-0.5847L19.5007,0.3746zM18.4801,3.8771l3.4792,11.38l-0.3377,-0.017L9.2116,14.6047l-0.9356,-3.0602l9.9337,-7.4645zM2.1288,11.9599l1.7542,5.7378l1.9126,-0.5847L4.0414,11.3752z" stroke-width=".6" stroke="#f6fafb" id="path_0"/></svg>