<svg width="24" height="24" viewBox="0 0 24 24" fill="none" xmlns="http://www.w3.org/2000/svg">
<path d="M18.69 11.5298C18.12 11.3798 17.45 11.2998 16.65 11.2998C15.54 11.2998 15.13 11.5698 14.56 11.9998C14.53 12.0198 14.5 12.0498 14.47 12.0798L13.52 13.0898C12.73 13.9398 11.28 13.9398 10.48 13.0898L9.52999 12.0898C9.49999 12.0498 9.46999 12.0198 9.43999 11.9998C8.85999 11.5698 8.44999 11.2998 7.34999 11.2998C6.54999 11.2998 5.87999 11.3698 5.30999 11.5298C2.92999 12.1698 2.92999 14.0598 2.92999 15.7198V16.6498C2.92999 19.1598 2.92999 21.9998 8.27999 21.9998H15.72C19.27 21.9998 21.07 20.1998 21.07 16.6498V15.7198C21.07 14.0598 21.07 12.1698 18.69 11.5298Z" fill="#606A7B"/>
<path d="M14.79 2H9.21001C4.79001 2 4.79001 4.35 4.79001 6.42V10.12C4.83001 10.1 4.88001 10.09 4.92001 10.08C5.62001 9.89 6.41001 9.8 7.35001 9.8C8.89001 9.8 9.62001 10.25 10.34 10.8C10.44 10.87 10.54 10.96 10.63 11.06L11.57 12.05C11.67 12.16 11.83 12.22 12 12.22C12.17 12.22 12.33 12.16 12.42 12.06L13.38 11.05C13.46 10.97 13.55 10.88 13.65 10.81C14.39 10.25 15.11 9.8 16.65 9.8C17.59 9.8 18.38 9.89 19.08 10.08C19.12 10.09 19.17 10.1 19.21 10.12V6.42C19.21 4.35 19.21 2 14.79 2ZM13.55 8.5H10.45C10.07 8.5 9.75001 8.18 9.75001 7.8C9.75001 7.41 10.07 7.1 10.45 7.1H13.55C13.93 7.1 14.25 7.41 14.25 7.8C14.25 8.18 13.93 8.5 13.55 8.5ZM14.33 5.71H9.67001C9.29001 5.71 8.98001 5.39 8.98001 5.01C8.98001 4.62 9.29001 4.31 9.67001 4.31H14.33C14.71 4.31 15.02 4.62 15.02 5.01C15.02 5.39 14.71 5.71 14.33 5.71Z" fill="#606A7B"/>
</svg>
