<svg width="20" height="20" viewBox="0 0 20 20" fill="none" xmlns="http://www.w3.org/2000/svg">
<circle cx="10" cy="10" r="10" fill="#F79009"/>
<path d="M7.95 14.25H12.05V12.6625C12.05 12.0792 11.8521 11.5771 11.4563 11.1562C11.0604 10.7354 10.575 10.525 10 10.525C9.425 10.525 8.93958 10.7354 8.54375 11.1562C8.14792 11.5771 7.95 12.0792 7.95 12.6625V14.25ZM10 9.475C10.575 9.475 11.0604 9.26458 11.4563 8.84375C11.8521 8.42292 12.05 7.91667 12.05 7.325V5.75H7.95V7.325C7.95 7.91667 8.14792 8.42292 8.54375 8.84375C8.93958 9.26458 9.425 9.475 10 9.475ZM6 15V14.25H7.2V12.6625C7.2 12.0792 7.35208 11.5438 7.65625 11.0563C7.96042 10.5687 8.38333 10.2167 8.925 10C8.38333 9.78333 7.96042 9.42917 7.65625 8.9375C7.35208 8.44583 7.2 7.90833 7.2 7.325V5.75H6V5H14V5.75H12.8V7.325C12.8 7.90833 12.6479 8.44583 12.3438 8.9375C12.0396 9.42917 11.6167 9.78333 11.075 10C11.6167 10.2167 12.0396 10.5687 12.3438 11.0563C12.6479 11.5438 12.8 12.0792 12.8 12.6625V14.25H14V15H6Z" fill="#F4F9FA" stroke="white" stroke-width="0.6"/>
</svg>
