<svg width="57" height="57" viewBox="0 0 57 57" fill="none" xmlns="http://www.w3.org/2000/svg">
<path opacity="0.4" d="M38.57 8.66895H18.43C12.5637 8.66895 7.81372 13.4427 7.81372 19.2852V41.6339C7.81372 47.4764 12.5875 52.2502 18.43 52.2502H38.5462C44.4125 52.2502 49.1625 47.4764 49.1625 41.6339V19.2852C49.1862 13.4189 44.4125 8.66895 38.57 8.66895Z" fill="#DC6803"/>
<path d="M34.0813 4.75H22.9188C20.4488 4.75 18.4301 6.745 18.4301 9.215V11.4475C18.4301 13.9175 20.4251 15.9125 22.8951 15.9125H34.0813C36.5513 15.9125 38.5463 13.9175 38.5463 11.4475V9.215C38.57 6.745 36.5513 4.75 34.0813 4.75Z" fill="#DC6803"/>
<path d="M34.5088 37.0973L31.065 33.6536L34.39 30.3286C35.0788 29.6398 35.0788 28.4998 34.39 27.8111C33.7013 27.1223 32.5613 27.1223 31.8725 27.8111L28.5475 31.1361L25.1038 27.6923C24.415 27.0036 23.275 27.0036 22.5863 27.6923C21.8975 28.3811 21.8975 29.5211 22.5863 30.2098L26.03 33.6536L22.4913 37.1923C21.8025 37.8811 21.8025 39.0211 22.4913 39.7098C22.8475 40.0661 23.2988 40.2323 23.75 40.2323C24.2013 40.2323 24.6525 40.0661 25.0088 39.7098L28.5475 36.1711L31.9913 39.6148C32.3475 39.9711 32.7988 40.1373 33.25 40.1373C33.7013 40.1373 34.1525 39.9711 34.5088 39.6148C35.1975 38.9261 35.1975 37.8098 34.5088 37.0973Z" fill="#DC6803"/>
</svg>
