<svg id="vector" xmlns="http://www.w3.org/2000/svg" width="17" height="16" viewBox="0 0 17 16"><path fill="#9CAFB1" d="M9.384,1.146L10.792,3.962C10.984,4.354 11.496,4.729 11.928,4.801L14.479,5.225C16.111,5.497 16.495,6.681 15.319,7.849L13.336,9.833C13,10.169 12.816,10.817 12.92,11.281L13.488,13.736C13.936,15.68 12.904,16.432 11.184,15.416L8.792,14C8.36,13.745 7.648,13.745 7.208,14L4.817,15.416C3.105,16.432 2.065,15.672 2.513,13.736L3.081,11.281C3.185,10.817 3.001,10.169 2.665,9.833L0.681,7.849C-0.487,6.681 -0.111,5.497 1.521,5.225L4.073,4.801C4.497,4.729 5.009,4.354 5.201,3.962L6.608,1.146C7.376,-0.382 8.624,-0.382 9.384,1.146Z" id="path_0"/></svg>