<svg width="9" height="12" viewBox="0 0 9 12" fill="none" xmlns="http://www.w3.org/2000/svg">
<path d="M1.5 6.0249C1.5 6.15824 1.50833 6.28949 1.525 6.41865C1.54167 6.54782 1.57083 6.6749 1.6125 6.7999C1.65417 6.94157 1.65 7.07699 1.6 7.20615C1.55 7.33532 1.4625 7.42907 1.3375 7.4874C1.20417 7.55407 1.07292 7.56032 0.94375 7.50615C0.814583 7.45199 0.729167 7.35407 0.6875 7.2124C0.620833 7.02074 0.572917 6.8249 0.54375 6.6249C0.514583 6.4249 0.5 6.2249 0.5 6.0249C0.5 4.90824 0.8875 3.95824 1.6625 3.1749C2.4375 2.39157 3.38333 1.9999 4.5 1.9999H4.5875L4.1375 1.5499C4.04583 1.45824 4 1.34157 4 1.1999C4 1.05824 4.04583 0.941569 4.1375 0.849902C4.22917 0.758236 4.34583 0.712402 4.4875 0.712402C4.62917 0.712402 4.74583 0.758236 4.8375 0.849902L6.1375 2.1499C6.2375 2.2499 6.2875 2.36657 6.2875 2.4999C6.2875 2.63324 6.2375 2.7499 6.1375 2.8499L4.8375 4.1499C4.74583 4.24157 4.62917 4.2874 4.4875 4.2874C4.34583 4.2874 4.22917 4.24157 4.1375 4.1499C4.04583 4.05824 4 3.94157 4 3.7999C4 3.65824 4.04583 3.54157 4.1375 3.4499L4.5875 2.9999H4.5C3.66667 2.9999 2.95833 3.29365 2.375 3.88115C1.79167 4.46865 1.5 5.18324 1.5 6.0249ZM7.5 5.9749C7.5 5.84157 7.49167 5.71032 7.475 5.58115C7.45833 5.45199 7.42917 5.3249 7.3875 5.1999C7.34583 5.05824 7.35 4.92282 7.4 4.79365C7.45 4.66449 7.5375 4.57074 7.6625 4.5124C7.79583 4.44574 7.92708 4.43949 8.05625 4.49365C8.18542 4.54782 8.27083 4.64574 8.3125 4.7874C8.37917 4.97907 8.42708 5.1749 8.45625 5.3749C8.48542 5.5749 8.5 5.7749 8.5 5.9749C8.5 7.09157 8.1125 8.04157 7.3375 8.8249C6.5625 9.60824 5.61667 9.9999 4.5 9.9999H4.4125L4.8625 10.4499C4.95417 10.5416 5 10.6582 5 10.7999C5 10.9416 4.95417 11.0582 4.8625 11.1499C4.77083 11.2416 4.65417 11.2874 4.5125 11.2874C4.37083 11.2874 4.25417 11.2416 4.1625 11.1499L2.8625 9.8499C2.7625 9.7499 2.7125 9.63324 2.7125 9.4999C2.7125 9.36657 2.7625 9.2499 2.8625 9.1499L4.1625 7.8499C4.25417 7.75824 4.37083 7.7124 4.5125 7.7124C4.65417 7.7124 4.77083 7.75824 4.8625 7.8499C4.95417 7.94157 5 8.05824 5 8.1999C5 8.34157 4.95417 8.45824 4.8625 8.5499L4.4125 8.9999H4.5C5.33333 8.9999 6.04167 8.70615 6.625 8.11865C7.20833 7.53115 7.5 6.81657 7.5 5.9749Z" fill="white"/>
</svg>
