<svg width="27" height="27" viewBox="0 0 27 27" fill="none" xmlns="http://www.w3.org/2000/svg">
<mask id="path-1-inside-1_321_15703" fill="white">
<path d="M16.2672 6.97585L17.9662 10.4155L21.6479 9.3747L18.8706 11.9169L21.1288 15.0463L17.7133 13.1778L15.4273 16.1527L16.0938 12.4557L12.4226 11.1649L16.25 10.7485L16.2672 6.97585Z"/>
</mask>
<path d="M16.2672 6.97585L17.9662 10.4155L21.6479 9.3747L18.8706 11.9169L21.1288 15.0463L17.7133 13.1778L15.4273 16.1527L16.0938 12.4557L12.4226 11.1649L16.25 10.7485L16.2672 6.97585Z" fill="#F79009"/>
<path d="M16.2672 6.97585L18.977 5.74844L13.2444 6.86084L16.2672 6.97585ZM17.9662 10.4155L15.2564 11.6429L16.4109 13.9803L18.8911 13.2792L17.9662 10.4155ZM21.6479 9.3747L23.746 11.5872L20.723 6.51104L21.6479 9.3747ZM18.8706 11.9169L16.7725 9.7044L14.8775 11.4389L16.4266 13.5856L18.8706 11.9169ZM21.1288 15.0463L19.7307 17.6372L23.5727 13.3775L21.1288 15.0463ZM17.7133 13.1778L19.1114 10.5869L16.8164 9.33131L15.2803 11.3303L17.7133 13.1778ZM15.4273 16.1527L12.4504 15.5358L17.8603 18.0001L15.4273 16.1527ZM16.0938 12.4557L19.0706 13.0726L19.5278 10.5365L17.023 9.65578L16.0938 12.4557ZM12.4226 11.1649L11.9898 8.20571L11.4933 13.9648L12.4226 11.1649ZM16.25 10.7485L16.6829 13.7077L19.2611 13.4273L19.2728 10.8636L16.25 10.7485ZM13.5574 8.20326L15.2564 11.6429L20.6759 9.18811L18.977 5.74844L13.5574 8.20326ZM18.8911 13.2792L22.5728 12.2384L20.723 6.51104L17.0412 7.55186L18.8911 13.2792ZM19.5498 7.16225L16.7725 9.7044L20.9686 14.1293L23.746 11.5872L19.5498 7.16225ZM16.4266 13.5856L18.6849 16.7151L23.5727 13.3775L21.3145 10.2481L16.4266 13.5856ZM22.5269 12.4554L19.1114 10.5869L16.3153 15.7686L19.7307 17.6372L22.5269 12.4554ZM15.2803 11.3303L12.9943 14.3052L17.8603 18.0001L20.1464 15.0252L15.2803 11.3303ZM18.4042 16.7696L19.0706 13.0726L13.1169 11.8388L12.4504 15.5358L18.4042 16.7696ZM17.023 9.65578L13.3519 8.36495L11.4933 13.9648L15.1645 15.2556L17.023 9.65578ZM12.8555 14.124L16.6829 13.7077L15.8171 7.7894L11.9898 8.20571L12.8555 14.124ZM19.2728 10.8636L19.29 7.09085L13.2444 6.86084L13.2272 10.6335L19.2728 10.8636Z" fill="#F79009" mask="url(#path-1-inside-1_321_15703)"/>
<mask id="path-3-inside-2_321_15703" fill="white">
<path d="M5.66226 12.5496L5.86332 13.2305C6.22121 14.4425 7.60423 15.0675 8.7303 14.5262L9.38731 14.2103L8.79661 14.5849C7.73823 15.2559 7.60766 16.7372 8.52704 17.6432L9.02795 18.1368L8.43917 17.6737C7.43406 16.8833 5.97743 17.1659 5.41202 18.2611L5.08081 18.9027L5.31813 18.2659C5.7537 17.097 4.9735 15.7924 3.70735 15.5724L3.0007 15.4497L3.74174 15.4942C5.01184 15.5705 5.99625 14.4861 5.78241 13.2462L5.66226 12.5496Z"/>
</mask>
<path d="M5.66226 12.5496L5.86332 13.2305C6.22121 14.4425 7.60423 15.0675 8.7303 14.5262L9.38731 14.2103L8.79661 14.5849C7.73823 15.2559 7.60766 16.7372 8.52704 17.6432L9.02795 18.1368L8.43917 17.6737C7.43406 16.8833 5.97743 17.1659 5.41202 18.2611L5.08081 18.9027L5.31813 18.2659C5.7537 17.097 4.9735 15.7924 3.70735 15.5724L3.0007 15.4497L3.74174 15.4942C5.01184 15.5705 5.99625 14.4861 5.78241 13.2462L5.66226 12.5496Z" fill="#F79009"/>
<path d="M5.66226 12.5496L8.5627 11.8091L2.68255 12.9502L5.66226 12.5496ZM9.38731 14.2103L11.0842 16.7296L7.98728 11.5263L9.38731 14.2103ZM9.02795 18.1368L7.19153 20.4383L11.1292 16.0686L9.02795 18.1368ZM5.08081 18.9027L2.2387 17.7938L7.7851 20.3231L5.08081 18.9027ZM3.0007 15.4497L3.08199 12.4782L2.57475 18.3809L3.0007 15.4497ZM5.31813 18.2659L2.47601 17.1569L5.31813 18.2659ZM5.41202 18.2611L8.11632 19.6815L5.41202 18.2611ZM2.76182 13.2901L2.96288 13.971L8.76376 12.49L8.5627 11.8091L2.76182 13.2901ZM10.1303 17.2102L10.7873 16.8943L7.98728 11.5263L7.33028 11.8422L10.1303 17.2102ZM7.69039 11.691L7.0997 12.0656L10.4935 17.1042L11.0842 16.7296L7.69039 11.691ZM6.42577 19.7113L6.92668 20.2049L11.1292 16.0686L10.6283 15.575L6.42577 19.7113ZM10.8644 15.8353L10.2756 15.3722L6.60275 19.9752L7.19153 20.4383L10.8644 15.8353ZM2.70773 16.8408L2.37652 17.4823L7.7851 20.3231L8.11632 19.6815L2.70773 16.8408ZM7.92292 20.0116L8.16024 19.3748L2.47601 17.1569L2.2387 17.7938L7.92292 20.0116ZM4.13331 12.6412L3.42665 12.5184L2.57475 18.3809L3.2814 18.5037L4.13331 12.6412ZM2.91942 18.4211L3.66046 18.4656L3.82303 12.5228L3.08199 12.4782L2.91942 18.4211ZM8.76212 12.8457L8.64197 12.1491L2.68255 12.9502L2.8027 13.6468L8.76212 12.8457ZM3.66046 18.4656C6.83571 18.6565 9.29674 15.9454 8.76212 12.8457L2.8027 13.6468C2.69577 13.0268 3.18798 12.4846 3.82303 12.5228L3.66046 18.4656ZM8.16024 19.3748C9.24917 16.4526 7.29867 13.1911 4.13331 12.6412L3.2814 18.5037C2.64833 18.3937 2.25823 17.7414 2.47601 17.1569L8.16024 19.3748ZM10.2756 15.3722C7.76282 13.3961 4.12125 14.1027 2.70773 16.8408L8.11632 19.6815C7.83361 20.2291 7.1053 20.3704 6.60275 19.9752L10.2756 15.3722ZM7.0997 12.0656C4.45374 13.7431 4.12731 17.4465 6.42577 19.7113L10.6283 15.575C11.088 16.028 11.0227 16.7686 10.4935 17.1042L7.0997 12.0656ZM2.96288 13.971C3.85759 17.0009 7.31515 18.5635 10.1303 17.2102L7.33028 11.8422C7.89331 11.5715 8.58482 11.884 8.76376 12.49L2.96288 13.971Z" fill="#F79009" mask="url(#path-3-inside-2_321_15703)"/>
</svg>
