<svg id="vector" xmlns="http://www.w3.org/2000/svg" width="28.582" height="45.977" viewBox="0 0 28.582 45.977"><path fill="#00000000" d="M5.9,43.897a0.253,0.253 0,0 1,-0.253 -0.253v-2.02a0.253,0.253 0,0 1,0.505 0v2.021a0.253,0.253 0,0 1,-0.252 0.252zM23.412,44.571a0.253,0.253 0,0 1,-0.253 -0.253v-2.694a0.253,0.253 0,0 1,0.505 0v2.694a0.253,0.253 0,0 1,-0.252 0.253zM18.247,29.117s1.592,0.677 2.751,4.4l-2.751,1.015 1.775,2.029 -5.24,9.132a151.041,151.041 0,0 0,3.465 -16.576zM10.647,29.117s-1.592,0.677 -2.751,4.4l2.751,1.015 -1.773,2.031 5.148,9.13a161.729,161.729 0,0 1,-3.377 -16.576z" stroke-width=".4" stroke="#472b29" id="path_0"/><path fill="#512c2b" d="M14.5,21.794a1.581,1.581 0,0 0,1.193 -0.537,0.081 0.081,0 0,0 -0.009,-0.114 0.081,0.081 0,0 0,-0.114 0.008,1.571 1.571,0 0,1 -2.141,0 0.081,0.081 0,0 0,-0.061 -0.028,0.081 0.081,0 0,0 -0.061,0.133 1.581,1.581 0,0 0,1.193 0.538zM13.033,15.58l0.292,-0.56a7.592,7.592 0,0 0,-3.827 0.121l0.368,0.546a5.968,5.968 0,0 1,3.167 -0.107zM19.21,15.58l0.292,-0.56a7.592,7.592 0,0 0,-3.827 0.121l0.368,0.546a5.968,5.968 0,0 1,3.168 -0.107zM11.257,16.371a0.817,0.817 0,0 0,-0.707 0.492,0.4 0.4,0 0,1 0.117,-0.02 0.494,0.494 0,0 1,0 0.982,0.4 0.4,0 0,1 -0.218,-0.067 0.9,0.9 0,0 0,0.808 0.769,1.111 1.111,0 0,0 0,-2.157zM17.708,16.371a0.778,0.778 0,0 0,-0.634 0.369,0.4 0.4,0 0,1 0.155,-0.033 0.494,0.494 0,0 1,0 0.982,0.429 0.429,0 0,1 -0.363,-0.214 0.871,0.871 0,1 0,0.842 -1.1zM18.066,23.045a0.081,0.081 0,0 0,0.012 -0.113,0.081 0.081,0 0,0 -0.114,-0.012 5.71,5.71 0,0 1,-3.463 0.953,5.709 5.709,0 0,1 -3.463,-0.954 0.078,0.078 0,0 0,-0.051 -0.018,0.081 0.081,0 0,0 -0.063,0.03 0.082,0.082 0,0 0,0.011 0.114,6.232 6.232,0 0,0 7.13,0z" id="path_1"/><path fill="#472b29" d="M15.211,45.976a23.11,23.11 0,0 1,-14.495 -4.33,0.338 0.338,0 0,1 -0.147,-0.308c0.006,-0.073 0.009,-0.32 0.014,-0.678a34.259,34.259 0,0 1,0.392 -5.723,4.361 4.361,0 0,1 2.278,-3 5.815,5.815 0,0 1,1.579 -0.652l4.769,-1.73a0.86,0.86 0,0 0,0.649 -0.51,12.9 12.9,0 0,0 0.1,-1.373 16.4,16.4 0,0 1,-1.423 -1.093,6.277 6.277,0 0,1 -1.893,-2.951c-0.073,-0.3 -0.105,-0.406 -0.257,-0.52a3.672,3.672 0,0 0,-0.41 -0.256,2.009 2.009,0 0,1 -0.907,-0.83 10.985,10.985 0,0 1,-0.977 -3.681,0.355 0.355,0 0,1 0.007,-0.071 1.828,1.828 0,0 1,1.719 -1.34c0.086,-0.006 0.174,-0.007 0.265,-0.007a2.574,2.574 0,0 1,0.461 0.02c-0.024,-0.812 0.024,-2.533 0.046,-3.309l0.009,-0.35c0,-3.049 2.862,-5.493 6.787,-5.925a0.33,0.33 0,0 1,0.2 -0.07c0.187,0 0.335,0 0.451,0.009a0.607,0.607 0,0 1,0.422 0.057c4.086,0.418 7.069,2.867 7.069,5.929 0,0.028 0,0.156 0.009,0.35 0.022,0.793 0.071,2.568 0.045,3.309a2.229,2.229 0,0 1,0.478 -0.02c0.072,0 0.162,0 0.248,0.006a1.828,1.828 0,0 1,1.719 1.34,0.355 0.355,0 0,1 0.007,0.071 10.741,10.741 0,0 1,-0.977 3.681,2.005 2.005,0 0,1 -0.907,0.83 3.534,3.534 0,0 0,-0.411 0.257c-0.152,0.115 -0.184,0.219 -0.253,0.507A6.283,6.283 0,0 1,19.984 26.578,18.066 18.066,0 0,1 18.478,27.765a3.561,3.561 0,0 0,0.143 1.23,0.951 0.951,0 0,0 0.614,0.546c0.238,0.086 5.051,1.862 5.89,2.217 0.152,0.058 0.288,0.114 0.4,0.16 0.069,0.026 0.143,0.053 0.2,0.07a3.353,3.353 0,0 1,2.478 2.977,0.343 0.343,0 0,1 0.005,0.045s0.238,4.666 0.373,7.511a0.337,0.337 0,0 1,-0.185 0.317,32.381 32.381,0 0,1 -10.84,3.086c-0.818,0.034 -1.598,0.052 -2.345,0.052zM1.249,41.193c4.991,3.344 9.125,4.373 16.278,4.055a31.575,31.575 0,0 0,10.371 -2.916c-0.131,-2.737 -0.344,-6.919 -0.362,-7.266a2.683,2.683 0,0 0,-2.013 -2.429c-0.067,-0.02 -0.156,-0.053 -0.255,-0.091 -0.115,-0.049 -0.244,-0.1 -0.4,-0.16 -0.835,-0.353 -5.787,-2.18 -5.837,-2.2a1.587,1.587 0,0 1,-1.024 -0.9,4.213 4.213,0 0,1 -0.205,-1.7 0.335,0.335 0,0 1,0.141 -0.267,18.556 18.556,0 0,0 1.569,-1.223 5.651,5.651 0,0 0,1.714 -2.631,1.377 1.377,0 0,1 0.507,-0.9 4.267,4.267 0,0 1,0.484 -0.3,1.388 1.388,0 0,0 0.644,-0.562 10.137,10.137 0,0 0,0.9 -3.325,1.184 1.184,0 0,0 -1.1,-0.776c-0.071,0 -0.144,-0.005 -0.22,-0.005a2.154,2.154 0,0 0,-0.488 0.032,0.483 0.483,0 0,1 -0.653,-0.569c0.041,-0.566 -0.017,-2.63 -0.038,-3.407 -0.006,-0.2 -0.009,-0.339 -0.009,-0.368 0,-2.817 -2.952,-5.052 -6.923,-5.3 -3.82,0.244 -6.661,2.481 -6.661,5.3 0,0.029 0,0.164 -0.009,0.368 -0.022,0.777 -0.079,2.84 -0.038,3.407a0.484,0.484 0,0 1,-0.654 0.569,2.289 2.289,0 0,0 -0.471,-0.032c-0.092,0 -0.165,0 -0.236,0.006a1.184,1.184 0,0 0,-1.1 0.776,10.566 10.566,0 0,0 0.9,3.325 1.382,1.382 0,0 0,0.644 0.562,4.386 4.386,0 0,1 0.484,0.3 1.363,1.363 0,0 1,0.5 0.884,5.654 5.654,0 0,0 1.714,2.644 17.765,17.765 0,0 0,1.489 1.129,0.337 0.337,0 0,1 0.143,0.292 16.367,16.367 0,0 1,-0.123 1.654,1.461 1.461,0 0,1 -1.113,1.026l-4.766,1.73a5.273,5.273 0,0 0,-1.426 0.583,3.707 3.707,0 0,0 -1.982,2.6 34.986,34.986 0,0 0,-0.368 5.557c-0.002,0.221 -0.005,0.4 -0.008,0.528z" id="path_2"/><path fill="#895d3d" d="M22.725,20.327l-0.4,-0.044 0.135,-1.2 -0.681,0.3 -0.16,-0.371 1,-0.434a0.2,0.2 0,0 1,0.281 0.207zM6.413,20.096L6.236,18.551a0.2,0.2 0,0 1,0.282 -0.207l1,0.434 -0.16,0.371 -0.681,-0.3 0.135,1.2z" id="path_3"/><path fill="#472b29" d="M7.316,23.088a0.135,0.135 0,0 1,-0.132 -0.137l0.111,-5.824a0.135,0.135 0,0 1,0.135 -0.132,0.135 0.135,0 0,1 0.132,0.137l-0.111,5.824a0.135,0.135 0,0 1,-0.135 0.132z" id="path_4"/><path fill="#472b29" d="M21.716,23.088a0.135,0.135 0,0 1,-0.135 -0.132l-0.11,-5.824a0.135,0.135 0,0 1,0.132 -0.137,0.135 0.135,0 0,1 0.135,0.132L21.854,22.95a0.135,0.135 0,0 1,-0.132 0.137z" id="path_5"/><path fill="#FF000000" d="M24.478,11.869c-1.522,0.111 -2.477,-1.712 -3.469,-3.057a7.9,7.9 0,0 0,-10.181 -2.407,4.481 4.481,0 0,0 -1.907,1.528c-1.782,0.758 -2.782,3.073 -3.175,5.3 -0.458,2.6 1.742,6.617 1.873,4.38a17.95,17.95 0,0 1,1.307 -5.275,13.553 13.553,0 0,0 0.7,-1.99c0.21,1.678 2.4,3.275 3.777,3.29 0.147,0 0.214,-0.578 0.174,-1.368a4.81,4.81 0,0 0,1.441 1.581,7.941 7.941,0 0,0 2.949,1.16 1.31,1.31 0,0 1,-0.645 -1.043,4.2 4.2,0 0,1 -0.034,-0.7 5.524,5.524 0,0 0,2.905 1.117c0.121,0 0.242,0 0.364,-0.007a9.482,9.482 0,0 1,0.786 3.437c0.131,2.237 1.8,-1.5 1.338,-4.1 0,-0.019 -0.007,-0.038 -0.011,-0.058a6.038,6.038 0,0 0,1.808 -1.788zM9.856,9.151l0.01,-0.094 0.034,0.011c-0.017,0.029 -0.03,0.057 -0.044,0.083z" id="path_6"/><path fill="#472b29" d="M14.572,29.42c-1.373,0 -3.678,-1.759 -3.78,-1.837a0.169,0.169 0,1 1,0.205 -0.267c0.025,0.019 2.5,1.905 3.7,1.76a9.734,9.734 0,0 0,3.226 -1.616,0.169 0.169,0 0,1 0.2,0.271 9.835,9.835 0,0 1,-3.387 1.679,1.387 1.387,0 0,1 -0.164,0.01z" id="path_7"/><path fill="#472b29" d="M1.522,4.242h0.674v8.083L1.522,12.325z" id="path_8"/><path fill="#472b29" d="M1.751,16.036a0.337,0.337 0,0 1,-0.3 -0.187l-1.277,-2.588a0.312,0.312 0,0 1,-0.029 -0.089,1.72 1.72,0 0,1 -0.143,-0.686 1.766,1.766 0,0 1,3.469 -0.468,1.758 1.758,0 0,1 -0.256,1.476L2.059,15.848a0.343,0.343 0,0 1,-0.308 0.188zM0.814,13.036l0.937,1.9 0.882,-1.786a1.143,1.143 0,0 0,0.183 -0.963,1.092 1.092,0 0,0 -2.143,0.3 1.077,1.077 0,0 0,0.115 0.476,0.329 0.329,0 0,1 0.026,0.077z" id="path_9"/><path fill="#fff" d="M14.319,11.314c-4.183,0 -6.783,-0.866 -7.051,-1.492l-0.021,-0.048v-5.416h14.145v5.432l-0.021,0.032c-0.269,0.626 -2.869,1.492 -7.052,1.492z" id="path_10"/><path fill="#472b29" d="M21.055,4.695v5.007c-0.272,0.465 -2.717,1.276 -6.736,1.276s-6.467,-0.812 -6.736,-1.276v-5.007h13.472m0.674,-0.674L6.91,4.021v5.934h0.048c0.41,0.953 3.548,1.7 7.361,1.7s6.951,-0.742 7.361,-1.7h0.049v-5.934z" id="path_11"/><path fill="#fff" d="M1.509,4.447L14.427,0.354l12.919,4.092L14.427,8.54z" id="path_12"/><path fill="#472b29" d="M14.429,0.707l11.8,3.74 -11.8,3.74 -11.8,-3.739 11.8,-3.741m0,-0.707l-14.035,4.447 14.035,4.445L28.468,4.445 14.429,-0.002z" id="path_13"/></svg>