<svg width="98" height="144" viewBox="0 0 98 144" fill="none" xmlns="http://www.w3.org/2000/svg">
<path d="M14.032 67.8045C17.0116 66.142 20.4173 65.4004 23.8184 65.6735C27.2195 65.9466 30.4633 67.222 33.1395 69.3386C35.8157 71.4551 37.8043 74.3177 38.8536 77.5644C39.903 80.8111 39.966 84.296 39.0348 87.5786C38.1036 90.8611 36.22 93.7938 33.622 96.0057C31.0241 98.2177 27.8286 99.6097 24.4396 100.006C21.0506 100.402 17.6203 99.7837 14.5825 98.2301C11.5447 96.6765 9.03574 94.257 7.37296 91.2775C5.14549 87.2813 4.59565 82.5642 5.84428 78.1628C7.0929 73.7614 10.0378 70.0357 14.032 67.8045Z" fill="#C2D5DA"/>
<path d="M13.8039 72.9223C14.563 72.4996 15.4303 72.3114 16.2963 72.3815C17.1623 72.4517 17.988 72.7771 18.6691 73.3166C19.3501 73.856 19.856 74.5853 20.1226 75.4122C20.3892 76.2391 20.4046 77.1265 20.1668 77.9622C19.9291 78.7979 19.4489 79.5443 18.787 80.107C18.1251 80.6698 17.3112 81.0237 16.4481 81.1239C15.5851 81.2241 14.7117 81.0661 13.9385 80.67C13.1652 80.2738 12.5268 79.6573 12.1039 78.8983C11.5373 77.8803 11.3981 76.679 11.7169 75.5584C12.0357 74.4378 12.7864 73.4897 13.8039 72.9223Z" fill="white"/>
<path d="M12.7269 87.0443C13.1227 86.8233 13.5752 86.7246 14.0271 86.7607C14.479 86.7969 14.91 86.9662 15.2657 87.2473C15.6213 87.5284 15.8856 87.9087 16.0251 88.3401C16.1647 88.7714 16.1731 89.2344 16.0495 89.6706C15.9258 90.1067 15.6756 90.4964 15.3304 90.7904C14.9853 91.0843 14.5608 91.2693 14.1105 91.3219C13.6602 91.3746 13.2044 91.2925 12.8008 91.0861C12.3972 90.8796 12.0638 90.5582 11.8429 90.1623C11.547 89.6315 11.4739 89.005 11.6397 88.4204C11.8054 87.8357 12.1965 87.3408 12.7269 87.0443Z" fill="white"/>
<path d="M25.4369 89.8063C25.9537 89.5181 26.5444 89.3895 27.1342 89.4369C27.724 89.4842 28.2866 89.7055 28.7507 90.0725C29.2148 90.4396 29.5597 90.9361 29.7416 91.4992C29.9236 92.0622 29.9345 92.6666 29.773 93.2359C29.6115 93.8052 29.2848 94.3138 28.8342 94.6974C28.3837 95.081 27.8295 95.3224 27.2418 95.391C26.654 95.4597 26.0591 95.3525 25.5323 95.0831C25.0054 94.8137 24.5703 94.3941 24.2819 93.8773C23.8957 93.1842 23.8004 92.3662 24.017 91.6028C24.2336 90.8395 24.7443 90.1934 25.4369 89.8063Z" fill="white"/>
<path d="M62.3199 60.4296C62.291 59.5076 62.6126 58.6089 63.2199 57.9146C64.1715 58.0762 65.0363 58.5663 65.6639 59.2996C65.7981 60.032 65.6969 60.7881 65.3749 61.4596C65.3749 61.4596 64.9319 62.3596 64.2159 61.8346C64.2119 61.8316 63.0099 62.6356 62.3199 60.4296Z" fill="#FFC7C0"/>
<path d="M64.902 61.4118L64.793 63.2418L63.213 63.0558L63.361 61.3018L64.902 61.4118Z" fill="#FFC7C0"/>
<path d="M63.093 62.2104C63.093 62.2104 62.339 61.8594 62.193 60.2414C62.193 60.2414 62.345 58.9164 63.145 58.6104C63.5219 58.8665 63.9502 59.0372 64.4 59.1104C64.4 59.1104 64.568 59.3424 64.272 59.5414C64.1162 59.5909 63.9505 59.6009 63.7898 59.5703C63.6292 59.5398 63.4787 59.4697 63.352 59.3664C63.3433 59.453 63.3168 59.5369 63.2741 59.6128C63.2314 59.6887 63.1735 59.7549 63.104 59.8074C63.104 59.8074 64.316 60.3324 64.619 61.1474C64.619 61.1434 64.432 62.6014 63.093 62.2104Z" fill="#F4B9B2"/>
<path d="M49.762 88.4326C53.2929 90.0508 56.2456 92.7085 58.2251 96.0502C60.2046 99.392 61.1165 103.258 60.839 107.133C60.9879 107.328 61.1841 107.481 61.4091 107.579C61.634 107.677 61.8802 107.715 62.1243 107.691C62.3684 107.667 62.6023 107.581 62.8039 107.442C63.0054 107.302 63.1679 107.113 63.276 106.893C63.276 106.893 67.613 93.5476 54.096 84.9326L49.762 88.4326Z" fill="#405C80"/>
<path d="M35.476 122.522L49.674 115.448C49.674 115.448 50.068 128.765 32.684 134.381L35.476 122.522Z" fill="#C2D5DA"/>
<path d="M47.618 116.472L49.674 115.448C49.674 115.448 50.068 128.765 32.684 134.381L33.075 132.72C44.498 128.175 47.052 120.106 47.618 116.472Z" fill="#DDEBEF"/>
<path d="M28.409 110.946L40.4 100.437C40.4 100.437 28.6 94.7776 16.653 108.854L28.409 110.946Z" fill="#C2D5DA"/>
<path d="M77.367 97.0483C74.929 99.4203 65.65 106.431 65.596 106.47C57.1481 111.95 48.3219 116.823 39.184 121.052L30.25 107.417C37.8267 100.777 45.8506 94.6649 54.265 89.1243C54.323 89.0873 64.471 83.4103 67.623 82.1313L77.367 97.0483Z" fill="#0EC8D6"/>
<path d="M39.2319 121.032C36.8419 122.042 35.5059 122.498 35.4979 122.501L31.5409 116.344L27.4919 110.246C27.4979 110.24 28.4529 109.199 30.3379 107.417L39.2319 121.032Z" fill="#97B2B8"/>
<path d="M69.3679 91.6324C70.0889 92.7358 70.4665 94.0282 70.4529 95.3462C70.4393 96.6642 70.0352 97.9486 69.2917 99.0369C68.5482 100.125 67.4986 100.969 66.2757 101.46C65.0528 101.952 63.7116 102.07 62.4216 101.8C61.1316 101.529 59.9508 100.882 59.0285 99.9407C58.1062 98.9991 57.4838 97.8051 57.2401 96.5097C56.9964 95.2144 57.1423 93.8759 57.6594 92.6635C58.1764 91.4511 59.0414 90.4192 60.1449 89.6984C61.6247 88.7328 63.4273 88.394 65.1566 88.7567C66.886 89.1193 68.4007 90.1536 69.3679 91.6324Z" fill="white"/>
<path d="M68.305 92.3272C68.8884 93.2203 69.1938 94.2664 69.1827 95.3332C69.1716 96.4 68.8444 97.4395 68.2425 98.3203C67.6406 99.2011 66.791 99.8836 65.8012 100.282C64.8114 100.68 63.7258 100.775 62.6817 100.556C61.6376 100.337 60.6819 99.8134 59.9354 99.0512C59.189 98.2891 58.6853 97.3227 58.488 96.2743C58.2908 95.2258 58.4089 94.1425 58.8273 93.1611C59.2458 92.1798 59.9458 91.3446 60.839 90.7612C62.0371 89.9803 63.4961 89.7067 64.8958 90.0003C66.2955 90.2939 67.5216 91.1307 68.305 92.3272Z" fill="#5C7594"/>
<path d="M85.1979 81.2913C85.6595 81.9979 85.9415 82.8065 86.0196 83.6468C86.0977 84.4871 85.9694 85.3338 85.6459 86.1133C84.3389 89.2273 81.5169 92.9773 77.5809 96.8393L77.5409 96.8793L77.3669 97.0483L67.6229 82.1313L67.8479 82.0433L67.9009 82.0223C73.0229 79.9663 77.5869 78.8893 80.9629 78.9433C81.8064 78.9603 82.633 79.183 83.3708 79.592C84.1087 80.0011 84.7355 80.584 85.1969 81.2903L85.1979 81.2913Z" fill="#5C7594"/>
<path d="M1.93896 139.674C13.313 126.256 23.11 105.015 31.472 117.184C36.378 124.323 20.339 133.08 1.93896 139.674Z" fill="#FF6554"/>
<path d="M27.344 115.536C28.753 114.853 30.367 116.447 30.844 117.867C32.206 121.944 19.001 127.761 17.473 128.622C15.945 129.483 21.909 117.519 27.344 115.536Z" fill="#FFEB8F"/>
<path d="M64.075 120.941C64.5283 120.941 64.9714 121.076 65.3483 121.328C65.7252 121.58 66.019 121.937 66.1925 122.356C66.366 122.775 66.4114 123.236 66.3229 123.681C66.2345 124.125 66.0162 124.534 65.6956 124.854C65.3751 125.175 64.9667 125.393 64.5221 125.481C64.0775 125.57 63.6167 125.524 63.1978 125.351C62.779 125.177 62.4211 124.884 62.1692 124.507C61.9174 124.13 61.783 123.687 61.783 123.233C61.7832 122.626 62.0248 122.043 62.4546 121.613C62.8843 121.183 63.4672 120.942 64.075 120.941Z" fill="white"/>
<path d="M68.992 108.336C69.3601 108.336 69.7199 108.446 70.0259 108.65C70.3319 108.855 70.5705 109.145 70.7113 109.485C70.8522 109.825 70.889 110.199 70.8172 110.56C70.7454 110.921 70.5682 111.253 70.3079 111.513C70.0476 111.774 69.716 111.951 69.355 112.023C68.994 112.094 68.6199 112.058 68.2798 111.917C67.9398 111.776 67.6491 111.537 67.4446 111.231C67.2401 110.925 67.131 110.565 67.131 110.197C67.1312 109.704 67.3274 109.231 67.6763 108.882C68.0253 108.533 68.4985 108.337 68.992 108.336Z" fill="white"/>
<path d="M78.9949 110.883C79.2261 110.883 79.4521 110.952 79.6444 111.08C79.8366 111.209 79.9865 111.391 80.0749 111.605C80.1634 111.819 80.1866 112.054 80.1415 112.28C80.0964 112.507 79.985 112.715 79.8215 112.879C79.658 113.042 79.4498 113.154 79.223 113.199C78.9962 113.244 78.7612 113.221 78.5476 113.132C78.334 113.044 78.1514 112.894 78.0229 112.702C77.8945 112.51 77.8259 112.284 77.8259 112.052C77.8259 111.742 77.9491 111.445 78.1683 111.226C78.3875 111.006 78.6849 110.883 78.9949 110.883Z" fill="white"/>
<path d="M42.653 114.438L39.76 116.804L40.827 116.832L43.144 115.275L42.653 114.438Z" fill="#FFC7C0"/>
<path d="M33.276 94.6184C33.276 94.6184 34.72 95.0664 34.46 96.4044C34.46 96.4044 33.703 97.2194 33.829 97.6874C33.7889 97.7046 33.7454 97.7126 33.7018 97.7107C33.6582 97.7088 33.6156 97.6971 33.5771 97.6764C33.5387 97.6558 33.5054 97.6267 33.4797 97.5914C33.4541 97.556 33.4367 97.5154 33.429 97.4724C33.384 97.2822 33.3905 97.0835 33.4478 96.8967C33.5051 96.7098 33.6111 96.5417 33.755 96.4094C33.755 96.4094 32.585 96.4044 32.49 95.4444C32.4659 95.3345 32.4691 95.2203 32.4993 95.1119C32.5296 95.0035 32.586 94.9042 32.6636 94.8226C32.7412 94.7411 32.8376 94.6798 32.9444 94.6442C33.0511 94.6086 33.165 94.5997 33.276 94.6184Z" fill="#FFC7C0"/>
<path d="M38.975 100.713C39.0166 100.552 38.9926 100.381 38.9082 100.237C38.8239 100.094 38.686 99.9896 38.525 99.9477L25.539 96.5737C25.3778 96.532 25.2068 96.556 25.0633 96.6404C24.9199 96.7248 24.8158 96.8626 24.774 97.0237L22.459 105.935C22.4173 106.096 22.4413 106.267 22.5257 106.41C22.61 106.554 22.7479 106.658 22.909 106.7L35.895 110.074C35.9748 110.094 36.058 110.099 36.1397 110.088C36.2214 110.077 36.3001 110.049 36.3712 110.007C36.4423 109.966 36.5045 109.91 36.5543 109.844C36.604 109.779 36.6402 109.704 36.661 109.624L38.975 100.713Z" fill="#8B7E75"/>
<path d="M31.356 103.81L31.165 104.546C30.965 104.833 30.492 104.723 30.365 104.686C30.238 104.648 29.762 104.52 29.73 104.174L29.921 103.438L31.356 103.81Z" fill="#FFEB8F"/>
<path d="M37.088 104.428L30.553 103.828L24.553 101.173C24.3998 101.105 24.2624 101.006 24.1498 100.882C24.0371 100.758 23.9517 100.612 23.899 100.453C23.7902 100.125 23.7902 99.7712 23.899 99.4437L24.769 96.8437C24.7958 96.7611 24.8443 96.6872 24.9094 96.6297C24.9744 96.5722 25.0537 96.5332 25.139 96.5167C25.3245 96.4818 25.5153 96.4883 25.698 96.5357L30.277 97.7257C30.3089 97.5416 30.3665 97.3628 30.448 97.1947C30.5353 97.0431 30.6654 96.9207 30.822 96.8427C31.0456 96.7368 31.2988 96.7114 31.539 96.7707C32.091 96.9127 32.644 97.0527 33.195 97.2007C33.4338 97.2618 33.6422 97.408 33.781 97.6117L33.787 97.6207C33.8557 97.7233 33.9021 97.8391 33.9233 97.9607C33.9444 98.0823 33.9399 98.207 33.91 98.3267L33.827 98.6467L38.343 99.8197C38.5265 99.8671 38.6973 99.9545 38.843 100.076C38.9095 100.131 38.9601 100.203 38.9894 100.284C39.0188 100.366 39.0259 100.454 39.01 100.539L38.503 103.239C38.4391 103.578 38.2672 103.887 38.013 104.121C37.7915 104.324 37.5017 104.437 37.201 104.437L37.088 104.428ZM31.46 98.0277L33.426 98.5387L33.511 98.2127C33.5261 98.1492 33.5275 98.0832 33.5153 98.0191C33.503 97.955 33.4774 97.8942 33.44 97.8407L33.432 97.8307C33.3451 97.7154 33.2223 97.6324 33.083 97.5947C32.534 97.4547 31.985 97.3097 31.434 97.1707C31.294 97.1377 31.147 97.1522 31.016 97.2117C30.9555 97.241 30.902 97.283 30.859 97.3347C30.8161 97.3865 30.7847 97.4468 30.767 97.5117L30.683 97.8347L31.46 98.0277Z" fill="#B5A595"/>
<path d="M31.2159 94.9046C30.9237 95.3036 30.7317 95.7669 30.656 96.2556C30.5803 96.7442 30.6231 97.244 30.7809 97.7126C31.11 97.9822 31.519 98.1354 31.9442 98.1484C32.3694 98.1614 32.7869 98.0335 33.1319 97.7846C33.1319 97.7846 33.8149 95.6206 32.9339 94.8706C32.9173 94.8558 32.8999 94.8418 32.8819 94.8286C32.3449 95.0109 31.7673 95.0372 31.2159 94.9046Z" fill="#FFC7C0"/>
<path d="M48.411 74.7474L50.528 74.2964C50.7148 74.6319 50.8045 75.0129 50.7868 75.3966C50.7691 75.7803 50.6449 76.1514 50.428 76.4684L49.428 76.6834C49.428 76.6834 48.39 76.4964 48.411 74.7474Z" fill="#EF810E"/>
<path d="M41.124 115.119C52.265 105.483 48.674 96.8465 48.674 96.8465C46.317 94.9895 45.508 92.7195 45.974 89.3015L51.883 87.0825C51.883 87.0825 58.824 96.1555 53.724 106.927C50.945 112.795 42.595 117.271 42.595 117.271C42.595 117.271 41.245 117.202 41.124 115.119Z" fill="#405C80"/>
<path d="M46.351 73.4305C48.0563 72.7092 49.9449 72.5406 51.751 72.9485C51.88 78.3435 54.818 84.7565 54.818 84.7565C52.791 89.5595 45.805 88.5945 45.805 88.5945C43.813 82.8335 46.351 73.4305 46.351 73.4305Z" fill="#DDEBEF"/>
<path d="M39.5694 92.2636C41.9549 89.3769 43.276 85.7582 43.3114 82.0136C33.6654 84.5066 33.8014 94.9176 33.8014 94.9176C33.1374 96.1646 31.0844 95.9846 31.0314 94.9586C30.1804 78.4776 46.9224 73.7736 47.2314 73.7446C47.2684 73.7446 52.8314 85.3266 46.9774 96.6536H46.8864C46.1444 96.6546 41.0234 96.4996 39.5694 92.2636ZM51.8324 73.5686C51.8324 73.5686 55.1114 74.0096 58.9644 71.1026C61.9584 68.8456 62.9334 63.3686 62.9334 63.3686C63.3356 63.1142 63.8049 62.9864 64.2806 63.0017C64.7563 63.0171 65.2164 63.1748 65.6014 63.4546C66.7374 76.0806 56.8014 78.8876 56.8014 78.8876C57.5394 83.2796 61.6364 85.6756 61.6364 85.6756L56.3414 88.7556C56.3414 88.7556 50.7234 81.8186 51.8324 73.5686Z" fill="#5C7594"/>
<path d="M46.3979 63.7935C47.9499 64.0085 47.7999 62.5025 48.9769 62.7325C50.3439 63.0005 49.7359 63.9915 51.3599 64.7165C53.7709 65.7925 52.5069 70.1685 49.2829 70.5775L46.3909 68.1085C45.8295 67.9375 45.3413 67.5837 45.0041 67.1033C44.6669 66.6229 44.5 66.0436 44.5299 65.4575C44.6006 65.0068 44.8254 64.5946 45.1661 64.2911C45.5067 63.9877 45.9421 63.8118 46.3979 63.7935Z" fill="#F85843"/>
<path d="M46.96 74.4103C47.4789 73.4942 47.8249 72.4906 47.981 71.4493L47.949 71.4673C45.677 72.7203 44.533 71.1623 44.533 71.1623C45.6449 69.6351 46.1805 67.7636 46.045 65.8793L49.763 64.9023C49.9617 65.9474 49.9817 67.0186 49.822 68.0703C49.9686 67.8828 50.1792 67.7559 50.4134 67.7139C50.6477 67.6718 50.8893 67.7176 51.092 67.8423C51.407 68.1343 51.319 68.7423 50.892 69.1973C50.465 69.6523 49.869 69.7863 49.555 69.4973L49.533 69.4703C49.5025 70.2425 49.6435 71.0117 49.9457 71.7229C50.248 72.434 50.704 73.0694 51.281 73.5833C51.1401 74.0905 50.8286 74.5335 50.399 74.8375C49.9694 75.1416 49.4481 75.2881 48.923 75.2523C48.5533 75.2699 48.1846 75.2032 47.8445 75.0573C47.5045 74.9115 47.202 74.6902 46.96 74.4103Z" fill="#FFC7C0"/>
<path d="M45.924 66.9725C46.6601 67.3466 47.4841 67.5135 48.3077 67.4554C49.1314 67.3973 49.9237 67.1163 50.6 66.6425L50.063 64.9025L47.229 64.1025L45.485 65.4385L45.924 66.9725Z" fill="#F85843"/>
<path d="M45.719 80.4073C45.0712 80.2102 44.4768 79.8682 43.9809 79.4071C43.485 78.946 43.1006 78.378 42.857 77.7463C42.6735 76.9971 42.2148 76.3445 41.572 75.9183C40.9291 75.4922 40.1494 75.3236 39.388 75.4463C38.1751 75.7372 37.1091 76.4586 36.388 77.4763L33.157 77.9093L33.594 75.2013C38.465 69.3713 43.257 73.9653 43.869 74.9823C44.415 75.8953 45.776 79.1933 47.698 78.3003C48.1447 78.1095 48.5245 77.79 48.7888 77.3825C49.0531 76.975 49.19 76.4979 49.182 76.0123C49.0179 75.8576 48.8891 75.6693 48.8043 75.4604C48.7196 75.2514 48.6809 75.0266 48.691 74.8013C49.228 74.8684 49.7725 74.7634 50.246 74.5013C50.3874 74.7457 50.4533 75.0265 50.4355 75.3084C50.4177 75.5902 50.317 75.8605 50.146 76.0853H50.133C50.2401 76.6659 50.2161 77.2631 50.0626 77.8332C49.9091 78.4033 49.6301 78.9319 49.246 79.3803C48.903 79.7495 48.484 80.0398 48.0178 80.2311C47.5516 80.4224 47.0494 80.5101 46.546 80.4883C46.2682 80.4923 45.9907 80.4652 45.719 80.4073Z" fill="#F85843"/>
<path d="M46.705 73.8943C46.806 72.8193 46.959 72.7193 47.781 72.3653C47.704 72.8501 47.8103 73.3462 48.0791 73.7569C48.3479 74.1677 48.7599 74.4637 49.235 74.5873C49.1901 75.0861 49.0001 75.5609 48.6884 75.953C48.3767 76.345 47.9569 76.6372 47.481 76.7933C47.1518 76.3936 46.9123 75.9281 46.7784 75.428C46.6445 74.9279 46.6195 74.4049 46.705 73.8943ZM49.661 74.4943C50.747 73.1943 50.206 72.3013 50.206 72.3013C51.159 72.0233 51.412 72.7193 51.558 73.0903C51.9366 73.9464 52.0458 74.8976 51.871 75.8173C51.7227 75.8536 51.5706 75.8724 51.418 75.8733C51.024 75.8346 50.6494 75.6841 50.3381 75.4396C50.0268 75.1951 49.7919 74.8678 49.661 74.4943Z" fill="white"/>
<path d="M40.479 115.68L42.3661 117.585L44.2413 122.949C44.1913 123.136 44.0799 123.3 43.9251 123.416C43.7702 123.532 43.5809 123.592 43.3875 123.588L38.4112 117.679C38.481 117.246 38.675 116.842 38.9698 116.517C39.3853 116.103 39.9079 115.814 40.479 115.68Z" fill="#6D8388"/>
<path d="M70.0594 37.7657L69.7406 39.0297L70.9119 39.5672L71.8372 39.9919L70.8511 40.0269L69.5674 40.0723L69.4607 41.3917L69.3766 42.4318L68.9923 41.4243L68.5262 40.2022L67.2933 40.4647L66.277 40.6811L67.0625 40.0372L68.059 39.2204L67.3915 38.0729L66.8787 37.1913L67.7257 37.7677L68.7978 38.4971L69.6337 37.5253L70.3217 36.7255L70.0594 37.7657Z" fill="#F79009" stroke="#F79009" stroke-width="3"/>
<path d="M47.2557 31.4168C47.387 31.4081 47.5176 31.3917 47.6468 31.3676C47.6985 31.4938 47.7569 31.617 47.822 31.7367C47.7352 31.8135 47.6523 31.8948 47.5735 31.9802C47.4523 31.9016 47.3265 31.8306 47.1972 31.7676C47.2223 31.6519 47.2419 31.5348 47.2557 31.4168Z" fill="#F79009" stroke="#F79009" stroke-width="3"/>
</svg>
