<svg id="vector" xmlns="http://www.w3.org/2000/svg" width="61" height="69" viewBox="0 0 61 69"><path fill="#CFEDF8" d="M1.454,16.007L27.835,0.776L48.935,37.323L22.554,52.554L1.454,16.007Z" id="path_0"/><path fill="#00000000" d="M13.2,27.484L29.728,17.941" stroke-width="6" stroke="#E4EEFA" id="path_1"/><path fill="#ffffff" stroke-width="1" d="M1.339,17.925L27.112,3.045L47.862,38.984L22.088,53.864L1.339,17.925Z" stroke="#ECF3F5" id="path_2"/><path fill="#00000000" d="M18.57,31.062L35.098,21.52" stroke-width="4" stroke="#E1F2FF" id="path_3"/><path fill="#00000000" d="M13.2,34.044L16.299,32.255" stroke-width="6" stroke="#E4EEFA" id="path_4"/><path fill="#00000000" d="M22.146,37.026L38.675,27.484" stroke-width="4" stroke="#E1F2FF" id="path_5"/><path fill="#00000000" d="M16.141,40.095L19.24,38.306" stroke-width="4" stroke="#F9C067" id="path_6"/><path fill="#00000000" d="M25.726,43.587L42.254,34.044" stroke-width="4" stroke="#E1F2FF" id="path_7"/><path fill="#00000000" d="M20.359,46.569L23.458,44.779" stroke-width="4" stroke="#F9C067" id="path_8"/><path fill="#00000000" d="M11.413,19.134L27.941,9.592" stroke-width="4" stroke="#E1F2FF" id="path_9"/><path fill="#00000000" d="M6.044,22.116L9.143,20.327" stroke-width="4" stroke="#F9C067" id="path_10"/><path fill="#00000000" d="M9.623,28.08L12.722,26.291" stroke-width="4" stroke="#F9C067" id="path_11"/><path fill="#00000000" d="M14.396,25.098L30.925,15.556" stroke-width="4" stroke="#E1F2FF" id="path_12"/><path fill="#28C269" d="M60.454,32.549C60.451,32.331 60.367,32.122 60.218,31.962C60.07,31.803 59.868,31.704 59.651,31.684C56.834,31.336 54.153,30.276 51.859,28.605C51.756,28.531 51.633,28.49 51.506,28.49C51.38,28.49 51.256,28.531 51.154,28.605C48.861,30.276 46.18,31.335 43.363,31.683C43.147,31.702 42.945,31.802 42.796,31.961C42.648,32.121 42.564,32.329 42.56,32.547C42.515,35.495 42.988,45.502 51.278,47.729C51.425,47.768 51.58,47.768 51.728,47.729C60.024,45.506 60.496,35.497 60.454,32.549Z" id="path_13"/><path fill="#2EA5FF" d="M36.322,59.721L36.822,62.559L26.992,59.172L35.071,52.626L35.584,55.535C41.98,54.407 46.257,52.482 49.017,49.435C48.363,53.208 45.152,57.433 36.322,59.721Z" id="path_14"/><path fill="#00000000" d="M47.485,39.161L49.527,41.332L55.62,35.876" stroke-width="2" stroke="#ffffff" stroke-linecap="round" id="path_15"/></svg>