<svg width="14" height="14" viewBox="0 0 14 14" fill="none" xmlns="http://www.w3.org/2000/svg">
<path d="M13.3736 6.15988L12.4669 5.10654C12.2936 4.90654 12.1536 4.53321 12.1536 4.26654V3.13321C12.1536 2.42654 11.5736 1.84654 10.8669 1.84654H9.73358C9.47358 1.84654 9.09358 1.70654 8.89358 1.53321L7.84025 0.626543C7.38025 0.23321 6.62691 0.23321 6.16025 0.626543L5.11358 1.53988C4.91358 1.70654 4.53358 1.84654 4.27358 1.84654H3.12025C2.41358 1.84654 1.83358 2.42654 1.83358 3.13321V4.27321C1.83358 4.53321 1.69358 4.90654 1.52691 5.10654L0.626914 6.16654C0.240247 6.62654 0.240247 7.37321 0.626914 7.83321L1.52691 8.89321C1.69358 9.09321 1.83358 9.46654 1.83358 9.72654V10.8665C1.83358 11.5732 2.41358 12.1532 3.12025 12.1532H4.27358C4.53358 12.1532 4.91358 12.2932 5.11358 12.4665L6.16691 13.3732C6.62691 13.7665 7.38025 13.7665 7.84691 13.3732L8.90025 12.4665C9.10025 12.2932 9.47358 12.1532 9.74025 12.1532H10.8736C11.5802 12.1532 12.1602 11.5732 12.1602 10.8665V9.73321C12.1602 9.47321 12.3002 9.09321 12.4736 8.89321L13.3802 7.83988C13.7669 7.37988 13.7669 6.61988 13.3736 6.15988ZM9.77358 5.73988L6.55358 8.95988C6.46025 9.05321 6.33358 9.10654 6.20025 9.10654C6.06691 9.10654 5.94025 9.05321 5.84691 8.95988L4.23358 7.34654C4.04025 7.15321 4.04025 6.83321 4.23358 6.63988C4.42691 6.44654 4.74691 6.44654 4.94025 6.63988L6.20025 7.89988L9.06691 5.03321C9.26025 4.83988 9.58025 4.83988 9.77358 5.03321C9.96691 5.22654 9.96691 5.54654 9.77358 5.73988Z" fill="#028EF8"/>
</svg>
