<svg width="48" height="48" viewBox="0 0 48 48" fill="none" xmlns="http://www.w3.org/2000/svg">
<path d="M33.7766 0.666992H14.2233C5.72996 0.666992 0.666626 5.73032 0.666626 14.2237V33.777C0.666626 42.2703 5.72996 47.3337 14.2233 47.3337H33.7766C42.27 47.3337 47.3333 42.2703 47.3333 33.777V14.2237C47.3333 5.73032 42.27 0.666992 33.7766 0.666992ZM19.2633 30.767L14.0133 36.017C13.6633 36.367 13.22 36.5303 12.7766 36.5303C12.3333 36.5303 11.8666 36.367 11.54 36.017L9.78996 34.267C9.08996 33.5903 9.08996 32.4703 9.78996 31.7937C10.4666 31.117 11.5633 31.117 12.2633 31.7937L12.7766 32.307L16.79 28.2937C17.4666 27.617 18.5633 27.617 19.2633 28.2937C19.94 28.9703 19.94 30.0903 19.2633 30.767ZM19.2633 14.4337L14.0133 19.6837C13.6633 20.0337 13.22 20.197 12.7766 20.197C12.3333 20.197 11.8666 20.0337 11.54 19.6837L9.78996 17.9337C9.08996 17.257 9.08996 16.137 9.78996 15.4603C10.4666 14.7837 11.5633 14.7837 12.2633 15.4603L12.7766 15.9737L16.79 11.9603C17.4666 11.2837 18.5633 11.2837 19.2633 11.9603C19.94 12.637 19.94 13.757 19.2633 14.4337ZM36.9733 34.7803H24.7233C23.7666 34.7803 22.9733 33.987 22.9733 33.0303C22.9733 32.0737 23.7666 31.2803 24.7233 31.2803H36.9733C37.9533 31.2803 38.7233 32.0737 38.7233 33.0303C38.7233 33.987 37.9533 34.7803 36.9733 34.7803ZM36.9733 18.447H24.7233C23.7666 18.447 22.9733 17.6537 22.9733 16.697C22.9733 15.7403 23.7666 14.947 24.7233 14.947H36.9733C37.9533 14.947 38.7233 15.7403 38.7233 16.697C38.7233 17.6537 37.9533 18.447 36.9733 18.447Z" fill="#28C269"/>
</svg>
