<svg width="27" height="27" viewBox="0 0 27 27" fill="none" xmlns="http://www.w3.org/2000/svg">
<path d="M23.68 15.1495V16.2162C23.68 16.5042 23.456 16.7389 23.1573 16.7495H21.6C21.0347 16.7495 20.5227 16.3335 20.48 15.7789C20.448 15.4482 20.576 15.1389 20.7893 14.9255C20.9813 14.7229 21.248 14.6162 21.536 14.6162H23.1467C23.456 14.6269 23.68 14.8615 23.68 15.1495Z" fill="white"/>
<path d="M19.9893 14.1364C19.456 14.659 19.2 15.4377 19.4133 16.2484C19.6906 17.2404 20.6613 17.8697 21.6853 17.8697H22.6133C23.2 17.8697 23.68 18.3497 23.68 18.9364V19.139C23.68 21.347 21.8773 23.1497 19.6693 23.1497H7.42397C5.21597 23.1497 3.4133 21.347 3.4133 19.139V11.9604C3.4133 10.6484 4.04263 9.48571 5.0133 8.76037C5.6853 8.24837 6.5173 7.94971 7.42397 7.94971H19.6693C21.8773 7.94971 23.68 9.75237 23.68 11.9604V12.4297C23.68 13.0164 23.2 13.4964 22.6133 13.4964H21.5253C20.928 13.4964 20.384 13.731 19.9893 14.1364Z" fill="white"/>
<path d="M18.08 5.7414C18.368 6.0294 18.1226 6.4774 17.7173 6.4774L9.5253 6.46673C9.05597 6.46673 8.81064 5.89073 9.15197 5.56007L10.88 3.8214C12.3413 2.37073 14.7093 2.37073 16.1706 3.8214L18.0373 5.7094C18.048 5.72007 18.0693 5.73073 18.08 5.7414Z" fill="white"/>
</svg>
