<svg id="vector" xmlns="http://www.w3.org/2000/svg" width="24" height="24"
    viewBox="0 0 20.993 20.993">
    <path fill="#FF000000" fill-rule="evenodd"
        d="M7.597,5.499a0.383,0.383 0,0 0,-0.081 0.017,2.8 2.8,0 0,0 -1.724,1.285 2.906,2.906 0,0 0,-0.22 1.962,8.789 8.789,0 0,0 2.448,4.126 8.617,8.617 0,0 0,4.08 2.529,2.96 2.96,0 0,0 2,-0.208 3,3 0,0 0,1.377 -1.742,0.37 0.37,0 0,0 -0.15,-0.434l-2.639,-1.655 -0.006,-0.005a0.352,0.352 0,0 0,-0.041 -0.023,0.368 0.368,0 0,0 -0.127,-0.052h-0.012l-0.029,-0.006h-0.006a0.368,0.368 0,0 0,-0.179 0.035,0.36 0.36,0 0,0 -0.058,0.035 0.342,0.342 0,0 0,-0.035 0.023l-0.012,0.017a0.372,0.372 0,0 0,-0.041 0.041l-0.579,0.584a6.527,6.527 0,0 1,-2.581 -2.61l0.532,-0.526a0.389,0.389 0,0 0,0.029 -0.029l0.023,-0.023v-0.005l0.023,-0.023v-0.006l0.012,-0.017 0.012,-0.012c0,-0.009 0.008,-0.019 0.012,-0.029s0,0 0,-0.006l0.006,-0.011 0.012,-0.023c0,-0.01 0,-0.019 0.006,-0.029s0,0 0,-0.006 0,-0.023 0.006,-0.035 0,0 0,-0.006v-0.029,-0.006 -0.029,-0.012c0,-0.004 0,-0.019 -0.006,-0.029s0,0 0,-0.006a0.376,0.376 0,0 0,-0.023 -0.064v-0.006a0.38,0.38 0,0 0,-0.023 -0.047l-0.006,-0.011 -0.006,-0.006 -1.649,-2.708a0.37,0.37 0,0 0,-0.307 -0.179h-0.035zM7.464,6.315l1.348,2.228 -0.561,0.556a0.37,0.37 0,0 0,-0.058 0.445,7.3 7.3,0 0,0 3.293,3.264 0.371,0.371 0,0 0,0.411 -0.075l0.6,-0.6 2.176,1.36a2.055,2.055 0,0 1,-0.914 1.053,2.218 2.218,0 0,1 -1.5,0.139 8.1,8.1 0,0 1,-3.7 -2.32,8.257 8.257,0 0,1 -2.251,-3.744 2.174,2.174 0,0 1,0.15 -1.47,1.874 1.874,0 0,1 1.006,-0.837z"
        stroke="#0038da" stroke-width="1" id="path_0" />
    <path fill="#FF000000" fill-rule="evenodd"
        d="M10.5,0.2a10.294,10.294 0,0 0,-8.606 15.947l-1.151,3.843a0.468,0.468 0,0 0,0.6 0.577l3.761,-1.3a10.3,10.3 0,1 0,5.4 -19.068zM10.5,1.136a9.361,9.361 0,1 1,-5.081 17.224,0.468 0.468,0 0,0 -0.407,-0.05L1.9,19.384l0.952,-3.179a0.468,0.468 0,0 0,-0.062 -0.4A9.36,9.36 0,0 1,10.5 1.138z"
        stroke="#0038da" stroke-width="1" id="path_1" />
</svg>