<svg xmlns="http://www.w3.org/2000/svg" width="148" height="176.532" viewBox="0 0 148 176.532">
    <defs>
        <style>
            .cls-1{fill:#3c4858}.cls-2{fill:#e5e9ec}.cls-3{clip-path:url(#clip-path)}.cls-4{clip-path:url(#clip-path-2)}.cls-5{fill:#5c7594}.cls-6{opacity:.074}.cls-7{fill:#95aac9}.cls-8{fill:#c3166c}.cls-9{fill:#d31b77}.cls-10{fill:#ffc7c0}.cls-11{fill:#ea3f3d}.cls-12{fill:#e7d0b1}.cls-13{fill:#ffeb8f}.cls-14{fill:#f85843}.cls-15{fill:#fff}.cls-16{fill:#97b2b8}.cls-17{fill:#ff9e14}.cls-18{fill:#049ac6}.cls-19{fill:#0ec8d6}
        </style>
        <clipPath id="clip-path">
            <path id="Path_70613" d="M6.779 0h134.442C144.965 0 148 4.94 148 11.033V165.5c0 6.094-3.035 11.033-6.779 11.033H6.779C3.035 176.532 0 171.593 0 165.5V11.033C0 4.94 3.035 0 6.779 0z" class="cls-1" data-name="Path 70613" transform="translate(-2499 743.748)"/>
        </clipPath>
        <clipPath id="clip-path-2">
            <rect id="Rectangle_6037" width="296" height="208" class="cls-2" data-name="Rectangle 6037" rx="12" transform="translate(32 360)"/>
        </clipPath>
    </defs>
    <g id="ic_wait" transform="translate(-180 -414.748)">
        <g id="Mask_Group_14" class="cls-3" data-name="Mask Group 14" transform="translate(2679 -329)">
            <g id="Mask_Group_13" class="cls-4" data-name="Mask Group 13" transform="translate(-2679 378)">
                <g id="Group_16443" data-name="Group 16443" transform="translate(175 372.247)">
                    <g id="Character" transform="translate(12.507 31.749)">
                        <path id="Shape" d="M3.463 11A29.642 29.642 0 0 0 9.229.575a.87.87 0 0 1 .442-.512.485.485 0 0 1 .657.183.955.955 0 0 1 .192.685 25.868 25.868 0 0 1-5.641 12.948A34.867 34.867 0 0 1 0 11.352l.762-1.785z" class="cls-5" transform="translate(135.321 93.127)"/>
                        <path id="Shape-2" d="M2.143 3.255a31.566 31.566 0 0 0 12.689.645.877.877 0 0 1 .551.1.551.551 0 0 1 .225.863.963.963 0 0 1-.511.433 27.552 27.552 0 0 1-15.042.66A37.126 37.126 0 0 1 .191.105L2.256 0z" class="cls-5" data-name="Shape" transform="translate(78.734 120.739)"/>
                        <path id="Shape-3" d="M8.93 0s25.917 4.879 42.993 13.939L92 46.521a7.506 7.506 0 0 1-2.442 4.179s-26.266-9.1-43.864-26c0 0-33.671-7.274-45.694-15.986z" class="cls-5" data-name="Shape" transform="translate(45.48 54.474)"/>
                        <path id="Shape-4" d="M0 8.272L6.016 0a26.327 26.327 0 0 1-1.627 11.509Q2.7 10.056 1.094 8.516S.706 8.432 0 8.272z" class="cls-6" data-name="Shape" transform="translate(90.08 70.656)"/>
                        <path id="Shape-5" d="M0 10.839s11.006 11.38 45.281 8.684c0 0-4.344 12.577-3.138 40.822a3.992 3.992 0 0 0 4.531.323l14.135-49.483S41.824 4.837 12.613 0z" class="cls-7" data-name="Shape" transform="translate(35.315 59.58)"/>
                        <path id="Shape-6" d="M2.222 0s15.77 3.2 26.691 19.986c.616.946 3.968 8.609-.458 12.68a12.549 12.549 0 0 1-4.017 2.4C12 39.888 0 32.408 0 32.408l1.829-6.316s10.846 3.615 20.124-.044c.001.001-11.629-6.795-19.731-26.048z" class="cls-8" data-name="Shape" transform="translate(24.006 15.75)"/>
                        <path id="Shape-7" d="M1.6 6.061s-9.409 24.959 17.38 51.53l21.3-18.774S22.99 20.087 11.316.049c0 0-6.055-1.001-9.716 6.012z" class="cls-9" data-name="Shape" transform="translate(14.955 15.657)"/>
                        <g id="Group_16441" data-name="Group 16441" transform="rotate(54.97 22.384 19.58)">
                            <path id="Shape-8" d="M3.612 0s4.79 2.917 6.8 7.3c0 0-.162 5.376-4.754 3.054A14.292 14.292 0 0 0 0 2.816z" class="cls-10" data-name="Shape" transform="translate(13.747 12.07)"/>
                            <path id="Shape-9" d="M1.18 0s4.8 2.351 14.3.56c0 0 2.179 2.365-.672 6.49a5.61 5.61 0 0 1-2.56 2.05A15.1 15.1 0 0 1 .137 8.532a.237.237 0 0 1-.08-.368A8.427 8.427 0 0 0 1.5.136" class="cls-10" data-name="Shape" transform="translate(5.925 5.341)"/>
                            <path id="Shape-10" d="M13.68 15.278s-.931 2.61-6.641 2.266a9.364 9.364 0 0 1-2.717-.564A7.864 7.864 0 0 1 .815 14.8C-.8 12.5.482 9.535.482 9.535s2.1 1.816 2.251-1A5.616 5.616 0 0 0 2.5 6.608a13.6 13.6 0 0 1-.662-4.442.958.958 0 0 1 1.786-.391A11.463 11.463 0 0 1 4.78 5.269S4.33.148 6.515 0c0 0 4.357.429 0 13.853a17.286 17.286 0 0 0 7.2.644" class="cls-11" data-name="Shape"/>
                        </g>
                        <path id="Combined_Shape" d="M47.872 47.436L36.764 0h6.665l7.71 47.436zM0 47.436L7.71 0h6.665L3.267 47.436z" class="cls-12" data-name="Combined Shape" transform="translate(21.152 79.913)"/>
                        <path id="Shape-11" d="M7.934.093s-.1 16.032 12.953 14.682c0 0 5.179-.763 3.167-9.487 0 0 1.424-2.557 2.7-1.436 7.378 6.452 4.368 21.178-7.322 22.457C9.9 27.353 1.545 23.505.034 11.672c0 0-1-12.885 7.9-11.579z" class="cls-13" data-name="Shape" transform="translate(16.071 34.119)"/>
                        <path id="Shape-12" d="M22.314 30.112h32.52a4.432 4.432 0 0 1 .541-.033 4.109 4.109 0 0 1 .6 8.193l-.031.029h-.27q-.147.01-.3.01c-.086 0-.171 0-.256-.007l-38.9.17S3.074 15.116.058 2.659A2.165 2.165 0 0 1 1.3.18a2.128 2.128 0 0 1 2.65.813z" class="cls-14" data-name="Shape" transform="translate(9.794 41.895)"/>
                    </g>
                    <g id="Clock" transform="translate(77.072)">
                        <path id="Shape-13" d="M25.058 0A25.058 25.058 0 1 1 0 25.058 25.07 25.07 0 0 1 25.058 0z" class="cls-15" data-name="Shape"/>
                        <path id="Combined_Shape-2" d="M21.63 44.5a1.242 1.242 0 1 1 1.242 1.242A1.242 1.242 0 0 1 21.63 44.5zM0 23.014a1.241 1.241 0 1 1 1.242 1.242A1.242 1.242 0 0 1 0 23.014zm43.254-.146A1.242 1.242 0 1 1 44.5 24.11a1.242 1.242 0 0 1-1.246-1.241zM21.484 1.242a1.241 1.241 0 1 1 1.242 1.241 1.242 1.242 0 0 1-1.242-1.241z" class="cls-16" data-name="Combined Shape" transform="translate(2.259 2.189)"/>
                        <path id="Shape-14" d="M1.96 0A1.96 1.96 0 1 1 0 1.96 1.961 1.961 0 0 1 1.96 0z" class="cls-17" data-name="Shape" transform="translate(23.233 23.228)"/>
                    </g>
                    <g id="Group_16442" data-name="Group 16442" transform="rotate(-78 75.165 12.108)">
                        <g id="Book_Back" data-name="Book Back" transform="translate(2.788 2.875)">
                            <path id="Shape-15" d="M4.443 17.642l22.109-4.465L32.234 0 0 5.881z" class="cls-18" data-name="Shape"/>
                            <path id="Shape-16" d="M.029 12.693S-.694 6.452 5.044 0h1.09L.656 12.693z" class="cls-15" data-name="Shape" transform="translate(25.577 .478)"/>
                        </g>
                        <g id="Book_Front" data-name="Book Front">
                            <path id="Shape-17" d="M6.279 15.287S7.614 10.33 1.128 0H0l5.54 15.287z" class="cls-15" data-name="Shape" transform="translate(22.15 .78)"/>
                            <path id="Shape-18" d="M5.941 20.473l21.747-4.422L21.867 0 0 4.4z" class="cls-19" data-name="Shape"/>
                            <path id="Shape-19" d="M23.4 0L1.312 4.411H0L21.722 0z" class="cls-19" data-name="Shape" transform="translate(5.947 16.405)"/>
                            <path id="Shape-20" d="M0 4.764L21.735.35V0L0 4.418z" class="cls-18" data-name="Shape" transform="translate(5.944 16.053)"/>
                            <path id="Shape-21" d="M0 0h1.667v.348H0z" class="cls-18" data-name="Shape" transform="translate(27.672 16.055)"/>
                        </g>
                    </g>
                </g>
            </g>
        </g>
    </g>
</svg>
