<?xml version="1.0" standalone="no"?>
<!DOCTYPE svg PUBLIC "-//W3C//DTD SVG 20010904//EN"
 "http://www.w3.org/TR/2001/REC-SVG-20010904/DTD/svg10.dtd">
<svg version="1.0" xmlns="http://www.w3.org/2000/svg"
 width="1244.000000pt" height="1244.000000pt" viewBox="0 0 1244.000000 1244.000000"
 preserveAspectRatio="xMidYMid meet">

<g transform="translate(0.000000,1244.000000) scale(0.100000,-0.100000)"
fill="#000000" stroke="none">
<path d="M6195 7259 c-24 -12 -877 -1708 -877 -1745 0 -46 28 -64 101 -64 134
1 302 58 495 169 89 52 260 174 285 204 20 24 28 22 81 -26 122 -109 378 -256
545 -312 103 -35 243 -45 280 -21 17 11 25 25 25 46 0 39 -831 1706 -866 1738
-27 24 -38 26 -69 11z m67 -26 c25 -28 858 -1701 858 -1722 0 -73 -181 -63
-380 21 -187 78 -346 182 -530 344 -179 158 -434 408 -455 447 -18 33 -18 36
-2 61 33 50 53 38 233 -142 351 -350 520 -482 749 -587 77 -35 195 -75 221
-75 9 0 -136 300 -386 800 -220 440 -400 807 -400 817 0 45 63 69 92 36z m-52
-176 c0 -9 -75 -166 -166 -348 l-165 -331 -24 22 c-13 12 -35 23 -49 24 -14 0
-26 3 -27 6 0 3 85 172 188 377 l188 371 27 -51 c15 -29 27 -60 28 -70z m270
-783 c-47 -47 -124 -121 -171 -164 l-86 -79 -162 152 c-89 83 -164 161 -167
173 -4 15 46 124 162 355 l167 334 171 -342 171 -343 -85 -86z m121 15 l24
-52 -150 -143 c-83 -79 -153 -144 -156 -144 -3 0 -23 15 -45 34 l-39 35 165
160 c91 88 168 160 171 160 3 1 16 -22 30 -50z m-832 -7 l34 -46 -162 -324
c-89 -178 -160 -326 -157 -329 9 -9 130 28 210 64 140 62 346 192 400 252 27
29 47 26 84 -12 l32 -33 -38 -36 c-88 -84 -276 -202 -433 -273 -114 -52 -198
-75 -297 -82 -81 -7 -112 9 -112 54 0 22 390 814 400 812 3 0 20 -21 39 -47z
m205 -205 l149 -143 -94 -71 c-52 -39 -129 -92 -173 -118 -124 -73 -294 -145
-344 -145 -6 0 57 138 143 310 85 171 158 310 163 310 4 -1 74 -65 156 -143z
m814 -163 c84 -168 151 -309 147 -312 -19 -19 -286 101 -410 184 -91 61 -197
145 -193 153 4 9 292 280 298 281 3 0 74 -138 158 -306z"/>
</g>
</svg>
