<svg width="32" height="32" viewBox="0 0 32 32" fill="none" xmlns="http://www.w3.org/2000/svg">
<rect width="32" height="32" rx="8" fill="#1F2D3D"/>
<path d="M16 8.8125C15.8764 8.8125 15.7555 8.84916 15.6528 8.91783C15.55 8.98651 15.4699 9.08412 15.4226 9.19832C15.3753 9.31253 15.3629 9.43819 15.387 9.55943C15.4111 9.68067 15.4707 9.79203 15.5581 9.87944C15.6455 9.96685 15.7568 10.0264 15.8781 10.0505C15.9993 10.0746 16.125 10.0622 16.2392 10.0149C16.3534 9.96762 16.451 9.88751 16.5197 9.78473C16.5883 9.68195 16.625 9.56111 16.625 9.4375C16.625 9.27174 16.5592 9.11277 16.4419 8.99556C16.3247 8.87835 16.1658 8.8125 16 8.8125ZM11.139 10.8265C11.0154 10.8265 10.8945 10.8632 10.7918 10.9318C10.689 11.0005 10.6089 11.0981 10.5616 11.2123C10.5143 11.3265 10.5019 11.4522 10.526 11.5734C10.5501 11.6947 10.6097 11.806 10.6971 11.8934C10.7845 11.9808 10.8958 12.0404 11.0171 12.0645C11.1383 12.0886 11.264 12.0762 11.3782 12.0289C11.4924 11.9816 11.59 11.9015 11.6587 11.7987C11.7273 11.696 11.764 11.5751 11.764 11.4515C11.764 11.3694 11.7478 11.2882 11.7164 11.2123C11.685 11.1365 11.639 11.0676 11.5809 11.0096C11.5229 10.9515 11.454 10.9055 11.3782 10.8741C11.3023 10.8427 11.2211 10.8265 11.139 10.8265ZM20.861 10.8265C20.7374 10.8265 20.6165 10.8632 20.5138 10.9318C20.411 11.0005 20.3309 11.0981 20.2836 11.2123C20.2363 11.3265 20.2239 11.4522 20.248 11.5734C20.2721 11.6947 20.3316 11.806 20.4191 11.8934C20.5065 11.9808 20.6178 12.0404 20.7391 12.0645C20.8603 12.0886 20.986 12.0762 21.1002 12.0289C21.2144 11.9816 21.312 11.9015 21.3807 11.7987C21.4493 11.696 21.486 11.5751 21.486 11.4515C21.486 11.2857 21.4202 11.1268 21.3029 11.0096C21.1857 10.8923 21.0268 10.8265 20.861 10.8265ZM16 11.9375C15.0068 11.9363 14.0427 12.2733 13.2666 12.8932C12.4906 13.5131 11.9488 14.3788 11.7304 15.3478C11.5121 16.3167 11.6303 17.3311 12.0656 18.2239C12.5008 19.1167 13.2272 19.8347 14.125 20.2595V21.9375C14.1253 22.2689 14.257 22.5867 14.4914 22.8211C14.7258 23.0555 15.0436 23.1872 15.375 23.1875H16.625C16.9564 23.1872 17.2742 23.0555 17.5086 22.8211C17.743 22.5867 17.8747 22.2689 17.875 21.9375V20.2595C18.7728 19.8347 19.4992 19.1167 19.9344 18.2239C20.3697 17.3311 20.4879 16.3167 20.2696 15.3478C20.0512 14.3788 19.5094 13.5131 18.7334 12.8932C17.9573 12.2733 16.9932 11.9363 16 11.9375ZM9.125 15.6875C9.00139 15.6875 8.88055 15.7242 8.77777 15.7928C8.67499 15.8615 8.59488 15.9591 8.54758 16.0733C8.50027 16.1875 8.48789 16.3132 8.51201 16.4344C8.53613 16.5557 8.59565 16.667 8.68306 16.7544C8.77047 16.8418 8.88183 16.9014 9.00307 16.9255C9.12431 16.9496 9.24997 16.9372 9.36418 16.8899C9.47838 16.8426 9.57599 16.7625 9.64467 16.6597C9.71334 16.557 9.75 16.4361 9.75 16.3125C9.75 16.1467 9.68415 15.9878 9.56694 15.8706C9.44973 15.7533 9.29076 15.6875 9.125 15.6875ZM22.875 15.6875C22.7514 15.6875 22.6305 15.7242 22.5278 15.7928C22.425 15.8615 22.3449 15.9591 22.2976 16.0733C22.2503 16.1875 22.2379 16.3132 22.262 16.4344C22.2861 16.5557 22.3456 16.667 22.4331 16.7544C22.5205 16.8418 22.6318 16.9014 22.7531 16.9255C22.8743 16.9496 23 16.9372 23.1142 16.8899C23.2284 16.8426 23.326 16.7625 23.3947 16.6597C23.4633 16.557 23.5 16.4361 23.5 16.3125C23.5 16.1467 23.4342 15.9878 23.3169 15.8706C23.1997 15.7533 23.0408 15.6875 22.875 15.6875ZM11.139 20.5485C11.0154 20.5485 10.8945 20.5852 10.7918 20.6538C10.689 20.7225 10.6089 20.8201 10.5616 20.9343C10.5143 21.0485 10.5019 21.1742 10.526 21.2954C10.5501 21.4167 10.6097 21.528 10.6971 21.6154C10.7845 21.7028 10.8958 21.7624 11.0171 21.7865C11.1383 21.8106 11.264 21.7982 11.3782 21.7509C11.4924 21.7036 11.59 21.6235 11.6587 21.5207C11.7273 21.418 11.764 21.2971 11.764 21.1735C11.764 21.0914 11.7478 21.0102 11.7164 20.9343C11.685 20.8585 11.639 20.7896 11.5809 20.7316C11.5229 20.6735 11.454 20.6275 11.3782 20.5961C11.3023 20.5647 11.2211 20.5485 11.139 20.5485ZM20.861 20.5485C20.7374 20.5485 20.6165 20.5852 20.5138 20.6538C20.411 20.7225 20.3309 20.8201 20.2836 20.9343C20.2363 21.0485 20.2239 21.1742 20.248 21.2954C20.2721 21.4167 20.3316 21.528 20.4191 21.6154C20.5065 21.7028 20.6178 21.7624 20.7391 21.7865C20.8603 21.8106 20.986 21.7982 21.1002 21.7509C21.2144 21.7036 21.312 21.6235 21.3807 21.5207C21.4493 21.418 21.486 21.2971 21.486 21.1735C21.486 21.0077 21.4202 20.8488 21.3029 20.7316C21.1857 20.6143 21.0268 20.5485 20.861 20.5485Z" fill="#FFC82C"/>
</svg>
