<svg width="9" height="11" viewBox="0 0 9 11" fill="none" xmlns="http://www.w3.org/2000/svg">
<path d="M5 10.5C4.85833 10.5 4.73958 10.4521 4.64375 10.3562C4.54792 10.2604 4.5 10.1417 4.5 10C4.5 9.85833 4.54792 9.73958 4.64375 9.64375C4.73958 9.54792 4.85833 9.5 5 9.5H8V9H7C6.725 9 6.48958 8.90208 6.29375 8.70625C6.09792 8.51042 6 8.275 6 8V6C6 5.725 6.09792 5.48958 6.29375 5.29375C6.48958 5.09792 6.725 5 7 5H8V4.5C8 3.53333 7.65833 2.70833 6.975 2.025C6.29167 1.34167 5.46667 1 4.5 1C3.53333 1 2.70833 1.34167 2.025 2.025C1.34167 2.70833 1 3.53333 1 4.5V5H2C2.275 5 2.51042 5.09792 2.70625 5.29375C2.90208 5.48958 3 5.725 3 6V8C3 8.275 2.90208 8.51042 2.70625 8.70625C2.51042 8.90208 2.275 9 2 9H1C0.725 9 0.489583 8.90208 0.29375 8.70625C0.0979167 8.51042 0 8.275 0 8V4.5C0 3.88333 0.11875 3.30208 0.35625 2.75625C0.59375 2.21042 0.916667 1.73333 1.325 1.325C1.73333 0.916667 2.21042 0.59375 2.75625 0.35625C3.30208 0.11875 3.88333 0 4.5 0C5.11667 0 5.69792 0.11875 6.24375 0.35625C6.78958 0.59375 7.26667 0.916667 7.675 1.325C8.08333 1.73333 8.40625 2.21042 8.64375 2.75625C8.88125 3.30208 9 3.88333 9 4.5V9.5C9 9.775 8.90208 10.0104 8.70625 10.2063C8.51042 10.4021 8.275 10.5 8 10.5H5ZM1 8H2V6H1V8ZM7 8H8V6H7V8Z" fill="#113DBC"/>
</svg>
