<svg width="44" height="44" viewBox="0 0 44 44" fill="none" xmlns="http://www.w3.org/2000/svg">
<rect width="44" height="44" rx="5.5" fill="#ECF3F5"/>
<path opacity="0.4" d="M31.1667 17.1592V22.7417L29.6725 21.4584C28.9575 20.8442 27.8025 20.8442 27.0875 21.4584L23.2742 24.7309C22.5592 25.345 21.4042 25.345 20.6892 24.7309L20.3775 24.4742C19.7267 23.9059 18.6909 23.8509 17.9575 24.3459L13.4475 27.3709L13.3467 27.4442C13.0075 26.7109 12.8334 25.84 12.8334 24.8409V17.1592C12.8334 13.8225 14.8225 11.8334 18.1592 11.8334H25.8409C29.1775 11.8334 31.1667 13.8225 31.1667 17.1592Z" fill="#1F2D3D"/>
<path d="M19.25 19.5149C20.4549 19.5149 21.4317 18.5382 21.4317 17.3333C21.4317 16.1284 20.4549 15.1516 19.25 15.1516C18.0451 15.1516 17.0684 16.1284 17.0684 17.3333C17.0684 18.5382 18.0451 19.5149 19.25 19.5149Z" fill="#1F2D3D"/>
<path d="M31.1667 22.7418V24.8409C31.1667 28.1776 29.1775 30.1668 25.8408 30.1668H18.1592C15.8217 30.1668 14.135 29.1859 13.3467 27.4443L13.4475 27.3709L17.9575 24.3459C18.6908 23.8509 19.7267 23.9059 20.3775 24.4743L20.6892 24.7309C21.4042 25.3451 22.5592 25.3451 23.2742 24.7309L27.0875 21.4584C27.8025 20.8443 28.9575 20.8443 29.6725 21.4584L31.1667 22.7418Z" fill="#1F2D3D"/>
</svg>
