<svg width="298" height="260" viewBox="0 0 298 260" fill="none" xmlns="http://www.w3.org/2000/svg">
<g opacity="0.25">
<path d="M258.803 0.922363H34.3728V220.675H258.803V0.922363Z" fill="#AABFC3"/>
<path opacity="0.7" d="M258.803 0.922363H34.3728V220.675H258.803V0.922363Z" fill="#AABFC3"/>
<path d="M253.045 7.94922H40.1523V220.675H253.045V7.94922Z" fill="white"/>
<path d="M258.803 217.578V220.675H145.699L170.147 196.248L203.805 162.569L258.803 217.578Z" fill="#AABFC3"/>
<path opacity="0.7" d="M258.803 217.578V220.675H145.699L170.147 196.248L203.805 162.569L258.803 217.578Z" fill="#AABFC3"/>
<path d="M34.3728 220.675V199.553L103.913 130.013L194.575 220.675H34.3728Z" fill="#AABFC3"/>
<path opacity="0.7" d="M34.3728 220.675V199.553L103.913 130.013L194.575 220.675H34.3728Z" fill="#AABFC3"/>
<path d="M217.524 76.967C220.565 58.2331 207.843 40.5812 189.109 37.5402C170.375 34.4993 152.723 47.2209 149.682 65.9548C146.641 84.6887 159.363 102.341 178.097 105.382C196.831 108.423 214.483 95.7009 217.524 76.967Z" fill="#AABFC3"/>
<path opacity="0.7" d="M217.524 76.967C220.565 58.2331 207.843 40.5812 189.109 37.5402C170.375 34.4993 152.723 47.2209 149.682 65.9548C146.641 84.6887 159.363 102.341 178.097 105.382C196.831 108.423 214.483 95.7009 217.524 76.967Z" fill="#AABFC3"/>
<path d="M73.8983 0.922174L52.5305 219.634L275.898 241.456L297.265 22.7448L73.8983 0.922174Z" fill="#D9E9ED"/>
<path d="M78.9687 8.47816L58.2842 220.196L270.168 240.897L290.852 29.1789L78.9687 8.47816Z" fill="white"/>
<path d="M276.188 238.355L275.887 241.442L163.323 230.445L190.027 208.512L226.803 178.264L276.188 238.355Z" fill="#D9E9ED"/>
<path d="M215.556 119.992C234.535 119.992 249.921 104.606 249.921 85.6269C249.921 66.6478 234.535 51.2622 215.556 51.2622C196.577 51.2622 181.192 66.6478 181.192 85.6269C181.192 104.606 196.577 119.992 215.556 119.992Z" fill="#D9E9ED"/>
<path d="M224.687 25.9978L0.734619 40.6372L15.0689 259.922L239.021 245.283L224.687 25.9978Z" fill="#ECF3F5"/>
<path d="M219.388 33.3813L6.94849 47.2681L20.8244 259.541L233.263 245.654L219.388 33.3813Z" fill="white"/>
<path d="M238.794 242.211L238.991 245.298L126.137 252.668L148.932 226.702L180.324 190.903L238.794 242.211Z" fill="#ECF3F5"/>
<path d="M15.0388 259.924L13.6667 238.854L78.5292 164.928L174.898 249.488L15.0388 259.924Z" fill="#ECF3F5"/>
<path d="M154.233 135.667C173.212 135.667 188.598 120.281 188.598 101.302C188.598 82.3231 173.212 66.9375 154.233 66.9375C135.254 66.9375 119.869 82.3231 119.869 101.302C119.869 120.281 135.254 135.667 154.233 135.667Z" fill="#ECF3F5"/>
</g>
</svg>
