<svg width="139" height="94" viewBox="0 0 139 94" fill="none" xmlns="http://www.w3.org/2000/svg">
<path d="M83.7027 28.1624C83.7027 28.1624 67.5324 52.9757 64.1159 71.5001C64.1159 71.5001 64.7312 76.5638 69.6866 73.7073C79.0297 68.3225 84.6955 60.6541 87.9405 45.2469C88.3916 42.2606 88.2495 39.2148 87.5224 36.2834C86.7953 33.352 85.4973 30.5925 83.7027 28.1624V28.1624Z" fill="#5F7CE7"/>
<path d="M125.605 80.9609C117.807 87.6156 91.2229 85.3379 83.6738 73.4884C83.6738 73.4884 91.6119 51.3904 83.3568 28.7425C83.3568 28.7425 89.5788 21.5234 105.079 23.817C105.073 23.8199 126.941 51.831 125.605 80.9609Z" fill="#5F7CE7"/>
<path d="M85.9878 70.7599C85.9546 70.7276 85.9238 70.6929 85.8956 70.6562L82.3711 51.0851L89.0426 51.0088H89.2689L95.9404 51.0851L92.4822 70.3222V70.3366C92.4816 70.4351 92.4631 70.5327 92.4274 70.6245V70.6519L92.413 70.6706C92.0204 71.1346 91.5177 71.4929 90.9509 71.7127C90.384 71.9325 89.771 72.0069 89.168 71.929C88.5836 71.9913 87.9928 71.9183 87.4412 71.7156C86.8897 71.5128 86.3924 71.1858 85.9878 70.7599Z" fill="#1F2D3D"/>
<path d="M89.1693 49.5347C92.9057 49.5347 95.9316 50.2718 95.9316 51.1803C95.9316 52.0889 92.9057 52.8246 89.1693 52.8246C85.4329 52.8246 82.4055 52.0874 82.4055 51.1803C82.4055 50.2733 85.4358 49.5347 89.1693 49.5347Z" fill="#FFEB8F"/>
<path d="M89.7052 51.2552H88.4271L91.6721 42.4638C91.7178 42.3515 91.7947 42.2547 91.8938 42.1847C91.9929 42.1148 92.11 42.0748 92.2312 42.0693H99.0267C99.063 42.0746 99.099 42.0813 99.1348 42.0895V43.2687L99.0742 43.2816C99.0429 43.2872 99.011 43.2901 98.9791 43.2903H92.6505L89.7052 51.2552Z" fill="#A8CC43"/>
<path d="M89.0999 54.6458C88.3803 54.6458 87.6768 54.859 87.0785 55.2584C86.4802 55.6579 86.0138 56.2257 85.7385 56.89C85.4631 57.5543 85.391 58.2853 85.5314 58.9905C85.6718 59.6957 86.0183 60.3435 86.5272 60.8519C87.036 61.3603 87.6843 61.7066 88.3901 61.8468C89.0959 61.9871 89.8274 61.9151 90.4922 61.64C91.1571 61.3648 91.7253 60.8988 92.1251 60.301C92.5249 59.7031 92.7383 59.0003 92.7383 58.2812C92.7379 57.3172 92.3544 56.3927 91.6722 55.711C90.99 55.0293 90.0647 54.6461 89.0999 54.6458V54.6458Z" fill="white"/>
<path d="M85.2615 63.8448C84.75 63.6158 84.1866 63.3451 83.9805 63.5165C82.76 64.5243 84.8869 66.2982 84.8869 66.2982C83.3537 65.9397 83.8782 67.9482 85.031 68.8898C93.168 75.4135 106.652 74.361 106.652 74.361L106.639 67.4586C96.7603 67.6631 84.0727 60.7175 84.0727 60.7175C83.9366 60.9995 83.8594 61.3062 83.8458 61.619C83.8322 61.9317 83.8826 62.244 83.9939 62.5367C84.1051 62.8293 84.2749 63.0963 84.4929 63.3212C84.7108 63.5461 84.9724 63.7242 85.2615 63.8448Z" fill="#F4B9B2"/>
<path d="M105.071 23.8948C104.009 27.4387 103.82 31.187 104.52 34.8198C105.221 38.4525 106.791 41.862 109.096 44.7574C109.613 45.424 120.948 55.946 125.276 62.5762C119.347 66.6076 107.998 67.7076 100.698 66.2563C99.1131 67.9279 99.4013 73.7044 101.083 74.6604C101.083 74.6604 129.037 80.493 137.328 69.5477C144.741 59.7686 119.637 29.4711 105.071 23.8948Z" fill="#FFC7C0"/>
<path d="M86.2945 8.20386C91.9093 12.9996 96.7646 18.6176 100.695 24.8666C100.695 24.8666 100.37 30.3061 93.0886 30.4501C91.8326 30.4081 90.6113 30.0279 89.5536 29.3498C88.496 28.6716 87.6413 27.7206 87.0798 26.5972C87.0798 26.5972 86.1115 18.4681 80.6921 13.4951L86.2945 8.20386Z" fill="#F4B9B2"/>
<path d="M78.6406 34.9121C78.5656 36.6007 78.3062 38.276 77.8668 39.9082L74.0642 39.5036C74.4137 38.1864 74.6143 36.8341 74.6622 35.4722L78.6406 34.9121Z" fill="#F4B9B2"/>
<path d="M87.3417 4.43604C87.3417 4.43604 82.0693 8.66758 77.1686 4.68944C76.9744 10.6444 75.2291 16.4457 72.1051 21.5206C72.1051 21.5206 73.7348 28.9125 82.843 24.8235C82.843 24.8235 88.9815 17.8909 87.3417 4.43604Z" fill="#FFC7C0"/>
<path d="M94.4014 13.8666C92.6112 10.0442 91.44 5.96191 90.9316 1.77235C90.9604 1.67589 90.9719 1.62837 90.9719 1.62837C81.1202 -2.85226 75.7065 3.34173 75.7065 3.34173C75.6691 7.55312 81.5525 8.94971 86.3782 6.87929C86.8483 6.67808 87.2981 6.43219 87.7211 6.145C87.9265 7.92118 88.4982 9.63553 89.3999 11.1799C90.3017 12.7242 91.514 14.0651 92.9604 15.1178C93.0082 15.1241 93.0563 15.127 93.1045 15.1264C93.2725 15.1291 93.4394 15.0986 93.5956 15.0367C93.7518 14.9747 93.8942 14.8826 94.0147 14.7656C94.1352 14.6485 94.2314 14.5089 94.2977 14.3546C94.3641 14.2003 94.3993 14.0345 94.4014 13.8666V13.8666Z" fill="#030612"/>
<path d="M78.5681 35.989C78.5681 35.989 79.6128 31.0476 74.5104 32.3823C75.0312 33.4867 75.1015 34.7503 74.7063 35.9055C75.2753 36.2853 75.9409 36.4949 76.625 36.5097C77.3091 36.5245 77.9832 36.3439 78.5681 35.989Z" fill="#F4B9B2"/>
<path d="M67.9168 32.3003C67.9168 32.3003 65.8678 26.1092 64.9038 26.1898C63.9398 26.2704 65.8894 32.7481 65.8894 32.7481L65.5782 32.7092C65.5782 32.7092 63.0378 24.4189 61.8216 24.6694C60.6055 24.9199 63.8721 35.0359 63.8721 35.0359C63.8721 35.0359 70.4659 37.6275 75.0466 35.8206C75.2402 35.5607 75.3799 35.2649 75.4578 34.9505C75.5357 34.636 75.5501 34.3092 75.5002 33.9891C75.4503 33.6691 75.3371 33.3621 75.1672 33.0863C74.9973 32.8104 74.7741 32.5711 74.5106 32.3823C72.3131 32.4902 70.111 32.4628 67.9168 32.3003Z" fill="#F4B9B2"/>
<path d="M89.622 23.3275C91.2048 17.239 90.9069 10.8144 88.7676 4.89819L86.426 5.61809C86.426 5.61809 89.233 15.7096 84.6551 21.5335C82.6754 22.5203 80.395 22.7209 78.2732 22.095C76.1513 21.469 74.3457 20.063 73.2198 18.1601C71.519 20.3307 70.314 22.8467 69.6894 25.5318C69.4712 26.6811 69.5247 27.8653 69.8457 28.9902C70.1667 30.1151 70.7463 31.1495 71.5382 32.0109C72.3195 32.8613 73.2947 33.5108 74.3809 33.9041C75.4671 34.2973 76.6323 34.4229 77.7775 34.2699C84.5787 33.3614 88.7877 26.7485 89.622 23.3275Z" fill="#1F2D3D"/>
<path d="M79.0134 36.8976C78.2781 37.2637 77.4515 37.4064 76.6358 37.3082C75.8201 37.2099 75.0512 36.875 74.424 36.3447C74.424 36.3447 56.513 70.2129 66.5247 73.3661C66.5247 73.3661 74.7597 74.6216 78.2122 57.1713C79.7915 49.1862 79.0134 36.8976 79.0134 36.8976Z" fill="#FFC7C0"/>
<path d="M47.6358 70.3885C74.2947 68.9444 88.3396 73.7259 96.1524 78.3045C99.7821 80.4296 101.54 82.2423 101.576 82.847C101.828 86.9749 99.847 94.3956 90.8728 95.1558C77.2342 96.3076 61.3651 87.237 61.3651 87.237C61.3651 87.237 69.7514 110.141 67.8897 141.625C65.1332 142.392 63.2787 142.007 60.4573 139.226L44.4383 82.6426C44.4383 82.6426 40.8936 73.8526 47.6358 70.3885Z" fill="#030612"/>
<path d="M67.2268 68.3698C90.6883 66.835 122.173 77.2591 123.235 82.6526C124.035 86.707 120.549 94.7468 111.336 95.4912C96.1365 96.7179 82.0297 86.9259 82.0297 86.9259C82.0297 86.9259 91.9217 109.862 90.5312 143.7C90.5312 143.7 88.7531 147.602 83.6277 144.299C78.8783 121.371 70.7514 101.332 63.4703 80.9839C62.0495 76.1361 61.4342 71.2523 67.2268 68.3698Z" fill="#1F2D3D"/>
<path d="M87.1605 12.1072C86.6395 12.3908 86.2503 12.8669 86.0763 13.4337C85.9023 14.0004 85.9573 14.6127 86.2296 15.1394C86.6143 15.5909 87.1607 15.8738 87.7516 15.9276C88.3425 15.9815 88.931 15.8019 89.3911 15.4274C89.9117 15.1431 90.3003 14.6664 90.4734 14.0994C90.6466 13.5323 90.5907 12.9201 90.3176 12.3938C89.9328 11.9438 89.3873 11.662 88.7974 11.6084C88.2075 11.5549 87.6201 11.7339 87.1605 12.1072Z" fill="#FFC7C0"/>
</svg>
