<svg xmlns="http://www.w3.org/2000/svg" width="15.127" height="15" viewBox="0 0 15.127 15">
    <g data-name="Group 14">
        <path data-name="Union 1" d="M10.173 14.4a7.462 7.462 0 1 1 2.961-2.114c.807.857 2.3 2.512 1.938 2.682a.85.85 0 0 1-.3.034 43.554 43.554 0 0 1-4.599-.602z" style="fill:#9cafb1"/>
        <path data-name="Icon awesome-info" d="M.289 6.129h.289V4.042H.289A.289.289 0 0 1 0 3.753v-.69a.289.289 0 0 1 .289-.289h1.618a.289.289 0 0 1 .289.289v3.066h.289a.289.289 0 0 1 .289.289v.69a.289.289 0 0 1-.289.289H.289A.289.289 0 0 1 0 7.108v-.69a.289.289 0 0 1 .289-.289zM1.387 0a1.04 1.04 0 1 0 1.04 1.04A1.04 1.04 0 0 0 1.387 0z" transform="translate(6.162 3.737)" style="fill:#fff"/>
    </g>
</svg>
