<svg width="18" height="18" viewBox="0 0 18 18" fill="none" xmlns="http://www.w3.org/2000/svg">
<path d="M16.9667 7.9499L15.8417 6.63324C15.6334 6.38324 15.4584 5.91657 15.4584 5.58324V4.16657C15.4584 3.28324 14.7334 2.55824 13.8501 2.55824H12.4334C12.1001 2.55824 11.6251 2.38324 11.3751 2.1749L10.0584 1.0499C9.4834 0.558236 8.54173 0.558236 7.96673 1.0499L6.6334 2.1749C6.3834 2.38324 5.91673 2.55824 5.5834 2.55824H4.14173C3.2584 2.55824 2.5334 3.28324 2.5334 4.16657V5.58324C2.5334 5.90824 2.36673 6.3749 2.1584 6.6249L1.0334 7.9499C0.550065 8.53324 0.550065 9.46657 1.0334 10.0332L2.1584 11.3582C2.36673 11.5999 2.5334 12.0749 2.5334 12.3999V13.8249C2.5334 14.7082 3.2584 15.4332 4.14173 15.4332H5.59173C5.91673 15.4332 6.39173 15.6082 6.64173 15.8166L7.9584 16.9416C8.5334 17.4332 9.47507 17.4332 10.0501 16.9416L11.3667 15.8166C11.6167 15.6082 12.0834 15.4332 12.4167 15.4332H13.8334C14.7167 15.4332 15.4417 14.7082 15.4417 13.8249V12.4082C15.4417 12.0749 15.6167 11.6082 15.8251 11.3582L16.9501 10.0416C17.4584 9.4749 17.4584 8.53324 16.9667 7.9499ZM8.37506 5.7749C8.37506 5.43324 8.6584 5.1499 9.00006 5.1499C9.34173 5.1499 9.62506 5.43324 9.62506 5.7749V9.7999C9.62506 10.1416 9.34173 10.4249 9.00006 10.4249C8.6584 10.4249 8.37506 10.1416 8.37506 9.7999V5.7749ZM9.00006 13.0582C8.54173 13.0582 8.16673 12.6832 8.16673 12.2249C8.16673 11.7666 8.5334 11.3916 9.00006 11.3916C9.4584 11.3916 9.8334 11.7666 9.8334 12.2249C9.8334 12.6832 9.46673 13.0582 9.00006 13.0582Z" fill="#EA0000"/>
</svg>
