<svg width="35" height="44" viewBox="0 0 35 44" fill="none" xmlns="http://www.w3.org/2000/svg">
<circle cx="17" cy="17.0001" r="8" fill="#8FA3A5"/>
<ellipse cx="17" cy="40.0001" rx="14" ry="4" fill="#5F7CE7"/>
<path d="M34.1463 13.3933C32.0975 4.37866 24.2341 0.320129 17.3268 0.320129C17.3268 0.320129 17.3268 0.320129 17.3073 0.320129C10.4195 0.320129 2.53654 4.35915 0.487762 13.3738C-1.79516 23.4421 4.37069 31.9689 9.95118 37.3348C12.0195 39.325 14.6731 40.3201 17.3268 40.3201C19.9804 40.3201 22.6341 39.325 24.6829 37.3348C30.2634 31.9689 36.4292 23.4616 34.1463 13.3933ZM17.3268 23.1689C13.9317 23.1689 11.1804 20.4177 11.1804 17.0226C11.1804 13.6274 13.9317 10.8762 17.3268 10.8762C20.7219 10.8762 23.4731 13.6274 23.4731 17.0226C23.4731 20.4177 20.7219 23.1689 17.3268 23.1689Z" fill="#D9E9ED"/>
</svg>
