<svg width="45" height="45" viewBox="0 0 45 45" fill="none" xmlns="http://www.w3.org/2000/svg">
<path d="M37.8058 16.7037C35.8991 8.21541 28.4925 4.42041 22.0025 4.42041C22.0025 4.42041 22.0025 4.42041 21.9841 4.42041C15.5125 4.42041 8.12414 8.21541 6.19914 16.6854C4.03581 26.1454 9.82914 34.1571 15.0725 39.2171C17.0158 41.0871 19.5091 42.0221 22.0025 42.0221C24.4958 42.0221 26.9891 41.0871 28.9141 39.2171C34.1575 34.1571 39.9508 26.1637 37.8058 16.7037ZM28.0158 18.2254L20.6825 25.5587C20.4075 25.8337 20.0591 25.9621 19.7108 25.9621C19.3625 25.9621 19.0141 25.8337 18.7391 25.5587L15.9891 22.8087C15.4575 22.2771 15.4575 21.3971 15.9891 20.8654C16.5208 20.3337 17.4008 20.3337 17.9325 20.8654L19.7108 22.6437L26.0725 16.2821C26.6041 15.7504 27.4841 15.7504 28.0158 16.2821C28.5475 16.8137 28.5475 17.6937 28.0158 18.2254Z" fill="#1F9A53"/>
</svg>
