<svg width="280" height="234" viewBox="0 0 280 234" fill="none" xmlns="http://www.w3.org/2000/svg">
<g clip-path="url(#clip0_317_12463)">
<path d="M131.996 44.3388C134.635 44.5 137.114 45.6673 138.926 47.6025C140.738 49.5377 141.747 52.0948 141.747 54.7522V213.772C141.747 216.43 140.738 218.987 138.926 220.922C137.114 222.857 134.635 224.024 131.996 224.186V224.205H91.418V44.3198H131.996V44.3388Z" fill="#97B2B8"/>
<path d="M138.29 204.604V211.876C138.29 215.146 136.997 218.282 134.697 220.594C132.396 222.906 129.276 224.205 126.022 224.205H60.5922C58.9811 224.205 57.3857 223.887 55.8972 223.267C54.4087 222.647 53.0563 221.739 51.9171 220.594C50.7779 219.449 49.8743 218.089 49.2578 216.593C48.6413 215.097 48.3241 213.494 48.3242 211.875L48.3242 56.6497C48.3242 53.3796 49.6167 50.2435 51.9174 47.9312C54.2181 45.6189 57.3385 44.3198 60.5922 44.3198H126.02C127.631 44.3196 129.227 44.6383 130.715 45.2578C132.204 45.8774 133.557 46.7855 134.696 47.9305C135.835 49.0754 136.739 50.4348 137.356 51.9308C137.973 53.4269 138.29 55.0303 138.29 56.6497V72.1404H141.75V73.4048H138.29V203.339H141.75V204.603L138.29 204.604Z" fill="#DDEBEF"/>
<path d="M60.5916 45.1101H126.019C127.507 45.1096 128.98 45.4036 130.354 45.9754C131.728 46.5471 132.977 47.3853 134.029 48.4422C135.081 49.4991 135.916 50.7539 136.485 52.135C137.054 53.5161 137.347 54.9963 137.347 56.4912V212.033C137.347 215.051 136.154 217.946 134.031 220.08C131.907 222.215 129.027 223.414 126.023 223.414H60.5916C57.5883 223.414 54.708 222.215 52.5843 220.08C50.4606 217.946 49.2676 215.051 49.2676 212.033V56.4912C49.2676 53.4728 50.4606 50.5779 52.5843 48.4436C54.708 46.3092 57.5883 45.1101 60.5916 45.1101Z" fill="#97B2B8"/>
<path d="M71.6017 51.2738V52.8556C71.6017 53.9456 72.0325 54.9909 72.7994 55.7616C73.5662 56.5323 74.6063 56.9653 75.6908 56.9653H110.606C111.69 56.9653 112.73 56.5323 113.497 55.7616C114.264 54.9909 114.695 53.9456 114.695 52.8556V51.2738C114.695 50.771 114.893 50.2889 115.247 49.9334C115.601 49.5779 116.081 49.3782 116.581 49.3782H124.759C126.761 49.3782 128.681 50.1775 130.097 51.6004C131.513 53.0232 132.308 54.953 132.308 56.9653V211.559C132.308 213.571 131.513 215.501 130.097 216.924C128.681 218.347 126.761 219.146 124.759 219.146H61.8498C59.8477 219.146 57.9276 218.347 56.5118 216.924C55.0961 215.501 54.3008 213.571 54.3008 211.559V56.9653C54.3008 54.953 55.0961 53.0232 56.5118 51.6004C57.9276 50.1775 59.8477 49.3782 61.8498 49.3782H69.7138C69.9616 49.3779 70.2071 49.4268 70.4361 49.5219C70.6652 49.6171 70.8733 49.7567 71.0487 49.9327C71.224 50.1088 71.3631 50.3178 71.458 50.5479C71.5529 50.778 71.6017 51.0247 71.6017 51.2738Z" fill="#F2F8F9"/>
<path d="M141.275 84.1536C141.734 84.1538 142.174 84.3372 142.498 84.6633C142.823 84.9894 143.005 85.4317 143.005 85.8928V103.28C142.994 103.734 142.807 104.166 142.484 104.484C142.161 104.801 141.727 104.979 141.275 104.979C140.823 104.979 140.389 104.801 140.066 104.484C139.742 104.166 139.555 103.734 139.545 103.28V85.8928C139.545 85.4315 139.727 84.9891 140.052 84.663C140.376 84.3368 140.816 84.1536 141.275 84.1536V84.1536Z" fill="#C2D5DA"/>
<path d="M141.746 84.1536C142.08 84.1536 142.4 84.2868 142.636 84.5239C142.872 84.761 143.004 85.0826 143.004 85.4179V103.754C143.004 104.089 142.872 104.411 142.636 104.648C142.4 104.885 142.08 105.018 141.746 105.018C141.413 105.018 141.093 104.885 140.857 104.648C140.621 104.411 140.488 104.089 140.488 103.754V85.4179C140.488 85.0826 140.621 84.761 140.857 84.5239C141.093 84.2868 141.413 84.1536 141.746 84.1536V84.1536Z" fill="#97B2B8"/>
<path d="M61.5437 86.5249H16.2299C8.93831 86.5249 3.02734 92.4657 3.02734 99.794V121.942C3.02734 129.27 8.93831 135.211 16.2299 135.211H61.5437C68.8353 135.211 74.7463 129.27 74.7463 121.942V99.794C74.7463 92.4657 68.8353 86.5249 61.5437 86.5249Z" fill="#DDEBEF"/>
<path d="M48.0083 99.4868H11.5204C10.3042 99.4868 9.31836 100.478 9.31836 101.7C9.31836 102.922 10.3042 103.913 11.5204 103.913H48.0083C49.2245 103.913 50.2103 102.922 50.2103 101.7C50.2103 100.478 49.2245 99.4868 48.0083 99.4868Z" fill="#7C99BE"/>
<path d="M59.6473 94.1121H11.5204C10.3042 94.1121 9.31836 95.1029 9.31836 96.3252C9.31836 97.5474 10.3042 98.5383 11.5204 98.5383H59.6473C60.8634 98.5383 61.8493 97.5474 61.8493 96.3252C61.8493 95.1029 60.8634 94.1121 59.6473 94.1121Z" fill="#7C99BE"/>
<path d="M62.0068 117.506H15.4519C12.0644 117.506 9.31836 120.266 9.31836 123.671V123.672C9.31836 127.076 12.0644 129.836 15.4519 129.836H62.0068C65.3943 129.836 68.1403 127.076 68.1403 123.672V123.671C68.1403 120.266 65.3943 117.506 62.0068 117.506Z" fill="#009CF6"/>
<path d="M172.976 21.3831L149.232 7.59613C142.007 3.40104 132.777 5.87577 128.617 13.1236L103.477 56.9146C99.3164 64.1624 101.8 73.4387 109.025 77.6338L132.769 91.4208C139.994 95.6159 149.224 93.1412 153.385 85.8934L178.524 42.1024C182.685 34.8545 180.201 25.5782 172.976 21.3831Z" fill="#DDEBEF"/>
<path d="M155.625 21.6074L152.781 26.5606C150.11 25.0099 146.938 24.587 143.962 25.385C140.985 26.1829 138.449 28.1363 136.911 30.8155C135.373 33.4946 134.959 36.6801 135.76 39.671C136.561 42.662 138.511 45.2135 141.182 46.7642L138.447 51.528C134.492 49.2315 131.603 45.4528 130.417 41.0233C129.231 36.5938 129.844 31.8763 132.122 27.9086C134.4 23.9408 138.156 21.0479 142.563 19.8662C146.971 18.6845 151.669 19.3108 155.625 21.6074V21.6074Z" fill="#F2F8F9"/>
<path d="M129.772 41.3039L135.716 39.7262C136.115 41.2056 136.8 42.5923 137.732 43.807C138.663 45.0217 139.824 46.0406 141.147 46.8055L138.083 52.1423C134.002 49.7677 131.015 45.8725 129.772 41.3039V41.3039Z" fill="#0EC8D6"/>
<path d="M156.578 19.9019C161.011 22.4662 164.253 26.6909 165.591 31.6479C166.929 36.6049 166.255 41.8885 163.716 46.3379L157.109 42.5013C158.645 39.8086 159.053 36.611 158.243 33.6111C157.433 30.6112 155.472 28.0544 152.789 26.5025L156.578 19.9019Z" fill="#F85843"/>
<path d="M163.242 46.0863C160.739 50.355 156.654 53.4524 151.879 54.7026C147.104 55.9529 142.027 55.2545 137.754 52.7599L137.721 52.7409L141.163 46.7464C143.839 48.309 147.022 48.7417 150.011 47.9495C152.999 47.1574 155.55 45.2051 157.103 42.5217L163.242 46.0863Z" fill="#049AC6"/>
<path d="M126.516 52.2061C126.652 51.9229 126.672 51.5968 126.57 51.2987C126.468 51.0006 126.253 50.7547 125.972 50.6146L123.792 49.349C123.531 49.1751 123.213 49.1115 122.906 49.1721C122.599 49.2326 122.328 49.4125 122.153 49.6725L121.055 51.5853C120.918 51.8681 120.897 52.1941 120.998 52.4924C121.1 52.7907 121.314 53.037 121.595 53.1778L123.774 54.4434C124.036 54.6185 124.355 54.6826 124.663 54.6218C124.971 54.5609 125.242 54.3801 125.418 54.1188L126.516 52.2061Z" fill="#FF6554"/>
<path d="M123.369 57.8962C123.506 57.6131 123.525 57.2869 123.423 56.9888C123.321 56.6908 123.106 56.4449 122.825 56.3048L120.646 55.0392C120.385 54.8653 120.066 54.8017 119.759 54.8623C119.452 54.9228 119.181 55.1027 119.006 55.3627L117.908 57.2755C117.771 57.5583 117.751 57.8843 117.852 58.1826C117.953 58.4809 118.167 58.7272 118.448 58.868L120.627 60.1336C120.889 60.3087 121.209 60.3728 121.517 60.312C121.825 60.2511 122.096 60.0703 122.271 59.809L123.369 57.8962Z" fill="#049AC6"/>
<path d="M120.225 63.2713C120.361 62.9881 120.381 62.6619 120.279 62.3639C120.177 62.0658 119.962 61.8199 119.681 61.6798L117.501 60.4142C117.24 60.2403 116.922 60.1767 116.615 60.2373C116.307 60.2978 116.037 60.4777 115.862 60.7377L114.764 62.6505C114.627 62.9333 114.606 63.2593 114.707 63.5576C114.809 63.8559 115.023 64.1022 115.304 64.243L117.483 65.5086C117.745 65.6837 118.064 65.7478 118.372 65.687C118.68 65.6261 118.951 65.4453 119.127 65.184L120.225 63.2713Z" fill="#049AC6"/>
<path d="M117.078 68.9612C117.215 68.678 117.234 68.3519 117.132 68.0538C117.03 67.7557 116.815 67.5098 116.534 67.3697L114.355 66.1041C114.094 65.9302 113.775 65.8666 113.468 65.9272C113.161 65.9878 112.89 66.1676 112.715 66.4277L111.617 68.3404C111.48 68.6232 111.46 68.9493 111.561 69.2475C111.662 69.5458 111.876 69.7922 112.157 69.933L114.336 71.1986C114.598 71.3736 114.918 71.4377 115.226 71.3769C115.534 71.3161 115.805 71.1353 115.98 70.874L117.078 68.9612Z" fill="#DDEBEF"/>
<path d="M130.098 76.5505C130.235 76.2711 130.257 75.9483 130.158 75.6522C130.06 75.3562 129.849 75.111 129.571 74.97L120.82 69.8891C120.56 69.718 120.244 69.6569 119.939 69.7191C119.635 69.7812 119.368 69.9616 119.196 70.221L118.099 72.1325C117.96 72.412 117.938 72.7353 118.036 73.0319C118.135 73.3285 118.346 73.5742 118.624 73.7155L127.375 78.7964C127.635 78.9677 127.952 79.0287 128.257 78.966C128.562 78.9034 128.829 78.7222 129 78.4621L130.098 76.5505Z" fill="#C2D5DA"/>
<path d="M137.333 73.3113C137.471 73.033 137.494 72.711 137.396 72.4155C137.298 72.1201 137.088 71.875 136.812 71.7339L123.963 64.2745C123.703 64.1045 123.388 64.0444 123.084 64.1072C122.781 64.17 122.515 64.3505 122.345 64.6096L121.247 66.5208C121.109 66.799 121.086 67.1212 121.183 67.4172C121.28 67.7131 121.49 67.9586 121.767 68.1001L134.615 75.5596C134.876 75.73 135.192 75.7902 135.496 75.727C135.799 75.6639 136.066 75.4825 136.236 75.2225L137.333 73.3113Z" fill="#C2D5DA"/>
<path d="M146.598 71.3352C146.736 71.0575 146.759 70.736 146.662 70.4409C146.565 70.1458 146.355 69.9009 146.08 69.7596L126.961 58.6615C126.702 58.492 126.386 58.4322 126.083 58.4951C125.781 58.558 125.515 58.7386 125.345 58.9975L124.248 60.9083C124.109 61.1861 124.085 61.508 124.182 61.8037C124.279 62.0994 124.489 62.3448 124.765 62.4864L143.881 73.5831C144.141 73.7537 144.458 73.8141 144.761 73.7509C145.065 73.6877 145.331 73.5062 145.501 73.246L146.598 71.3352Z" fill="#C2D5DA"/>
<path d="M147.125 64.5384C147.263 64.2615 147.286 63.9408 147.19 63.646C147.093 63.3513 146.885 63.1065 146.61 62.965L130.206 53.4421C129.946 53.2739 129.632 53.2152 129.33 53.2788C129.028 53.3423 128.764 53.523 128.595 53.7814L127.498 55.6924C127.359 55.969 127.334 56.2899 127.43 56.585C127.526 56.8801 127.734 57.1254 128.009 57.2672L144.414 66.7902C144.673 66.9586 144.988 67.0175 145.289 66.9539C145.591 66.8903 145.855 66.7095 146.024 66.4508L147.125 64.5384Z" fill="#C2D5DA"/>
<path d="M223.942 166.328C226.182 166.696 228.368 167.342 230.449 168.252L227.134 180.517C227.134 180.517 225.915 180.272 225.877 177.541C225.841 175.021 226.938 170.878 227.03 170.245C225.791 169.681 224.453 169.368 223.094 169.322L223.942 166.328Z" fill="#6D8388"/>
<path d="M199.257 198.244C199.409 200.477 199.28 202.72 198.872 204.921L186.301 204.536C186.301 204.536 186.261 203.312 188.885 202.653C191.306 202.044 195.548 202.151 196.178 202.094C196.412 200.778 196.412 199.43 196.178 198.114L199.257 198.244Z" fill="#6D8388"/>
<path d="M184.274 125.75C184.274 125.75 205.576 147.09 201.301 200.103C201.207 201.222 196.72 202.624 194.762 200.103C192.261 174.146 187.726 150.036 176.113 130.592L184.274 125.75Z" fill="#405C80"/>
<path d="M179.747 127.169L189.932 158.668C199.04 158.69 216.008 161.625 225.099 165.07C227.028 167.521 225.236 170.647 223.125 170.271C212.936 168.455 196.478 168.384 184.074 168.738L165.924 132.287L179.747 127.169Z" fill="#5C7594"/>
<path d="M120.357 88.0916C120.357 88.0916 123.062 91.2487 128.978 91.4146C129.684 91.3136 130.362 91.0696 130.971 90.6975C131.58 90.3254 132.108 89.8329 132.523 89.2498C132.523 89.2498 131.513 85.6814 128.724 84.1033C128.724 84.1033 127.604 83.6673 127.985 85.0378C128.446 85.9695 128.706 86.989 128.746 88.029L120.357 88.0916Z" fill="#FFC7C0"/>
<path d="M165.666 72.3137C165.757 71.5115 165.789 70.7037 165.76 69.8968C165.675 67.5368 165.463 65.936 165.463 65.936C165.463 65.936 164.954 63.4073 165.845 63.6177C165.845 63.6177 168.328 66.4411 168.18 74.1941L165.93 76.0897C165.192 75.1745 164.581 74.1632 164.114 73.0833C164.073 72.9816 164.035 72.8786 164 72.7743C163.841 72.2947 162.938 69.4087 163.637 69.1376C163.637 69.1376 164.522 69.0182 165.666 72.3137Z" fill="#FFC7C0"/>
<path d="M162.97 77.4545C162.374 76.0444 161.401 74.8274 160.16 73.9378C158.919 73.0482 157.458 72.5206 155.937 72.4132C151.96 72.2008 148.268 74.993 146.891 79.787C146.891 79.787 143.756 90.5681 153.269 95.6701C153.269 95.6701 152.644 88.8119 157.005 86.2566C161.482 83.6331 165.33 88.0281 165.33 88.0281C165.33 88.0281 168.172 86.9855 168.461 82.7109C168.508 81.9855 168.397 81.2583 168.134 80.581C167.871 79.9036 167.463 79.2925 166.94 78.7911C166.416 78.2896 165.789 77.9099 165.103 77.679C164.417 77.448 163.689 77.3714 162.97 77.4545Z" fill="white"/>
<path d="M162.551 99.4982C161.643 99.2121 160.807 98.7334 160.099 98.0945C161.682 96.4037 161.582 93.1082 161.403 91.405C160.883 91.6508 160.319 91.7888 159.745 91.8106C159.171 91.8324 158.598 91.7377 158.061 91.532C155.461 90.2382 155.816 86.5599 158.612 80.9148C160.733 82.8064 163.395 83.9763 166.218 84.2577C165.923 85.2794 165.539 86.2729 165.07 87.2262C165.744 86.9049 166.837 86.5314 167.162 87.283C167.577 88.2441 166.677 89.3833 164.667 89.4696C164.879 92.279 166.133 94.9058 168.182 96.8292C167.788 97.671 167.164 98.3826 166.382 98.881C165.601 99.3793 164.694 99.6437 163.768 99.6432C163.358 99.643 162.95 99.5943 162.551 99.4982Z" fill="#FFC7C0"/>
<path d="M164.507 88.5769C164.675 88.5769 164.839 88.6269 164.978 88.7207C165.118 88.8144 165.227 88.9476 165.291 89.1035C165.355 89.2594 165.372 89.4309 165.339 89.5963C165.307 89.7618 165.226 89.9138 165.107 90.0331C164.988 90.1524 164.837 90.2336 164.673 90.2665C164.508 90.2995 164.337 90.2826 164.182 90.218C164.027 90.1534 163.895 90.0441 163.801 89.9038C163.708 89.7635 163.658 89.5986 163.658 89.4299C163.658 89.2037 163.748 88.9867 163.907 88.8267C164.066 88.6668 164.282 88.5769 164.507 88.5769V88.5769Z" fill="#0EC8D6"/>
<path d="M166.116 132.304C166.116 132.304 152.623 122.718 155.596 102.765C155.596 102.765 176.333 105.846 184.32 125.165C181.291 130.994 172.356 133.396 166.116 132.304Z" fill="#DDEBEF"/>
<path d="M155.621 110.516C153.241 110.738 138.009 111.323 129.131 91.2979L132.375 87.8858C132.375 87.8858 143.962 100.211 160.226 97.5154C160.226 97.5154 160.274 97.6206 160.346 97.8159C162.011 97.6202 163.615 97.0711 165.053 96.2051C166.49 95.3391 167.728 94.1759 168.685 92.7926C169.99 89.39 170.849 83.4018 165.882 75.9749L168.456 73.8206C171.405 75.5138 173.957 77.8258 175.939 80.5992C179.148 85.0131 180.544 90.4995 179.837 95.9203C179.492 98.5466 178.691 101.446 176.936 103.483C181.835 108.997 187.905 113.333 194.698 116.168C196.139 133.803 180.425 139.087 180.425 139.087C166.165 130.688 158.517 116.821 155.621 110.516Z" fill="#009CF6"/>
<path d="M158.281 98.108L159.218 95.2646C159.218 95.2646 164.907 95.947 166.528 92.8335L168.466 94.7632C168.466 94.7632 166.996 99.9647 158.281 98.108Z" fill="#F2F8F9"/>
<path d="M197.951 227.099C197.799 227.099 197.649 227.069 197.508 227.01C197.368 226.952 197.24 226.866 197.132 226.758C197.025 226.65 196.94 226.522 196.881 226.381C196.823 226.239 196.793 226.088 196.793 225.935C196.793 225.782 196.823 225.631 196.881 225.489C196.939 225.348 197.025 225.219 197.132 225.111C197.24 225.003 197.367 224.917 197.508 224.858C197.648 224.8 197.799 224.77 197.951 224.769H208.354C208.661 224.77 208.955 224.892 209.173 225.111C209.39 225.329 209.512 225.625 209.512 225.933C209.512 226.242 209.39 226.538 209.173 226.756C208.956 226.975 208.661 227.097 208.354 227.097L197.951 227.099ZM187.625 204.731C187.473 204.731 187.323 204.7 187.182 204.641C187.042 204.583 186.914 204.497 186.807 204.388C186.7 204.28 186.615 204.151 186.557 204.01C186.499 203.869 186.47 203.717 186.47 203.564C186.47 203.256 186.592 202.961 186.809 202.743C187.025 202.525 187.319 202.402 187.625 202.401H198.027C198.179 202.401 198.329 202.432 198.47 202.49C198.61 202.549 198.738 202.634 198.846 202.742C198.953 202.85 199.039 202.979 199.097 203.12C199.155 203.261 199.185 203.412 199.185 203.565C199.185 203.874 199.063 204.17 198.846 204.388C198.628 204.607 198.334 204.729 198.027 204.729L187.625 204.731ZM178.855 182.268C178.547 182.268 178.253 182.145 178.036 181.926C177.819 181.708 177.697 181.411 177.697 181.102C177.698 180.793 177.82 180.497 178.038 180.279C178.255 180.061 178.55 179.938 178.858 179.939H189.26C189.567 179.939 189.862 180.061 190.079 180.28C190.296 180.498 190.418 180.794 190.418 181.103C190.418 181.411 190.296 181.707 190.079 181.926C189.862 182.144 189.567 182.267 189.26 182.267L178.855 182.268Z" fill="#5C7594"/>
<path d="M150.806 233.766C150.653 233.655 150.524 233.514 150.428 233.351C150.332 233.188 150.271 233.006 150.249 232.818C150.238 232.723 150.249 232.628 150.249 232.534L157.511 153.639C157.659 152.472 157.985 151.334 158.48 150.267C159.35 148.218 160.915 146.545 162.896 145.545L151.153 119.244C151.076 119.072 151.036 118.885 151.035 118.696C151.039 118.412 151.129 118.136 151.294 117.906C151.46 117.676 151.692 117.503 151.958 117.41C152.1 117.358 152.251 117.337 152.402 117.348H152.513L152.786 117.407C152.874 117.441 152.959 117.479 153.043 117.521C153.206 117.615 153.348 117.742 153.459 117.895C153.51 117.974 153.557 118.055 153.599 118.139L175.125 166.349H177.098C177.25 166.35 177.401 166.382 177.541 166.442C177.681 166.503 177.807 166.592 177.912 166.704C178.129 166.934 178.25 167.239 178.249 167.557C178.25 167.874 178.129 168.179 177.912 168.41C177.807 168.521 177.681 168.61 177.541 168.671C177.401 168.732 177.25 168.764 177.098 168.764H176.206L204.476 232.083C204.51 232.171 204.539 232.26 204.564 232.351C204.628 232.653 204.588 232.968 204.449 233.243C204.31 233.519 204.082 233.738 203.802 233.864C203.521 233.991 203.206 234.017 202.909 233.938C202.612 233.859 202.351 233.68 202.17 233.431C202.119 233.353 202.072 233.271 202.029 233.188L173.266 168.764H158.812L152.914 232.79L152.858 233.066C152.826 233.154 152.789 233.241 152.748 233.325C152.624 233.533 152.449 233.705 152.238 233.823C152.028 233.941 151.791 234.002 151.55 234C151.284 234.001 151.024 233.919 150.806 233.766ZM160.231 153.618C160.209 153.739 160.184 153.917 160.184 153.917L159.035 166.349H172.185L163.994 148.004C161.901 149.012 160.64 151.363 160.228 153.618H160.231Z" fill="#C2D5DA"/>
<path d="M53.5764 220.909C53.5764 220.909 54.5222 226.142 57.2438 228.419L54.1205 229.192C54.1205 229.192 51.4187 227.125 50.6426 222.164L53.5764 220.909Z" fill="#FFC7C0"/>
<path d="M7.43024 220.499C7.43024 220.499 4.98777 225.193 5.85725 228.635L2.61226 228.574C2.18983 225.376 2.74501 222.125 4.20411 219.252L7.43024 220.499Z" fill="#FFC7C0"/>
<path d="M0.0335773 229.588C-0.0576735 228.903 0.0627308 228.206 0.378489 227.592C0.694248 226.978 1.19011 226.476 1.79894 226.155C1.79894 226.155 2.98623 228.571 6.05487 226.26C8.75902 228.553 12.1233 229.915 15.654 230.145C15.654 230.145 16.9743 231.364 15.654 232.23L0.00528622 232.195L0.0335773 229.588Z" fill="#6D8388"/>
<path d="M25.7183 100.37C26.8856 96.6056 27.2802 92.6418 26.8782 88.7192C26.0609 87.3608 25.4434 85.8907 25.0449 84.3546L32.2686 81.2041C33.3795 86.1516 38.5304 91.2043 38.5304 91.2043C38.2399 92.2572 37.5529 93.1551 36.615 93.7077C35.677 94.2602 34.5619 94.424 33.5059 94.1642C33.2841 94.1215 33.0661 94.0606 32.8542 93.9823C32.722 96.8835 32.9757 99.7895 33.6086 102.623C32.4589 103.201 31.1993 103.524 29.9148 103.571C28.9547 103.608 28.0116 103.31 27.2463 102.726C26.481 102.142 25.9409 101.31 25.7183 100.37Z" fill="#FFC7C0"/>
<path d="M66.1552 130.171L68.5891 129.245C68.5891 129.245 68.4948 131.684 69.635 133.013L67.1831 133.938C66.7246 133.439 66.392 132.836 66.2131 132.18C66.0343 131.525 66.0144 130.836 66.1552 130.171Z" fill="#C2D5DA"/>
<path d="M35.0463 99.2738C32.6586 98.7395 30.4542 97.5793 28.6573 95.911C28.1933 97.4455 26.7599 96.6124 26.7599 96.6124C17.7888 93.1653 20.2944 83.3831 21.1837 83.0087C16.9231 81.478 18.4215 78.5266 18.4215 78.5266C21.46 76.2756 23.7025 80.7188 23.7025 80.7188C25.1771 79.9614 26.808 79.5628 28.464 79.5552C30.1199 79.5477 31.7544 79.9313 33.2357 80.6752C32.7642 84.0371 28.86 84.7953 26.5703 84.9479C27.2691 87.2738 29.1995 92.0658 33.313 92.4431C33.313 92.4431 37.2738 92.7985 36.9909 89.4784L42.6633 94.496C42.6633 94.496 41.1035 99.4245 36.4948 99.4245C36.0082 99.4231 35.5229 99.3726 35.0463 99.2738Z" fill="#482E1C"/>
<path d="M68.3528 129.632C68.3528 129.632 71.1291 125.623 71.9675 125.828C71.9675 125.828 72.5474 126.663 70.6218 129.382C71.9145 129.081 73.1343 128.523 74.209 127.741C75.2837 126.959 76.1915 125.968 76.8788 124.827C77.4126 126.033 77.4616 127.4 77.0155 128.641C75.6613 131.629 72.4918 132.759 69.1817 133.11C68.7744 132.641 68.4862 132.079 68.3419 131.473C68.1975 130.868 68.2013 130.236 68.3528 129.632Z" fill="#FFC7C0"/>
<path d="M33.1808 143.139C39.8169 168.078 25.7025 184.535 25.7025 184.535C17.7536 201.412 8.09694 223.806 8.09694 223.806C5.51302 225.533 2.91024 224.969 0.275391 221.967L14.1116 182.601C14.1116 182.601 19.7038 170.811 17.9281 161.3C16.0562 151.267 18.4902 144.088 20.4224 140.841L33.1808 143.139Z" fill="#405C80"/>
<path d="M26.12 140.598C26.12 140.598 15.5703 152.713 30.8352 161.237C30.8352 161.237 36.4934 178.728 37.8392 187.701C37.8392 187.701 36.2454 206.501 50.4702 226.116C50.4702 226.116 55.4391 227.746 57.245 223.581C51.7084 208.509 50.4174 195.249 50.0194 182.374L42.4959 137.803C42.4959 137.803 36.4746 141.587 26.12 140.598Z" fill="#5C7594"/>
<path d="M21.8034 104.12C28.6065 111.607 14.8626 130.447 14.8626 130.447L26.3677 130.36C26.4532 132.033 26.8452 133.677 27.5239 135.208C27.5239 135.208 16.7732 141.944 7.28344 140.31C-2.04414 138.703 7.51166 111.074 21.8034 104.12Z" fill="#C2D5DA"/>
<path d="M50.9872 230.415C50.8884 229.816 50.9265 229.202 51.0985 228.62C51.2706 228.038 51.5721 227.503 51.9802 227.055C51.9802 227.055 55.4695 229.7 57.6865 226.708C59.9737 229.251 63.1672 230.783 66.5728 230.973C66.5728 230.973 67.893 232.192 66.5728 233.058L50.9589 233.025L50.9872 230.415Z" fill="#6D8388"/>
<path d="M33.6951 101.948C33.6951 101.948 28.1443 105.023 25.6378 100.255C11.7336 110.786 11.6949 130.756 19.7777 140.82C19.7777 140.82 31.4827 146.457 42.6624 138.595C38.2348 126.698 35.6868 114.384 33.6951 101.948Z" fill="#DDEBEF"/>
<path d="M34.2505 104.672C41.379 111.79 52.917 130.238 52.917 130.238L66.8202 129.517C66.7467 131.016 67.1536 132.499 67.9811 133.749C67.9811 133.749 59.2552 139.146 49.6296 137.892C30.3945 135.381 29.7023 109.292 34.2505 104.672Z" fill="#F2F8F9"/>
<path d="M267.129 195.763C267.129 209.54 265.975 220.708 264.551 220.708C263.127 220.708 261.973 209.54 261.973 195.763C261.973 181.986 263.127 170.817 264.551 170.817C265.975 170.817 267.129 181.986 267.129 195.763Z" fill="#A8CC43"/>
<path d="M276.061 203.9C272.772 216.715 268.973 226.812 267.576 226.452C266.178 226.092 267.71 215.412 270.999 202.593C274.288 189.774 278.087 179.685 279.485 180.045C280.882 180.405 279.35 191.085 276.06 203.9" fill="#D9F58A"/>
<path d="M260.83 198.096C263.942 210.898 265.318 221.551 263.907 221.892C262.497 222.233 258.832 212.131 255.721 199.329C252.61 186.527 251.233 175.874 252.644 175.533C254.055 175.193 257.72 185.296 260.83 198.097" fill="#D9F58A"/>
<path d="M273.042 233.999H260.55C260.187 234 259.828 233.929 259.492 233.79C259.157 233.651 258.852 233.447 258.595 233.19C258.337 232.932 258.133 232.627 257.994 232.29C257.854 231.953 257.782 231.592 257.781 231.228V214.882H275.81V231.228C275.81 231.592 275.737 231.953 275.598 232.29C275.458 232.627 275.254 232.932 274.997 233.19C274.74 233.447 274.435 233.651 274.099 233.79C273.764 233.929 273.404 234 273.041 233.999" fill="#7C99BE"/>
</g>
<defs>
<clipPath id="clip0_317_12463">
<rect width="280" height="234" fill="white"/>
</clipPath>
</defs>
</svg>
