<svg width="138" height="144" viewBox="0 0 138 144" fill="none" xmlns="http://www.w3.org/2000/svg">
<path d="M32.1124 89.5298C32.115 89.5249 32.1165 89.5195 32.1167 89.5139C32.117 89.5084 32.116 89.5029 32.1139 89.4978C32.1118 89.4926 32.1086 89.4881 32.1045 89.4843C32.1004 89.4806 32.0956 89.4777 32.0903 89.4761C32.0853 89.474 32.08 89.4729 32.0746 89.4729C32.0692 89.4729 32.0638 89.4739 32.0589 89.476C32.0539 89.4781 32.0493 89.4811 32.0455 89.4849C32.0417 89.4887 32.0386 89.4932 32.0366 89.4982C30.8344 92.3735 29.8826 95.3471 29.1919 98.3861C28.4989 101.426 27.9777 104.502 27.6305 107.6L27.4061 109.929C27.3745 110.315 27.3303 110.703 27.3018 111.092L27.2386 112.262C27.207 113.042 27.1596 113.82 27.1375 114.601L27.1564 116.94L27.1817 118.109C27.2007 118.501 27.2291 118.89 27.2544 119.278C27.3145 120.056 27.3619 120.834 27.4314 121.611C27.5831 123.163 27.8138 124.705 28.0635 126.242C28.0656 126.251 28.0708 126.26 28.0782 126.266C28.0856 126.272 28.0949 126.276 28.1046 126.276C28.1155 126.276 28.126 126.272 28.1337 126.264C28.1414 126.257 28.1457 126.246 28.1457 126.235C28.1457 125.455 28.1078 124.68 28.092 123.903C28.0762 123.125 28.0003 122.357 28.013 121.579C28.0256 120.802 28.013 120.031 27.9877 119.256L27.9656 118.096L27.9877 116.936V114.616L28.0509 112.3L28.073 111.14C28.073 110.754 28.1173 110.368 28.1394 109.983L28.2816 107.666C28.5466 104.58 28.9846 101.511 29.5933 98.4746C30.1739 95.426 31.0168 92.4333 32.1124 89.5298Z" fill="#ABABAB"/>
<path d="M32.4431 101.657C32.4461 101.647 32.4452 101.637 32.4405 101.627C32.4358 101.618 32.4277 101.611 32.4178 101.607C32.4128 101.605 32.4075 101.604 32.4022 101.604C32.3968 101.605 32.3916 101.606 32.3868 101.608C32.3821 101.611 32.3778 101.614 32.3745 101.618C32.3711 101.622 32.3686 101.627 32.3672 101.632C31.7085 103.565 31.1567 105.533 30.7141 107.527C30.2773 109.526 29.9523 111.548 29.7406 113.583C29.5352 115.612 29.3076 117.641 29.2792 119.683C29.2287 121.725 29.3015 123.769 29.4973 125.802C29.4984 125.811 29.5023 125.82 29.5086 125.827C29.5148 125.834 29.523 125.838 29.532 125.84C29.5433 125.841 29.5545 125.838 29.5633 125.831C29.5721 125.824 29.5779 125.813 29.5794 125.802C29.8133 123.77 29.9587 121.744 30.0978 119.718C30.2369 117.692 30.2622 115.663 30.3949 113.637C30.5227 111.614 30.7643 109.601 31.1187 107.606C31.4495 105.6 31.8916 103.614 32.4431 101.657Z" fill="#ABABAB"/>
<path d="M39.1664 105.925C39.1587 105.917 39.1485 105.913 39.1379 105.913C39.1273 105.913 39.1171 105.917 39.1095 105.925C37.4283 107.005 35.9141 108.325 34.6149 109.844C33.962 110.608 33.3742 111.425 32.8576 112.287L32.4973 112.97L32.2128 113.678C32.1179 113.912 32.0356 114.152 31.9663 114.395C31.8936 114.635 31.8145 114.876 31.7482 115.119C31.232 117.059 30.9206 119.047 30.8189 121.052C30.7186 123.045 30.7927 125.042 31.0402 127.022C31.0416 127.032 31.0461 127.04 31.053 127.046C31.0599 127.053 31.0688 127.056 31.0781 127.057C31.0836 127.058 31.0892 127.058 31.0946 127.056C31.0999 127.055 31.1049 127.052 31.1091 127.048C31.1133 127.045 31.1167 127.04 31.119 127.035C31.1213 127.03 31.1224 127.025 31.1223 127.019L31.6344 121.109C31.8398 119.152 31.9663 117.186 32.3835 115.277C32.4372 115.04 32.5067 114.809 32.5668 114.572C32.6223 114.337 32.6909 114.105 32.7722 113.877L33.0125 113.191L33.3285 112.559C33.7961 111.701 34.3353 110.883 34.9405 110.116C36.139 108.547 37.5606 107.163 39.1601 106.007C39.1655 106.007 39.1709 106.006 39.176 106.005C39.1812 106.003 39.1859 106 39.19 105.997C39.1941 105.993 39.1975 105.989 39.2 105.984C39.2024 105.979 39.2039 105.974 39.2043 105.969C39.2047 105.963 39.2041 105.958 39.2024 105.953C39.2007 105.948 39.198 105.943 39.1945 105.939C39.191 105.935 39.1867 105.931 39.1819 105.929C39.177 105.926 39.1718 105.925 39.1664 105.925Z" fill="#ABABAB"/>
<path d="M35.9156 113.532C34.999 114.123 34.3858 115.053 33.8706 115.988C33.3788 116.947 32.995 117.957 32.7264 119C32.6442 119.256 32.581 119.519 32.5241 119.781L32.3408 120.568C32.2421 121.09 32.1756 121.618 32.1417 122.148C32.1417 122.686 32.1195 123.22 32.1417 123.754C32.1829 124.284 32.2536 124.812 32.3534 125.334C32.3549 125.343 32.3587 125.35 32.3642 125.356C32.3698 125.363 32.377 125.367 32.385 125.369C32.3907 125.371 32.3965 125.371 32.4022 125.37C32.4079 125.369 32.4133 125.366 32.4181 125.363C32.4229 125.36 32.4269 125.356 32.4299 125.351C32.433 125.346 32.4349 125.34 32.4356 125.334C32.5595 124.813 32.6544 124.286 32.7201 123.754C32.8023 123.233 32.8813 122.717 32.9445 122.199C33.0077 121.681 33.0899 121.169 33.1278 120.65C33.1657 120.132 33.2384 119.614 33.3522 119.108C33.5323 118.084 33.826 117.083 34.2277 116.124C34.5906 115.147 35.1786 114.269 35.944 113.561C35.9499 113.553 35.9531 113.544 35.9531 113.534C35.9531 113.524 35.9499 113.515 35.944 113.507C35.9376 113.509 35.9316 113.512 35.9267 113.516C35.9217 113.521 35.9179 113.526 35.9156 113.532Z" fill="#ABABAB"/>
<path d="M26.4855 119.443C26.2642 116.816 25.8312 114.218 25.4203 111.623C25.0094 109.028 24.5574 106.433 24.0833 103.851C23.6092 101.269 23.0877 98.6771 22.5219 96.1232C22.519 96.1132 22.5127 96.1045 22.504 96.0987C22.4953 96.093 22.4849 96.0904 22.4745 96.0916C22.4691 96.0924 22.4639 96.0942 22.4592 96.097C22.4545 96.0998 22.4504 96.1035 22.4472 96.108C22.4439 96.1124 22.4416 96.1174 22.4403 96.1227C22.4391 96.1281 22.4389 96.1336 22.4398 96.139C22.8886 98.7276 23.2963 101.323 23.6788 103.918C24.0612 106.512 24.4437 109.111 24.7724 111.715C25.1011 114.319 25.3445 116.93 25.67 119.528L26.6182 127.342C26.619 127.351 26.6234 127.36 26.6304 127.366C26.6374 127.373 26.6466 127.376 26.6562 127.376C26.6616 127.377 26.667 127.376 26.6721 127.374C26.6773 127.373 26.6821 127.37 26.6862 127.367C26.6903 127.363 26.6937 127.359 26.6961 127.354C26.6986 127.349 26.7 127.344 26.7004 127.338C26.7289 126.681 26.7289 126.02 26.7447 125.363C26.7605 124.706 26.7194 124.045 26.7067 123.388C26.6973 122.066 26.5835 120.755 26.4855 119.443Z" fill="#ABABAB"/>
<path d="M24.9126 119.405C24.7703 118.365 24.5965 117.331 24.3816 116.301L24.0149 114.768C23.8916 114.256 23.7779 113.744 23.6293 113.241C23.1052 111.206 22.4344 109.212 21.6222 107.274L21.3062 106.55L20.9553 105.845C20.7341 105.368 20.4654 104.916 20.2094 104.455C19.6928 103.537 19.055 102.693 18.313 101.945C18.3095 101.941 18.3053 101.939 18.3007 101.937C18.296 101.935 18.2911 101.934 18.2861 101.934C18.2811 101.934 18.2762 101.935 18.2716 101.937C18.267 101.939 18.2628 101.941 18.2592 101.945C18.2519 101.953 18.2478 101.963 18.2478 101.973C18.2478 101.984 18.2519 101.994 18.2592 102.002C18.9492 102.776 19.5318 103.639 19.9913 104.568C20.2189 105.036 20.4591 105.494 20.6551 105.978L20.9711 106.692L21.243 107.419C21.9702 109.364 22.5544 111.36 22.9908 113.39C23.2311 114.401 23.3891 115.429 23.5851 116.446L23.8316 117.986C23.9201 118.498 24.0307 119.007 24.1003 119.522C24.2646 120.546 24.4543 121.57 24.6344 122.597C24.8146 123.624 24.9821 124.655 25.197 125.682C25.1991 125.691 25.2042 125.7 25.2117 125.706C25.2191 125.713 25.2284 125.716 25.2381 125.717C25.249 125.717 25.2595 125.712 25.2672 125.705C25.2749 125.697 25.2792 125.687 25.2792 125.676C25.2792 124.626 25.2602 123.577 25.2065 122.531C25.1528 121.485 25.02 120.448 24.9126 119.405Z" fill="#ABABAB"/>
<path d="M22.7401 119.538C22.2534 118.16 21.6908 116.813 21.0776 115.492C20.4563 114.173 19.7555 112.892 18.9789 111.658C18.9712 111.652 18.9617 111.649 18.952 111.649C18.9423 111.649 18.9329 111.652 18.9251 111.658C18.9185 111.666 18.9148 111.676 18.9148 111.686C18.9148 111.697 18.9185 111.707 18.9251 111.715C19.5991 112.995 20.1955 114.314 20.711 115.666C21.242 117.009 21.7224 118.371 22.127 119.756C22.5315 121.14 22.8286 122.547 23.1984 123.934C23.5682 125.322 23.897 126.725 24.3237 128.129C24.3263 128.137 24.3317 128.145 24.3391 128.151C24.3465 128.157 24.3554 128.16 24.3647 128.16C24.3756 128.16 24.3861 128.156 24.3938 128.148C24.4015 128.14 24.4058 128.13 24.4058 128.119C24.4222 126.654 24.2855 125.191 23.9981 123.754C23.6923 122.317 23.2717 120.907 22.7401 119.538Z" fill="#ABABAB"/>
<path d="M22.6496 124.124C22.3852 123.267 22.0011 122.452 21.5086 121.703C21.0433 120.935 20.4779 120.232 19.8271 119.614C19.494 119.314 19.1355 119.045 18.7556 118.808C18.3769 118.567 17.9632 118.387 17.5293 118.273C17.52 118.27 17.51 118.271 17.5011 118.275C17.4923 118.279 17.4854 118.287 17.4819 118.296C17.4793 118.3 17.4778 118.306 17.4776 118.311C17.4773 118.317 17.4783 118.322 17.4804 118.328C17.4825 118.333 17.4857 118.337 17.4898 118.341C17.4939 118.345 17.4987 118.348 17.504 118.349C18.2786 118.722 18.965 119.255 19.5174 119.914C20.0774 120.555 20.5493 121.269 20.9207 122.035C21.319 122.79 21.5244 123.615 21.8689 124.399C22.0238 124.797 22.185 125.199 22.3525 125.597C22.5011 126.012 22.6775 126.416 22.8804 126.807C22.8834 126.814 22.8883 126.82 22.8945 126.824C22.9007 126.828 22.9078 126.83 22.9151 126.83C22.9206 126.83 22.9262 126.83 22.9316 126.829C22.937 126.827 22.9419 126.825 22.9461 126.821C22.9504 126.817 22.9537 126.813 22.956 126.808C22.9583 126.803 22.9595 126.797 22.9594 126.792C22.9742 126.343 22.9573 125.894 22.9088 125.448C22.8488 124.999 22.7539 124.56 22.6496 124.124Z" fill="#ABABAB"/>
<path d="M22.8111 99.8812C22.8111 99.8812 18.5125 98.8887 17.52 94.2551C16.5276 89.6215 19.7325 91.6096 16.8563 84.3305C13.98 77.0513 14.6438 75.3983 15.6457 73.3027C16.6477 71.2072 17.1882 71.8709 18.07 74.6271C18.9518 77.3832 22.1505 81.6849 23.3642 89.7353C24.5779 97.7856 22.8111 99.8812 22.8111 99.8812Z" fill="#DBDBDB"/>
<path d="M31.3059 92.0395C31.3059 92.0395 28.4391 91.0471 28.3285 85.6422C28.2179 80.2374 30.424 81.3405 30.7559 74.6145C31.0878 67.8885 31.5271 63.1442 32.7408 63.0336C33.9546 62.923 37.15 66.3429 38.2531 73.8433C39.3562 81.3436 36.8213 86.3028 34.6152 88.509C32.409 90.7152 31.3059 92.0395 31.3059 92.0395Z" fill="#DBDBDB"/>
<path d="M21.2675 106.386C21.2675 106.386 20.607 102.416 19.2953 100.542C17.9836 98.6676 15.0915 97.0146 13.2172 93.3734C11.3429 89.7323 9.24733 87.9717 9.35796 93.1522C9.46858 98.3326 11.7822 100.984 14.6522 102.748C17.5221 104.512 21.2675 106.386 21.2675 106.386Z" fill="#DBDBDB"/>
<path d="M20.0542 113.216C20.0542 113.216 17.3992 108.159 13.5494 104.401C9.69968 100.643 6.59586 98.778 7.70527 100.652C8.81468 102.527 10.1295 102.416 12.0038 105.725C13.8782 109.035 13.3282 111.459 15.9737 113.333C18.6192 115.207 20.0542 113.216 20.0542 113.216Z" fill="#DBDBDB"/>
<path d="M19.725 119.73C19.6144 119.399 19.5037 116.974 15.7551 114.989C12.0065 113.004 8.48548 113.776 8.91534 114.768C9.3452 115.761 11.6746 117.414 13.9725 118.406C16.2703 119.399 19.725 119.73 19.725 119.73Z" fill="#DBDBDB"/>
<path d="M31.0817 106.607C31.0817 106.607 29.4287 104.512 30.3105 100.103C31.1923 95.6934 33.1773 96.7933 35.3834 94.4765C37.5896 92.1597 37.1471 91.831 39.3533 89.4194C41.5595 87.0077 43.5444 85.6707 44.4105 86.6632C45.2765 87.6557 43.968 90.7437 42.6468 92.5074C41.3256 94.2711 39.2269 95.1561 38.2218 97.3591C37.2167 99.5621 37.6718 103.096 35.1338 104.749C32.5957 106.402 31.0817 106.607 31.0817 106.607Z" fill="#DBDBDB"/>
<path d="M36.5977 107.821C36.5977 107.821 40.5675 103.298 43.4343 99.9918C46.3011 96.6857 47.4042 94.1476 47.5148 96.3506C47.6254 98.5537 48.5072 100.32 46.1904 103.19C43.8736 106.06 36.5977 107.821 36.5977 107.821Z" fill="#DBDBDB"/>
<path d="M34.5021 115.113C34.5021 115.113 34.3915 113.346 40.6781 109.265C46.9648 105.185 49.6103 104.414 48.9466 106.07C48.2828 107.726 45.5298 109.363 42.5524 112.341C39.575 115.318 34.5021 115.113 34.5021 115.113Z" fill="#DBDBDB"/>
<path d="M23.0883 99.4103C23.0883 99.4103 21.6154 91.5085 20.0698 85.8761C18.5242 80.2437 17.5413 76.8333 17.5413 76.8333" stroke="#ABABAB" stroke-width="0.561773" stroke-linecap="round" stroke-linejoin="round"/>
<path d="M31.05 92.1344C31.05 92.1344 33.7303 83.5593 34.6122 78.3757C35.494 73.1922 34.5016 69.3329 34.0591 67.0193" stroke="#ABABAB" stroke-width="0.561773" stroke-linecap="round" stroke-linejoin="round"/>
<path d="M20.9202 106.222C19.7327 104.179 18.3729 102.242 16.8555 100.431C14.4313 97.5644 12.5569 96.022 11.4539 93.2627" stroke="#ABABAB" stroke-width="0.561773" stroke-linecap="round" stroke-linejoin="round"/>
<path d="M31.083 106.607C31.083 106.607 31.9649 101.313 34.0604 98.5567C36.156 95.8006 40.3471 91.4988 42.0001 88.7427" stroke="#ABABAB" stroke-width="0.561773" stroke-linecap="round" stroke-linejoin="round"/>
<path d="M19.4656 119.61C19.4656 119.61 15.7549 117.196 13.1062 115.871" stroke="#ABABAB" stroke-width="0.561773" stroke-linecap="round" stroke-linejoin="round"/>
<path d="M30.2571 143H25.4022C24.982 143 24.5711 142.876 24.2213 142.643C23.8715 142.41 23.5983 142.079 23.4362 141.691C21.8559 137.898 17.6142 126.921 20.1649 123.811C22.5955 120.846 33.0638 120.846 35.4944 123.811C38.0451 126.921 33.8097 137.892 32.223 141.691C32.0609 142.079 31.7878 142.41 31.438 142.643C31.0881 142.876 30.6773 143 30.2571 143Z" fill="#B2B2B2"/>
<path d="M93.4443 9.54489V107.995C93.4456 108.639 93.3199 109.276 93.0744 109.871C92.8289 110.467 92.4684 111.007 92.0137 111.463C91.5589 111.919 91.0188 112.28 90.4242 112.527C89.8295 112.773 89.1921 112.9 88.5484 112.9H46.0082C45.3639 112.902 44.7256 112.776 44.13 112.529C43.5345 112.283 42.9934 111.922 42.5379 111.466C42.0824 111.01 41.7214 110.469 41.4757 109.873C41.2299 109.278 41.1043 108.639 41.106 107.995V9.54489C41.1051 8.90144 41.2313 8.26416 41.4773 7.66957C41.7232 7.07499 42.0841 6.53479 42.5392 6.07995C42.9944 5.62511 43.5348 5.26458 44.1295 5.01901C44.7243 4.77345 45.3616 4.64769 46.0051 4.64893H64.2646V4.70267C64.7197 6.34308 65.7691 7.40824 66.929 7.40824H67.596C68.7591 7.40824 69.8085 6.34308 70.2605 4.70267L70.2794 4.64893H88.5484C89.1913 4.64893 89.828 4.77557 90.422 5.02162C91.016 5.26766 91.5557 5.6283 92.0103 6.08293C92.465 6.53756 92.8256 7.07729 93.0716 7.67129C93.3177 8.26529 93.4443 8.90194 93.4443 9.54489Z" fill="white" stroke="#263238" stroke-width="0.561773" stroke-linecap="round" stroke-linejoin="round"/>
<path d="M93.4411 14.1216V9.54489C93.4416 8.90209 93.3153 8.26551 93.0696 7.67153C92.8239 7.07754 92.4636 6.53779 92.0092 6.08312C91.5548 5.62845 91.0153 5.26776 90.4215 5.02168C89.8277 4.7756 89.1912 4.64893 88.5484 4.64893H70.2952L70.2762 4.70267C69.8211 6.34308 68.7749 7.40824 67.6118 7.40824H66.9448C65.7849 7.40824 64.7323 6.34308 64.2804 4.70267V4.64893H46.0051C45.3616 4.64769 44.7243 4.77345 44.1295 5.01901C43.5348 5.26458 42.9943 5.62511 42.5392 6.07995C42.0841 6.53479 41.7232 7.07499 41.4773 7.66957C41.2313 8.26416 41.1051 8.90144 41.106 9.54489V14.1279L93.4411 14.1216Z" fill="#DBDBDB" stroke="#263238" stroke-width="0.561773" stroke-linecap="round" stroke-linejoin="round"/>
<path d="M41.106 107.227V107.995C41.1043 108.639 41.2299 109.278 41.4757 109.873C41.7214 110.469 42.0824 111.01 42.5379 111.466C42.9934 111.922 43.5345 112.283 44.13 112.529C44.7256 112.776 45.3639 112.902 46.0082 112.9H88.5484C89.846 112.9 91.0905 112.385 92.0081 111.467C92.9257 110.55 93.4412 109.305 93.4412 108.008V107.239L41.106 107.227Z" fill="#DBDBDB" stroke="#263238" stroke-width="0.561773" stroke-linecap="round" stroke-linejoin="round"/>
<path d="M96.7698 33.0574V23.2213H95.8816V10.6321C95.8816 8.57416 95.0641 6.60048 93.6089 5.14528C92.1537 3.69008 90.18 2.87256 88.1221 2.87256H46.4385C44.3806 2.87256 42.4069 3.69008 40.9517 5.14528C39.4965 6.60048 38.679 8.57416 38.679 10.6321V110.688C38.679 111.707 38.8797 112.716 39.2696 113.657C39.6596 114.599 40.2311 115.454 40.9517 116.175C41.6722 116.895 42.5276 117.467 43.4691 117.857C44.4105 118.247 45.4195 118.447 46.4385 118.447H88.1221C89.1411 118.447 90.1501 118.247 91.0915 117.857C92.033 117.467 92.8884 116.895 93.6089 116.175C94.3295 115.454 94.901 114.599 95.291 113.657C95.6809 112.716 95.8816 111.707 95.8816 110.688V41.4681H96.7698V35.6271H95.8816V33.0574H96.7698ZM93.4447 105.122C93.4468 106.143 93.2472 107.155 92.8575 108.1C92.4677 109.044 91.8954 109.902 91.1733 110.624C90.4513 111.347 89.5937 111.92 88.6498 112.311C87.7058 112.701 86.6941 112.902 85.6725 112.9H48.8754C47.8546 112.902 46.8435 112.701 45.9001 112.311C44.9568 111.921 44.0997 111.349 43.378 110.627C42.6563 109.905 42.0841 109.047 41.6943 108.104C41.3045 107.16 41.1047 106.149 41.1064 105.128V12.4053C41.1072 10.3479 41.9251 8.37501 43.3802 6.92049C44.8353 5.46597 46.8085 4.64888 48.866 4.64888H64.2555V4.70262C64.7106 6.34303 65.76 7.40819 66.92 7.40819H67.5869C68.75 7.40819 69.7994 6.34303 70.2514 4.70262L70.2703 4.64888H85.6725C86.6915 4.64847 87.7006 4.84876 88.6422 5.23834C89.5838 5.62791 90.4395 6.19912 91.1603 6.91937C91.8811 7.63962 92.453 8.4948 92.8434 9.43607C93.2337 10.3773 93.4348 11.3863 93.4353 12.4053L93.4447 105.122Z" fill="#407BFF" stroke="#263238" stroke-width="0.561773" stroke-linecap="round" stroke-linejoin="round"/>
<path d="M87.4993 3.94092H47.061C46.0768 3.94092 45.1022 4.13503 44.1931 4.51216C43.284 4.88928 42.4582 5.442 41.763 6.13869C41.0678 6.83537 40.5168 7.66233 40.1416 8.57223C39.7664 9.48212 39.5744 10.4571 39.5764 11.4413V109.879C39.5764 111.864 40.365 113.768 41.7686 115.171C43.1722 116.575 45.076 117.363 47.061 117.363H87.4993C89.484 117.362 91.3873 116.574 92.7907 115.17C94.1942 113.767 94.983 111.864 94.9838 109.879V11.4413C94.9855 10.4572 94.7932 9.48243 94.4178 8.57272C94.0424 7.66301 93.4915 6.83621 92.7963 6.13961C92.1012 5.44301 91.2756 4.89027 90.3666 4.513C89.4577 4.13573 88.4834 3.94133 87.4993 3.94092ZM93.4446 105.4C93.4462 106.384 93.2538 107.359 92.8782 108.269C92.5027 109.179 91.9514 110.006 91.2559 110.703C90.5605 111.399 89.7345 111.952 88.8252 112.329C87.9159 112.706 86.9412 112.9 85.9568 112.9H48.6003C47.6155 112.902 46.6402 112.709 45.7302 112.332C44.8202 111.956 43.9935 111.404 43.2973 110.707C42.6011 110.011 42.0492 109.184 41.6732 108.273C41.2972 107.363 41.1046 106.388 41.1062 105.403V12.1303C41.1062 11.1471 41.3 10.1734 41.6766 9.26513C42.0532 8.35683 42.6051 7.53166 43.3008 6.83682C43.9965 6.14198 44.8224 5.5911 45.7312 5.21568C46.64 4.84027 47.6139 4.64767 48.5971 4.64892H64.2648V4.70265C64.72 6.34306 65.7693 7.40823 66.9293 7.40823H67.5962C68.7594 7.40823 69.8087 6.34306 70.2607 4.70265L70.2797 4.64892H85.9568C87.9421 4.64892 89.8462 5.43737 91.2503 6.84091C92.6545 8.24445 93.4437 10.1482 93.4446 12.1335V105.4Z" fill="#263238" stroke="#263238" stroke-width="0.561773" stroke-linecap="round" stroke-linejoin="round"/>
<path d="M67.8482 5.01871C67.8476 4.87444 67.8042 4.73359 67.7236 4.61394C67.643 4.49429 67.5288 4.4012 67.3953 4.34642C67.2618 4.29165 67.1151 4.27764 66.9737 4.30617C66.8323 4.33469 66.7025 4.40448 66.6007 4.50671C66.4989 4.60895 66.4297 4.73905 66.4017 4.88059C66.3738 5.02214 66.3885 5.16878 66.4438 5.30201C66.4992 5.43524 66.5928 5.54908 66.7128 5.62917C66.8328 5.70926 66.9738 5.752 67.1181 5.752C67.2143 5.75242 67.3097 5.73372 67.3987 5.69698C67.4877 5.66024 67.5685 5.60619 67.6364 5.53797C67.7043 5.46975 67.758 5.38872 67.7944 5.29959C67.8307 5.21045 67.849 5.11498 67.8482 5.01871Z" fill="white"/>
<path d="M45.7674 7.80947C45.7674 8.54908 44.9393 8.81458 44.9361 9.38983V9.43092H45.739V9.67745H44.6675V9.46885C44.6675 8.67867 45.4924 8.52063 45.4924 7.83791C45.4924 7.58506 45.4102 7.45231 45.208 7.45231C45.0057 7.45231 44.9203 7.59454 44.9203 7.81263V8.02756H44.6675V7.82843C44.6675 7.45547 44.8382 7.19629 45.2143 7.19629C45.5904 7.19629 45.7674 7.4365 45.7674 7.80947Z" fill="#263238"/>
<path d="M47.1124 7.80654V7.86975C47.1244 7.97445 47.1018 8.08021 47.0482 8.17092C46.9946 8.26164 46.9128 8.33235 46.8152 8.37231C46.9133 8.41342 46.9953 8.48529 47.0489 8.57708C47.1025 8.66888 47.1247 8.77561 47.1124 8.88118V9.06767C47.1124 9.44063 46.9385 9.69981 46.5592 9.69981C46.1799 9.69981 46.0124 9.45327 46.0124 9.06767V8.91279H46.2684V9.09927C46.2684 9.31736 46.3569 9.45011 46.5529 9.45011C46.7489 9.45011 46.8405 9.32052 46.8405 9.07399V8.88434C46.8405 8.64413 46.7394 8.53034 46.5245 8.52086H46.3791V8.28065H46.5403C46.5826 8.28106 46.6245 8.27234 46.6631 8.25506C46.7018 8.23779 46.7362 8.21238 46.7641 8.18057C46.792 8.14876 46.8127 8.1113 46.8248 8.07075C46.8369 8.0302 46.8401 7.98751 46.8342 7.94561V7.83498C46.8342 7.58213 46.7457 7.45254 46.5466 7.45254C46.3475 7.45254 46.2621 7.58845 46.2621 7.8097V7.93613H46.0061V7.80654C46.0061 7.43357 46.1799 7.19336 46.5529 7.19336C46.9259 7.19336 47.1124 7.43357 47.1124 7.80654Z" fill="#263238"/>
<path d="M47.6334 7.99292V8.33112H47.3711V7.99292H47.6334ZM47.6334 9.32358V9.66178H47.3711V9.32358H47.6334Z" fill="#263238"/>
<path d="M48.1866 8.21091C48.2221 8.14647 48.275 8.09333 48.3393 8.05756C48.4035 8.02179 48.4766 8.00483 48.55 8.00862C48.8661 8.00862 49.002 8.23935 49.002 8.59019V9.06746C49.002 9.44043 48.825 9.69961 48.4521 9.69961C48.0791 9.69961 47.9021 9.45307 47.9021 9.06746V8.91259H48.1581V9.09591C48.1581 9.314 48.2498 9.44675 48.4426 9.44675C48.6354 9.44675 48.7302 9.314 48.7302 9.09591V8.59651C48.7302 8.37842 48.6385 8.24567 48.4426 8.24567C48.4071 8.24396 48.3716 8.24948 48.3383 8.26189C48.305 8.27431 48.2746 8.29336 48.2488 8.31789C48.2231 8.34243 48.2027 8.37193 48.1887 8.40461C48.1747 8.43729 48.1676 8.47247 48.1676 8.50801V8.56175H47.9116L47.978 7.20264H48.9262V7.44917H48.2087L48.1866 8.21091Z" fill="#263238"/>
<path d="M50.3599 7.80337V7.84762H50.107V7.78756C50.107 7.56631 50.0154 7.43672 49.8162 7.43672C49.6171 7.43672 49.5191 7.56947 49.5191 7.83181V8.37862C49.5478 8.29832 49.6019 8.22957 49.6732 8.18279C49.7445 8.13602 49.8291 8.11378 49.9142 8.11944C50.2303 8.11944 50.3662 8.34385 50.3662 8.69785V9.06765C50.3662 9.44062 50.1829 9.6998 49.8099 9.6998C49.437 9.6998 49.2473 9.45326 49.2473 9.06765V7.82233C49.2473 7.43356 49.4212 7.19019 49.8099 7.19019C50.1987 7.19019 50.3599 7.4304 50.3599 7.80337ZM49.5191 8.71997V9.08662C49.5191 9.30471 49.6108 9.43746 49.8099 9.43746C50.009 9.43746 50.0975 9.30471 50.0975 9.08662V8.71997C50.0975 8.49872 50.0027 8.36597 49.8099 8.36597C49.6171 8.36597 49.5191 8.49872 49.5191 8.71997Z" fill="#263238"/>
<path d="M77.0528 7.91064H76.3638V9.6364H77.0528V7.91064Z" fill="#263238"/>
<path d="M77.9722 7.56616H77.2832V9.63643H77.9722V7.56616Z" fill="#263238"/>
<path d="M78.8961 7.31958H78.207V9.63639H78.8961V7.31958Z" fill="#263238"/>
<path d="M79.8157 6.89307H79.1267V9.63657H79.8157V6.89307Z" fill="#263238"/>
<path d="M88.3583 9.58912H84.2178V7.06055H88.3583V9.58912ZM84.4485 9.35839H88.1276V7.28812H84.4485V9.35839Z" fill="#263238"/>
<path d="M86.9819 7.53784H84.7947V9.10872H86.9819V7.53784Z" fill="#263238"/>
<path d="M88.7373 8.02441H88.2158V8.62179H88.7373V8.02441Z" fill="#263238"/>
<path d="M82.6989 9.03901C82.671 9.0392 82.6437 9.03154 82.6199 9.01689C81.776 8.51749 81.2197 8.98212 81.1976 9.01689C81.1822 9.03038 81.1644 9.04071 81.145 9.0473C81.1257 9.05388 81.1052 9.05659 81.0848 9.05527C81.0644 9.05395 81.0445 9.04863 81.0261 9.0396C81.0078 9.03057 80.9914 9.01802 80.9779 9.00266C80.9644 8.98731 80.9541 8.96944 80.9475 8.95009C80.9409 8.93074 80.9382 8.91028 80.9395 8.88988C80.9409 8.86949 80.9462 8.84955 80.9552 8.83121C80.9642 8.81287 80.9768 8.79648 80.9921 8.78299C81.0237 8.75771 81.7349 8.15085 82.7779 8.78299C82.8069 8.8004 82.8294 8.82681 82.842 8.85818C82.8545 8.88956 82.8565 8.92418 82.8475 8.95677C82.8386 8.98936 82.8192 9.01813 82.7924 9.03869C82.7655 9.05924 82.7327 9.07046 82.6989 9.07062V9.03901Z" fill="#263238"/>
<path d="M83.0104 8.51764C82.9829 8.51777 82.9558 8.51126 82.9314 8.49867C81.7113 7.77171 80.8927 8.47339 80.8832 8.47971C80.8542 8.50847 80.815 8.5246 80.7742 8.5246C80.7333 8.5246 80.6941 8.50847 80.6651 8.47971C80.6505 8.46556 80.6389 8.44862 80.6309 8.42988C80.623 8.41115 80.6189 8.39101 80.6189 8.37066C80.6189 8.35031 80.623 8.33017 80.6309 8.31144C80.6389 8.29271 80.6505 8.27576 80.6651 8.26162C80.6651 8.26162 81.6608 7.40506 83.0736 8.24265C83.1089 8.26428 83.1344 8.29892 83.1444 8.33912C83.1545 8.37933 83.1483 8.42187 83.1273 8.45758C83.1134 8.47556 83.0958 8.49025 83.0755 8.50063C83.0553 8.51101 83.0331 8.51682 83.0104 8.51764Z" fill="#263238"/>
<path d="M83.2926 7.91718C83.2647 7.91737 83.2374 7.9097 83.2136 7.89505C81.6712 6.97844 80.6439 7.84132 80.6029 7.87925C80.5875 7.89274 80.5696 7.90307 80.5503 7.90966C80.5309 7.91624 80.5105 7.91895 80.4901 7.91763C80.4697 7.91631 80.4497 7.91099 80.4314 7.90196C80.4131 7.89293 80.3967 7.88038 80.3832 7.86503C80.3697 7.84967 80.3594 7.8318 80.3528 7.81245C80.3462 7.7931 80.3435 7.77264 80.3448 7.75224C80.3461 7.73185 80.3515 7.71191 80.3605 7.69357C80.3695 7.67523 80.3821 7.65885 80.3974 7.64536C80.3974 7.64536 81.6301 6.59284 83.3717 7.62955C83.3894 7.63966 83.4049 7.65323 83.4172 7.66946C83.4296 7.68569 83.4385 7.70425 83.4435 7.72402C83.4485 7.74378 83.4495 7.76436 83.4464 7.78452C83.4433 7.80467 83.4361 7.82399 83.4254 7.84132C83.4117 7.86437 83.3923 7.88348 83.369 7.89677C83.3458 7.91007 83.3194 7.9171 83.2926 7.91718Z" fill="#263238"/>
<path d="M82.2346 9.29821C82.2352 9.37523 82.2129 9.4507 82.1706 9.51505C82.1282 9.5794 82.0677 9.62972 81.9968 9.65963C81.9258 9.68954 81.8475 9.69769 81.7719 9.68305C81.6963 9.6684 81.6267 9.63163 81.572 9.57739C81.5173 9.52314 81.48 9.45388 81.4647 9.37838C81.4495 9.30288 81.457 9.22455 81.4863 9.15333C81.5157 9.08211 81.5655 9.0212 81.6295 8.97834C81.6935 8.93548 81.7688 8.9126 81.8458 8.9126C81.9484 8.91259 82.0468 8.95312 82.1196 9.02535C82.1924 9.09757 82.2337 9.19565 82.2346 9.29821Z" fill="#263238"/>
<path d="M84.5636 68.4639H50.254C49.3236 68.4639 48.5693 69.2181 48.5693 70.1485V82.0802C48.5693 83.0107 49.3236 83.7649 50.254 83.7649H84.5636C85.494 83.7649 86.2483 83.0107 86.2483 82.0802V70.1485C86.2483 69.2181 85.494 68.4639 84.5636 68.4639Z" fill="#263238" stroke="#263238" stroke-width="0.561773" stroke-linecap="round" stroke-linejoin="round"/>
<path d="M47.9768 29.2583H86.8378V59.9362C86.8378 60.6789 86.5428 61.3912 86.0176 61.9164C85.4925 62.4416 84.7802 62.7366 84.0374 62.7366H50.7772C50.0345 62.7366 49.3222 62.4416 48.797 61.9164C48.2718 61.3912 47.9768 60.6789 47.9768 59.9362V29.2583Z" fill="white" stroke="#263238" stroke-width="0.561773" stroke-linecap="round" stroke-linejoin="round"/>
<path d="M86.8378 29.2583H47.9768V32.1409H86.8378V29.2583Z" fill="#407BFF" stroke="#263238" stroke-width="0.561773" stroke-linecap="round" stroke-linejoin="round"/>
<path d="M54.5305 34.4197H50.1624V38.7878H54.5305V34.4197Z" fill="white" stroke="#263238" stroke-width="0.561773" stroke-linecap="round" stroke-linejoin="round"/>
<path d="M62.0617 34.4197H57.6936V38.7878H62.0617V34.4197Z" fill="white" stroke="#263238" stroke-width="0.561773" stroke-linecap="round" stroke-linejoin="round"/>
<path d="M69.593 34.4197H65.2249V38.7878H69.593V34.4197Z" fill="white" stroke="#263238" stroke-width="0.561773" stroke-linecap="round" stroke-linejoin="round"/>
<path d="M77.122 34.4197H72.7539V38.7878H77.122V34.4197Z" fill="white" stroke="#263238" stroke-width="0.561773" stroke-linecap="round" stroke-linejoin="round"/>
<path d="M84.6555 34.4197H80.2874V38.7878H84.6555V34.4197Z" fill="white" stroke="#263238" stroke-width="0.561773" stroke-linecap="round" stroke-linejoin="round"/>
<path d="M54.5305 41.0476H50.1624V45.4157H54.5305V41.0476Z" fill="white" stroke="#263238" stroke-width="0.561773" stroke-linecap="round" stroke-linejoin="round"/>
<path d="M62.0617 41.0476H57.6936V45.4157H62.0617V41.0476Z" fill="#407BFF" stroke="#263238" stroke-width="0.561773" stroke-linecap="round" stroke-linejoin="round"/>
<path d="M69.593 41.0476H65.2249V45.4157H69.593V41.0476Z" fill="white" stroke="#263238" stroke-width="0.561773" stroke-linecap="round" stroke-linejoin="round"/>
<path d="M77.122 41.0476H72.7539V45.4157H77.122V41.0476Z" fill="white" stroke="#263238" stroke-width="0.561773" stroke-linecap="round" stroke-linejoin="round"/>
<path d="M84.6555 41.0476H80.2874V45.4157H84.6555V41.0476Z" fill="#407BFF" stroke="#263238" stroke-width="0.561773" stroke-linecap="round" stroke-linejoin="round"/>
<path d="M54.5305 47.6758H50.1624V52.0439H54.5305V47.6758Z" fill="white" stroke="#263238" stroke-width="0.561773" stroke-linecap="round" stroke-linejoin="round"/>
<path d="M62.0617 47.6758H57.6936V52.0439H62.0617V47.6758Z" fill="white" stroke="#263238" stroke-width="0.561773" stroke-linecap="round" stroke-linejoin="round"/>
<path d="M69.593 47.6758H65.2249V52.0439H69.593V47.6758Z" fill="#407BFF" stroke="#263238" stroke-width="0.561773" stroke-linecap="round" stroke-linejoin="round"/>
<path d="M77.122 47.6758H72.7539V52.0439H77.122V47.6758Z" fill="white" stroke="#263238" stroke-width="0.561773" stroke-linecap="round" stroke-linejoin="round"/>
<path d="M84.6555 47.6758H80.2874V52.0439H84.6555V47.6758Z" fill="white" stroke="#263238" stroke-width="0.561773" stroke-linecap="round" stroke-linejoin="round"/>
<path d="M54.5305 54.3005H50.1624V58.6686H54.5305V54.3005Z" fill="white" stroke="#263238" stroke-width="0.561773" stroke-linecap="round" stroke-linejoin="round"/>
<path d="M62.0617 54.3005H57.6936V58.6686H62.0617V54.3005Z" fill="white" stroke="#263238" stroke-width="0.561773" stroke-linecap="round" stroke-linejoin="round"/>
<path d="M69.593 54.3005H65.2249V58.6686H69.593V54.3005Z" fill="white" stroke="#263238" stroke-width="0.561773" stroke-linecap="round" stroke-linejoin="round"/>
<path d="M77.122 54.3005H72.7539V58.6686H77.122V54.3005Z" fill="white" stroke="#263238" stroke-width="0.561773" stroke-linecap="round" stroke-linejoin="round"/>
<path d="M84.6555 54.3005H80.2874V58.6686H84.6555V54.3005Z" fill="white" stroke="#263238" stroke-width="0.561773" stroke-linecap="round" stroke-linejoin="round"/>
<path d="M47.3447 93.7905H88.1022" stroke="#263238" stroke-width="0.561773" stroke-linecap="round" stroke-linejoin="round"/>
<path d="M47.8801 96.3635H56.6764" stroke="#263238" stroke-width="0.561773" stroke-linecap="round" stroke-linejoin="round"/>
<path d="M47.8801 97.6531H56.6764" stroke="#263238" stroke-width="0.561773" stroke-linecap="round" stroke-linejoin="round"/>
<path d="M47.8801 98.9395H56.6764" stroke="#263238" stroke-width="0.561773" stroke-linecap="round" stroke-linejoin="round"/>
<path d="M47.8801 100.226H56.6764" stroke="#263238" stroke-width="0.561773" stroke-linecap="round" stroke-linejoin="round"/>
<path d="M58.1765 96.3635H66.9728" stroke="#263238" stroke-width="0.561773" stroke-linecap="round" stroke-linejoin="round"/>
<path d="M58.1765 97.6531H66.9728" stroke="#263238" stroke-width="0.561773" stroke-linecap="round" stroke-linejoin="round"/>
<path d="M58.1765 98.9395H66.9728" stroke="#263238" stroke-width="0.561773" stroke-linecap="round" stroke-linejoin="round"/>
<path d="M58.1765 100.226H66.9728" stroke="#263238" stroke-width="0.561773" stroke-linecap="round" stroke-linejoin="round"/>
<path d="M68.4749 96.3635H77.2711" stroke="#263238" stroke-width="0.561773" stroke-linecap="round" stroke-linejoin="round"/>
<path d="M68.4749 97.6531H77.2711" stroke="#263238" stroke-width="0.561773" stroke-linecap="round" stroke-linejoin="round"/>
<path d="M68.4749 98.9395H77.2711" stroke="#263238" stroke-width="0.561773" stroke-linecap="round" stroke-linejoin="round"/>
<path d="M68.4749 100.226H77.2711" stroke="#263238" stroke-width="0.561773" stroke-linecap="round" stroke-linejoin="round"/>
<path d="M78.7732 96.3635H87.5695" stroke="#263238" stroke-width="0.561773" stroke-linecap="round" stroke-linejoin="round"/>
<path d="M78.7732 97.6531H87.5695" stroke="#263238" stroke-width="0.561773" stroke-linecap="round" stroke-linejoin="round"/>
<path d="M78.7732 98.9395H87.5695" stroke="#263238" stroke-width="0.561773" stroke-linecap="round" stroke-linejoin="round"/>
<path d="M78.7732 100.226H87.5695" stroke="#263238" stroke-width="0.561773" stroke-linecap="round" stroke-linejoin="round"/>
<path d="M59.7035 75.0884C59.4516 75.1046 59.2015 75.0368 58.9923 74.8956C58.8232 74.7659 58.7003 74.5853 58.6415 74.3804C58.5732 74.1453 58.5402 73.9014 58.5435 73.6566V72.1268C58.5384 71.8695 58.5714 71.6128 58.6415 71.3651C58.697 71.1622 58.821 70.9847 58.9923 70.8626C59.2049 70.7302 59.4535 70.6672 59.7035 70.6824C59.9242 70.6729 60.1432 70.7255 60.3356 70.8341C60.4938 70.9328 60.6141 71.0821 60.677 71.2576C60.7513 71.4719 60.7867 71.6978 60.7813 71.9246V72.2659H60.2092V71.9498C60.2108 71.8083 60.2034 71.6669 60.1871 71.5263C60.1779 71.4178 60.1309 71.316 60.0543 71.2387C59.9526 71.1631 59.8264 71.1281 59.7003 71.1407C59.5669 71.1282 59.4336 71.1666 59.3273 71.2482C59.242 71.333 59.1885 71.4446 59.1756 71.5642C59.1498 71.7177 59.1381 71.8732 59.1409 72.0289V73.7388C59.1348 73.9112 59.1529 74.0835 59.1946 74.2508C59.2161 74.3593 59.2783 74.4554 59.3684 74.5195C59.4688 74.5785 59.5841 74.607 59.7003 74.6017C59.7632 74.6072 59.8265 74.6003 59.8867 74.5813C59.9469 74.5623 60.0028 74.5316 60.0511 74.4911C60.1255 74.4072 60.1719 74.3022 60.1839 74.1908C60.2015 74.0429 60.2099 73.8941 60.2092 73.7451V73.4291H60.7813V73.7451C60.7843 73.9795 60.7513 74.213 60.6833 74.4373C60.6316 74.6243 60.5207 74.7896 60.3672 74.9083C60.1699 75.0355 59.938 75.0985 59.7035 75.0884Z" fill="white"/>
<path d="M62.4663 75.0885C62.2219 75.1005 61.9792 75.0412 61.7678 74.9179C61.5932 74.802 61.4629 74.6304 61.398 74.4311C61.318 74.1918 61.2795 73.9406 61.2842 73.6883V72.0543C61.2786 71.805 61.3172 71.5568 61.398 71.321C61.4669 71.128 61.5982 70.9634 61.771 70.8532C61.9863 70.745 62.2238 70.6887 62.4648 70.6887C62.7057 70.6887 62.9433 70.745 63.1585 70.8532C63.3294 70.9661 63.4592 71.1313 63.5283 71.3241C63.6095 71.5588 63.648 71.806 63.6421 72.0543V73.7073C63.6472 73.9575 63.6087 74.2067 63.5283 74.4438C63.4622 74.6424 63.3322 74.8135 63.1585 74.9305C62.9483 75.0499 62.7076 75.1049 62.4663 75.0885ZM62.4663 74.6144C62.595 74.6225 62.7227 74.5881 62.8298 74.5165C62.9147 74.4452 62.9727 74.347 62.9942 74.2383C63.0238 74.1013 63.0376 73.9613 63.0353 73.8211V71.9247C63.038 71.7855 63.0242 71.6465 62.9942 71.5106C62.9719 71.4057 62.9138 71.3118 62.8298 71.2451C62.7219 71.1757 62.5943 71.1435 62.4663 71.1534C62.3385 71.144 62.2109 71.1761 62.1028 71.2451C62.0171 71.3108 61.9577 71.4049 61.9353 71.5106C61.9041 71.6464 61.8893 71.7854 61.8911 71.9247V73.8211C61.8897 73.9614 61.9045 74.1014 61.9353 74.2383C61.9567 74.3478 62.016 74.4463 62.1028 74.5165C62.2102 74.5876 62.3378 74.622 62.4663 74.6144Z" fill="white"/>
<path d="M64.2332 75.0412V70.7268H64.644L65.8704 73.5904V70.7268H66.3698V75.0412H65.9874L64.7452 72.0954V75.0412H64.2332Z" fill="white"/>
<path d="M67.0464 75.0412V70.7268H68.7121V71.1598H67.6564V72.5948H68.4814V73.0215H67.6564V75.0412H67.0464Z" fill="white"/>
<path d="M69.1616 75.0412V70.7268H69.7527V75.0412H69.1616Z" fill="white"/>
<path d="M70.4478 75.0413V70.727H71.3169C71.5601 70.7196 71.8024 70.7582 72.0313 70.8407C72.2102 70.91 72.3583 71.0412 72.4485 71.2105C72.5463 71.4166 72.593 71.6432 72.5844 71.8711C72.5856 72.0245 72.5676 72.1774 72.5307 72.3263C72.5004 72.4535 72.4421 72.5723 72.36 72.674C72.2765 72.7713 72.1668 72.8426 72.0439 72.8794L72.6571 75.0413H72.0818L71.5161 73.0153H71.0483V75.0413H70.4478ZM71.0515 72.5855H71.279C71.4208 72.5896 71.5621 72.5682 71.6962 72.5222C71.7983 72.4807 71.8816 72.4031 71.9301 72.3041C71.9843 72.1665 72.0091 72.019 72.0028 71.8711C72.0204 71.6793 71.9712 71.4873 71.8638 71.3275C71.79 71.2619 71.703 71.2129 71.6086 71.184C71.5143 71.1551 71.4148 71.1469 71.3169 71.16H71.0515V72.5855Z" fill="white"/>
<path d="M73.1995 75.0412L73.2816 70.7268H73.8727L74.6313 74.2257L75.3993 70.7268H75.9841L76.0662 75.0412H75.5795L75.5321 71.9089L74.8019 75.0412H74.4638L73.7368 71.9089L73.6894 75.0412H73.1995Z" fill="white"/>
<path d="M54.9529 81.4291L55.8695 77.1179H56.4511L57.3708 81.4291H56.8019L56.5933 80.345H55.7146L55.5092 81.4323L54.9529 81.4291ZM55.8063 79.912H56.5238L56.1634 77.9682L55.8063 79.912Z" fill="white"/>
<path d="M58.11 81.4291V77.5636H57.3799V77.1179H59.4375V77.5636H58.7105V81.4291H58.11Z" fill="white"/>
<path d="M60.3109 81.4291V77.5636H59.5808V77.1179H61.6195V77.5636H60.9115V81.4291H60.3109Z" fill="white"/>
<path d="M62.0364 81.4291V77.1179H63.7084V77.5636H62.6369V78.9922H63.5061V79.4158H62.6369V80.9961H63.7179V81.426L62.0364 81.4291Z" fill="white"/>
<path d="M64.2024 81.4291V77.1179H64.6133L65.8365 79.9815V77.1179H66.339V81.4291H65.9566L64.7144 78.4833V81.4291H64.2024Z" fill="white"/>
<path d="M67.0244 81.4291V77.1178H67.9726C68.2334 77.1054 68.4935 77.1552 68.7312 77.2632C68.9136 77.3565 69.0561 77.5126 69.1326 77.7026C69.2153 77.9421 69.2507 78.1955 69.2369 78.4485V80.0289C69.2429 80.291 69.2022 80.5522 69.1168 80.8001C69.0439 80.998 68.9071 81.1659 68.728 81.2774C68.5056 81.395 68.2556 81.4507 68.0042 81.4385L67.0244 81.4291ZM67.6249 80.9992H67.9726C68.1392 81.0151 68.3058 80.9689 68.4404 80.8696C68.5398 80.7698 68.5994 80.6372 68.6079 80.4967C68.6286 80.3003 68.6381 80.103 68.6364 79.9056V78.5054C68.6401 78.3233 68.6264 78.1412 68.5953 77.9618C68.5869 77.8993 68.5661 77.8391 68.5341 77.7848C68.5021 77.7305 68.4595 77.6832 68.4088 77.6457C68.27 77.5723 68.1134 77.5395 67.9568 77.5509H67.6408L67.6249 80.9992Z" fill="white"/>
<path d="M69.5852 81.4291L70.5018 77.1179H71.0834L72.0032 81.4291H71.45L71.2541 80.3418H70.3754L70.1668 81.4291H69.5852ZM70.4386 79.912H71.1561L70.7958 77.9682L70.4386 79.912Z" fill="white"/>
<path d="M72.438 81.4291V77.1179H72.8489L74.0752 79.9815V77.1179H74.5746V81.4291H74.1922L72.95 78.4833V81.4291H72.438Z" fill="white"/>
<path d="M76.3328 81.4765C76.0815 81.4922 75.8318 81.4257 75.6217 81.2869C75.4525 81.1559 75.3296 80.9743 75.2708 80.7686C75.2023 80.5335 75.1693 80.2895 75.1728 80.0447V78.5213C75.168 78.2639 75.201 78.0073 75.2708 77.7596C75.3289 77.5578 75.4523 77.3811 75.6217 77.257C75.8352 77.1271 76.0833 77.0653 76.3328 77.08C76.5531 77.0712 76.7717 77.1225 76.965 77.2286C77.1241 77.3277 77.2445 77.4782 77.3063 77.6552C77.3781 77.869 77.4123 78.0936 77.4075 78.319V78.6604H76.8385V78.3443C76.84 78.2028 76.8326 78.0613 76.8164 77.9207C76.8081 77.813 76.7609 77.7119 76.6837 77.6363C76.5814 77.5591 76.454 77.523 76.3265 77.5351C76.1937 77.524 76.0616 77.5635 75.9567 77.6458C75.8707 77.7301 75.817 77.842 75.805 77.9618C75.7791 78.1164 75.7675 78.273 75.7702 78.4296V80.1364C75.7642 80.3098 75.7822 80.4832 75.8239 80.6516C75.8463 80.7597 75.9084 80.8555 75.9978 80.9203C76.0937 80.9755 76.2032 81.0029 76.3139 80.9993C76.4414 81.0118 76.5688 80.9731 76.6679 80.8918C76.7422 80.8079 76.7886 80.703 76.8006 80.5916C76.8181 80.4426 76.8265 80.2927 76.8259 80.1427V79.8267H77.3948V80.1427C77.3988 80.378 77.3668 80.6125 77.3 80.8381C77.2483 81.0242 77.1374 81.1885 76.9839 81.3059C76.7898 81.4288 76.5623 81.4885 76.3328 81.4765Z" fill="white"/>
<path d="M77.9922 81.4291V77.1179H79.6674V77.5636H78.599V78.9922H79.4651V79.4158H78.599V80.9961H79.6674V81.426L77.9922 81.4291Z" fill="white"/>
<path d="M107.796 138.262C107.796 138.262 106.393 140.193 105.779 140.455C105.166 140.718 104.022 140.895 103.671 141.685C103.478 142.068 103.359 142.484 103.32 142.911H112.009C112.009 142.911 112.36 141.77 112.009 141.068C111.791 140.626 111.643 140.153 111.57 139.665L107.796 138.262Z" fill="white" stroke="#263238" stroke-width="0.561773" stroke-linecap="round" stroke-linejoin="round"/>
<path d="M112.171 142.036H103.545C103.43 142.315 103.358 142.61 103.333 142.911H112.022C112.102 142.625 112.152 142.332 112.171 142.036Z" fill="white" stroke="#263238" stroke-width="0.561773" stroke-linecap="round" stroke-linejoin="round"/>
<path d="M117.11 140.193L117.284 142.999H121.497C121.595 142.473 121.565 141.931 121.409 141.419C121.146 140.629 120.881 139.927 120.881 139.927L117.11 140.193Z" fill="white" stroke="#263238" stroke-width="0.561773" stroke-linecap="round" stroke-linejoin="round"/>
<path d="M117.278 143H121.491C121.555 142.652 121.565 142.297 121.52 141.947H117.218L117.278 143Z" fill="white" stroke="#263238" stroke-width="0.561773" stroke-linecap="round" stroke-linejoin="round"/>
<path d="M104.385 97.3713C104.385 97.3713 105.09 106.496 105.267 109.739C105.444 112.982 107.795 138.262 107.795 138.262C107.795 138.262 111.218 140.367 111.654 140.367C112.091 140.367 112.622 109.916 112.622 109.916L117.097 140.193C117.579 140.348 118.08 140.436 118.586 140.455C119.291 140.455 120.868 139.927 120.868 139.927L119.389 103.418V97.3713C119.389 97.3713 110.539 98.5977 108.159 98.2469C106.876 98.0753 105.612 97.7821 104.385 97.3713Z" fill="#263238" stroke="#263238" stroke-width="0.561773" stroke-linecap="round" stroke-linejoin="round"/>
<path d="M115.089 102.9L113.158 104.388L112.634 109.916" stroke="#808080" stroke-width="0.561773" stroke-linecap="round" stroke-linejoin="round"/>
<path d="M115.887 60.2962C115.887 60.2962 112.306 59.8474 111.273 61.0643C110.239 62.2811 110.008 64.6612 109.275 65.2269C108.542 65.7927 108.14 65.091 107.815 65.8306C107.489 66.5702 108.02 67.4837 108.02 67.4837C108.02 67.4837 107.932 71.0427 108.336 71.2165C108.741 71.3903 110.549 71.3903 110.549 71.3903L110.255 72.8506L114.781 73.0402L115.176 71.5104C115.176 71.5104 118.618 69.516 119.547 68.002C120.477 66.4881 120.255 63.1314 119.326 61.9619C118.397 60.7924 115.887 60.2962 115.887 60.2962Z" fill="#B2B2B2" stroke="#263238" stroke-width="0.561773" stroke-linecap="round" stroke-linejoin="round"/>
<path d="M110.343 65.0593C110.232 65.3248 110.052 65.5081 109.944 65.4638C109.837 65.4196 109.843 65.1636 109.944 64.8949C110.046 64.6262 110.232 64.4461 110.34 64.4903C110.447 64.5346 110.453 64.7906 110.343 65.0593Z" fill="#263238"/>
<path d="M108.365 68.0587C108.554 68.1551 108.771 68.176 108.975 68.1173C109.178 68.0586 109.351 67.9246 109.459 67.7427" stroke="#263238" stroke-width="0.561773" stroke-linecap="round" stroke-linejoin="round"/>
<path d="M110.382 63.8109C110.382 63.8109 110.84 63.5612 110.894 64.3229" stroke="#263238" stroke-width="0.561773" stroke-linecap="round" stroke-linejoin="round"/>
<path d="M119.311 61.9651C118.382 60.7956 115.888 60.2962 115.888 60.2962C115.888 60.2962 112.307 59.8474 111.273 61.0643C111.273 61.0643 113.252 60.5649 112.996 61.4088C112.74 62.2527 110.688 63.5423 111.393 64.0417C112.098 64.5411 112.891 64.1618 112.563 64.9014C112.234 65.641 111.823 66.3648 112.168 66.4343C112.512 66.5039 113.476 65.7105 113.887 65.8844C114.298 66.0582 114.766 67.313 114.371 67.9483C114.105 68.3395 113.696 68.6107 113.233 68.7037C113.233 68.7037 113.938 70.5464 114.557 71.03C114.826 71.2415 115.164 71.3442 115.505 71.3176C116.381 70.7835 118.802 69.2347 119.557 68.002C120.461 66.4912 120.24 63.1345 119.311 61.9651Z" fill="#263238" stroke="#263238" stroke-width="0.561773" stroke-linecap="round" stroke-linejoin="round"/>
<path d="M103.974 97.5547L104.227 99.568C104.227 99.568 105.492 100.911 109.095 100.997C112.698 101.082 117.155 100.662 118.245 100.327C119.335 99.9916 119.588 99.6534 119.588 99.6534L119.389 97.3713C119.389 97.3713 112.79 99.6534 103.974 97.5547Z" fill="white" stroke="#263238" stroke-width="0.561773" stroke-linecap="round" stroke-linejoin="round"/>
<path d="M120.151 102.523C120.151 102.523 119.879 103.55 119.816 103.857C119.753 104.164 119.939 106.386 119.939 106.702C119.939 107.018 120.255 107.334 120.495 107.071C120.495 107.071 120.811 108.187 121.178 108.124C121.545 108.061 122.724 106.765 122.97 105.649C123.217 104.533 122.91 102.741 122.91 102.741L120.151 102.523Z" fill="#B2B2B2" stroke="#263238" stroke-width="0.561773" stroke-linecap="round" stroke-linejoin="round"/>
<path d="M120.619 104.107C120.687 104.41 120.838 104.688 121.055 104.91L121.371 105.159L121.558 106.272C121.558 106.272 121.434 106.952 121.371 107.325" fill="#B2B2B2"/>
<path d="M120.619 104.107C120.687 104.41 120.838 104.688 121.055 104.91L121.371 105.159L121.558 106.272C121.558 106.272 121.434 106.952 121.371 107.325" stroke="#263238" stroke-width="0.561773" stroke-linecap="round" stroke-linejoin="round"/>
<path d="M120.496 107.075L120.559 105.466" stroke="#263238" stroke-width="0.561773" stroke-linecap="round" stroke-linejoin="round"/>
<path d="M120.147 101.145C120.147 101.145 120.163 102.059 120.147 102.523C120.132 102.988 121.061 103.75 122.237 103.453C123.412 103.155 123.435 100.848 123.435 100.848C123.435 100.848 121.813 102.046 120.147 101.145Z" fill="white" stroke="#263238" stroke-width="0.561773" stroke-linecap="round" stroke-linejoin="round"/>
<path d="M119.535 75.4392C119.535 75.4392 122.086 77.1049 122.771 78.3787C123.457 79.6524 125.126 91.6189 125.322 92.8927C125.518 94.1665 123.742 100.836 123.457 101.717C123.173 102.599 121.583 102.441 121.008 102.207C120.678 102.064 120.394 101.833 120.186 101.539C119.978 101.245 119.854 100.9 119.829 100.542L119.535 94.6595V75.4392Z" fill="#407BFF" stroke="#263238" stroke-width="0.561773" stroke-linecap="round" stroke-linejoin="round"/>
<path d="M120.682 89.7509C120.802 85.4112 121.032 81.3465 121.105 80.6353C121.187 79.7978 121.105 77.5789 120.542 76.2356C119.746 75.4475 118.832 74.7875 117.834 74.2791C117.509 74.179 117.178 74.0967 116.844 74.0326L117.123 73.9441C116.634 73.7327 116.131 73.5563 115.618 73.4163C114.3 73.0654 110.792 72.8916 109.739 73.8556C109.739 73.8556 106.699 74.8038 105.204 75.8943C104.45 76.8342 103.979 77.9685 103.844 79.1656C103.648 81.3212 103.07 94.0368 103.07 94.0368C103.07 94.0368 102.368 96.1418 103.247 97.1975C104.126 98.2532 105.965 99.8304 111.316 99.6534C116.667 99.4764 119.218 98.7715 119.939 98.1078C120.144 97.8473 120.291 97.5454 120.369 97.2228C120.626 96.3923 120.747 95.5255 120.726 94.6563C120.697 92.9874 120.65 89.7698 120.682 89.7509Z" fill="#407BFF" stroke="#263238" stroke-width="0.561773" stroke-linecap="round" stroke-linejoin="round"/>
<path d="M108.771 74.2066C109.145 73.681 109.556 73.1825 110.001 72.7148C110.263 72.5409 114.037 71.6623 115.178 72.0131C116.319 72.3639 116.844 74.0328 116.844 74.0328C114.158 73.7227 111.442 73.7811 108.771 74.2066Z" fill="white" stroke="#263238" stroke-width="0.561773" stroke-linecap="round" stroke-linejoin="round"/>
<path d="M87.7407 78.2113C87.7407 78.2113 87.2034 77.0102 86.8842 76.3717C86.5649 75.7333 84.1723 73.9253 83.6918 73.3406C83.2114 72.7559 82.6267 73.0245 82.5761 73.5524C82.5255 74.0802 83.0534 74.6713 83.2083 74.883C83.3631 75.0948 83.7393 75.6289 83.7393 75.6289C83.7393 75.6289 82.3549 76.5329 82.2506 76.7984C82.1463 77.0639 82.4623 78.1291 82.5666 78.502C82.6709 78.875 82.8321 79.2448 83.0976 79.2448H83.3631C83.3631 79.2448 83.8436 79.6178 84.1628 79.8327C84.482 80.0476 85.5756 80.0318 85.5756 80.0318L86.3437 80.4712C86.3437 80.4712 86.7325 78.9319 87.7407 78.2113Z" fill="#B2B2B2" stroke="#263238" stroke-width="0.561773" stroke-linecap="round" stroke-linejoin="round"/>
<path d="M83.3719 79.2448C83.2347 78.9263 83.1627 78.5834 83.1602 78.2366L83.3719 79.2448Z" fill="white"/>
<path d="M83.3719 79.2448C83.2347 78.9263 83.1627 78.5834 83.1602 78.2366" stroke="#263238" stroke-width="0.561773" stroke-linecap="round" stroke-linejoin="round"/>
<path d="M89.2713 78.9476C89.2713 78.9476 88.2504 78.4735 87.7415 78.2112C87.2326 77.9488 85.8893 78.5652 85.5859 80.0318C85.2825 81.4983 87.83 82.7626 87.83 82.7626C87.83 82.7626 87.3749 80.3131 89.2713 78.9476Z" fill="white" stroke="#263238" stroke-width="0.561773" stroke-linecap="round" stroke-linejoin="round"/>
<path d="M108.773 74.2065C108.773 74.2065 104.032 75.9291 103.453 76.3211C102.875 76.713 97.2774 83.2746 97.2774 83.2746C97.2774 83.2746 90.6399 79.5134 89.7581 79.0235C88.8762 78.5336 87.3718 78.6632 86.9798 80.1361C86.5879 81.609 86.8818 82.7847 88.0576 83.6666C89.2334 84.5484 96.6864 89.6467 97.7673 90.0386C98.8483 90.4305 101.592 88.4582 101.592 88.4582L106.69 83.9479" fill="#407BFF"/>
<path d="M108.773 74.2065C108.773 74.2065 104.032 75.9291 103.453 76.3211C102.875 76.713 97.2774 83.2746 97.2774 83.2746C97.2774 83.2746 90.6399 79.5134 89.7581 79.0235C88.8762 78.5336 87.3718 78.6632 86.9798 80.1361C86.5879 81.609 86.8818 82.7847 88.0576 83.6666C89.2334 84.5484 96.6864 89.6467 97.7673 90.0386C98.8483 90.4305 101.592 88.4582 101.592 88.4582L106.69 83.9479" stroke="#263238" stroke-width="0.561773" stroke-linecap="round" stroke-linejoin="round"/>
<path d="M87.6028 143H136.897" stroke="#263238" stroke-width="0.561773" stroke-linecap="round" stroke-linejoin="round"/>
<path d="M1.10278 143H85.298" stroke="#263238" stroke-width="0.561773" stroke-linecap="round" stroke-linejoin="round"/>
<path d="M122.677 19.8899L105.742 24.1474L111.839 27.4345L122.677 19.8899Z" fill="white" stroke="#263238" stroke-width="0.561773" stroke-linecap="round" stroke-linejoin="round"/>
<path d="M111.841 27.4345L112.359 32.1535L122.679 19.8899L111.841 27.4345Z" fill="#B2B2B2" stroke="#263238" stroke-width="0.561773" stroke-linecap="round" stroke-linejoin="round"/>
<path d="M113.695 28.3575L112.358 32.1535L122.678 19.8899L113.695 28.3575Z" fill="white" stroke="#263238" stroke-width="0.561773" stroke-linecap="round" stroke-linejoin="round"/>
<path d="M122.678 19.8899L113.695 28.3575L118.834 31.8153L122.678 19.8899Z" fill="white" stroke="#263238" stroke-width="0.561773" stroke-linecap="round" stroke-linejoin="round"/>
<path d="M38.1168 45.3208L37.5637 45.6369" stroke="#263238" stroke-width="0.561773" stroke-linecap="round" stroke-linejoin="round"/>
<path d="M36.4572 46.2532C30.7363 49.5277 23.4983 54.1739 16.709 59.9739C-1.08896 75.1959 17.2685 86.1193 43.7869 74.9146C69.866 63.909 92.6801 51.9804 109.593 34.0117" stroke="#263238" stroke-width="0.561773" stroke-linecap="round" stroke-linejoin="round" stroke-dasharray="2.26 2.26"/>
<path d="M110.03 33.544L110.457 33.0825" stroke="#263238" stroke-width="0.561773" stroke-linecap="round" stroke-linejoin="round"/>
<path d="M86.675 28.8599C97.0011 24.7162 113.168 12.7244 115.697 9.05796C127.708 -8.42398 97.077 8.46374 97.077 8.46374" stroke="#263238" stroke-width="0.561773" stroke-linecap="round" stroke-linejoin="round" stroke-dasharray="2.25 2.25"/>
</svg>
