<svg width="16" height="16" viewBox="0 0 16 16" fill="none" xmlns="http://www.w3.org/2000/svg">
<path d="M8 10.0002C10.4853 10.0002 12.5 8.06006 12.5 5.66683C12.5 3.2736 10.4853 1.3335 8 1.3335C5.51472 1.3335 3.5 3.2736 3.5 5.66683C3.5 8.06006 5.51472 10.0002 8 10.0002Z" fill="#F79009"/>
<path d="M10.5267 10.4069C10.7467 10.2935 11 10.4602 11 10.7069V13.9402C11 14.5402 10.58 14.8335 10.06 14.5869L8.27333 13.7402C8.12 13.6735 7.88 13.6735 7.72667 13.7402L5.94 14.5869C5.42 14.8269 5 14.5335 5 13.9335L5.01333 10.7069C5.01333 10.4602 5.27333 10.3002 5.48667 10.4069C6.24 10.7869 7.09333 11.0002 8 11.0002C8.90667 11.0002 9.76667 10.7869 10.5267 10.4069Z" fill="#F9A63A"/>
</svg>
