<svg width="44" height="44" viewBox="0 0 44 44" fill="none" xmlns="http://www.w3.org/2000/svg">
<rect width="44" height="44" rx="5.5" fill="#ECF3F5"/>
<path opacity="0.4" d="M25.8409 11.8333H18.1684C14.8317 11.8333 12.8425 13.8224 12.8425 17.1591V24.8316C12.8425 28.1682 14.8317 30.1574 18.1684 30.1574H25.8409C29.1775 30.1574 31.1667 28.1682 31.1667 24.8316V17.1591C31.1667 13.8224 29.1775 11.8333 25.8409 11.8333Z" fill="#1F2D3D"/>
<path d="M25.3183 16.5083L23.2192 15.8116C22.6875 15.6283 22.1467 15.7016 21.7342 15.9949C21.3217 16.2883 21.0925 16.7833 21.0925 17.3425V17.9016V21.7333C20.7258 21.5316 20.3133 21.4125 19.8641 21.4125C18.4525 21.4125 17.2975 22.5674 17.2975 23.9791C17.2975 25.3908 18.4525 26.5458 19.8641 26.5458C21.2758 26.5458 22.4308 25.3908 22.4308 23.9791V19.8083C22.44 19.8175 22.4583 19.8174 22.4675 19.8266L24.5666 20.5233C24.7591 20.5874 24.9608 20.6241 25.1533 20.6241C25.4833 20.6241 25.795 20.5325 26.0516 20.34C26.4641 20.0466 26.6933 19.5516 26.6933 18.9924V18.4333C26.6933 17.5991 26.1067 16.7741 25.3183 16.5083ZM19.8641 25.2075C19.1858 25.2075 18.645 24.6575 18.645 23.9883C18.645 23.31 19.195 22.7599 19.8641 22.7599C20.5425 22.7599 21.0925 23.31 21.0925 23.9883C21.0925 24.6575 20.5425 25.2075 19.8641 25.2075Z" fill="#1F2D3D"/>
</svg>
