<svg width="74" height="70" viewBox="0 0 74 70" fill="none" xmlns="http://www.w3.org/2000/svg">
<path d="M62.6477 65.3269L65.7545 63.0163C67.9884 63.0119 70.2107 62.6962 72.3574 62.0782C72.4936 62.0761 72.6286 62.1038 72.7528 62.1595C72.8771 62.2152 72.9876 62.2975 73.0766 62.4006C73.1656 62.5037 73.2308 62.625 73.2678 62.7561C73.3048 62.8872 73.3125 63.0247 73.2905 63.1591L64.7297 68.5484C63.6814 67.7501 62.945 66.6106 62.6477 65.3269Z" fill="#6D8388"/>
<path d="M32.9189 39.9595C32.9189 39.9595 31.3791 62.6593 9.95458 63.5828C9.40688 62.3106 9.49708 61.0738 10.1916 59.5976C10.1916 59.5976 19.1407 59.1406 22.9446 48.7944C24.736 43.9217 25.9712 34.5376 25.9712 34.5376C25.9712 34.5376 32.1703 32.8169 32.9189 39.9595Z" fill="#405C80"/>
<path opacity="0.091" d="M32.666 41.8982L27.6139 40.6851C30.4612 44.5876 29.3838 51.2918 29.3838 51.2918C29.4593 51.2517 29.5336 51.211 29.6068 51.1696C31.0858 48.2501 32.1171 45.1246 32.666 41.8982Z" fill="black"/>
<path d="M26.5405 32.3545C26.5405 32.3545 22.7477 40.6021 31.8997 42.9883C38.0329 44.6815 44.0095 46.8976 49.7639 49.6123L62.7925 65.4721C64.6465 65.3148 65.5385 64.4198 65.9043 63.117L53.8849 45.3164C53.8849 45.3164 42.1006 36.9801 35.7712 35.0945L26.5405 32.3545Z" fill="#5C7594"/>
<path d="M10.1533 59.5161L9.95288 63.3831C8.53192 65.1067 7.35808 67.0199 6.46523 69.0676C6.38004 69.1737 6.27259 69.2599 6.15048 69.32C6.02836 69.3801 5.89454 69.4127 5.75846 69.4155C5.62237 69.4182 5.48734 69.3911 5.36287 69.336C5.23841 69.2809 5.12755 69.1992 5.0381 69.0966L6.34497 59.0656C7.62813 58.7675 8.97513 58.9268 10.1533 59.5161Z" fill="#6D8388"/>
<path d="M42.3135 10.8307C40.878 12.3632 39.8724 14.2472 39.3981 16.2927C36.6992 17.8802 35.3327 16.7998 34.3475 14.4847C34.346 14.4842 39.3425 8.8168 39.4547 8.84335L42.3135 10.8307Z" fill="#F4B9B2"/>
<path d="M43.2009 7.30812C43.7551 6.51696 44.0134 5.55607 43.9305 4.59366C43.7055 2.22246 45.4257 3.75532 46.0752 2.70602C46.8925 1.38513 43.8894 -1.72018 42.5114 1.2358C41.4195 3.57794 39.9868 1.09098 38.7626 1.30645C37.8181 1.47232 38.7466 2.84834 37.8962 3.02572C36.7237 3.27026 36.1339 4.28398 36.9567 5.67002C39.2487 9.53199 43.2009 7.30812 43.2009 7.30812Z" fill="#1F2D3D"/>
<path d="M11.3617 28.4295C11.3617 28.4295 6.7746 27.9295 4.58952 24.9575L6.66875 23.2801C6.66875 23.2801 8.94558 25.2488 11.0592 25.3028L11.3617 28.4295Z" fill="#FFC82C"/>
<path d="M31.3175 14.5821C28.0391 17.8669 20.3555 24.1544 10.8527 25.2591C10.5154 25.6641 10.2913 26.1511 10.2032 26.6708C10.1152 27.1904 10.1662 27.7241 10.3512 28.2177C10.3512 28.2177 21.8438 31.361 31.2609 24.0318L31.3175 14.5821Z" fill="#FFC82C"/>
<path d="M42.533 3.75317C42.533 3.75317 42.4328 8.8724 45.8107 10.507C45.8107 10.507 46.1114 12.569 43.5032 12.5835C40.895 12.5981 38.2146 12.6121 37.715 3.99671C37.715 3.99671 40.5863 4.26329 42.533 3.75317Z" fill="#FFC7C0"/>
<path d="M38.9694 9.34828C39.0386 9.1303 38.1947 7.46766 38.8662 5.10648C39.251 4.81263 39.7235 4.65694 40.2076 4.66451C40.4947 4.67555 40.78 4.71449 41.0595 4.78077C41.8928 4.94663 42.7923 5.11249 43.3145 3.92539L42.1875 2.21313L37.2907 3.98903L37.6119 5.20921L36.8493 5.28938C36.9461 6.78417 37.4275 8.22859 38.2468 9.48258C38.3409 9.56033 38.4577 9.60552 38.5796 9.61136C38.6616 9.6044 38.7405 9.57658 38.8087 9.53053C38.877 9.48448 38.9323 9.42175 38.9694 9.34828Z" fill="#1F2D3D"/>
<path d="M39.7206 9.16737C39.5273 8.96395 39.2617 8.84469 38.9812 8.83531C38.7007 8.82594 38.4278 8.9272 38.2213 9.11726C38.0536 9.34232 37.9811 9.62431 38.0194 9.90237C38.0577 10.1804 38.2039 10.4323 38.4263 10.6035C38.6196 10.8069 38.8852 10.9262 39.1657 10.9356C39.4461 10.945 39.7191 10.8437 39.9256 10.6536C40.0934 10.4286 40.166 10.1466 40.1277 9.8685C40.0893 9.5904 39.9431 9.33855 39.7206 9.16737Z" fill="#FFC7C0"/>
<path d="M28.1414 19.7866C28.1414 19.7866 24.3832 24.3561 25.5513 29.2654L30.5146 26.0203L28.1414 19.7866Z" fill="#D5A212"/>
<path d="M55.7287 32.7724C55.9741 33.3413 56.096 33.9557 56.0864 34.5751C56.0768 35.1945 55.9359 35.8049 55.6731 36.3658C55.6731 36.3658 46.4859 38.1653 39.9862 31.895C39.9862 31.895 36.0971 28.1428 36.6323 20.8328C37.6405 18.207 39.3658 16.8465 41.9815 17.7184C41.9815 17.7184 40.9959 32.5079 55.7287 32.7724Z" fill="#FFC82C"/>
<path d="M32.9607 12.8659C32.9607 12.8659 26.6163 17.2631 25.4287 30.4505C26.2249 35.2385 36.5651 37.047 40.0432 33.2506C40.0432 33.2506 38.0984 27.0195 42 17.7346C42 17.7346 39.031 11.9865 32.9607 12.8659Z" fill="#FFC82C"/>
<path d="M39.6182 31.5384C39.6182 31.5384 35.213 30.1794 36.4783 23.595C37.0681 26.7083 37.8889 29.3285 39.6182 31.5384Z" fill="#D5A212"/>
<path d="M62.666 34.9438L61.968 31.6365C60.6848 32.304 59.2845 32.7166 57.8444 32.8517C57.8281 32.6633 57.8509 32.4735 57.9112 32.2942C57.9716 32.115 58.0683 31.9501 58.1952 31.8099C58.404 31.6961 58.584 31.5359 58.7212 31.3417C58.8585 31.1474 58.9494 30.9243 58.9869 30.6895C59.1378 30.1147 58.9008 29.9829 58.9008 29.9829C58.3941 30.578 57.7606 31.0519 57.0467 31.37C56.6607 31.4652 56.3256 31.7043 56.1102 32.0385C55.8947 32.3726 55.8151 32.7765 55.8877 33.1674L55.5644 36.2471C56.0515 36.3142 56.5425 36.3477 57.0342 36.3474C58.9966 36.3364 60.9279 35.8551 62.666 34.9438Z" fill="#FFC7C0"/>
<path d="M1.36155 21.0447L3.98743 18.9163C4.56333 20.2431 5.39069 21.4458 6.42383 22.4581C6.55522 22.322 6.65713 22.1603 6.72321 21.9831C6.78928 21.8059 6.8181 21.6169 6.80786 21.4281C6.71742 21.2081 6.67861 20.9703 6.69441 20.733C6.71022 20.4957 6.78022 20.2652 6.89903 20.0591C7.14405 19.5178 7.41114 19.5648 7.41114 19.5648C7.42963 20.3461 7.62296 21.1133 7.97693 21.8101C8.2167 22.1272 8.32617 22.5241 8.28295 22.9193C8.23973 23.3145 8.04708 23.6783 7.74443 23.9361L6.05492 26.5313C5.63449 26.2765 5.23207 25.9931 4.85049 25.6831C3.33349 24.438 2.13708 22.8474 1.36155 21.0447Z" fill="#FFC7C0"/>
</svg>
