<svg width="47" height="45" viewBox="0 0 47 45" fill="none" xmlns="http://www.w3.org/2000/svg">
<rect width="27" height="45" rx="4" fill="#D9E9ED"/>
<g filter="url(#filter0_d_19_1714)">
<path d="M25.875 2.73376H37.125C40.5 2.73376 42.75 4.98376 42.75 8.35877V15.1088C42.75 18.4838 40.5 20.7338 37.125 20.7338H32.625L27.6188 24.0638C26.8763 24.5588 25.875 24.03 25.875 23.13V20.7338C22.5 20.7338 20.25 18.4838 20.25 15.1088V8.35877C20.25 4.98376 22.5 2.73376 25.875 2.73376ZM27.5625 12.6563H35.4375C35.8987 12.6563 36.2812 12.2738 36.2812 11.8125C36.2812 11.3513 35.8987 10.9688 35.4375 10.9688H27.5625C27.1012 10.9688 26.7188 11.3513 26.7188 11.8125C26.7188 12.2738 27.1012 12.6563 27.5625 12.6563Z" fill="#5F7CE7"/>
</g>
<path d="M15.6375 32.0625H19.575" stroke="#8FA3A5" stroke-width="1.5" stroke-linecap="round" stroke-linejoin="round"/>
<path d="M8.32495 38.25H8.34745H19.575" stroke="#8FA3A5" stroke-width="1.5" stroke-linecap="round" stroke-linejoin="round"/>
<path d="M11.8064 32.0625H11.8165" stroke="#8FA3A5" stroke-width="2" stroke-linecap="round" stroke-linejoin="round"/>
<path d="M8.43138 32.0625H8.44149" stroke="#8FA3A5" stroke-width="2" stroke-linecap="round" stroke-linejoin="round"/>
<defs>
<filter id="filter0_d_19_1714" x="14" y="0" width="35" height="35" filterUnits="userSpaceOnUse" color-interpolation-filters="sRGB">
<feFlood flood-opacity="0" result="BackgroundImageFix"/>
<feColorMatrix in="SourceAlpha" type="matrix" values="0 0 0 0 0 0 0 0 0 0 0 0 0 0 0 0 0 0 127 0" result="hardAlpha"/>
<feOffset dy="4"/>
<feGaussianBlur stdDeviation="2"/>
<feComposite in2="hardAlpha" operator="out"/>
<feColorMatrix type="matrix" values="0 0 0 0 0 0 0 0 0 0 0 0 0 0 0 0 0 0 0.05 0"/>
<feBlend mode="normal" in2="BackgroundImageFix" result="effect1_dropShadow_19_1714"/>
<feBlend mode="normal" in="SourceGraphic" in2="effect1_dropShadow_19_1714" result="shape"/>
</filter>
</defs>
</svg>
