<svg width="50" height="32" viewBox="0 0 50 32" fill="none" xmlns="http://www.w3.org/2000/svg">
<g filter="url(#filter0_d_1012_9064)">
<rect x="6" width="38" height="20" rx="4" fill="#113DBC"/>
<path d="M20.669 6.72727V14H19.6605L15.9638 8.66619H15.8963V14H14.799V6.72727H15.8146L19.5149 12.0682H19.5824V6.72727H20.669ZM24.5353 14.1101C23.9979 14.1101 23.5351 13.9953 23.1468 13.7656C22.7609 13.5336 22.4627 13.2081 22.252 12.7891C22.0436 12.3677 21.9395 11.8741 21.9395 11.3082C21.9395 10.7495 22.0436 10.2571 22.252 9.83097C22.4627 9.40483 22.7562 9.07221 23.1326 8.8331C23.5114 8.59399 23.9541 8.47443 24.4608 8.47443C24.7685 8.47443 25.0668 8.52533 25.3556 8.62713C25.6445 8.72893 25.9037 8.88873 26.1333 9.10653C26.363 9.32434 26.5441 9.60724 26.6767 9.95526C26.8092 10.3009 26.8755 10.7211 26.8755 11.2159V11.5923H22.5396V10.7969H25.835C25.835 10.5175 25.7782 10.2701 25.6646 10.0547C25.551 9.83688 25.3912 9.66525 25.1852 9.53977C24.9816 9.4143 24.7425 9.35156 24.4679 9.35156C24.1696 9.35156 23.9092 9.42495 23.6866 9.57173C23.4664 9.71615 23.296 9.90554 23.1752 10.1399C23.0569 10.3719 22.9977 10.6241 22.9977 10.8963V11.5178C22.9977 11.8823 23.0616 12.1925 23.1895 12.4482C23.3197 12.7038 23.5008 12.8991 23.7328 13.0341C23.9648 13.1667 24.2359 13.233 24.546 13.233C24.7472 13.233 24.9307 13.2045 25.0964 13.1477C25.2621 13.0885 25.4054 13.0009 25.5261 12.8849C25.6468 12.7689 25.7392 12.6257 25.8031 12.4553L26.8081 12.6364C26.7276 12.9323 26.5832 13.1915 26.3748 13.4141C26.1689 13.6342 25.9096 13.8059 25.5971 13.929C25.287 14.0497 24.9331 14.1101 24.5353 14.1101ZM29.2264 14L27.6213 8.54545H28.7186L29.7875 12.5511H29.8407L30.9132 8.54545H32.0105L33.0758 12.5334H33.1291L34.1909 8.54545H35.2882L33.6866 14H32.6035L31.4956 10.0618H31.4139L30.3059 14H29.2264Z" fill="white"/>
</g>
<defs>
<filter id="filter0_d_1012_9064" x="0" y="0" width="50" height="32" filterUnits="userSpaceOnUse" color-interpolation-filters="sRGB">
<feFlood flood-opacity="0" result="BackgroundImageFix"/>
<feColorMatrix in="SourceAlpha" type="matrix" values="0 0 0 0 0 0 0 0 0 0 0 0 0 0 0 0 0 0 127 0" result="hardAlpha"/>
<feMorphology radius="6" operator="erode" in="SourceAlpha" result="effect1_dropShadow_1012_9064"/>
<feOffset dy="6"/>
<feGaussianBlur stdDeviation="6"/>
<feColorMatrix type="matrix" values="0 0 0 0 0.0941176 0 0 0 0 0.152941 0 0 0 0 0.294118 0 0 0 0.12 0"/>
<feBlend mode="normal" in2="BackgroundImageFix" result="effect1_dropShadow_1012_9064"/>
<feBlend mode="normal" in="SourceGraphic" in2="effect1_dropShadow_1012_9064" result="shape"/>
</filter>
</defs>
</svg>
