<svg id="vector" xmlns="http://www.w3.org/2000/svg" width="23.4" height="26" viewBox="0 0 23.4 26"><path fill="#009cf6" d="M20.948,26L5.014,26L5.014,0h15.934a2.529,2.529 0,0 1,2.451 2.6v20.8a2.529,2.529 0,0 1,-2.451 2.6" id="path_0"/><path fill="#113dbc" d="M3.343,0h1.671v26L3.343,26C1.5,26 0,24.836 0,23.4L0,2.6C0,1.164 1.5,0 3.343,0" id="path_1"/><path fill="#e3f2fd" d="M15.712,10.714v4.563h-5.014L10.698,10.714L6.519,10.714l6.686,-5.7 6.686,5.7zM10.698,16.414h5.014v1.711h-5.014zM10.698,19.266h5.014v1.711h-5.014z" id="path_2"/></svg>