<svg width="116" height="131" viewBox="0 0 116 131" fill="none" xmlns="http://www.w3.org/2000/svg">
<path d="M108.29 105.148C110.654 103.131 112.568 100.671 113.917 97.9175C113.978 97.7945 114.08 97.6943 114.205 97.6322C114.258 97.597 114.319 97.5744 114.382 97.5662C114.446 97.558 114.511 97.5645 114.571 97.5851C114.632 97.6056 114.686 97.6397 114.73 97.6846C114.775 97.7295 114.807 97.7838 114.826 97.8432C114.902 97.9899 114.921 98.158 114.879 98.3171C113.862 101.824 111.854 104.988 109.079 107.455C107.842 106.743 106.665 105.937 105.56 105.045L106.347 103.785L108.29 105.148Z" fill="#030612"/>
<path d="M65.1549 119.601C68.2084 120.392 71.3909 120.553 74.5089 120.076C74.6487 120.056 74.7914 120.082 74.9151 120.15C74.9748 120.173 75.0282 120.21 75.0708 120.258C75.1134 120.306 75.144 120.364 75.1602 120.426C75.1764 120.488 75.1776 120.553 75.1639 120.615C75.1501 120.678 75.1217 120.737 75.081 120.786C74.9976 120.934 74.864 121.047 74.7043 121.105C71.1249 122.294 67.2853 122.462 63.6156 121.592C63.5355 120.154 63.569 118.711 63.7159 117.279L65.2382 117.201L65.1549 119.601Z" fill="#030612"/>
<path d="M45.6435 68.3525C45.6435 68.3525 64.749 71.9492 77.337 78.6281L106.881 102.647C106.637 103.844 106.004 104.928 105.081 105.727C105.081 105.727 85.718 99.0191 72.7451 86.5608C72.7451 86.5608 47.9236 81.1986 39.0605 74.7763L45.6435 68.3525Z" fill="#5C7594"/>
<path opacity="0.074" d="M71.9395 86.3792L76.3743 80.2812C76.6116 83.1633 76.2018 86.062 75.1749 88.7654C74.3449 88.0513 73.5352 87.3159 72.7459 86.5591C72.7459 86.5591 72.4599 86.4971 71.9395 86.3792Z" fill="black"/>
<path d="M31.5674 80.1065C31.5674 80.1065 39.6808 88.4956 64.9475 86.5081C64.9475 86.5081 61.7452 95.7796 62.6343 116.601C63.1008 116.976 63.6704 117.199 64.2672 117.242C64.8639 117.284 65.4595 117.144 65.9744 116.839L76.3944 80.3615C76.3944 80.3615 62.3991 75.6819 40.8654 72.1162L31.5674 80.1065Z" fill="#95AAC9"/>
<path d="M24.8685 39.8057C24.8685 39.8057 36.4938 42.1646 44.5445 54.5389C44.9986 55.2363 47.4696 60.8853 44.2069 63.8863C43.3394 64.6565 42.3349 65.2567 41.2456 65.6555C32.0766 69.2102 23.2305 63.6961 23.2305 63.6961L24.5788 59.0401C24.5788 59.0401 32.5742 61.705 39.4137 59.0077C39.4145 59.0084 30.8411 53.9985 24.8685 39.8057V39.8057Z" fill="#1F2D3D"/>
<path d="M17.7385 44.2056C17.7385 44.2056 10.8024 62.6048 30.5506 82.1924L46.2525 68.3526C46.2525 68.3526 33.5067 54.5453 24.9009 39.7737C24.9009 39.7737 20.4373 39.0358 17.7385 44.2056Z" fill="#1F2D3D"/>
<path d="M24.4425 36.4186C24.4425 36.4186 24.7085 40.5444 22.9133 43.6123C22.9133 43.6123 19.5996 45.7894 19.0581 42.0349C20.503 40.1404 21.2631 37.812 21.2142 35.4299L24.4425 36.4186Z" fill="#FFC7C0"/>
<path d="M24.1651 27.3809C24.1651 27.3809 24.777 31.2731 29.878 36.2499C29.878 36.2499 29.3724 38.5659 25.676 38.5904C24.8522 38.6007 24.0441 38.3646 23.3553 37.9125C22.0797 37.0526 20.9963 35.9377 20.1732 34.638C19.3502 33.3384 18.8055 31.8823 18.5735 30.3615C18.5689 30.3351 18.5704 30.3079 18.578 30.2821C18.5856 30.2564 18.599 30.2327 18.6172 30.213C18.6354 30.1932 18.6579 30.178 18.683 30.1684C18.7081 30.1587 18.735 30.155 18.7618 30.1575C19.8107 30.2328 20.8617 30.0405 21.816 29.5987C22.7704 29.1569 23.597 28.4801 24.2184 27.6316" fill="#FFC7C0"/>
<path d="M20.9493 35.555C20.9493 35.555 18.9798 36.0974 16.7713 32.505C16.4098 31.9225 16.137 31.2893 15.9621 30.6263C15.6363 29.6462 15.5783 28.5969 15.7941 27.5869C16.4991 25.6388 18.8313 25.158 18.8313 25.158C18.8313 25.158 18.6237 27.1941 20.3875 26.0937C20.7951 25.8392 21.1554 25.5157 21.4521 25.1376C22.1206 24.2501 22.9321 23.4798 23.8533 22.8584C23.9836 22.7833 24.1345 22.7517 24.2839 22.7682C24.4334 22.7848 24.5737 22.8486 24.6844 22.9505C24.7951 23.0523 24.8703 23.1868 24.8992 23.3344C24.9281 23.482 24.9092 23.635 24.8451 23.7711C24.4258 24.579 23.8788 25.3139 23.2251 25.9473C23.2251 25.9473 26.1259 23.5088 27.1398 24.7651C27.1398 24.7651 28.7245 27.5767 18.7776 30.6269C19.3282 32.3366 20.234 33.9106 21.4355 35.2456" fill="#030612"/>
<path d="M56.4171 122.074L48.2286 87.1055H53.1418L58.8255 122.074H56.4171ZM21.127 122.074L26.8106 87.1055H31.7239L23.5353 122.074H21.127Z" fill="#E7D0B1"/>
<path d="M23.2304 53.4162C29.7912 54.3789 23.1566 65.2346 32.779 64.2394C32.779 64.2394 42.0285 63.194 40.5453 56.7629C40.5453 56.7629 41.4476 57.4108 42.3883 58.2372C47.8272 62.9935 40.324 71.7992 31.7064 72.742C24.6796 73.5117 18.5205 70.675 17.4067 61.952C17.4067 61.952 16.6695 52.4534 23.2304 53.4162Z" fill="#3C4858"/>
<path d="M29.2037 81.2773H53.1767C53.3091 81.261 53.4422 81.2529 53.5756 81.253C54.3638 81.2168 55.135 81.4897 55.7251 82.0135C56.3152 82.5373 56.6776 83.2707 56.7353 84.0576C56.7929 84.8445 56.5412 85.6229 56.0337 86.2271C55.5262 86.8313 54.8029 87.2136 54.0179 87.2926L53.995 87.314H53.796C53.7237 87.3189 53.65 87.3214 53.5748 87.3214C53.5114 87.3214 53.4488 87.3214 53.3861 87.3162L24.7099 87.4416C24.7099 87.4416 15.0204 70.2226 12.7971 61.0395C12.7118 60.6759 12.7567 60.2939 12.924 59.96C13.0912 59.6261 13.3704 59.3614 13.7127 59.2121C14.0562 59.0621 14.4421 59.0401 14.8004 59.15C15.1587 59.26 15.4659 59.4946 15.6662 59.8114L29.2037 81.2773Z" fill="#16A770"/>
</svg>
