<svg width="103" height="127" viewBox="0 0 103 127" fill="none" xmlns="http://www.w3.org/2000/svg">
<path d="M77.6996 94.0845H34.9488C34.6454 94.0845 34.3543 93.9643 34.1393 93.7501C33.9243 93.5359 33.8029 93.2453 33.8018 92.9418V92.1036C33.8029 91.8001 33.9243 91.5095 34.1393 91.2953C34.3543 91.0812 34.6454 90.9609 34.9488 90.9609H77.6996C78.003 90.9609 78.2941 91.0812 78.5091 91.2953C78.7241 91.5095 78.8455 91.8001 78.8466 92.1036V92.9418C78.8455 93.2453 78.7241 93.5359 78.5091 93.7501C78.2941 93.9643 78.003 94.0845 77.6996 94.0845ZM34.9488 91.8786C34.8797 91.8797 34.8137 91.9073 34.7644 91.9558C34.7151 92.0043 34.6864 92.0698 34.6841 92.1389V92.9771C34.6864 93.0462 34.7151 93.1118 34.7644 93.1602C34.8137 93.2087 34.8797 93.2363 34.9488 93.2374H77.6996C77.769 93.2374 77.8357 93.2102 77.8852 93.1615C77.9347 93.1128 77.9631 93.0466 77.9643 92.9771V92.1389C77.9631 92.0695 77.9347 92.0032 77.8852 91.9546C77.8357 91.9059 77.769 91.8786 77.6996 91.8786H34.9488Z" fill="white"/>
<path d="M77.6996 115.341H34.9488C34.6454 115.341 34.3543 115.221 34.1393 115.007C33.9243 114.793 33.8029 114.502 33.8018 114.199V113.36C33.8029 113.057 33.9243 112.766 34.1393 112.552C34.3543 112.338 34.6454 112.218 34.9488 112.218H77.6996C78.003 112.218 78.2941 112.338 78.5091 112.552C78.7241 112.766 78.8455 113.057 78.8466 113.36V114.199C78.8455 114.502 78.7241 114.793 78.5091 115.007C78.2941 115.221 78.003 115.341 77.6996 115.341ZM34.9488 113.1C34.8797 113.101 34.8137 113.129 34.7644 113.177C34.7151 113.226 34.6864 113.291 34.6841 113.36V114.199C34.6864 114.268 34.7151 114.333 34.7644 114.382C34.8137 114.43 34.8797 114.458 34.9488 114.459H77.6996C77.769 114.459 77.8357 114.432 77.8852 114.383C77.9347 114.334 77.9631 114.268 77.9643 114.199V113.36C77.9631 113.291 77.9347 113.225 77.8852 113.176C77.8357 113.127 77.769 113.1 77.6996 113.1H34.9488Z" fill="white"/>
<path d="M83.9016 13.6643H32.0405C30.7088 13.6877 29.4336 14.2064 28.4637 15.1192C27.4938 16.032 26.8988 17.2734 26.7948 18.6012L20.0932 122.059C20.0442 122.693 20.1277 123.33 20.3382 123.931C20.5487 124.531 20.8817 125.081 21.3161 125.545C21.7504 126.01 22.2767 126.379 22.8613 126.63C23.446 126.88 24.0764 127.006 24.7124 127H76.5647C77.8988 126.978 79.1767 126.459 80.1491 125.546C81.1215 124.632 81.7185 123.389 81.8237 122.059L88.5208 18.6012C88.5698 17.9672 88.4864 17.33 88.2758 16.73C88.0653 16.13 87.7322 15.5804 87.2978 15.1161C86.8633 14.6518 86.3371 14.283 85.7524 14.033C85.1677 13.7831 84.5375 13.6575 83.9016 13.6643Z" fill="#407BFF"/>
<path opacity="0.7" d="M82.256 13.6643H32.0405C30.7088 13.6877 29.4336 14.2064 28.4637 15.1192C27.4938 16.032 26.8988 17.2734 26.7948 18.6012L20.0932 122.059C20.0442 122.693 20.1277 123.33 20.3382 123.931C20.5487 124.531 20.8817 125.081 21.3161 125.545C21.7504 126.01 22.2767 126.379 22.8613 126.63C23.446 126.88 24.0764 127.006 24.7124 127H74.9191C76.2532 126.978 77.5311 126.459 78.5035 125.546C79.4759 124.632 80.0729 123.389 80.178 122.059L86.8752 18.6012C86.9242 17.9672 86.8408 17.33 86.6302 16.73C86.4197 16.13 86.0866 15.5804 85.6521 15.1161C85.2177 14.6518 84.6914 14.283 84.1068 14.033C83.5221 13.7831 82.8918 13.6575 82.256 13.6643Z" fill="white"/>
<path d="M78.0226 119.351H22.7864C22.5798 119.351 22.3753 119.309 22.1856 119.227C21.996 119.146 21.8251 119.026 21.6836 118.875C21.5422 118.725 21.4331 118.547 21.3633 118.352C21.2934 118.158 21.2642 117.951 21.2775 117.745L27.3394 24.1257C27.364 23.7433 27.5332 23.3846 27.8126 23.1225C28.092 22.8603 28.4607 22.7142 28.8438 22.7139H84.0845C84.2913 22.714 84.4958 22.7566 84.6855 22.8389C84.8752 22.9212 85.0461 23.0416 85.1874 23.1925C85.3288 23.3434 85.4378 23.5216 85.5076 23.7163C85.5774 23.9109 85.6066 24.1178 85.5933 24.3242L79.5315 117.939C79.5068 118.322 79.337 118.681 79.0566 118.944C78.7763 119.206 78.4065 119.352 78.0226 119.351Z" fill="white"/>
<path d="M65.7456 19.6524H45.6673C45.564 19.6533 45.4616 19.6327 45.3667 19.592C45.2717 19.5513 45.1863 19.4912 45.1158 19.4157C45.0453 19.3402 44.9912 19.2509 44.957 19.1534C44.9228 19.0559 44.9093 18.9524 44.9172 18.8494C44.9376 18.6354 45.0353 18.4362 45.1921 18.2892C45.3489 18.1422 45.5539 18.0574 45.7687 18.0509H65.847C65.9501 18.0493 66.0524 18.0693 66.1473 18.1096C66.2423 18.1498 66.3277 18.2094 66.3983 18.2845C66.4689 18.3597 66.5231 18.4488 66.5573 18.546C66.5915 18.6433 66.605 18.7466 66.597 18.8494C66.5777 19.0642 66.4805 19.2644 66.3236 19.4124C66.1667 19.5603 65.9611 19.6457 65.7456 19.6524Z" fill="white"/>
<path d="M50.0751 123.288C50.0428 123.816 49.8115 124.313 49.4276 124.678C49.0437 125.043 48.5357 125.25 48.006 125.255C47.7516 125.258 47.4994 125.207 47.2652 125.108C47.031 125.009 46.8198 124.862 46.6447 124.678C46.4697 124.493 46.3345 124.274 46.2476 124.035C46.1607 123.796 46.124 123.542 46.1398 123.288C46.1732 122.76 46.405 122.264 46.7888 121.9C47.1726 121.535 47.6799 121.33 48.2089 121.324C48.4631 121.321 48.7152 121.371 48.9494 121.47C49.1836 121.569 49.3948 121.715 49.57 121.899C49.7451 122.083 49.8804 122.302 49.9673 122.541C50.0542 122.78 50.0909 123.034 50.0751 123.288Z" fill="white"/>
<path opacity="0.2" d="M72.003 48.6221H24.836L21.8359 94.9023H72.003C73.312 94.8999 74.5668 94.3792 75.4928 93.454C76.4189 92.5288 76.9407 91.2744 76.9442 89.9654V53.5766C76.9454 52.2645 76.4256 51.0056 75.4991 50.0766C74.5725 49.1476 73.315 48.6244 72.003 48.6221Z" fill="#407BFF"/>
<path d="M67.6107 44.5469H9.80674C7.07776 44.5469 4.86548 46.7592 4.86548 49.4881V85.8902C4.86548 88.6192 7.07776 90.8315 9.80674 90.8315H67.6107C70.3397 90.8315 72.5519 88.6192 72.5519 85.8902V49.4881C72.5519 46.7592 70.3397 44.5469 67.6107 44.5469Z" fill="#407BFF"/>
<path d="M3.28691 44.0062C3.17121 44.0057 3.06034 43.9598 2.9782 43.8783L2.18439 43.0889C2.10134 43.0059 2.05469 42.8933 2.05469 42.7758C2.05469 42.6584 2.10134 42.5458 2.18439 42.4627C2.26743 42.3797 2.38006 42.333 2.4975 42.333C2.61494 42.333 2.72757 42.3797 2.81062 42.4627L3.60002 43.2565C3.68216 43.3392 3.72826 43.4509 3.72826 43.5674C3.72826 43.6839 3.68216 43.7957 3.60002 43.8783C3.55881 43.9192 3.50994 43.9515 3.45621 43.9735C3.40248 43.9954 3.34495 44.0066 3.28691 44.0062Z" fill="#407BFF"/>
<path d="M2.09094 46.7853H0.975187C0.858225 46.7853 0.746052 46.7389 0.663347 46.6562C0.580643 46.5735 0.53418 46.4613 0.53418 46.3443C0.53418 46.2274 0.580643 46.1152 0.663347 46.0325C0.746052 45.9498 0.858225 45.9033 0.975187 45.9033H2.09094C2.2079 45.9033 2.32007 45.9498 2.40278 46.0325C2.48548 46.1152 2.53194 46.2274 2.53194 46.3443C2.53194 46.4613 2.48548 46.5735 2.40278 46.6562C2.32007 46.7389 2.2079 46.7853 2.09094 46.7853Z" fill="#407BFF"/>
<path d="M6.09698 42.816C5.98518 42.8163 5.87744 42.7741 5.79557 42.6979C5.7137 42.6218 5.6638 42.5174 5.65598 42.4059L5.57659 41.2901C5.57239 41.2322 5.57969 41.174 5.59805 41.1189C5.61641 41.0637 5.64548 41.0128 5.68359 40.9689C5.72171 40.9251 5.76811 40.8892 5.82013 40.8633C5.87215 40.8375 5.92877 40.8222 5.98673 40.8182C6.10303 40.811 6.21748 40.85 6.30507 40.9269C6.39266 41.0037 6.44627 41.1121 6.4542 41.2284L6.53799 42.3441C6.54219 42.4021 6.5349 42.4603 6.51654 42.5154C6.49818 42.5705 6.4691 42.6215 6.43099 42.6653C6.39288 42.7092 6.34648 42.745 6.29446 42.7709C6.24244 42.7968 6.18582 42.8121 6.12785 42.816H6.09698Z" fill="#407BFF"/>
<path d="M43.6484 86.0645L61.3973 103.809V86.0645H43.6484Z" fill="#407BFF"/>
<path d="M48.5148 78.2882L47.6324 74.5425C47.4096 73.5579 47.4096 72.536 47.6324 71.5513L48.8589 66.2174C49.3607 63.9428 49.089 61.5658 48.0868 59.4632C47.0846 57.3605 45.4093 55.6525 43.3265 54.6099C43.3656 54.5117 43.3994 54.4116 43.4279 54.3099C43.5004 53.9863 43.5083 53.6516 43.4514 53.3249C43.3945 52.9983 43.2738 52.686 43.0962 52.406C42.9186 52.126 42.6876 51.8837 42.4164 51.693C42.1451 51.5022 41.839 51.3668 41.5154 51.2944C41.1918 51.2219 40.8571 51.214 40.5305 51.2709C40.2038 51.3278 39.8916 51.4485 39.6116 51.6261C39.3316 51.8037 39.0893 52.0347 38.8985 52.3059C38.7078 52.5772 38.5723 52.8833 38.4999 53.2069C38.478 53.31 38.4647 53.4148 38.4602 53.5201C36.1318 53.5748 33.8882 54.4046 32.0846 55.8781C30.281 57.3517 29.0205 59.3848 28.5027 61.6556L27.3071 66.9939C27.0874 67.9768 26.6503 68.8979 26.0276 69.6895L23.6497 72.7116C23.4171 73.0081 23.2633 73.3586 23.2027 73.7305C23.142 74.1024 23.1765 74.4835 23.3029 74.8385C23.4293 75.1935 23.6435 75.5107 23.9255 75.7605C24.2076 76.0104 24.5483 76.1849 24.9159 76.2676L45.8721 80.9618C46.2384 81.0409 46.6188 81.0264 46.9781 80.9195C47.3373 80.8126 47.6638 80.6169 47.9272 80.3503C48.1907 80.0838 48.3827 79.755 48.4854 79.3946C48.5881 79.0341 48.5982 78.6536 48.5148 78.2882Z" fill="white"/>
<path d="M32.6874 79.4432C32.528 79.4081 32.3624 79.4128 32.2052 79.4569C32.0481 79.501 31.9042 79.5832 31.7864 79.6962C31.6687 79.8092 31.5805 79.9495 31.5299 80.1047C31.4793 80.2599 31.4677 80.4252 31.4962 80.5859C31.6165 81.2948 31.9451 81.9518 32.4402 82.4734C32.9352 82.9949 33.5743 83.3573 34.2759 83.5143C34.9776 83.6714 35.7102 83.6161 36.3803 83.3554C37.0505 83.0948 37.6279 82.6405 38.039 82.0506C38.1329 81.9176 38.1926 81.7636 38.213 81.6021C38.2334 81.4406 38.2137 81.2766 38.1557 81.1244C38.0978 80.9723 38.0033 80.8368 37.8806 80.7298C37.7579 80.6228 37.6108 80.5476 37.4522 80.5109L32.6874 79.4432Z" fill="white"/>
<path d="M16.5909 72.0314C16.4815 72.0323 16.3738 72.0056 16.2774 71.954C16.1811 71.9024 16.0992 71.8273 16.0394 71.7358C13.9556 68.614 13.1973 64.7923 13.9312 61.1113C14.6651 57.4303 16.831 54.1916 19.9527 52.1076C20.0989 52.0105 20.2778 51.9754 20.4499 52.0102C20.622 52.0449 20.7732 52.1466 20.8703 52.2929C20.9675 52.4391 21.0025 52.618 20.9678 52.7901C20.933 52.9622 20.8313 53.1134 20.685 53.2105C17.8591 55.1033 15.9001 58.0404 15.2383 61.3766C14.5765 64.7129 15.2661 68.1754 17.1556 71.0035C17.2532 71.1492 17.2889 71.3277 17.255 71.4997C17.2211 71.6718 17.1203 71.8234 16.9747 71.9211C16.8609 71.996 16.727 72.0345 16.5909 72.0314Z" fill="white"/>
<path d="M19.3952 70.153C19.2867 70.1523 19.1801 70.125 19.0847 70.0734C18.9893 70.0219 18.9081 69.9477 18.8481 69.8574C17.2621 67.4792 16.6849 64.5688 17.2432 61.7653C17.8016 58.9619 19.4499 56.4947 21.8261 54.9057C21.8985 54.8573 21.9797 54.8237 22.0652 54.8067C22.1506 54.7897 22.2385 54.7897 22.3239 54.8067C22.4093 54.8237 22.4906 54.8574 22.563 54.9058C22.6354 54.9542 22.6976 55.0163 22.7459 55.0888C22.7943 55.1612 22.828 55.2424 22.8449 55.3278C22.8619 55.4133 22.8619 55.5012 22.8449 55.5866C22.8279 55.672 22.7942 55.7533 22.7459 55.8257C22.6975 55.8981 22.6353 55.9602 22.5628 56.0086C20.4772 57.4005 19.0299 59.5638 18.5393 62.0228C18.0486 64.4818 18.5549 67.0349 19.9466 69.1206C20.0442 69.2663 20.08 69.4448 20.0461 69.6169C20.0122 69.7889 19.9113 69.9405 19.7657 70.0383C19.656 70.1117 19.5272 70.1516 19.3952 70.153Z" fill="white"/>
<path d="M22.2014 68.2685C22.0933 68.2691 21.9867 68.2428 21.8912 68.192C21.7957 68.1411 21.7143 68.0674 21.6544 67.9773C21.1138 67.1679 20.7382 66.2599 20.549 65.3052C20.3598 64.3505 20.3606 63.3678 20.5516 62.4134C20.7426 61.459 21.1198 60.5517 21.6618 59.7433C22.2038 58.9349 22.8999 58.2413 23.7103 57.7022C23.856 57.6117 24.0311 57.5813 24.1988 57.6174C24.3664 57.6535 24.5135 57.7533 24.6091 57.8957C24.7046 58.0381 24.7411 58.2121 24.7109 58.3809C24.6807 58.5498 24.5861 58.7003 24.4471 58.8007C23.7824 59.2444 23.2117 59.8147 22.7675 60.479C22.3233 61.1433 22.0143 61.8887 21.8582 62.6724C21.7021 63.4562 21.7019 64.263 21.8577 65.0468C22.0135 65.8306 22.3222 66.5761 22.7662 67.2406C22.8626 67.3866 22.8977 67.5647 22.8638 67.7365C22.83 67.9082 22.7299 68.0597 22.5853 68.1582C22.4715 68.2331 22.3376 68.2716 22.2014 68.2685Z" fill="white"/>
<path d="M54.7461 81.3289C54.5982 81.3286 54.4546 81.2786 54.3383 81.1871C54.222 81.0956 54.1398 80.9677 54.1048 80.8239C54.0697 80.6802 54.0839 80.5288 54.1449 80.394C54.206 80.2592 54.3105 80.1488 54.4417 80.0804C57.4644 78.5186 59.7433 75.8206 60.7774 72.5792C61.8115 69.3379 61.5162 65.8185 59.9565 62.7948C59.9091 62.7172 59.8782 62.6306 59.8657 62.5405C59.8533 62.4504 59.8595 62.3587 59.8841 62.2711C59.9086 62.1836 59.951 62.102 60.0085 62.0315C60.066 61.961 60.1374 61.9032 60.2183 61.8615C60.2991 61.8199 60.3877 61.7954 60.4785 61.7895C60.5692 61.7836 60.6602 61.7965 60.7458 61.8273C60.8314 61.8582 60.9096 61.9064 60.9757 61.9688C61.0419 62.0313 61.0944 62.1067 61.1301 62.1904C61.9821 63.8427 62.5002 65.6467 62.6549 67.4992C62.8095 69.3518 62.5977 71.2167 62.0315 72.9874C61.4653 74.7582 60.5558 76.4 59.355 77.8191C58.1541 79.2383 56.6855 80.4069 55.0329 81.2584C54.9434 81.3021 54.8457 81.3262 54.7461 81.3289Z" fill="white"/>
<path d="M53.199 78.3236C53.051 78.3232 52.9074 78.2733 52.7912 78.1817C52.6749 78.0902 52.5927 77.9623 52.5577 77.8186C52.5226 77.6748 52.5367 77.5234 52.5978 77.3886C52.6589 77.2539 52.7634 77.1434 52.8946 77.075C53.9986 76.5058 54.9796 75.7246 55.7814 74.776C56.5833 73.8274 57.1902 72.73 57.5676 71.5467C57.945 70.3633 58.0854 69.1171 57.9808 67.8795C57.8761 66.6418 57.5286 65.4369 56.9579 64.3336C56.8772 64.1774 56.8618 63.9955 56.9152 63.828C56.9685 63.6604 57.0863 63.521 57.2425 63.4402C57.3987 63.3595 57.5806 63.3441 57.7481 63.3975C57.9156 63.4508 58.0551 63.5686 58.1359 63.7248C58.7861 64.9824 59.1821 66.3559 59.3012 67.7667C59.4203 69.1775 59.2602 70.598 58.8299 71.9468C58.3997 73.2957 57.7078 74.5465 56.7939 75.6278C55.8799 76.7091 54.7618 77.5997 53.5034 78.2486C53.4098 78.2986 53.3052 78.3244 53.199 78.3236Z" fill="white"/>
<path d="M51.647 75.337C51.4996 75.3346 51.3571 75.2833 51.2419 75.1913C51.1267 75.0992 51.0453 74.9715 51.0105 74.8282C50.9757 74.6849 50.9894 74.5341 51.0495 74.3994C51.1096 74.2647 51.2127 74.1538 51.3426 74.084C52.0529 73.7185 52.6842 73.2165 53.2002 72.6067C53.7163 71.9969 54.107 71.2913 54.35 70.5303C54.593 69.7693 54.6835 68.9678 54.6164 68.1718C54.5493 67.3758 54.3258 66.6008 53.9588 65.8912C53.8781 65.735 53.8627 65.5532 53.9161 65.3856C53.9695 65.2181 54.0872 65.0786 54.2434 64.9978C54.3996 64.9171 54.5815 64.9017 54.749 64.9551C54.9166 65.0085 55.0561 65.1262 55.1368 65.2824C56.0347 67.0297 56.2026 69.0619 55.6038 70.9329C55.0049 72.8038 53.6882 74.3608 51.9426 75.262C51.8511 75.3092 51.75 75.3349 51.647 75.337Z" fill="white"/>
<path d="M90.3994 2C84.8894 2 80.3994 6.49 80.3994 12C80.3994 17.51 84.8894 22 90.3994 22C95.9094 22 100.399 17.51 100.399 12C100.399 6.49 95.9094 2 90.3994 2ZM95.1794 9.7L89.5094 15.37C89.3694 15.51 89.1794 15.59 88.9794 15.59C88.7794 15.59 88.5894 15.51 88.4494 15.37L85.6194 12.54C85.3294 12.25 85.3294 11.77 85.6194 11.48C85.9094 11.19 86.3894 11.19 86.6794 11.48L88.9794 13.78L94.1194 8.64C94.4094 8.35 94.8894 8.35 95.1794 8.64C95.4694 8.93 95.4694 9.4 95.1794 9.7Z" fill="#28C269"/>
</svg>
