<svg width="164" height="122" viewBox="0 0 164 122" fill="none" xmlns="http://www.w3.org/2000/svg">
<path d="M163.288 106.961H0.650391V107.042H163.288V106.961Z" fill="#EBEBEB"/>
<path d="M146.992 112.188H136.219V112.269H146.992V112.188Z" fill="#EBEBEB"/>
<path d="M98.7016 112.234H95.875V112.316H98.7016V112.234Z" fill="#EBEBEB"/>
<path d="M135.889 109.164H115.904V109.245H135.889V109.164Z" fill="#EBEBEB"/>
<path d="M73.8816 111.086H69.7539V111.167H73.8816V111.086Z" fill="#EBEBEB"/>
<path d="M66.8607 111.086H54.8809V111.167H66.8607V111.086Z" fill="#EBEBEB"/>
<path d="M25.9866 109.727H17.7148V109.808H25.9866V109.727Z" fill="#EBEBEB"/>
<path d="M52.2973 109.727H27.9375V109.808H52.2973V109.727Z" fill="#EBEBEB"/>
<path d="M77.7394 92.4485H14.9322C14.4402 92.4476 13.9686 92.2516 13.621 91.9034C13.2734 91.5552 13.0781 91.0832 13.0781 90.5912V2.30199C13.0824 1.81279 13.2795 1.34503 13.6267 1.00031C13.9738 0.655601 14.443 0.461776 14.9322 0.460938H77.7394C78.232 0.460938 78.7044 0.656619 79.0527 1.00493C79.4011 1.35325 79.5967 1.82566 79.5967 2.31825V90.5912C79.5967 91.0838 79.4011 91.5562 79.0527 91.9045C78.7044 92.2528 78.232 92.4485 77.7394 92.4485ZM14.9322 0.525993C14.4617 0.526854 14.0108 0.714347 13.6785 1.04732C13.3461 1.38029 13.1594 1.83153 13.1594 2.30199V90.5912C13.1594 91.0617 13.3461 91.5129 13.6785 91.8459C14.0108 92.1788 14.4617 92.3663 14.9322 92.3672H77.7394C78.2102 92.3663 78.6614 92.1789 78.9943 91.8461C79.3272 91.5132 79.5146 91.062 79.5154 90.5912V2.30199C79.5146 1.83123 79.3272 1.38 78.9943 1.04712C78.6614 0.714242 78.2102 0.526852 77.7394 0.525993H14.9322Z" fill="#EBEBEB"/>
<path d="M148.099 92.4485H85.289C84.7966 92.4476 84.3247 92.2517 83.9766 91.9036C83.6285 91.5554 83.4325 91.0835 83.4316 90.5912V2.30199C83.4368 1.81249 83.6346 1.34473 83.9823 1.00011C84.33 0.655487 84.7994 0.461766 85.289 0.460938H148.099C148.588 0.46263 149.056 0.656834 149.403 1.00145C149.749 1.34608 149.946 1.81335 149.95 2.30199V90.5912C149.95 91.0827 149.755 91.5541 149.409 91.9022C149.062 92.2504 148.591 92.4468 148.099 92.4485ZM85.289 0.525993C84.8182 0.526852 84.367 0.714242 84.0341 1.04712C83.7012 1.38 83.5138 1.83123 83.513 2.30199V90.5912C83.5138 91.062 83.7012 91.5132 84.0341 91.8461C84.367 92.1789 84.8182 92.3663 85.289 92.3672H148.099C148.57 92.3663 149.021 92.1789 149.354 91.8461C149.687 91.5132 149.875 91.062 149.875 90.5912V2.30199C149.875 1.83123 149.687 1.38 149.354 1.04712C149.021 0.714242 148.57 0.526852 148.099 0.525993H85.289Z" fill="#EBEBEB"/>
<path d="M62.707 63.7344L141.762 63.7344V5.98842L62.707 5.98842V63.7344Z" fill="#E6E6E6"/>
<path d="M59.213 63.7344L140.951 63.7344V5.98842L59.213 5.98842V63.7344Z" fill="#F0F0F0"/>
<path d="M136.057 58.8367V10.875L64.1027 10.875V58.8367L136.057 58.8367Z" fill="#FAFAFA"/>
<path d="M118.564 58.8335L102.183 10.875H86.541L102.922 58.8335H118.564Z" fill="white"/>
<path d="M99.5624 58.8335L83.1816 10.875H77.0859L93.4668 58.8335H99.5624Z" fill="white"/>
<path d="M64.7266 58.8367V10.875H64.1053V58.8367H64.7266Z" fill="#E6E6E6"/>
<path d="M21.6533 48.0234H49.5684L49.5684 8.44731H21.6533L21.6533 48.0234Z" fill="#E0E0E0"/>
<path d="M19.6794 48.0234H48.4531L48.4531 8.44731H19.6794L19.6794 48.0234Z" fill="#F5F5F5"/>
<path d="M45.6133 44.8999V11.5625L22.5188 11.5625L22.5188 44.8999H45.6133Z" fill="white"/>
<path d="M32.5037 75.7353C34.5757 70.622 39.5036 68.7192 41.2081 65.4892C43.4362 61.2606 43.4232 54.9145 41.5333 52.6278C39.881 50.6372 34.4163 64.0905 33.8016 65.5933C32.115 69.6491 31.0597 73.9393 30.6724 78.3148C30.718 75.1563 30.7603 72.2549 30.796 70.017C30.9131 62.7179 31.0563 60.3694 31.1213 59.6473C31.349 59.2927 31.619 58.8829 31.7719 58.6714C33.0957 56.8076 36.0297 54.586 37.4967 51.8765C39.637 47.9179 39.2922 43.1819 37.7894 41.4189C36.2184 39.5746 33.4438 43.9333 31.9703 48.2496C30.4968 52.566 31.1246 56.7068 30.7115 60.2848C30.6269 60.9874 30.5358 63.6579 30.4545 67.366C30.0056 63.3782 29.1144 60.7077 27.4652 58.2161C25.4355 55.1552 23.6823 51.4276 22.0104 51.909C20.3385 52.3904 21.2362 57.3248 22.5601 60.7857C23.7441 63.8693 29.5502 66.9464 30.4057 69.425C30.3049 74.4472 30.2138 80.8096 30.152 86.7394C29.6934 83.6785 30.0089 83.4216 28.1288 78.7344C27.0131 75.95 22.443 72.5151 21.89 74.4277C21.3371 76.3403 22.173 79.9574 23.9002 82.4945C25.2956 84.5373 28.389 84.534 29.1046 85.8026C29.2705 86.0986 29.8235 87.2338 30.139 87.8843C30.0642 95.1184 30.0316 101.507 30.0674 103.683L30.3667 103.706C30.3667 103.143 30.3894 99.4771 30.448 94.598C31.1994 91.9958 36.2574 90.4963 37.8187 87.7998C39.4451 84.9796 40.6291 81.6878 39.9265 79.4857C39.341 77.6479 34.7221 80.1363 32.8648 83.1906C31.619 85.2203 30.8578 87.3834 30.5033 90.2914C30.5456 86.9736 30.5944 83.4085 30.6399 80.0452C31.0205 79.1995 31.8759 77.2674 32.5037 75.7353Z" fill="#E6E6E6"/>
<path d="M35.4748 106.957H24.8449C24.564 106.957 24.2918 106.86 24.0743 106.682C23.8568 106.504 23.7073 106.257 23.6511 105.982L22.8965 102.273H37.4265L36.6719 105.991C36.6125 106.265 36.4614 106.51 36.2437 106.685C36.0259 106.861 35.7546 106.957 35.4748 106.957Z" fill="#F0F0F0"/>
<path d="M37.7329 103.708H22.5914C22.416 103.707 22.2469 103.642 22.1162 103.526C21.9854 103.409 21.9022 103.248 21.8823 103.073L21.557 100.325C21.5461 100.225 21.5562 100.124 21.5868 100.029C21.6174 99.933 21.6678 99.8449 21.7347 99.7701C21.8016 99.6952 21.8834 99.6353 21.975 99.5941C22.0665 99.553 22.1657 99.5316 22.2661 99.5313H38.0224C38.1229 99.5311 38.2224 99.5521 38.3142 99.5931C38.406 99.6341 38.488 99.694 38.555 99.769C38.622 99.844 38.6723 99.9323 38.7028 100.028C38.7332 100.124 38.743 100.225 38.7315 100.325L38.4062 103.073C38.3872 103.242 38.3091 103.398 38.1858 103.514C38.0625 103.63 37.902 103.699 37.7329 103.708Z" fill="#F0F0F0"/>
<path d="M132.592 104.586H135.842V69.6222H132.592V104.586Z" fill="#F0F0F0"/>
<path d="M66.374 106.914L134.594 106.914V104.585L66.374 104.585V106.914Z" fill="#F0F0F0"/>
<path d="M132.594 69.625H65.1289V104.589H132.594V69.625Z" fill="#F5F5F5"/>
<path d="M133.358 69.625H136.715V67.4196H133.358V69.625Z" fill="#E0E0E0"/>
<path d="M133.36 67.4141H64.2559V69.6194H133.36V67.4141Z" fill="#EBEBEB"/>
<path d="M127.749 84.7013H69.9674C69.2773 84.7013 68.6154 84.4272 68.1274 83.9392C67.6394 83.4512 67.3652 82.7893 67.3652 82.0991V74.6178C67.3652 73.9277 67.6394 73.2658 68.1274 72.7778C68.6154 72.2898 69.2773 72.0156 69.9674 72.0156H127.749C128.439 72.0156 129.101 72.2898 129.589 72.7778C130.077 73.2658 130.351 73.9277 130.351 74.6178V82.0991C130.351 82.7893 130.077 83.4512 129.589 83.9392C129.101 84.4272 128.439 84.7013 127.749 84.7013ZM69.9674 72.6662C69.4498 72.6662 68.9534 72.8718 68.5874 73.2378C68.2214 73.6038 68.0158 74.1002 68.0158 74.6178V82.0991C68.0158 82.6167 68.2214 83.1131 68.5874 83.4792C68.9534 83.8452 69.4498 84.0508 69.9674 84.0508H127.749C128.267 84.0508 128.763 83.8452 129.129 83.4792C129.495 83.1131 129.701 82.6167 129.701 82.0991V74.6178C129.701 74.1002 129.495 73.6038 129.129 73.2378C128.763 72.8718 128.267 72.6662 127.749 72.6662H69.9674Z" fill="white"/>
<path d="M127.749 100.381H69.9674C69.2773 100.381 68.6154 100.107 68.1274 99.6188C67.6394 99.1308 67.3652 98.469 67.3652 97.7788V90.2975C67.3652 89.6074 67.6394 88.9455 68.1274 88.4575C68.6154 87.9695 69.2773 87.6953 69.9674 87.6953H127.749C128.439 87.6953 129.101 87.9695 129.589 88.4575C130.077 88.9455 130.351 89.6074 130.351 90.2975V97.7788C130.351 98.469 130.077 99.1308 129.589 99.6188C129.101 100.107 128.439 100.381 127.749 100.381ZM69.9674 88.3198C69.4498 88.3198 68.9534 88.5255 68.5874 88.8915C68.2214 89.2575 68.0158 89.7539 68.0158 90.2715V97.7528C68.0158 98.2704 68.2214 98.7668 68.5874 99.1328C68.9534 99.4988 69.4498 99.7044 69.9674 99.7044H127.749C128.267 99.7044 128.763 99.4988 129.129 99.1328C129.495 98.7668 129.701 98.2704 129.701 97.7528V90.2715C129.701 89.7539 129.495 89.2575 129.129 88.8915C128.763 88.5255 128.267 88.3198 127.749 88.3198H69.9674Z" fill="white"/>
<path d="M114.619 79.5061H83.0996C82.8759 79.5061 82.6613 79.4174 82.5028 79.2595C82.3442 79.1016 82.2548 78.8873 82.2539 78.6636V78.0456C82.2548 77.8219 82.3442 77.6076 82.5028 77.4497C82.6613 77.2918 82.8759 77.2031 83.0996 77.2031H114.619C114.842 77.2031 115.057 77.2918 115.216 77.4497C115.374 77.6076 115.464 77.8219 115.464 78.0456V78.6636C115.464 78.8873 115.374 79.1016 115.216 79.2595C115.057 79.4174 114.842 79.5061 114.619 79.5061ZM83.0996 77.8797C83.0487 77.8805 83 77.9009 82.9636 77.9366C82.9273 77.9723 82.9061 78.0207 82.9045 78.0716V78.6896C82.9061 78.7406 82.9273 78.7889 82.9636 78.8246C83 78.8604 83.0487 78.8807 83.0996 78.8815H114.619C114.67 78.8815 114.719 78.8614 114.756 78.8255C114.792 78.7896 114.813 78.7408 114.814 78.6896V78.0716C114.813 78.0204 114.792 77.9716 114.756 77.9357C114.719 77.8998 114.67 77.8797 114.619 77.8797H83.0996Z" fill="white"/>
<path d="M114.619 95.1779H83.0996C82.8759 95.1779 82.6613 95.0893 82.5028 94.9314C82.3442 94.7735 82.2548 94.5592 82.2539 94.3355V93.7175C82.2548 93.4937 82.3442 93.2795 82.5028 93.1216C82.6613 92.9637 82.8759 92.875 83.0996 92.875H114.619C114.842 92.875 115.057 92.9637 115.216 93.1216C115.374 93.2795 115.464 93.4937 115.464 93.7175V94.3355C115.464 94.5592 115.374 94.7735 115.216 94.9314C115.057 95.0893 114.842 95.1779 114.619 95.1779ZM83.0996 93.5255C83.0487 93.5264 83 93.5467 82.9636 93.5825C82.9273 93.6182 82.9061 93.6665 82.9045 93.7175V94.3355C82.9061 94.3864 82.9273 94.4348 82.9636 94.4705C83 94.5062 83.0487 94.5266 83.0996 94.5274H114.619C114.67 94.5274 114.719 94.5073 114.756 94.4714C114.792 94.4355 114.813 94.3867 114.814 94.3355V93.7175C114.813 93.6663 114.792 93.6175 114.756 93.5816C114.719 93.5457 114.67 93.5255 114.619 93.5255H83.0996Z" fill="white"/>
<path d="M80.3428 121.653C115.174 121.653 143.41 120.005 143.41 117.971C143.41 115.938 115.174 114.289 80.3428 114.289C45.5117 114.289 17.2754 115.938 17.2754 117.971C17.2754 120.005 45.5117 121.653 80.3428 121.653Z" fill="#F5F5F5"/>
<path d="M122.557 37.1318L122.434 39.0469L122.758 39.0679L122.882 37.1527L122.557 37.1318Z" fill="#407BFF"/>
<path d="M123.05 29.3544L122.645 35.6484L122.969 35.6694L123.375 29.3754L123.05 29.3544Z" fill="#407BFF"/>
<path d="M119.191 20.2111H80.9552C79.9734 20.2284 79.0332 20.6108 78.3181 21.2837C77.603 21.9567 77.1644 22.872 77.0877 23.851L72.1468 100.128C72.1107 100.595 72.1722 101.065 72.3274 101.508C72.4826 101.95 72.7281 102.356 73.0484 102.698C73.3686 103.041 73.7566 103.313 74.1876 103.498C74.6187 103.682 75.0835 103.775 75.5524 103.771H113.782C114.765 103.755 115.708 103.372 116.425 102.699C117.141 102.025 117.582 101.108 117.659 100.128L122.597 23.851C122.633 23.3835 122.571 22.9137 122.416 22.4714C122.261 22.029 122.015 21.6238 121.695 21.2815C121.375 20.9392 120.987 20.6673 120.556 20.483C120.125 20.2987 119.66 20.2061 119.191 20.2111Z" fill="#407BFF"/>
<path opacity="0.7" d="M117.978 20.2111H80.9552C79.9734 20.2284 79.0332 20.6108 78.3181 21.2837C77.603 21.9567 77.1644 22.872 77.0877 23.851L72.1468 100.128C72.1107 100.595 72.1722 101.065 72.3274 101.508C72.4826 101.95 72.7281 102.356 73.0484 102.698C73.3686 103.041 73.7566 103.313 74.1876 103.498C74.6187 103.682 75.0835 103.775 75.5524 103.771H112.569C113.552 103.755 114.494 103.372 115.211 102.699C115.928 102.025 116.368 101.108 116.446 100.128L121.384 23.851C121.42 23.3835 121.358 22.9137 121.203 22.4714C121.048 22.029 120.802 21.6238 120.482 21.2815C120.161 20.9392 119.773 20.6673 119.342 20.483C118.911 20.2987 118.447 20.2061 117.978 20.2111Z" fill="white"/>
<path d="M114.857 98.1309H74.1323C73.98 98.1312 73.8293 98.1003 73.6894 98.0399C73.5496 97.9796 73.4236 97.8912 73.3193 97.7802C73.215 97.6692 73.1346 97.538 73.0831 97.3946C73.0316 97.2513 73.0101 97.0989 73.0199 96.9469L77.4891 27.9237C77.5073 27.6418 77.6321 27.3774 77.838 27.1841C78.044 26.9908 78.3158 26.8831 78.5983 26.8828H119.326C119.478 26.8829 119.629 26.9143 119.769 26.975C119.909 27.0357 120.035 27.1244 120.139 27.2357C120.243 27.3469 120.324 27.4784 120.375 27.6219C120.427 27.7654 120.448 27.9179 120.438 28.0701L115.969 97.09C115.951 97.3725 115.826 97.6374 115.619 97.8308C115.412 98.0242 115.14 98.1315 114.857 98.1309Z" fill="white"/>
<path d="M105.805 24.6261H91.0019C90.9257 24.6268 90.8502 24.6116 90.7802 24.5816C90.7102 24.5516 90.6473 24.5073 90.5953 24.4517C90.5433 24.396 90.5034 24.3301 90.4782 24.2583C90.453 24.1864 90.443 24.1101 90.4489 24.0341C90.4639 23.8764 90.5359 23.7295 90.6515 23.6211C90.7671 23.5127 90.9183 23.4502 91.0767 23.4454H105.88C105.956 23.4442 106.031 23.459 106.101 23.4886C106.171 23.5183 106.234 23.5622 106.286 23.6177C106.338 23.6731 106.378 23.7387 106.404 23.8104C106.429 23.8821 106.439 23.9583 106.433 24.0341C106.419 24.1925 106.347 24.3401 106.231 24.4492C106.116 24.5583 105.964 24.6212 105.805 24.6261Z" fill="white"/>
<path d="M94.252 101.033C94.2281 101.423 94.0576 101.79 93.7745 102.059C93.4915 102.328 93.117 102.48 92.7264 102.484C92.5389 102.486 92.353 102.449 92.1803 102.376C92.0076 102.302 91.8519 102.194 91.7228 102.058C91.5937 101.922 91.4941 101.761 91.43 101.585C91.366 101.408 91.3389 101.221 91.3505 101.033C91.3751 100.644 91.5461 100.279 91.829 100.01C92.112 99.7417 92.486 99.5902 92.8761 99.586C93.0635 99.5839 93.2493 99.6204 93.422 99.6933C93.5946 99.7662 93.7504 99.874 93.8795 100.01C94.0087 100.146 94.1084 100.307 94.1725 100.483C94.2365 100.659 94.2636 100.846 94.252 101.033Z" fill="white"/>
<path opacity="0.2" d="M110.419 45.9844H75.6435L73.4316 80.1057H110.419C111.384 80.1039 112.309 79.72 112.992 79.0379C113.674 78.3557 114.059 77.4309 114.062 76.4658V49.6372C114.063 48.6698 113.679 47.7417 112.996 47.0568C112.313 46.3718 111.386 45.9861 110.419 45.9844Z" fill="#407BFF"/>
<path d="M107.18 42.9844H64.563C62.551 42.9844 60.9199 44.6154 60.9199 46.6274V73.4658C60.9199 75.4778 62.551 77.1089 64.563 77.1089H107.18C109.192 77.1089 110.824 75.4778 110.824 73.4658V46.6274C110.824 44.6154 109.192 42.9844 107.18 42.9844Z" fill="#407BFF"/>
<path d="M59.7565 42.5857C59.6712 42.5853 59.5894 42.5515 59.5288 42.4914L58.9433 41.9091C58.8821 41.8479 58.8477 41.7648 58.8477 41.6782C58.8477 41.5916 58.8821 41.5085 58.9433 41.4472C59.0046 41.386 59.0876 41.3516 59.1743 41.3516C59.2609 41.3516 59.344 41.386 59.4052 41.4472L59.9874 42.0327C60.048 42.0937 60.082 42.1761 60.082 42.262C60.082 42.348 60.048 42.4304 59.9874 42.4914C59.9571 42.5215 59.921 42.5454 59.8814 42.5615C59.8417 42.5777 59.7993 42.5859 59.7565 42.5857Z" fill="#407BFF"/>
<path d="M58.8748 44.6349H58.0518C57.9656 44.6349 57.8828 44.6007 57.8218 44.5397C57.7608 44.4787 57.7266 44.3959 57.7266 44.3096C57.7266 44.2234 57.7608 44.1406 57.8218 44.0796C57.8828 44.0186 57.9656 43.9844 58.0518 43.9844H58.8748C58.961 43.9844 59.0438 44.0186 59.1048 44.0796C59.1658 44.1406 59.2001 44.2234 59.2001 44.3096C59.2001 44.3959 59.1658 44.4787 59.1048 44.5397C59.0438 44.6007 58.961 44.6349 58.8748 44.6349Z" fill="#407BFF"/>
<path d="M61.828 41.7085C61.7456 41.7087 61.6661 41.6776 61.6057 41.6214C61.5453 41.5653 61.5085 41.4883 61.5028 41.406L61.4442 40.583C61.4411 40.5403 61.4465 40.4974 61.46 40.4567C61.4736 40.4161 61.495 40.3785 61.5231 40.3462C61.5512 40.3138 61.5855 40.2874 61.6238 40.2683C61.6622 40.2492 61.704 40.2379 61.7467 40.235C61.8325 40.2297 61.9169 40.2585 61.9815 40.3151C62.0461 40.3718 62.0857 40.4518 62.0915 40.5375L62.1533 41.3605C62.1564 41.4032 62.151 41.4461 62.1375 41.4868C62.1239 41.5274 62.1025 41.565 62.0744 41.5973C62.0463 41.6297 62.0121 41.6562 61.9737 41.6752C61.9353 41.6943 61.8936 41.7056 61.8508 41.7085H61.828Z" fill="#407BFF"/>
<path d="M89.5137 73.5938L102.599 86.6763V73.5938H89.5137Z" fill="#407BFF"/>
<path d="M93.1014 67.8609L92.4509 65.0993C92.2866 64.3734 92.2866 63.6199 92.4509 62.894L93.3551 58.9614C93.7251 57.2844 93.5248 55.5319 92.7859 53.9817C92.047 52.4314 90.8119 51.1722 89.2762 50.4034C89.305 50.3311 89.33 50.2573 89.351 50.1823C89.4044 49.9437 89.4103 49.6969 89.3683 49.4561C89.3264 49.2153 89.2374 48.985 89.1064 48.7786C88.9755 48.5722 88.8052 48.3935 88.6052 48.2529C88.4052 48.1123 88.1795 48.0124 87.941 47.959C87.7024 47.9056 87.4556 47.8997 87.2148 47.9417C86.974 47.9837 86.7437 48.0727 86.5373 48.2036C86.3309 48.3345 86.1522 48.5048 86.0116 48.7048C85.871 48.9048 85.7711 49.1305 85.7177 49.3691C85.7016 49.4451 85.6918 49.5224 85.6884 49.6C83.9718 49.6403 82.3176 50.2521 80.9878 51.3385C79.6581 52.4249 78.7287 53.9239 78.347 55.5981L77.4655 59.5339C77.3036 60.2586 76.9812 60.9377 76.5222 61.5213L74.769 63.7495C74.5975 63.968 74.4841 64.2264 74.4394 64.5006C74.3947 64.7748 74.4201 65.0558 74.5133 65.3175C74.6065 65.5793 74.7644 65.8131 74.9724 65.9973C75.1803 66.1816 75.4315 66.3102 75.7025 66.3712L91.153 69.8321C91.4231 69.8904 91.7036 69.8797 91.9684 69.8009C92.2333 69.7221 92.474 69.5778 92.6682 69.3813C92.8625 69.1847 93.004 68.9424 93.0798 68.6766C93.1555 68.4109 93.1629 68.1303 93.1014 67.8609Z" fill="white"/>
<path d="M81.4325 68.7125C81.3149 68.6866 81.1928 68.69 81.077 68.7226C80.9611 68.7551 80.855 68.8157 80.7682 68.899C80.6814 68.9823 80.6164 69.0858 80.5791 69.2002C80.5417 69.3146 80.5332 69.4365 80.5542 69.555C80.6429 70.0776 80.8852 70.562 81.2502 70.9465C81.6152 71.331 82.0863 71.5982 82.6036 71.714C83.121 71.8299 83.6611 71.7891 84.1552 71.5969C84.6492 71.4047 85.0749 71.0698 85.378 70.6349C85.4473 70.5368 85.4913 70.4233 85.5064 70.3042C85.5214 70.1851 85.5069 70.0642 85.4641 69.952C85.4214 69.8399 85.3517 69.7399 85.2613 69.6611C85.1708 69.5822 85.0623 69.5267 84.9454 69.4997L81.4325 68.7125Z" fill="white"/>
<path d="M69.5647 63.2474C69.4841 63.248 69.4046 63.2284 69.3336 63.1903C69.2626 63.1523 69.2022 63.0969 69.1581 63.0295C67.6218 60.7278 67.0627 57.9101 67.6038 55.1963C68.1449 52.4824 69.7418 50.0946 72.0433 48.558C72.1511 48.4864 72.283 48.4606 72.4099 48.4862C72.5368 48.5118 72.6483 48.5868 72.7199 48.6946C72.7915 48.8025 72.8173 48.9343 72.7917 49.0612C72.7661 49.1881 72.6911 49.2996 72.5832 49.3712C70.4997 50.7667 69.0554 52.9322 68.5675 55.3919C68.0795 57.8516 68.588 60.4044 69.981 62.4895C70.053 62.597 70.0794 62.7286 70.0544 62.8554C70.0294 62.9823 69.955 63.094 69.8477 63.1661C69.7638 63.2213 69.6651 63.2497 69.5647 63.2474Z" fill="white"/>
<path d="M71.6324 61.8629C71.5524 61.8624 71.4738 61.8423 71.4035 61.8043C71.3332 61.7663 71.2733 61.7116 71.229 61.645C70.0597 59.8916 69.6341 57.7458 70.0458 55.6789C70.4575 53.612 71.6727 51.793 73.4246 50.6214C73.478 50.5858 73.5379 50.561 73.6009 50.5484C73.6639 50.5359 73.7287 50.5359 73.7917 50.5485C73.8547 50.561 73.9146 50.5858 73.9679 50.6215C74.0213 50.6572 74.0672 50.703 74.1028 50.7564C74.1385 50.8098 74.1633 50.8697 74.1758 50.9327C74.1883 50.9957 74.1883 51.0605 74.1758 51.1235C74.1633 51.1865 74.1384 51.2463 74.1028 51.2997C74.0671 51.3531 74.0212 51.3989 73.9678 51.4346C72.4301 52.4608 71.3631 54.0558 71.0013 55.8687C70.6396 57.6817 71.0128 59.564 72.039 61.1018C72.1109 61.2092 72.1373 61.3408 72.1123 61.4677C72.0873 61.5945 72.0129 61.7063 71.9056 61.7783C71.8247 61.8325 71.7297 61.8619 71.6324 61.8629Z" fill="white"/>
<path d="M73.7014 60.4731C73.6216 60.4736 73.543 60.4542 73.4726 60.4167C73.4022 60.3792 73.3422 60.3249 73.298 60.2585C72.8995 59.6617 72.6226 58.9922 72.4831 58.2883C72.3435 57.5845 72.3442 56.86 72.485 56.1563C72.6258 55.4527 72.9039 54.7837 73.3035 54.1877C73.7031 53.5917 74.2164 53.0803 74.8138 52.6828C74.9212 52.6161 75.0504 52.5937 75.174 52.6203C75.2976 52.6469 75.406 52.7205 75.4765 52.8255C75.5469 52.9305 75.5738 53.0588 75.5515 53.1833C75.5293 53.3077 75.4595 53.4187 75.357 53.4928C74.867 53.8199 74.4462 54.2403 74.1187 54.7301C73.7912 55.2199 73.5634 55.7694 73.4483 56.3473C73.3332 56.9251 73.3331 57.52 73.448 58.0979C73.5628 58.6757 73.7904 59.2253 74.1177 59.7153C74.1888 59.8229 74.2147 59.9543 74.1897 60.0809C74.1648 60.2075 74.091 60.3192 73.9844 60.3918C73.9005 60.447 73.8018 60.4754 73.7014 60.4731Z" fill="white"/>
<path d="M97.6957 70.1023C97.5866 70.1021 97.4808 70.0652 97.395 69.9977C97.3093 69.9303 97.2487 69.836 97.2229 69.73C97.197 69.624 97.2075 69.5124 97.2525 69.413C97.2975 69.3137 97.3746 69.2322 97.4713 69.1818C99.6998 68.0304 101.38 66.0411 102.142 63.6514C102.905 61.2616 102.687 58.6669 101.537 56.4375C101.502 56.3803 101.479 56.3165 101.47 56.2501C101.461 56.1836 101.466 56.116 101.484 56.0515C101.502 55.9869 101.533 55.9268 101.576 55.8748C101.618 55.8228 101.671 55.7802 101.73 55.7495C101.79 55.7188 101.855 55.7007 101.922 55.6963C101.989 55.692 102.056 55.7015 102.119 55.7242C102.182 55.747 102.24 55.7825 102.289 55.8286C102.337 55.8746 102.376 55.9302 102.402 55.9919C103.031 57.2101 103.413 58.5401 103.527 59.906C103.641 61.2719 103.485 62.6468 103.067 63.9523C102.65 65.2578 101.979 66.4683 101.094 67.5146C100.208 68.5609 99.1256 69.4225 97.9072 70.0503C97.8412 70.0825 97.7691 70.1003 97.6957 70.1023Z" fill="white"/>
<path d="M96.5551 67.8871C96.446 67.8868 96.3401 67.85 96.2544 67.7825C96.1687 67.715 96.1081 67.6207 96.0822 67.5147C96.0564 67.4088 96.0668 67.2972 96.1119 67.1978C96.1569 67.0984 96.2339 67.017 96.3307 66.9665C97.1446 66.5469 97.8679 65.9709 98.459 65.2716C99.0502 64.5722 99.4977 63.7631 99.776 62.8906C100.054 62.0182 100.158 61.0994 100.081 60.1869C100.003 59.2744 99.7472 58.386 99.3264 57.5726C99.2669 57.4575 99.2556 57.3234 99.2949 57.1998C99.3343 57.0763 99.4211 56.9735 99.5362 56.9139C99.6514 56.8544 99.7855 56.8431 99.909 56.8824C100.033 56.9218 100.135 57.0086 100.195 57.1238C100.674 58.051 100.966 59.0636 101.054 60.1038C101.142 61.1439 101.024 62.1912 100.707 63.1857C100.389 64.1801 99.8794 65.1024 99.2055 65.8996C98.5317 66.6968 97.7073 67.3534 96.7795 67.8318C96.7105 67.8687 96.6334 67.8877 96.5551 67.8871Z" fill="white"/>
<path d="M95.4109 65.6852C95.3022 65.6834 95.1971 65.6456 95.1122 65.5777C95.0273 65.5098 94.9673 65.4157 94.9416 65.31C94.916 65.2044 94.9261 65.0932 94.9704 64.9939C95.0147 64.8946 95.0907 64.8129 95.1865 64.7614C95.7102 64.4919 96.1756 64.1218 96.556 63.6722C96.9365 63.2226 97.2246 62.7024 97.4037 62.1413C97.5829 61.5802 97.6496 60.9894 97.6001 60.4025C97.5507 59.8156 97.3859 59.2442 97.1153 58.7211C97.0558 58.6059 97.0445 58.4718 97.0838 58.3483C97.1232 58.2247 97.21 58.1219 97.3251 58.0624C97.4403 58.0029 97.5744 57.9915 97.6979 58.0309C97.8215 58.0702 97.9243 58.157 97.9838 58.2722C98.6458 59.5604 98.7696 61.0587 98.3281 62.4381C97.8866 63.8176 96.9158 64.9655 95.6288 65.6299C95.5614 65.6647 95.4868 65.6836 95.4109 65.6852Z" fill="white"/>
<path d="M66.7982 23.5001H64.3131C64.2486 23.5017 64.1868 23.5261 64.1386 23.569C64.0903 23.6118 64.0588 23.6704 64.0496 23.7343L63.5292 28.6914C63.5255 28.7213 63.5282 28.7516 63.5372 28.7804C63.5461 28.8091 63.5611 28.8356 63.5811 28.8581C63.6011 28.8805 63.6257 28.8985 63.6532 28.9107C63.6807 28.9229 63.7105 28.9291 63.7406 28.9289H66.2257C66.2907 28.9271 66.3529 28.9022 66.4012 28.8587C66.4495 28.8152 66.4807 28.7559 66.4892 28.6914L67.0096 23.7343C67.0134 23.7045 67.0107 23.6744 67.0017 23.6458C66.9927 23.6172 66.9777 23.5909 66.9576 23.5687C66.9375 23.5464 66.9129 23.5288 66.8854 23.517C66.8579 23.5051 66.8281 23.4994 66.7982 23.5001Z" fill="#407BFF"/>
<path opacity="0.4" d="M66.5738 23.5012H64.3131C64.2486 23.5028 64.1868 23.5272 64.1386 23.5701C64.0903 23.613 64.0588 23.6715 64.0496 23.7354L63.5292 28.6925C63.5255 28.7224 63.5282 28.7527 63.5372 28.7815C63.5461 28.8102 63.5611 28.8367 63.5811 28.8592C63.6011 28.8816 63.6257 28.8996 63.6532 28.9118C63.6807 28.924 63.7105 28.9302 63.7406 28.93H66.0175C66.0822 28.9281 66.144 28.9031 66.1917 28.8596C66.2395 28.816 66.27 28.7567 66.2778 28.6925L66.7982 23.7354C66.8029 23.7044 66.8003 23.6727 66.7909 23.6429C66.7814 23.613 66.7652 23.5858 66.7435 23.5631C66.7218 23.5405 66.6953 23.5232 66.6658 23.5124C66.6364 23.5017 66.6049 23.4978 66.5738 23.5012Z" fill="white"/>
<path d="M54.3414 115.159C54.6667 115.159 54.9919 115.111 55.1058 114.961C55.1335 114.921 55.1483 114.873 55.1483 114.824C55.1483 114.775 55.1335 114.728 55.1058 114.688C55.0584 114.615 54.9852 114.562 54.9009 114.541C54.4585 114.421 53.5607 114.948 53.5217 114.971C53.5116 114.977 53.5036 114.986 53.499 114.997C53.4943 115.009 53.4932 115.021 53.4957 115.032C53.4981 115.045 53.5043 115.057 53.5136 115.067C53.5229 115.076 53.5348 115.082 53.5477 115.084C53.8097 115.132 54.0752 115.157 54.3414 115.159ZM54.7382 114.649C54.7782 114.643 54.8186 114.643 54.8586 114.649C54.9103 114.661 54.9555 114.692 54.9854 114.736C55.031 114.815 55.018 114.854 54.9854 114.873C54.8716 115.045 54.2048 115.049 53.7136 114.98C54.0291 114.801 54.3777 114.688 54.7382 114.649Z" fill="#407BFF"/>
<path d="M53.5439 115.093H53.5699C53.8952 114.95 54.4872 114.381 54.4254 114.081C54.4254 114.013 54.357 113.925 54.1846 113.909C54.1236 113.902 54.0619 113.908 54.0032 113.926C53.9445 113.944 53.89 113.973 53.8431 114.013C53.5178 114.29 53.4821 114.989 53.4788 115.028C53.4784 115.039 53.4809 115.051 53.486 115.061C53.4911 115.071 53.4987 115.08 53.5081 115.086C53.5191 115.092 53.5316 115.094 53.5439 115.093ZM54.1424 114.026H54.1781C54.292 114.026 54.3017 114.081 54.3017 114.094C54.3408 114.273 53.9309 114.722 53.6154 114.917C53.6353 114.619 53.7492 114.334 53.9407 114.104C53.997 114.056 54.0682 114.028 54.1424 114.026Z" fill="#407BFF"/>
<path d="M53.2775 108.93H50.6428V115.029H53.2775V108.93Z" fill="#FF8B7B"/>
<path d="M31.5334 112.115L34.1649 112.402L35.8791 106.482L33.2476 106.195L31.5334 112.115Z" fill="#FF8B7B"/>
<path d="M35.3909 113.003C35.7162 113.087 36.0414 113.123 36.1878 113.003C36.2236 112.969 36.2479 112.926 36.2572 112.878C36.2666 112.83 36.2605 112.78 36.2399 112.736C36.2265 112.695 36.2052 112.658 36.1773 112.625C36.1494 112.593 36.1154 112.566 36.0772 112.547C35.6706 112.323 34.6623 112.606 34.62 112.616C34.6076 112.619 34.5966 112.626 34.5884 112.636C34.5802 112.646 34.5754 112.658 34.5745 112.671C34.5744 112.684 34.5781 112.696 34.585 112.707C34.5919 112.718 34.6018 112.727 34.6135 112.733C34.8645 112.845 35.1246 112.935 35.3909 113.003ZM35.9048 112.612C35.9443 112.622 35.9825 112.636 36.0187 112.655C36.0669 112.678 36.1042 112.718 36.1228 112.768C36.1488 112.856 36.1228 112.889 36.1228 112.908C35.9666 113.042 35.3128 112.882 34.8477 112.694C35.1916 112.599 35.5507 112.572 35.9048 112.616V112.612Z" fill="#407BFF"/>
<path d="M34.6257 112.732H34.6517C34.977 112.67 35.7251 112.273 35.7381 111.974C35.7381 111.902 35.7121 111.805 35.5462 111.746C35.4878 111.725 35.4257 111.716 35.3637 111.719C35.3017 111.723 35.241 111.739 35.1851 111.766C34.8013 111.951 34.5866 112.621 34.5769 112.647C34.5715 112.657 34.5686 112.667 34.5686 112.678C34.5686 112.689 34.5715 112.7 34.5769 112.709C34.5824 112.717 34.5898 112.723 34.5983 112.727C34.6069 112.731 34.6163 112.732 34.6257 112.732ZM35.4714 111.857H35.5104C35.6178 111.896 35.6145 111.941 35.6145 111.954C35.6145 112.137 35.0941 112.465 34.7363 112.572C34.8263 112.291 35.0042 112.046 35.2437 111.873C35.3151 111.84 35.396 111.835 35.4714 111.857Z" fill="#407BFF"/>
<path d="M34.3071 112.156L31.4285 111.33C31.379 111.315 31.3259 111.318 31.2784 111.338C31.2308 111.358 31.1919 111.394 31.1682 111.44L30.1078 113.545C30.0831 113.598 30.0703 113.656 30.0706 113.715C30.0708 113.774 30.0839 113.832 30.1091 113.885C30.1342 113.938 30.1708 113.985 30.2161 114.022C30.2614 114.059 30.3144 114.086 30.3713 114.101C31.3797 114.371 31.8838 114.456 33.1492 114.817C33.9266 115.041 35.5107 115.581 36.5873 115.89C37.664 116.199 38.0608 115.187 37.6445 114.966C35.7774 113.974 35.1789 113.174 34.6845 112.432C34.5958 112.298 34.4619 112.2 34.3071 112.156Z" fill="#263238"/>
<path d="M53.2457 114.719H50.3702C50.3185 114.718 50.2683 114.736 50.2289 114.77C50.1894 114.803 50.1634 114.85 50.1556 114.901L49.736 117.227C49.7265 117.285 49.7298 117.344 49.7456 117.401C49.7614 117.457 49.7892 117.51 49.8272 117.555C49.8653 117.6 49.9126 117.636 49.9659 117.66C50.0192 117.685 50.0772 117.698 50.136 117.698C51.1737 117.679 52.6699 117.617 53.9743 117.617C55.4998 117.617 56.3325 117.702 58.1215 117.702C59.2014 117.702 59.4552 116.609 58.9965 116.508C56.918 116.059 55.7177 116.01 53.8897 114.911C53.6955 114.791 53.4734 114.725 53.2457 114.719Z" fill="#263238"/>
<path opacity="0.2" d="M53.2775 108.93H50.6428V112.075H53.2775V108.93Z" fill="black"/>
<path opacity="0.2" d="M33.2502 106.203L35.8817 106.486L34.9286 109.771L32.3655 109.254L33.2502 106.203Z" fill="black"/>
<path d="M48.9428 48.2656C48.9428 48.2656 47.4889 68.1529 46.1878 75.6928C44.7533 83.9515 36.4068 109.238 36.4068 109.238L31.6252 108.363C31.6252 108.363 37.6526 84.6183 38.3194 76.4409C39.0447 67.5674 39.9165 49.2772 39.9165 49.2772L48.9428 48.2656Z" fill="#407BFF"/>
<path opacity="0.3" d="M46.4937 56.5289C46.7539 55.436 47.3524 56.8119 48.0485 59.1962C47.5215 65.0967 46.8352 71.9307 46.1781 75.6974C46.0318 76.5398 45.8106 77.5612 45.5276 78.7192C45.778 70.3011 45.7878 59.4857 46.4937 56.5289Z" fill="black"/>
<path d="M53.9119 47.7266C53.9119 47.7266 55.8212 67.7179 55.8863 75.7489C55.9546 84.1052 54.2339 111.461 54.2339 111.461H49.7679C49.7679 111.461 48.4278 84.5932 47.8715 76.3865C47.2633 67.4414 44.7034 48.7382 44.7034 48.7382L53.9119 47.7266Z" fill="#407BFF"/>
<path d="M37.4071 107.633C37.4266 107.633 36.6557 109.367 36.6557 109.367L31.2756 108.391L31.6009 106.781L37.4071 107.633Z" fill="#263238"/>
<path d="M55.0147 109.688C55.0342 109.688 54.8423 111.542 54.8423 111.542H49.4167L49.1956 109.889L55.0147 109.688Z" fill="#263238"/>
<path d="M40.0479 29.9152C39.6901 30.6081 39.2965 31.3367 38.9387 32.0555L37.8458 34.2219C37.4912 34.944 37.1432 35.6693 36.8081 36.3947C36.4731 37.1201 36.1576 37.8422 35.8876 38.5643L35.8616 37.4258C36.0517 38.0104 36.2799 38.582 36.5447 39.1368C36.6715 39.423 36.8341 39.6962 36.974 39.9792C37.1139 40.2622 37.2993 40.5322 37.4652 40.7989C37.8103 41.3503 38.1838 41.8833 38.5841 42.396C38.7858 42.653 38.9875 42.9164 39.2021 43.1637C39.4168 43.4109 39.651 43.6678 39.8527 43.8793L39.9178 43.9508C40.0676 44.1154 40.154 44.3279 40.1614 44.5503C40.1688 44.7728 40.0968 44.9906 39.9582 45.1648C39.8197 45.3389 39.6236 45.4581 39.4052 45.5009C39.1868 45.5437 38.9603 45.5073 38.7663 45.3983C38.4301 45.2089 38.1043 45.0015 37.7905 44.777C37.4652 44.5623 37.1789 44.3379 36.8862 44.1004C36.3002 43.6197 35.7501 43.0968 35.2403 42.5359C34.7199 41.9659 34.2467 41.3545 33.8254 40.7078C33.3924 40.049 33.0159 39.3548 32.6999 38.6326C32.5607 38.3261 32.5365 37.9797 32.6316 37.6568L32.6771 37.5039C32.9244 36.6549 33.2008 35.832 33.5066 35.0253C33.8124 34.2186 34.1376 33.4282 34.4824 32.6508C34.8272 31.8734 35.1883 31.1057 35.5688 30.3478C35.9494 29.59 36.3332 28.8483 36.7723 28.0904C37.015 27.6567 37.4191 27.3362 37.8967 27.1987C38.3743 27.0611 38.8869 27.1176 39.3231 27.3559C39.7593 27.5941 40.0838 27.9948 40.2263 28.471C40.3687 28.9472 40.3174 29.4604 40.0836 29.899L40.0479 29.9152Z" fill="#FF8B7B"/>
<path d="M41.9144 28.7552C42.0445 31.237 39.2276 35.7941 39.2276 35.7941L33.428 32.8959C34.1328 30.8402 35.2235 28.938 36.6417 27.2914C39.709 23.9021 41.794 26.4782 41.9144 28.7552Z" fill="#263238"/>
<path d="M37.9846 44.9288L39.1524 46.8805L41.5822 45.3257C41.1578 44.5651 40.4931 43.9668 39.6923 43.6245C39.5071 43.5653 39.3069 43.5745 39.1279 43.6503C38.9489 43.7261 38.8029 43.8635 38.7165 44.0376L37.9846 44.9288Z" fill="#FF8B7B"/>
<path d="M40.1252 47.7072L41.2539 47.4958C41.3489 47.4782 41.4395 47.442 41.5204 47.3892C41.6014 47.3365 41.6711 47.2682 41.7255 47.1884C41.7799 47.1085 41.818 47.0187 41.8376 46.9241C41.8571 46.8295 41.8577 46.7319 41.8394 46.637L41.5824 45.3359L39.1526 46.8907L39.3152 47.2843C39.3818 47.4366 39.4984 47.5616 39.6457 47.6385C39.793 47.7154 39.9622 47.7396 40.1252 47.7072Z" fill="#FF8B7B"/>
<path d="M46.9793 16.2898C47.0021 16.5012 47.1354 16.6671 47.272 16.6541C47.4087 16.6411 47.4997 16.4622 47.4737 16.2508C47.4477 16.0394 47.3176 15.8735 47.181 15.8832C47.0444 15.893 46.9533 16.0751 46.9793 16.2898Z" fill="#263238"/>
<path d="M47.1155 16.6562C47.4445 17.288 47.8545 17.8741 48.3353 18.3997C48.01 18.7803 47.3594 18.6697 47.3594 18.6697L47.1155 16.6562Z" fill="#FF5652"/>
<path d="M46.0684 15.1587C46.0853 15.1612 46.1026 15.1599 46.1189 15.1548C46.1353 15.1498 46.1502 15.1411 46.1628 15.1294C46.2755 15.0238 46.4125 14.9475 46.5617 14.9073C46.7109 14.867 46.8676 14.864 47.0182 14.8985C47.0336 14.9034 47.0498 14.9051 47.0659 14.9034C47.0819 14.9018 47.0975 14.8968 47.1115 14.8889C47.1256 14.881 47.1378 14.8702 47.1475 14.8573C47.1572 14.8444 47.1641 14.8296 47.1679 14.8139C47.176 14.7816 47.1714 14.7474 47.1551 14.7183C47.1388 14.6893 47.1119 14.6676 47.08 14.6578C46.8899 14.6124 46.6915 14.6142 46.5021 14.6629C46.3128 14.7117 46.1382 14.8059 45.9936 14.9375C45.9815 14.9491 45.9719 14.9629 45.9653 14.9783C45.9587 14.9937 45.9553 15.0102 45.9553 15.027C45.9553 15.0437 45.9587 15.0602 45.9653 15.0756C45.9719 15.091 45.9815 15.1049 45.9936 15.1164C46.0026 15.1281 46.0139 15.1379 46.0268 15.1451C46.0396 15.1524 46.0538 15.157 46.0684 15.1587Z" fill="#263238"/>
<path d="M40.4221 18.6406C41.0434 20.524 41.8696 23.9946 40.6921 25.3868C40.6921 25.3868 41.4663 27.2832 45.0313 26.9807C48.9573 26.6554 46.6576 24.8826 46.6576 24.8826C44.4523 24.5574 44.3026 22.9668 44.4848 21.4477L40.4221 18.6406Z" fill="#FF8B7B"/>
<path d="M39.8502 26.0677C39.4826 25.4789 39.0728 24.8056 39.7688 24.5552C40.5332 24.2787 44.8269 23.8298 46.3556 24.2071C47.8844 24.5844 47.5722 25.8335 47.5722 25.8335L39.8502 26.0677Z" fill="#407BFF"/>
<path d="M52.4234 26.8596C52.9829 27.3736 53.5879 27.9428 54.1897 28.4632C54.7914 28.9837 55.3997 29.5171 56.0112 30.0311C56.6227 30.545 57.2472 31.0297 57.875 31.5013C58.5028 31.973 59.1403 32.4023 59.7779 32.8024L58.4768 32.6788C59.0175 32.5346 59.5292 32.298 59.9893 31.9795C60.527 31.6037 61.026 31.1755 61.4791 30.7011C61.9673 30.2015 62.4246 29.6724 62.8485 29.1171C63.0664 28.8341 63.2843 28.5478 63.499 28.2518C63.7137 27.9558 63.9089 27.6436 64.0878 27.3703L64.1235 27.3183C64.2471 27.1296 64.4343 26.9916 64.6511 26.9295C64.868 26.8674 65.0999 26.8853 65.3046 26.98C65.5093 27.0746 65.6731 27.2397 65.7662 27.4451C65.8593 27.6506 65.8755 27.8826 65.8117 28.0989C65.6881 28.5218 65.558 28.8829 65.4084 29.2602C65.2587 29.6375 65.1026 30.0083 64.927 30.3726C64.5708 31.1157 64.1541 31.8283 63.6812 32.5032C63.1847 33.2188 62.6061 33.8738 61.9572 34.4548C61.239 35.0959 60.4057 35.5948 59.5014 35.925C59.3073 35.9934 59.1015 36.0226 58.896 36.0109C58.6906 35.9992 58.4895 35.9468 58.3044 35.8567L58.197 35.8014C57.3894 35.4045 56.6053 34.9614 55.8486 34.4743C55.1102 33.9962 54.3946 33.4985 53.705 32.965C53.0154 32.4316 52.3486 31.8916 51.6981 31.3387C51.0475 30.7857 50.423 30.2067 49.7887 29.5594C49.4512 29.2074 49.2631 28.7383 49.2639 28.2506C49.2647 27.7629 49.4544 27.2945 49.7931 26.9436C50.1318 26.5927 50.5932 26.3866 51.0806 26.3685C51.568 26.3504 52.0434 26.5218 52.4072 26.8466L52.4234 26.8596Z" fill="#FF8B7B"/>
<path d="M50.4323 25.1697C50.4323 25.1697 53.7111 28.3509 54.0916 48.0267C48.8482 49.2985 43.8032 49.7669 39.9064 49.2725C39.721 46.8037 39.4445 38.236 36.9399 29.2031C36.8323 28.8226 36.805 28.424 36.8597 28.0324C36.9143 27.6408 37.0498 27.2649 37.2575 26.9285C37.4652 26.592 37.7405 26.3024 38.066 26.078C38.3916 25.8537 38.7602 25.6994 39.1485 25.6251C39.6462 25.5275 40.1699 25.4397 40.6903 25.3714C42.6675 25.0885 44.6593 24.9202 46.6559 24.8672C47.9203 24.8775 49.1824 24.9786 50.4323 25.1697Z" fill="#263238"/>
<path d="M47.8921 28.5974C48.2173 31.0597 52.4459 35.7924 52.4459 35.7924L57.4649 30.5881C55.974 29.0228 54.3621 27.5774 52.6443 26.2652C48.9655 23.5166 47.5993 26.3139 47.8921 28.5974Z" fill="#263238"/>
<path d="M65.4868 28.9634L67.1652 27.4249L65.155 25.3594C64.4901 25.9256 64.0324 26.6968 63.8539 27.5517C63.8343 27.7472 63.886 27.9431 63.9997 28.1034C64.1133 28.2636 64.281 28.3773 64.472 28.4235L65.4868 28.9634Z" fill="#FF8B7B"/>
<path d="M67.7821 26.314L67.3495 25.2503C67.3129 25.1591 67.2583 25.0761 67.189 25.0063C67.1197 24.9365 67.0371 24.8813 66.9461 24.844C66.8552 24.8067 66.7576 24.788 66.6593 24.7891C66.5609 24.7902 66.4638 24.811 66.3737 24.8502L65.1409 25.3674L67.1511 27.4329L67.5024 27.1955C67.6433 27.1032 67.7481 26.9651 67.7991 26.8045C67.8501 26.6439 67.8441 26.4707 67.7821 26.314Z" fill="#FF8B7B"/>
<path d="M39.9208 16.3967C40.3924 18.9989 40.5355 20.5407 41.9993 21.78C44.2014 23.6439 47.2394 22.1931 47.5289 19.5356C47.8022 17.1416 46.9857 13.2871 44.338 12.4479C41.6903 11.6087 39.4491 13.7945 39.9208 16.3967Z" fill="#FF8B7B"/>
<path d="M45.0518 17.3288C45.9658 17.5369 46.6781 16.4798 46.7757 16.1805C46.3301 16.2228 45.5397 15.9951 45.3835 15.7935C45.8715 15.8357 46.3431 15.234 46.4016 15.003C45.884 14.9031 45.4255 14.6056 45.1233 14.1736C45.9137 14.1573 46.8635 12.7652 45.9951 11.5194C45.1266 10.2736 41.4965 11.3177 40.9858 10.4297C40.2247 10.8721 40.9013 11.4608 40.9013 11.4608C40.9013 11.4608 35.7652 12.4366 38.1332 14.4176C36.3962 14.5737 36.1523 16.6262 37.5997 17.6703C39.0472 18.7144 39.122 19.404 38.5463 19.3194C38.7772 19.7618 39.8083 19.8204 39.8669 19.391C40.1108 20.292 40.8134 21.5118 42.4333 21.3134C44.0532 21.1149 45.6405 18.8478 45.0518 17.3288Z" fill="#263238"/>
<path d="M38.5798 14.1209C37.3567 14.29 36.8005 13.6005 37.1063 12.9922C35.5905 13.7663 37.2462 15.4773 38.5798 14.1209Z" fill="#263238"/>
<path d="M43.7848 16.9382C43.9953 17.4834 44.3676 17.951 44.8517 18.2783C45.5022 18.7077 46.0909 18.2783 45.9804 17.6278C45.8795 17.0293 45.4209 16.0827 44.7443 15.9136C44.6042 15.8676 44.4539 15.8626 44.311 15.8992C44.1681 15.9357 44.0387 16.0123 43.9379 16.12C43.8371 16.2276 43.7691 16.3618 43.742 16.5068C43.7148 16.6517 43.7297 16.8014 43.7848 16.9382Z" fill="#FF8B7B"/>
<path d="M126.455 108.623C124.048 102.944 123.076 96.2631 125.831 96.5396C128.658 96.8128 128.326 106.883 128.784 107.989C127.903 108.747 126.455 108.623 126.455 108.623Z" fill="#407BFF"/>
<path d="M127.239 97.8438C126.647 100.01 126.019 103.357 125.541 106.194C125.814 107.007 126.123 107.82 126.458 108.62C126.458 108.62 127.903 108.744 128.791 107.986C128.426 107.114 128.556 100.661 127.239 97.8438Z" fill="#263238"/>
<path d="M127.252 107.586C126.498 95.5187 128.553 84.3326 133.966 84.8367C138.611 85.2726 131.839 105.589 131.969 107.931C129.841 108.757 127.252 107.586 127.252 107.586Z" fill="#407BFF"/>
<path d="M130.758 107.513C131.607 98.8378 136.183 88.7153 138.148 92.0981C140.643 96.3918 134.245 106.618 134.072 108.3C132.472 108.645 130.758 107.513 130.758 107.513Z" fill="#407BFF"/>
<path d="M129.903 88.0603C129.353 87.9692 129.047 87.6277 129.083 87.143C129.122 86.5966 129.571 86.0534 129.987 86.0469C130.189 86.0469 130.527 86.151 130.612 86.9023L130.286 86.9414C130.247 86.5836 130.14 86.3721 129.997 86.3721C129.776 86.3721 129.437 86.7755 129.411 87.1658C129.389 87.4911 129.571 87.6732 129.958 87.7383L129.903 88.0603Z" fill="#407BFF"/>
<path d="M135.744 90.2393C135.508 90.2201 135.282 90.1332 135.093 89.9888L135.269 89.7189C135.572 89.914 135.806 89.9661 135.897 89.8555C136.033 89.6798 135.939 89.1659 135.656 88.8959C135.428 88.678 135.162 88.6942 134.866 88.9545L134.654 88.7073C134.73 88.6215 134.823 88.552 134.927 88.5031C135.031 88.4541 135.143 88.4267 135.258 88.4225C135.372 88.4182 135.487 88.4372 135.594 88.4783C135.701 88.5195 135.798 88.5818 135.881 88.6617C136.277 89.039 136.411 89.7286 136.151 90.0572C136.102 90.118 136.04 90.1664 135.97 90.1981C135.899 90.2298 135.821 90.2439 135.744 90.2393Z" fill="#407BFF"/>
<path d="M127.773 95.1535C127.576 95.1675 127.381 95.1092 127.224 94.9894C127.067 94.8696 126.959 94.6966 126.921 94.5029C126.79 93.9727 127.051 93.3189 127.447 93.1823C127.633 93.1205 127.991 93.114 128.303 93.8068L128.004 93.9434C127.857 93.6182 127.678 93.4425 127.552 93.4913C127.343 93.5629 127.145 94.0475 127.226 94.4248C127.301 94.7501 127.552 94.8607 127.922 94.8022L127.971 95.1274C127.906 95.1418 127.84 95.1505 127.773 95.1535Z" fill="#407BFF"/>
<path d="M124.308 101.893C124.15 101.896 123.994 101.852 123.861 101.766C123.728 101.679 123.624 101.555 123.563 101.408C123.336 100.911 123.469 100.218 123.83 100.01C124.003 99.9119 124.354 99.8404 124.79 100.465L124.523 100.65C124.315 100.354 124.116 100.221 123.993 100.292C123.801 100.403 123.697 100.917 123.859 101.268C123.993 101.558 124.247 101.636 124.614 101.506L124.721 101.815C124.589 101.865 124.45 101.891 124.308 101.893Z" fill="#407BFF"/>
<path d="M130.074 92.0715C130.04 92.0713 130.008 92.0611 129.98 92.0422C129.778 91.9304 129.623 91.7493 129.544 91.5322C129.465 91.3152 129.467 91.0769 129.55 90.8614C129.644 90.6454 129.806 90.4654 130.01 90.3482C130.215 90.231 130.452 90.1829 130.686 90.2109C130.887 90.2467 131.359 90.4256 131.391 91.2908C131.391 91.3339 131.374 91.3753 131.344 91.4058C131.313 91.4363 131.272 91.4534 131.229 91.4534C131.186 91.4534 131.144 91.4363 131.114 91.4058C131.083 91.3753 131.066 91.3339 131.066 91.2908C131.047 90.8387 130.894 90.5654 130.627 90.5167C130.465 90.5037 130.303 90.5416 130.164 90.6249C130.025 90.7083 129.915 90.833 129.85 90.9818C129.732 91.2583 129.85 91.538 130.175 91.769C130.203 91.7888 130.225 91.8173 130.236 91.8502C130.247 91.8831 130.247 91.9186 130.237 91.9517C130.226 91.9848 130.205 92.0136 130.177 92.034C130.149 92.0544 130.115 92.0652 130.081 92.065L130.074 92.0715Z" fill="white"/>
<path d="M133.926 100.851C133.889 100.852 133.852 100.839 133.824 100.815C133.795 100.791 133.776 100.758 133.77 100.721C133.765 100.701 133.765 100.679 133.768 100.658C133.772 100.637 133.78 100.617 133.791 100.599C133.803 100.581 133.818 100.566 133.835 100.554C133.853 100.542 133.873 100.534 133.893 100.529C134.336 100.438 134.58 100.24 134.586 99.97C134.572 99.8082 134.507 99.6549 134.402 99.5314C134.296 99.4079 134.155 99.3202 133.998 99.2804C133.705 99.2088 133.445 99.3682 133.272 99.726C133.263 99.7452 133.25 99.7624 133.234 99.7766C133.218 99.7907 133.199 99.8016 133.179 99.8085C133.158 99.8155 133.137 99.8184 133.116 99.8171C133.094 99.8157 133.073 99.8102 133.054 99.8008C133.035 99.7914 133.018 99.7783 133.004 99.7623C132.99 99.7463 132.979 99.7276 132.972 99.7073C132.965 99.6871 132.962 99.6657 132.963 99.6444C132.965 99.623 132.97 99.6021 132.979 99.5829C133.059 99.3671 133.213 99.1865 133.413 99.0728C133.612 98.9591 133.846 98.9197 134.072 98.9616C134.302 99.0183 134.508 99.1471 134.659 99.3292C134.81 99.5113 134.898 99.737 134.912 99.9732C134.912 100.178 134.807 100.673 133.962 100.848L133.926 100.851Z" fill="white"/>
<path d="M138.5 98.1056C138.311 98.1056 138.061 97.995 137.781 97.5754L138.051 97.3932C138.253 97.6925 138.445 97.8291 138.572 97.7608C138.767 97.6567 138.897 97.1427 138.725 96.7849C138.601 96.4955 138.347 96.4109 137.976 96.5312L137.876 96.2222C138.403 96.0498 138.832 96.2222 139.024 96.6581C139.242 97.159 139.095 97.8486 138.728 98.047C138.658 98.0863 138.58 98.1065 138.5 98.1056Z" fill="#407BFF"/>
<path d="M137.53 110.685C137.532 108.949 136.91 107.271 135.777 105.956C135.888 105.939 135.99 105.884 136.064 105.799C136.138 105.715 136.179 105.606 136.18 105.494C136.179 105.367 136.128 105.245 136.038 105.155C135.948 105.066 135.826 105.016 135.699 105.016H124.808C124.69 105.017 124.576 105.063 124.49 105.144C124.403 105.226 124.35 105.336 124.341 105.455C124.332 105.573 124.368 105.69 124.441 105.784C124.514 105.877 124.62 105.939 124.737 105.959C124.025 106.786 123.508 107.763 123.226 108.818C122.943 109.872 122.902 110.977 123.106 112.049C123.309 113.122 123.752 114.135 124.401 115.012C125.05 115.89 125.889 116.61 126.854 117.119C126.749 117.173 126.665 117.261 126.616 117.369C126.567 117.477 126.556 117.598 126.584 117.713C126.612 117.828 126.678 117.93 126.772 118.003C126.865 118.076 126.98 118.115 127.098 118.114H133.405C133.545 118.114 133.678 118.058 133.777 117.959C133.876 117.86 133.932 117.727 133.932 117.587C133.932 117.491 133.905 117.397 133.856 117.314C133.806 117.232 133.734 117.164 133.649 117.119C134.821 116.501 135.801 115.576 136.485 114.442C137.169 113.308 137.53 112.009 137.53 110.685Z" fill="#263238"/>
</svg>
