<svg width="302" height="155" viewBox="0 0 302 155" fill="none" xmlns="http://www.w3.org/2000/svg">
<path d="M286 3H15C8.37258 3 3 8.37258 3 15V140C3 146.627 8.37258 152 15 152H286C292.627 152 298 146.627 298 140V15C298 8.37258 292.627 3 286 3Z" fill="#113DBC"/>
<g opacity="0.05">
<path d="M64.463 144.129C61.643 139.988 64.363 128.121 89.263 116.109C114.163 104.097 126.42 112.048 128.244 114.135C130.068 116.222 138.734 138.025 104.328 144.128C69.922 150.231 67.283 148.27 64.463 144.129Z" stroke="#ECF1FD"/>
<path d="M64.4781 144.129C61.6101 139.988 64.3779 128.121 89.7029 116.109C115.028 104.097 127.496 112.048 129.352 114.135C131.208 116.222 140.022 138.025 105.026 144.128C70.0299 150.231 67.3471 148.27 64.4781 144.129Z" stroke="#ECF1FD" stroke-width="1.3"/>
<path d="M43.3998 140.442C41.3908 137.575 44.9559 133.335 50.4149 123.91C53.4209 118.717 56.2698 110.986 63.7538 106.41C73.8792 100.235 85.4775 96.8949 97.3358 96.7376C114.521 96.5746 130.055 101.153 132.495 105.757C134.935 110.361 146.918 137.671 99.6119 145.823C52.3059 153.975 47.2768 145.974 43.3998 140.442Z" stroke="#ECF1FD" stroke-width="1.3"/>
<path d="M44.3931 140.442C42.4051 137.575 45.9331 133.335 51.3321 123.91C54.3051 118.717 57.1241 110.986 64.5321 106.41C74.5275 100.243 86.0074 96.9002 97.7511 96.7376C114.751 96.5746 130.117 101.153 132.53 105.757C134.943 110.361 146.797 137.671 100.002 145.823C53.207 153.975 48.2291 145.974 44.3931 140.442Z" stroke="#ECF1FD" stroke-width="1.3"/>
<path d="M22.5702 138.929C21.3562 134.118 26.013 130.002 33.109 117.444C37.016 110.526 44.7211 92.929 51.0091 88.704C56.2581 85.416 70.3451 80.925 92.6871 80.704C115.029 80.483 134.787 91.5311 137.612 96.6991C140.437 101.867 160.063 140.649 96.3651 148.272C32.6671 155.895 23.7842 143.74 22.5702 138.929Z" stroke="#ECF1FD" stroke-width="1.3"/>
<path d="M21.571 138.929C20.346 134.118 25.043 130.002 32.198 117.444C36.138 110.526 43.906 92.929 50.25 88.704C55.543 85.416 69.7499 80.925 92.2749 80.704C114.8 80.483 134.727 91.5311 137.575 96.6991C140.423 101.867 160.212 140.649 95.9851 148.272C31.7581 155.895 22.8 143.74 21.571 138.929Z" stroke="#ECF1FD" stroke-width="1.3"/>
<path d="M2.42993 129.006C4.51093 125.106 9.55689 118.206 14.4629 109.353C19.2269 100.753 28.621 78.878 36.292 73.627C42.692 69.539 59.869 63.9571 87.111 63.6861C114.353 63.4151 138.447 77.1449 141.889 83.5689C145.331 89.9929 176.629 138.402 98.9611 147.878C33.8751 155.819 9.36093 145.632 2.42993 138.616" stroke="#ECF1FD" stroke-width="1.6"/>
<path d="M2.78906 97.0518C7.15406 83.6597 11.5891 61.8801 19.0701 56.7871C26.8121 51.8681 50.3899 50.6541 83.3419 50.3291C116.294 50.0041 140.086 66.0228 142.186 71.2358C144.286 76.4488 193.7 140.148 99.7529 151.551" stroke="#ECF1FD" stroke-width="1.6"/>
<path d="M2.42603 98.5358C6.77803 85.1478 12.3939 61.8933 19.8489 56.7873C27.5489 51.8683 50.993 50.6543 83.76 50.3293C116.527 50.0043 138.996 63.987 143.135 71.718C147.274 79.449 192.976 140.329 99.558 151.733" stroke="#ECF1FD" stroke-width="1.6"/>
<path d="M3.40308 38.4568C16.6121 34.9838 34.591 32.6831 62.692 33.0501C120.513 33.8061 147.692 57.7499 153.316 68.2439C157.606 76.2439 183.78 122.322 138.495 151.473" stroke="#ECF1FD" stroke-width="1.6"/>
<path d="M2.74097 39.109C16.005 35.582 35.359 32.6804 63.691 33.0504C121.512 33.8064 148.691 57.7503 154.315 68.2443C158.571 76.1783 180.305 123.555 136.477 152.744" stroke="#ECF1FD" stroke-width="1.6"/>
<path d="M2.76294 21.206C16.1239 19.26 33.2119 18.0703 54.8829 18.3403C121.767 19.1733 156.032 51.1831 158.208 56.9111C164.55 68.1439 168.447 80.5901 169.643 93.434C171.483 111.926 169.223 125.699 167.382 131.574C165.541 137.449 159.55 149.191 153.587 152.625" stroke="#ECF1FD" stroke-width="1.6"/>
<path d="M69.0649 3.42139C139.246 4.46839 163.585 43.6461 165.865 50.8491C172.62 65.3017 176.686 80.8639 177.865 96.7734C179.796 120.024 173.389 152.341 173.389 152.341" stroke="#ECF1FD" stroke-width="1.6"/>
<path d="M70.0649 3.42139C140.246 4.46839 164.585 43.6461 166.865 50.8491C173.62 65.3017 177.686 80.8639 178.865 96.7734C180.796 120.024 176.301 145.037 174.365 152.425" stroke="#ECF1FD" stroke-width="1.6"/>
</g>
<path d="M287 1.5H15C7.54416 1.5 1.5 7.54416 1.5 15V140C1.5 147.456 7.54416 153.5 15 153.5H287C294.456 153.5 300.5 147.456 300.5 140V15C300.5 7.54416 294.456 1.5 287 1.5Z" stroke="white" stroke-width="3"/>
<path d="M26.2912 51V37.9091H31.2003C32.206 37.9091 33.0497 38.0966 33.7315 38.4716C34.4176 38.8466 34.9354 39.3622 35.2848 40.0185C35.6385 40.6705 35.8153 41.4119 35.8153 42.2429C35.8153 43.0824 35.6385 43.8281 35.2848 44.4801C34.9311 45.1321 34.4091 45.6456 33.7188 46.0206C33.0284 46.3913 32.1783 46.5767 31.1683 46.5767H27.9148V44.6271H30.8487C31.4368 44.6271 31.9183 44.5249 32.2933 44.3203C32.6683 44.1158 32.9453 43.8345 33.1243 43.4766C33.3075 43.1186 33.3991 42.7074 33.3991 42.2429C33.3991 41.7784 33.3075 41.3693 33.1243 41.0156C32.9453 40.6619 32.6662 40.3871 32.2869 40.1911C31.9119 39.9908 31.4283 39.8906 30.8359 39.8906H28.6626V51H26.2912ZM40.4224 51.1982C39.8002 51.1982 39.2399 51.0874 38.7413 50.8658C38.247 50.6399 37.8549 50.3075 37.5652 49.8686C37.2797 49.4297 37.1369 48.8885 37.1369 48.245C37.1369 47.6911 37.2392 47.233 37.4437 46.8707C37.6483 46.5085 37.9274 46.2188 38.2811 46.0014C38.6348 45.7841 39.0332 45.62 39.4764 45.5092C39.9238 45.3942 40.3862 45.3111 40.8635 45.2599C41.4387 45.2003 41.9054 45.147 42.2633 45.1001C42.6213 45.049 42.8812 44.9723 43.0431 44.87C43.2093 44.7635 43.2924 44.5994 43.2924 44.3778V44.3395C43.2924 43.858 43.1497 43.4851 42.8642 43.2209C42.5787 42.9567 42.1674 42.8246 41.6305 42.8246C41.0637 42.8246 40.6142 42.9482 40.2818 43.1953C39.9537 43.4425 39.7321 43.7344 39.617 44.071L37.4565 43.7642C37.627 43.1676 37.9082 42.669 38.3002 42.2685C38.6923 41.8636 39.1717 41.5611 39.7385 41.3608C40.3052 41.1562 40.9316 41.054 41.6177 41.054C42.0907 41.054 42.5616 41.1094 43.0304 41.2202C43.4991 41.331 43.9274 41.5142 44.3152 41.7699C44.7029 42.0213 45.014 42.3643 45.2484 42.799C45.487 43.2337 45.6064 43.777 45.6064 44.429V51H43.3819V49.6513H43.3052C43.1646 49.924 42.9664 50.1797 42.7108 50.4183C42.4593 50.6527 42.1419 50.8423 41.7583 50.9872C41.3791 51.1278 40.9338 51.1982 40.4224 51.1982ZM41.0233 49.4979C41.4877 49.4979 41.8904 49.4062 42.2314 49.223C42.5723 49.0355 42.8343 48.7884 43.0176 48.4815C43.2051 48.1747 43.2988 47.8402 43.2988 47.478V46.321C43.2264 46.3807 43.1028 46.4361 42.9281 46.4872C42.7576 46.5384 42.5659 46.5831 42.3528 46.6214C42.1397 46.6598 41.9288 46.6939 41.72 46.7237C41.5112 46.7536 41.3301 46.7791 41.1767 46.8004C40.8315 46.8473 40.5225 46.924 40.2498 47.0305C39.9771 47.1371 39.7619 47.2862 39.6042 47.478C39.4466 47.6655 39.3677 47.9084 39.3677 48.2067C39.3677 48.6328 39.5233 48.9545 39.8343 49.1719C40.1454 49.3892 40.5417 49.4979 41.0233 49.4979ZM49.0197 54.6818C48.7044 54.6818 48.4125 54.6563 48.144 54.6051C47.8798 54.5582 47.6689 54.5028 47.5112 54.4389L48.0481 52.6364C48.3848 52.7344 48.6852 52.7813 48.9494 52.777C49.2136 52.7727 49.4458 52.6896 49.6461 52.5277C49.8507 52.37 50.0233 52.1058 50.1639 51.7351L50.362 51.2045L46.8017 41.1818H49.2562L51.519 48.5966H51.6213L53.8904 41.1818H56.3514L52.4203 52.1889C52.237 52.7088 51.9941 53.1541 51.6916 53.5249C51.389 53.8999 51.0183 54.1854 50.5794 54.3814C50.1447 54.5817 49.6248 54.6818 49.0197 54.6818ZM57.9526 51V41.1818H60.1642V42.8501H60.2793C60.4838 42.2876 60.8226 41.8487 61.2956 41.5334C61.7686 41.2138 62.3333 41.054 62.9895 41.054C63.6543 41.054 64.2147 41.2159 64.6706 41.5398C65.1309 41.8594 65.4547 42.2962 65.6422 42.8501H65.7445C65.9618 42.3047 66.3283 41.87 66.8439 41.5462C67.3638 41.218 67.9796 41.054 68.6912 41.054C69.5946 41.054 70.3319 41.3395 70.9029 41.9105C71.4739 42.4815 71.7594 43.3146 71.7594 44.4098V51H69.4391V44.7678C69.4391 44.1584 69.2772 43.7131 68.9533 43.4318C68.6294 43.1463 68.2331 43.0036 67.7644 43.0036C67.2061 43.0036 66.7694 43.1783 66.454 43.5277C66.1429 43.8729 65.9874 44.3224 65.9874 44.8764V51H63.7182V44.6719C63.7182 44.1648 63.5648 43.7599 63.258 43.4574C62.9554 43.1548 62.5591 43.0036 62.0691 43.0036C61.7367 43.0036 61.4341 43.0888 61.1614 43.2592C60.8887 43.4254 60.6713 43.6619 60.5094 43.9688C60.3475 44.2713 60.2665 44.625 60.2665 45.0298V51H57.9526ZM78.4535 51.1918C77.4691 51.1918 76.619 50.9872 75.9031 50.5781C75.1914 50.1648 74.6438 49.581 74.2603 48.8267C73.8768 48.0682 73.685 47.1754 73.685 46.1484C73.685 45.1385 73.8768 44.2521 74.2603 43.4893C74.6481 42.7223 75.1893 42.1257 75.8839 41.6996C76.5785 41.2692 77.3945 41.054 78.332 41.054C78.9371 41.054 79.5082 41.152 80.0451 41.348C80.5863 41.5398 81.0636 41.8381 81.4769 42.2429C81.8945 42.6477 82.2227 43.1634 82.4613 43.7898C82.6999 44.4119 82.8192 45.1534 82.8192 46.0142V46.7237H74.7717V45.1641H80.6012C80.5969 44.7209 80.5011 44.3267 80.3136 43.9815C80.1261 43.6321 79.864 43.3572 79.5273 43.157C79.195 42.9567 78.8072 42.8565 78.364 42.8565C77.891 42.8565 77.4755 42.9716 77.1175 43.2017C76.7596 43.4276 76.4805 43.7259 76.2802 44.0966C76.0842 44.4631 75.984 44.8658 75.9798 45.3047V46.6662C75.9798 47.2372 76.0842 47.7273 76.293 48.1364C76.5018 48.5412 76.7937 48.8523 77.1687 49.0696C77.5437 49.2827 77.9826 49.3892 78.4854 49.3892C78.8221 49.3892 79.1268 49.3423 79.3995 49.2486C79.6722 49.1506 79.9087 49.0078 80.109 48.8203C80.3093 48.6328 80.4606 48.4006 80.5629 48.1236L82.7234 48.3665C82.587 48.9375 82.3271 49.4361 81.9435 49.8622C81.5643 50.2841 81.0785 50.6122 80.4862 50.8466C79.8938 51.0767 79.2163 51.1918 78.4535 51.1918ZM87.0907 45.2472V51H84.7768V41.1818H86.9885V42.8501H87.1035C87.3294 42.3004 87.6895 41.8636 88.1838 41.5398C88.6824 41.2159 89.2981 41.054 90.0311 41.054C90.7086 41.054 91.2988 41.1989 91.8017 41.4886C92.3088 41.7784 92.7008 42.1982 92.9778 42.7479C93.2591 43.2976 93.3975 43.9645 93.3933 44.7486V51H91.0794V45.1065C91.0794 44.4503 90.9089 43.9368 90.568 43.5661C90.2314 43.1953 89.7647 43.0099 89.1681 43.0099C88.7633 43.0099 88.4032 43.0994 88.0879 43.2784C87.7768 43.4531 87.5318 43.7067 87.3528 44.0391C87.1781 44.3714 87.0907 44.7741 87.0907 45.2472ZM100.648 41.1818V42.9716H95.0041V41.1818H100.648ZM96.3975 38.8295H98.7115V48.0469C98.7115 48.358 98.7583 48.5966 98.8521 48.7628C98.9501 48.9247 99.0779 49.0355 99.2356 49.0952C99.3933 49.1548 99.568 49.1847 99.7598 49.1847C99.9047 49.1847 100.037 49.174 100.156 49.1527C100.28 49.1314 100.373 49.1122 100.437 49.0952L100.827 50.9041C100.704 50.9467 100.527 50.9936 100.297 51.0447C100.071 51.0959 99.7939 51.1257 99.4657 51.1342C98.8862 51.1513 98.3642 51.0639 97.8997 50.8722C97.4352 50.6761 97.0666 50.3736 96.7939 49.9645C96.5254 49.5554 96.3933 49.044 96.3975 48.4304V38.8295ZM110.203 43.777L108.093 44.0071C108.034 43.794 107.929 43.5938 107.78 43.4062C107.635 43.2188 107.439 43.0675 107.192 42.9524C106.945 42.8374 106.642 42.7798 106.284 42.7798C105.803 42.7798 105.398 42.8842 105.07 43.093C104.746 43.3018 104.586 43.5724 104.591 43.9048C104.586 44.1903 104.691 44.4226 104.904 44.6016C105.121 44.7805 105.479 44.9276 105.978 45.0426L107.652 45.4006C108.581 45.6009 109.272 45.9183 109.723 46.353C110.179 46.7876 110.409 47.3565 110.414 48.0597C110.409 48.6776 110.228 49.223 109.87 49.696C109.517 50.1648 109.025 50.5312 108.394 50.7955C107.763 51.0597 107.039 51.1918 106.221 51.1918C105.019 51.1918 104.051 50.9403 103.319 50.4375C102.586 49.9304 102.149 49.2251 102.008 48.3217L104.265 48.1044C104.367 48.5476 104.584 48.8821 104.917 49.108C105.249 49.3338 105.681 49.4467 106.214 49.4467C106.764 49.4467 107.205 49.3338 107.537 49.108C107.874 48.8821 108.042 48.603 108.042 48.2706C108.042 47.9893 107.934 47.7571 107.716 47.5739C107.503 47.3906 107.171 47.25 106.719 47.152L105.044 46.8004C104.103 46.6044 103.406 46.2741 102.954 45.8097C102.502 45.3409 102.279 44.7486 102.283 44.0327C102.279 43.4276 102.443 42.9034 102.775 42.4602C103.112 42.0128 103.578 41.6676 104.175 41.4247C104.776 41.1776 105.468 41.054 106.252 41.054C107.403 41.054 108.309 41.299 108.969 41.7891C109.634 42.2791 110.045 42.9418 110.203 43.777Z" fill="white"/>
<path d="M27.2017 91L25.2131 83.7273H26.108L27.6278 89.6506H27.6989L29.2472 83.7273H30.2415L31.7898 89.6506H31.8608L33.3807 83.7273H34.2756L32.2869 91H31.3778L29.7727 85.2045H29.7159L28.1108 91H27.2017ZM35.2592 91V85.5455H36.0973V91H35.2592ZM35.6854 84.6364C35.522 84.6364 35.3812 84.5807 35.2628 84.4695C35.1468 84.3582 35.0888 84.2244 35.0888 84.0682C35.0888 83.9119 35.1468 83.7782 35.2628 83.6669C35.3812 83.5556 35.522 83.5 35.6854 83.5C35.8487 83.5 35.9884 83.5556 36.1044 83.6669C36.2228 83.7782 36.282 83.9119 36.282 84.0682C36.282 84.2244 36.2228 84.3582 36.1044 84.4695C35.9884 84.5807 35.8487 84.6364 35.6854 84.6364ZM40.0044 85.5455V86.2557H37.1777V85.5455H40.0044ZM38.0016 84.2386H38.8397V89.4375C38.8397 89.6742 38.874 89.8518 38.9426 89.9702C39.0137 90.0862 39.1036 90.1643 39.2125 90.2045C39.3238 90.2424 39.441 90.2614 39.5641 90.2614C39.6564 90.2614 39.7322 90.2566 39.7914 90.2472C39.8506 90.2353 39.8979 90.2259 39.9334 90.2188L40.1039 90.9716C40.0471 90.9929 39.9677 91.0142 39.8659 91.0355C39.7641 91.0592 39.6351 91.071 39.4789 91.071C39.2421 91.071 39.0101 91.0201 38.7828 90.9183C38.5579 90.8165 38.3709 90.6615 38.2218 90.4531C38.075 90.2448 38.0016 89.982 38.0016 89.6648V84.2386ZM42.2203 87.7188V91H41.3823V83.7273H42.2203V86.3977H42.2914C42.4192 86.116 42.611 85.8923 42.8667 85.7266C43.1247 85.5585 43.468 85.4744 43.8965 85.4744C44.2682 85.4744 44.5937 85.549 44.873 85.6982C45.1524 85.8449 45.369 86.071 45.5229 86.3764C45.6792 86.6795 45.7573 87.0653 45.7573 87.5341V91H44.9192V87.5909C44.9192 87.1577 44.8068 86.8227 44.5819 86.5859C44.3593 86.3468 44.0504 86.2273 43.655 86.2273C43.3804 86.2273 43.1342 86.2853 42.9164 86.4013C42.7009 86.5173 42.5305 86.6866 42.405 86.9091C42.2819 87.1316 42.2203 87.4015 42.2203 87.7188ZM49.3501 91.1136C48.8956 91.1136 48.4943 90.9988 48.1463 90.7692C47.7983 90.5372 47.526 90.2105 47.3295 89.7891C47.133 89.3653 47.0348 88.8646 47.0348 88.2869C47.0348 87.714 47.133 87.2169 47.3295 86.7955C47.526 86.3741 47.7995 86.0485 48.1499 85.8189C48.5002 85.5893 48.9051 85.4744 49.3643 85.4744C49.7195 85.4744 50 85.5336 50.206 85.652C50.4143 85.768 50.5729 85.9006 50.6818 86.0497C50.7931 86.1965 50.8795 86.3172 50.9411 86.4119H51.0121V83.7273H51.8501V91H51.0405V90.1619H50.9411C50.8795 90.2614 50.7919 90.3868 50.6783 90.5384C50.5646 90.6875 50.4025 90.8213 50.1918 90.9396C49.9811 91.0556 49.7005 91.1136 49.3501 91.1136ZM49.4638 90.3608C49.8 90.3608 50.084 90.2732 50.3161 90.098C50.5481 89.9205 50.7244 89.6754 50.8452 89.3629C50.9659 89.0481 51.0263 88.6847 51.0263 88.2727C51.0263 87.8655 50.9671 87.5092 50.8487 87.2038C50.7304 86.8961 50.5552 86.657 50.3232 86.4865C50.0911 86.3137 49.8047 86.2273 49.4638 86.2273C49.1087 86.2273 48.8127 86.3184 48.576 86.5007C48.3416 86.6806 48.1652 86.9257 48.0469 87.2358C47.9309 87.5436 47.8729 87.8892 47.8729 88.2727C47.8729 88.661 47.9321 89.0137 48.0504 89.331C48.1712 89.6458 48.3487 89.8968 48.5831 90.0838C48.8198 90.2685 49.1134 90.3608 49.4638 90.3608ZM53.5014 91V85.5455H54.3111V86.3693H54.3679C54.4673 86.0994 54.6473 85.8804 54.9077 85.7124C55.1681 85.5443 55.4616 85.4602 55.7884 85.4602C55.8499 85.4602 55.9268 85.4614 56.0192 85.4638C56.1115 85.4661 56.1813 85.4697 56.2287 85.4744V86.3267C56.2003 86.3196 56.1352 86.3089 56.0334 86.2947C55.9339 86.2782 55.8286 86.2699 55.7173 86.2699C55.4522 86.2699 55.2154 86.3255 55.0071 86.4368C54.8011 86.5457 54.6378 86.6972 54.517 86.8913C54.3987 87.0831 54.3395 87.3021 54.3395 87.5483V91H53.5014ZM58.8272 91.1278C58.4816 91.1278 58.1679 91.0627 57.8862 90.9325C57.6045 90.8 57.3807 90.6094 57.215 90.3608C57.0493 90.1098 56.9664 89.8068 56.9664 89.4517C56.9664 89.1392 57.028 88.8859 57.1511 88.6918C57.2742 88.4953 57.4387 88.3414 57.6447 88.2301C57.8507 88.1188 58.0779 88.036 58.3265 87.9815C58.5775 87.9247 58.8296 87.8797 59.0829 87.8466C59.4144 87.804 59.6831 87.772 59.889 87.7507C60.0974 87.727 60.2489 87.688 60.3436 87.6335C60.4406 87.5791 60.4892 87.4844 60.4892 87.3494V87.321C60.4892 86.9706 60.3933 86.6984 60.2015 86.5043C60.0121 86.3101 59.7245 86.2131 59.3386 86.2131C58.9385 86.2131 58.6248 86.3007 58.3975 86.4759C58.1703 86.651 58.0105 86.8381 57.9181 87.0369L57.1227 86.7528C57.2647 86.4214 57.4541 86.1634 57.6909 85.9787C57.93 85.7917 58.1904 85.6615 58.4721 85.5881C58.7562 85.5123 59.0356 85.4744 59.3102 85.4744C59.4854 85.4744 59.6866 85.4957 59.9139 85.5384C60.1435 85.5786 60.3649 85.6626 60.5779 85.7905C60.7934 85.9183 60.9721 86.1113 61.1142 86.3693C61.2562 86.6274 61.3272 86.973 61.3272 87.4062V91H60.4892V90.2614H60.4466C60.3897 90.3797 60.295 90.5064 60.1625 90.6413C60.0299 90.7763 59.8535 90.8911 59.6333 90.9858C59.4132 91.0805 59.1445 91.1278 58.8272 91.1278ZM58.9551 90.375C59.2865 90.375 59.5659 90.3099 59.7931 90.1797C60.0228 90.0495 60.1956 89.8814 60.3116 89.6754C60.43 89.4695 60.4892 89.2528 60.4892 89.0256V88.2585C60.4537 88.3011 60.3755 88.3402 60.2548 88.3757C60.1364 88.4089 59.9991 88.4384 59.8429 88.4645C59.689 88.4882 59.5386 88.5095 59.3919 88.5284C59.2475 88.545 59.1303 88.5592 59.0403 88.571C58.8225 88.5994 58.6189 88.6456 58.4295 88.7095C58.2425 88.7711 58.091 88.8646 57.975 88.9901C57.8613 89.1132 57.8045 89.2812 57.8045 89.4943C57.8045 89.7855 57.9122 90.0057 58.1277 90.1548C58.3455 90.3016 58.6213 90.375 58.9551 90.375ZM64.0927 91L62.4308 85.5455H63.3114L64.4904 89.7216H64.5472L65.712 85.5455H66.6069L67.7575 89.7074H67.8143L68.9933 85.5455H69.8739L68.212 91H67.3881L66.195 86.8097H66.1097L64.9165 91H64.0927ZM73.908 91V83.7273H78.2972V84.5085H74.7887V86.9659H78.07V87.7472H74.7887V90.2188H78.354V91H73.908ZM81.3761 91.1278C81.0304 91.1278 80.7167 91.0627 80.435 90.9325C80.1533 90.8 79.9296 90.6094 79.7638 90.3608C79.5981 90.1098 79.5153 89.8068 79.5153 89.4517C79.5153 89.1392 79.5768 88.8859 79.6999 88.6918C79.823 88.4953 79.9876 88.3414 80.1935 88.2301C80.3995 88.1188 80.6268 88.036 80.8754 87.9815C81.1263 87.9247 81.3784 87.8797 81.6317 87.8466C81.9632 87.804 82.2319 87.772 82.4379 87.7507C82.6462 87.727 82.7977 87.688 82.8924 87.6335C82.9895 87.5791 83.038 87.4844 83.038 87.3494V87.321C83.038 86.9706 82.9421 86.6984 82.7504 86.5043C82.561 86.3101 82.2733 86.2131 81.8874 86.2131C81.4873 86.2131 81.1737 86.3007 80.9464 86.4759C80.7191 86.651 80.5593 86.8381 80.467 87.0369L79.6715 86.7528C79.8136 86.4214 80.003 86.1634 80.2397 85.9787C80.4788 85.7917 80.7392 85.6615 81.021 85.5881C81.305 85.5123 81.5844 85.4744 81.859 85.4744C82.0342 85.4744 82.2354 85.4957 82.4627 85.5384C82.6924 85.5786 82.9137 85.6626 83.1268 85.7905C83.3422 85.9183 83.521 86.1113 83.663 86.3693C83.805 86.6274 83.8761 86.973 83.8761 87.4062V91H83.038V90.2614H82.9954C82.9386 90.3797 82.8439 90.5064 82.7113 90.6413C82.5787 90.7763 82.4023 90.8911 82.1822 90.9858C81.962 91.0805 81.6933 91.1278 81.3761 91.1278ZM81.5039 90.375C81.8353 90.375 82.1147 90.3099 82.342 90.1797C82.5716 90.0495 82.7444 89.8814 82.8604 89.6754C82.9788 89.4695 83.038 89.2528 83.038 89.0256V88.2585C83.0025 88.3011 82.9244 88.3402 82.8036 88.3757C82.6853 88.4089 82.5479 88.4384 82.3917 88.4645C82.2378 88.4882 82.0875 88.5095 81.9407 88.5284C81.7963 88.545 81.6791 88.5592 81.5891 88.571C81.3713 88.5994 81.1677 88.6456 80.9783 88.7095C80.7913 88.7711 80.6398 88.8646 80.5238 88.9901C80.4102 89.1132 80.3533 89.2812 80.3533 89.4943C80.3533 89.7855 80.4611 90.0057 80.6765 90.1548C80.8943 90.3016 81.1701 90.375 81.5039 90.375ZM85.4057 91V85.5455H86.2154V86.3693H86.2722C86.3716 86.0994 86.5516 85.8804 86.812 85.7124C87.0724 85.5443 87.3659 85.4602 87.6926 85.4602C87.7542 85.4602 87.8311 85.4614 87.9235 85.4638C88.0158 85.4661 88.0856 85.4697 88.133 85.4744V86.3267C88.1046 86.3196 88.0395 86.3089 87.9377 86.2947C87.8382 86.2782 87.7329 86.2699 87.6216 86.2699C87.3565 86.2699 87.1197 86.3255 86.9114 86.4368C86.7054 86.5457 86.5421 86.6972 86.4213 86.8913C86.303 87.0831 86.2438 87.3021 86.2438 87.5483V91H85.4057ZM89.9645 87.7188V91H89.1264V85.5455H89.9361V86.3977H90.0071C90.1349 86.1207 90.3291 85.8982 90.5895 85.7301C90.8499 85.5597 91.1861 85.4744 91.598 85.4744C91.9673 85.4744 92.2905 85.5502 92.5675 85.7017C92.8445 85.8509 93.0599 86.0781 93.2138 86.3835C93.3677 86.6866 93.4446 87.0701 93.4446 87.5341V91H92.6065V87.5909C92.6065 87.1624 92.4953 86.8286 92.2727 86.5895C92.0502 86.348 91.7448 86.2273 91.3565 86.2273C91.089 86.2273 90.8499 86.2853 90.6392 86.4013C90.4309 86.5173 90.2663 86.6866 90.1456 86.9091C90.0249 87.1316 89.9645 87.4015 89.9645 87.7188ZM94.976 91V85.5455H95.8141V91H94.976ZM95.4022 84.6364C95.2388 84.6364 95.098 84.5807 94.9796 84.4695C94.8636 84.3582 94.8056 84.2244 94.8056 84.0682C94.8056 83.9119 94.8636 83.7782 94.9796 83.6669C95.098 83.5556 95.2388 83.5 95.4022 83.5C95.5655 83.5 95.7052 83.5556 95.8212 83.6669C95.9396 83.7782 95.9988 83.9119 95.9988 84.0682C95.9988 84.2244 95.9396 84.3582 95.8212 84.4695C95.7052 84.5807 95.5655 84.6364 95.4022 84.6364ZM98.1871 87.7188V91H97.3491V85.5455H98.1587V86.3977H98.2298C98.3576 86.1207 98.5517 85.8982 98.8121 85.7301C99.0726 85.5597 99.4087 85.4744 99.8207 85.4744C100.19 85.4744 100.513 85.5502 100.79 85.7017C101.067 85.8509 101.283 86.0781 101.436 86.3835C101.59 86.6866 101.667 87.0701 101.667 87.5341V91H100.829V87.5909C100.829 87.1624 100.718 86.8286 100.495 86.5895C100.273 86.348 99.9674 86.2273 99.5792 86.2273C99.3117 86.2273 99.0726 86.2853 98.8619 86.4013C98.6535 86.5173 98.489 86.6866 98.3683 86.9091C98.2475 87.1316 98.1871 87.4015 98.1871 87.7188ZM105.4 93.1591C104.996 93.1591 104.648 93.107 104.356 93.0028C104.065 92.901 103.823 92.7661 103.628 92.598C103.437 92.4323 103.284 92.2547 103.17 92.0653L103.838 91.5966C103.914 91.696 104.01 91.8097 104.126 91.9375C104.242 92.0677 104.4 92.1802 104.601 92.2749C104.805 92.3719 105.071 92.4205 105.4 92.4205C105.841 92.4205 106.204 92.3139 106.491 92.1009C106.777 91.8878 106.92 91.554 106.92 91.0994V89.9915H106.849C106.788 90.0909 106.7 90.214 106.586 90.3608C106.475 90.5052 106.314 90.6342 106.104 90.7479C105.895 90.8591 105.613 90.9148 105.258 90.9148C104.818 90.9148 104.423 90.8106 104.072 90.6023C103.724 90.3939 103.448 90.0909 103.245 89.6932C103.044 89.2955 102.943 88.8125 102.943 88.2443C102.943 87.6856 103.041 87.1991 103.238 86.7848C103.434 86.3681 103.708 86.0462 104.058 85.8189C104.408 85.5893 104.813 85.4744 105.273 85.4744C105.628 85.4744 105.909 85.5336 106.118 85.652C106.328 85.768 106.489 85.9006 106.601 86.0497C106.714 86.1965 106.802 86.3172 106.863 86.4119H106.949V85.5455H107.758V91.1562C107.758 91.625 107.652 92.0062 107.439 92.2997C107.228 92.5956 106.944 92.8123 106.586 92.9496C106.231 93.0893 105.836 93.1591 105.4 93.1591ZM105.372 90.1619C105.708 90.1619 105.992 90.085 106.224 89.9311C106.456 89.7772 106.633 89.5559 106.753 89.267C106.874 88.9782 106.934 88.6326 106.934 88.2301C106.934 87.8371 106.875 87.4903 106.757 87.1896C106.639 86.889 106.463 86.6534 106.231 86.483C105.999 86.3125 105.713 86.2273 105.372 86.2273C105.017 86.2273 104.721 86.3172 104.484 86.4972C104.25 86.6771 104.073 86.9186 103.955 87.2216C103.839 87.5246 103.781 87.8608 103.781 88.2301C103.781 88.6089 103.84 88.9439 103.959 89.2351C104.079 89.5239 104.257 89.7512 104.491 89.9169C104.728 90.0803 105.022 90.1619 105.372 90.1619ZM113.156 86.767L112.403 86.9801C112.356 86.8546 112.286 86.7327 112.194 86.6143C112.104 86.4936 111.981 86.3942 111.824 86.3161C111.668 86.2379 111.468 86.1989 111.224 86.1989C110.89 86.1989 110.612 86.2758 110.39 86.4297C110.17 86.5812 110.059 86.7741 110.059 87.0085C110.059 87.2169 110.135 87.3814 110.287 87.5021C110.438 87.6229 110.675 87.7235 110.997 87.804L111.807 88.0028C112.294 88.1212 112.658 88.3023 112.897 88.5462C113.136 88.7876 113.256 89.099 113.256 89.4801C113.256 89.7926 113.166 90.072 112.986 90.3182C112.808 90.5644 112.559 90.7585 112.24 90.9006C111.92 91.0426 111.549 91.1136 111.125 91.1136C110.568 91.1136 110.108 90.9929 109.743 90.7514C109.379 90.5099 109.148 90.1572 109.051 89.6932L109.846 89.4943C109.922 89.7879 110.065 90.008 110.276 90.1548C110.489 90.3016 110.767 90.375 111.111 90.375C111.501 90.375 111.811 90.2921 112.041 90.1264C112.273 89.9583 112.389 89.7571 112.389 89.5227C112.389 89.3333 112.323 89.1747 112.19 89.0469C112.058 88.9167 111.854 88.8196 111.579 88.7557L110.67 88.5426C110.171 88.4242 109.804 88.2408 109.569 87.9922C109.337 87.7412 109.221 87.4276 109.221 87.0511C109.221 86.7434 109.308 86.4711 109.481 86.2344C109.656 85.9976 109.894 85.8118 110.194 85.6768C110.497 85.5419 110.841 85.4744 111.224 85.4744C111.764 85.4744 112.188 85.5928 112.496 85.8295C112.806 86.0663 113.026 86.3788 113.156 86.767Z" fill="white"/>
<path d="M38.8423 104.818V115H37.3011V106.359H37.2415L34.8054 107.95V106.479L37.3459 104.818H38.8423ZM44.9574 115.139C44.3343 115.139 43.7741 115.02 43.277 114.781C42.7831 114.539 42.3887 114.208 42.0938 113.787C41.7988 113.366 41.6413 112.885 41.6214 112.345H43.1129C43.1494 112.783 43.3433 113.142 43.6946 113.424C44.0459 113.706 44.4669 113.847 44.9574 113.847C45.3485 113.847 45.6948 113.757 45.9964 113.578C46.3014 113.396 46.54 113.146 46.7124 112.827C46.888 112.509 46.9759 112.146 46.9759 111.739C46.9759 111.324 46.8864 110.955 46.7074 110.63C46.5284 110.305 46.2815 110.05 45.9666 109.864C45.6551 109.679 45.2971 109.584 44.8928 109.581C44.5845 109.581 44.2746 109.634 43.9631 109.74C43.6515 109.846 43.3996 109.985 43.2074 110.158L41.8004 109.949L42.3722 104.818H47.9702V106.136H43.6499L43.3267 108.984H43.3864C43.5852 108.792 43.8487 108.631 44.1768 108.502C44.5083 108.373 44.8629 108.308 45.2408 108.308C45.8606 108.308 46.4124 108.456 46.8963 108.751C47.3835 109.046 47.7663 109.448 48.0447 109.959C48.3265 110.466 48.4657 111.049 48.4624 111.709C48.4657 112.368 48.3165 112.957 48.0149 113.474C47.7166 113.991 47.3023 114.398 46.772 114.697C46.245 114.992 45.6402 115.139 44.9574 115.139ZM53.823 115.169C53.0375 115.166 52.3663 114.959 51.8095 114.548C51.2527 114.137 50.8268 113.538 50.5318 112.753C50.2368 111.967 50.0893 111.021 50.0893 109.914C50.0893 108.81 50.2368 107.867 50.5318 107.085C50.8301 106.303 51.2576 105.706 51.8145 105.295C52.3746 104.884 53.0441 104.679 53.823 104.679C54.6019 104.679 55.2697 104.886 55.8265 105.3C56.3833 105.711 56.8092 106.308 57.1042 107.09C57.4025 107.869 57.5517 108.81 57.5517 109.914C57.5517 111.024 57.4042 111.972 57.1092 112.758C56.8142 113.54 56.3883 114.138 55.8315 114.553C55.2747 114.964 54.6052 115.169 53.823 115.169ZM53.823 113.842C54.5124 113.842 55.051 113.505 55.4387 112.832C55.8298 112.16 56.0254 111.187 56.0254 109.914C56.0254 109.069 55.9359 108.355 55.7569 107.771C55.5813 107.185 55.3277 106.741 54.9963 106.439C54.6681 106.134 54.277 105.982 53.823 105.982C53.1369 105.982 52.5983 106.32 52.2072 106.996C51.8161 107.672 51.6189 108.645 51.6156 109.914C51.6156 110.763 51.7034 111.48 51.8791 112.067C52.0581 112.65 52.3116 113.093 52.6397 113.394C52.9679 113.692 53.3623 113.842 53.823 113.842ZM62.8601 115.169C62.0746 115.166 61.4034 114.959 60.8466 114.548C60.2898 114.137 59.8639 113.538 59.5689 112.753C59.2739 111.967 59.1264 111.021 59.1264 109.914C59.1264 108.81 59.2739 107.867 59.5689 107.085C59.8672 106.303 60.2947 105.706 60.8516 105.295C61.4117 104.884 62.0812 104.679 62.8601 104.679C63.639 104.679 64.3068 104.886 64.8636 105.3C65.4205 105.711 65.8464 106.308 66.1413 107.09C66.4396 107.869 66.5888 108.81 66.5888 109.914C66.5888 111.024 66.4413 111.972 66.1463 112.758C65.8513 113.54 65.4254 114.138 64.8686 114.553C64.3118 114.964 63.6423 115.169 62.8601 115.169ZM62.8601 113.842C63.5495 113.842 64.0881 113.505 64.4759 112.832C64.867 112.16 65.0625 111.187 65.0625 109.914C65.0625 109.069 64.973 108.355 64.794 107.771C64.6184 107.185 64.3648 106.741 64.0334 106.439C63.7053 106.134 63.3142 105.982 62.8601 105.982C62.174 105.982 61.6354 106.32 61.2443 106.996C60.8532 107.672 60.656 108.645 60.6527 109.914C60.6527 110.763 60.7405 111.48 60.9162 112.067C61.0952 112.65 61.3487 113.093 61.6768 113.394C62.005 113.692 62.3994 113.842 62.8601 113.842ZM71.8972 115.169C71.1117 115.166 70.4405 114.959 69.8837 114.548C69.3269 114.137 68.901 113.538 68.606 112.753C68.311 111.967 68.1635 111.021 68.1635 109.914C68.1635 108.81 68.311 107.867 68.606 107.085C68.9043 106.303 69.3319 105.706 69.8887 105.295C70.4488 104.884 71.1183 104.679 71.8972 104.679C72.6761 104.679 73.3439 104.886 73.9007 105.3C74.4576 105.711 74.8835 106.308 75.1784 107.09C75.4767 107.869 75.6259 108.81 75.6259 109.914C75.6259 111.024 75.4784 111.972 75.1834 112.758C74.8884 113.54 74.4625 114.138 73.9057 114.553C73.3489 114.964 72.6794 115.169 71.8972 115.169ZM71.8972 113.842C72.5866 113.842 73.1252 113.505 73.513 112.832C73.9041 112.16 74.0996 111.187 74.0996 109.914C74.0996 109.069 74.0101 108.355 73.8311 107.771C73.6555 107.185 73.4019 106.741 73.0705 106.439C72.7424 106.134 72.3513 105.982 71.8972 105.982C71.2111 105.982 70.6725 106.32 70.2814 106.996C69.8903 107.672 69.6931 108.645 69.6898 109.914C69.6898 110.763 69.7776 111.48 69.9533 112.067C70.1323 112.65 70.3858 113.093 70.714 113.394C71.0421 113.692 71.4365 113.842 71.8972 113.842Z" fill="white"/>
<g clip-path="url(#clip0_5_1429)">
<path d="M31.08 115L28.86 111.625C28.6 111.205 28.33 110.915 28.05 110.755C27.77 110.595 27.39 110.515 26.91 110.515H24.765V109.495H27.81C29.42 109.495 30.29 108.875 30.42 107.635H24.765V106.735H30.345C30.085 105.795 29.28 105.325 27.93 105.325H24.765V104.425H33.135V105.325H30.72C31.17 105.675 31.455 106.145 31.575 106.735H33.135V107.635H31.635C31.595 108.395 31.34 109.015 30.87 109.495C30.4 109.975 29.75 110.275 28.92 110.395C29.16 110.465 29.39 110.59 29.61 110.77C29.83 110.95 30.045 111.205 30.255 111.535L32.55 115H31.08Z" fill="#F9FAFA"/>
</g>
<path d="M181.5 87C181.5 84.7909 183.291 83 185.5 83H272.5C274.709 83 276.5 84.7909 276.5 87V119C276.5 121.209 274.709 123 272.5 123H185.5C183.291 123 181.5 121.209 181.5 119V87Z" fill="#28C269"/>
<path d="M204.142 107L201.756 98.2727H202.83L204.653 105.381H204.739L206.597 98.2727H207.79L209.648 105.381H209.733L211.557 98.2727H212.631L210.244 107H209.153L207.227 100.045H207.159L205.233 107H204.142ZM213.811 107V100.455H214.817V107H213.811ZM214.322 99.3636C214.126 99.3636 213.957 99.2969 213.815 99.1634C213.676 99.0298 213.607 98.8693 213.607 98.6818C213.607 98.4943 213.676 98.3338 213.815 98.2003C213.957 98.0668 214.126 98 214.322 98C214.518 98 214.686 98.0668 214.825 98.2003C214.967 98.3338 215.038 98.4943 215.038 98.6818C215.038 98.8693 214.967 99.0298 214.825 99.1634C214.686 99.2969 214.518 99.3636 214.322 99.3636ZM219.505 100.455V101.307H216.113V100.455H219.505ZM217.102 98.8864H218.108V105.125C218.108 105.409 218.149 105.622 218.231 105.764C218.316 105.903 218.424 105.997 218.555 106.045C218.689 106.091 218.829 106.114 218.977 106.114C219.088 106.114 219.179 106.108 219.25 106.097C219.321 106.082 219.377 106.071 219.42 106.062L219.625 106.966C219.556 106.991 219.461 107.017 219.339 107.043C219.217 107.071 219.062 107.085 218.875 107.085C218.591 107.085 218.312 107.024 218.039 106.902C217.77 106.78 217.545 106.594 217.366 106.344C217.19 106.094 217.102 105.778 217.102 105.398V98.8864ZM222.164 103.062V107H221.159V98.2727H222.164V101.477H222.25C222.403 101.139 222.633 100.871 222.94 100.672C223.25 100.47 223.662 100.369 224.176 100.369C224.622 100.369 225.012 100.459 225.348 100.638C225.683 100.814 225.943 101.085 226.127 101.452C226.315 101.815 226.409 102.278 226.409 102.841V107H225.403V102.909C225.403 102.389 225.268 101.987 224.998 101.703C224.731 101.416 224.36 101.273 223.886 101.273C223.556 101.273 223.261 101.342 223 101.482C222.741 101.621 222.537 101.824 222.386 102.091C222.238 102.358 222.164 102.682 222.164 103.062ZM230.72 107.136C230.175 107.136 229.693 106.999 229.276 106.723C228.858 106.445 228.531 106.053 228.295 105.547C228.06 105.038 227.942 104.438 227.942 103.744C227.942 103.057 228.06 102.46 228.295 101.955C228.531 101.449 228.859 101.058 229.28 100.783C229.7 100.507 230.186 100.369 230.737 100.369C231.163 100.369 231.5 100.44 231.747 100.582C231.997 100.722 232.188 100.881 232.318 101.06C232.452 101.236 232.555 101.381 232.629 101.494H232.714V98.2727H233.72V107H232.749V105.994H232.629C232.555 106.114 232.45 106.264 232.314 106.446C232.178 106.625 231.983 106.786 231.73 106.928C231.477 107.067 231.141 107.136 230.72 107.136ZM230.857 106.233C231.26 106.233 231.601 106.128 231.879 105.918C232.158 105.705 232.369 105.411 232.514 105.036C232.659 104.658 232.732 104.222 232.732 103.727C232.732 103.239 232.661 102.811 232.518 102.445C232.376 102.075 232.166 101.788 231.888 101.584C231.609 101.376 231.266 101.273 230.857 101.273C230.43 101.273 230.075 101.382 229.791 101.601C229.51 101.817 229.298 102.111 229.156 102.483C229.017 102.852 228.947 103.267 228.947 103.727C228.947 104.193 229.018 104.616 229.161 104.997C229.305 105.375 229.518 105.676 229.8 105.901C230.084 106.122 230.436 106.233 230.857 106.233ZM235.702 107V100.455H236.673V101.443H236.741C236.861 101.119 237.077 100.857 237.389 100.655C237.702 100.453 238.054 100.352 238.446 100.352C238.52 100.352 238.612 100.354 238.723 100.357C238.834 100.359 238.918 100.364 238.974 100.369V101.392C238.94 101.384 238.862 101.371 238.74 101.354C238.621 101.334 238.494 101.324 238.361 101.324C238.043 101.324 237.759 101.391 237.509 101.524C237.261 101.655 237.065 101.837 236.92 102.07C236.778 102.3 236.707 102.562 236.707 102.858V107H235.702ZM242.093 107.153C241.678 107.153 241.301 107.075 240.963 106.919C240.625 106.76 240.357 106.531 240.158 106.233C239.959 105.932 239.86 105.568 239.86 105.142C239.86 104.767 239.934 104.463 240.081 104.23C240.229 103.994 240.426 103.81 240.674 103.676C240.921 103.543 241.194 103.443 241.492 103.378C241.793 103.31 242.096 103.256 242.4 103.216C242.797 103.165 243.12 103.126 243.367 103.101C243.617 103.072 243.799 103.026 243.912 102.96C244.029 102.895 244.087 102.781 244.087 102.619V102.585C244.087 102.165 243.972 101.838 243.742 101.605C243.515 101.372 243.169 101.256 242.706 101.256C242.226 101.256 241.85 101.361 241.577 101.571C241.304 101.781 241.113 102.006 241.002 102.244L240.047 101.903C240.218 101.506 240.445 101.196 240.729 100.974C241.016 100.75 241.328 100.594 241.667 100.506C242.007 100.415 242.343 100.369 242.672 100.369C242.882 100.369 243.124 100.395 243.397 100.446C243.672 100.494 243.938 100.595 244.194 100.749C244.452 100.902 244.667 101.134 244.837 101.443C245.007 101.753 245.093 102.168 245.093 102.688V107H244.087V106.114H244.036C243.968 106.256 243.854 106.408 243.695 106.57C243.536 106.732 243.324 106.869 243.06 106.983C242.796 107.097 242.473 107.153 242.093 107.153ZM242.246 106.25C242.644 106.25 242.979 106.172 243.252 106.016C243.527 105.859 243.735 105.658 243.874 105.411C244.016 105.163 244.087 104.903 244.087 104.631V103.71C244.044 103.761 243.951 103.808 243.806 103.851C243.664 103.891 243.499 103.926 243.311 103.957C243.127 103.986 242.946 104.011 242.77 104.034C242.597 104.054 242.456 104.071 242.348 104.085C242.087 104.119 241.843 104.175 241.615 104.251C241.391 104.325 241.209 104.437 241.07 104.588C240.934 104.736 240.865 104.937 240.865 105.193C240.865 105.543 240.995 105.807 241.253 105.986C241.515 106.162 241.846 106.25 242.246 106.25ZM248.411 107L246.417 100.455H247.474L248.888 105.466H248.957L250.354 100.455H251.428L252.809 105.449H252.877L254.292 100.455H255.349L253.354 107H252.366L250.934 101.972H250.832L249.4 107H248.411Z" fill="white"/>
<defs>
<clipPath id="clip0_5_1429">
<rect width="9" height="18" fill="white" transform="translate(24 100)"/>
</clipPath>
</defs>
</svg>
