<svg width="285" height="275" viewBox="0 0 285 275" fill="none" xmlns="http://www.w3.org/2000/svg">
<g filter="url(#filter0_d_22_747)">
<path d="M13.841 3.0259L177.584 16.1589C178.452 16.2328 179.293 16.5022 180.042 16.9469C180.814 17.4062 181.492 18.0066 182.042 18.7169C182.626 19.4669 183.081 20.3091 183.388 21.2089C183.715 22.1612 183.881 23.1611 183.881 24.1679V234.907C183.882 235.912 183.715 236.911 183.388 237.862C183.081 238.759 182.626 239.598 182.042 240.344C181.492 241.05 180.814 241.646 180.042 242.1C179.292 242.54 178.451 242.803 177.584 242.871L13.841 254.837C12.8242 254.916 11.8024 254.774 10.8463 254.419C9.8902 254.064 9.02271 253.505 8.30397 252.782C7.57733 252.052 7.00437 251.185 6.61897 250.23C6.20506 249.203 5.99482 248.105 5.99997 246.997V10.8069C5.99486 9.70157 6.20511 8.60583 6.61897 7.5809C7.00285 6.63012 7.57458 5.76656 8.29997 5.0419C9.02035 4.32284 9.88913 3.76986 10.8455 3.42163C11.802 3.07341 12.8229 2.93835 13.837 3.0259H13.841Z" fill="white"/>
</g>
<path d="M100.007 29.7749C103.644 30.0299 107.18 31.0767 110.37 32.8419C113.573 34.6182 116.412 36.9849 118.735 39.8169C121.15 42.7497 123.04 46.0781 124.321 49.6549C125.671 53.416 126.36 57.3827 126.355 61.3789C126.37 65.3125 125.679 69.2168 124.317 72.9069C123.056 76.3299 121.162 79.4854 118.735 82.2089C116.406 84.8233 113.558 86.9254 110.374 88.3819C107.123 89.8537 103.578 90.5627 100.011 90.4549C96.3545 90.3413 92.7687 89.4192 89.511 87.7549C86.2005 86.0582 83.2515 83.7341 80.828 80.9119C78.2792 77.9567 76.2785 74.5703 74.92 70.9119C73.4736 67.04 72.7335 62.9401 72.735 58.8069C72.7183 54.7396 73.4568 50.7046 74.913 46.9069C76.2527 43.4105 78.2592 40.2077 80.821 37.4769C83.2556 34.8796 86.2157 32.8308 89.504 31.4669C92.8286 30.104 96.4225 29.525 100.007 29.7749V29.7749Z" fill="#FEF0C7"/>
<path d="M159.668 138.22L35.8524 138.504C35.4592 138.505 35.0844 138.419 34.7433 138.263C34.4021 138.107 34.0947 137.88 33.8365 137.6C33.5782 137.32 33.3691 136.987 33.2245 136.616C33.08 136.245 33 135.837 33 135.409C33 134.98 33.08 134.572 33.2245 134.201C33.3691 133.83 33.5782 133.496 33.8365 133.216C34.0947 132.936 34.4021 132.709 34.7433 132.553C35.0844 132.397 35.4592 132.311 35.8524 132.311L159.668 132.5C160.003 132.501 160.322 132.581 160.613 132.726C160.903 132.871 161.164 133.081 161.383 133.339C161.602 133.598 161.78 133.906 161.902 134.248C162.025 134.589 162.093 134.965 162.093 135.359C162.093 135.753 162.025 136.129 161.902 136.471C161.78 136.812 161.602 137.12 161.383 137.379C161.164 137.638 160.903 137.848 160.613 137.993C160.322 138.138 160.003 138.219 159.668 138.22Z" fill="#D9E9ED"/>
<path d="M144.592 151.847L51.7943 152.895C51.409 152.899 51.0419 152.817 50.7078 152.666C50.3735 152.515 50.0724 152.293 49.8194 152.018C49.5664 151.743 49.3615 151.415 49.2199 151.049C49.0783 150.683 49 150.28 49 149.856C49 149.432 49.0783 149.028 49.2199 148.659C49.3615 148.291 49.5664 147.959 49.8194 147.679C50.0724 147.399 50.3735 147.172 50.7078 147.015C51.0419 146.857 51.409 146.768 51.7943 146.766L144.592 146.072C144.933 146.07 145.259 146.148 145.555 146.292C145.851 146.436 146.117 146.645 146.34 146.904C146.564 147.163 146.745 147.472 146.87 147.816C146.994 148.16 147.064 148.538 147.064 148.936C147.064 149.334 146.994 149.714 146.87 150.06C146.745 150.407 146.564 150.719 146.34 150.983C146.117 151.246 145.851 151.46 145.555 151.609C145.259 151.759 144.933 151.843 144.592 151.847Z" fill="#D9E9ED"/>
<path d="M91.3809 49.4019L109.519 50.4019C109.983 50.4019 110.429 50.6126 110.757 50.9877C111.086 51.3628 111.27 51.8715 111.27 52.4019V57.4639L89.63 56.4639V51.4019C89.63 50.8715 89.8145 50.3628 90.1428 49.9877C90.4712 49.6126 90.9166 49.4019 91.3809 49.4019Z" fill="#FE4141"/>
<path d="M32.683 170.166L161.971 167.349C162.405 167.34 162.836 167.433 163.227 167.621C163.619 167.811 163.968 168.081 164.251 168.413C164.552 168.765 164.786 169.169 164.941 169.605C165.11 170.078 165.196 170.576 165.194 171.078V188.078C165.195 188.585 165.109 189.088 164.941 189.566C164.784 190.014 164.551 190.432 164.251 190.8C163.969 191.149 163.621 191.439 163.227 191.654C162.84 191.864 162.411 191.983 161.971 192.001L32.683 196.949C32.1738 196.969 31.6665 196.877 31.197 196.679C30.7385 196.485 30.3249 196.198 29.982 195.837C29.6281 195.465 29.3493 195.029 29.161 194.552C28.961 194.042 28.8593 193.499 28.861 192.952V174.396C28.8605 173.843 28.9622 173.295 29.161 172.779C29.3505 172.287 29.6284 171.834 29.981 171.443C30.3229 171.062 30.7355 170.751 31.196 170.528C31.66 170.302 32.1671 170.179 32.683 170.166V170.166Z" fill="#113DBC"/>
<g filter="url(#filter1_d_22_747)">
<path d="M89.629 56.0949L111.264 57.1809V71.4319C111.265 71.6917 111.219 71.9495 111.128 72.1929C111.044 72.4181 110.919 72.6255 110.758 72.8039C110.605 72.974 110.418 73.1103 110.209 73.2039C109.997 73.2976 109.767 73.3414 109.536 73.3319L91.403 72.6119C91.1623 72.6019 90.9267 72.5391 90.713 72.4279C90.4978 72.3156 90.3063 72.1628 90.149 71.9779C89.9849 71.7854 89.8562 71.5653 89.769 71.3279C89.6762 71.0773 89.6288 70.8121 89.629 70.5449V56.0949Z" fill="white"/>
</g>
<path d="M94.835 59.8669L96.596 59.9519V61.9389L94.835 61.8559V59.8669Z" fill="white"/>
<path d="M96.5963 61.9386L94.835 61.8564V59.8669L96.5963 59.9514V61.9386Z" fill="#AABFC3"/>
<path d="M97.475 59.9939L99.23 60.0779V62.0619L97.475 61.9799V59.9939Z" fill="white"/>
<path d="M99.2303 62.0619L97.475 61.98V59.9939L99.2303 60.0781V62.0619Z" fill="#AABFC3"/>
<path d="M100.107 60.1199L101.856 60.2039V62.1839L100.107 62.1029V60.1199Z" fill="white"/>
<path d="M101.856 62.1843L100.107 62.1026V60.1199L101.856 60.2038V62.1843Z" fill="#AABFC3"/>
<path d="M102.73 60.2459L104.474 60.3299V62.3069L102.73 62.2249V60.2459Z" fill="white"/>
<path d="M104.474 62.3067L102.73 62.2253V60.2459L104.474 60.3295V62.3067Z" fill="#AABFC3"/>
<path d="M105.343 60.3709L107.081 60.4539V62.4279L105.343 62.3469V60.3709Z" fill="white"/>
<path d="M107.081 62.4281L105.343 62.347V60.3709L107.081 60.4542V62.4281Z" fill="#AABFC3"/>
<path d="M94.835 62.8509L96.596 62.9319V64.9189L94.835 64.8399V62.8509Z" fill="white"/>
<path d="M96.5963 64.9192L94.835 64.8403V62.8509L96.5963 62.932V64.9192Z" fill="#AABFC3"/>
<path d="M97.475 62.9729L99.23 63.0539V65.0379L97.475 64.9589V62.9729Z" fill="white"/>
<path d="M99.2303 65.0376L97.475 64.959V62.9729L99.2303 63.0537V65.0376Z" fill="#AABFC3"/>
<path d="M100.107 63.0939L101.856 63.1749V65.1549L100.107 65.0769V63.0939Z" fill="white"/>
<path d="M101.856 65.155L100.107 65.0766V63.0939L101.856 63.1745V65.155Z" fill="#AABFC3"/>
<path d="M102.73 63.2149L104.474 63.2949V65.2719L102.73 65.1939V63.2149Z" fill="white"/>
<path d="M104.474 65.2724L102.73 65.1943V63.2149L104.474 63.2952V65.2724Z" fill="#AABFC3"/>
<path d="M105.343 63.3349L107.081 63.4149V65.3889L105.343 65.3109V63.3349Z" fill="white"/>
<path d="M107.081 65.3888L105.343 65.311V63.3349L107.081 63.4149V65.3888Z" fill="#AABFC3"/>
<path d="M94.835 65.8349L96.596 65.9129V67.8999L94.835 67.8239V65.8349Z" fill="white"/>
<path d="M96.5963 67.8999L94.835 67.8244V65.8349L96.5963 65.9127V67.8999Z" fill="#AABFC3"/>
<path d="M97.475 65.9519L99.23 66.0289V68.0129L97.475 67.9379V65.9519Z" fill="white"/>
<path d="M99.2303 68.0132L97.475 67.938V65.9519L99.2303 66.0294V68.0132Z" fill="#AABFC3"/>
<path d="M100.107 66.0679L101.856 66.1449V68.1259L100.107 68.0509V66.0679Z" fill="white"/>
<path d="M101.856 68.1256L100.107 68.0506V66.0679L101.856 66.1451V68.1256Z" fill="#AABFC3"/>
<path d="M102.73 66.1839L104.474 66.2609V68.2379L102.73 68.1629V66.1839Z" fill="white"/>
<path d="M104.474 68.238L102.73 68.1633V66.1839L104.474 66.2609V68.238Z" fill="#AABFC3"/>
<path d="M105.343 66.2989L107.081 66.3759V68.3499L105.343 68.2749V66.2989Z" fill="white"/>
<path d="M107.081 68.3495L105.343 68.275V66.2989L107.081 66.3756V68.3495Z" fill="#AABFC3"/>
<path d="M94.835 68.8199L96.596 68.8939V70.8819L94.835 70.8089V68.8199Z" fill="white"/>
<path d="M96.5963 70.8815L94.835 70.8093V68.8199L96.5963 68.8943V70.8815Z" fill="#AABFC3"/>
<path d="M97.475 68.9309L99.23 69.0049V70.9889L97.475 70.9169V68.9309Z" fill="white"/>
<path d="M99.2303 70.9889L97.475 70.917V68.9309L99.2303 69.005V70.9889Z" fill="#AABFC3"/>
<path d="M100.107 69.0419L101.856 69.1159V71.0959L100.107 71.0249V69.0419Z" fill="white"/>
<path d="M101.856 71.0963L100.107 71.0246V69.0419L101.856 69.1158V71.0963Z" fill="#AABFC3"/>
<path d="M102.73 69.1529L104.474 69.2269V71.2039L102.73 71.1319V69.1529Z" fill="white"/>
<path d="M104.474 71.2037L102.73 71.1323V69.1529L104.474 69.2265V71.2037Z" fill="#AABFC3"/>
<path d="M105.343 69.2629L107.081 69.3359V71.3099L105.343 71.2389V69.2629Z" fill="white"/>
<path d="M107.081 71.3101L105.343 71.2389V69.2629L107.081 69.3363V71.3101Z" fill="#AABFC3"/>
<path d="M104.99 47.5589L105.298 47.5759C105.417 47.5839 105.533 47.618 105.637 47.6759C105.742 47.7325 105.836 47.8085 105.913 47.8999C105.993 47.9963 106.056 48.1059 106.099 48.2239C106.144 48.3483 106.167 48.4796 106.167 48.6119V52.4489C106.168 52.579 106.145 52.7081 106.099 52.8299C106.056 52.9407 105.993 53.0425 105.913 53.1299C105.836 53.2153 105.742 53.2835 105.637 53.3299C105.53 53.3757 105.414 53.3963 105.298 53.3899L104.99 53.3749C104.871 53.3669 104.755 53.3328 104.651 53.2749C104.545 53.2179 104.451 53.1412 104.374 53.0489C104.293 52.9526 104.23 52.843 104.187 52.7249C104.142 52.6015 104.119 52.4712 104.119 52.3399V48.4989C104.118 48.3688 104.141 48.2397 104.187 48.1179C104.229 48.0041 104.292 47.8995 104.374 47.8099C104.451 47.7243 104.545 47.6561 104.651 47.6099C104.759 47.5671 104.875 47.5497 104.99 47.5589V47.5589Z" fill="white"/>
<path d="M105.298 52.403V48.5642L104.99 48.5471V52.3866L105.298 52.403ZM105.298 53.391L104.99 53.3749C104.87 53.3686 104.755 53.3349 104.651 53.2794C104.547 53.2239 104.453 53.1466 104.374 53.053C104.295 52.9594 104.232 52.8495 104.187 52.7289C104.143 52.6083 104.119 52.4769 104.119 52.3404V48.4987C104.119 48.3622 104.143 48.2335 104.187 48.1176C104.232 48.0018 104.295 47.8988 104.374 47.8138C104.453 47.7288 104.547 47.6616 104.651 47.6175C104.755 47.5733 104.87 47.5521 104.99 47.5588L105.298 47.5762C105.418 47.5829 105.532 47.617 105.636 47.6728C105.74 47.7286 105.834 47.8062 105.913 47.9C105.991 47.9938 106.055 48.1037 106.099 48.2243C106.143 48.3449 106.167 48.4762 106.167 48.6125V52.4492C106.167 52.5855 106.143 52.7141 106.099 52.8299C106.055 52.9458 105.991 53.0488 105.913 53.134C105.834 53.2193 105.74 53.2867 105.636 53.3312C105.532 53.3757 105.418 53.3973 105.298 53.391Z" fill="#969696"/>
<path d="M104.99 47.5589L105.298 47.5759C105.417 47.5839 105.533 47.618 105.637 47.6759C105.742 47.7325 105.836 47.8085 105.913 47.8999C105.993 47.9963 106.056 48.1059 106.099 48.2239C106.144 48.3483 106.167 48.4796 106.167 48.6119V52.4489C106.168 52.579 106.145 52.7081 106.099 52.8299C106.056 52.9407 105.993 53.0425 105.913 53.1299C105.836 53.2153 105.742 53.2835 105.637 53.3299C105.53 53.3757 105.414 53.3963 105.298 53.3899L104.99 53.3749C104.871 53.3669 104.755 53.3328 104.651 53.2749C104.545 53.2179 104.451 53.1412 104.374 53.0489C104.293 52.9526 104.23 52.843 104.187 52.7249C104.142 52.6015 104.119 52.4712 104.119 52.3399V48.4989C104.118 48.3688 104.141 48.2397 104.187 48.1179C104.229 48.0041 104.292 47.8995 104.374 47.8099C104.451 47.7243 104.545 47.6561 104.651 47.6099C104.759 47.5671 104.875 47.5497 104.99 47.5589V47.5589Z" fill="white"/>
<path d="M105.298 52.403V48.5642L104.99 48.5471V52.3866L105.298 52.403ZM105.298 53.391L104.99 53.3749C104.87 53.3686 104.755 53.3349 104.651 53.2794C104.547 53.2239 104.453 53.1466 104.374 53.053C104.295 52.9594 104.232 52.8495 104.187 52.7289C104.143 52.6083 104.119 52.4769 104.119 52.3404V48.4987C104.119 48.3622 104.143 48.2335 104.187 48.1176C104.232 48.0018 104.295 47.8988 104.374 47.8138C104.453 47.7288 104.547 47.6616 104.651 47.6175C104.755 47.5733 104.87 47.5521 104.99 47.5588L105.298 47.5762C105.418 47.5829 105.532 47.617 105.636 47.6728C105.74 47.7286 105.834 47.8062 105.913 47.9C105.991 47.9938 106.055 48.1037 106.099 48.2243C106.143 48.3449 106.167 48.4762 106.167 48.6125V52.4492C106.167 52.5855 106.143 52.7141 106.099 52.8299C106.055 52.9458 105.991 53.0488 105.913 53.134C105.834 53.2193 105.74 53.2867 105.636 53.3312C105.532 53.3757 105.418 53.3973 105.298 53.391Z" fill="#9CAFB1"/>
<path d="M95.716 47.0379L96.028 47.0559C96.1482 47.0637 96.2653 47.0979 96.371 47.1559C96.478 47.2137 96.573 47.2915 96.651 47.3849C96.7303 47.4809 96.7925 47.5898 96.835 47.7069C96.8808 47.8321 96.9041 47.9645 96.904 48.0979V51.9579C96.9044 52.0884 96.881 52.2178 96.835 52.3399C96.7925 52.453 96.7287 52.5569 96.647 52.6459C96.5688 52.7316 96.4734 52.7997 96.367 52.8459C96.2587 52.8919 96.1414 52.9124 96.024 52.9059L95.716 52.8879C95.5957 52.8801 95.4786 52.846 95.373 52.7879C95.266 52.7304 95.171 52.653 95.093 52.5599C95.0118 52.4643 94.9479 52.3553 94.904 52.2379C94.8581 52.1126 94.8348 51.9803 94.835 51.8469V47.9829C94.8343 47.8517 94.8577 47.7216 94.904 47.5989C94.9468 47.486 95.011 47.3825 95.093 47.2939C95.1711 47.2081 95.2665 47.1399 95.373 47.0939C95.4815 47.0493 95.5989 47.0301 95.716 47.0379V47.0379Z" fill="white"/>
<path d="M96.0279 51.9106V48.0489L95.7161 48.0316V51.8941L96.0279 51.9106ZM96.0279 52.9046L95.7161 52.8882C95.5945 52.8818 95.4787 52.8479 95.3733 52.7921C95.2679 52.7362 95.1729 52.6584 95.0932 52.5642C95.0134 52.47 94.9489 52.3595 94.9043 52.2381C94.8597 52.1168 94.835 51.9846 94.835 51.8473V47.9826C94.835 47.8453 94.8597 47.7158 94.9043 47.5993C94.9489 47.4828 95.0134 47.3792 95.0932 47.2937C95.1729 47.2082 95.2679 47.1407 95.3733 47.0963C95.4787 47.0519 95.5945 47.0306 95.7161 47.0374L96.0279 47.0549C96.1494 47.0618 96.2652 47.0961 96.3704 47.1523C96.4757 47.2085 96.5705 47.2866 96.6501 47.3809C96.7297 47.4753 96.7941 47.5859 96.8386 47.7073C96.8831 47.8286 96.9077 47.9606 96.9077 48.0978V51.9573C96.9077 52.0945 96.8831 52.2239 96.8386 52.3404C96.7941 52.4569 96.7297 52.5605 96.6501 52.6462C96.5705 52.7319 96.4757 52.7997 96.3704 52.8445C96.2652 52.8892 96.1494 52.911 96.0279 52.9046Z" fill="#9CAFB1"/>
<g filter="url(#filter2_d_22_747)">
<path d="M106.745 209.682L270.264 208.335C271.398 208.324 272.523 208.526 273.573 208.931C274.623 209.335 275.577 209.933 276.38 210.69C277.188 211.449 277.828 212.351 278.265 213.345C278.701 214.339 278.924 215.405 278.922 216.481V257.564C278.924 258.64 278.701 259.706 278.265 260.7C277.828 261.694 277.188 262.596 276.38 263.355C275.577 264.112 274.623 264.71 273.573 265.114C272.523 265.518 271.398 265.721 270.264 265.71L106.745 264.364C105.692 264.356 104.653 264.138 103.695 263.726C102.758 263.32 101.913 262.746 101.209 262.035C100.491 261.311 99.9234 260.466 99.5353 259.545C99.1286 258.579 98.9204 257.548 98.922 256.509V217.541C98.9202 216.501 99.1283 215.47 99.5353 214.503C99.9234 213.581 100.491 212.737 101.209 212.013C101.913 211.302 102.758 210.727 103.695 210.322C104.653 209.909 105.692 209.691 106.745 209.682V209.682Z" fill="white"/>
<path d="M239.456 227.397H238.575C238.523 227.144 238.432 226.921 238.302 226.729C238.174 226.538 238.017 226.377 237.833 226.246C237.651 226.114 237.448 226.014 237.226 225.948C237.003 225.882 236.771 225.849 236.53 225.849C236.089 225.849 235.69 225.96 235.333 226.182C234.978 226.405 234.695 226.733 234.484 227.166C234.276 227.599 234.172 228.131 234.172 228.761C234.172 229.39 234.276 229.922 234.484 230.355C234.695 230.788 234.978 231.116 235.333 231.339C235.69 231.561 236.089 231.672 236.53 231.672C236.771 231.672 237.003 231.639 237.226 231.573C237.448 231.507 237.651 231.409 237.833 231.278C238.017 231.146 238.174 230.984 238.302 230.792C238.432 230.598 238.523 230.375 238.575 230.124H239.456C239.389 230.496 239.269 230.828 239.093 231.122C238.918 231.416 238.7 231.665 238.44 231.871C238.18 232.075 237.887 232.23 237.563 232.337C237.241 232.443 236.896 232.496 236.53 232.496C235.909 232.496 235.358 232.345 234.875 232.042C234.392 231.739 234.012 231.308 233.735 230.749C233.458 230.19 233.319 229.528 233.319 228.761C233.319 227.994 233.458 227.331 233.735 226.772C234.012 226.213 234.392 225.782 234.875 225.479C235.358 225.176 235.909 225.025 236.53 225.025C236.896 225.025 237.241 225.078 237.563 225.185C237.887 225.291 238.18 225.447 238.44 225.653C238.7 225.857 238.918 226.105 239.093 226.399C239.269 226.69 239.389 227.023 239.456 227.397ZM241.603 229.116V232.397H240.765V225.124H241.603V227.795H241.674C241.802 227.513 241.994 227.289 242.25 227.123C242.508 226.955 242.851 226.871 243.279 226.871C243.651 226.871 243.977 226.946 244.256 227.095C244.535 227.242 244.752 227.468 244.906 227.773C245.062 228.076 245.14 228.462 245.14 228.931V232.397H244.302V228.988C244.302 228.555 244.19 228.22 243.965 227.983C243.742 227.744 243.433 227.624 243.038 227.624C242.763 227.624 242.517 227.682 242.299 227.798C242.084 227.914 241.913 228.083 241.788 228.306C241.665 228.529 241.603 228.798 241.603 229.116ZM248.278 232.525C247.933 232.525 247.619 232.46 247.337 232.329C247.056 232.197 246.832 232.006 246.666 231.758C246.501 231.507 246.418 231.204 246.418 230.849C246.418 230.536 246.479 230.283 246.602 230.089C246.725 229.892 246.89 229.738 247.096 229.627C247.302 229.516 247.529 229.433 247.778 229.378C248.029 229.322 248.281 229.277 248.534 229.244C248.866 229.201 249.134 229.169 249.34 229.148C249.549 229.124 249.7 229.085 249.795 229.03C249.892 228.976 249.94 228.881 249.94 228.746V228.718C249.94 228.368 249.845 228.095 249.653 227.901C249.463 227.707 249.176 227.61 248.79 227.61C248.39 227.61 248.076 227.698 247.849 227.873C247.622 228.048 247.462 228.235 247.369 228.434L246.574 228.15C246.716 227.818 246.905 227.56 247.142 227.376C247.381 227.189 247.642 227.058 247.923 226.985C248.207 226.909 248.487 226.871 248.761 226.871C248.937 226.871 249.138 226.893 249.365 226.935C249.595 226.976 249.816 227.06 250.029 227.187C250.245 227.315 250.423 227.508 250.565 227.766C250.707 228.024 250.778 228.37 250.778 228.803V232.397H249.94V231.658H249.898C249.841 231.777 249.746 231.903 249.614 232.038C249.481 232.173 249.305 232.288 249.085 232.383C248.864 232.477 248.596 232.525 248.278 232.525ZM248.406 231.772C248.738 231.772 249.017 231.707 249.244 231.577C249.474 231.446 249.647 231.278 249.763 231.072C249.881 230.866 249.94 230.65 249.94 230.422V229.655C249.905 229.698 249.827 229.737 249.706 229.773C249.588 229.806 249.45 229.835 249.294 229.861C249.14 229.885 248.99 229.906 248.843 229.925C248.699 229.942 248.582 229.956 248.492 229.968C248.274 229.996 248.07 230.043 247.881 230.106C247.694 230.168 247.542 230.261 247.426 230.387C247.313 230.51 247.256 230.678 247.256 230.891C247.256 231.182 247.363 231.403 247.579 231.552C247.797 231.699 248.073 231.772 248.406 231.772ZM253.146 229.116V232.397H252.308V226.942H253.118V227.795H253.189C253.317 227.518 253.511 227.295 253.771 227.127C254.032 226.957 254.368 226.871 254.78 226.871C255.149 226.871 255.472 226.947 255.749 227.099C256.026 227.248 256.242 227.475 256.395 227.78C256.549 228.083 256.626 228.467 256.626 228.931V232.397H255.788V228.988C255.788 228.559 255.677 228.226 255.454 227.986C255.232 227.745 254.927 227.624 254.538 227.624C254.271 227.624 254.032 227.682 253.821 227.798C253.613 227.914 253.448 228.083 253.327 228.306C253.207 228.529 253.146 228.798 253.146 229.116ZM260.359 234.556C259.955 234.556 259.607 234.504 259.315 234.4C259.024 234.298 258.782 234.163 258.587 233.995C258.396 233.829 258.243 233.652 258.129 233.462L258.797 232.994C258.873 233.093 258.969 233.207 259.085 233.334C259.201 233.465 259.359 233.577 259.56 233.672C259.764 233.769 260.03 233.817 260.359 233.817C260.8 233.817 261.163 233.711 261.45 233.498C261.736 233.285 261.879 232.951 261.879 232.496V231.388H261.808C261.747 231.488 261.659 231.611 261.546 231.758C261.434 231.902 261.273 232.031 261.063 232.145C260.854 232.256 260.573 232.312 260.217 232.312C259.777 232.312 259.382 232.208 259.031 231.999C258.683 231.791 258.408 231.488 258.204 231.09C258.003 230.692 257.902 230.209 257.902 229.641C257.902 229.083 258 228.596 258.197 228.182C258.393 227.765 258.667 227.443 259.017 227.216C259.367 226.986 259.772 226.871 260.232 226.871C260.587 226.871 260.868 226.931 261.077 227.049C261.287 227.165 261.448 227.297 261.56 227.447C261.673 227.593 261.761 227.714 261.823 227.809H261.908V226.942H262.717V232.553C262.717 233.022 262.611 233.403 262.398 233.697C262.187 233.993 261.903 234.209 261.546 234.346C261.19 234.486 260.795 234.556 260.359 234.556ZM260.331 231.559C260.667 231.559 260.951 231.482 261.183 231.328C261.415 231.174 261.592 230.953 261.712 230.664C261.833 230.375 261.894 230.029 261.894 229.627C261.894 229.234 261.834 228.887 261.716 228.587C261.598 228.286 261.422 228.05 261.19 227.88C260.958 227.709 260.672 227.624 260.331 227.624C259.976 227.624 259.68 227.714 259.443 227.894C259.209 228.074 259.033 228.315 258.914 228.619C258.798 228.922 258.74 229.258 258.74 229.627C258.74 230.006 258.799 230.341 258.918 230.632C259.038 230.921 259.216 231.148 259.45 231.314C259.687 231.477 259.981 231.559 260.331 231.559ZM266.538 232.511C266.013 232.511 265.559 232.395 265.178 232.163C264.8 231.928 264.507 231.601 264.301 231.182C264.098 230.761 263.996 230.271 263.996 229.712C263.996 229.154 264.098 228.661 264.301 228.235C264.507 227.806 264.794 227.473 265.161 227.234C265.53 226.992 265.961 226.871 266.453 226.871C266.737 226.871 267.018 226.919 267.295 227.013C267.572 227.108 267.824 227.262 268.051 227.475C268.278 227.686 268.46 227.965 268.595 228.313C268.729 228.661 268.797 229.09 268.797 229.599V229.954H264.592V229.229H267.945C267.945 228.922 267.883 228.647 267.76 228.405C267.639 228.164 267.466 227.973 267.242 227.834C267.019 227.694 266.756 227.624 266.453 227.624C266.119 227.624 265.831 227.707 265.587 227.873C265.345 228.036 265.159 228.249 265.029 228.512C264.899 228.775 264.834 229.056 264.834 229.357V229.84C264.834 230.252 264.905 230.601 265.047 230.888C265.191 231.172 265.391 231.388 265.647 231.538C265.903 231.684 266.2 231.758 266.538 231.758C266.759 231.758 266.957 231.727 267.135 231.665C267.315 231.601 267.47 231.507 267.6 231.381C267.73 231.253 267.831 231.095 267.902 230.905L268.712 231.133C268.626 231.407 268.483 231.649 268.282 231.857C268.081 232.063 267.832 232.224 267.536 232.34C267.24 232.454 266.908 232.511 266.538 232.511Z" fill="#113DBC"/>
</g>
<g filter="url(#filter3_d_22_747)">
<path d="M109 233.397H130V245.397C130 245.927 129.789 246.436 129.414 246.811C129.039 247.186 128.53 247.397 128 247.397H111C110.47 247.397 109.961 247.186 109.586 246.811C109.211 246.436 109 245.927 109 245.397V233.397Z" fill="white"/>
</g>
<g filter="url(#filter4_d_22_747)">
<path d="M111 227.397H128C128.53 227.397 129.039 227.608 129.414 227.983C129.789 228.358 130 228.866 130 229.397V233.397H109V229.397C109 228.866 109.211 228.358 109.586 227.983C109.961 227.608 110.47 227.397 111 227.397V227.397Z" fill="#FE4141"/>
</g>
<path d="M116 236.397H114V238.397H116V236.397Z" fill="white"/>
<path d="M115.5 236.897H114.5V237.897H115.5V236.897Z" stroke="#AABFC3"/>
<path d="M119 236.397H117V238.397H119V236.397Z" fill="white"/>
<path d="M118.5 236.897H117.5V237.897H118.5V236.897Z" stroke="#AABFC3"/>
<path d="M122 236.397H120V238.397H122V236.397Z" fill="white"/>
<path d="M121.5 236.897H120.5V237.897H121.5V236.897Z" stroke="#AABFC3"/>
<path d="M125 236.397H123V238.397H125V236.397Z" fill="white"/>
<path d="M124.5 236.897H123.5V237.897H124.5V236.897Z" stroke="#AABFC3"/>
<path d="M116 239.397H114V241.397H116V239.397Z" fill="white"/>
<path d="M115.5 239.897H114.5V240.897H115.5V239.897Z" stroke="#AABFC3"/>
<path d="M119 239.397H117V241.397H119V239.397Z" fill="white"/>
<path d="M118.5 239.897H117.5V240.897H118.5V239.897Z" stroke="#AABFC3"/>
<path d="M122 239.397H120V241.397H122V239.397Z" fill="white"/>
<path d="M121.5 239.897H120.5V240.897H121.5V239.897Z" stroke="#AABFC3"/>
<path d="M125 239.397H123V241.397H125V239.397Z" fill="white"/>
<path d="M124.5 239.897H123.5V240.897H124.5V239.897Z" stroke="#AABFC3"/>
<path d="M116 242.397H114V244.397H116V242.397Z" fill="white"/>
<path d="M115.5 242.897H114.5V243.897H115.5V242.897Z" stroke="#AABFC3"/>
<path d="M119 242.397H117V244.397H119V242.397Z" fill="white"/>
<path d="M118.5 242.897H117.5V243.897H118.5V242.897Z" stroke="#AABFC3"/>
<path d="M122 242.397H120V244.397H122V242.397Z" fill="white"/>
<path d="M121.5 242.897H120.5V243.897H121.5V242.897Z" stroke="#AABFC3"/>
<path d="M125 242.397H123V244.397H125V242.397Z" fill="white"/>
<path d="M124.5 242.897H123.5V243.897H124.5V242.897Z" stroke="#AABFC3"/>
<path d="M115 225.897C115.276 225.897 115.5 226.121 115.5 226.397V229.397C115.5 229.673 115.276 229.897 115 229.897C114.724 229.897 114.5 229.673 114.5 229.397V226.397C114.5 226.121 114.724 225.897 115 225.897Z" fill="white" stroke="#9CAFB1"/>
<path d="M115.5 226.397C115.5 226.121 115.276 225.897 115 225.897C114.724 225.897 114.5 226.121 114.5 226.397V229.397C114.5 229.673 114.724 229.897 115 229.897C115.276 229.897 115.5 229.673 115.5 229.397V226.397Z" stroke="#9CAFB1"/>
<path d="M125 226.397C125 225.845 124.552 225.397 124 225.397C123.448 225.397 123 225.845 123 226.397V229.397C123 229.949 123.448 230.397 124 230.397C124.552 230.397 125 229.949 125 229.397V226.397Z" fill="white"/>
<path d="M124.5 226.397C124.5 226.121 124.276 225.897 124 225.897C123.724 225.897 123.5 226.121 123.5 226.397V229.397C123.5 229.673 123.724 229.897 124 229.897C124.276 229.897 124.5 229.673 124.5 229.397V226.397Z" stroke="#9CAFB1"/>
<path d="M53.2404 111.397V104.124H55.8327C56.3986 104.124 56.8673 104.227 57.239 104.433C57.6107 104.639 57.8888 104.921 58.0735 105.278C58.2582 105.633 58.3505 106.034 58.3505 106.479C58.3505 106.926 58.257 107.328 58.07 107.686C57.8853 108.041 57.6059 108.323 57.2319 108.531C56.8602 108.737 56.3926 108.84 55.8292 108.84H54.0465V107.91H55.7298C56.0872 107.91 56.3772 107.848 56.5998 107.725C56.8223 107.6 56.9857 107.429 57.0898 107.214C57.194 106.998 57.2461 106.753 57.2461 106.479C57.2461 106.204 57.194 105.96 57.0898 105.747C56.9857 105.534 56.8211 105.367 56.5962 105.246C56.3737 105.126 56.0801 105.065 55.7156 105.065H54.3377V111.397H53.2404ZM59.5517 111.397V105.942H60.5779V106.809H60.6348C60.7342 106.515 60.9094 106.284 61.1603 106.116C61.4136 105.946 61.7001 105.861 62.0197 105.861C62.086 105.861 62.1641 105.863 62.2541 105.868C62.3464 105.873 62.4186 105.878 62.4707 105.886V106.901C62.4281 106.889 62.3523 106.876 62.2434 106.862C62.1345 106.846 62.0256 106.837 61.9167 106.837C61.6658 106.837 61.4421 106.891 61.2456 106.997C61.0514 107.101 60.8975 107.247 60.7839 107.434C60.6703 107.619 60.6135 107.829 60.6135 108.066V111.397H59.5517ZM65.4918 111.507C64.9805 111.507 64.5342 111.39 64.1531 111.155C63.7719 110.921 63.476 110.593 63.2653 110.172C63.0546 109.75 62.9492 109.258 62.9492 108.694C62.9492 108.129 63.0546 107.634 63.2653 107.21C63.476 106.786 63.7719 106.457 64.1531 106.223C64.5342 105.989 64.9805 105.871 65.4918 105.871C66.0032 105.871 66.4495 105.989 66.8306 106.223C67.2118 106.457 67.5077 106.786 67.7184 107.21C67.9291 107.634 68.0344 108.129 68.0344 108.694C68.0344 109.258 67.9291 109.75 67.7184 110.172C67.5077 110.593 67.2118 110.921 66.8306 111.155C66.4495 111.39 66.0032 111.507 65.4918 111.507ZM65.4954 110.616C65.8268 110.616 66.1014 110.528 66.3192 110.353C66.5371 110.178 66.698 109.944 66.8022 109.653C66.9087 109.362 66.962 109.041 66.962 108.691C66.962 108.343 66.9087 108.023 66.8022 107.732C66.698 107.439 66.5371 107.203 66.3192 107.025C66.1014 106.848 65.8268 106.759 65.4954 106.759C65.1616 106.759 64.8846 106.848 64.6644 107.025C64.4466 107.203 64.2844 107.439 64.1779 107.732C64.0737 108.023 64.0217 108.343 64.0217 108.691C64.0217 109.041 64.0737 109.362 64.1779 109.653C64.2844 109.944 64.4466 110.178 64.6644 110.353C64.8846 110.528 65.1616 110.616 65.4954 110.616ZM73.7003 105.942L71.7223 111.397H70.5859L68.6044 105.942H69.7443L71.1257 110.14H71.1825L72.5604 105.942H73.7003ZM74.6982 111.397V105.942H75.7599V111.397H74.6982ZM75.2344 105.101C75.0497 105.101 74.8911 105.039 74.7585 104.916C74.6283 104.791 74.5632 104.641 74.5632 104.469C74.5632 104.293 74.6283 104.144 74.7585 104.021C74.8911 103.896 75.0497 103.833 75.2344 103.833C75.419 103.833 75.5765 103.896 75.7067 104.021C75.8393 104.144 75.9055 104.293 75.9055 104.469C75.9055 104.641 75.8393 104.791 75.7067 104.916C75.5765 105.039 75.419 105.101 75.2344 105.101ZM79.2303 111.503C78.79 111.503 78.397 111.391 78.0513 111.166C77.708 110.939 77.4382 110.616 77.2417 110.197C77.0475 109.775 76.9505 109.27 76.9505 108.68C76.9505 108.091 77.0487 107.587 77.2452 107.168C77.4441 106.748 77.7163 106.428 78.062 106.205C78.4076 105.983 78.7994 105.871 79.2374 105.871C79.5759 105.871 79.8482 105.928 80.0542 106.042C80.2625 106.153 80.4235 106.283 80.5371 106.432C80.6531 106.582 80.7431 106.713 80.807 106.827H80.8709V104.124H81.9327V111.397H80.8958V110.548H80.807C80.7431 110.664 80.6507 110.797 80.53 110.946C80.4116 111.095 80.2483 111.225 80.04 111.337C79.8316 111.448 79.5617 111.503 79.2303 111.503ZM79.4647 110.598C79.7701 110.598 80.0281 110.517 80.2388 110.356C80.4519 110.193 80.6129 109.967 80.7218 109.678C80.833 109.389 80.8887 109.053 80.8887 108.67C80.8887 108.291 80.8342 107.959 80.7253 107.675C80.6164 107.391 80.4566 107.17 80.2459 107.011C80.0352 106.853 79.7748 106.773 79.4647 106.773C79.1451 106.773 78.8787 106.856 78.6657 107.022C78.4526 107.188 78.2916 107.414 78.1827 107.7C78.0762 107.987 78.0229 108.31 78.0229 108.67C78.0229 109.034 78.0774 109.362 78.1863 109.653C78.2952 109.944 78.4561 110.175 78.6692 110.346C78.8846 110.514 79.1498 110.598 79.4647 110.598ZM85.799 111.507C85.2616 111.507 84.7988 111.392 84.4105 111.163C84.0246 110.931 83.7263 110.605 83.5156 110.186C83.3073 109.765 83.2031 109.271 83.2031 108.705C83.2031 108.146 83.3073 107.654 83.5156 107.228C83.7263 106.802 84.0199 106.469 84.3963 106.23C84.7751 105.991 85.2178 105.871 85.7244 105.871C86.0322 105.871 86.3305 105.922 86.6193 106.024C86.9081 106.126 87.1674 106.286 87.397 106.503C87.6267 106.721 87.8078 107.004 87.9403 107.352C88.0729 107.698 88.1392 108.118 88.1392 108.613V108.989H83.8033V108.194H87.0987C87.0987 107.914 87.0419 107.667 86.9283 107.452C86.8146 107.234 86.6548 107.062 86.4489 106.937C86.2453 106.811 86.0062 106.748 85.7315 106.748C85.4332 106.748 85.1728 106.822 84.9503 106.969C84.7301 107.113 84.5597 107.302 84.4389 107.537C84.3205 107.769 84.2614 108.021 84.2614 108.293V108.915C84.2614 109.279 84.3253 109.589 84.4531 109.845C84.5833 110.101 84.7644 110.296 84.9964 110.431C85.2285 110.564 85.4995 110.63 85.8097 110.63C86.0109 110.63 86.1944 110.601 86.3601 110.545C86.5258 110.485 86.669 110.398 86.7898 110.282C86.9105 110.166 87.0028 110.023 87.0668 109.852L88.0717 110.033C87.9912 110.329 87.8468 110.588 87.6385 110.811C87.4325 111.031 87.1733 111.203 86.8608 111.326C86.5507 111.447 86.1967 111.507 85.799 111.507ZM92.6634 111.397H91.4986L94.1158 104.124H95.3835L98.0007 111.397H96.8359L94.7798 105.445H94.723L92.6634 111.397ZM92.8587 108.549H96.6371V109.472H92.8587V108.549ZM102.948 105.942L100.97 111.397H99.834L97.8525 105.942H98.9924L100.374 110.14H100.431L101.808 105.942H102.948ZM105.377 111.518C105.032 111.518 104.719 111.454 104.44 111.326C104.16 111.196 103.939 111.007 103.776 110.761C103.615 110.515 103.534 110.213 103.534 109.856C103.534 109.548 103.593 109.295 103.712 109.096C103.83 108.897 103.99 108.739 104.191 108.623C104.392 108.507 104.617 108.42 104.866 108.361C105.115 108.302 105.368 108.257 105.626 108.226C105.953 108.188 106.218 108.157 106.421 108.133C106.625 108.107 106.773 108.066 106.865 108.009C106.958 107.952 107.004 107.86 107.004 107.732V107.707C107.004 107.397 106.916 107.157 106.741 106.986C106.568 106.816 106.31 106.731 105.967 106.731C105.609 106.731 105.328 106.81 105.122 106.969C104.918 107.125 104.777 107.299 104.699 107.491L103.701 107.263C103.82 106.932 103.992 106.664 104.22 106.461C104.449 106.255 104.713 106.106 105.012 106.013C105.31 105.919 105.624 105.871 105.953 105.871C106.17 105.871 106.401 105.897 106.645 105.949C106.891 105.999 107.121 106.092 107.334 106.226C107.549 106.361 107.726 106.554 107.863 106.805C108 107.054 108.069 107.377 108.069 107.775V111.397H107.032V110.651H106.99C106.921 110.788 106.818 110.923 106.681 111.056C106.543 111.189 106.367 111.299 106.151 111.386C105.936 111.474 105.678 111.518 105.377 111.518ZM105.608 110.665C105.902 110.665 106.153 110.607 106.361 110.491C106.572 110.375 106.731 110.224 106.84 110.037C106.952 109.847 107.007 109.645 107.007 109.43V108.726C106.969 108.764 106.896 108.8 106.787 108.833C106.681 108.864 106.559 108.891 106.421 108.915C106.284 108.936 106.15 108.956 106.02 108.975C105.89 108.992 105.781 109.006 105.693 109.018C105.487 109.044 105.299 109.087 105.129 109.149C104.961 109.211 104.826 109.299 104.724 109.415C104.624 109.529 104.575 109.681 104.575 109.87C104.575 110.133 104.672 110.332 104.866 110.467C105.06 110.599 105.307 110.665 105.608 110.665ZM109.483 111.397V105.942H110.545V111.397H109.483ZM110.02 105.101C109.835 105.101 109.676 105.039 109.544 104.916C109.413 104.791 109.348 104.641 109.348 104.469C109.348 104.293 109.413 104.144 109.544 104.021C109.676 103.896 109.835 103.833 110.02 103.833C110.204 103.833 110.362 103.896 110.492 104.021C110.624 104.144 110.691 104.293 110.691 104.469C110.691 104.641 110.624 104.791 110.492 104.916C110.362 105.039 110.204 105.101 110.02 105.101ZM113.035 104.124V111.397H111.974V104.124H113.035ZM116.051 111.518C115.705 111.518 115.393 111.454 115.114 111.326C114.834 111.196 114.613 111.007 114.45 110.761C114.289 110.515 114.208 110.213 114.208 109.856C114.208 109.548 114.267 109.295 114.386 109.096C114.504 108.897 114.664 108.739 114.865 108.623C115.066 108.507 115.291 108.42 115.54 108.361C115.788 108.302 116.042 108.257 116.3 108.226C116.626 108.188 116.892 108.157 117.095 108.133C117.299 108.107 117.447 108.066 117.539 108.009C117.631 107.952 117.678 107.86 117.678 107.732V107.707C117.678 107.397 117.59 107.157 117.415 106.986C117.242 106.816 116.984 106.731 116.641 106.731C116.283 106.731 116.001 106.81 115.795 106.969C115.592 107.125 115.451 107.299 115.373 107.491L114.375 107.263C114.493 106.932 114.666 106.664 114.893 106.461C115.123 106.255 115.387 106.106 115.685 106.013C115.984 105.919 116.297 105.871 116.626 105.871C116.844 105.871 117.075 105.897 117.319 105.949C117.565 105.999 117.795 106.092 118.008 106.226C118.223 106.361 118.4 106.554 118.537 106.805C118.674 107.054 118.743 107.377 118.743 107.775V111.397H117.706V110.651H117.663C117.595 110.788 117.492 110.923 117.354 111.056C117.217 111.189 117.041 111.299 116.825 111.386C116.61 111.474 116.352 111.518 116.051 111.518ZM116.282 110.665C116.576 110.665 116.826 110.607 117.035 110.491C117.246 110.375 117.405 110.224 117.514 110.037C117.625 109.847 117.681 109.645 117.681 109.43V108.726C117.643 108.764 117.57 108.8 117.461 108.833C117.354 108.864 117.232 108.891 117.095 108.915C116.958 108.936 116.824 108.956 116.694 108.975C116.564 108.992 116.455 109.006 116.367 109.018C116.161 109.044 115.973 109.087 115.803 109.149C115.634 109.211 115.5 109.299 115.398 109.415C115.298 109.529 115.249 109.681 115.249 109.87C115.249 110.133 115.346 110.332 115.54 110.467C115.734 110.599 115.981 110.665 116.282 110.665ZM120.242 111.397V104.124H121.304V106.827H121.368C121.43 106.713 121.518 106.582 121.634 106.432C121.75 106.283 121.911 106.153 122.117 106.042C122.323 105.928 122.596 105.871 122.934 105.871C123.374 105.871 123.767 105.983 124.113 106.205C124.459 106.428 124.73 106.748 124.926 107.168C125.125 107.587 125.225 108.091 125.225 108.68C125.225 109.27 125.126 109.775 124.93 110.197C124.733 110.616 124.463 110.939 124.12 111.166C123.777 111.391 123.385 111.503 122.945 111.503C122.613 111.503 122.342 111.448 122.132 111.337C121.923 111.225 121.76 111.095 121.642 110.946C121.523 110.797 121.432 110.664 121.368 110.548H121.279V111.397H120.242ZM121.283 108.67C121.283 109.053 121.338 109.389 121.45 109.678C121.561 109.967 121.722 110.193 121.933 110.356C122.143 110.517 122.401 110.598 122.707 110.598C123.024 110.598 123.289 110.514 123.502 110.346C123.715 110.175 123.876 109.944 123.985 109.653C124.097 109.362 124.152 109.034 124.152 108.67C124.152 108.31 124.098 107.987 123.989 107.7C123.882 107.414 123.721 107.188 123.506 107.022C123.293 106.856 123.026 106.773 122.707 106.773C122.399 106.773 122.139 106.853 121.926 107.011C121.715 107.17 121.555 107.391 121.446 107.675C121.337 107.959 121.283 108.291 121.283 108.67ZM126.417 111.397V105.942H127.479V111.397H126.417ZM126.953 105.101C126.768 105.101 126.61 105.039 126.477 104.916C126.347 104.791 126.282 104.641 126.282 104.469C126.282 104.293 126.347 104.144 126.477 104.021C126.61 103.896 126.768 103.833 126.953 103.833C127.138 103.833 127.295 103.896 127.425 104.021C127.558 104.144 127.624 104.293 127.624 104.469C127.624 104.641 127.558 104.791 127.425 104.916C127.295 105.039 127.138 105.101 126.953 105.101ZM129.969 104.124V111.397H128.907V104.124H129.969ZM131.397 111.397V105.942H132.459V111.397H131.397ZM131.934 105.101C131.749 105.101 131.59 105.039 131.458 104.916C131.328 104.791 131.262 104.641 131.262 104.469C131.262 104.293 131.328 104.144 131.458 104.021C131.59 103.896 131.749 103.833 131.934 103.833C132.118 103.833 132.276 103.896 132.406 104.021C132.538 104.144 132.605 104.293 132.605 104.469C132.605 104.641 132.538 104.791 132.406 104.916C132.276 105.039 132.118 105.101 131.934 105.101ZM136.434 105.942V106.795H133.454V105.942H136.434ZM134.253 104.636H135.315V109.795C135.315 110.001 135.346 110.156 135.407 110.261C135.469 110.362 135.548 110.432 135.645 110.47C135.745 110.506 135.853 110.523 135.969 110.523C136.054 110.523 136.128 110.517 136.192 110.506C136.256 110.494 136.306 110.484 136.341 110.477L136.533 111.354C136.472 111.378 136.384 111.402 136.27 111.425C136.157 111.451 136.015 111.466 135.844 111.468C135.565 111.473 135.305 111.423 135.063 111.319C134.822 111.215 134.626 111.054 134.477 110.836C134.328 110.618 134.253 110.345 134.253 110.016V104.636ZM138.279 113.442C138.121 113.442 137.976 113.429 137.846 113.403C137.716 113.38 137.619 113.354 137.555 113.325L137.811 112.455C138.005 112.507 138.178 112.53 138.329 112.523C138.481 112.516 138.614 112.459 138.73 112.352C138.849 112.246 138.953 112.072 139.043 111.83L139.174 111.468L137.179 105.942H138.315L139.696 110.175H139.753L141.135 105.942H142.275L140.027 112.125C139.922 112.409 139.79 112.649 139.629 112.846C139.468 113.045 139.276 113.194 139.054 113.293C138.831 113.393 138.573 113.442 138.279 113.442Z" fill="black"/>
<path d="M136.775 226.069V225.124H142.404V226.069H140.135V232.397H139.041V226.069H136.775ZM145.069 232.507C144.558 232.507 144.111 232.39 143.73 232.155C143.349 231.921 143.053 231.593 142.842 231.172C142.632 230.75 142.526 230.258 142.526 229.694C142.526 229.129 142.632 228.634 142.842 228.21C143.053 227.786 143.349 227.457 143.73 227.223C144.111 226.989 144.558 226.871 145.069 226.871C145.58 226.871 146.027 226.989 146.408 227.223C146.789 227.457 147.085 227.786 147.296 228.21C147.506 228.634 147.612 229.129 147.612 229.694C147.612 230.258 147.506 230.75 147.296 231.172C147.085 231.593 146.789 231.921 146.408 232.155C146.027 232.39 145.58 232.507 145.069 232.507ZM145.073 231.616C145.404 231.616 145.679 231.528 145.896 231.353C146.114 231.178 146.275 230.944 146.379 230.653C146.486 230.362 146.539 230.041 146.539 229.691C146.539 229.343 146.486 229.023 146.379 228.732C146.275 228.439 146.114 228.203 145.896 228.025C145.679 227.848 145.404 227.759 145.073 227.759C144.739 227.759 144.462 227.848 144.242 228.025C144.024 228.203 143.862 228.439 143.755 228.732C143.651 229.023 143.599 229.343 143.599 229.691C143.599 230.041 143.651 230.362 143.755 230.653C143.862 230.944 144.024 231.178 144.242 231.353C144.462 231.528 144.739 231.616 145.073 231.616ZM150.839 232.503C150.398 232.503 150.005 232.391 149.66 232.166C149.316 231.939 149.047 231.616 148.85 231.197C148.656 230.775 148.559 230.27 148.559 229.68C148.559 229.091 148.657 228.587 148.854 228.168C149.052 227.748 149.325 227.428 149.67 227.205C150.016 226.983 150.408 226.871 150.846 226.871C151.184 226.871 151.457 226.928 151.663 227.042C151.871 227.153 152.032 227.283 152.146 227.432C152.262 227.582 152.351 227.713 152.415 227.827H152.479V225.124H153.541V232.397H152.504V231.548H152.415C152.351 231.664 152.259 231.797 152.138 231.946C152.02 232.095 151.857 232.225 151.648 232.337C151.44 232.448 151.17 232.503 150.839 232.503ZM151.073 231.598C151.378 231.598 151.637 231.517 151.847 231.356C152.06 231.193 152.221 230.967 152.33 230.678C152.441 230.389 152.497 230.053 152.497 229.67C152.497 229.291 152.443 228.959 152.334 228.675C152.225 228.391 152.065 228.17 151.854 228.011C151.644 227.853 151.383 227.773 151.073 227.773C150.753 227.773 150.487 227.856 150.274 228.022C150.061 228.188 149.9 228.414 149.791 228.7C149.685 228.987 149.631 229.31 149.631 229.67C149.631 230.034 149.686 230.362 149.795 230.653C149.904 230.944 150.065 231.175 150.278 231.346C150.493 231.514 150.758 231.598 151.073 231.598ZM156.644 232.518C156.298 232.518 155.986 232.454 155.706 232.326C155.427 232.196 155.206 232.007 155.042 231.761C154.881 231.515 154.801 231.213 154.801 230.856C154.801 230.548 154.86 230.295 154.978 230.096C155.097 229.897 155.257 229.739 155.458 229.623C155.659 229.507 155.884 229.42 156.133 229.361C156.381 229.302 156.634 229.257 156.892 229.226C157.219 229.188 157.484 229.157 157.688 229.133C157.892 229.107 158.04 229.066 158.132 229.009C158.224 228.952 158.27 228.86 158.27 228.732V228.707C158.27 228.397 158.183 228.157 158.008 227.986C157.835 227.816 157.577 227.731 157.233 227.731C156.876 227.731 156.594 227.81 156.388 227.969C156.185 228.125 156.044 228.299 155.966 228.491L154.968 228.263C155.086 227.932 155.259 227.664 155.486 227.461C155.716 227.255 155.98 227.106 156.278 227.013C156.576 226.919 156.89 226.871 157.219 226.871C157.437 226.871 157.668 226.897 157.912 226.949C158.158 226.999 158.388 227.092 158.601 227.226C158.816 227.361 158.992 227.554 159.13 227.805C159.267 228.054 159.336 228.377 159.336 228.775V232.397H158.299V231.651H158.256C158.187 231.788 158.084 231.923 157.947 232.056C157.81 232.189 157.633 232.299 157.418 232.386C157.203 232.474 156.945 232.518 156.644 232.518ZM156.875 231.665C157.168 231.665 157.419 231.607 157.628 231.491C157.838 231.375 157.998 231.224 158.107 231.037C158.218 230.847 158.274 230.645 158.274 230.43V229.726C158.236 229.764 158.163 229.8 158.054 229.833C157.947 229.864 157.825 229.891 157.688 229.915C157.551 229.936 157.417 229.956 157.287 229.975C157.156 229.992 157.048 230.006 156.96 230.018C156.754 230.044 156.566 230.087 156.395 230.149C156.227 230.211 156.092 230.299 155.991 230.415C155.891 230.529 155.841 230.681 155.841 230.87C155.841 231.133 155.938 231.332 156.133 231.467C156.327 231.599 156.574 231.665 156.875 231.665ZM161.226 234.442C161.067 234.442 160.923 234.429 160.793 234.403C160.662 234.38 160.565 234.354 160.501 234.325L160.757 233.455C160.951 233.507 161.124 233.53 161.275 233.523C161.427 233.516 161.561 233.459 161.677 233.352C161.795 233.246 161.899 233.072 161.989 232.83L162.121 232.468L160.125 226.942H161.261L162.643 231.175H162.699L164.081 226.942H165.221L162.973 233.125C162.869 233.409 162.736 233.649 162.575 233.846C162.414 234.045 162.222 234.194 162 234.293C161.777 234.393 161.519 234.442 161.226 234.442ZM167.473 225.124V225.806C167.473 226.007 167.435 226.219 167.359 226.442C167.286 226.662 167.182 226.874 167.047 227.077C166.912 227.281 166.753 227.456 166.571 227.603L166.046 227.226C166.185 227.023 166.306 226.806 166.408 226.577C166.512 226.347 166.564 226.094 166.564 225.817V225.124H167.473ZM171.898 228.274L170.935 228.444C170.895 228.321 170.831 228.204 170.744 228.093C170.658 227.982 170.542 227.891 170.396 227.819C170.249 227.748 170.065 227.713 169.845 227.713C169.545 227.713 169.294 227.78 169.092 227.915C168.891 228.048 168.791 228.22 168.791 228.43C168.791 228.613 168.858 228.759 168.993 228.871C169.128 228.982 169.346 229.073 169.646 229.144L170.513 229.343C171.015 229.459 171.389 229.638 171.635 229.879C171.881 230.121 172.004 230.434 172.004 230.82C172.004 231.147 171.91 231.438 171.72 231.694C171.533 231.947 171.272 232.146 170.935 232.29C170.602 232.435 170.215 232.507 169.774 232.507C169.163 232.507 168.665 232.377 168.279 232.116C167.893 231.854 167.657 231.481 167.569 230.998L168.595 230.842C168.659 231.109 168.791 231.311 168.989 231.449C169.188 231.584 169.448 231.651 169.767 231.651C170.115 231.651 170.393 231.579 170.602 231.435C170.81 231.288 170.914 231.109 170.914 230.898C170.914 230.728 170.85 230.585 170.722 230.469C170.597 230.353 170.404 230.265 170.144 230.206L169.22 230.003C168.711 229.887 168.335 229.703 168.091 229.449C167.85 229.196 167.729 228.875 167.729 228.487C167.729 228.165 167.819 227.883 167.999 227.642C168.179 227.4 168.427 227.212 168.744 227.077C169.062 226.94 169.425 226.871 169.835 226.871C170.424 226.871 170.888 226.999 171.227 227.255C171.565 227.508 171.789 227.848 171.898 228.274ZM179.87 227.035C179.832 226.699 179.676 226.438 179.401 226.253C179.127 226.066 178.781 225.973 178.364 225.973C178.066 225.973 177.808 226.02 177.59 226.115C177.372 226.207 177.203 226.335 177.082 226.498C176.964 226.659 176.905 226.843 176.905 227.049C176.905 227.222 176.945 227.371 177.026 227.496C177.109 227.622 177.216 227.727 177.349 227.812C177.484 227.895 177.628 227.965 177.782 228.022C177.936 228.076 178.084 228.121 178.226 228.157L178.936 228.342C179.168 228.398 179.406 228.475 179.65 228.572C179.894 228.669 180.12 228.797 180.328 228.956C180.537 229.114 180.705 229.311 180.832 229.545C180.963 229.78 181.028 230.06 181.028 230.387C181.028 230.799 180.921 231.165 180.708 231.484C180.497 231.804 180.191 232.056 179.788 232.241C179.388 232.425 178.904 232.518 178.336 232.518C177.792 232.518 177.32 232.431 176.923 232.258C176.525 232.086 176.214 231.841 175.989 231.523C175.764 231.204 175.64 230.825 175.616 230.387H176.717C176.738 230.65 176.823 230.869 176.972 231.044C177.124 231.217 177.317 231.346 177.551 231.431C177.788 231.514 178.047 231.555 178.329 231.555C178.639 231.555 178.915 231.507 179.156 231.41C179.4 231.31 179.592 231.173 179.732 230.998C179.871 230.82 179.941 230.613 179.941 230.376C179.941 230.161 179.88 229.985 179.756 229.847C179.636 229.71 179.471 229.596 179.263 229.506C179.057 229.416 178.824 229.337 178.563 229.268L177.704 229.034C177.122 228.875 176.66 228.642 176.319 228.334C175.98 228.027 175.811 227.619 175.811 227.113C175.811 226.694 175.925 226.328 176.152 226.016C176.379 225.703 176.687 225.46 177.075 225.288C177.464 225.112 177.902 225.025 178.389 225.025C178.882 225.025 179.316 225.111 179.693 225.284C180.071 225.457 180.37 225.695 180.587 225.998C180.805 226.298 180.919 226.644 180.928 227.035H179.87ZM184.551 232.507C184.023 232.507 183.569 232.387 183.188 232.148C182.809 231.907 182.518 231.574 182.314 231.15C182.111 230.727 182.009 230.241 182.009 229.694C182.009 229.141 182.113 228.652 182.321 228.228C182.53 227.802 182.823 227.469 183.202 227.23C183.581 226.991 184.027 226.871 184.541 226.871C184.955 226.871 185.324 226.948 185.649 227.102C185.973 227.254 186.235 227.467 186.434 227.741C186.635 228.016 186.754 228.337 186.792 228.704H185.759C185.702 228.448 185.572 228.228 185.368 228.043C185.167 227.859 184.897 227.766 184.559 227.766C184.263 227.766 184.003 227.844 183.781 228.001C183.561 228.154 183.389 228.375 183.266 228.661C183.143 228.945 183.081 229.281 183.081 229.67C183.081 230.067 183.142 230.411 183.262 230.699C183.383 230.988 183.554 231.212 183.774 231.371C183.996 231.529 184.258 231.609 184.559 231.609C184.76 231.609 184.942 231.572 185.105 231.498C185.271 231.423 185.41 231.315 185.521 231.175C185.634 231.036 185.714 230.868 185.759 230.671H186.792C186.754 231.024 186.639 231.339 186.448 231.616C186.256 231.893 185.999 232.11 185.677 232.269C185.358 232.428 184.982 232.507 184.551 232.507ZM188.989 229.158V232.397H187.928V225.124H188.975V227.83H189.043C189.171 227.537 189.366 227.303 189.629 227.131C189.891 226.958 190.235 226.871 190.658 226.871C191.033 226.871 191.359 226.948 191.639 227.102C191.92 227.256 192.138 227.486 192.292 227.791C192.448 228.094 192.526 228.473 192.526 228.927V232.397H191.465V229.055C191.465 228.655 191.362 228.345 191.156 228.125C190.95 227.902 190.663 227.791 190.296 227.791C190.045 227.791 189.82 227.844 189.622 227.951C189.425 228.057 189.27 228.214 189.156 228.42C189.045 228.623 188.989 228.869 188.989 229.158ZM196.294 232.507C195.757 232.507 195.294 232.392 194.906 232.163C194.52 231.931 194.221 231.605 194.011 231.186C193.802 230.765 193.698 230.271 193.698 229.705C193.698 229.146 193.802 228.654 194.011 228.228C194.221 227.802 194.515 227.469 194.891 227.23C195.27 226.991 195.713 226.871 196.22 226.871C196.527 226.871 196.826 226.922 197.114 227.024C197.403 227.126 197.662 227.286 197.892 227.503C198.122 227.721 198.303 228.004 198.435 228.352C198.568 228.698 198.634 229.118 198.634 229.613V229.989H194.298V229.194H197.594C197.594 228.914 197.537 228.667 197.423 228.452C197.31 228.234 197.15 228.062 196.944 227.937C196.74 227.811 196.501 227.748 196.227 227.748C195.928 227.748 195.668 227.822 195.445 227.969C195.225 228.113 195.055 228.302 194.934 228.537C194.816 228.769 194.756 229.021 194.756 229.293V229.915C194.756 230.279 194.82 230.589 194.948 230.845C195.078 231.101 195.26 231.296 195.492 231.431C195.724 231.564 195.995 231.63 196.305 231.63C196.506 231.63 196.689 231.601 196.855 231.545C197.021 231.485 197.164 231.398 197.285 231.282C197.406 231.166 197.498 231.023 197.562 230.852L198.567 231.033C198.486 231.329 198.342 231.588 198.134 231.811C197.928 232.031 197.668 232.203 197.356 232.326C197.046 232.447 196.692 232.507 196.294 232.507ZM201.854 232.503C201.414 232.503 201.021 232.391 200.675 232.166C200.332 231.939 200.062 231.616 199.866 231.197C199.672 230.775 199.574 230.27 199.574 229.68C199.574 229.091 199.673 228.587 199.869 228.168C200.068 227.748 200.34 227.428 200.686 227.205C201.032 226.983 201.423 226.871 201.861 226.871C202.2 226.871 202.472 226.928 202.678 227.042C202.887 227.153 203.047 227.283 203.161 227.432C203.277 227.582 203.367 227.713 203.431 227.827H203.495V225.124H204.557V232.397H203.52V231.548H203.431C203.367 231.664 203.275 231.797 203.154 231.946C203.036 232.095 202.872 232.225 202.664 232.337C202.456 232.448 202.186 232.503 201.854 232.503ZM202.089 231.598C202.394 231.598 202.652 231.517 202.863 231.356C203.076 231.193 203.237 230.967 203.346 230.678C203.457 230.389 203.513 230.053 203.513 229.67C203.513 229.291 203.458 228.959 203.349 228.675C203.24 228.391 203.081 228.17 202.87 228.011C202.659 227.853 202.399 227.773 202.089 227.773C201.769 227.773 201.503 227.856 201.29 228.022C201.077 228.188 200.916 228.414 200.807 228.7C200.7 228.987 200.647 229.31 200.647 229.67C200.647 230.034 200.701 230.362 200.81 230.653C200.919 230.944 201.08 231.175 201.293 231.346C201.509 231.514 201.774 231.598 202.089 231.598ZM209.527 230.135V226.942H210.593V232.397H209.549V231.452H209.492C209.366 231.744 209.165 231.986 208.888 232.18C208.614 232.372 208.272 232.468 207.862 232.468C207.512 232.468 207.201 232.391 206.932 232.237C206.664 232.081 206.453 231.85 206.299 231.545C206.148 231.239 206.072 230.862 206.072 230.412V226.942H207.134V230.284C207.134 230.656 207.237 230.952 207.443 231.172C207.649 231.392 207.916 231.502 208.245 231.502C208.444 231.502 208.642 231.452 208.839 231.353C209.037 231.253 209.202 231.103 209.332 230.902C209.465 230.701 209.53 230.445 209.527 230.135ZM213.081 225.124V232.397H212.019V225.124H213.081ZM216.861 232.507C216.323 232.507 215.86 232.392 215.472 232.163C215.086 231.931 214.788 231.605 214.577 231.186C214.369 230.765 214.265 230.271 214.265 229.705C214.265 229.146 214.369 228.654 214.577 228.228C214.788 227.802 215.081 227.469 215.458 227.23C215.837 226.991 216.279 226.871 216.786 226.871C217.094 226.871 217.392 226.922 217.681 227.024C217.97 227.126 218.229 227.286 218.459 227.503C218.688 227.721 218.869 228.004 219.002 228.352C219.134 228.698 219.201 229.118 219.201 229.613V229.989H214.865V229.194H218.16C218.16 228.914 218.103 228.667 217.99 228.452C217.876 228.234 217.716 228.062 217.51 227.937C217.307 227.811 217.068 227.748 216.793 227.748C216.495 227.748 216.234 227.822 216.012 227.969C215.792 228.113 215.621 228.302 215.5 228.537C215.382 228.769 215.323 229.021 215.323 229.293V229.915C215.323 230.279 215.387 230.589 215.515 230.845C215.645 231.101 215.826 231.296 216.058 231.431C216.29 231.564 216.561 231.63 216.871 231.63C217.072 231.63 217.256 231.601 217.422 231.545C217.587 231.485 217.731 231.398 217.851 231.282C217.972 231.166 218.064 231.023 218.128 230.852L219.133 231.033C219.053 231.329 218.908 231.588 218.7 231.811C218.494 232.031 218.235 232.203 217.922 232.326C217.612 232.447 217.258 232.507 216.861 232.507Z" fill="black"/>
<path d="M139.467 241.025C139.765 241.027 140.063 241.084 140.362 241.195C140.66 241.306 140.932 241.491 141.178 241.749C141.424 242.005 141.622 242.354 141.771 242.797C141.92 243.239 141.995 243.795 141.995 244.462C141.995 245.109 141.933 245.683 141.81 246.185C141.69 246.684 141.514 247.105 141.285 247.449C141.058 247.792 140.781 248.052 140.454 248.23C140.129 248.408 139.763 248.496 139.353 248.496C138.946 248.496 138.582 248.416 138.263 248.255C137.946 248.092 137.685 247.865 137.482 247.577C137.28 247.285 137.151 246.948 137.094 246.565H137.961C138.039 246.898 138.194 247.174 138.426 247.392C138.661 247.607 138.969 247.715 139.353 247.715C139.914 247.715 140.357 247.47 140.681 246.98C141.008 246.49 141.171 245.797 141.171 244.903H141.114C140.982 245.101 140.824 245.273 140.642 245.418C140.46 245.562 140.257 245.673 140.035 245.751C139.812 245.829 139.576 245.869 139.325 245.869C138.908 245.869 138.526 245.766 138.178 245.56C137.832 245.351 137.555 245.066 137.347 244.704C137.141 244.339 137.038 243.922 137.038 243.454C137.038 243.009 137.137 242.601 137.336 242.232C137.537 241.86 137.819 241.565 138.181 241.344C138.546 241.124 138.974 241.018 139.467 241.025ZM139.467 241.806C139.168 241.806 138.9 241.881 138.661 242.03C138.424 242.177 138.236 242.375 138.096 242.626C137.959 242.875 137.89 243.151 137.89 243.454C137.89 243.757 137.956 244.033 138.089 244.281C138.224 244.527 138.407 244.724 138.639 244.871C138.874 245.015 139.14 245.087 139.438 245.087C139.663 245.087 139.873 245.043 140.067 244.956C140.261 244.866 140.43 244.744 140.575 244.59C140.721 244.434 140.836 244.257 140.919 244.061C141.002 243.862 141.043 243.655 141.043 243.44C141.043 243.155 140.975 242.889 140.837 242.641C140.702 242.392 140.515 242.191 140.276 242.037C140.04 241.883 139.77 241.806 139.467 241.806ZM144.017 248.454C143.841 248.454 143.691 248.391 143.566 248.266C143.44 248.14 143.377 247.99 143.377 247.815C143.377 247.639 143.44 247.489 143.566 247.364C143.691 247.238 143.841 247.175 144.017 247.175C144.192 247.175 144.342 247.238 144.468 247.364C144.593 247.489 144.656 247.639 144.656 247.815C144.656 247.931 144.626 248.037 144.567 248.134C144.51 248.231 144.433 248.309 144.336 248.369C144.241 248.425 144.135 248.454 144.017 248.454ZM144.017 244.405C143.841 244.405 143.691 244.343 143.566 244.217C143.44 244.092 143.377 243.941 143.377 243.766C143.377 243.591 143.44 243.441 143.566 243.315C143.691 243.19 143.841 243.127 144.017 243.127C144.192 243.127 144.342 243.19 144.468 243.315C144.593 243.441 144.656 243.591 144.656 243.766C144.656 243.882 144.626 243.989 144.567 244.086C144.51 244.183 144.433 244.261 144.336 244.32C144.241 244.377 144.135 244.405 144.017 244.405ZM148.518 248.496C147.983 248.496 147.527 248.351 147.15 248.06C146.774 247.766 146.486 247.341 146.287 246.785C146.089 246.226 145.989 245.551 145.989 244.761C145.989 243.975 146.089 243.303 146.287 242.747C146.489 242.188 146.778 241.762 147.154 241.469C147.533 241.173 147.987 241.025 148.518 241.025C149.048 241.025 149.501 241.173 149.878 241.469C150.256 241.762 150.545 242.188 150.744 242.747C150.945 243.303 151.046 243.975 151.046 244.761C151.046 245.551 150.947 246.226 150.748 246.785C150.549 247.341 150.261 247.766 149.885 248.06C149.508 248.351 149.053 248.496 148.518 248.496ZM148.518 247.715C149.048 247.715 149.46 247.459 149.753 246.948C150.047 246.437 150.194 245.708 150.194 244.761C150.194 244.131 150.126 243.595 149.991 243.152C149.859 242.709 149.667 242.372 149.416 242.14C149.167 241.908 148.868 241.792 148.518 241.792C147.992 241.792 147.581 242.051 147.285 242.569C146.989 243.086 146.841 243.816 146.841 244.761C146.841 245.39 146.908 245.925 147.04 246.366C147.173 246.806 147.363 247.141 147.612 247.371C147.863 247.6 148.165 247.715 148.518 247.715ZM154.768 248.496C154.233 248.496 153.777 248.351 153.4 248.06C153.024 247.766 152.736 247.341 152.537 246.785C152.339 246.226 152.239 245.551 152.239 244.761C152.239 243.975 152.339 243.303 152.537 242.747C152.739 242.188 153.028 241.762 153.404 241.469C153.783 241.173 154.237 241.025 154.768 241.025C155.298 241.025 155.751 241.173 156.128 241.469C156.506 241.762 156.795 242.188 156.994 242.747C157.195 243.303 157.296 243.975 157.296 244.761C157.296 245.551 157.197 246.226 156.998 246.785C156.799 247.341 156.511 247.766 156.135 248.06C155.758 248.351 155.303 248.496 154.768 248.496ZM154.768 247.715C155.298 247.715 155.71 247.459 156.003 246.948C156.297 246.437 156.444 245.708 156.444 244.761C156.444 244.131 156.376 243.595 156.241 243.152C156.109 242.709 155.917 242.372 155.666 242.14C155.417 241.908 155.118 241.792 154.768 241.792C154.242 241.792 153.831 242.051 153.535 242.569C153.239 243.086 153.091 243.816 153.091 244.761C153.091 245.39 153.158 245.925 153.29 246.366C153.423 246.806 153.613 247.141 153.862 247.371C154.113 247.6 154.415 247.715 154.768 247.715ZM161.884 248.397H160.961L163.631 241.124H164.54L167.211 248.397H166.287L164.114 242.275H164.057L161.884 248.397ZM162.225 245.556H165.947V246.337H162.225V245.556ZM168.344 241.124H169.395L171.866 247.161H171.952L174.423 241.124H175.474V248.397H174.65V242.871H174.579L172.307 248.397H171.511L169.238 242.871H169.167V248.397H168.344V241.124ZM183.064 244.888V245.67H179.882V244.888H183.064ZM189.894 241.124V248.397H189.013V242.047H188.97L187.195 243.226V242.332L189.013 241.124H189.894ZM194.542 241.124V248.397H193.661V242.047H193.619L191.843 243.226V242.332L193.661 241.124H194.542ZM197.259 248.454C197.084 248.454 196.933 248.391 196.808 248.266C196.682 248.14 196.619 247.99 196.619 247.815C196.619 247.639 196.682 247.489 196.808 247.364C196.933 247.238 197.084 247.175 197.259 247.175C197.434 247.175 197.584 247.238 197.71 247.364C197.835 247.489 197.898 247.639 197.898 247.815C197.898 247.931 197.868 248.037 197.809 248.134C197.752 248.231 197.675 248.309 197.578 248.369C197.484 248.425 197.377 248.454 197.259 248.454ZM197.259 244.405C197.084 244.405 196.933 244.343 196.808 244.217C196.682 244.092 196.619 243.941 196.619 243.766C196.619 243.591 196.682 243.441 196.808 243.315C196.933 243.19 197.084 243.127 197.259 243.127C197.434 243.127 197.584 243.19 197.71 243.315C197.835 243.441 197.898 243.591 197.898 243.766C197.898 243.882 197.868 243.989 197.809 244.086C197.752 244.183 197.675 244.261 197.578 244.32C197.484 244.377 197.377 244.405 197.259 244.405ZM201.76 248.496C201.225 248.496 200.769 248.351 200.393 248.06C200.016 247.766 199.729 247.341 199.53 246.785C199.331 246.226 199.231 245.551 199.231 244.761C199.231 243.975 199.331 243.303 199.53 242.747C199.731 242.188 200.02 241.762 200.396 241.469C200.775 241.173 201.229 241.025 201.76 241.025C202.29 241.025 202.743 241.173 203.12 241.469C203.499 241.762 203.787 242.188 203.986 242.747C204.188 243.303 204.288 243.975 204.288 244.761C204.288 245.551 204.189 246.226 203.99 246.785C203.791 247.341 203.503 247.766 203.127 248.06C202.751 248.351 202.295 248.496 201.76 248.496ZM201.76 247.715C202.29 247.715 202.702 247.459 202.996 246.948C203.289 246.437 203.436 245.708 203.436 244.761C203.436 244.131 203.368 243.595 203.233 243.152C203.101 242.709 202.909 242.372 202.658 242.14C202.41 241.908 202.11 241.792 201.76 241.792C201.234 241.792 200.823 242.051 200.528 242.569C200.232 243.086 200.084 243.816 200.084 244.761C200.084 245.39 200.15 245.925 200.282 246.366C200.415 246.806 200.606 247.141 200.854 247.371C201.105 247.6 201.407 247.715 201.76 247.715ZM208.01 248.496C207.475 248.496 207.019 248.351 206.643 248.06C206.266 247.766 205.979 247.341 205.78 246.785C205.581 246.226 205.481 245.551 205.481 244.761C205.481 243.975 205.581 243.303 205.78 242.747C205.981 242.188 206.27 241.762 206.646 241.469C207.025 241.173 207.479 241.025 208.01 241.025C208.54 241.025 208.993 241.173 209.37 241.469C209.749 241.762 210.037 242.188 210.236 242.747C210.438 243.303 210.538 243.975 210.538 244.761C210.538 245.551 210.439 246.226 210.24 246.785C210.041 247.341 209.753 247.766 209.377 248.06C209.001 248.351 208.545 248.496 208.01 248.496ZM208.01 247.715C208.54 247.715 208.952 247.459 209.246 246.948C209.539 246.437 209.686 245.708 209.686 244.761C209.686 244.131 209.618 243.595 209.483 243.152C209.351 242.709 209.159 242.372 208.908 242.14C208.66 241.908 208.36 241.792 208.01 241.792C207.484 241.792 207.073 242.051 206.778 242.569C206.482 243.086 206.334 243.816 206.334 244.761C206.334 245.39 206.4 245.925 206.532 246.366C206.665 246.806 206.856 247.141 207.104 247.371C207.355 247.6 207.657 247.715 208.01 247.715ZM215.126 248.397H214.203L216.873 241.124H217.782L220.453 248.397H219.53L217.356 242.275H217.3L215.126 248.397ZM215.467 245.556H219.189V246.337H215.467V245.556ZM221.586 241.124H222.637L225.108 247.161H225.194L227.665 241.124H228.716V248.397H227.893V242.871H227.822L225.549 248.397H224.753L222.481 242.871H222.41V248.397H221.586V241.124Z" fill="#606A7B"/>
<path d="M62.8984 180.035C62.8606 179.699 62.7043 179.438 62.4297 179.253C62.1551 179.066 61.8094 178.973 61.3928 178.973C61.0945 178.973 60.8364 179.02 60.6186 179.115C60.4008 179.207 60.2315 179.335 60.1108 179.498C59.9924 179.659 59.9332 179.843 59.9332 180.049C59.9332 180.222 59.9735 180.371 60.054 180.496C60.1368 180.622 60.2446 180.727 60.3771 180.812C60.5121 180.895 60.6565 180.965 60.8104 181.022C60.9643 181.076 61.1122 181.121 61.2543 181.157L61.9645 181.342C62.1965 181.398 62.4344 181.475 62.6783 181.572C62.9221 181.669 63.1482 181.797 63.3565 181.956C63.5649 182.114 63.733 182.311 63.8608 182.545C63.991 182.78 64.0561 183.06 64.0561 183.387C64.0561 183.799 63.9496 184.165 63.7365 184.484C63.5258 184.804 63.2192 185.056 62.8168 185.241C62.4167 185.425 61.9325 185.518 61.3643 185.518C60.8198 185.518 60.3487 185.431 59.951 185.258C59.5533 185.086 59.242 184.841 59.017 184.523C58.7921 184.204 58.6679 183.825 58.6442 183.387H59.745C59.7663 183.65 59.8516 183.869 60.0007 184.044C60.1522 184.217 60.3452 184.346 60.5795 184.431C60.8163 184.514 61.0755 184.555 61.3572 184.555C61.6674 184.555 61.9432 184.507 62.1847 184.41C62.4285 184.31 62.6203 184.173 62.7599 183.998C62.8996 183.82 62.9695 183.613 62.9695 183.376C62.9695 183.161 62.9079 182.985 62.7848 182.847C62.6641 182.71 62.4995 182.596 62.2912 182.506C62.0852 182.416 61.852 182.337 61.5916 182.268L60.7322 182.034C60.1499 181.875 59.6882 181.642 59.3473 181.334C59.0088 181.027 58.8395 180.619 58.8395 180.113C58.8395 179.694 58.9531 179.328 59.1804 179.016C59.4077 178.703 59.7154 178.46 60.1037 178.288C60.492 178.112 60.9299 178.025 61.4176 178.025C61.91 178.025 62.3445 178.111 62.7209 178.284C63.0997 178.457 63.398 178.695 63.6158 178.998C63.8336 179.298 63.9472 179.644 63.9567 180.035H62.8984ZM67.633 185.507C67.0956 185.507 66.6328 185.392 66.2445 185.163C65.8586 184.931 65.5603 184.605 65.3496 184.186C65.1413 183.765 65.0371 183.271 65.0371 182.705C65.0371 182.146 65.1413 181.654 65.3496 181.228C65.5603 180.802 65.8539 180.469 66.2303 180.23C66.6091 179.991 67.0518 179.871 67.5584 179.871C67.8662 179.871 68.1645 179.922 68.4533 180.024C68.7421 180.126 69.0014 180.286 69.231 180.503C69.4606 180.721 69.6417 181.004 69.7743 181.352C69.9069 181.698 69.9732 182.118 69.9732 182.613V182.989H65.6373V182.194H68.9327C68.9327 181.914 68.8759 181.667 68.7623 181.452C68.6486 181.234 68.4888 181.062 68.2828 180.937C68.0792 180.811 67.8401 180.748 67.5655 180.748C67.2672 180.748 67.0068 180.822 66.7843 180.969C66.5641 181.113 66.3936 181.302 66.2729 181.537C66.1545 181.769 66.0953 182.021 66.0953 182.293V182.915C66.0953 183.279 66.1593 183.589 66.2871 183.845C66.4173 184.101 66.5984 184.296 66.8304 184.431C67.0624 184.564 67.3335 184.63 67.6436 184.63C67.8449 184.63 68.0284 184.601 68.1941 184.545C68.3598 184.485 68.503 184.398 68.6238 184.282C68.7445 184.166 68.8368 184.023 68.9007 183.852L69.9057 184.033C69.8252 184.329 69.6808 184.588 69.4725 184.811C69.2665 185.031 69.0073 185.203 68.6948 185.326C68.3846 185.447 68.0307 185.507 67.633 185.507ZM72.2131 178.124V185.397H71.1513V178.124H72.2131ZM75.9924 185.507C75.455 185.507 74.9921 185.392 74.6039 185.163C74.218 184.931 73.9197 184.605 73.709 184.186C73.5007 183.765 73.3965 183.271 73.3965 182.705C73.3965 182.146 73.5007 181.654 73.709 181.228C73.9197 180.802 74.2132 180.469 74.5897 180.23C74.9685 179.991 75.4112 179.871 75.9178 179.871C76.2256 179.871 76.5239 179.922 76.8127 180.024C77.1015 180.126 77.3607 180.286 77.5904 180.503C77.82 180.721 78.0011 181.004 78.1337 181.352C78.2663 181.698 78.3326 182.118 78.3326 182.613V182.989H73.9966V182.194H77.2921C77.2921 181.914 77.2353 181.667 77.1216 181.452C77.008 181.234 76.8482 181.062 76.6422 180.937C76.4386 180.811 76.1995 180.748 75.9249 180.748C75.6266 180.748 75.3662 180.822 75.1436 180.969C74.9235 181.113 74.753 181.302 74.6323 181.537C74.5139 181.769 74.4547 182.021 74.4547 182.293V182.915C74.4547 183.279 74.5186 183.589 74.6465 183.845C74.7767 184.101 74.9578 184.296 75.1898 184.431C75.4218 184.564 75.6929 184.63 76.003 184.63C76.2042 184.63 76.3877 184.601 76.5534 184.545C76.7192 184.485 76.8624 184.398 76.9831 184.282C77.1039 184.166 77.1962 184.023 77.2601 183.852L78.2651 184.033C78.1846 184.329 78.0402 184.588 77.8319 184.811C77.6259 185.031 77.3667 185.203 77.0542 185.326C76.744 185.447 76.3901 185.507 75.9924 185.507ZM81.8082 185.507C81.2803 185.507 80.8258 185.387 80.4446 185.148C80.0658 184.907 79.7746 184.574 79.571 184.15C79.3674 183.727 79.2656 183.241 79.2656 182.694C79.2656 182.141 79.3698 181.652 79.5781 181.228C79.7865 180.802 80.08 180.469 80.4588 180.23C80.8376 179.991 81.2839 179.871 81.7976 179.871C82.2119 179.871 82.5812 179.948 82.9055 180.102C83.2299 180.254 83.4915 180.467 83.6903 180.741C83.8916 181.016 84.0111 181.337 84.049 181.704H83.0156C82.9588 181.448 82.8286 181.228 82.625 181.043C82.4238 180.859 82.1539 180.766 81.8153 180.766C81.5194 180.766 81.2602 180.844 81.0376 181.001C80.8175 181.154 80.6458 181.375 80.5227 181.661C80.3996 181.945 80.3381 182.281 80.3381 182.67C80.3381 183.067 80.3984 183.411 80.5192 183.699C80.6399 183.988 80.8104 184.212 81.0305 184.371C81.2531 184.529 81.5147 184.609 81.8153 184.609C82.0166 184.609 82.1989 184.572 82.3622 184.498C82.5279 184.423 82.6664 184.315 82.7777 184.175C82.8913 184.036 82.9706 183.868 83.0156 183.671H84.049C84.0111 184.024 83.8963 184.339 83.7045 184.616C83.5128 184.893 83.2559 185.11 82.9339 185.269C82.6143 185.428 82.2391 185.507 81.8082 185.507ZM87.7306 179.942V180.795H84.7512V179.942H87.7306ZM85.5502 178.636H86.612V183.795C86.612 184.001 86.6428 184.156 86.7044 184.261C86.7659 184.362 86.8452 184.432 86.9423 184.47C87.0417 184.506 87.1494 184.523 87.2654 184.523C87.3507 184.523 87.4252 184.517 87.4892 184.506C87.5531 184.494 87.6028 184.484 87.6383 184.477L87.8301 185.354C87.7685 185.378 87.6809 185.402 87.5673 185.425C87.4537 185.451 87.3116 185.466 87.1412 185.468C86.8618 185.473 86.6014 185.423 86.3599 185.319C86.1184 185.215 85.9231 185.054 85.774 184.836C85.6248 184.618 85.5502 184.345 85.5502 184.016V178.636ZM91.2782 179.069V178.124H96.9068V179.069H94.6376V185.397H93.5439V179.069H91.2782ZM98.0653 185.397V179.942H99.1271V185.397H98.0653ZM98.6016 179.101C98.4169 179.101 98.2583 179.039 98.1257 178.916C97.9955 178.791 97.9304 178.641 97.9304 178.469C97.9304 178.293 97.9955 178.144 98.1257 178.021C98.2583 177.896 98.4169 177.833 98.6016 177.833C98.7862 177.833 98.9437 177.896 99.0739 178.021C99.2064 178.144 99.2727 178.293 99.2727 178.469C99.2727 178.641 99.2064 178.791 99.0739 178.916C98.9437 179.039 98.7862 179.101 98.6016 179.101ZM100.556 185.397V179.942H101.575V180.83H101.642C101.756 180.529 101.942 180.295 102.2 180.127C102.458 179.957 102.767 179.871 103.127 179.871C103.491 179.871 103.797 179.957 104.043 180.127C104.291 180.297 104.475 180.532 104.593 180.83H104.65C104.78 180.539 104.987 180.307 105.271 180.134C105.556 179.959 105.894 179.871 106.287 179.871C106.782 179.871 107.186 180.026 107.498 180.337C107.813 180.647 107.97 181.114 107.97 181.739V185.397H106.909V181.839C106.909 181.469 106.808 181.202 106.607 181.036C106.405 180.87 106.165 180.788 105.886 180.788C105.54 180.788 105.271 180.894 105.08 181.107C104.888 181.318 104.792 181.589 104.792 181.92V185.397H103.734V181.771C103.734 181.475 103.642 181.237 103.457 181.057C103.272 180.877 103.032 180.788 102.736 180.788C102.535 180.788 102.349 180.841 102.178 180.947C102.01 181.052 101.874 181.197 101.77 181.384C101.668 181.571 101.617 181.788 101.617 182.034V185.397H100.556ZM111.744 185.507C111.207 185.507 110.744 185.392 110.356 185.163C109.97 184.931 109.672 184.605 109.461 184.186C109.253 183.765 109.148 183.271 109.148 182.705C109.148 182.146 109.253 181.654 109.461 181.228C109.672 180.802 109.965 180.469 110.342 180.23C110.72 179.991 111.163 179.871 111.67 179.871C111.978 179.871 112.276 179.922 112.565 180.024C112.853 180.126 113.113 180.286 113.342 180.503C113.572 180.721 113.753 181.004 113.886 181.352C114.018 181.698 114.085 182.118 114.085 182.613V182.989H109.749V182.194H113.044C113.044 181.914 112.987 181.667 112.874 181.452C112.76 181.234 112.6 181.062 112.394 180.937C112.191 180.811 111.951 180.748 111.677 180.748C111.379 180.748 111.118 180.822 110.896 180.969C110.675 181.113 110.505 181.302 110.384 181.537C110.266 181.769 110.207 182.021 110.207 182.293V182.915C110.207 183.279 110.271 183.589 110.398 183.845C110.529 184.101 110.71 184.296 110.942 184.431C111.174 184.564 111.445 184.63 111.755 184.63C111.956 184.63 112.14 184.601 112.305 184.545C112.471 184.485 112.614 184.398 112.735 184.282C112.856 184.166 112.948 184.023 113.012 183.852L114.017 184.033C113.937 184.329 113.792 184.588 113.584 184.811C113.378 185.031 113.119 185.203 112.806 185.326C112.496 185.447 112.142 185.507 111.744 185.507ZM121.961 180.035C121.923 179.699 121.767 179.438 121.492 179.253C121.218 179.066 120.872 178.973 120.455 178.973C120.157 178.973 119.899 179.02 119.681 179.115C119.463 179.207 119.294 179.335 119.173 179.498C119.055 179.659 118.996 179.843 118.996 180.049C118.996 180.222 119.036 180.371 119.116 180.496C119.199 180.622 119.307 180.727 119.44 180.812C119.575 180.895 119.719 180.965 119.873 181.022C120.027 181.076 120.175 181.121 120.317 181.157L121.027 181.342C121.259 181.398 121.497 181.475 121.741 181.572C121.985 181.669 122.211 181.797 122.419 181.956C122.627 182.114 122.795 182.311 122.923 182.545C123.054 182.78 123.119 183.06 123.119 183.387C123.119 183.799 123.012 184.165 122.799 184.484C122.588 184.804 122.282 185.056 121.879 185.241C121.479 185.425 120.995 185.518 120.427 185.518C119.882 185.518 119.411 185.431 119.013 185.258C118.616 185.086 118.304 184.841 118.08 184.523C117.855 184.204 117.73 183.825 117.707 183.387H118.808C118.829 183.65 118.914 183.869 119.063 184.044C119.215 184.217 119.408 184.346 119.642 184.431C119.879 184.514 120.138 184.555 120.42 184.555C120.73 184.555 121.006 184.507 121.247 184.41C121.491 184.31 121.683 184.173 121.822 183.998C121.962 183.82 122.032 183.613 122.032 183.376C122.032 183.161 121.97 182.985 121.847 182.847C121.727 182.71 121.562 182.596 121.354 182.506C121.148 182.416 120.915 182.337 120.654 182.268L119.795 182.034C119.212 181.875 118.751 181.642 118.41 181.334C118.071 181.027 117.902 180.619 117.902 180.113C117.902 179.694 118.016 179.328 118.243 179.016C118.47 178.703 118.778 178.46 119.166 178.288C119.554 178.112 119.992 178.025 120.48 178.025C120.973 178.025 121.407 178.111 121.783 178.284C122.162 178.457 122.46 178.695 122.678 178.998C122.896 179.298 123.01 179.644 123.019 180.035H121.961ZM125.406 178.124V185.397H124.345V178.124H125.406ZM129.132 185.507C128.621 185.507 128.175 185.39 127.794 185.155C127.413 184.921 127.117 184.593 126.906 184.172C126.695 183.75 126.59 183.258 126.59 182.694C126.59 182.129 126.695 181.634 126.906 181.21C127.117 180.786 127.413 180.457 127.794 180.223C128.175 179.989 128.621 179.871 129.132 179.871C129.644 179.871 130.09 179.989 130.471 180.223C130.852 180.457 131.148 180.786 131.359 181.21C131.57 181.634 131.675 182.129 131.675 182.694C131.675 183.258 131.57 183.75 131.359 184.172C131.148 184.593 130.852 184.921 130.471 185.155C130.09 185.39 129.644 185.507 129.132 185.507ZM129.136 184.616C129.467 184.616 129.742 184.528 129.96 184.353C130.178 184.178 130.339 183.944 130.443 183.653C130.549 183.362 130.603 183.041 130.603 182.691C130.603 182.343 130.549 182.023 130.443 181.732C130.339 181.439 130.178 181.203 129.96 181.025C129.742 180.848 129.467 180.759 129.136 180.759C128.802 180.759 128.525 180.848 128.305 181.025C128.087 181.203 127.925 181.439 127.819 181.732C127.714 182.023 127.662 182.343 127.662 182.691C127.662 183.041 127.714 183.362 127.819 183.653C127.925 183.944 128.087 184.178 128.305 184.353C128.525 184.528 128.802 184.616 129.136 184.616ZM135.406 179.942V180.795H132.427V179.942H135.406ZM133.226 178.636H134.288V183.795C134.288 184.001 134.319 184.156 134.38 184.261C134.442 184.362 134.521 184.432 134.618 184.47C134.718 184.506 134.825 184.523 134.941 184.523C135.026 184.523 135.101 184.517 135.165 184.506C135.229 184.494 135.279 184.484 135.314 184.477L135.506 185.354C135.444 185.378 135.357 185.402 135.243 185.425C135.129 185.451 134.987 185.466 134.817 185.468C134.538 185.473 134.277 185.423 134.036 185.319C133.794 185.215 133.599 185.054 133.45 184.836C133.301 184.618 133.226 184.345 133.226 184.016V178.636Z" fill="white"/>
<defs>
<filter id="filter0_d_22_747" x="-0.00012207" y="0" width="189.881" height="263.858" filterUnits="userSpaceOnUse" color-interpolation-filters="sRGB">
<feFlood flood-opacity="0" result="BackgroundImageFix"/>
<feColorMatrix in="SourceAlpha" type="matrix" values="0 0 0 0 0 0 0 0 0 0 0 0 0 0 0 0 0 0 127 0" result="hardAlpha"/>
<feOffset dy="3"/>
<feGaussianBlur stdDeviation="3"/>
<feColorMatrix type="matrix" values="0 0 0 0 0 0 0 0 0 0 0 0 0 0 0 0 0 0 0.161 0"/>
<feBlend mode="normal" in2="BackgroundImageFix" result="effect1_dropShadow_22_747"/>
<feBlend mode="normal" in="SourceGraphic" in2="effect1_dropShadow_22_747" result="shape"/>
</filter>
<filter id="filter1_d_22_747" x="83.629" y="53.0949" width="33.635" height="29.2383" filterUnits="userSpaceOnUse" color-interpolation-filters="sRGB">
<feFlood flood-opacity="0" result="BackgroundImageFix"/>
<feColorMatrix in="SourceAlpha" type="matrix" values="0 0 0 0 0 0 0 0 0 0 0 0 0 0 0 0 0 0 127 0" result="hardAlpha"/>
<feOffset dy="3"/>
<feGaussianBlur stdDeviation="3"/>
<feColorMatrix type="matrix" values="0 0 0 0 0 0 0 0 0 0 0 0 0 0 0 0 0 0 0.161 0"/>
<feBlend mode="normal" in2="BackgroundImageFix" result="effect1_dropShadow_22_747"/>
<feBlend mode="normal" in="SourceGraphic" in2="effect1_dropShadow_22_747" result="shape"/>
</filter>
<filter id="filter2_d_22_747" x="92.922" y="205.334" width="192" height="69.3759" filterUnits="userSpaceOnUse" color-interpolation-filters="sRGB">
<feFlood flood-opacity="0" result="BackgroundImageFix"/>
<feColorMatrix in="SourceAlpha" type="matrix" values="0 0 0 0 0 0 0 0 0 0 0 0 0 0 0 0 0 0 127 0" result="hardAlpha"/>
<feOffset dy="3"/>
<feGaussianBlur stdDeviation="3"/>
<feColorMatrix type="matrix" values="0 0 0 0 0 0 0 0 0 0 0 0 0 0 0 0 0 0 0.161 0"/>
<feBlend mode="normal" in2="BackgroundImageFix" result="effect1_dropShadow_22_747"/>
<feBlend mode="normal" in="SourceGraphic" in2="effect1_dropShadow_22_747" result="shape"/>
</filter>
<filter id="filter3_d_22_747" x="103" y="230.397" width="33" height="26" filterUnits="userSpaceOnUse" color-interpolation-filters="sRGB">
<feFlood flood-opacity="0" result="BackgroundImageFix"/>
<feColorMatrix in="SourceAlpha" type="matrix" values="0 0 0 0 0 0 0 0 0 0 0 0 0 0 0 0 0 0 127 0" result="hardAlpha"/>
<feOffset dy="3"/>
<feGaussianBlur stdDeviation="3"/>
<feColorMatrix type="matrix" values="0 0 0 0 0 0 0 0 0 0 0 0 0 0 0 0 0 0 0.161 0"/>
<feBlend mode="normal" in2="BackgroundImageFix" result="effect1_dropShadow_22_747"/>
<feBlend mode="normal" in="SourceGraphic" in2="effect1_dropShadow_22_747" result="shape"/>
</filter>
<filter id="filter4_d_22_747" x="103" y="224.397" width="33" height="18" filterUnits="userSpaceOnUse" color-interpolation-filters="sRGB">
<feFlood flood-opacity="0" result="BackgroundImageFix"/>
<feColorMatrix in="SourceAlpha" type="matrix" values="0 0 0 0 0 0 0 0 0 0 0 0 0 0 0 0 0 0 127 0" result="hardAlpha"/>
<feOffset dy="3"/>
<feGaussianBlur stdDeviation="3"/>
<feColorMatrix type="matrix" values="0 0 0 0 0 0 0 0 0 0 0 0 0 0 0 0 0 0 0.161 0"/>
<feBlend mode="normal" in2="BackgroundImageFix" result="effect1_dropShadow_22_747"/>
<feBlend mode="normal" in="SourceGraphic" in2="effect1_dropShadow_22_747" result="shape"/>
</filter>
</defs>
</svg>
