<svg width="21" height="20" viewBox="0 0 21 20" fill="none" xmlns="http://www.w3.org/2000/svg">
<path d="M20.9783 9.40995C20.6383 3.60995 15.3683 -0.860038 9.29833 0.139962C5.11833 0.829962 1.76834 4.21994 1.11834 8.39994C0.73834 10.8199 1.23836 13.1099 2.32836 14.9999L1.43835 18.3099C1.23835 19.0599 1.92833 19.7399 2.66833 19.5299L5.92834 18.63C7.40834 19.5 9.13833 19.9999 10.9883 19.9999C16.6283 19.9999 21.3083 15.03 20.9783 9.40995ZM15.8783 13.7199C15.7883 13.8999 15.6783 14.07 15.5383 14.23C15.2883 14.5 15.0183 14.7 14.7183 14.82C14.4183 14.95 14.0883 15.01 13.7383 15.01C13.2283 15.01 12.6783 14.89 12.1083 14.64C11.5283 14.39 10.9584 14.0599 10.3884 13.6499C9.80836 13.2299 9.26834 12.7599 8.74834 12.2499C8.22834 11.7299 7.76832 11.1799 7.34832 10.6099C6.93832 10.0399 6.60834 9.46994 6.36834 8.89994C6.12834 8.32994 6.00835 7.77996 6.00835 7.25996C6.00835 6.91996 6.06835 6.58996 6.18835 6.28996C6.30835 5.97996 6.49836 5.69996 6.76836 5.44996C7.08836 5.12996 7.43834 4.97996 7.80834 4.97996C7.94834 4.97996 8.08832 5.00995 8.21832 5.06995C8.34832 5.12995 8.46834 5.21995 8.55834 5.34995L9.71832 6.98994C9.80832 7.11994 9.87833 7.22994 9.91833 7.33994C9.96833 7.44994 9.98833 7.54994 9.98833 7.64994C9.98833 7.76994 9.94835 7.88996 9.87835 8.00996C9.80835 8.12996 9.71832 8.24994 9.59832 8.36994L9.21832 8.76994C9.15831 8.82994 9.13836 8.88995 9.13836 8.96995C9.13836 9.00995 9.14832 9.04994 9.15832 9.08994C9.17832 9.12994 9.18836 9.15995 9.19836 9.18995C9.28836 9.35995 9.44833 9.56993 9.66833 9.82993C9.89833 10.0899 10.1384 10.3599 10.3984 10.6199C10.6684 10.8899 10.9284 11.1299 11.1984 11.3599C11.4584 11.5799 11.6783 11.73 11.8483 11.82C11.8783 11.83 11.9083 11.8499 11.9383 11.8599C11.9783 11.8799 12.0184 11.88 12.0684 11.88C12.1584 11.88 12.2184 11.85 12.2784 11.79L12.6583 11.41C12.7883 11.28 12.9084 11.19 13.0184 11.13C13.1384 11.06 13.2483 11.0199 13.3783 11.0199C13.4783 11.0199 13.5783 11.0399 13.6883 11.0899C13.7983 11.1399 13.9183 11.2 14.0383 11.29L15.6984 12.4699C15.8284 12.5599 15.9183 12.67 15.9783 12.79C16.0283 12.92 16.0583 13.0399 16.0583 13.1799C15.9983 13.3499 15.9583 13.5399 15.8783 13.7199Z" fill="#1F9A53"/>
</svg>
