<svg width="44" height="44" viewBox="0 0 44 44" fill="none" xmlns="http://www.w3.org/2000/svg">
<rect width="44" height="44" rx="5.5" fill="#ECF3F5"/>
<path opacity="0.4" d="M30.5007 20.1898H27.6107C25.2407 20.1898 23.3107 18.2598 23.3107 15.8898V12.9998C23.3107 12.4498 22.8607 11.9998 22.3107 11.9998H18.0707C14.9907 11.9998 12.5007 13.9998 12.5007 17.5698V26.4298C12.5007 29.9998 14.9907 31.9998 18.0707 31.9998H25.9307C29.0107 31.9998 31.5007 29.9998 31.5007 26.4298V21.1898C31.5007 20.6398 31.0507 20.1898 30.5007 20.1898Z" fill="#3C4858"/>
<path d="M25.8001 12.21C25.3901 11.8 24.6801 12.08 24.6801 12.65V16.14C24.6801 17.6 25.9201 18.81 27.4301 18.81C28.3801 18.82 29.7001 18.82 30.8301 18.82C31.4001 18.82 31.7001 18.15 31.3001 17.75C29.8601 16.3 27.2801 13.69 25.8001 12.21Z" fill="#3C4858"/>
<path d="M17.411 26.8518V23.404H18.7713C19.0328 23.404 19.2555 23.4539 19.4396 23.5538C19.6237 23.6526 19.764 23.7901 19.8605 23.9663C19.9581 24.1414 20.007 24.3434 20.007 24.5723C20.007 24.8013 19.9576 25.0033 19.8588 25.1784C19.76 25.3535 19.6169 25.4899 19.4295 25.5875C19.2432 25.6851 19.0176 25.734 18.7527 25.734H17.8857V25.1498H18.6349C18.7752 25.1498 18.8908 25.1257 18.9817 25.0774C19.0737 25.028 19.1422 24.9601 19.1871 24.8737C19.2331 24.7861 19.2561 24.6857 19.2561 24.5723C19.2561 24.4579 19.2331 24.358 19.1871 24.2727C19.1422 24.1863 19.0737 24.1195 18.9817 24.0723C18.8897 24.0241 18.7729 24 18.6315 24H18.1399V26.8518H17.411ZM21.7027 26.8518H20.4804V23.404H21.7128C22.0596 23.404 22.3581 23.473 22.6084 23.6111C22.8587 23.748 23.0511 23.945 23.1858 24.202C23.3216 24.459 23.3895 24.7665 23.3895 25.1245C23.3895 25.4837 23.3216 25.7923 23.1858 26.0505C23.0511 26.3086 22.8575 26.5067 22.605 26.6447C22.3536 26.7828 22.0528 26.8518 21.7027 26.8518ZM21.2094 26.2272H21.6724C21.8878 26.2272 22.0691 26.1891 22.2161 26.1127C22.3643 26.0353 22.4754 25.9158 22.5495 25.7542C22.6247 25.5914 22.6623 25.3815 22.6623 25.1245C22.6623 24.8698 22.6247 24.6616 22.5495 24.5C22.4754 24.3383 22.3648 24.2194 22.2178 24.1431C22.0708 24.0667 21.8895 24.0286 21.674 24.0286H21.2094V26.2272ZM23.9295 26.8518V23.404H26.2123V24.005H24.6585V24.8266H26.0608V25.4276H24.6585V26.8518H23.9295Z" fill="#3C4858"/>
</svg>
