<svg width="20" height="22" viewBox="0 0 20 22" fill="none" xmlns="http://www.w3.org/2000/svg">
<path d="M3.33333 22C2.40741 22 1.62037 21.6792 0.972222 21.0375C0.324074 20.3958 0 19.6167 0 18.7V15.4H3.33333V1.19858C3.33333 0.754338 3.8694 0.53071 4.18511 0.843254L4.64823 1.30175C4.84308 1.49464 5.15692 1.49464 5.35177 1.30175L6.31489 0.348254C6.50974 0.155355 6.82359 0.155355 7.01844 0.348255L7.98156 1.30175C8.17641 1.49464 8.49026 1.49464 8.68511 1.30175L9.64823 0.348254C9.84308 0.155355 10.1569 0.155355 10.3518 0.348255L11.3149 1.30175C11.5097 1.49464 11.8236 1.49464 12.0184 1.30175L12.9816 0.348254C13.1764 0.155355 13.4903 0.155355 13.6851 0.348255L14.6482 1.30175C14.8431 1.49464 15.1569 1.49464 15.3518 1.30175L16.3149 0.348254C16.5097 0.155355 16.8236 0.155355 17.0184 0.348255L17.9816 1.30175C18.1764 1.49464 18.4903 1.49464 18.6851 1.30175L19.1482 0.843254C19.4639 0.53071 20 0.754338 20 1.19858V18.7C20 19.6167 19.6759 20.3958 19.0278 21.0375C18.3796 21.6792 17.5926 22 16.6667 22H3.33333ZM16.6667 19.8C16.9815 19.8 17.2454 19.6946 17.4583 19.4837C17.6713 19.2729 17.7778 19.0117 17.7778 18.7V3.3H5.55556V15.4H15.5556V18.7C15.5556 19.0117 15.662 19.2729 15.875 19.4837C16.088 19.6946 16.3519 19.8 16.6667 19.8ZM6.66667 7.7V5.5H13.3333V7.7H6.66667ZM6.66667 11V8.8H13.3333V11H6.66667ZM15.5556 7.7C15.2407 7.7 14.9769 7.59458 14.7639 7.38375C14.5509 7.17292 14.4444 6.91167 14.4444 6.6C14.4444 6.28833 14.5509 6.02708 14.7639 5.81625C14.9769 5.60542 15.2407 5.5 15.5556 5.5C15.8704 5.5 16.1343 5.60542 16.3472 5.81625C16.5602 6.02708 16.6667 6.28833 16.6667 6.6C16.6667 6.91167 16.5602 7.17292 16.3472 7.38375C16.1343 7.59458 15.8704 7.7 15.5556 7.7ZM15.5556 11C15.2407 11 14.9769 10.8946 14.7639 10.6838C14.5509 10.4729 14.4444 10.2117 14.4444 9.9C14.4444 9.58833 14.5509 9.32708 14.7639 9.11625C14.9769 8.90542 15.2407 8.8 15.5556 8.8C15.8704 8.8 16.1343 8.90542 16.3472 9.11625C16.5602 9.32708 16.6667 9.58833 16.6667 9.9C16.6667 10.2117 16.5602 10.4729 16.3472 10.6838C16.1343 10.8946 15.8704 11 15.5556 11ZM3.33333 19.8H13.3333V17.6H2.22222V18.7C2.22222 19.0117 2.3287 19.2729 2.54167 19.4837C2.75463 19.6946 3.01852 19.8 3.33333 19.8Z" fill="#B7C3F4"/>
</svg>
