<svg xmlns="http://www.w3.org/2000/svg" width="58.074" height="60.011" viewBox="0 0 58.074 60.011">
    <defs>
        <radialGradient id="g01nasbuka" cx=".543" cy=".513" r=".283" gradientTransform="matrix(.691 .74 .759 -.671 -9.328 21.118)" gradientUnits="objectBoundingBox">
            <stop offset="0" stop-color="#4bb3fb"/>
            <stop offset="1" stop-color="#c9e8fe" stop-opacity="0"/>
        </radialGradient>
        <radialGradient id="9yd6jcszxb" cx="-1.348" cy="-.166" r="2.119" gradientTransform="matrix(-4.506 .742 4.989 .67 -682.836 88.141)" gradientUnits="objectBoundingBox">
            <stop offset="0" stop-color="#e2f2fd"/>
            <stop offset=".18" stop-color="#bce1fa"/>
            <stop offset=".39" stop-color="#60bdfd"/>
            <stop offset="1" stop-color="#1a9cf6"/>
        </radialGradient>
        <radialGradient id="np56l7uujc" cx=".409" cy="1.076" r="1.822" gradientTransform="matrix(1.771 -.76 -5.642 -1.771 92.433 -1.507)" gradientUnits="objectBoundingBox">
            <stop offset="0" stop-color="#e0f2ff"/>
            <stop offset="1" stop-color="#1a9cf6"/>
        </radialGradient>
    </defs>
    <g transform="translate(-2559.264 -18746.459)">
        <ellipse data-name="Ellipse 7660" cx="23.57" cy="24.225" rx="23.57" ry="24.225" transform="rotate(-14.98 72479.3 -366.671)" style="fill:url(#g01nasbuka)"/>
        <g data-name="Group 29884">
            <path data-name="Path 127262" d="M275.9 113.215a7.81 7.81 0 0 0-1.931-5.14.5.5 0 0 0-.749 0 7.809 7.809 0 0 0-1.931 5.141V138.9h4.61z" transform="translate(2324.273 18641.348)" style="fill:url(#9yd6jcszxb);fill-rule:evenodd"/>
            <path data-name="Path 127263" d="M205.7 113.215a7.811 7.811 0 0 0-1.931-5.14.5.5 0 0 0-.749 0 7.809 7.809 0 0 0-1.931 5.141V138.9h4.61z" transform="translate(2375.375 18641.348)" style="fill:#48b2fb;fill-rule:evenodd"/>
            <path data-name="Rectangle 12544" transform="translate(2585.058 18783.569)" style="fill:#a4d8fc" d="M0 0h6.271v15.354H0z"/>
            <path data-name="Rectangle 12545" transform="translate(2585.633 18783.569)" style="fill:#ceeafe" d="M0 0h5.209v15.354H0z"/>
            <path data-name="Path 127264" d="M258.767 185.88c-1.014-.764-1.537-3.583-6.537-3.484v12.278h9.8a1.947 1.947 0 0 0 1.862-2.51 3.618 3.618 0 0 0-1.239-1.8c-1.753-1.357-2.622-2.964-3.886-4.484z" transform="translate(2338.146 18587.12)" style="fill:#f0f0f0;fill-rule:evenodd"/>
            <path data-name="Path 127265" d="M198.962 185.88c1.014-.764 1.537-3.583 6.537-3.484v12.278h-9.8a1.947 1.947 0 0 1-1.863-2.51 3.615 3.615 0 0 1 1.239-1.8c1.755-1.357 2.625-2.964 3.887-4.484z" transform="translate(2380.715 18587.12)" style="fill:#f0f0f0;fill-rule:evenodd"/>
            <path data-name="Path 127266" d="m231.286 104.749-1.07 1.07a2.115 2.115 0 0 1-2.99 0l-1.047-1.048-2.047 4.582a14.471 14.471 0 0 0-1.258 5.9v21.774h11.847v-21.67a14.463 14.463 0 0 0-1.339-6.076z" transform="translate(2359.517 18643.644)" style="fill:url(#np56l7uujc);fill-rule:evenodd"/>
            <path data-name="Rectangle 12546" transform="translate(2597.082 18783.466)" style="fill:#a4d8fc" d="M0 0h2.222v15.458H0z"/>
            <path data-name="Rectangle 12547" transform="translate(2597.503 18783.466)" style="fill:#bfe4fe" d="M0 0h1.314v15.458H0z"/>
            <path data-name="Rectangle 12548" transform="translate(2576.942 18783.367)" style="fill:#a4d8fc" d="M0 0h2.222v15.555H0z"/>
            <path data-name="Rectangle 12549" transform="translate(2577.362 18783.367)" style="fill:#bee3fe" d="M0 0h1.314v15.555H0z"/>
            <path data-name="Rectangle 12550" transform="translate(2595.569 18757.24)" style="fill:#0886dd" d="M0 0h4.591v3.992H0z"/>
            <path data-name="Rectangle 12551" transform="translate(2576.467 18757.24)" style="fill:#0886dd" d="M0 0h4.591v3.992H0z"/>
            <path data-name="Rectangle 12552" transform="translate(2595.569 18766.035)" style="fill:#0886dd" d="M0 0h4.591v3.992H0z"/>
            <path data-name="Rectangle 12553" transform="translate(2582.389 18759.71)" style="fill:#48b1fa" d="M0 0h11.852v3.979H0z"/>
            <path data-name="Rectangle 12554" transform="translate(2576.467 18766.035)" style="fill:#0886dd" d="M0 0h4.591v3.992H0z"/>
            <path data-name="Path 127267" d="M238.02 236.561h-7.741a1.455 1.455 0 0 0 1.455 1.455h4.831a1.455 1.455 0 0 0 1.455-1.455z" transform="translate(2354.126 18547.688)" style="fill:#d2d2d2;fill-rule:evenodd"/>
            <path data-name="Path 127268" d="M277.231 228.639h-4.6a1.455 1.455 0 0 0 1.455 1.455h1.687a1.455 1.455 0 0 0 1.455-1.455z" transform="translate(2323.292 18553.455)" style="fill:gray;fill-rule:evenodd"/>
            <path data-name="Path 127269" d="M203.375 228.639h-4.6a1.455 1.455 0 0 0 1.455 1.455h1.688a1.455 1.455 0 0 0 1.455-1.455z" transform="translate(2377.058 18553.455)" style="fill:gray;fill-rule:evenodd"/>
            <path data-name="Path 127270" d="M274.557 224.587h-8.318a1.64 1.64 0 0 0 1.64 1.639h5.038a1.64 1.64 0 0 0 1.64-1.64z" transform="translate(2327.948 18556.404)" style="fill:#d2d2d2;fill-rule:evenodd"/>
            <path data-name="Path 127271" d="M200.707 224.587h-8.318a1.64 1.64 0 0 0 1.64 1.639h5.038a1.64 1.64 0 0 0 1.64-1.64z" transform="translate(2381.709 18556.404)" style="fill:#d2d2d2;fill-rule:evenodd"/>
            <path data-name="Path 127272" d="M234.555 223.552a2.907 2.907 0 0 0-2.8-3.69h-6.148a2.942 2.942 0 0 0-2.809 3.813 1.865 1.865 0 0 0 1.781 1.312h8.08a1.966 1.966 0 0 0 1.894-1.436z" transform="translate(2359.667 18559.844)" style="fill:#efefef;fill-rule:evenodd"/>
            <path data-name="Path 127273" d="M243.062 188.825a1.456 1.456 0 0 0-.373-.976.335.335 0 0 0-.5 0l-.006.007a1.433 1.433 0 0 0-.358.948v10.114a1.409 1.409 0 0 0 .37.952.329.329 0 0 0 .481 0 1.418 1.418 0 0 0 .384-.972z" transform="translate(2345.72 18583.229)" style="fill:#fff;fill-rule:evenodd"/>
            <path data-name="Path 127274" d="M249.45 122.306a.552.552 0 0 0-.247-.653l-1.521-.879a.882.882 0 0 0-1.3.564.526.526 0 0 0 .249.575l1.526.881a.894.894 0 0 0 1.293-.49z" transform="translate(2342.414 18632.065)" style="fill:#fff;fill-rule:evenodd"/>
            <path data-name="Path 127275" d="M230.529 122.309a.552.552 0 0 1 .247-.653l1.521-.878a.882.882 0 0 1 1.3.564.526.526 0 0 1-.249.575l-1.526.881a.894.894 0 0 1-1.293-.49z" transform="translate(2353.964 18632.062)" style="fill:#fff;fill-rule:evenodd"/>
            <path data-name="Path 127276" d="m235.015 99.6 1.048 1.047a2.114 2.114 0 0 0 2.99 0l1.07-1.07-.2-.432a2.592 2.592 0 0 0-4.719.031z" transform="translate(2350.678 18648.821)" style="fill:#efefef;fill-rule:evenodd"/>
        </g>
    </g>
</svg>
