<svg width="114" height="100" viewBox="0 0 114 100" fill="none" xmlns="http://www.w3.org/2000/svg">
<path d="M105.89 9.82422H18.8409C14.7312 9.82422 11.3997 13.1558 11.3997 17.2655V72.0849C11.3997 76.1946 14.7312 79.5262 18.8409 79.5262H105.89C110 79.5262 113.332 76.1946 113.332 72.0849V17.2655C113.332 13.1558 110 9.82422 105.89 9.82422Z" fill="#B5C1DB"/>
<path d="M69.801 72.3643L96.5297 99.0863V72.3643H69.801Z" fill="#B5C1DB"/>
<path d="M4.68086 5.17509C4.50656 5.17435 4.33952 5.10516 4.21577 4.98242L3.01986 3.79314C2.89475 3.66803 2.82446 3.49835 2.82446 3.32142C2.82446 3.14449 2.89475 2.9748 3.01986 2.84969C3.14497 2.72459 3.31465 2.6543 3.49158 2.6543C3.66851 2.6543 3.8382 2.72459 3.9633 2.84969L5.15257 4.04561C5.27632 4.1701 5.34578 4.33849 5.34578 4.51401C5.34578 4.68954 5.27632 4.85793 5.15257 4.98242C5.09049 5.04399 5.01686 5.0927 4.93591 5.12577C4.85497 5.15883 4.76829 5.17559 4.68086 5.17509Z" fill="#407BFF"/>
<path d="M2.88048 9.34637H1.19955C1.02334 9.34637 0.854352 9.27638 0.729753 9.15178C0.605155 9.02718 0.535156 8.85818 0.535156 8.68198C0.535156 8.50577 0.605155 8.33677 0.729753 8.21218C0.854352 8.08758 1.02334 8.01758 1.19955 8.01758H2.88048C3.05669 8.01758 3.22568 8.08758 3.35028 8.21218C3.47488 8.33677 3.54488 8.50577 3.54488 8.68198C3.54488 8.85818 3.47488 9.02718 3.35028 9.15178C3.22568 9.27638 3.05669 9.34637 2.88048 9.34637Z" fill="#407BFF"/>
<path d="M8.9122 3.38015C8.74376 3.38057 8.58144 3.31698 8.4581 3.20227C8.33476 3.08756 8.25959 2.93029 8.2478 2.76226L8.1282 1.08133C8.12188 0.994038 8.13287 0.906361 8.16053 0.823324C8.1882 0.740287 8.23199 0.663531 8.2894 0.597472C8.34682 0.531412 8.41673 0.47735 8.4951 0.438388C8.57348 0.399425 8.65877 0.376331 8.7461 0.370433C8.9213 0.359493 9.09372 0.418335 9.22568 0.53411C9.35764 0.649885 9.43841 0.813178 9.45036 0.988318L9.57659 2.66924C9.58292 2.75654 9.57194 2.84423 9.54427 2.92726C9.51661 3.0103 9.47281 3.08706 9.41539 3.15312C9.35798 3.21917 9.28808 3.27324 9.2097 3.3122C9.13133 3.35116 9.04602 3.37426 8.9587 3.38015H8.9122Z" fill="#407BFF"/>
<path d="M101.55 5.9873H14.5008C10.3911 5.9873 7.05957 9.31887 7.05957 13.4286V68.248C7.05957 72.3577 10.3911 75.6893 14.5008 75.6893H101.55C105.66 75.6893 108.991 72.3577 108.991 68.248V13.4286C108.991 9.31887 105.66 5.9873 101.55 5.9873Z" fill="#407BFF"/>
<path d="M65.4609 68.5273L92.1897 95.2494V68.5273H65.4609Z" fill="#407BFF"/>
<path d="M69.0378 52.8543L68.0296 48.5743C67.775 47.4493 67.775 46.2815 68.0296 45.1565L69.4311 39.0617C70.0044 36.4627 69.694 33.7467 68.5488 31.3441C67.4037 28.9415 65.4895 26.9899 63.1095 25.7985C63.1541 25.6864 63.1929 25.5719 63.2254 25.4557C63.3082 25.086 63.3173 24.7036 63.2523 24.3303C63.1872 23.957 63.0493 23.6003 62.8464 23.2803C62.6434 22.9603 62.3795 22.6835 62.0695 22.4655C61.7596 22.2476 61.4098 22.0928 61.0401 22.0101C60.6704 21.9273 60.2879 21.9182 59.9147 21.9833C59.5414 22.0483 59.1846 22.1862 58.8647 22.3891C58.5447 22.5921 58.2679 22.856 58.0499 23.166C57.832 23.4759 57.6772 23.8257 57.5945 24.1954C57.5694 24.3133 57.5543 24.433 57.5491 24.5533C54.8886 24.6158 52.3249 25.5639 50.2641 27.2477C48.2032 28.9314 46.7629 31.2546 46.1713 33.8492L44.8051 39.949C44.5542 41.072 44.0546 42.1246 43.3432 43.0291L40.626 46.4823C40.3602 46.821 40.1845 47.2215 40.1153 47.6464C40.046 48.0714 40.0854 48.5069 40.2298 48.9125C40.3743 49.3181 40.619 49.6806 40.9412 49.9661C41.2635 50.2516 41.6528 50.4509 42.0728 50.5454L66.0182 55.9092C66.4368 55.9996 66.8715 55.983 67.2819 55.8609C67.6924 55.7388 68.0654 55.5151 68.3665 55.2105C68.6675 54.9059 68.8869 54.5303 69.0042 54.1185C69.1216 53.7066 69.1332 53.2718 69.0378 52.8543Z" fill="white"/>
<path d="M50.9527 54.1751C50.7706 54.1349 50.5814 54.1403 50.4018 54.1907C50.2222 54.2411 50.0579 54.335 49.9233 54.4642C49.7887 54.5933 49.688 54.7536 49.6302 54.9309C49.5723 55.1082 49.5591 55.2971 49.5916 55.4807C49.7291 56.2907 50.1046 57.0415 50.6703 57.6374C51.2359 58.2333 51.9661 58.6474 52.7679 58.8269C53.5696 59.0064 54.4067 58.9432 55.1724 58.6453C55.9381 58.3475 56.5979 57.8284 57.0676 57.1544C57.175 57.0024 57.2433 56.8264 57.2665 56.6419C57.2898 56.4573 57.2673 56.2699 57.2011 56.0961C57.1348 55.9223 57.0269 55.7674 56.8867 55.6452C56.7465 55.5229 56.5784 55.437 56.3972 55.395L50.9527 54.1751Z" fill="white"/>
<path d="M32.5641 45.6928C32.4392 45.6938 32.3161 45.6633 32.206 45.6043C32.0959 45.5453 32.0024 45.4596 31.934 45.3551C29.553 41.7879 28.6865 37.421 29.5251 33.215C30.3636 29.009 32.8386 25.3084 36.4055 22.927C36.5726 22.8161 36.777 22.776 36.9736 22.8157C37.1702 22.8555 37.3431 22.9716 37.454 23.1388C37.565 23.3059 37.605 23.5103 37.5653 23.7069C37.5256 23.9035 37.4094 24.0764 37.2423 24.1873C34.0133 26.3501 31.7748 29.7061 31.0186 33.5182C30.2624 37.3303 31.0504 41.2867 33.2094 44.5182C33.3209 44.6847 33.3618 44.8887 33.323 45.0853C33.2843 45.2819 33.1691 45.4551 33.0027 45.5668C32.8727 45.6524 32.7197 45.6963 32.5641 45.6928Z" fill="white"/>
<path d="M35.7627 43.5518C35.6389 43.551 35.5171 43.5198 35.4081 43.4609C35.2991 43.402 35.2062 43.3172 35.1376 43.214C33.3254 40.4966 32.6659 37.171 33.3039 33.9677C33.9419 30.7644 35.8253 27.9453 38.5404 26.1296C38.6232 26.0743 38.716 26.0359 38.8136 26.0165C38.9112 25.9971 39.0117 25.9971 39.1093 26.0165C39.2069 26.036 39.2997 26.0744 39.3824 26.1297C39.4652 26.185 39.5362 26.2561 39.5915 26.3388C39.6468 26.4216 39.6852 26.5144 39.7046 26.612C39.724 26.7096 39.724 26.8101 39.7046 26.9077C39.6851 27.0053 39.6467 27.0981 39.5914 27.1808C39.5361 27.2636 39.465 27.3346 39.3823 27.3899C36.9991 28.9803 35.3454 31.4522 34.7848 34.2619C34.2242 37.0716 34.8026 39.9889 36.3929 42.3721C36.5044 42.5386 36.5453 42.7426 36.5065 42.9392C36.4678 43.1358 36.3526 43.309 36.1862 43.4207C36.0608 43.5046 35.9136 43.5502 35.7627 43.5518Z" fill="white"/>
<path d="M38.971 41.4022C38.8474 41.4029 38.7255 41.3728 38.6164 41.3147C38.5073 41.2566 38.4143 41.1724 38.3459 41.0695C37.7282 40.1446 37.299 39.1071 37.0828 38.0162C36.8666 36.9253 36.8676 35.8024 37.0858 34.7119C37.304 33.6214 37.7351 32.5846 38.3544 31.6609C38.9737 30.7372 39.7691 29.9447 40.695 29.3287C40.8615 29.2253 41.0616 29.1905 41.2532 29.2318C41.4448 29.273 41.6129 29.3871 41.722 29.5498C41.8312 29.7126 41.8729 29.9114 41.8384 30.1043C41.8038 30.2972 41.6957 30.4691 41.5369 30.5839C40.7774 31.0909 40.1253 31.7425 39.6177 32.5016C39.1102 33.2607 38.7571 34.1123 38.5788 35.0079C38.4004 35.9034 38.4002 36.8253 38.5782 37.7209C38.7562 38.6166 39.109 39.4683 39.6162 40.2276C39.7264 40.3945 39.7665 40.598 39.7278 40.7942C39.6892 40.9905 39.5748 41.1636 39.4095 41.2762C39.2795 41.3617 39.1266 41.4057 38.971 41.4022Z" fill="white"/>
<path d="M76.1584 56.3252C75.9893 56.3248 75.8253 56.2677 75.6924 56.1631C75.5596 56.0585 75.4656 55.9124 75.4256 55.7481C75.3855 55.5839 75.4017 55.4109 75.4715 55.2569C75.5413 55.1029 75.6606 54.9767 75.8106 54.8986C79.2644 53.114 81.8683 50.0311 83.0499 46.3274C84.2316 42.6237 83.8942 38.6024 82.112 35.1474C82.0578 35.0587 82.0225 34.9598 82.0083 34.8568C81.994 34.7539 82.0012 34.6491 82.0292 34.549C82.0573 34.449 82.1057 34.3558 82.1714 34.2752C82.2371 34.1947 82.3187 34.1286 82.4111 34.081C82.5035 34.0334 82.6047 34.0054 82.7084 33.9987C82.8121 33.9919 82.9161 34.0067 83.0139 34.0419C83.1116 34.0772 83.2011 34.1322 83.2766 34.2036C83.3522 34.275 83.4122 34.3612 83.4529 34.4568C84.4265 36.3447 85.0185 38.406 85.1952 40.5229C85.372 42.6397 85.13 44.7706 84.483 46.7939C83.836 48.8172 82.7968 50.6932 81.4247 52.3147C80.0525 53.9363 78.3744 55.2717 76.4861 56.2445C76.3839 56.2945 76.2721 56.322 76.1584 56.3252Z" fill="white"/>
<path d="M74.3886 52.9033C74.2196 52.9029 74.0555 52.8459 73.9226 52.7413C73.7898 52.6367 73.6959 52.4906 73.6558 52.3263C73.6157 52.162 73.6319 51.9891 73.7017 51.8351C73.7715 51.6811 73.8909 51.5549 74.0408 51.4767C75.3023 50.8263 76.4232 49.9337 77.3394 48.8498C78.2556 47.7659 78.9491 46.512 79.3804 45.1598C79.8116 43.8076 79.972 42.3837 79.8524 40.9695C79.7329 39.5553 79.3357 38.1785 78.6837 36.9179C78.5914 36.7394 78.5739 36.5316 78.6348 36.3401C78.6958 36.1487 78.8303 35.9893 79.0088 35.8971C79.1873 35.8048 79.3952 35.7873 79.5866 35.8482C79.778 35.9092 79.9374 36.0437 80.0297 36.2222C80.7727 37.6593 81.2252 39.2287 81.3612 40.8407C81.4973 42.4527 81.3143 44.0758 80.8227 45.617C80.3311 47.1583 79.5406 48.5876 78.4963 49.8231C77.4519 51.0586 76.1743 52.0762 74.7365 52.8176C74.6295 52.8748 74.5099 52.9043 74.3886 52.9033Z" fill="white"/>
<path d="M72.6204 49.4766C72.4519 49.4739 72.2891 49.4153 72.1575 49.3101C72.0259 49.2049 71.9329 49.0589 71.8931 48.8952C71.8533 48.7315 71.869 48.5592 71.9377 48.4053C72.0063 48.2514 72.1241 48.1247 72.2726 48.0449C73.0842 47.6272 73.8055 47.0536 74.3951 46.3568C74.9848 45.66 75.4312 44.8538 75.7089 43.9843C75.9866 43.1147 76.09 42.199 76.0133 41.2894C75.9366 40.3798 75.6813 39.4943 75.2619 38.6835C75.1697 38.505 75.1521 38.2972 75.2131 38.1058C75.2741 37.9143 75.4086 37.755 75.5871 37.6627C75.7656 37.5705 75.9734 37.5529 76.1649 37.6139C76.3563 37.6748 76.5157 37.8094 76.6079 37.9879C77.6339 39.9844 77.8258 42.3064 77.1415 44.4443C76.4573 46.5821 74.9527 48.3612 72.9581 49.3909C72.8536 49.4449 72.738 49.4742 72.6204 49.4766Z" fill="white"/>
</svg>
