<svg width="22" height="22" viewBox="0 0 22 22" fill="none" xmlns="http://www.w3.org/2000/svg">
<path d="M10.9475 17.5017C11.3267 17.5017 11.6472 17.3708 11.909 17.109C12.1708 16.8472 12.3017 16.5267 12.3017 16.1475C12.3017 15.7683 12.1708 15.4478 11.909 15.186C11.6472 14.9242 11.3267 14.7933 10.9475 14.7933C10.5683 14.7933 10.2478 14.9242 9.98604 15.186C9.72424 15.4478 9.59334 15.7683 9.59334 16.1475C9.59334 16.5267 9.72424 16.8472 9.98604 17.109C10.2478 17.3708 10.5683 17.5017 10.9475 17.5017ZM10.0154 12.3299C9.96042 12.8806 10.4212 13.3308 10.9746 13.3308C11.528 13.3308 11.9517 12.8763 12.0615 12.3339C12.0925 12.181 12.1319 12.0438 12.1798 11.9225C12.3152 11.5794 12.6989 11.11 13.3308 10.5142C13.8003 10.0447 14.1704 9.59785 14.4413 9.17354C14.7121 8.74924 14.8475 8.23917 14.8475 7.64334C14.8475 6.63222 14.4774 5.85583 13.7371 5.31417C12.9968 4.7725 12.1211 4.50167 11.11 4.50167C10.0808 4.50167 9.24577 4.7725 8.60479 5.31417C8.20326 5.65349 7.8779 6.03533 7.62871 6.45967C7.37746 6.88752 7.6258 7.40663 8.08743 7.58848C8.6029 7.79155 9.20333 7.50111 9.541 7.06188C9.57902 7.01243 9.61903 6.9625 9.66104 6.91209C9.97702 6.53292 10.46 6.34334 11.11 6.34334C11.6878 6.34334 12.1211 6.50132 12.41 6.81729C12.6989 7.13327 12.8433 7.48084 12.8433 7.86C12.8433 8.22111 12.735 8.55966 12.5183 8.87563C12.3017 9.1916 12.0308 9.485 11.7058 9.75584C10.9114 10.46 10.4239 10.9926 10.2433 11.3538C10.1346 11.5712 10.0587 11.8965 10.0154 12.3299ZM11.0017 21.835C9.50306 21.835 8.09472 21.5506 6.77667 20.9819C5.45861 20.4131 4.31209 19.6413 3.33709 18.6663C2.36208 17.6913 1.59021 16.5447 1.02146 15.2267C0.45271 13.9086 0.168335 12.5003 0.168335 11.0017C0.168335 9.50306 0.45271 8.09472 1.02146 6.77667C1.59021 5.45861 2.36208 4.31209 3.33709 3.33709C4.31209 2.36208 5.45861 1.59021 6.77667 1.02146C8.09472 0.45271 9.50306 0.168335 11.0017 0.168335C12.5003 0.168335 13.9086 0.45271 15.2267 1.02146C16.5447 1.59021 17.6913 2.36208 18.6663 3.33709C19.6413 4.31209 20.4131 5.45861 20.9819 6.77667C21.5506 8.09472 21.835 9.50306 21.835 11.0017C21.835 12.5003 21.5506 13.9086 20.9819 15.2267C20.4131 16.5447 19.6413 17.6913 18.6663 18.6663C17.6913 19.6413 16.5447 20.4131 15.2267 20.9819C13.9086 21.5506 12.5003 21.835 11.0017 21.835ZM11.0017 19.6683C13.4211 19.6683 15.4704 18.8288 17.1496 17.1496C18.8288 15.4704 19.6683 13.4211 19.6683 11.0017C19.6683 8.58222 18.8288 6.53292 17.1496 4.85375C15.4704 3.17459 13.4211 2.335 11.0017 2.335C8.58222 2.335 6.53292 3.17459 4.85375 4.85375C3.17459 6.53292 2.335 8.58222 2.335 11.0017C2.335 13.4211 3.17459 15.4704 4.85375 17.1496C6.53292 18.8288 8.58222 19.6683 11.0017 19.6683Z" fill="#B7C3F4"/>
</svg>
