<svg width="43" height="40" viewBox="0 0 43 40" fill="none" xmlns="http://www.w3.org/2000/svg">
<path d="M29.2174 11.3553L18.7562 5.33692C17.0479 4.35433 14.9345 4.35433 13.2086 5.33692L2.765 11.3553C1.05669 12.3379 0 14.1627 0 16.1454V28.147C0 30.1122 1.05669 31.937 2.765 32.9371L13.2262 38.9555C14.9345 39.9381 17.0479 39.9381 18.7738 38.9555L29.235 32.9371C30.9433 31.9545 32 30.1297 32 28.147V16.1454C31.9824 14.1627 30.9257 12.3554 29.2174 11.3553ZM15.9912 13.9697C18.2631 13.9697 20.0947 15.7945 20.0947 18.0579C20.0947 20.3214 18.2631 22.1462 15.9912 22.1462C13.7193 22.1462 11.8877 20.3214 11.8877 18.0579C11.8877 15.812 13.7193 13.9697 15.9912 13.9697ZM20.7111 30.3227H11.2713C9.8448 30.3227 9.01706 28.7436 9.80958 27.568C11.0072 25.7958 13.3319 24.6027 15.9912 24.6027C18.6505 24.6027 20.9752 25.7958 22.1728 27.568C22.9653 28.726 22.12 30.3227 20.7111 30.3227Z" fill="#D9E9ED"/>
<path d="M36.8798 0.824018C36.4698 0.415536 35.7598 0.694499 35.7598 1.26239V4.73946C35.7598 6.19406 36.9998 7.39958 38.5098 7.39958C39.4598 7.40954 40.7798 7.40954 41.9098 7.40954C42.4798 7.40954 42.7798 6.74202 42.3798 6.3435C40.9398 4.89887 38.3598 2.29854 36.8798 0.824018Z" fill="#5F7CE7"/>
<rect x="24.0801" y="8" width="12" height="12" rx="4" fill="white"/>
<path d="M41.5801 8.77447H38.6901C36.3201 8.77447 34.3901 6.85162 34.3901 4.4904V1.6111C34.3901 1.06314 33.9401 0.614807 33.3901 0.614807H29.1501C26.0701 0.614807 23.5801 2.6074 23.5801 6.16418V14.9914C23.5801 18.5481 26.0701 20.5407 29.1501 20.5407H37.0101C40.0901 20.5407 42.5801 18.5481 42.5801 14.9914V9.77077C42.5801 9.22281 42.1301 8.77447 41.5801 8.77447ZM32.5801 16.3065H28.5801C28.1701 16.3065 27.8301 15.9677 27.8301 15.5593C27.8301 15.1508 28.1701 14.812 28.5801 14.812H32.5801C32.9901 14.812 33.3301 15.1508 33.3301 15.5593C33.3301 15.9677 32.9901 16.3065 32.5801 16.3065ZM34.5801 12.3213H28.5801C28.1701 12.3213 27.8301 11.9825 27.8301 11.5741C27.8301 11.1656 28.1701 10.8268 28.5801 10.8268H34.5801C34.9901 10.8268 35.3301 11.1656 35.3301 11.5741C35.3301 11.9825 34.9901 12.3213 34.5801 12.3213Z" fill="#5F7CE7"/>
</svg>
