<svg width="32" height="32" viewBox="0 0 32 32" fill="none" xmlns="http://www.w3.org/2000/svg">
<path opacity="0.4" d="M28.1199 28.6667C28.1199 29.04 27.8265 29.3333 27.4532 29.3333H4.54655C4.17322 29.3333 3.87988 29.04 3.87988 28.6667C3.87988 23.1467 9.31988 18.6667 15.9999 18.6667C17.3732 18.6667 18.7066 18.8533 19.9332 19.2133C19.1466 20.1466 18.6665 21.36 18.6665 22.6667C18.6665 23.6667 18.9465 24.6133 19.4399 25.4133C19.7065 25.8667 20.0532 26.28 20.4532 26.6266C21.3865 27.48 22.6265 28 23.9999 28C25.4932 28 26.8399 27.3867 27.7999 26.4C28.0132 27.12 28.1199 27.88 28.1199 28.6667Z" fill="#8FA3A5"/>
<path d="M27.9601 19.1067C27.0001 18.0134 25.5734 17.3333 24.0001 17.3333C22.5067 17.3333 21.1468 17.9467 20.1734 18.9467C19.2401 19.9067 18.6667 21.2267 18.6667 22.6667C18.6667 23.6667 18.9467 24.6133 19.4401 25.4133C19.7067 25.8667 20.0534 26.28 20.4534 26.6266C21.3867 27.48 22.6267 28 24.0001 28C25.9467 28 27.6401 26.96 28.5601 25.4133C28.8401 24.96 29.0534 24.44 29.1734 23.9067C29.2801 23.5067 29.3334 23.0933 29.3334 22.6667C29.3334 21.3067 28.8134 20.0534 27.9601 19.1067ZM26.0001 23.64H25.0001V24.68C25.0001 25.2267 24.5467 25.68 24.0001 25.68C23.4534 25.68 23.0001 25.2267 23.0001 24.68V23.64H22.0001C21.4534 23.64 21.0001 23.1866 21.0001 22.64C21.0001 22.0933 21.4534 21.64 22.0001 21.64H23.0001V20.6934C23.0001 20.1467 23.4534 19.6934 24.0001 19.6934C24.5467 19.6934 25.0001 20.1467 25.0001 20.6934V21.64H26.0001C26.5467 21.64 27.0001 22.0933 27.0001 22.64C27.0001 23.1866 26.5467 23.64 26.0001 23.64Z" fill="#8FA3A5"/>
<path d="M15.9999 16C19.6818 16 22.6666 13.0152 22.6666 9.33334C22.6666 5.65144 19.6818 2.66667 15.9999 2.66667C12.318 2.66667 9.33325 5.65144 9.33325 9.33334C9.33325 13.0152 12.318 16 15.9999 16Z" fill="#8FA3A5"/>
</svg>
