<svg width="44" height="44" viewBox="0 0 44 44" fill="none" xmlns="http://www.w3.org/2000/svg">
<path d="M39.5266 19.69L37.0333 16.7934C36.5566 16.2434 36.1716 15.2167 36.1716 14.4834V11.3667C36.1716 9.42336 34.5766 7.82836 32.6333 7.82836H29.5166C28.8016 7.82836 27.7566 7.44336 27.2066 6.96669L24.3099 4.47336C23.0449 3.39169 20.9733 3.39169 19.6899 4.47336L16.8116 6.98503C16.2616 7.44336 15.2166 7.82836 14.5016 7.82836H11.3299C9.38661 7.82836 7.79161 9.42336 7.79161 11.3667V14.5017C7.79161 15.2167 7.40661 16.2434 6.94828 16.7934L4.47328 19.7084C3.40995 20.9734 3.40995 23.0267 4.47328 24.2917L6.94828 27.2067C7.40661 27.7567 7.79161 28.7834 7.79161 29.4984V32.6334C7.79161 34.5767 9.38661 36.1717 11.3299 36.1717H14.5016C15.2166 36.1717 16.2616 36.5567 16.8116 37.0334L19.7083 39.5267C20.9733 40.6084 23.0449 40.6084 24.3283 39.5267L27.2249 37.0334C27.7749 36.5567 28.8016 36.1717 29.535 36.1717H32.6516C34.5949 36.1717 36.1899 34.5767 36.1899 32.6334V29.5167C36.1899 28.8017 36.5749 27.7567 37.0516 27.2067L39.5449 24.31C40.6083 23.045 40.6083 20.955 39.5266 19.69ZM29.6266 18.535L20.7716 27.39C20.5149 27.6467 20.1666 27.7934 19.7999 27.7934C19.4333 27.7934 19.0849 27.6467 18.8283 27.39L14.3916 22.9534C13.8599 22.4217 13.8599 21.5417 14.3916 21.01C14.9233 20.4784 15.8033 20.4784 16.3349 21.01L19.7999 24.475L27.6833 16.5917C28.2149 16.06 29.0949 16.06 29.6266 16.5917C30.1583 17.1234 30.1583 18.0034 29.6266 18.535Z" fill="#1F9A53"/>
</svg>
