<svg width="44" height="44" viewBox="0 0 44 44" fill="none" xmlns="http://www.w3.org/2000/svg">
<rect width="44" height="44" rx="5.5" fill="#ECF3F5"/>
<path opacity="0.4" d="M23.9167 12.9791H18.4167C15.2817 12.9791 14.0625 14.1983 14.0625 17.3333V24.6666C14.0625 26.775 15.2083 29.0208 18.4167 29.0208H23.9167C27.0517 29.0208 28.2708 27.8016 28.2708 24.6666V17.3333C28.2708 14.1983 27.0517 12.9791 23.9167 12.9791Z" fill="#1F2D3D"/>
<path d="M22.5417 20.4317C23.4935 20.4317 24.265 19.6601 24.265 18.7083C24.265 17.7565 23.4935 16.985 22.5417 16.985C21.5899 16.985 20.8184 17.7565 20.8184 18.7083C20.8184 19.6601 21.5899 20.4317 22.5417 20.4317Z" fill="#1F2D3D"/>
<path d="M31.8458 15.6558C31.4699 15.4633 30.6816 15.2433 29.6091 15.9949L28.2524 16.9483C28.2616 17.0766 28.2708 17.1958 28.2708 17.3333V24.6666C28.2708 24.8041 28.2524 24.9233 28.2524 25.0516L29.6091 26.0049C30.1774 26.4083 30.6724 26.5366 31.0666 26.5366C31.4058 26.5366 31.6716 26.4449 31.8458 26.3533C32.2216 26.1608 32.8541 25.6383 32.8541 24.3274V17.6816C32.8541 16.3708 32.2216 15.8483 31.8458 15.6558Z" fill="#1F2D3D"/>
</svg>
