<svg width="360" height="180" viewBox="0 0 360 180" fill="none" xmlns="http://www.w3.org/2000/svg">
<g clip-path="url(#clip0_306_11245)">
<path d="M0 15.999C0 7.16247 7.16344 -0.000976562 16 -0.000976562H344C352.837 -0.000976562 360 7.16247 360 15.999V179.999H0V15.999Z" fill="url(#paint0_linear_306_11245)"/>
<g opacity="0.6">
<path d="M181.829 121.104C182.545 117.539 182.477 113.864 181.63 110.328C179.922 103.2 176.535 84.1273 188.379 82.0024C188.379 82.0024 200.365 81.9446 195.333 109.992C194.779 113.075 194.974 116.243 195.902 119.237C196.377 120.857 197.144 122.379 198.166 123.73C200.384 126.533 201.839 129.852 202.392 133.369C203.19 138.385 202.494 145.031 196.552 151.583C195.587 152.646 194.405 153.496 193.084 154.075C191.763 154.654 190.333 154.949 188.888 154.941C187.443 154.933 186.016 154.622 184.701 154.029C183.387 153.436 182.214 152.574 181.262 151.5C177.142 146.851 174.412 138.647 180.784 124.64C181.261 123.502 181.611 122.316 181.829 121.104Z" fill="#DEF5E8"/>
<path d="M223.672 165.724L234.788 103.952L237.169 103.907V103.884L237.78 103.896L238.403 103.884V103.907L240.783 103.951L251.899 165.723L223.672 165.724Z" fill="#CADCD2"/>
<path d="M237.947 52.5089V157.161" stroke="#CADCD2" stroke-width="0.705" stroke-miterlimit="10"/>
<path d="M236.874 55.5916C236.564 55.3964 236.325 55.1067 236.195 54.7662C236.065 54.4256 236.051 54.0525 236.153 53.703C236.256 53.3535 236.471 53.0464 236.766 52.8279C237.06 52.6093 237.418 52.4912 237.786 52.4912C238.155 52.4912 238.513 52.6093 238.807 52.8279C239.102 53.0464 239.317 53.3535 239.419 53.703C239.522 54.0525 239.507 54.4256 239.377 54.7662C239.247 55.1067 239.009 55.3964 238.698 55.5916L244.208 59.4756L241.995 66.457H233.578L231.371 59.4756L236.874 55.5916Z" fill="#CADCD2"/>
<path d="M288.199 106.966C287.888 106.771 287.65 106.482 287.52 106.141C287.39 105.8 287.375 105.427 287.478 105.078C287.581 104.728 287.795 104.421 288.09 104.203C288.384 103.984 288.742 103.866 289.111 103.866C289.479 103.866 289.837 103.984 290.132 104.203C290.426 104.421 290.641 104.728 290.744 105.078C290.846 105.427 290.832 105.8 290.702 106.141C290.572 106.482 290.333 106.771 290.023 106.966L295.532 110.85L293.32 117.832H284.902L282.695 110.85L288.199 106.966Z" fill="#CADCD2"/>
<path d="M236.874 158.024C236.564 157.829 236.325 157.539 236.195 157.198C236.065 156.858 236.051 156.485 236.153 156.135C236.256 155.786 236.471 155.479 236.766 155.26C237.06 155.042 237.418 154.923 237.786 154.923C238.155 154.923 238.513 155.042 238.807 155.26C239.102 155.479 239.317 155.786 239.419 156.135C239.522 156.485 239.507 156.858 239.377 157.198C239.247 157.539 239.009 157.829 238.698 158.024L244.208 161.908L241.995 168.889H233.578L231.371 161.908L236.874 158.024Z" fill="#CADCD2"/>
<path d="M237.946 112.762C242.463 112.762 246.126 109.212 246.126 104.834C246.126 100.456 242.463 96.9064 237.946 96.9064C233.428 96.9064 229.766 100.456 229.766 104.834C229.766 109.212 233.428 112.762 237.946 112.762Z" fill="#CADCD2"/>
<path d="M273.121 142.485C272.81 142.289 272.572 142 272.441 141.659C272.311 141.319 272.297 140.946 272.4 140.596C272.502 140.247 272.717 139.939 273.012 139.721C273.306 139.502 273.664 139.384 274.033 139.384C274.401 139.384 274.759 139.502 275.053 139.721C275.348 139.939 275.563 140.247 275.665 140.596C275.768 140.946 275.754 141.319 275.624 141.659C275.494 142 275.255 142.289 274.944 142.485L280.454 146.369L278.241 153.35H269.824L267.617 146.369L273.121 142.485Z" fill="#CADCD2"/>
<path d="M186.586 154.942H190.114V179.679H186.586V154.942Z" fill="#DEF5E8"/>
<path d="M344.715 155.575H348.243V179.677H344.715V155.575Z" fill="#CADCD2"/>
<path d="M359.793 155.575H363.321V179.677H359.793V155.575Z" fill="#CADCD2"/>
<path d="M254.061 158.747H251.9L253.665 168.894H255.749L254.061 158.747Z" fill="#CADCD2"/>
<path d="M223.672 168.577H230.408V179.994H223.672V168.577Z" fill="#CADCD2"/>
<path d="M261.203 168.577H267.939V179.994H261.203V168.577Z" fill="#CADCD2"/>
<path d="M267.938 168.577H270.504V179.994H267.938V168.577Z" fill="#CADCD2"/>
<path d="M230.408 168.577H232.974V179.994H230.408V168.577Z" fill="#CADCD2"/>
<path d="M230.408 168.577H269.864V171.114H230.408V168.577Z" fill="#CADCD2"/>
<path d="M221.748 158.747H257.445L257.995 162.235L222.442 162.151L221.748 158.747Z" fill="#CADCD2"/>
<path d="M226.795 158.747H224.635L226.399 168.894H228.483L226.795 158.747Z" fill="#CADCD2"/>
<path d="M222.711 163.82H258.112L258.637 167.309H223.346L222.711 163.82Z" fill="#CADCD2"/>
<path d="M222.758 163.82L223.354 167.309H221.731L221.105 163.82H222.758Z" fill="#CADCD2"/>
<path d="M222.39 162.235H220.748L220.145 158.747H221.813L222.39 162.235Z" fill="#CADCD2"/>
<path d="M357.188 107.321C357.188 107.321 358.077 102.723 362.508 102.942C366.939 103.16 367.892 107.68 368.937 113.669C369.777 117.048 371.438 120.173 373.775 122.775C377.976 127.726 380.187 134.033 379.987 140.492C379.981 143.438 379.303 146.344 378.005 148.995C376.707 151.646 374.821 153.973 372.488 155.805C372.488 155.805 359.404 165.556 348.541 152.858C348.541 152.858 337.825 138.467 353.862 120.704C353.862 120.704 356.965 116.298 357.188 107.321Z" fill="#DFF7E9"/>
<path d="M342.832 82.5305C342.832 82.5305 334.35 88.7881 336.36 102.011C338.369 115.233 341.825 115.677 337.14 127.484C333.832 135.818 331.189 145.789 336.559 153.626C337.692 155.273 339.209 156.627 340.982 157.574C342.755 158.521 344.732 159.034 346.746 159.068C348.761 159.102 350.755 158.658 352.56 157.772C354.364 156.886 355.927 155.584 357.117 153.977C360.792 148.973 363.831 141.411 362.251 130.673C362.251 130.673 361.054 122.66 351.456 108.982C351.183 108.593 350.944 108.182 350.741 107.753C348.307 102.201 347.463 96.0943 348.301 90.0999C348.301 90.0999 349.975 79.5587 342.832 82.5305Z" fill="#CADCD2"/>
<path d="M193.453 124.813C194.959 124.813 196.179 123.606 196.179 122.118C196.179 120.629 194.959 119.422 193.453 119.422C191.947 119.422 190.727 120.629 190.727 122.118C190.727 123.606 191.947 124.813 193.453 124.813Z" fill="#CADCD2"/>
<path d="M196.179 124.814C196.173 124.641 196.099 124.476 195.971 124.358C195.843 124.239 195.673 124.175 195.498 124.179H191.408C191.232 124.175 191.062 124.239 190.935 124.358C190.807 124.476 190.732 124.641 190.727 124.814C190.734 124.986 190.809 125.149 190.937 125.266C191.064 125.384 191.233 125.447 191.408 125.442H195.498C195.672 125.447 195.842 125.384 195.969 125.266C196.097 125.149 196.172 124.986 196.179 124.814Z" fill="#CADCD2"/>
<path d="M192.672 124.815H194.233L195.859 179.995H191.047L192.672 124.815Z" fill="#CADCD2"/>
<path d="M305.629 124.497C307.134 124.497 308.355 123.29 308.355 121.802C308.355 120.313 307.134 119.106 305.629 119.106C304.123 119.106 302.902 120.313 302.902 121.802C302.902 123.29 304.123 124.497 305.629 124.497Z" fill="#CADCD2"/>
<path d="M308.355 124.499C308.349 124.325 308.274 124.161 308.147 124.042C308.019 123.923 307.849 123.859 307.674 123.864H303.584C303.408 123.859 303.238 123.923 303.11 124.042C302.983 124.161 302.908 124.325 302.902 124.499C302.909 124.671 302.985 124.834 303.112 124.951C303.24 125.069 303.409 125.132 303.584 125.127H307.674C307.848 125.132 308.017 125.069 308.145 124.951C308.272 124.834 308.348 124.671 308.355 124.499Z" fill="#CADCD2"/>
<path d="M334.848 124.496H336.409L338.035 179.676H333.223L334.848 124.496Z" fill="#CADCD2"/>
<path d="M321.188 75.9778H351.019C350.714 74.338 349.983 72.8049 348.898 71.529C347.813 70.2532 346.41 69.2786 344.828 68.7011C343.297 68.0379 341.64 67.709 339.969 67.737C338.298 67.765 336.653 68.1491 335.146 68.8632C332.892 69.8599 330.951 71.4375 329.526 73.4307C329.526 73.4307 323.184 70.4427 321.188 75.9778Z" fill="#DFF7E9"/>
<path d="M291.173 179.994C291.173 179.994 285.718 172.48 288.74 171.106C288.74 171.106 290.878 169.878 292.5 175.586C292.5 175.586 298.249 163.808 303.851 162.869C303.851 162.869 308.569 163.372 299.723 174.793C299.723 174.793 307.43 168.722 311.353 169.445C311.353 169.445 315.276 171.54 305.989 176.671C305.989 176.671 316.603 172.119 319.478 173.348C319.478 173.348 322.132 173.564 313.581 177.394C313.581 177.394 322.206 175.949 323.749 177.611C323.749 177.611 323.6 178.983 317.925 179.999L291.173 179.994Z" fill="#CADCD2"/>
<path d="M315.537 168.895C315.575 168.9 315.612 168.915 315.643 168.938C315.674 168.962 315.698 168.992 315.713 169.028C315.728 169.063 315.734 169.102 315.729 169.14C315.725 169.178 315.71 169.215 315.687 169.245C313.207 172.047 311.425 175.384 310.486 178.99C310.433 179.206 310.37 179.518 310.37 179.518C310.287 179.721 310.163 179.684 310.086 179.651C309.908 179.586 309.959 179.347 310.006 179.114C310.926 175.383 312.741 171.924 315.297 169.032C315.316 168.986 315.351 168.948 315.394 168.924C315.437 168.899 315.487 168.889 315.537 168.895Z" fill="#CADCD2"/>
<path d="M289.056 167.627C289.098 167.634 289.137 167.655 289.166 167.686C292.175 170.74 294.229 174.588 295.081 178.767C295.128 178.982 295.171 179.198 295.208 179.415C295.215 179.474 295.206 179.532 295.18 179.585C295.071 179.755 294.799 179.676 294.764 179.428C294.509 178.031 294.112 176.662 293.58 175.343C292.544 172.594 290.934 170.091 288.855 167.997C288.831 167.97 288.813 167.938 288.801 167.903C288.79 167.869 288.787 167.832 288.791 167.796C288.804 167.739 288.839 167.69 288.888 167.658C288.938 167.626 288.998 167.615 289.056 167.627Z" fill="#CADCD2"/>
<path d="M310.753 164.139C310.853 164.165 310.853 164.18 310.88 164.207C310.986 164.325 310.88 164.505 310.777 164.659C308.149 168.544 306.686 173.084 306.556 177.755C306.542 178.313 306.569 178.872 306.636 179.426C306.637 179.468 306.629 179.51 306.611 179.548C306.594 179.586 306.568 179.619 306.535 179.646C306.408 179.725 306.228 179.661 306.2 179.444C306.06 178.078 306.09 176.701 306.29 175.342C306.827 171.407 308.256 167.642 310.47 164.33C310.557 164.203 310.566 164.125 310.753 164.139Z" fill="#CADCD2"/>
<path d="M314.651 170.398C315.163 170.808 316.642 169.84 317.955 168.237C319.269 166.633 319.919 165.001 319.407 164.592C318.895 164.182 317.416 165.15 316.102 166.753C314.789 168.356 314.139 169.988 314.651 170.398Z" fill="#CADCD2"/>
<path d="M291.089 170.373C291.6 169.963 290.951 168.331 289.637 166.728C288.324 165.125 286.844 164.157 286.333 164.566C285.821 164.976 286.471 166.608 287.784 168.211C289.098 169.815 290.577 170.783 291.089 170.373Z" fill="#CADCD2"/>
<path d="M308.685 167.895C309.266 168.202 310.696 166.673 311.879 164.482C313.062 162.29 313.551 160.264 312.97 159.958C312.389 159.651 310.959 161.18 309.776 163.372C308.592 165.563 308.104 167.589 308.685 167.895Z" fill="#CADCD2"/>
</g>
<path d="M315.886 146.473L318.337 183.974C318.674 184.19 319.065 184.305 319.465 184.305C319.865 184.305 320.257 184.19 320.593 183.974C325.32 162.917 326.688 147.999 326.134 138.058C326.011 135.559 325.58 133.084 324.851 130.691C324.659 129.983 324.385 129.3 324.034 128.656C324.034 128.656 321.177 129.796 314.795 129.796L314.945 132.084C313.056 131.708 310.037 130.916 308.3 129.469C308.3 129.469 303.033 148.099 313.904 184.174C313.968 184.387 314.571 184.524 315.211 184.505C315.623 184.493 316.024 184.379 316.381 184.174C316.21 181.549 315.984 177.825 315.84 173.351C315.625 166.68 315.508 157.333 315.888 146.47L315.886 146.473Z" fill="#030612"/>
<path d="M321.724 84.2254C326.744 85.055 330.724 88.1844 334.515 96.4614C336.915 101.703 344.347 100.518 346.9 101.251C350.35 102.238 353.298 104.21 354.133 107.323C355.278 111.59 353.559 114.275 348.994 115.668C342.851 117.542 350.77 122.593 351.246 128.456C351.423 130.157 351.19 131.875 350.567 133.468C349.944 135.061 348.948 136.481 347.664 137.61C341.316 142.919 328.313 137.47 328.927 126.647C329.241 121.115 328.698 117.53 326.42 115.736C324.533 114.284 322.199 113.534 319.82 113.614C314.557 113.732 311.552 111.295 309.032 105.15C303.638 91.9896 311.039 82.4606 321.724 84.2254Z" fill="#B54708"/>
<path d="M320.727 101.992C320.727 101.992 316.735 100.985 316.639 96.0413H314.299C314.299 96.0413 315.068 101.031 310.499 102.29L314.177 106.845L319.877 106.052L320.727 101.992Z" fill="#F4B9B2"/>
<path d="M290.453 111.833C289.495 110.423 288.789 108.858 288.367 107.206C288.077 106.068 288.017 104.898 287.708 104.843C287.708 104.843 287.119 104.532 287.536 107.249C287.536 107.249 286.586 106.014 285.867 102.875C285.867 102.875 285.524 102.086 285.397 103.022C285.315 103.543 285.336 104.075 285.457 104.589C285.36 104.234 285.283 103.874 285.226 103.51C285.218 103.451 285.191 103.396 285.148 103.354C285.106 103.311 285.052 103.284 284.993 103.275C284.934 103.266 284.873 103.277 284.821 103.306C284.768 103.335 284.727 103.379 284.702 103.434C284.689 103.467 284.677 103.5 284.668 103.534C284.689 104.174 284.767 104.811 284.901 105.437C285.032 106.044 285.216 106.638 285.45 107.212C285.335 107.032 285.218 106.842 285.109 106.637C284.803 106.046 284.54 105.433 284.324 104.803C284.324 104.803 284.128 104.415 283.965 104.856C283.911 105.007 283.894 105.169 283.918 105.327C284.524 108.251 285.782 111.001 287.599 113.371L290.453 111.833Z" fill="#FFC7C0"/>
<path d="M286.352 107.314C286.12 106.754 285.912 106.178 285.727 105.598C285.542 105.018 285.382 104.429 285.249 103.834C285.245 103.819 285.236 103.806 285.224 103.797C285.211 103.789 285.195 103.786 285.18 103.789C285.165 103.792 285.151 103.801 285.143 103.814C285.134 103.827 285.131 103.843 285.135 103.858C285.251 104.461 285.398 105.057 285.572 105.646C285.747 106.234 285.941 106.815 286.162 107.391C286.173 107.416 286.192 107.435 286.217 107.446C286.241 107.456 286.269 107.456 286.294 107.447C286.318 107.437 286.339 107.418 286.35 107.394C286.361 107.37 286.362 107.342 286.354 107.317L286.352 107.314Z" fill="#F4B9B2"/>
<path d="M316.233 88.5198C318.251 88.7101 319.336 91.3492 319.146 93.5861C319.424 93.327 319.781 93.1691 320.16 93.1378C320.681 93.086 321.036 93.5833 320.901 94.1779C320.712 94.6483 320.391 95.0541 319.977 95.3461C319.563 95.6382 319.073 95.8041 318.567 95.8238C317.856 97.406 316.567 98.5091 314.871 98.2461C310.123 97.5088 310.887 88.0106 316.233 88.5198Z" fill="#FFC7C0"/>
<path d="M305.599 121.222C305.034 125.998 304.852 130.812 305.053 135.618C313.63 139.038 323.701 137.327 327.868 136.042C328.099 121.333 325.594 107.466 321.362 102.065L319.316 101.546C319.316 101.546 315.915 105.927 311.785 101.847L310.04 102.362L310.033 102.376L310.022 102.361C310.022 102.361 305.295 112.738 299.179 115.396C294.895 117.258 290.919 109.124 290.885 109.024L284.31 113.158C284.31 113.158 286.8 125.002 298.09 124.35C300.884 124.226 303.544 123.118 305.599 121.221L305.599 121.222Z" fill="#5F7CE7"/>
<path d="M319.872 132.323C321.507 132.344 323.128 132.019 324.628 131.369C325.458 130.999 326.234 130.52 326.937 129.944C327.731 129.285 328.433 128.524 329.025 127.679C330.853 125.122 331.815 122.049 331.772 118.906C331.756 117.445 331.563 115.991 331.196 114.576C330.839 113.194 330.347 111.851 329.727 110.565C328.66 108.315 327.225 106.258 325.481 104.48C324.807 103.792 324.054 103.185 323.238 102.674C322.653 102.284 321.984 102.038 321.285 101.954C322.21 103.763 323.005 105.636 323.664 107.559C324.277 109.308 324.745 111.105 325.063 112.932C325.408 114.79 325.458 116.691 325.212 118.565C324.94 120.315 324.054 121.91 322.712 123.065C321.371 124.22 319.661 124.859 317.891 124.867C316.966 124.867 316.049 124.689 315.19 124.344C315.095 124.306 314.996 124.265 314.897 124.223L313.155 130.886C313.797 131.17 314.457 131.411 315.131 131.605C315.832 131.813 316.545 131.978 317.266 132.1C318.127 132.247 318.999 132.321 319.872 132.323ZM315.778 105.623C316.917 105.619 318.029 105.275 318.972 104.636C319.932 103.995 320.684 103.087 321.135 102.024L319.265 101.546C318.945 101.934 318.579 102.281 318.176 102.58C317.794 102.869 317.377 103.108 316.934 103.291C316.427 103.501 315.884 103.61 315.335 103.614C314.639 103.578 313.957 103.404 313.329 103.101C312.701 102.799 312.14 102.374 311.679 101.851L310.088 102.323C310.403 103.17 310.973 103.898 311.719 104.406C312.221 104.766 312.774 105.047 313.361 105.239C314.089 105.475 314.848 105.604 315.613 105.621C315.667 105.622 315.723 105.623 315.778 105.623Z" fill="#182F8F"/>
<path d="M308.802 126.217C308.26 125.96 307.726 125.674 307.204 125.37C306.682 125.067 306.172 124.741 305.68 124.388C305.674 124.383 305.667 124.38 305.66 124.378C305.652 124.376 305.645 124.376 305.637 124.377C305.63 124.379 305.623 124.381 305.616 124.385C305.61 124.389 305.604 124.395 305.6 124.401C305.592 124.413 305.588 124.429 305.591 124.444C305.593 124.459 305.601 124.472 305.613 124.481C306.102 124.849 306.605 125.191 307.124 125.51C307.643 125.828 308.171 126.125 308.717 126.405C308.729 126.411 308.742 126.414 308.755 126.415C308.768 126.416 308.782 126.414 308.794 126.41C308.807 126.406 308.819 126.399 308.828 126.39C308.838 126.381 308.846 126.37 308.852 126.358C308.864 126.333 308.867 126.305 308.858 126.279C308.85 126.253 308.831 126.231 308.807 126.218L308.802 126.217Z" fill="#F4B9B2"/>
<path d="M314.793 126.865C313.154 126.484 311.593 125.821 310.18 124.907C309.208 124.273 308.382 123.462 308.121 123.632C308.121 123.632 307.484 123.799 309.605 125.49C309.605 125.49 308.088 125.229 305.465 123.434C305.465 123.434 304.688 123.091 305.221 123.853C305.511 124.285 305.882 124.657 306.313 124.948C306.005 124.755 305.708 124.545 305.423 124.319C305.378 124.281 305.322 124.259 305.263 124.256C305.204 124.254 305.146 124.27 305.097 124.303C305.048 124.336 305.012 124.384 304.992 124.44C304.973 124.496 304.973 124.556 304.991 124.612C305.003 124.645 305.018 124.677 305.034 124.708C305.477 125.159 305.959 125.569 306.476 125.933C306.977 126.286 307.508 126.594 308.063 126.854C307.858 126.8 307.643 126.742 307.43 126.665C306.811 126.44 306.209 126.17 305.63 125.857C305.63 125.857 305.228 125.707 305.404 126.136C305.465 126.282 305.561 126.411 305.684 126.51C308.083 128.224 310.838 129.376 313.744 129.879L314.793 126.865Z" fill="#FFC7C0"/>
<path d="M209.994 79.0069H210.826V56.1992C210.826 52.6983 212.217 49.3408 214.692 46.8653C217.168 44.3898 220.525 42.999 224.026 42.999H272.347C275.848 42.999 279.205 44.3898 281.681 46.8653C284.156 49.3408 285.547 52.6983 285.547 56.1992V181.322C285.547 184.823 284.156 188.18 281.681 190.656C279.205 193.131 275.848 194.522 272.347 194.522H224.029C222.296 194.522 220.579 194.181 218.978 193.517C217.376 192.854 215.921 191.882 214.695 190.656C213.469 189.43 212.497 187.975 211.834 186.373C211.17 184.772 210.829 183.055 210.829 181.322V95.2461H209.997L209.994 79.0069Z" fill="#CADCD2"/>
<path d="M223.497 46.4338H229.802C229.511 47.1452 229.399 47.9175 229.476 48.6825C229.554 49.4474 229.818 50.1815 230.247 50.8199C230.675 51.4584 231.254 51.9815 231.933 52.343C232.612 52.7046 233.369 52.8935 234.138 52.8931H261.821C262.59 52.8935 263.347 52.7046 264.025 52.343C264.704 51.9815 265.283 51.4584 265.711 50.8199C266.14 50.1815 266.405 49.4474 266.482 48.6825C266.56 47.9175 266.448 47.1452 266.156 46.4338H272.048C274.663 46.4338 277.17 47.4724 279.019 49.3212C280.868 51.17 281.906 53.6774 281.906 56.292V181.232C281.906 183.846 280.868 186.354 279.019 188.202C277.17 190.051 274.663 191.09 272.048 191.09H223.495C220.88 191.09 218.373 190.051 216.524 188.202C214.675 186.354 213.637 183.846 213.637 181.232V56.292C213.637 53.6774 214.675 51.17 216.524 49.3212C218.373 47.4724 220.88 46.4338 223.495 46.4338H223.497Z" fill="#FAFEFC"/>
<path d="M61.7921 77.7709C61.0837 65.6875 50.1046 56.375 37.4588 58.4584C28.7504 59.8959 21.7713 66.9583 20.4171 75.6667C19.6254 80.7083 20.6672 85.4792 22.938 89.4167L21.0838 96.3125C20.6671 97.875 22.1046 99.2917 23.6463 98.8542L30.4379 96.9792C33.5213 98.7917 37.1254 99.8334 40.9796 99.8334C52.7296 99.8334 62.4796 89.4792 61.7921 77.7709ZM51.1671 86.75C50.9796 87.125 50.7504 87.4792 50.4587 87.8125C49.9379 88.375 49.3754 88.7917 48.7504 89.0417C48.1254 89.3125 47.4379 89.4375 46.7088 89.4375C45.6463 89.4375 44.5004 89.1876 43.3129 88.6667C42.1046 88.1459 40.9172 87.4583 39.7297 86.6042C38.5213 85.7292 37.3963 84.75 36.313 83.6875C35.2296 82.6042 34.2712 81.4583 33.3962 80.2708C32.5421 79.0833 31.8546 77.8958 31.3546 76.7083C30.8546 75.5208 30.6046 74.375 30.6046 73.2917C30.6046 72.5834 30.7296 71.8959 30.9796 71.2709C31.2296 70.625 31.6255 70.0417 32.188 69.5209C32.8547 68.8542 33.5838 68.5417 34.3546 68.5417C34.6463 68.5417 34.9379 68.6042 35.2087 68.7292C35.4796 68.8542 35.7296 69.0417 35.9171 69.3125L38.3337 72.7292C38.5212 73 38.6671 73.2292 38.7504 73.4583C38.8546 73.6875 38.8963 73.8958 38.8963 74.1042C38.8963 74.3542 38.813 74.6042 38.6671 74.8542C38.5213 75.1042 38.3337 75.3542 38.0837 75.6042L37.2921 76.4375C37.1671 76.5625 37.1255 76.6875 37.1255 76.8542C37.1255 76.9375 37.1462 77.0208 37.1671 77.1042C37.2087 77.1875 37.2296 77.25 37.2505 77.3125C37.438 77.6667 37.7713 78.1042 38.2296 78.6458C38.7088 79.1875 39.2088 79.75 39.7505 80.2917C40.313 80.8542 40.8546 81.3542 41.4171 81.8333C41.9588 82.2917 42.4171 82.6042 42.7712 82.7917C42.8337 82.8125 42.8963 82.8542 42.9588 82.875C43.0421 82.9167 43.1255 82.9167 43.2296 82.9167C43.4171 82.9167 43.5422 82.8542 43.6672 82.7292L44.4587 81.9375C44.7296 81.6667 44.9797 81.4792 45.2088 81.3542C45.4588 81.2084 45.688 81.125 45.9588 81.125C46.1671 81.125 46.3755 81.1667 46.6046 81.2708C46.8338 81.375 47.0837 81.5 47.3337 81.6875L50.7921 84.1459C51.063 84.3334 51.2504 84.5625 51.3754 84.8125C51.4796 85.0834 51.5421 85.3333 51.5421 85.625C51.4171 85.9792 51.3338 86.375 51.1671 86.75Z" fill="#1F9A53"/>
<path d="M17.1378 128V114.909H25.9588V117.191H19.9055V120.31H25.505V122.592H19.9055V125.718H25.9844V128H17.1378ZM30.8311 122.324V128H28.1081V118.182H30.7033V119.914H30.8184C31.0357 119.343 31.4 118.891 31.9114 118.559C32.4228 118.222 33.0428 118.054 33.7715 118.054C34.4533 118.054 35.0478 118.203 35.5549 118.501C36.062 118.8 36.4561 119.226 36.7374 119.78C37.0186 120.33 37.1593 120.986 37.1593 121.749V128H34.4363V122.234C34.4405 121.634 34.2871 121.165 33.976 120.828C33.665 120.487 33.2367 120.317 32.6912 120.317C32.3248 120.317 32.0009 120.396 31.7196 120.553C31.4426 120.711 31.2253 120.941 31.0676 121.244C30.9142 121.542 30.8354 121.902 30.8311 122.324ZM42.1051 128.185C41.4787 128.185 40.9205 128.077 40.4304 127.859C39.9403 127.638 39.5526 127.312 39.267 126.881C38.9858 126.447 38.8452 125.906 38.8452 125.258C38.8452 124.712 38.9453 124.254 39.1456 123.884C39.3459 123.513 39.6186 123.214 39.9638 122.989C40.3089 122.763 40.701 122.592 41.1399 122.477C41.5831 122.362 42.0476 122.281 42.5334 122.234C43.1044 122.175 43.5646 122.119 43.9141 122.068C44.2635 122.013 44.517 121.932 44.6747 121.825C44.8324 121.719 44.9112 121.561 44.9112 121.352V121.314C44.9112 120.909 44.7834 120.596 44.5277 120.374C44.2763 120.153 43.9183 120.042 43.4538 120.042C42.9638 120.042 42.5739 120.151 42.2841 120.368C41.9943 120.581 41.8026 120.849 41.7088 121.173L39.1903 120.969C39.3182 120.372 39.5696 119.857 39.9446 119.422C40.3196 118.983 40.8033 118.646 41.3956 118.412C41.9922 118.173 42.6825 118.054 43.4666 118.054C44.0121 118.054 44.5341 118.118 45.0327 118.246C45.5355 118.374 45.9808 118.572 46.3686 118.84C46.7607 119.109 47.0696 119.454 47.2955 119.876C47.5213 120.293 47.6342 120.794 47.6342 121.378V128H45.0518V126.638H44.9751C44.8175 126.945 44.6065 127.216 44.3423 127.45C44.0781 127.68 43.7607 127.862 43.3899 127.994C43.0192 128.121 42.5909 128.185 42.1051 128.185ZM42.8849 126.306C43.2855 126.306 43.6392 126.227 43.946 126.07C44.2528 125.908 44.4936 125.69 44.6683 125.418C44.843 125.145 44.9304 124.836 44.9304 124.491V123.449C44.8452 123.504 44.728 123.555 44.5788 123.602C44.4339 123.645 44.2699 123.685 44.0866 123.724C43.9034 123.758 43.7202 123.79 43.5369 123.82C43.3537 123.845 43.1875 123.869 43.0384 123.89C42.7188 123.937 42.4396 124.011 42.201 124.114C41.9624 124.216 41.777 124.354 41.6449 124.529C41.5128 124.7 41.4467 124.913 41.4467 125.168C41.4467 125.539 41.581 125.822 41.8494 126.018C42.1222 126.21 42.4673 126.306 42.8849 126.306ZM49.7979 128V114.909H52.521V119.831H52.604C52.7234 119.567 52.896 119.298 53.1218 119.026C53.3519 118.749 53.6502 118.518 54.0167 118.335C54.3874 118.148 54.8477 118.054 55.3974 118.054C56.1133 118.054 56.7738 118.241 57.3789 118.616C57.984 118.987 58.4677 119.548 58.8299 120.298C59.1921 121.043 59.3732 121.979 59.3732 123.104C59.3732 124.199 59.1964 125.124 58.8427 125.878C58.4933 126.628 58.016 127.197 57.4109 127.585C56.81 127.968 56.1367 128.16 55.391 128.16C54.8626 128.16 54.413 128.072 54.0423 127.898C53.6758 127.723 53.3754 127.504 53.141 127.239C52.9066 126.971 52.7276 126.7 52.604 126.428H52.4826V128H49.7979ZM52.4634 123.091C52.4634 123.675 52.5444 124.184 52.7063 124.619C52.8683 125.053 53.1026 125.392 53.4094 125.635C53.7163 125.874 54.0891 125.993 54.5281 125.993C54.9712 125.993 55.3462 125.871 55.6531 125.629C55.9599 125.381 56.1921 125.04 56.3498 124.606C56.5117 124.167 56.5927 123.662 56.5927 123.091C56.5927 122.524 56.5138 122.026 56.3562 121.595C56.1985 121.165 55.9663 120.828 55.6594 120.585C55.3526 120.342 54.9755 120.221 54.5281 120.221C54.0849 120.221 53.7099 120.338 53.4031 120.572C53.1005 120.807 52.8683 121.139 52.7063 121.57C52.5444 122 52.4634 122.507 52.4634 123.091ZM63.9132 114.909V128H61.1902V114.909H63.9132ZM70.5689 128.192C69.5589 128.192 68.6896 127.987 67.9609 127.578C67.2365 127.165 66.6783 126.581 66.2862 125.827C65.8942 125.068 65.6982 124.171 65.6982 123.136C65.6982 122.126 65.8942 121.239 66.2862 120.477C66.6783 119.714 67.2301 119.119 67.9418 118.693C68.6577 118.267 69.4972 118.054 70.4602 118.054C71.108 118.054 71.7109 118.158 72.2692 118.367C72.8317 118.572 73.3217 118.881 73.7393 119.294C74.1612 119.707 74.4893 120.227 74.7237 120.854C74.9581 121.476 75.0753 122.205 75.0753 123.04V123.788H66.7848V122.1H72.5121C72.5121 121.708 72.4268 121.361 72.2564 121.058C72.0859 120.756 71.8494 120.519 71.5469 120.349C71.2486 120.174 70.9013 120.087 70.505 120.087C70.0916 120.087 69.7251 120.183 69.4055 120.374C69.0902 120.562 68.843 120.815 68.6641 121.135C68.4851 121.45 68.3935 121.802 68.3892 122.19V123.794C68.3892 124.28 68.4787 124.7 68.6577 125.053C68.8409 125.407 69.0987 125.68 69.4311 125.871C69.7635 126.063 70.1577 126.159 70.6136 126.159C70.9162 126.159 71.1932 126.116 71.4446 126.031C71.696 125.946 71.9112 125.818 72.0902 125.648C72.2692 125.477 72.4055 125.268 72.4993 125.021L75.0178 125.188C74.8899 125.793 74.6278 126.321 74.2315 126.773C73.8395 127.22 73.3324 127.57 72.7102 127.821C72.0923 128.068 71.3786 128.192 70.5689 128.192ZM84.0162 128L80.2704 114.909H83.2939L85.4608 124.005H85.5694L87.9601 114.909H90.5488L92.9331 124.024H93.0481L95.215 114.909H98.2385L94.4927 128H91.7953L89.3024 119.441H89.2001L86.7136 128H84.0162ZM102.392 122.324V128H99.6687V114.909H102.315V119.914H102.43C102.652 119.335 103.01 118.881 103.504 118.553C103.998 118.22 104.618 118.054 105.364 118.054C106.046 118.054 106.64 118.203 107.147 118.501C107.659 118.795 108.055 119.219 108.336 119.773C108.622 120.323 108.762 120.982 108.758 121.749V128H106.035V122.234C106.039 121.629 105.886 121.158 105.575 120.822C105.268 120.485 104.838 120.317 104.284 120.317C103.913 120.317 103.585 120.396 103.299 120.553C103.018 120.711 102.797 120.941 102.635 121.244C102.477 121.542 102.396 121.902 102.392 122.324ZM113.701 128.185C113.074 128.185 112.516 128.077 112.026 127.859C111.536 127.638 111.148 127.312 110.863 126.881C110.581 126.447 110.441 125.906 110.441 125.258C110.441 124.712 110.541 124.254 110.741 123.884C110.942 123.513 111.214 123.214 111.559 122.989C111.905 122.763 112.297 122.592 112.736 122.477C113.179 122.362 113.643 122.281 114.129 122.234C114.7 122.175 115.16 122.119 115.51 122.068C115.859 122.013 116.113 121.932 116.27 121.825C116.428 121.719 116.507 121.561 116.507 121.352V121.314C116.507 120.909 116.379 120.596 116.123 120.374C115.872 120.153 115.514 120.042 115.05 120.042C114.559 120.042 114.17 120.151 113.88 120.368C113.59 120.581 113.398 120.849 113.305 121.173L110.786 120.969C110.914 120.372 111.165 119.857 111.54 119.422C111.915 118.983 112.399 118.646 112.991 118.412C113.588 118.173 114.278 118.054 115.062 118.054C115.608 118.054 116.13 118.118 116.628 118.246C117.131 118.374 117.577 118.572 117.964 118.84C118.356 119.109 118.665 119.454 118.891 119.876C119.117 120.293 119.23 120.794 119.23 121.378V128H116.648V126.638H116.571C116.413 126.945 116.202 127.216 115.938 127.45C115.674 127.68 115.356 127.862 114.986 127.994C114.615 128.121 114.187 128.185 113.701 128.185ZM114.481 126.306C114.881 126.306 115.235 126.227 115.542 126.07C115.849 125.908 116.089 125.69 116.264 125.418C116.439 125.145 116.526 124.836 116.526 124.491V123.449C116.441 123.504 116.324 123.555 116.175 123.602C116.03 123.645 115.866 123.685 115.682 123.724C115.499 123.758 115.316 123.79 115.133 123.82C114.949 123.845 114.783 123.869 114.634 123.89C114.314 123.937 114.035 124.011 113.797 124.114C113.558 124.216 113.373 124.354 113.241 124.529C113.108 124.7 113.042 124.913 113.042 125.168C113.042 125.539 113.177 125.822 113.445 126.018C113.718 126.21 114.063 126.306 114.481 126.306ZM126.565 118.182V120.227H120.652V118.182H126.565ZM121.994 115.83H124.718V124.983C124.718 125.234 124.756 125.43 124.833 125.571C124.909 125.707 125.016 125.803 125.152 125.859C125.293 125.914 125.455 125.942 125.638 125.942C125.766 125.942 125.894 125.931 126.021 125.91C126.149 125.884 126.247 125.865 126.316 125.852L126.744 127.879C126.607 127.921 126.416 127.97 126.169 128.026C125.921 128.085 125.621 128.121 125.267 128.134C124.611 128.16 124.036 128.072 123.541 127.872C123.051 127.672 122.67 127.361 122.397 126.939C122.124 126.517 121.99 125.984 121.994 125.341V115.83ZM136.385 120.982L133.892 121.135C133.849 120.922 133.757 120.73 133.617 120.56C133.476 120.385 133.291 120.246 133.061 120.144C132.835 120.038 132.564 119.984 132.249 119.984C131.827 119.984 131.471 120.074 131.181 120.253C130.892 120.428 130.747 120.662 130.747 120.956C130.747 121.19 130.841 121.388 131.028 121.55C131.216 121.712 131.537 121.842 131.993 121.94L133.77 122.298C134.725 122.494 135.436 122.81 135.905 123.244C136.374 123.679 136.608 124.25 136.608 124.957C136.608 125.601 136.419 126.165 136.039 126.651C135.664 127.137 135.149 127.516 134.493 127.789C133.841 128.058 133.088 128.192 132.236 128.192C130.936 128.192 129.901 127.921 129.13 127.38C128.363 126.835 127.913 126.093 127.781 125.156L130.459 125.015C130.54 125.411 130.736 125.714 131.047 125.923C131.358 126.127 131.757 126.229 132.243 126.229C132.72 126.229 133.103 126.138 133.393 125.955C133.687 125.767 133.836 125.526 133.841 125.232C133.836 124.985 133.732 124.783 133.527 124.625C133.323 124.463 133.007 124.339 132.581 124.254L130.881 123.915C129.922 123.724 129.208 123.391 128.74 122.918C128.275 122.445 128.043 121.842 128.043 121.109C128.043 120.479 128.213 119.935 128.554 119.479C128.9 119.023 129.383 118.672 130.005 118.425C130.632 118.178 131.365 118.054 132.204 118.054C133.444 118.054 134.42 118.316 135.132 118.84C135.848 119.364 136.265 120.078 136.385 120.982ZM140.631 128H137.665L142.184 114.909H145.751L150.263 128H147.297L144.018 117.901H143.916L140.631 128ZM140.445 122.854H147.451V125.015H140.445V122.854ZM151.788 131.682V118.182H154.472V119.831H154.594C154.713 119.567 154.886 119.298 155.112 119.026C155.342 118.749 155.64 118.518 156.007 118.335C156.377 118.148 156.838 118.054 157.387 118.054C158.103 118.054 158.764 118.241 159.369 118.616C159.974 118.987 160.458 119.548 160.82 120.298C161.182 121.043 161.363 121.979 161.363 123.104C161.363 124.199 161.186 125.124 160.833 125.878C160.483 126.628 160.006 127.197 159.401 127.585C158.8 127.968 158.127 128.16 157.381 128.16C156.852 128.16 156.403 128.072 156.032 127.898C155.666 127.723 155.365 127.504 155.131 127.239C154.896 126.971 154.718 126.7 154.594 126.428H154.511V131.682H151.788ZM154.453 123.091C154.453 123.675 154.534 124.184 154.696 124.619C154.858 125.053 155.093 125.392 155.399 125.635C155.706 125.874 156.079 125.993 156.518 125.993C156.961 125.993 157.336 125.871 157.643 125.629C157.95 125.381 158.182 125.04 158.34 124.606C158.502 124.167 158.583 123.662 158.583 123.091C158.583 122.524 158.504 122.026 158.346 121.595C158.188 121.165 157.956 120.828 157.649 120.585C157.343 120.342 156.965 120.221 156.518 120.221C156.075 120.221 155.7 120.338 155.393 120.572C155.09 120.807 154.858 121.139 154.696 121.57C154.534 122 154.453 122.507 154.453 123.091ZM163.178 131.682V118.182H165.863V119.831H165.985C166.104 119.567 166.276 119.298 166.502 119.026C166.732 118.749 167.031 118.518 167.397 118.335C167.768 118.148 168.228 118.054 168.778 118.054C169.494 118.054 170.154 118.241 170.759 118.616C171.365 118.987 171.848 119.548 172.21 120.298C172.573 121.043 172.754 121.979 172.754 123.104C172.754 124.199 172.577 125.124 172.223 125.878C171.874 126.628 171.396 127.197 170.791 127.585C170.191 127.968 169.517 128.16 168.771 128.16C168.243 128.16 167.794 128.072 167.423 127.898C167.056 127.723 166.756 127.504 166.521 127.239C166.287 126.971 166.108 126.7 165.985 126.428H165.901V131.682H163.178ZM165.844 123.091C165.844 123.675 165.925 124.184 166.087 124.619C166.249 125.053 166.483 125.392 166.79 125.635C167.097 125.874 167.47 125.993 167.909 125.993C168.352 125.993 168.727 125.871 169.034 125.629C169.34 125.381 169.573 125.04 169.73 124.606C169.892 124.167 169.973 123.662 169.973 123.091C169.973 122.524 169.894 122.026 169.737 121.595C169.579 121.165 169.347 120.828 169.04 120.585C168.733 120.342 168.356 120.221 167.909 120.221C167.465 120.221 167.09 120.338 166.784 120.572C166.481 120.807 166.249 121.139 166.087 121.57C165.925 122 165.844 122.507 165.844 123.091ZM19.8097 146.324V152H17.0866V142.182H19.6818V143.914H19.7969C20.0142 143.343 20.3786 142.891 20.8899 142.559C21.4013 142.222 22.0213 142.054 22.75 142.054C23.4318 142.054 24.0263 142.203 24.5334 142.501C25.0405 142.8 25.4347 143.226 25.7159 143.78C25.9972 144.33 26.1378 144.986 26.1378 145.749V152H23.4148V146.234C23.419 145.634 23.2656 145.165 22.9545 144.828C22.6435 144.487 22.2152 144.317 21.6697 144.317C21.3033 144.317 20.9794 144.396 20.6982 144.553C20.4212 144.711 20.2038 144.941 20.0462 145.244C19.8928 145.542 19.8139 145.902 19.8097 146.324ZM32.72 152.192C31.7271 152.192 30.8684 151.981 30.144 151.559C29.4238 151.133 28.8677 150.54 28.4757 149.782C28.0836 149.019 27.8876 148.135 27.8876 147.129C27.8876 146.115 28.0836 145.229 28.4757 144.47C28.8677 143.707 29.4238 143.115 30.144 142.693C30.8684 142.267 31.7271 142.054 32.72 142.054C33.7129 142.054 34.5694 142.267 35.2896 142.693C36.014 143.115 36.5723 143.707 36.9643 144.47C37.3564 145.229 37.5524 146.115 37.5524 147.129C37.5524 148.135 37.3564 149.019 36.9643 149.782C36.5723 150.54 36.014 151.133 35.2896 151.559C34.5694 151.981 33.7129 152.192 32.72 152.192ZM32.7328 150.082C33.1845 150.082 33.5616 149.955 33.8642 149.699C34.1667 149.439 34.3947 149.085 34.5481 148.638C34.7058 148.19 34.7846 147.681 34.7846 147.11C34.7846 146.539 34.7058 146.03 34.5481 145.582C34.3947 145.135 34.1667 144.781 33.8642 144.521C33.5616 144.261 33.1845 144.131 32.7328 144.131C32.2768 144.131 31.8933 144.261 31.5822 144.521C31.2754 144.781 31.0431 145.135 30.8855 145.582C30.7321 146.03 30.6554 146.539 30.6554 147.11C30.6554 147.681 30.7321 148.19 30.8855 148.638C31.0431 149.085 31.2754 149.439 31.5822 149.699C31.8933 149.955 32.2768 150.082 32.7328 150.082ZM44.5453 142.182V144.227H38.6326V142.182H44.5453ZM39.975 139.83H42.698V148.983C42.698 149.234 42.7363 149.43 42.813 149.571C42.8897 149.707 42.9963 149.803 43.1326 149.859C43.2733 149.914 43.4352 149.942 43.6184 149.942C43.7463 149.942 43.8741 149.931 44.002 149.91C44.1298 149.884 44.2278 149.865 44.296 149.852L44.7243 151.879C44.5879 151.921 44.3961 151.97 44.149 152.026C43.9018 152.085 43.6014 152.121 43.2477 152.134C42.5914 152.16 42.0162 152.072 41.5218 151.872C41.0318 151.672 40.6504 151.361 40.3777 150.939C40.1049 150.517 39.9707 149.984 39.975 149.341V139.83ZM46.3191 152V142.182H49.0421V152H46.3191ZM47.687 140.916C47.2821 140.916 46.9348 140.782 46.6451 140.513C46.3596 140.241 46.2168 139.915 46.2168 139.536C46.2168 139.161 46.3596 138.839 46.6451 138.57C46.9348 138.298 47.2821 138.161 47.687 138.161C48.0918 138.161 48.437 138.298 48.7225 138.57C49.0123 138.839 49.1571 139.161 49.1571 139.536C49.1571 139.915 49.0123 140.241 48.7225 140.513C48.437 140.782 48.0918 140.916 47.687 140.916ZM56.5032 142.182V144.227H50.4435V142.182H56.5032ZM51.8306 152V141.472C51.8306 140.761 51.9691 140.17 52.2461 139.702C52.5273 139.233 52.9109 138.881 53.3967 138.647C53.8825 138.413 54.4343 138.295 55.0522 138.295C55.4698 138.295 55.8512 138.327 56.1964 138.391C56.5458 138.455 56.8058 138.513 56.9762 138.564L56.4904 140.609C56.3839 140.575 56.2518 140.543 56.0941 140.513C55.9407 140.484 55.783 140.469 55.6211 140.469C55.2205 140.469 54.9414 140.562 54.7837 140.75C54.6261 140.933 54.5472 141.191 54.5472 141.523V152H51.8306ZM58.1667 152V142.182H60.8897V152H58.1667ZM59.5346 140.916C59.1298 140.916 58.7825 140.782 58.4927 140.513C58.2072 140.241 58.0645 139.915 58.0645 139.536C58.0645 139.161 58.2072 138.839 58.4927 138.57C58.7825 138.298 59.1298 138.161 59.5346 138.161C59.9395 138.161 60.2846 138.298 60.5701 138.57C60.8599 138.839 61.0048 139.161 61.0048 139.536C61.0048 139.915 60.8599 140.241 60.5701 140.513C60.2846 140.782 59.9395 140.916 59.5346 140.916ZM67.5071 152.192C66.5014 152.192 65.6364 151.979 64.9119 151.553C64.1918 151.122 63.6378 150.526 63.25 149.763C62.8665 149 62.6747 148.122 62.6747 147.129C62.6747 146.124 62.8686 145.241 63.2564 144.483C63.6484 143.72 64.2045 143.126 64.9247 142.7C65.6449 142.269 66.5014 142.054 67.4943 142.054C68.3509 142.054 69.1009 142.21 69.7443 142.521C70.3878 142.832 70.897 143.268 71.272 143.831C71.647 144.393 71.8537 145.054 71.892 145.812H69.3224C69.25 145.322 69.0582 144.928 68.7472 144.63C68.4403 144.327 68.0376 144.176 67.5391 144.176C67.1172 144.176 66.7486 144.291 66.4332 144.521C66.1222 144.747 65.8793 145.077 65.7045 145.512C65.5298 145.947 65.4425 146.473 65.4425 147.091C65.4425 147.717 65.5277 148.25 65.6982 148.689C65.8729 149.128 66.1179 149.462 66.4332 149.692C66.7486 149.923 67.1172 150.038 67.5391 150.038C67.8501 150.038 68.1293 149.974 68.3764 149.846C68.6278 149.718 68.8345 149.533 68.9964 149.29C69.1626 149.043 69.2713 148.746 69.3224 148.401H71.892C71.8494 149.151 71.6449 149.812 71.2784 150.383C70.9162 150.95 70.4155 151.393 69.7763 151.712C69.1371 152.032 68.3807 152.192 67.5071 152.192ZM76.4352 152.185C75.8088 152.185 75.2505 152.077 74.7605 151.859C74.2704 151.638 73.8826 151.312 73.5971 150.881C73.3159 150.447 73.1752 149.906 73.1752 149.258C73.1752 148.712 73.2754 148.254 73.4757 147.884C73.676 147.513 73.9487 147.214 74.2939 146.989C74.639 146.763 75.0311 146.592 75.47 146.477C75.9132 146.362 76.3777 146.281 76.8635 146.234C77.4345 146.175 77.8947 146.119 78.2441 146.068C78.5936 146.013 78.8471 145.932 79.0048 145.825C79.1625 145.719 79.2413 145.561 79.2413 145.352V145.314C79.2413 144.909 79.1135 144.596 78.8578 144.374C78.6064 144.153 78.2484 144.042 77.7839 144.042C77.2939 144.042 76.9039 144.151 76.6142 144.368C76.3244 144.581 76.1326 144.849 76.0389 145.173L73.5204 144.969C73.6483 144.372 73.8997 143.857 74.2747 143.422C74.6497 142.983 75.1333 142.646 75.7257 142.412C76.3223 142.173 77.0126 142.054 77.7967 142.054C78.3422 142.054 78.8642 142.118 79.3627 142.246C79.8656 142.374 80.3109 142.572 80.6987 142.84C81.0907 143.109 81.3997 143.454 81.6255 143.876C81.8514 144.293 81.9643 144.794 81.9643 145.378V152H79.3819V150.638H79.3052C79.1475 150.945 78.9366 151.216 78.6724 151.45C78.4082 151.68 78.0907 151.862 77.72 151.994C77.3493 152.121 76.921 152.185 76.4352 152.185ZM77.215 150.306C77.6156 150.306 77.9693 150.227 78.2761 150.07C78.5829 149.908 78.8237 149.69 78.9984 149.418C79.1731 149.145 79.2605 148.836 79.2605 148.491V147.449C79.1752 147.504 79.0581 147.555 78.9089 147.602C78.764 147.645 78.6 147.685 78.4167 147.724C78.2335 147.758 78.0502 147.79 77.867 147.82C77.6838 147.845 77.5176 147.869 77.3684 147.89C77.0488 147.937 76.7697 148.011 76.5311 148.114C76.2924 148.216 76.1071 148.354 75.975 148.529C75.8429 148.7 75.7768 148.913 75.7768 149.168C75.7768 149.539 75.911 149.822 76.1795 150.018C76.4522 150.21 76.7974 150.306 77.215 150.306ZM89.2992 142.182V144.227H83.3865V142.182H89.2992ZM84.7289 139.83H87.4519V148.983C87.4519 149.234 87.4902 149.43 87.5669 149.571C87.6436 149.707 87.7502 149.803 87.8865 149.859C88.0272 149.914 88.1891 149.942 88.3723 149.942C88.5002 149.942 88.628 149.931 88.7559 149.91C88.8837 149.884 88.9817 149.865 89.0499 149.852L89.4782 151.879C89.3418 151.921 89.15 151.97 88.9029 152.026C88.6557 152.085 88.3553 152.121 88.0016 152.134C87.3453 152.16 86.7701 152.072 86.2757 151.872C85.7857 151.672 85.4043 151.361 85.1316 150.939C84.8588 150.517 84.7246 149.984 84.7289 149.341V139.83ZM91.073 152V142.182H93.796V152H91.073ZM92.4409 140.916C92.036 140.916 91.6887 140.782 91.399 140.513C91.1135 140.241 90.9707 139.915 90.9707 139.536C90.9707 139.161 91.1135 138.839 91.399 138.57C91.6887 138.298 92.036 138.161 92.4409 138.161C92.8457 138.161 93.1909 138.298 93.4764 138.57C93.7662 138.839 93.911 139.161 93.911 139.536C93.911 139.915 93.7662 140.241 93.4764 140.513C93.1909 140.782 92.8457 140.916 92.4409 140.916ZM100.413 152.192C99.4205 152.192 98.5618 151.981 97.8374 151.559C97.1172 151.133 96.5611 150.54 96.169 149.782C95.777 149.019 95.581 148.135 95.581 147.129C95.581 146.115 95.777 145.229 96.169 144.47C96.5611 143.707 97.1172 143.115 97.8374 142.693C98.5618 142.267 99.4205 142.054 100.413 142.054C101.406 142.054 102.263 142.267 102.983 142.693C103.707 143.115 104.266 143.707 104.658 144.47C105.05 145.229 105.246 146.115 105.246 147.129C105.246 148.135 105.05 149.019 104.658 149.782C104.266 150.54 103.707 151.133 102.983 151.559C102.263 151.981 101.406 152.192 100.413 152.192ZM100.426 150.082C100.878 150.082 101.255 149.955 101.558 149.699C101.86 149.439 102.088 149.085 102.241 148.638C102.399 148.19 102.478 147.681 102.478 147.11C102.478 146.539 102.399 146.03 102.241 145.582C102.088 145.135 101.86 144.781 101.558 144.521C101.255 144.261 100.878 144.131 100.426 144.131C99.9702 144.131 99.5866 144.261 99.2756 144.521C98.9688 144.781 98.7365 145.135 98.5788 145.582C98.4254 146.03 98.3487 146.539 98.3487 147.11C98.3487 147.681 98.4254 148.19 98.5788 148.638C98.7365 149.085 98.9688 149.439 99.2756 149.699C99.5866 149.955 99.9702 150.082 100.426 150.082ZM109.739 146.324V152H107.016V142.182H109.612V143.914H109.727C109.944 143.343 110.308 142.891 110.82 142.559C111.331 142.222 111.951 142.054 112.68 142.054C113.362 142.054 113.956 142.203 114.463 142.501C114.97 142.8 115.364 143.226 115.646 143.78C115.927 144.33 116.067 144.986 116.067 145.749V152H113.344V146.234C113.349 145.634 113.195 145.165 112.884 144.828C112.573 144.487 112.145 144.317 111.599 144.317C111.233 144.317 110.909 144.396 110.628 144.553C110.351 144.711 110.134 144.941 109.976 145.244C109.822 145.542 109.744 145.902 109.739 146.324Z" fill="#1F2D3D"/>
<path d="M258.238 118.575L256.825 116.225C256.513 115.713 256.238 114.725 256.238 114.125V111.788C256.238 107.25 252.55 103.562 248.025 103.562C243.488 103.575 239.8 107.25 239.8 111.788V114.112C239.8 114.712 239.525 115.7 239.225 116.212L237.813 118.562C237.275 119.475 237.15 120.512 237.488 121.413C237.825 122.325 238.588 123.05 239.588 123.375C240.938 123.825 242.3 124.15 243.688 124.388C243.825 124.413 243.963 124.425 244.1 124.45C244.275 124.475 244.463 124.5 244.65 124.525C244.975 124.575 245.3 124.613 245.638 124.638C246.425 124.713 247.225 124.75 248.025 124.75C248.813 124.75 249.6 124.713 250.375 124.638C250.663 124.613 250.95 124.588 251.225 124.55C251.45 124.525 251.675 124.5 251.9 124.463C252.038 124.45 252.175 124.425 252.313 124.4C253.713 124.175 255.1 123.825 256.45 123.375C257.413 123.05 258.15 122.325 258.5 121.4C258.85 120.462 258.75 119.438 258.238 118.575ZM248.938 113.5C248.938 114.025 248.513 114.45 247.988 114.45C247.463 114.45 247.038 114.025 247.038 113.5V109.625C247.038 109.1 247.463 108.675 247.988 108.675C248.513 108.675 248.938 109.1 248.938 109.625V113.5Z" fill="#CADCD2"/>
<path d="M251.537 126.013C251.012 127.463 249.625 128.5 248 128.5C247.012 128.5 246.037 128.1 245.35 127.388C244.95 127.013 244.65 126.512 244.475 126C244.637 126.025 244.8 126.037 244.975 126.062C245.262 126.1 245.562 126.137 245.862 126.162C246.575 126.225 247.3 126.262 248.025 126.262C248.737 126.262 249.45 126.225 250.15 126.162C250.412 126.137 250.675 126.125 250.925 126.087C251.125 126.062 251.325 126.038 251.537 126.013Z" fill="#CADCD2"/>
</g>
<defs>
<linearGradient id="paint0_linear_306_11245" x1="180" y1="225.522" x2="180" y2="-114.071" gradientUnits="userSpaceOnUse">
<stop stop-color="#E3FEEF"/>
<stop offset="1" stop-color="white" stop-opacity="0"/>
</linearGradient>
<clipPath id="clip0_306_11245">
<path d="M0 15.999C0 7.16247 7.16344 -0.000976562 16 -0.000976562H344C352.837 -0.000976562 360 7.16247 360 15.999V179.999H0V15.999Z" fill="white"/>
</clipPath>
</defs>
</svg>
